<?xml version="1.0" encoding="UTF-8"?>
<!DOCTYPE svg PUBLIC "-//W3C//DTD SVG 1.1//EN" "http://www.w3.org/Graphics/SVG/1.1/DTD/svg11.dtd">
<!-- Creator: CorelDRAW 2019 (64-Bit) -->
<svg xmlns="http://www.w3.org/2000/svg" xml:space="preserve" width="179px" height="220px" version="1.1" style="shape-rendering:geometricPrecision; text-rendering:geometricPrecision; image-rendering:optimizeQuality; fill-rule:evenodd; clip-rule:evenodd"
viewBox="0 0 56.12 69.02"
 xmlns:xlink="http://www.w3.org/1999/xlink"
 xmlns:xodm="http://www.corel.com/coreldraw/odm/2003">
 <defs>
  <style type="text/css">
   <![CDATA[
    .fil4 {fill:#FEFEFE}
    .fil2 {fill:#FFF212}
    .fil1 {fill:#3E4095}
    .fil0 {fill:#FEFEFE;fill-rule:nonzero}
    .fil3 {fill:#3E4095;fill-rule:nonzero}
   ]]>
  </style>
    <clipPath id="id0">
     <path d="M1.73 1.59l52.67 0 0 65.84 -52.67 0 0 -65.84z"/>
    </clipPath>
 </defs>
 <g id="Layer_x0020_1">
  <metadata id="CorelCorpID_0Corel-Layer"/>
  <g id="_2700968569200">
   <g>
    <path class="fil0" d="M54.4 3.19l-52.67 0 0 -3.19 52.67 0 1.72 1.59 -1.72 1.6zm0 -3.19l1.72 0 0 1.59 -1.72 -1.59zm-1.73 67.43l0 -65.84 3.45 0 0 65.84 -1.72 1.59 -1.73 -1.59zm3.45 0l0 1.59 -1.72 0 1.72 -1.59zm-54.39 -1.59l52.67 0 0 3.18 -52.67 0 -1.73 -1.59 1.73 -1.59zm0 3.18l-1.73 0 0 -1.59 1.73 1.59zm1.72 -67.43l0 65.84 -3.45 0 0 -65.84 1.73 -1.59 1.72 1.59zm-3.45 0l0 -1.59 1.73 0 -1.73 1.59z"/>
   </g>
   <polygon id="1" class="fil1" points="1.73,1.59 54.4,1.59 54.4,67.43 1.73,67.43 "/>
   <g style="clip-path:url(#id0)">
    <g id="_2700968575152">
     <polygon id="2" class="fil2" points="28.06,16.44 30.49,36.21 38.75,18.18 35.11,37.75 48.39,23.22 39.03,40.68 56.05,31.07 41.89,44.71 60.96,40.97 43.39,49.45 62.65,51.94 43.39,54.43 60.96,62.9 41.89,59.17 56.05,72.8 39.03,63.2 48.39,80.65 35.11,66.12 38.75,85.69 30.49,67.66 28.06,87.43 25.63,67.66 17.37,85.69 21.02,66.12 7.73,80.65 17.09,63.2 0.07,72.8 14.23,59.17 -4.84,62.9 12.73,54.43 -6.53,51.94 12.73,49.45 -4.84,40.97 14.23,44.71 0.07,31.07 17.09,40.68 7.73,23.22 21.02,37.75 17.37,18.18 25.63,36.21 "/>
    </g>
   </g>
   <rect class="fil2" x="1.73" y="47.35" width="52.67" height="20.09"/>
   <path class="fil1" d="M3.47 59.24l1.73 0c0.73,0 1.33,0.26 1.78,0.78 0.45,0.52 0.67,1.2 0.67,2.05 0,0.85 -0.23,1.53 -0.69,2.05 -0.47,0.51 -1.09,0.77 -1.86,0.77l-1.63 0 0 -5.65zm1.1 1.07l0 3.48 0.43 0c0.45,0 0.81,-0.13 1.1,-0.4 0.29,-0.28 0.43,-0.73 0.43,-1.37 0,-0.37 -0.07,-0.69 -0.2,-0.98 -0.14,-0.28 -0.34,-0.48 -0.61,-0.58 -0.26,-0.1 -0.51,-0.15 -0.75,-0.15l-0.4 0zm5.14 -1.07l0.85 0 2.07 5.65 -1.1 0 -0.41 -1.11 -1.95 0 -0.39 1.11 -1.09 0 2.02 -5.65zm0.43 1.85l-0.59 1.66 1.2 0 -0.61 -1.66zm3.25 -1.85l1.66 0c0.51,0 0.91,0.15 1.21,0.45 0.29,0.3 0.44,0.7 0.44,1.21 0,0.29 -0.07,0.59 -0.2,0.9 -0.14,0.31 -0.39,0.56 -0.75,0.73l1.42 2.36 -1.25 0 -1.32 -2.19 -0.12 0 0 2.19 -1.09 0 0 -5.65zm1.1 1.01l0 1.47 0.23 0c0.57,0 0.86,-0.26 0.86,-0.78 0,-0.21 -0.08,-0.38 -0.23,-0.51 -0.14,-0.12 -0.35,-0.18 -0.61,-0.18l-0.25 0zm3.11 2.23l2.23 0 0 1.11 -2.23 0 0 -1.11zm2.89 -3.24l2.85 0 0 1.12 -1.76 0 0 1.14 1.76 0 0 1.1 -1.76 0 0 1.17 1.76 0 0 1.12 -2.85 0 0 -5.65zm3.37 3.24l2.23 0 0 1.11 -2.23 0 0 -1.11zm4.64 -3.24l0.84 0 2.07 5.65 -1.1 0 -0.41 -1.11 -1.94 0 -0.4 1.11 -1.09 0 2.03 -5.65zm0.42 1.85l-0.59 1.66 1.2 0 -0.61 -1.66zm3.25 -1.85l1.67 0c0.51,0 0.91,0.15 1.2,0.45 0.3,0.3 0.44,0.7 0.44,1.21 0,0.29 -0.06,0.59 -0.2,0.9 -0.13,0.31 -0.38,0.56 -0.75,0.73l1.42 2.36 -1.25 0 -1.31 -2.19 -0.13 0 0 2.19 -1.09 0 0 -5.65zm1.1 1.01l0 1.47 0.24 0c0.57,0 0.85,-0.26 0.85,-0.78 0,-0.21 -0.07,-0.38 -0.22,-0.51 -0.15,-0.12 -0.36,-0.18 -0.62,-0.18l-0.25 0zm7.43 3.88l0.62 0.8 -0.74 0.52 -0.56 -0.77c-0.43,0.18 -0.81,0.27 -1.15,0.27 -0.75,0 -1.36,-0.28 -1.84,-0.84 -0.48,-0.55 -0.72,-1.26 -0.72,-2.13 0,-0.72 0.23,-1.36 0.7,-1.94 0.46,-0.58 1.08,-0.87 1.85,-0.87 0.72,0 1.33,0.28 1.82,0.83 0.5,0.55 0.74,1.23 0.74,2.03 0,0.83 -0.24,1.53 -0.72,2.1zm-1.4 -0.37l-0.53 -0.7 0.71 -0.53 0.49 0.65c0.2,-0.25 0.3,-0.61 0.3,-1.08 0,-0.55 -0.12,-0.99 -0.38,-1.31 -0.26,-0.33 -0.6,-0.49 -1.03,-0.49 -0.41,0 -0.75,0.16 -1.01,0.48 -0.27,0.33 -0.4,0.74 -0.4,1.25 0,0.52 0.13,0.95 0.38,1.28 0.25,0.33 0.57,0.5 0.96,0.5 0.14,0 0.31,-0.02 0.51,-0.05zm4.7 -4.52l0.85 0 2.07 5.65 -1.1 0 -0.41 -1.11 -1.94 0 -0.4 1.11 -1.09 0 2.02 -5.65zm0.43 1.85l-0.59 1.66 1.2 0 -0.61 -1.66zm3.62 -1.85l1.29 0 0.95 3.39 0.95 -3.39 1.26 0 0.65 5.65 -1.04 0 -0.45 -3.98 -1.11 3.98 -0.5 0 -1.15 -4.01 -0.42 4.01 -1.05 0 0.62 -5.65z"/>
   <g>
    <path class="fil1" d="M8.03 54.9l39.98 0 0.61 0.14 -0.56 1.89c-5.88,-0.21 -11.76,-0.43 -17.64,-0.64 -0.25,-0.01 -0.5,-0.01 -0.58,0.47 -0.13,2.12 -3.52,2.12 -3.65,0 -0.07,-0.48 -0.33,-0.48 -0.57,-0.47 -5.88,0.21 -11.76,0.43 -17.64,0.64l-0.48 -1.89 0.53 -0.14z"/>
    <path id="1" class="fil3" d="M48.01 55.04l-39.98 0 0 -0.29 39.98 0 0.02 0 -0.02 0.29zm0 -0.29l0.01 0 0.01 0 -0.02 0zm0.59 0.43l-0.62 -0.14 0.05 -0.29 0.62 0.14 0.1 0.19 -0.15 0.1zm0.05 -0.29l0.15 0.04 -0.05 0.15 -0.1 -0.19zm-0.72 1.99l0.57 -1.89 0.25 0.09 -0.56 1.9 -0.14 0.1 -0.12 -0.2zm0.26 0.1l-0.04 0.1 -0.1 0 0.14 -0.1zm-17.78 -0.54l0.01 -0.3 0 0 0.55 0.02 0.56 0.02 0.55 0.02 0.55 0.02 0.55 0.02 0.55 0.02 0.55 0.02 0.55 0.02 0.55 0.02 0.56 0.02 0.55 0.02 0.55 0.02 0.55 0.02 0.55 0.02 0.55 0.02 0.55 0.02 0.56 0.02 0.55 0.02 0.55 0.02 0.55 0.02 0.55 0.02 0.55 0.02 0.55 0.02 0.55 0.02 0.55 0.02 0.56 0.02 0.55 0.02 0.55 0.02 0.55 0.02 0.55 0.02 0.55 0.02 0.55 0.02 -0.01 0.3 -0.55 -0.02 -0.55 -0.02 -0.55 -0.02 -0.55 -0.02 -0.55 -0.02 -0.55 -0.02 -0.55 -0.02 -0.56 -0.02 -0.55 -0.02 -0.55 -0.02 -0.55 -0.02 -0.55 -0.02 -0.55 -0.02 -0.55 -0.02 -0.55 -0.02 -0.56 -0.02 -0.55 -0.02 -0.55 -0.02 -0.55 -0.02 -0.55 -0.02 -0.55 -0.02 -0.55 -0.02 -0.55 -0.02 -0.56 -0.02 -0.55 -0.02 -0.55 -0.02 -0.55 -0.02 -0.55 -0.02 -0.55 -0.02 -0.55 -0.02 -0.55 -0.02 -0.56 -0.02 0 0zm-0.43 0.33l-0.27 -0.02 0 -0.02 0.01 -0.05 0.01 -0.04 0.01 -0.05 0.02 -0.04 0.01 -0.04 0.02 -0.04 0.01 -0.03 0.02 -0.04 0.02 -0.03 0.02 -0.03 0.02 -0.03 0.03 -0.02 0.02 -0.02 0.03 -0.02 0.02 -0.02 0.03 -0.02 0.02 -0.01 0.03 -0.02 0.03 -0.01 0.03 0 0.02 -0.01 0.03 -0.01 0.03 0 0.02 0 0.03 -0.01 0.03 0 0.02 0 0.03 0 0.02 0 0.03 0 0.02 0 0.02 0 -0.01 0.3 -0.02 0 -0.02 0 -0.02 0 -0.02 0 -0.02 0 -0.02 0 -0.02 0 -0.02 0 -0.02 0 -0.02 0.01 -0.01 0 -0.02 0 -0.01 0.01 -0.02 0 -0.01 0.01 -0.01 0 -0.01 0.01 -0.02 0.01 -0.01 0.01 -0.01 0.01 -0.01 0.01 -0.01 0.01 -0.01 0.02 -0.01 0.01 -0.01 0.02 -0.01 0.02 -0.01 0.02 0 0.03 -0.01 0.03 -0.01 0.03 -0.01 0.03 0 0.04 0 -0.01zm-0.27 -0.02l0 -0.01 0 -0.01 0 0.02zm-3.65 0.03l0.26 -0.05 0 0.02 0.02 0.17 0.04 0.17 0.05 0.15 0.07 0.14 0.07 0.13 0.09 0.11 0.1 0.11 0.12 0.1 0.12 0.08 0.13 0.08 0.13 0.06 0.15 0.06 0.15 0.04 0.15 0.03 0.15 0.01 0.16 0.01 0.15 -0.01 0.16 -0.01 0.15 -0.03 0.15 -0.04 0.14 -0.06 0.14 -0.06 0.13 -0.08 0.12 -0.08 0.11 -0.1 0.1 -0.11 0.09 -0.11 0.08 -0.13 0.07 -0.14 0.05 -0.15 0.03 -0.17 0.02 -0.17 0.27 0.02 -0.03 0.21 -0.04 0.19 -0.06 0.19 -0.08 0.17 -0.09 0.15 -0.11 0.15 -0.12 0.13 -0.14 0.11 -0.14 0.1 -0.15 0.09 -0.16 0.07 -0.16 0.06 -0.16 0.05 -0.18 0.03 -0.17 0.02 -0.17 0 -0.18 0 -0.17 -0.02 -0.17 -0.03 -0.17 -0.05 -0.16 -0.06 -0.16 -0.07 -0.15 -0.09 -0.14 -0.1 -0.13 -0.11 -0.12 -0.13 -0.11 -0.15 -0.09 -0.15 -0.08 -0.17 -0.06 -0.19 -0.05 -0.19 -0.02 -0.21 0 0.01zm0.26 -0.05l0 0.01 0 0.01 0 -0.02zm-0.7 -0.29l-0.01 -0.3 0 0 0.03 0 0.02 0 0.03 0 0.02 0 0.03 0 0.02 0 0.03 0 0.02 0.01 0.03 0 0.03 0 0.02 0.01 0.03 0.01 0.03 0 0.02 0.01 0.03 0.02 0.03 0.01 0.03 0.02 0.02 0.02 0.03 0.02 0.02 0.02 0.02 0.02 0.03 0.03 0.02 0.03 0.02 0.03 0.01 0.04 0.02 0.03 0.02 0.04 0.01 0.04 0.01 0.04 0.01 0.05 0.01 0.04 0.01 0.05 -0.26 0.05 -0.01 -0.04 0 -0.03 -0.01 -0.03 -0.01 -0.03 -0.01 -0.03 -0.01 -0.02 -0.01 -0.02 -0.01 -0.02 -0.01 -0.01 -0.01 -0.02 -0.01 -0.01 -0.01 -0.01 -0.01 -0.01 -0.01 -0.01 -0.01 -0.01 -0.01 -0.01 -0.01 0 -0.02 -0.01 -0.01 0 -0.01 -0.01 -0.02 0 -0.02 0 -0.01 -0.01 -0.02 0 -0.02 0 -0.02 0 -0.02 0 -0.02 0 -0.02 0 -0.02 0 -0.03 0 -0.02 0 0 0zm-17.77 0.53l0.25 -0.08 -0.13 -0.11 0.55 -0.02 0.55 -0.02 0.56 -0.02 0.55 -0.02 0.55 -0.02 0.55 -0.02 0.55 -0.02 0.55 -0.02 0.55 -0.02 0.55 -0.02 0.56 -0.02 0.55 -0.02 0.55 -0.02 0.55 -0.02 0.55 -0.02 0.55 -0.02 0.55 -0.02 0.55 -0.02 0.56 -0.02 0.55 -0.02 0.55 -0.02 0.55 -0.02 0.55 -0.02 0.55 -0.02 0.55 -0.02 0.55 -0.02 0.56 -0.02 0.55 -0.02 0.55 -0.02 0.55 -0.02 0.55 -0.02 0.55 -0.02 0.01 0.3 -0.55 0.02 -0.55 0.02 -0.55 0.02 -0.55 0.02 -0.55 0.02 -0.56 0.02 -0.55 0.02 -0.55 0.02 -0.55 0.02 -0.55 0.02 -0.55 0.02 -0.55 0.02 -0.56 0.02 -0.55 0.02 -0.55 0.02 -0.55 0.02 -0.55 0.02 -0.55 0.02 -0.55 0.02 -0.55 0.02 -0.56 0.02 -0.55 0.02 -0.55 0.02 -0.55 0.02 -0.55 0.02 -0.55 0.02 -0.55 0.02 -0.55 0.02 -0.56 0.02 -0.55 0.02 -0.55 0.02 -0.55 0.02 -0.13 -0.11zm0.13 0.11l-0.1 0 -0.03 -0.11 0.13 0.11zm-0.35 -2.08l0.47 1.89 -0.25 0.08 -0.48 -1.89 0.1 -0.19 0.16 0.11zm-0.26 0.08l-0.04 -0.15 0.14 -0.04 -0.1 0.19zm0.69 -0.04l-0.53 0.14 -0.06 -0.29 0.53 -0.14 0.03 0 0.03 0.29zm-0.06 -0.29l0.01 0 0.02 0 -0.03 0z"/>
   </g>
   <g>
    <path class="fil4" d="M28.07 56.84c-0.32,-0.07 -0.51,-0.28 -0.61,-0.46 -0.13,-0.24 -0.16,-0.54 -0.28,-0.79 -0.38,-0.74 -0.94,-0.67 -1.15,-0.67l-18.47 -0.12 5.27 -10.4 30.48 0 5.27 10.4 -18.47 0.12c-0.21,0 -0.77,-0.07 -1.14,0.67 -0.13,0.25 -0.16,0.55 -0.29,0.79 -0.1,0.18 -0.29,0.39 -0.61,0.46z"/>
    <path id="1" class="fil3" d="M27.35 56.45l0.23 -0.15 0 0 0 0.01 0.01 0.02 0.01 0.01 0.01 0.02 0.01 0.01 0.01 0.02 0.01 0.01 0.01 0.02 0.02 0.01 0.01 0.02 0.01 0.01 0.02 0.02 0.01 0.01 0.01 0.01 0.02 0.02 0.01 0.01 0.02 0.02 0.02 0.01 0.01 0.01 0.02 0.01 0.02 0.01 0.02 0.01 0.02 0.02 0.02 0.01 0.02 0.01 0.02 0.01 0.02 0.01 0.03 0 0.02 0.01 0.02 0.01 0.03 0.01 0.03 0 -0.06 0.29 -0.03 0 -0.03 -0.01 -0.03 -0.01 -0.03 -0.01 -0.04 -0.02 -0.02 -0.01 -0.03 -0.01 -0.03 -0.01 -0.03 -0.02 -0.02 -0.01 -0.03 -0.02 -0.03 -0.01 -0.02 -0.02 -0.02 -0.02 -0.03 -0.01 -0.02 -0.02 -0.02 -0.02 -0.02 -0.02 -0.02 -0.02 -0.02 -0.02 -0.01 -0.02 -0.02 -0.02 -0.02 -0.02 -0.01 -0.02 -0.02 -0.02 -0.01 -0.02 -0.02 -0.02 -0.01 -0.02 -0.02 -0.02 -0.01 -0.02 -0.01 -0.02 -0.01 -0.02 0 0zm-0.29 -0.79l0.23 -0.14 0 0 0.01 0.03 0.02 0.02 0.01 0.03 0.01 0.03 0.01 0.02 0.01 0.03 0.01 0.03 0.01 0.02 0.01 0.03 0.01 0.03 0 0.02 0.01 0.03 0.01 0.03 0.01 0.02 0.01 0.03 0 0.02 0.01 0.03 0.01 0.02 0.01 0.03 0 0.02 0.01 0.03 0.01 0.02 0.01 0.02 0 0.02 0.01 0.03 0.01 0.02 0.01 0.02 0.01 0.02 0.01 0.02 0.01 0.02 0.01 0.02 0.01 0.02 -0.23 0.15 -0.01 -0.02 -0.02 -0.03 -0.01 -0.02 -0.01 -0.03 -0.01 -0.03 -0.01 -0.02 -0.01 -0.03 -0.01 -0.03 -0.01 -0.02 -0.01 -0.03 -0.01 -0.03 -0.01 -0.02 -0.01 -0.03 0 -0.02 -0.01 -0.03 -0.01 -0.03 -0.01 -0.02 0 -0.03 -0.01 -0.02 -0.01 -0.02 -0.01 -0.03 0 -0.02 -0.01 -0.03 -0.01 -0.02 -0.01 -0.03 -0.01 -0.02 0 -0.02 -0.01 -0.02 -0.01 -0.02 -0.01 -0.03 -0.01 -0.02 -0.01 -0.02 0 0zm-1.03 -0.59l0.01 -0.3 0 0 0.01 0 0.02 0 0.03 0 0.03 0 0.03 0 0.03 0 0.03 0 0.03 0 0.04 0.01 0.04 0 0.04 0 0.04 0.01 0.04 0.01 0.04 0.01 0.05 0.01 0.04 0.02 0.05 0.01 0.04 0.02 0.05 0.03 0.05 0.02 0.04 0.03 0.05 0.03 0.05 0.04 0.04 0.04 0.05 0.04 0.04 0.05 0.05 0.05 0.04 0.05 0.04 0.06 0.04 0.07 0.04 0.07 0.04 0.07 -0.23 0.14 -0.03 -0.06 -0.04 -0.06 -0.03 -0.05 -0.03 -0.05 -0.04 -0.04 -0.03 -0.04 -0.04 -0.04 -0.03 -0.03 -0.04 -0.03 -0.03 -0.03 -0.04 -0.02 -0.04 -0.03 -0.03 -0.02 -0.04 -0.01 -0.03 -0.02 -0.04 -0.01 -0.03 -0.01 -0.04 -0.01 -0.03 -0.01 -0.03 -0.01 -0.04 0 -0.03 -0.01 -0.03 0 -0.03 0 -0.03 0 -0.03 0 -0.02 0 -0.03 0 -0.03 0 -0.02 0 -0.02 0 -0.03 0 0 0zm0 0l0 0 0 0 0 0zm-18.47 -0.41l18.48 0.11 -0.01 0.3 -18.47 -0.12 -0.12 -0.22 0.12 -0.07zm0 0.29l-0.23 0 0.11 -0.22 0.12 0.22zm5.39 -10.48l-5.28 10.41 -0.23 -0.15 5.27 -10.4 0.12 -0.08 0.12 0.22zm-0.24 -0.14l0.04 -0.08 0.08 0 -0.12 0.08zm30.6 0.22l-30.48 0 0 -0.3 30.48 0 0.12 0.08 -0.12 0.22zm0 -0.3l0.08 0 0.04 0.08 -0.12 -0.08zm5.16 10.63l-5.28 -10.41 0.24 -0.14 5.27 10.4 -0.12 0.22 -0.11 -0.07zm0.23 -0.15l0.11 0.22 -0.23 0 0.12 -0.22zm-18.6 0.04l18.48 -0.11 0 0.29 -18.47 0.12 0 0 -0.01 -0.3zm0.01 0.3l0 0 0 0 0 0zm-1.03 0.59l-0.23 -0.14 0 0 0.04 -0.07 0.04 -0.07 0.04 -0.07 0.04 -0.06 0.04 -0.05 0.05 -0.05 0.04 -0.05 0.05 -0.04 0.04 -0.04 0.05 -0.04 0.05 -0.03 0.04 -0.03 0.05 -0.02 0.05 -0.03 0.04 -0.02 0.05 -0.01 0.04 -0.02 0.05 -0.01 0.04 -0.01 0.04 -0.01 0.04 -0.01 0.04 0 0.04 0 0.04 -0.01 0.03 0 0.03 0 0.04 0 0.02 0 0.03 0 0.03 0 0.02 0 0.02 0 0 0.3 -0.03 0 -0.02 0 -0.02 0 -0.03 0 -0.02 0 -0.03 0 -0.03 0 -0.03 0 -0.03 0 -0.03 0 -0.03 0.01 -0.04 0 -0.03 0.01 -0.03 0.01 -0.04 0.01 -0.03 0.01 -0.04 0.01 -0.03 0.02 -0.04 0.01 -0.03 0.02 -0.04 0.03 -0.03 0.02 -0.04 0.03 -0.04 0.03 -0.03 0.03 -0.04 0.04 -0.03 0.04 -0.04 0.04 -0.03 0.05 -0.03 0.05 -0.04 0.06 -0.03 0.06 0 0zm-0.29 0.79l-0.23 -0.15 0 0 0.01 -0.02 0.01 -0.02 0.01 -0.02 0.01 -0.02 0.01 -0.02 0.01 -0.02 0.01 -0.02 0.01 -0.03 0 -0.02 0.01 -0.02 0.01 -0.02 0.01 -0.03 0 -0.02 0.01 -0.03 0.01 -0.02 0.01 -0.03 0 -0.02 0.01 -0.03 0.01 -0.02 0.01 -0.03 0.01 -0.03 0 -0.02 0.01 -0.03 0.01 -0.03 0.01 -0.02 0.01 -0.03 0.01 -0.03 0.01 -0.02 0.01 -0.03 0.01 -0.03 0.02 -0.02 0.01 -0.03 0.23 0.14 -0.01 0.02 -0.01 0.02 -0.01 0.03 -0.01 0.02 -0.01 0.02 0 0.02 -0.01 0.02 -0.01 0.03 -0.01 0.02 -0.01 0.03 0 0.02 -0.01 0.03 -0.01 0.02 -0.01 0.02 0 0.03 -0.01 0.02 -0.01 0.03 -0.01 0.03 0 0.02 -0.01 0.03 -0.01 0.02 -0.01 0.03 -0.01 0.03 -0.01 0.02 -0.01 0.03 -0.01 0.03 -0.01 0.02 -0.01 0.03 -0.01 0.03 -0.01 0.02 -0.02 0.03 -0.01 0.02 0 0zm-0.75 0.53l0.06 -0.29 -0.06 0 0.03 0 0.03 -0.01 0.02 -0.01 0.02 -0.01 0.03 0 0.02 -0.01 0.02 -0.01 0.02 -0.01 0.02 -0.01 0.02 -0.02 0.02 -0.01 0.02 -0.01 0.02 -0.01 0.01 -0.01 0.02 -0.01 0.02 -0.02 0.01 -0.01 0.02 -0.02 0.01 -0.01 0.02 -0.01 0.01 -0.02 0.01 -0.01 0.01 -0.02 0.02 -0.01 0.01 -0.02 0.01 -0.01 0.01 -0.02 0.01 -0.01 0.01 -0.02 0.01 -0.01 0.01 -0.02 0 -0.01 0.23 0.15 -0.01 0.02 -0.01 0.02 -0.01 0.02 -0.02 0.02 -0.01 0.02 -0.01 0.02 -0.02 0.02 -0.02 0.02 -0.01 0.02 -0.02 0.02 -0.02 0.02 -0.01 0.02 -0.02 0.02 -0.02 0.02 -0.02 0.02 -0.02 0.02 -0.02 0.02 -0.03 0.01 -0.02 0.02 -0.02 0.02 -0.03 0.01 -0.03 0.02 -0.02 0.01 -0.03 0.02 -0.03 0.01 -0.02 0.01 -0.03 0.01 -0.03 0.02 -0.04 0.01 -0.03 0.01 -0.03 0.01 -0.03 0 -0.06 0zm0.06 0l-0.03 0.01 -0.03 -0.01 0.06 0z"/>
   </g>
   <g>
    <path class="fil4" d="M14.87 43.18l-4.44 10.81c0,0 2.12,1.43 4.8,1.35 1.92,-0.06 3.19,-1.06 4.98,-1.61 2.31,-0.7 5.68,-1 7.81,2.12 2.13,-3.12 5.5,-2.82 7.81,-2.12 1.79,0.55 3.06,1.55 4.98,1.61 2.67,0.08 4.8,-1.35 4.8,-1.35l-4.44 -10.81c-8.77,0 -17.54,0 -26.3,0z"/>
    <path id="1" class="fil3" d="M10.31 53.93l4.44 -10.81 0.24 0.12 -4.44 10.81 -0.19 0.07 -0.05 -0.19zm4.92 1.26l0 0.29 0 0 -0.25 0.01 -0.25 -0.01 -0.25 -0.01 -0.24 -0.02 -0.23 -0.03 -0.24 -0.03 -0.22 -0.04 -0.22 -0.05 -0.22 -0.04 -0.21 -0.06 -0.2 -0.05 -0.2 -0.06 -0.19 -0.06 -0.18 -0.07 -0.18 -0.06 -0.17 -0.07 -0.16 -0.06 -0.15 -0.07 -0.15 -0.06 -0.13 -0.07 -0.13 -0.06 -0.11 -0.06 -0.11 -0.05 -0.1 -0.06 -0.08 -0.04 -0.08 -0.05 -0.06 -0.04 -0.06 -0.03 -0.04 -0.03 -0.03 -0.02 -0.02 -0.01 -0.01 0 0.14 -0.26 0 0.01 0.02 0.01 0.03 0.02 0.04 0.02 0.05 0.03 0.06 0.04 0.08 0.04 0.08 0.05 0.1 0.05 0.1 0.05 0.11 0.06 0.13 0.06 0.13 0.06 0.14 0.07 0.14 0.06 0.16 0.06 0.16 0.07 0.18 0.06 0.17 0.06 0.19 0.06 0.19 0.06 0.2 0.06 0.2 0.05 0.21 0.04 0.22 0.05 0.22 0.03 0.23 0.04 0.23 0.02 0.23 0.02 0.24 0.02 0.24 0 0.25 0 0 0zm4.94 -1.6l0.07 0.28 0 0 -0.16 0.06 -0.16 0.05 -0.16 0.06 -0.16 0.06 -0.15 0.05 -0.16 0.07 -0.15 0.06 -0.15 0.06 -0.15 0.07 -0.14 0.06 -0.15 0.07 -0.15 0.06 -0.15 0.07 -0.14 0.06 -0.15 0.06 -0.15 0.07 -0.14 0.06 -0.15 0.06 -0.15 0.05 -0.15 0.06 -0.16 0.05 -0.15 0.05 -0.16 0.05 -0.15 0.04 -0.16 0.04 -0.17 0.04 -0.16 0.03 -0.17 0.03 -0.17 0.02 -0.18 0.02 -0.18 0.02 -0.18 0 0 -0.29 0.17 -0.01 0.17 -0.01 0.17 -0.02 0.16 -0.02 0.16 -0.03 0.16 -0.03 0.16 -0.04 0.15 -0.04 0.16 -0.04 0.15 -0.04 0.15 -0.05 0.15 -0.05 0.14 -0.06 0.15 -0.05 0.15 -0.06 0.14 -0.06 0.15 -0.06 0.14 -0.07 0.15 -0.06 0.14 -0.06 0.15 -0.07 0.15 -0.06 0.15 -0.07 0.15 -0.06 0.15 -0.07 0.15 -0.06 0.16 -0.06 0.16 -0.06 0.16 -0.06 0.16 -0.06 0.16 -0.06 0.17 -0.05 0 0zm7.74 2.17l0.21 0.18 -0.21 0 -0.2 -0.28 -0.2 -0.25 -0.21 -0.24 -0.22 -0.22 -0.22 -0.21 -0.23 -0.18 -0.23 -0.17 -0.24 -0.16 -0.24 -0.13 -0.24 -0.13 -0.25 -0.11 -0.25 -0.09 -0.25 -0.09 -0.26 -0.07 -0.25 -0.06 -0.26 -0.05 -0.26 -0.03 -0.25 -0.03 -0.26 -0.01 -0.26 -0.01 -0.26 0 -0.25 0.01 -0.25 0.02 -0.25 0.02 -0.25 0.04 -0.25 0.03 -0.24 0.05 -0.24 0.05 -0.23 0.05 -0.23 0.06 -0.22 0.06 -0.22 0.06 -0.07 -0.28 0.22 -0.07 0.23 -0.06 0.23 -0.06 0.24 -0.05 0.25 -0.05 0.24 -0.05 0.25 -0.04 0.26 -0.03 0.26 -0.03 0.26 -0.01 0.26 -0.02 0.26 0 0.27 0.01 0.26 0.02 0.27 0.02 0.27 0.04 0.27 0.05 0.26 0.06 0.27 0.08 0.26 0.08 0.26 0.1 0.26 0.12 0.26 0.13 0.25 0.15 0.25 0.16 0.24 0.18 0.24 0.19 0.23 0.21 0.23 0.23 0.22 0.25 0.22 0.27 0.2 0.29 -0.21 0zm0.21 0.18l-0.1 0.15 -0.11 -0.15 0.21 0zm7.74 -2.35l-0.07 0.28 0 0 -0.21 -0.06 -0.23 -0.06 -0.22 -0.06 -0.24 -0.05 -0.24 -0.05 -0.24 -0.05 -0.24 -0.03 -0.25 -0.04 -0.25 -0.02 -0.25 -0.02 -0.26 -0.01 -0.25 0 -0.26 0.01 -0.26 0.01 -0.26 0.03 -0.25 0.03 -0.26 0.05 -0.26 0.06 -0.25 0.07 -0.25 0.09 -0.25 0.09 -0.25 0.11 -0.24 0.13 -0.24 0.13 -0.24 0.16 -0.23 0.17 -0.23 0.18 -0.22 0.21 -0.22 0.22 -0.21 0.24 -0.21 0.25 -0.2 0.28 -0.21 -0.18 0.21 -0.29 0.21 -0.27 0.23 -0.25 0.22 -0.23 0.24 -0.21 0.24 -0.19 0.24 -0.18 0.25 -0.16 0.25 -0.15 0.26 -0.13 0.26 -0.12 0.26 -0.1 0.26 -0.08 0.26 -0.08 0.27 -0.06 0.27 -0.05 0.26 -0.04 0.27 -0.02 0.27 -0.02 0.26 -0.01 0.27 0 0.26 0.02 0.26 0.01 0.26 0.03 0.25 0.03 0.25 0.04 0.25 0.05 0.24 0.05 0.24 0.05 0.23 0.06 0.23 0.06 0.22 0.07 0 0zm4.95 1.6l-0.01 0.29 0 0 -0.18 0 -0.18 -0.02 -0.17 -0.02 -0.17 -0.02 -0.17 -0.03 -0.17 -0.03 -0.16 -0.04 -0.16 -0.04 -0.16 -0.04 -0.15 -0.05 -0.16 -0.05 -0.15 -0.05 -0.15 -0.06 -0.15 -0.05 -0.15 -0.06 -0.15 -0.06 -0.14 -0.07 -0.15 -0.06 -0.15 -0.06 -0.15 -0.07 -0.14 -0.06 -0.15 -0.07 -0.15 -0.06 -0.15 -0.07 -0.15 -0.06 -0.15 -0.06 -0.15 -0.07 -0.16 -0.05 -0.15 -0.06 -0.16 -0.06 -0.16 -0.05 -0.17 -0.06 0.07 -0.28 0.17 0.05 0.17 0.06 0.16 0.06 0.16 0.06 0.16 0.06 0.15 0.06 0.16 0.06 0.15 0.07 0.15 0.06 0.15 0.07 0.15 0.06 0.14 0.07 0.15 0.06 0.14 0.06 0.15 0.07 0.15 0.06 0.14 0.06 0.15 0.06 0.14 0.05 0.15 0.06 0.15 0.05 0.15 0.05 0.15 0.04 0.15 0.04 0.16 0.04 0.15 0.04 0.16 0.03 0.16 0.03 0.17 0.02 0.17 0.02 0.17 0.01 0.17 0.01 0 0zm4.68 -1.14l0.24 -0.12 -0.06 0.19 0 0 -0.02 0.01 -0.03 0.02 -0.05 0.03 -0.05 0.03 -0.07 0.04 -0.07 0.05 -0.09 0.04 -0.1 0.06 -0.1 0.05 -0.12 0.06 -0.12 0.06 -0.14 0.07 -0.14 0.06 -0.15 0.07 -0.16 0.06 -0.17 0.07 -0.18 0.06 -0.18 0.07 -0.19 0.06 -0.2 0.06 -0.2 0.05 -0.21 0.06 -0.22 0.04 -0.22 0.05 -0.23 0.04 -0.23 0.03 -0.24 0.03 -0.24 0.02 -0.24 0.01 -0.25 0.01 -0.26 -0.01 0.01 -0.29 0.25 0 0.24 0 0.24 -0.02 0.23 -0.02 0.23 -0.02 0.22 -0.04 0.23 -0.03 0.21 -0.05 0.21 -0.04 0.21 -0.05 0.19 -0.06 0.2 -0.06 0.18 -0.06 0.18 -0.06 0.17 -0.06 0.17 -0.07 0.15 -0.06 0.15 -0.06 0.14 -0.07 0.13 -0.06 0.12 -0.06 0.12 -0.06 0.1 -0.05 0.09 -0.05 0.09 -0.05 0.07 -0.04 0.06 -0.04 0.06 -0.03 0.04 -0.02 0.03 -0.02 0.01 -0.01 0.01 -0.01 -0.05 0.19zm0.24 -0.12l0.05 0.12 -0.11 0.07 0.06 -0.19zm-4.44 -10.81l4.44 10.81 -0.24 0.12 -4.44 -10.81 0.12 -0.21 0.12 0.09zm-0.12 -0.09l0.09 0 0.03 0.09 -0.12 -0.09zm-26.18 0.21l-0.24 -0.12 0.12 -0.09 0.82 0 0.82 0 0.82 0 0.82 0 0.83 0 0.82 0 0.82 0 0.82 0 0.82 0 0.83 0 0.82 0 0.82 0 0.82 0 0.82 0 0.83 0 0.82 0 0.82 0 0.82 0 0.82 0 0.83 0 0.82 0 0.82 0 0.82 0 0.82 0 0.83 0 0.82 0 0.82 0 0.82 0 0.82 0 0.83 0 0.82 0 0.82 0 0 0.3 -0.82 0 -0.82 0 -0.83 0 -0.82 0 -0.82 0 -0.82 0 -0.82 0 -0.83 0 -0.82 0 -0.82 0 -0.82 0 -0.82 0 -0.83 0 -0.82 0 -0.82 0 -0.82 0 -0.82 0 -0.83 0 -0.82 0 -0.82 0 -0.82 0 -0.82 0 -0.83 0 -0.82 0 -0.82 0 -0.82 0 -0.82 0 -0.83 0 -0.82 0 -0.82 0 -0.82 0 -0.82 0 0.12 -0.09zm-0.24 -0.12l0.03 -0.09 0.09 0 -0.12 0.09z"/>
   </g>
   <g>
    <path class="fil3" d="M28.06 47.02l15.03 5.55 -0.08 0.28 -15.04 -5.55 0 -0.28 0.09 0zm-0.09 0l0.04 -0.01 0.05 0.01 -0.09 0zm-15.02 5.55l15.02 -5.55 0.09 0.28 -15.03 5.55 -0.16 -0.21 0.08 -0.07zm-0.08 0.07l0.03 -0.05 0.05 -0.02 -0.08 0.07zm-0.88 1.62l0.88 -1.62 0.23 0.15 -0.89 1.63 -0.14 0.06 -0.08 -0.22zm2.75 0.23l0.01 0.29 0 0 -0.14 0.01 -0.14 0 -0.14 0 -0.13 -0.01 -0.13 0 -0.13 -0.01 -0.12 0 -0.13 -0.01 -0.12 -0.01 -0.11 -0.01 -0.11 -0.02 -0.11 -0.01 -0.11 -0.01 -0.1 -0.02 -0.09 -0.01 -0.1 -0.02 -0.09 -0.01 -0.08 -0.02 -0.08 -0.01 -0.07 -0.02 -0.07 -0.01 -0.06 -0.02 -0.06 -0.01 -0.05 -0.01 -0.05 -0.02 -0.04 -0.01 -0.04 -0.01 -0.03 0 -0.02 -0.01 -0.02 0 -0.01 -0.01 0 0 0.06 -0.28 0.01 0 0.01 0 0.01 0.01 0.02 0 0.03 0.01 0.04 0.01 0.04 0.01 0.04 0.01 0.05 0.01 0.06 0.02 0.06 0.01 0.07 0.01 0.07 0.02 0.08 0.01 0.08 0.02 0.08 0.01 0.09 0.02 0.1 0.01 0.09 0.02 0.11 0.01 0.1 0.01 0.11 0.01 0.12 0.02 0.11 0.01 0.12 0 0.12 0.01 0.13 0.01 0.13 0 0.13 0 0.13 0 0.14 0 0.13 0 0 0zm5.94 -1.9l0.06 0.29 0 0 -0.19 0.05 -0.19 0.05 -0.19 0.06 -0.19 0.06 -0.18 0.07 -0.19 0.07 -0.18 0.07 -0.18 0.07 -0.19 0.07 -0.18 0.08 -0.18 0.08 -0.18 0.07 -0.18 0.08 -0.18 0.08 -0.18 0.07 -0.18 0.08 -0.18 0.07 -0.18 0.08 -0.18 0.07 -0.18 0.07 -0.19 0.06 -0.18 0.07 -0.19 0.06 -0.19 0.05 -0.19 0.05 -0.19 0.05 -0.2 0.04 -0.19 0.04 -0.2 0.03 -0.2 0.02 -0.2 0.02 -0.21 0.01 -0.01 -0.29 0.2 -0.01 0.19 -0.02 0.2 -0.02 0.19 -0.03 0.19 -0.04 0.19 -0.04 0.18 -0.04 0.19 -0.05 0.18 -0.06 0.18 -0.05 0.18 -0.07 0.18 -0.06 0.18 -0.07 0.18 -0.07 0.18 -0.07 0.18 -0.08 0.18 -0.07 0.18 -0.08 0.18 -0.07 0.18 -0.08 0.18 -0.08 0.18 -0.08 0.18 -0.07 0.19 -0.08 0.18 -0.07 0.19 -0.07 0.18 -0.07 0.19 -0.07 0.19 -0.06 0.2 -0.06 0.19 -0.06 0.2 -0.05 0 0zm7.23 2.07l0.22 0.17 -0.22 0 -0.16 -0.25 -0.17 -0.23 -0.18 -0.21 -0.19 -0.2 -0.19 -0.18 -0.2 -0.17 -0.21 -0.15 -0.21 -0.14 -0.22 -0.13 -0.22 -0.11 -0.22 -0.1 -0.23 -0.09 -0.24 -0.08 -0.24 -0.07 -0.24 -0.05 -0.24 -0.05 -0.24 -0.04 -0.25 -0.02 -0.25 -0.02 -0.24 -0.01 -0.25 0 -0.25 0 -0.24 0.01 -0.25 0.02 -0.24 0.02 -0.24 0.03 -0.24 0.04 -0.23 0.04 -0.23 0.04 -0.23 0.05 -0.22 0.05 -0.21 0.05 -0.06 -0.29 0.22 -0.05 0.22 -0.05 0.23 -0.05 0.24 -0.04 0.24 -0.04 0.24 -0.04 0.24 -0.03 0.25 -0.02 0.25 -0.02 0.25 -0.01 0.26 -0.01 0.25 0 0.26 0.02 0.25 0.01 0.26 0.03 0.25 0.04 0.25 0.05 0.25 0.06 0.25 0.07 0.25 0.08 0.24 0.09 0.24 0.11 0.23 0.12 0.23 0.13 0.22 0.15 0.22 0.16 0.21 0.18 0.21 0.19 0.19 0.21 0.19 0.23 0.18 0.24 0.18 0.26 -0.22 0zm0.22 0.17l-0.11 0.17 -0.11 -0.17 0.22 0zm7.23 -2.24l-0.06 0.29 0 0 -0.22 -0.05 -0.22 -0.05 -0.22 -0.05 -0.23 -0.04 -0.24 -0.04 -0.23 -0.04 -0.24 -0.03 -0.25 -0.02 -0.24 -0.02 -0.25 -0.01 -0.24 0 -0.25 0 -0.25 0.01 -0.24 0.02 -0.25 0.02 -0.24 0.04 -0.25 0.05 -0.24 0.05 -0.23 0.07 -0.24 0.08 -0.23 0.09 -0.23 0.1 -0.22 0.11 -0.22 0.13 -0.21 0.14 -0.2 0.15 -0.2 0.17 -0.2 0.18 -0.18 0.2 -0.18 0.21 -0.17 0.23 -0.16 0.25 -0.22 -0.17 0.17 -0.26 0.18 -0.24 0.19 -0.23 0.2 -0.21 0.2 -0.19 0.21 -0.18 0.22 -0.16 0.23 -0.15 0.23 -0.13 0.23 -0.12 0.24 -0.11 0.24 -0.09 0.25 -0.08 0.24 -0.07 0.25 -0.06 0.26 -0.05 0.25 -0.04 0.25 -0.03 0.26 -0.01 0.25 -0.02 0.26 0 0.25 0.01 0.25 0.01 0.25 0.02 0.25 0.02 0.25 0.03 0.24 0.04 0.24 0.04 0.23 0.04 0.23 0.05 0.23 0.05 0.22 0.05 0 0zm5.93 1.9l-0.01 0.29 0 0 -0.2 -0.01 -0.2 -0.02 -0.2 -0.02 -0.2 -0.03 -0.2 -0.04 -0.19 -0.04 -0.19 -0.05 -0.19 -0.05 -0.19 -0.05 -0.19 -0.06 -0.18 -0.07 -0.19 -0.06 -0.18 -0.07 -0.18 -0.07 -0.19 -0.08 -0.18 -0.07 -0.18 -0.08 -0.18 -0.07 -0.18 -0.08 -0.18 -0.08 -0.18 -0.07 -0.18 -0.08 -0.18 -0.08 -0.18 -0.07 -0.18 -0.07 -0.19 -0.07 -0.18 -0.07 -0.18 -0.07 -0.19 -0.06 -0.19 -0.06 -0.19 -0.05 -0.19 -0.05 0.06 -0.29 0.19 0.05 0.2 0.06 0.19 0.06 0.19 0.06 0.19 0.07 0.19 0.07 0.19 0.07 0.18 0.07 0.18 0.08 0.19 0.07 0.18 0.08 0.18 0.08 0.18 0.08 0.18 0.07 0.18 0.08 0.18 0.07 0.17 0.08 0.18 0.07 0.18 0.07 0.18 0.07 0.18 0.06 0.19 0.07 0.18 0.05 0.18 0.06 0.19 0.05 0.18 0.04 0.19 0.04 0.19 0.04 0.19 0.03 0.19 0.02 0.2 0.02 0.19 0.01 0 0zm2.53 -0.07l0.23 -0.16 -0.08 0.22 0 0 -0.01 0.01 -0.02 0 -0.02 0.01 -0.03 0 -0.04 0.01 -0.04 0.01 -0.05 0.02 -0.05 0.01 -0.06 0.01 -0.06 0.02 -0.07 0.01 -0.08 0.02 -0.08 0.01 -0.08 0.02 -0.09 0.01 -0.09 0.02 -0.1 0.01 -0.1 0.02 -0.1 0.01 -0.11 0.01 -0.11 0.02 -0.12 0.01 -0.12 0.01 -0.12 0.01 -0.13 0 -0.12 0.01 -0.13 0 -0.14 0.01 -0.14 0 -0.13 0 -0.15 -0.01 0.01 -0.29 0.14 0 0.14 0 0.13 0 0.13 0 0.13 0 0.12 -0.01 0.13 -0.01 0.11 0 0.12 -0.01 0.11 -0.02 0.11 -0.01 0.11 -0.01 0.1 -0.01 0.1 -0.02 0.09 -0.01 0.09 -0.02 0.09 -0.01 0.08 -0.02 0.08 -0.01 0.07 -0.02 0.07 -0.01 0.06 -0.01 0.05 -0.02 0.05 -0.01 0.05 -0.01 0.04 -0.01 0.03 -0.01 0.03 -0.01 0.02 0 0.02 -0.01 0.01 0 0 0 -0.08 0.22zm0.23 -0.16l0.09 0.17 -0.17 0.05 0.08 -0.22zm-0.89 -1.62l0.89 1.62 -0.23 0.16 -0.88 -1.63 0.15 -0.22 0.07 0.07zm-0.07 -0.07l0.05 0.02 0.02 0.05 -0.07 -0.07z"/>
   </g>
   <g>
    <path class="fil4" d="M28.02 54.75l0.01 -11.86c0,0 2.87,-3.89 7.67,-1.28 0,0 2.14,0.93 3.71,0.47l4.43 11.21c0,0 -2.26,0.49 -4.68,0.08 -2.37,-0.39 -3.66,-1.83 -6.21,-1.8 -1.69,0.03 -3.83,0.66 -4.93,3.18z"/>
    <path id="1" class="fil3" d="M28.16 42.89l-0.01 11.86 -0.26 0 0.01 -11.86 0.03 -0.09 0.23 0.09zm-0.26 0l0 -0.05 0.03 -0.04 -0.03 0.09zm7.85 -1.42l-0.1 0.28 -0.01 -0.01 -0.44 -0.22 -0.42 -0.19 -0.42 -0.15 -0.4 -0.12 -0.39 -0.09 -0.38 -0.06 -0.36 -0.04 -0.35 -0.01 -0.34 0.01 -0.33 0.03 -0.32 0.05 -0.3 0.06 -0.29 0.08 -0.27 0.1 -0.26 0.1 -0.25 0.12 -0.24 0.12 -0.22 0.13 -0.21 0.13 -0.19 0.13 -0.18 0.13 -0.16 0.14 -0.15 0.12 -0.13 0.13 -0.12 0.11 -0.1 0.11 -0.09 0.09 -0.07 0.08 -0.06 0.07 -0.04 0.05 -0.02 0.03 -0.01 0 -0.2 -0.18 0.01 -0.02 0.02 -0.03 0.05 -0.05 0.06 -0.07 0.07 -0.09 0.09 -0.1 0.11 -0.11 0.13 -0.12 0.14 -0.13 0.15 -0.13 0.17 -0.14 0.19 -0.14 0.2 -0.14 0.21 -0.13 0.24 -0.14 0.24 -0.13 0.26 -0.11 0.27 -0.11 0.29 -0.1 0.3 -0.09 0.32 -0.07 0.33 -0.05 0.34 -0.03 0.36 -0.01 0.36 0.01 0.39 0.04 0.39 0.07 0.4 0.09 0.42 0.13 0.43 0.16 0.44 0.19 0.45 0.23 -0.01 -0.01zm-0.1 0.28l0 0 -0.01 -0.01 0.01 0.01zm3.88 0.27l-0.25 0.12 0.16 0.08 -0.16 0.04 -0.15 0.03 -0.16 0.03 -0.16 0.02 -0.16 0.01 -0.17 0 -0.16 0 -0.16 0 -0.16 -0.01 -0.16 -0.02 -0.16 -0.02 -0.15 -0.02 -0.16 -0.03 -0.15 -0.02 -0.14 -0.03 -0.14 -0.04 -0.14 -0.03 -0.13 -0.04 -0.13 -0.03 -0.11 -0.04 -0.12 -0.03 -0.1 -0.03 -0.1 -0.04 -0.09 -0.03 -0.08 -0.03 -0.07 -0.03 -0.07 -0.02 -0.05 -0.02 -0.04 -0.02 -0.03 -0.01 -0.02 -0.01 -0.01 0 0.1 -0.28 0 0.01 0.02 0 0.03 0.02 0.04 0.01 0.05 0.02 0.06 0.02 0.07 0.03 0.08 0.03 0.09 0.03 0.09 0.03 0.1 0.03 0.11 0.04 0.12 0.03 0.12 0.04 0.13 0.03 0.13 0.03 0.14 0.04 0.14 0.03 0.15 0.02 0.14 0.03 0.15 0.02 0.16 0.02 0.15 0.01 0.15 0.01 0.16 0.01 0.15 0 0.15 -0.01 0.16 -0.01 0.15 -0.01 0.14 -0.03 0.15 -0.03 0.14 -0.04 0.16 0.09zm-0.16 -0.09l0.11 -0.03 0.05 0.12 -0.16 -0.09zm4.35 11.42l-4.44 -11.21 0.25 -0.12 4.43 11.21 -0.09 0.21 -0.15 -0.09zm-4.58 0.17l0.04 -0.29 0 0 0.22 0.03 0.22 0.03 0.22 0.03 0.22 0.02 0.22 0.02 0.21 0.01 0.21 0.01 0.21 0 0.2 0.01 0.2 0 0.2 -0.01 0.19 0 0.18 -0.01 0.18 -0.01 0.17 -0.01 0.17 -0.01 0.15 -0.02 0.16 -0.01 0.14 -0.02 0.13 -0.01 0.13 -0.02 0.12 -0.01 0.1 -0.02 0.1 -0.01 0.09 -0.02 0.08 -0.01 0.06 -0.01 0.06 -0.01 0.04 -0.01 0.03 -0.01 0.02 0 0.01 0 0.05 0.29 -0.01 0 -0.02 0 -0.03 0.01 -0.05 0.01 -0.05 0.01 -0.07 0.01 -0.08 0.01 -0.09 0.02 -0.1 0.01 -0.11 0.02 -0.12 0.02 -0.13 0.01 -0.14 0.02 -0.14 0.01 -0.15 0.02 -0.16 0.01 -0.17 0.01 -0.18 0.02 -0.18 0.01 -0.18 0 -0.2 0.01 -0.19 0 -0.21 0 -0.2 0 -0.21 -0.01 -0.22 -0.01 -0.22 -0.01 -0.22 -0.02 -0.22 -0.02 -0.23 -0.02 -0.22 -0.03 -0.23 -0.04 0 0zm-6.19 -1.8l0 -0.29 0 0 0.24 0 0.23 0.01 0.23 0.02 0.22 0.02 0.21 0.03 0.21 0.04 0.21 0.04 0.19 0.05 0.2 0.06 0.19 0.06 0.19 0.06 0.18 0.07 0.19 0.07 0.18 0.07 0.17 0.07 0.18 0.08 0.18 0.07 0.17 0.08 0.18 0.08 0.17 0.08 0.18 0.07 0.18 0.08 0.18 0.07 0.18 0.07 0.19 0.07 0.18 0.07 0.19 0.06 0.2 0.06 0.2 0.05 0.2 0.05 0.21 0.05 0.22 0.04 -0.04 0.29 -0.23 -0.04 -0.21 -0.05 -0.21 -0.05 -0.21 -0.05 -0.2 -0.06 -0.19 -0.07 -0.2 -0.07 -0.19 -0.07 -0.18 -0.07 -0.18 -0.08 -0.18 -0.07 -0.18 -0.08 -0.18 -0.08 -0.17 -0.07 -0.18 -0.08 -0.17 -0.08 -0.18 -0.07 -0.18 -0.07 -0.17 -0.08 -0.18 -0.06 -0.18 -0.07 -0.18 -0.06 -0.19 -0.06 -0.19 -0.05 -0.19 -0.05 -0.19 -0.04 -0.21 -0.04 -0.2 -0.03 -0.21 -0.02 -0.22 -0.02 -0.23 -0.01 -0.23 0 0 0zm-5.06 3.03l0.26 0 -0.25 -0.07 0.11 -0.23 0.11 -0.23 0.12 -0.21 0.13 -0.21 0.13 -0.19 0.14 -0.19 0.14 -0.17 0.14 -0.16 0.15 -0.16 0.16 -0.14 0.15 -0.14 0.16 -0.13 0.16 -0.12 0.17 -0.11 0.17 -0.1 0.16 -0.1 0.18 -0.09 0.17 -0.08 0.17 -0.07 0.17 -0.07 0.18 -0.06 0.17 -0.05 0.18 -0.05 0.17 -0.04 0.18 -0.04 0.17 -0.03 0.17 -0.02 0.18 -0.02 0.16 -0.02 0.17 -0.01 0.17 -0.01 0.16 0 0 0.29 -0.15 0.01 -0.16 0 -0.17 0.02 -0.16 0.01 -0.16 0.02 -0.17 0.03 -0.17 0.03 -0.16 0.03 -0.17 0.04 -0.17 0.05 -0.17 0.05 -0.16 0.05 -0.17 0.07 -0.16 0.07 -0.17 0.07 -0.16 0.09 -0.16 0.09 -0.16 0.1 -0.15 0.1 -0.16 0.11 -0.15 0.12 -0.15 0.13 -0.14 0.14 -0.14 0.15 -0.14 0.15 -0.13 0.17 -0.13 0.17 -0.13 0.18 -0.11 0.2 -0.12 0.2 -0.11 0.22 -0.1 0.22 -0.25 -0.06z"/>
   </g>
   <g>
    <path class="fil4" d="M28.02 54.75l-0.01 -11.86c0,0 -2.87,-3.89 -7.67,-1.28 0,0 -2.14,0.93 -3.71,0.47l-4.44 11.21c0,0 2.27,0.49 4.69,0.08 2.37,-0.39 3.65,-1.83 6.2,-1.8 1.7,0.03 3.83,0.66 4.94,3.18z"/>
    <path id="1" class="fil3" d="M27.88 42.89l0.23 -0.09 0.03 0.09 0.01 11.86 -0.26 0 -0.01 -11.86zm0.23 -0.09l0.03 0.04 0 0.05 -0.03 -0.09zm-7.82 -1.33l-0.01 0.01 0.45 -0.23 0.44 -0.19 0.43 -0.16 0.41 -0.13 0.41 -0.09 0.39 -0.07 0.38 -0.04 0.37 -0.01 0.36 0.01 0.34 0.03 0.33 0.05 0.31 0.07 0.3 0.09 0.29 0.1 0.28 0.11 0.26 0.11 0.24 0.13 0.23 0.14 0.22 0.13 0.2 0.14 0.18 0.14 0.17 0.14 0.16 0.13 0.14 0.13 0.12 0.12 0.11 0.11 0.09 0.1 0.08 0.09 0.06 0.07 0.04 0.05 0.03 0.03 0.01 0.02 -0.2 0.18 -0.01 0 -0.02 -0.03 -0.04 -0.05 -0.06 -0.07 -0.07 -0.08 -0.09 -0.09 -0.1 -0.11 -0.12 -0.11 -0.14 -0.13 -0.14 -0.12 -0.17 -0.14 -0.18 -0.13 -0.19 -0.13 -0.21 -0.13 -0.22 -0.13 -0.23 -0.12 -0.25 -0.12 -0.26 -0.1 -0.28 -0.1 -0.29 -0.08 -0.3 -0.06 -0.31 -0.05 -0.33 -0.03 -0.34 -0.01 -0.35 0.01 -0.37 0.04 -0.37 0.06 -0.39 0.09 -0.41 0.12 -0.41 0.15 -0.43 0.19 -0.44 0.22 -0.01 0.01 -0.09 -0.28zm0.1 0.27l0 0.01 -0.01 0 0.01 -0.01zm-3.88 0.28l0.15 -0.09 0.15 0.04 0.14 0.03 0.15 0.03 0.15 0.01 0.15 0.01 0.16 0.01 0.15 0 0.15 -0.01 0.16 -0.01 0.15 -0.01 0.15 -0.02 0.15 -0.02 0.15 -0.03 0.14 -0.02 0.15 -0.03 0.13 -0.04 0.14 -0.03 0.12 -0.03 0.13 -0.04 0.11 -0.03 0.11 -0.04 0.1 -0.03 0.1 -0.03 0.09 -0.03 0.08 -0.03 0.07 -0.03 0.06 -0.02 0.05 -0.02 0.04 -0.01 0.03 -0.02 0.01 0 0.01 -0.01 0.09 0.28 0 0 -0.02 0.01 -0.03 0.01 -0.04 0.02 -0.06 0.02 -0.06 0.02 -0.07 0.03 -0.08 0.03 -0.09 0.03 -0.1 0.04 -0.11 0.03 -0.11 0.03 -0.12 0.04 -0.12 0.03 -0.14 0.04 -0.13 0.03 -0.14 0.04 -0.15 0.03 -0.15 0.02 -0.15 0.03 -0.16 0.02 -0.15 0.02 -0.16 0.02 -0.16 0.01 -0.17 0 -0.16 0 -0.16 0 -0.16 -0.01 -0.16 -0.02 -0.16 -0.03 -0.16 -0.03 -0.15 -0.04 0.15 -0.08 -0.24 -0.12zm0 0l0.04 -0.12 0.11 0.03 -0.15 0.09zm-4.19 11.33l-0.15 0.09 -0.1 -0.21 4.44 -11.21 0.24 0.12 -4.43 11.21zm4.58 0.17l0 0 -0.23 0.04 -0.23 0.03 -0.22 0.02 -0.23 0.02 -0.22 0.02 -0.21 0.01 -0.22 0.01 -0.21 0.01 -0.21 0 -0.2 0 -0.2 0 -0.19 -0.01 -0.19 0 -0.18 -0.01 -0.17 -0.02 -0.17 -0.01 -0.16 -0.01 -0.15 -0.02 -0.15 -0.01 -0.14 -0.02 -0.12 -0.01 -0.12 -0.02 -0.11 -0.02 -0.1 -0.01 -0.09 -0.02 -0.08 -0.01 -0.07 -0.01 -0.06 -0.01 -0.04 -0.01 -0.03 -0.01 -0.02 0 -0.01 0 0.05 -0.29 0 0 0.02 0 0.03 0.01 0.05 0.01 0.05 0.01 0.07 0.01 0.08 0.01 0.08 0.02 0.1 0.01 0.11 0.02 0.12 0.01 0.12 0.02 0.14 0.01 0.14 0.02 0.15 0.01 0.16 0.02 0.16 0.01 0.18 0.01 0.17 0.01 0.19 0.01 0.19 0 0.19 0.01 0.2 0 0.2 -0.01 0.21 0 0.21 -0.01 0.22 -0.01 0.21 -0.02 0.22 -0.02 0.22 -0.03 0.23 -0.03 0.22 -0.03 0 0 0.04 0.29zm6.18 -1.8l0 0 -0.23 0 -0.22 0.01 -0.22 0.02 -0.21 0.02 -0.21 0.03 -0.2 0.04 -0.2 0.04 -0.19 0.05 -0.19 0.05 -0.18 0.06 -0.18 0.06 -0.18 0.07 -0.18 0.06 -0.18 0.08 -0.17 0.07 -0.18 0.07 -0.17 0.08 -0.18 0.08 -0.17 0.07 -0.18 0.08 -0.18 0.08 -0.18 0.07 -0.18 0.08 -0.19 0.07 -0.19 0.07 -0.19 0.07 -0.2 0.07 -0.2 0.06 -0.2 0.05 -0.21 0.05 -0.22 0.05 -0.22 0.04 -0.04 -0.29 0.21 -0.04 0.21 -0.05 0.21 -0.05 0.2 -0.05 0.19 -0.06 0.19 -0.06 0.19 -0.07 0.19 -0.07 0.18 -0.07 0.18 -0.07 0.17 -0.08 0.18 -0.07 0.18 -0.08 0.17 -0.08 0.18 -0.08 0.17 -0.07 0.18 -0.08 0.18 -0.07 0.18 -0.07 0.18 -0.07 0.19 -0.07 0.18 -0.06 0.2 -0.06 0.19 -0.06 0.2 -0.05 0.2 -0.04 0.21 -0.04 0.22 -0.03 0.22 -0.02 0.22 -0.02 0.24 -0.01 0.24 0 0 0 -0.01 0.29zm5.07 3.03l-0.25 0.06 -0.11 -0.22 -0.1 -0.22 -0.12 -0.2 -0.12 -0.2 -0.12 -0.18 -0.13 -0.17 -0.14 -0.17 -0.13 -0.15 -0.14 -0.15 -0.15 -0.14 -0.15 -0.13 -0.15 -0.12 -0.15 -0.11 -0.16 -0.1 -0.15 -0.1 -0.16 -0.09 -0.17 -0.09 -0.16 -0.07 -0.17 -0.07 -0.16 -0.07 -0.17 -0.05 -0.17 -0.05 -0.16 -0.05 -0.17 -0.04 -0.17 -0.03 -0.16 -0.03 -0.17 -0.03 -0.17 -0.02 -0.16 -0.01 -0.16 -0.02 -0.16 0 -0.16 -0.01 0.01 -0.29 0.16 0 0.16 0.01 0.17 0.01 0.17 0.02 0.17 0.02 0.17 0.02 0.18 0.03 0.17 0.04 0.18 0.04 0.17 0.05 0.18 0.05 0.17 0.06 0.18 0.07 0.17 0.07 0.17 0.08 0.17 0.09 0.17 0.1 0.17 0.1 0.16 0.11 0.17 0.12 0.15 0.13 0.16 0.14 0.15 0.14 0.15 0.16 0.15 0.16 0.14 0.17 0.14 0.19 0.13 0.19 0.12 0.21 0.12 0.21 0.12 0.23 0.11 0.23 -0.25 0.07 0.26 0z"/>
   </g>
  </g>
 </g>
</svg>
