<?xml version="1.0" encoding="UTF-8"?>
<!DOCTYPE svg PUBLIC "-//W3C//DTD SVG 1.1//EN" "http://www.w3.org/Graphics/SVG/1.1/DTD/svg11.dtd">
<!-- Creator: CorelDRAW 2019 (64-Bit) -->
<svg xmlns="http://www.w3.org/2000/svg" xml:space="preserve" width="220px" height="85px" version="1.1" style="shape-rendering:geometricPrecision; text-rendering:geometricPrecision; image-rendering:optimizeQuality; fill-rule:evenodd; clip-rule:evenodd"
viewBox="0 0 26.16 10.14"
 xmlns:xlink="http://www.w3.org/1999/xlink"
 xmlns:xodm="http://www.corel.com/coreldraw/odm/2003">
 <defs>
  <style type="text/css">
   <![CDATA[
    .fil4 {fill:#FEFEFE}
    .fil2 {fill:#B93443}
    .fil3 {fill:#2E3955}
    .fil0 {fill:#ED3237;fill-rule:nonzero}
    .fil1 {fill:#293F66;fill-rule:nonzero}
   ]]>
  </style>
 </defs>
 <g id="Layer_x0020_1">
  <metadata id="CorelCorpID_0Corel-Layer"/>
  <g id="_2700335843776">
   <g id="BEMCON-Logo-Resized.cdr">
    <path class="fil0" d="M0.55 7c0.34,0 0.4,-0.11 0.4,-0.33l0 -0.02c0,-0.12 -0.06,-0.23 -0.17,-0.25 0.06,-0.02 0.13,-0.09 0.13,-0.22 0,-0.23 -0.03,-0.33 -0.38,-0.33l-0.49 0 0 1.15 0.51 0zm0.15 -0.33c0,0.1 -0.04,0.13 -0.15,0.13l-0.27 0 0 -0.29 0.27 0c0.11,0 0.15,0.04 0.15,0.14l0 0.02zm-0.42 -0.36l0 -0.26 0.25 0c0.1,0 0.13,0.04 0.13,0.13 0,0.09 -0.03,0.13 -0.13,0.13l-0.25 0z"/>
    <path id="1" class="fil0" d="M1.6 6.81c0,0.02 -0.08,0.04 -0.17,0.04 -0.06,0 -0.06,-0.07 -0.06,-0.15l0 -0.55 -0.23 0 0 0.55c0,0.17 0.01,0.32 0.25,0.32 0.25,0 0.44,-0.07 0.44,-0.13l0 -0.74 -0.23 0 0 0.66z"/>
    <path id="2" class="fil0" d="M1.99 6.96c0.12,0.04 0.17,0.06 0.31,0.06 0.16,0 0.32,-0.03 0.32,-0.28 0,-0.32 -0.38,-0.21 -0.38,-0.36 0,-0.04 0.02,-0.06 0.1,-0.06 0.09,0 0.17,0.01 0.22,0.03l0.04 -0.18c-0.12,-0.02 -0.17,-0.03 -0.27,-0.03 -0.15,0 -0.32,0.04 -0.32,0.27 0,0.32 0.38,0.22 0.38,0.36 0,0.05 -0.04,0.07 -0.1,0.07 -0.07,0 -0.19,-0.02 -0.26,-0.05l-0.04 0.17z"/>
    <path id="3" class="fil0" d="M3.12 6.82c-0.03,0.02 -0.05,0.02 -0.06,0.02 -0.03,0 -0.04,-0.02 -0.04,-0.06l0 -0.63 -0.23 0 0 0.63c0,0.17 0.09,0.24 0.2,0.24 0.05,0 0.09,-0.01 0.17,-0.04l-0.04 -0.16zm-0.1 -0.77l0 -0.25 -0.23 0 0 0.25 0.23 0z"/>
    <path id="4" class="fil0" d="M3.98 7l0 -0.55c0,-0.16 -0.01,-0.31 -0.25,-0.31 -0.25,0 -0.44,0.11 -0.44,0.17l0 0.69 0.23 0 0 -0.64c0,-0.02 0.08,-0.04 0.17,-0.04 0.05,0 0.06,0.06 0.06,0.13l0 0.55 0.23 0z"/>
    <path id="5" class="fil0" d="M4.83 6.8c-0.07,0.02 -0.16,0.04 -0.27,0.04 -0.11,0 -0.15,-0.06 -0.15,-0.15l0 -0.03c0.36,0 0.45,-0.08 0.45,-0.17l0 -0.1c0,-0.14 -0.05,-0.25 -0.31,-0.25 -0.27,0 -0.37,0.08 -0.37,0.37l0 0.16c0,0.22 0.11,0.35 0.38,0.35 0.1,0 0.25,-0.04 0.31,-0.06l-0.04 -0.16zm-0.19 -0.33c0,0.05 -0.08,0.07 -0.23,0.08l0 -0.15c0,-0.07 0.08,-0.1 0.17,-0.1 0.05,0 0.06,0.05 0.06,0.09l0 0.08z"/>
    <path id="6" class="fil0" d="M5.01 6.96c0.12,0.04 0.17,0.06 0.31,0.06 0.16,0 0.32,-0.03 0.32,-0.28 0,-0.32 -0.39,-0.21 -0.39,-0.36 0,-0.04 0.03,-0.06 0.11,-0.06 0.08,0 0.16,0.01 0.22,0.03l0.04 -0.18c-0.12,-0.02 -0.17,-0.03 -0.27,-0.03 -0.15,0 -0.32,0.04 -0.32,0.27 0,0.32 0.38,0.22 0.38,0.36 0,0.05 -0.04,0.07 -0.1,0.07 -0.07,0 -0.19,-0.02 -0.26,-0.05l-0.04 0.17z"/>
    <path id="7" class="fil0" d="M5.76 6.96c0.12,0.04 0.18,0.06 0.31,0.06 0.16,0 0.32,-0.03 0.32,-0.28 0,-0.32 -0.38,-0.21 -0.38,-0.36 0,-0.04 0.02,-0.06 0.1,-0.06 0.09,0 0.17,0.01 0.22,0.03l0.04 -0.18c-0.12,-0.02 -0.16,-0.03 -0.27,-0.03 -0.15,0 -0.32,0.04 -0.32,0.27 0,0.32 0.39,0.22 0.39,0.36 0,0.05 -0.05,0.07 -0.11,0.07 -0.07,0 -0.19,-0.02 -0.26,-0.05l-0.04 0.17z"/>
    <polygon id="8" class="fil0" points="7.17,7 7.17,5.85 6.93,5.85 6.93,7 "/>
    <path id="9" class="fil0" d="M8.07 7l0 -0.55c0,-0.16 -0.01,-0.31 -0.25,-0.31 -0.25,0 -0.44,0.11 -0.44,0.17l0 0.69 0.23 0 0 -0.64c0,-0.02 0.08,-0.04 0.17,-0.04 0.05,0 0.06,0.06 0.06,0.13l0 0.55 0.23 0z"/>
    <path id="10" class="fil0" d="M8.74 6.78c-0.05,0.01 -0.1,0.03 -0.13,0.03 -0.03,0 -0.05,-0.01 -0.05,-0.04l0 -0.43 0.18 0 0 -0.19 -0.18 0 0 -0.18 -0.23 0 0 0.18 -0.1 0 0 0.19 0.1 0 0 0.45c0,0.17 0.1,0.23 0.23,0.23 0.07,0 0.12,-0.02 0.23,-0.05l-0.05 -0.19z"/>
    <path id="11" class="fil0" d="M9.55 6.8c-0.07,0.02 -0.16,0.04 -0.27,0.04 -0.1,0 -0.15,-0.06 -0.15,-0.15l0 -0.03c0.36,0 0.45,-0.08 0.45,-0.17l0 -0.1c0,-0.14 -0.05,-0.25 -0.31,-0.25 -0.27,0 -0.37,0.08 -0.37,0.37l0 0.16c0,0.22 0.11,0.35 0.38,0.35 0.11,0 0.25,-0.04 0.31,-0.06l-0.04 -0.16zm-0.19 -0.33c0,0.05 -0.08,0.07 -0.23,0.08l0 -0.15c0,-0.07 0.08,-0.1 0.17,-0.1 0.06,0 0.06,0.05 0.06,0.09l0 0.08z"/>
    <path id="12" class="fil0" d="M10.11 6.82c-0.03,0.01 -0.05,0.02 -0.07,0.02 -0.03,0 -0.03,-0.03 -0.03,-0.06l0 -0.98 -0.23 0 0 0.98c0,0.17 0.08,0.24 0.2,0.24 0.05,0 0.09,-0.01 0.17,-0.04l-0.04 -0.16z"/>
    <path id="13" class="fil0" d="M10.61 6.82c-0.03,0.01 -0.05,0.02 -0.07,0.02 -0.03,0 -0.04,-0.03 -0.04,-0.06l0 -0.98 -0.22 0 0 0.98c0,0.17 0.08,0.24 0.2,0.24 0.05,0 0.09,-0.01 0.17,-0.04l-0.04 -0.16z"/>
    <path id="14" class="fil0" d="M11.11 6.82c-0.03,0.02 -0.05,0.02 -0.07,0.02 -0.03,0 -0.04,-0.02 -0.04,-0.06l0 -0.63 -0.23 0 0 0.63c0,0.17 0.09,0.24 0.21,0.24 0.05,0 0.09,-0.01 0.17,-0.04l-0.04 -0.16zm-0.11 -0.77l0 -0.25 -0.23 0 0 0.25 0.23 0z"/>
    <path id="15" class="fil0" d="M11.7 7.05c0,0.11 0,0.14 -0.07,0.14 -0.09,0 -0.21,-0.03 -0.31,-0.07l-0.06 0.16c0.16,0.05 0.26,0.09 0.4,0.09 0.24,0 0.27,-0.1 0.27,-0.32l0 -0.78c0,-0.07 -0.19,-0.13 -0.44,-0.13 -0.24,0 -0.25,0.15 -0.25,0.31l0 0.25c0,0.17 0.01,0.32 0.22,0.32 0.09,0 0.18,-0.04 0.24,-0.09l0 0.12zm0 -0.24c-0.03,0.02 -0.08,0.04 -0.17,0.04 -0.06,0 -0.06,-0.06 -0.06,-0.13l0 -0.24c0,-0.09 0,-0.18 0.06,-0.18 0.1,0 0.17,0.03 0.17,0.04l0 0.47z"/>
    <path id="16" class="fil0" d="M12.78 6.8c-0.07,0.02 -0.16,0.04 -0.27,0.04 -0.1,0 -0.15,-0.06 -0.15,-0.15l0 -0.03c0.36,0 0.45,-0.08 0.45,-0.17l0 -0.1c0,-0.14 -0.05,-0.25 -0.3,-0.25 -0.28,0 -0.38,0.08 -0.38,0.37l0 0.16c0,0.22 0.12,0.35 0.38,0.35 0.11,0 0.25,-0.04 0.31,-0.06l-0.04 -0.16zm-0.19 -0.33c0,0.05 -0.08,0.07 -0.23,0.08l0 -0.15c0,-0.07 0.08,-0.1 0.17,-0.1 0.06,0 0.06,0.05 0.06,0.09l0 0.08z"/>
    <path id="17" class="fil0" d="M13.7 7l0 -0.55c0,-0.16 -0.01,-0.31 -0.25,-0.31 -0.25,0 -0.44,0.11 -0.44,0.17l0 0.69 0.23 0 0 -0.64c0,-0.02 0.08,-0.04 0.17,-0.04 0.05,0 0.06,0.06 0.06,0.13l0 0.55 0.23 0z"/>
    <path id="18" class="fil0" d="M14.43 6.82c-0.08,0.01 -0.11,0.02 -0.16,0.02 -0.12,0 -0.14,-0.08 -0.14,-0.17l0 -0.18c0,-0.1 0.02,-0.17 0.14,-0.17 0.05,0 0.08,0 0.16,0.02l0.04 -0.17c-0.06,-0.01 -0.14,-0.03 -0.23,-0.03 -0.25,0 -0.34,0.12 -0.34,0.35l0 0.18c0,0.22 0.09,0.35 0.34,0.35 0.09,0 0.17,-0.02 0.23,-0.04l-0.04 -0.16z"/>
    <path id="19" class="fil0" d="M15.26 6.8c-0.07,0.02 -0.16,0.04 -0.27,0.04 -0.1,0 -0.15,-0.06 -0.15,-0.15l0 -0.03c0.36,0 0.45,-0.08 0.45,-0.17l0 -0.1c0,-0.14 -0.05,-0.25 -0.3,-0.25 -0.28,0 -0.38,0.08 -0.38,0.37l0 0.16c0,0.22 0.12,0.35 0.38,0.35 0.11,0 0.25,-0.04 0.31,-0.06l-0.04 -0.16zm-0.19 -0.33c0,0.05 -0.08,0.07 -0.23,0.08l0 -0.15c0,-0.07 0.08,-0.1 0.17,-0.1 0.06,0 0.06,0.05 0.06,0.09l0 0.08z"/>
    <polygon id="20" class="fil0" points="16.1,7 16.1,6.55 16.54,6.55 16.54,6.34 16.1,6.34 16.1,6.05 16.62,6.05 16.62,5.85 15.86,5.85 15.86,7 "/>
    <path id="21" class="fil0" d="M17.41 6.4c0,-0.19 -0.11,-0.26 -0.35,-0.26 -0.24,0 -0.35,0.07 -0.35,0.26l0 0.36c0,0.19 0.11,0.26 0.35,0.26 0.24,0 0.35,-0.07 0.35,-0.26l0 -0.36zm-0.22 0.35c0,0.06 -0.03,0.1 -0.13,0.1 -0.09,0 -0.12,-0.04 -0.12,-0.1l0 -0.35c0,-0.06 0.03,-0.1 0.12,-0.1 0.1,0 0.13,0.04 0.13,0.1l0 0.35z"/>
    <path id="22" class="fil0" d="M17.84 7l0 -0.63c0,-0.02 0.06,-0.04 0.14,-0.04 0.03,0 0.05,0 0.07,0l0.03 -0.19c-0.02,0 -0.05,0 -0.07,0 -0.23,0 -0.4,0.11 -0.4,0.17l0 0.69 0.23 0z"/>
    <polygon id="23" class="fil0" points="19.37,7 19.37,6.8 18.84,6.8 18.84,6.51 19.29,6.51 19.29,6.3 18.84,6.3 18.84,6.05 19.37,6.05 19.37,5.85 18.6,5.85 18.6,7 "/>
    <polygon id="24" class="fil0" points="20.29,7 20.05,6.58 20.26,6.15 20.03,6.15 19.89,6.45 19.76,6.15 19.52,6.15 19.74,6.58 19.5,7 19.74,7 19.89,6.7 20.04,7 "/>
    <path id="25" class="fil0" d="M20.93 6.82c-0.08,0.01 -0.11,0.02 -0.16,0.02 -0.12,0 -0.15,-0.08 -0.15,-0.17l0 -0.18c0,-0.1 0.03,-0.17 0.15,-0.17 0.05,0 0.08,0 0.16,0.02l0.04 -0.17c-0.06,-0.01 -0.14,-0.03 -0.24,-0.03 -0.24,0 -0.34,0.12 -0.34,0.35l0 0.18c0,0.22 0.1,0.35 0.34,0.35 0.1,0 0.18,-0.02 0.24,-0.04l-0.04 -0.16z"/>
    <path id="26" class="fil0" d="M21.76 6.8c-0.07,0.02 -0.17,0.04 -0.27,0.04 -0.11,0 -0.15,-0.06 -0.15,-0.15l0 -0.03c0.36,0 0.44,-0.08 0.44,-0.17l0 -0.1c0,-0.14 -0.04,-0.25 -0.3,-0.25 -0.27,0 -0.37,0.08 -0.37,0.37l0 0.16c0,0.22 0.11,0.35 0.38,0.35 0.1,0 0.25,-0.04 0.31,-0.06l-0.04 -0.16zm-0.19 -0.33c0,0.05 -0.08,0.07 -0.23,0.08l0 -0.15c0,-0.07 0.08,-0.1 0.17,-0.1 0.05,0 0.06,0.05 0.06,0.09l0 0.08z"/>
    <path id="27" class="fil0" d="M22.32 6.82c-0.03,0.01 -0.05,0.02 -0.07,0.02 -0.03,0 -0.04,-0.03 -0.04,-0.06l0 -0.98 -0.23 0 0 0.98c0,0.17 0.09,0.24 0.21,0.24 0.05,0 0.09,-0.01 0.17,-0.04l-0.04 -0.16z"/>
    <path id="28" class="fil0" d="M22.82 6.82c-0.03,0.01 -0.05,0.02 -0.07,0.02 -0.03,0 -0.04,-0.03 -0.04,-0.06l0 -0.98 -0.23 0 0 0.98c0,0.17 0.09,0.24 0.21,0.24 0.05,0 0.09,-0.01 0.17,-0.04l-0.04 -0.16z"/>
    <path id="29" class="fil0" d="M23.6 6.8c-0.07,0.02 -0.16,0.04 -0.27,0.04 -0.1,0 -0.15,-0.06 -0.15,-0.15l0 -0.03c0.36,0 0.45,-0.08 0.45,-0.17l0 -0.1c0,-0.14 -0.05,-0.25 -0.3,-0.25 -0.28,0 -0.38,0.08 -0.38,0.37l0 0.16c0,0.22 0.12,0.35 0.38,0.35 0.11,0 0.25,-0.04 0.31,-0.06l-0.04 -0.16zm-0.19 -0.33c0,0.05 -0.08,0.07 -0.23,0.08l0 -0.15c0,-0.07 0.08,-0.1 0.17,-0.1 0.06,0 0.06,0.05 0.06,0.09l0 0.08z"/>
    <path id="30" class="fil0" d="M24.52 7l0 -0.55c0,-0.16 -0.01,-0.31 -0.25,-0.31 -0.25,0 -0.44,0.11 -0.44,0.17l0 0.69 0.23 0 0 -0.64c0,-0.02 0.08,-0.04 0.17,-0.04 0.05,0 0.06,0.06 0.06,0.13l0 0.55 0.23 0z"/>
    <path id="31" class="fil0" d="M25.25 6.82c-0.08,0.01 -0.11,0.02 -0.16,0.02 -0.12,0 -0.14,-0.08 -0.14,-0.17l0 -0.18c0,-0.1 0.02,-0.17 0.14,-0.17 0.05,0 0.08,0 0.16,0.02l0.04 -0.17c-0.06,-0.01 -0.14,-0.03 -0.23,-0.03 -0.25,0 -0.34,0.12 -0.34,0.35l0 0.18c0,0.22 0.09,0.35 0.34,0.35 0.09,0 0.17,-0.02 0.23,-0.04l-0.04 -0.16z"/>
    <path id="32" class="fil0" d="M26.08 6.8c-0.07,0.02 -0.16,0.04 -0.27,0.04 -0.1,0 -0.15,-0.06 -0.15,-0.15l0 -0.03c0.36,0 0.45,-0.08 0.45,-0.17l0 -0.1c0,-0.14 -0.05,-0.25 -0.3,-0.25 -0.28,0 -0.38,0.08 -0.38,0.37l0 0.16c0,0.22 0.12,0.35 0.38,0.35 0.11,0 0.25,-0.04 0.31,-0.06l-0.04 -0.16zm-0.19 -0.33c0,0.05 -0.08,0.07 -0.23,0.08l0 -0.15c0,-0.07 0.08,-0.1 0.17,-0.1 0.06,0 0.06,0.05 0.06,0.09l0 0.08z"/>
    <g>
     <polygon class="fil1" points="26.12,5.39 0.03,5.39 0.03,5.19 26.12,5.19 "/>
    </g>
    <g>
     <path class="fil1" d="M2.86 0.06c0.3,0 0.53,0.09 0.69,0.26 0.15,0.18 0.23,0.49 0.23,0.94 0,0.2 -0.01,0.37 -0.03,0.5 -0.02,0.14 -0.06,0.25 -0.12,0.33 -0.06,0.08 -0.11,0.13 -0.16,0.16 -0.05,0.03 -0.12,0.06 -0.21,0.1 0.24,0.06 0.41,0.16 0.5,0.29 0.09,0.13 0.14,0.38 0.14,0.75 0,0.52 -0.08,0.87 -0.24,1.06 -0.16,0.19 -0.41,0.29 -0.75,0.29l-2.88 0 0 -4.68 2.83 0zm-0.17 1.41c0,-0.16 -0.03,-0.26 -0.09,-0.31 -0.06,-0.05 -0.15,-0.08 -0.26,-0.08l-1.22 0 0 0.81 1.2 0c0.12,0 0.21,-0.02 0.27,-0.07 0.07,-0.05 0.1,-0.17 0.1,-0.35zm0.12 1.75c0,-0.13 -0.03,-0.22 -0.08,-0.29 -0.05,-0.07 -0.16,-0.11 -0.31,-0.11l-1.3 0 0 0.86 1.29 0c0.1,0 0.2,-0.02 0.28,-0.06 0.08,-0.03 0.12,-0.17 0.12,-0.4zm4.62 -3.16l0 1.06 -2.23 0 0 0.8 2.07 0 0 0.93 -2.07 0 0 0.83 2.23 0 0 1.06 -3.32 0 0 -4.68 3.32 0zm4.32 4.68l0 -3.57 -1.09 3.57 -0.91 0 -1.07 -3.57 0 3.57 -0.99 0 0 -4.68 1.56 0 0.96 2.88 0.97 -2.88 1.57 0 0 4.68 -1 0z"/>
     <path class="fil0" d="M16.82 3.15c0,0.64 -0.07,1.07 -0.22,1.29 -0.15,0.21 -0.45,0.31 -0.89,0.31l-0.7 0.03 -0.56 -0.02c-0.6,0 -0.98,-0.12 -1.15,-0.37 -0.18,-0.24 -0.26,-0.62 -0.26,-1.14l-0.03 -0.99c0,-0.76 0.07,-1.32 0.22,-1.68 0.14,-0.36 0.43,-0.54 0.87,-0.54l0.85 -0.03c0.25,0 0.45,0 0.61,0.01 0.17,0 0.36,0.03 0.59,0.06 0.23,0.04 0.39,0.2 0.49,0.48 0.1,0.27 0.15,0.65 0.15,1.14l-1.02 0c0,-0.22 -0.03,-0.36 -0.1,-0.43 -0.06,-0.07 -0.17,-0.11 -0.32,-0.11l-0.12 0 -0.25 0 -0.32 0c-0.28,0 -0.44,0.08 -0.5,0.24 -0.07,0.16 -0.1,0.49 -0.1,0.98 0,0.52 0.04,0.85 0.11,1 0.07,0.15 0.26,0.23 0.57,0.23l0.22 0.02 0.33 -0.01c0.18,0 0.31,-0.04 0.39,-0.12 0.08,-0.08 0.12,-0.26 0.12,-0.56l1.02 0 0 0.21zm7.72 1.58l-1.52 -3.38 0 3.38 -0.99 0 0 -4.68 1.58 0 1.52 3.37 0 -3.37 0.99 0 0 4.68 -1.58 0z"/>
     <g>
      <polygon class="fil2" points="17.04,2.01 17.04,2.59 19.16,2.59 19.16,4.77 19.66,4.77 19.66,4.77 19.66,2.59 21.81,2.59 21.81,2.01 19.66,2.01 19.66,0 19.16,0 19.16,2.01 "/>
      <path class="fil3" d="M17.37 4.18c0.01,0.02 0.01,0.02 0.03,0.04l0.1 0.11c0.1,0.1 0.22,0.19 0.34,0.26 0.17,0.1 0.45,0.18 0.68,0.18 0.19,0 0.39,0 0.58,0l-0.03 0 0 -1.76c-0.22,0.13 -0.62,0.42 -0.85,0.58l-0.63 0.44c-0.04,0.03 -0.07,0.05 -0.11,0.08 -0.04,0.02 -0.07,0.05 -0.11,0.07z"/>
      <path class="fil3" d="M19.66 4.77l0 0 0.01 0 0.6 0c0.1,0 0.19,0 0.25,-0.01 0.11,-0.01 0.23,-0.05 0.34,-0.1 0.06,-0.02 0.09,-0.04 0.14,-0.07 0.08,-0.04 0.25,-0.15 0.31,-0.21 0.04,-0.05 0.11,-0.11 0.14,-0.16 -0.04,-0.02 -0.08,-0.05 -0.11,-0.07l-1.48 -1.04c-0.03,-0.02 -0.08,-0.05 -0.11,-0.06l0 1.72 -0.09 0z"/>
      <path class="fil3" d="M17.43 0.53l0.81 0.58c0.23,0.16 0.49,0.34 0.72,0.5 0.03,0.02 0.08,0.06 0.11,0.07l0 -1.68c-0.18,0 -0.36,0 -0.54,0 -0.31,0 -0.58,0.1 -0.82,0.27 -0.03,0.02 -0.05,0.03 -0.08,0.06 -0.04,0.03 -0.19,0.16 -0.2,0.2z"/>
      <path class="fil3" d="M21.39 0.49c-0.02,-0.03 -0.03,-0.04 -0.06,-0.07 -0.02,-0.02 -0.05,-0.04 -0.07,-0.06 -0.17,-0.14 -0.27,-0.21 -0.51,-0.29 -0.14,-0.04 -0.29,-0.07 -0.47,-0.07 -0.17,0 -0.35,0 -0.53,0l0 1.63c0.06,-0.02 0.78,-0.54 0.82,-0.57 0.14,-0.1 0.28,-0.19 0.41,-0.28l0.31 -0.22c0.03,-0.02 0.07,-0.05 0.1,-0.07z"/>
      <path class="fil4" d="M19.66 4.77l0.09 0 0 -1.72c0.03,0.01 0.08,0.04 0.11,0.06l1.48 1.04c0.03,0.02 0.07,0.05 0.11,0.07 0.01,-0.01 0.09,-0.12 0.1,-0.14 -0.01,-0.03 -0.03,-0.03 -0.05,-0.05l-0.4 -0.29c-0.15,-0.11 -0.3,-0.22 -0.45,-0.33 -0.08,-0.06 -0.16,-0.11 -0.23,-0.17 -0.15,-0.12 -0.3,-0.22 -0.45,-0.33 -0.04,-0.03 -0.21,-0.14 -0.22,-0.17 0.11,-0.01 0.25,0 0.37,0 0.07,0 0.09,0.03 0.13,0.06 0.04,0.02 0.07,0.05 0.11,0.08l1.33 0.92c0.02,-0.02 0.04,-0.07 0.05,-0.09 0,-0.02 0.01,-0.04 0.01,-0.06 0.01,-0.01 0.01,-0.04 0.02,-0.06 -0.12,-0.09 -0.31,-0.21 -0.46,-0.32 -0.11,-0.08 -0.72,-0.49 -0.74,-0.53l1.24 0 0 -0.15 -2.15 0 0 2.18z"/>
      <path class="fil4" d="M21.81 2.01l0 -0.11 -1.14 0c0.02,-0.03 0.73,-0.51 0.82,-0.57 0.03,-0.02 0.25,-0.17 0.26,-0.2 0,-0.05 -0.04,-0.12 -0.06,-0.17 -0.01,-0.02 -0.01,-0.04 -0.02,-0.06 -0.04,0.02 -0.18,0.12 -0.22,0.15l-1.08 0.74c-0.14,0.09 -0.12,0.11 -0.26,0.11l-0.27 0c-0.01,0 -0.03,0 -0.04,0l-0.04 -0.01 0.22 -0.16c0.08,-0.05 0.15,-0.1 0.22,-0.15 0.15,-0.11 0.29,-0.21 0.43,-0.32l0.87 -0.63c-0.02,-0.06 -0.05,-0.07 -0.08,-0.11 -0.01,-0.01 -0.01,-0.02 -0.03,-0.03 -0.03,0.02 -0.07,0.05 -0.1,0.07l-0.31 0.22c-0.13,0.09 -0.27,0.18 -0.41,0.28 -0.04,0.03 -0.76,0.55 -0.82,0.57l0 -1.63 -0.09 0 0 2.01 2.15 0z"/>
      <path class="fil4" d="M17.04 2.74l1.13 0c-0.01,0.02 -0.24,0.17 -0.28,0.2l-0.76 0.53c-0.06,0.04 -0.02,0.01 -0.06,0.05 0,0.02 0.01,0.03 0.01,0.05 0,0.02 0.01,0.03 0.01,0.05 0.01,0.03 0.02,0.06 0.03,0.09 0.03,-0.02 0.07,-0.05 0.11,-0.08l0.76 -0.52c0.14,-0.1 0.29,-0.2 0.43,-0.3 0.12,-0.08 0.12,-0.07 0.29,-0.07 0.12,0 0.24,0 0.36,0 -0.02,0.04 -0.79,0.58 -0.9,0.65 -0.08,0.05 -0.15,0.11 -0.22,0.16l-0.68 0.48c0.01,0.03 0.05,0.09 0.07,0.11 0.01,0.01 0.01,0.01 0.01,0.02l0.02 0.02c0.04,-0.02 0.07,-0.05 0.11,-0.07 0.04,-0.03 0.07,-0.05 0.11,-0.08l0.63 -0.44c0.23,-0.16 0.63,-0.45 0.85,-0.58l0 1.76 0.03 0 0.06 0 0 -2.18 -2.12 0 0 0.15z"/>
      <path class="fil4" d="M17.43 0.53c-0.03,0.02 -0.04,0.04 -0.06,0.06 -0.01,0.01 -0.01,0.01 -0.02,0.03 -0.01,0.01 -0.02,0.02 -0.02,0.03 0.02,0.03 0.37,0.27 0.43,0.32 0.15,0.1 0.29,0.2 0.44,0.3l0.44 0.32c0.07,0.04 0.15,0.1 0.22,0.15 0.06,0.04 0.16,0.11 0.21,0.16 -0.03,0.01 -0.45,0.01 -0.52,0 -0.06,0 -0.08,-0.03 -0.12,-0.06 -0.33,-0.24 -0.71,-0.49 -1.05,-0.73l-0.22 -0.15c-0.02,0.03 -0.07,0.17 -0.07,0.22l0.96 0.67c0.02,0.01 0.05,0.03 0.06,0.05l-1.07 0 0 0.11 2.12 0 0 -2.01 -0.09 0 0 1.68c-0.03,-0.01 -0.08,-0.05 -0.11,-0.07 -0.23,-0.16 -0.49,-0.34 -0.72,-0.5l-0.81 -0.58z"/>
      <path class="fil2" d="M17.12 3.71c0.01,0.03 0.11,0.3 0.15,0.32l0.68 -0.48c0.07,-0.05 0.14,-0.11 0.22,-0.16 0.11,-0.07 0.88,-0.61 0.9,-0.65 -0.12,0 -0.24,0 -0.36,0 -0.17,0 -0.17,-0.01 -0.29,0.07 -0.14,0.1 -0.29,0.2 -0.43,0.3l-0.76 0.52c-0.04,0.03 -0.08,0.06 -0.11,0.08z"/>
      <path class="fil2" d="M17.16 0.96l0.22 0.15c0.34,0.24 0.72,0.49 1.05,0.73 0.04,0.03 0.06,0.06 0.12,0.06 0.07,0.01 0.49,0.01 0.52,0 -0.05,-0.05 -0.15,-0.12 -0.21,-0.16 -0.07,-0.05 -0.15,-0.11 -0.22,-0.15l-0.44 -0.32c-0.15,-0.1 -0.29,-0.2 -0.44,-0.3 -0.06,-0.05 -0.41,-0.29 -0.43,-0.32 -0.03,0.03 -0.16,0.26 -0.17,0.31z"/>
      <path class="fil2" d="M21.55 4.08c0.03,-0.02 0.14,-0.23 0.14,-0.28l-1.33 -0.92c-0.04,-0.03 -0.07,-0.06 -0.11,-0.08 -0.04,-0.03 -0.06,-0.06 -0.13,-0.06 -0.12,0 -0.26,-0.01 -0.37,0 0.01,0.03 0.18,0.14 0.22,0.17 0.15,0.11 0.3,0.21 0.45,0.33 0.07,0.06 0.15,0.11 0.23,0.17 0.15,0.11 0.3,0.22 0.45,0.33l0.4 0.29c0.02,0.02 0.04,0.02 0.05,0.05z"/>
      <path class="fil2" d="M21.67 0.9c-0.01,-0.04 -0.14,-0.25 -0.17,-0.27l-0.87 0.63c-0.14,0.11 -0.28,0.21 -0.43,0.32 -0.07,0.05 -0.14,0.1 -0.22,0.15l-0.22 0.16 0.04 0.01c0.01,0 0.03,0 0.04,0l0.27 0c0.14,0 0.12,-0.02 0.26,-0.11l1.08 -0.74c0.04,-0.03 0.18,-0.13 0.22,-0.15z"/>
      <path class="fil3" d="M21.77 3.59c0.03,-0.13 0.04,-0.23 0.04,-0.4l0 -0.01 0 -0.01 0 0 0 -0.01 0 -0.01 0 0 0 -0.01 0 -0.01 0 0 0 -0.01 0 -0.01 0 -0.01 0 0 0 -0.01 0 -0.01 0 0 0 -0.01 0 -0.01 0 -0.01 0 0 0 -0.01 0 -0.01 0 0 0 -0.01 0 -0.01 0 0 0 -0.01 0 -0.01 0 -0.01 0 0 0 -0.01 0 -0.01 0 0 0 -0.01 0 -0.01 0 -0.01 0 0 0 -0.01 0 -0.01 0 0 0 -0.01 0 -0.01 0 0 0 -0.01 0 -0.01 0 -0.01 0 0 0 -0.01 0 -0.01 0 0 0 -0.01 0 -0.01 0 0 0 -0.01 0 -0.01 0 -0.01 0 0 0 -0.01 0 -0.01 0 0 0 -0.01 0 -0.01 0 -0.01 0 0 -1.24 0c0.02,0.04 0.63,0.45 0.74,0.53 0.15,0.11 0.34,0.23 0.46,0.32z"/>
      <path class="fil3" d="M17.07 3.52c0.04,-0.04 0,-0.01 0.06,-0.05l0.76 -0.53c0.04,-0.03 0.27,-0.18 0.28,-0.2l-1.13 0 0 0.01 0 0.45c0,0.09 0.01,0.18 0.01,0.24 0.01,0.03 0.02,0.06 0.02,0.08z"/>
      <path class="fil3" d="M21.81 1.9l0 -0.01 0 0 0 -0.01c0,-0.13 0,-0.25 0,-0.38l0 -0.02c0,-0.07 -0.03,-0.31 -0.06,-0.35 -0.01,0.03 -0.23,0.18 -0.26,0.2 -0.09,0.06 -0.8,0.54 -0.82,0.57l1.14 0z"/>
      <path class="fil3" d="M17.04 1.9l1.07 0c-0.01,-0.02 -0.04,-0.04 -0.06,-0.05l-0.96 -0.67c0,0 0,0 0,0l-0.01 0.02c-0.02,0.05 -0.04,0.25 -0.04,0.31l0 0.01c0,0.11 0,0.23 0,0.35l0 0 0 0.01 0 0.01 0 0 0 0.01z"/>
     </g>
    </g>
   </g>
   <polygon class="fil1" points="1.74,8.93 1.48,10.12 1.08,10.12 0.87,9.17 0.66,10.12 0.26,10.12 0,8.93 0.27,8.93 0.47,9.92 0.7,8.93 1.04,8.93 1.27,9.92 1.27,9.92 1.47,8.93 "/>
   <polygon id="1" class="fil1" points="3.78,8.93 3.52,10.12 3.12,10.12 2.91,9.17 2.71,10.12 2.3,10.12 2.04,8.93 2.32,8.93 2.51,9.92 2.74,8.93 3.09,8.93 3.31,9.92 3.32,9.92 3.51,8.93 "/>
   <polygon id="2" class="fil1" points="5.83,8.93 5.56,10.12 5.17,10.12 4.95,9.17 4.75,10.12 4.35,10.12 4.08,8.93 4.36,8.93 4.55,9.92 4.78,8.93 5.13,8.93 5.35,9.92 5.36,9.92 5.56,8.93 "/>
   <polygon id="3" class="fil1" points="6.43,10.12 6.16,10.12 6.16,9.81 6.43,9.81 "/>
   <path id="4" class="fil1" d="M8.34 9.63c0,0.17 -0.04,0.3 -0.11,0.37 -0.07,0.08 -0.19,0.12 -0.36,0.12l-0.88 0 0 -1.69 0.85 0c0.16,0 0.27,0.03 0.34,0.08 0.08,0.07 0.12,0.18 0.12,0.34 0,0.11 -0.02,0.19 -0.05,0.24 -0.03,0.06 -0.1,0.1 -0.2,0.13l0.01 0.03c0.11,0.02 0.18,0.06 0.22,0.12 0.04,0.06 0.06,0.14 0.06,0.26zm-0.36 -0.73c0,-0.08 -0.01,-0.13 -0.04,-0.16 -0.03,-0.03 -0.08,-0.04 -0.16,-0.04l-0.47 0 0 0.43 0.4 0c0.1,0 0.17,-0.01 0.21,-0.04 0.04,-0.03 0.06,-0.09 0.06,-0.19zm0.04 0.71c0,-0.1 -0.02,-0.16 -0.06,-0.19 -0.03,-0.03 -0.1,-0.05 -0.2,-0.05l-0.45 0 0 0.48 0.4 0c0.12,0 0.19,-0.01 0.23,-0.03 0.05,-0.04 0.08,-0.11 0.08,-0.21z"/>
   <polygon id="5" class="fil1" points="9.95,10.12 8.83,10.12 8.83,8.43 9.95,8.43 9.95,8.7 9.13,8.7 9.13,9.14 9.91,9.14 9.91,9.37 9.13,9.37 9.13,9.85 9.95,9.85 "/>
   <polygon id="6" class="fil1" points="12.44,10.12 12.14,10.12 12.14,8.69 11.62,10.12 11.33,10.12 10.8,8.7 10.8,10.12 10.51,10.12 10.51,8.43 11.02,8.43 11.47,9.68 11.48,9.68 11.92,8.43 12.44,8.43 "/>
   <path id="7" class="fil1" d="M14.35 9.51c0,0.25 -0.05,0.42 -0.13,0.5 -0.09,0.08 -0.28,0.12 -0.56,0.12 -0.25,0 -0.41,-0.04 -0.51,-0.11 -0.12,-0.09 -0.19,-0.28 -0.19,-0.57l0 -0.35c0,-0.26 0.05,-0.44 0.15,-0.54 0.09,-0.09 0.27,-0.14 0.55,-0.14 0.28,0 0.46,0.03 0.54,0.08 0.09,0.07 0.14,0.24 0.14,0.49l-0.31 0c0,-0.13 -0.02,-0.22 -0.05,-0.25 -0.04,-0.03 -0.14,-0.04 -0.3,-0.04 -0.17,0 -0.27,0.01 -0.32,0.05 -0.04,0.04 -0.07,0.14 -0.07,0.3l0 0.39c0,0.18 0.03,0.29 0.08,0.34 0.04,0.05 0.16,0.07 0.33,0.07 0.15,0 0.24,-0.02 0.28,-0.06 0.04,-0.04 0.06,-0.1 0.06,-0.19 0,-0.01 0,-0.02 0,-0.03 0,-0.01 0,-0.02 0,-0.03 0,-0.01 0,-0.02 0,-0.03l0.31 0z"/>
   <path id="8" class="fil1" d="M16.2 9.49c0,0.24 -0.04,0.4 -0.13,0.49 -0.1,0.1 -0.3,0.15 -0.6,0.15 -0.27,0 -0.46,-0.05 -0.55,-0.14 -0.09,-0.1 -0.13,-0.27 -0.13,-0.53l0 -0.36c0,-0.26 0.06,-0.45 0.16,-0.55 0.11,-0.09 0.29,-0.14 0.55,-0.14 0.28,0 0.47,0.05 0.57,0.15 0.09,0.09 0.13,0.27 0.13,0.52l0 0.41zm-0.32 0l0 -0.45c0,-0.14 -0.02,-0.24 -0.07,-0.28 -0.04,-0.05 -0.14,-0.07 -0.31,-0.07 -0.16,0 -0.27,0.02 -0.32,0.06 -0.04,0.04 -0.07,0.14 -0.07,0.31l0 0.41c0,0.17 0.03,0.28 0.08,0.33 0.04,0.04 0.13,0.06 0.28,0.06 0.16,0 0.27,-0.03 0.33,-0.08 0.05,-0.05 0.08,-0.14 0.08,-0.29z"/>
   <polygon id="9" class="fil1" points="18.23,10.12 17.7,10.12 17.01,8.7 17,8.7 17,10.12 16.7,10.12 16.7,8.43 17.22,8.43 17.92,9.84 17.93,9.84 17.93,8.43 18.23,8.43 "/>
   <polygon id="10" class="fil1" points="19.06,10.12 18.79,10.12 18.79,9.81 19.06,9.81 "/>
   <path id="11" class="fil1" d="M20.64 9.67c0,0.18 -0.04,0.31 -0.11,0.37 -0.07,0.06 -0.21,0.09 -0.42,0.09 -0.2,0 -0.34,-0.04 -0.41,-0.12 -0.08,-0.09 -0.11,-0.23 -0.11,-0.44 0,-0.24 0.02,-0.4 0.08,-0.48 0.07,-0.11 0.22,-0.17 0.44,-0.17 0.2,0 0.34,0.03 0.41,0.09 0.07,0.06 0.1,0.17 0.1,0.34l-0.26 0c0,-0.09 -0.02,-0.15 -0.05,-0.18 -0.04,-0.02 -0.11,-0.03 -0.21,-0.03 -0.11,0 -0.17,0.02 -0.2,0.08 -0.02,0.05 -0.03,0.17 -0.03,0.35 0,0.13 0,0.21 0.02,0.25 0.03,0.06 0.11,0.09 0.22,0.09 0.11,0 0.18,-0.01 0.21,-0.04 0.03,-0.03 0.05,-0.09 0.05,-0.2l0.27 0z"/>
   <path id="12" class="fil1" d="M22.18 9.48c0,0.27 -0.03,0.44 -0.09,0.52 -0.07,0.09 -0.22,0.13 -0.46,0.13 -0.23,0 -0.38,-0.05 -0.45,-0.15 -0.06,-0.09 -0.09,-0.24 -0.09,-0.47 0,-0.23 0.04,-0.39 0.11,-0.47 0.07,-0.08 0.22,-0.12 0.46,-0.12 0.2,0 0.33,0.03 0.4,0.11 0.08,0.07 0.12,0.23 0.12,0.45zm-0.28 0.01c0,-0.15 -0.01,-0.25 -0.04,-0.29 -0.03,-0.04 -0.1,-0.06 -0.21,-0.06 -0.12,0 -0.2,0.02 -0.23,0.06 -0.03,0.04 -0.05,0.14 -0.05,0.31 0,0.18 0.02,0.3 0.04,0.34 0.03,0.05 0.11,0.07 0.23,0.07 0.11,0 0.18,-0.02 0.21,-0.06 0.04,-0.05 0.05,-0.18 0.05,-0.37z"/>
   <polygon id="13" class="fil1" points="22.95,10.12 22.67,10.12 22.67,9.81 22.95,9.81 "/>
   <path id="14" class="fil1" d="M24.53 10.12l-0.26 0 0 -0.19 -0.01 0c-0.03,0.07 -0.08,0.13 -0.14,0.16 -0.06,0.03 -0.13,0.05 -0.22,0.05 -0.27,0 -0.4,-0.14 -0.4,-0.41l0 -0.79 0.28 0 0 0.73c0,0.09 0.01,0.15 0.03,0.18 0.03,0.04 0.09,0.06 0.17,0.06 0.12,0 0.19,-0.02 0.23,-0.08 0.03,-0.04 0.05,-0.12 0.05,-0.24l0 -0.65 0.27 0 0 1.18z"/>
   <polygon id="15" class="fil1" points="26.16,10.12 25.82,10.12 25.44,9.59 25.37,9.59 25.37,10.12 25.09,10.12 25.09,8.43 25.37,8.43 25.37,9.4 25.44,9.4 25.76,8.93 26.07,8.93 25.66,9.49 "/>
  </g>
 </g>
</svg>
