<?xml version="1.0" encoding="UTF-8"?>
<!DOCTYPE svg PUBLIC "-//W3C//DTD SVG 1.1//EN" "http://www.w3.org/Graphics/SVG/1.1/DTD/svg11.dtd">
<!-- Creator: CorelDRAW 2019 (64-Bit) -->
<svg xmlns="http://www.w3.org/2000/svg" xml:space="preserve" width="220px" height="107px" version="1.1" style="shape-rendering:geometricPrecision; text-rendering:geometricPrecision; image-rendering:optimizeQuality; fill-rule:evenodd; clip-rule:evenodd"
viewBox="0 0 474.63 230.99"
 xmlns:xlink="http://www.w3.org/1999/xlink"
 xmlns:xodm="http://www.corel.com/coreldraw/odm/2003">
 <defs>
  <style type="text/css">
   <![CDATA[
    .fil1 {fill:#EC1C23;fill-rule:nonzero}
    .fil0 {fill:white;fill-rule:nonzero}
   ]]>
  </style>
 </defs>
 <g id="Layer_x0020_1">
  <metadata id="CorelCorpID_0Corel-Layer"/>
  <g id="Elvan.cdr">
   <g>
    <g>
     <path class="fil0" d="M59.14 0l356.05 0c18.43,0.93 36.31,10.14 47.18,25.12 7.39,9.7 11.48,21.63 12.26,33.75l0 73.65c-1.17,31.13 -28.84,58.68 -60.22,58.57 -57.96,0.08 -115.92,-0.07 -173.88,0 -43.81,-0.24 -87.64,0.52 -131.35,3.43 -26.41,2.23 -53.14,3.87 -78.8,10.98 -13.56,3.23 -23.18,14.24 -30.38,25.49l0 -172.2c0.92,-11.33 4.3,-22.56 10.93,-31.88 10.79,-15.82 29.13,-25.91 48.21,-26.91zm-44.71 44.5l0 0c-4.24,10.51 -2.94,21.98 -3.15,33.02 -0.11,41.96 0.24,83.93 -0.17,125.88 10.06,-7.76 22.83,-10.21 34.98,-12.73 44.79,-7.89 90.38,-9.06 135.71,-10.5 78.08,-0.78 156.15,-0.06 234.21,-0.3 24.6,-0.98 45.99,-22.36 47.2,-46.91 0.25,-24.3 0.12,-48.62 0.08,-72.92 -0.4,-20.06 -14.24,-39 -33.18,-45.56 -10.51,-4.2 -21.96,-2.77 -32.97,-3.01 -112.41,0.14 -224.82,0 -337.23,0 -20.03,0.51 -38.87,14.1 -45.48,33.03z"/>
    </g>
    <path class="fil0" d="M115.75 46.2c3.76,-1.17 7.21,1.77 8.94,4.86 3.11,5.9 4.85,13.05 2.72,19.58 -1.33,3.21 -5.22,5.06 -8.55,4.02 -4.25,-2.8 -5.85,-8.4 -10.58,-10.58 -6.22,-2.65 -13.13,-2.14 -19.73,-2.17 -3.16,-0.06 -7.33,0.82 -7.97,4.52 -0.72,6.3 -0.59,12.68 -0.27,19 1.88,4.12 7.16,2.61 10.74,2.55 6,-2.15 1.91,-10.69 6.9,-13.84 3.46,-2.74 8.19,0.54 9.22,4.17 3.07,11.03 3.16,23.2 -1.44,33.81 -1.47,2.98 -5.58,4.34 -8.45,2.57 -2.45,-3.7 -1.06,-9.54 -5.44,-12 -3.48,-2.26 -10.36,-1.93 -10.49,3.37 0.06,7.22 -1.31,15.65 2.58,22 8.37,2.32 17.94,2.19 26.22,-0.65 6.96,-2.42 8.85,-10.06 13.02,-15.25 3.6,-4.21 10.57,0.14 10.72,4.96 0.35,8.5 -3.03,16.6 -7.35,23.73 -1.02,1.78 -2.5,3.47 -4.61,3.85 -25.52,-2.64 -51.35,-0.65 -77.01,-1.43 -3.82,-0.28 -7.23,-4.95 -4.81,-8.44 2.48,-2.68 7.37,-3.02 8.16,-7.15 3.27,-13.82 2.82,-28.15 2.53,-42.25 -0.66,-7.34 -0.52,-14.96 -3.35,-21.91 -2.23,-3.07 -7.45,-2.31 -8.64,-6.44 -1.11,-4.44 2.81,-8.11 7.01,-8.3 18.97,-0.62 37.95,0.12 56.92,-0.46 4.42,-0.14 8.72,-1.16 13.01,-2.12z"/>
    <path class="fil0" d="M157.51 50.2c4.94,-0.57 9.94,-2.33 14.92,-1.33 4.27,1.93 3.5,7.42 2.96,11.2 -1.49,22.56 -1.96,45.2 -0.89,67.78 0.67,4.41 7.44,3.73 7.8,8.26 -0.17,3.26 -2.57,6.2 -5.74,6.99 -8.46,2.61 -17.48,1.55 -26.2,1.47 -5.44,-0.52 -12.91,-1.06 -15.15,-7.05 -1.6,-3.69 2.73,-5.02 4.98,-6.74 2.55,-1.46 2.58,-4.62 2.94,-7.15 1.39,-12.14 1.03,-24.39 0.94,-36.57 -0.59,-6.15 0.09,-14.06 -6.44,-17.37 -4.1,-1.9 -6.13,-7.17 -2.84,-10.77 6.02,-5.79 14.88,-7 22.72,-8.72z"/>
    <path class="fil0" d="M185.74 76.75c11.07,-2.61 22.65,-2.36 33.9,-1.24 3.5,0.72 8.36,1.29 9.62,5.26 0.79,4 -3.65,5.96 -5.16,9.11 0.49,5.13 3.44,9.95 7.04,13.54 2.42,1.71 4.89,-0.43 5.87,-2.62 2.11,-3.29 4.15,-6.78 5.03,-10.62 -0.19,-3.78 -4.46,-5.66 -4.98,-9.37 0.95,-4.35 5.87,-5.12 9.59,-5.56 6.77,-0.53 13.9,-1.29 20.44,1.02 2.74,0.76 4.37,4.5 2.67,6.92 -2.92,3.19 -8.27,2.92 -10.76,6.66 -8.68,15.28 -15.9,31.36 -24.45,46.72 -2.35,3.7 -5.05,8.22 -9.84,8.81 -5.19,0.38 -7.77,-4.89 -10.27,-8.51 -8.63,-14.4 -15.55,-29.75 -23.96,-44.27 -2.29,-4.68 -9.71,-3.56 -11.02,-8.92 -0.76,-3.72 3.24,-6.08 6.28,-6.93z"/>
    <g>
     <path class="fil0" d="M274.38 84.53c8.14,-6.93 18.99,-9.51 29.43,-10.3 10.14,-0.12 21.79,2.91 27.46,12.07 5.91,12 -0.77,26.12 4.5,38.28 1.56,1.91 4.78,1.34 6.07,3.65 -0.79,14.55 -22.62,23.13 -32.41,11.67 -0.59,-0.41 -1.76,-1.23 -2.35,-1.66 -4.3,1.75 -7.83,5.13 -12.43,6.18 -6.42,1.31 -13.46,1.31 -19.4,-1.81 -7.85,-3.81 -12.2,-13.91 -9.11,-22.15 3.31,-8.59 12.39,-13.4 20.99,-15.09 5.27,-1.28 10.86,0 16.01,-1.74 2.24,-3.97 0.81,-9.24 -0.25,-13.48 -0.77,-3.61 -5.55,-5.43 -8.51,-3.2 -4.37,3.61 -6.53,9.48 -11.71,12.18 -4.14,2.79 -11.09,1.75 -12.91,-3.33 -1.45,-4.32 1.44,-8.58 4.62,-11.27zm23.78 30.35l0 0c-6.48,2.51 -6.9,14.54 0.79,15.49 5.81,-0.19 6.03,-7.43 5.56,-11.73 0.77,-3.64 -3.64,-5.35 -6.35,-3.76z"/>
    </g>
    <path class="fil0" d="M372.62 75.4c2.65,-0.74 6.09,-1.28 8.16,1.02 2.31,2.48 0.09,6.36 2.12,9.01 2.58,2.16 4.56,-1.69 6.22,-3.14 9.62,-13.17 34.2,-8.52 38.3,7.34 2.02,11.94 1.44,24.11 2.45,36.13 -0.06,4.87 6.66,6.77 6.03,11.82 -0.57,3.45 -4.08,5.35 -7.22,5.89 -8.85,1.7 -17.97,1.62 -26.91,0.85 -3.26,-0.67 -7.43,-1.46 -8.56,-5.13 -1.23,-4.3 3.86,-6.47 4.61,-10.2 1.42,-9.73 2.31,-19.86 -0.57,-29.41 -1.71,-5.82 -11.31,-6.55 -13.73,-0.94 -2.49,8.6 -0.83,17.66 -1.33,26.46 -0.21,4.74 4.63,7.97 4.79,12.56 -1.65,5.12 -7.63,5.76 -12.13,6.55 -7.76,0.87 -15.73,1.03 -23.39,-0.57 -3.7,-0.65 -7.92,-3.37 -7.39,-7.64 0.94,-3.39 5.54,-4.27 6.08,-7.8 1.09,-9.45 1.47,-19 1.19,-28.5 -0.53,-4.27 -5.41,-5.25 -7.54,-8.43 -1.26,-2.74 0.45,-5.93 3.09,-7.02 8.12,-4.08 16.98,-6.49 25.73,-8.85z"/>
   </g>
   <g>
    <g>
     <path class="fil1" d="M14.43 44.5c6.61,-18.93 25.45,-32.52 45.48,-33.03 112.41,0 224.82,0.14 337.23,0 11.01,0.24 22.46,-1.19 32.97,3.01 18.94,6.56 32.78,25.5 33.18,45.56 0.04,24.3 0.17,48.62 -0.08,72.92 -1.21,24.55 -22.6,45.93 -47.2,46.91 -78.06,0.24 -156.13,-0.48 -234.21,0.3 -45.33,1.44 -90.92,2.61 -135.71,10.5 -12.15,2.52 -24.92,4.97 -34.98,12.73 0.41,-41.95 0.06,-83.92 0.17,-125.88 0.21,-11.04 -1.09,-22.51 3.15,-33.02zm101.32 1.7l0 0c-4.29,0.96 -8.59,1.98 -13.01,2.12 -18.97,0.58 -37.95,-0.16 -56.92,0.46 -4.2,0.19 -8.12,3.86 -7.01,8.3 1.19,4.13 6.41,3.37 8.64,6.44 2.83,6.95 2.69,14.57 3.35,21.91 0.29,14.1 0.74,28.43 -2.53,42.25 -0.79,4.13 -5.68,4.47 -8.16,7.15 -2.42,3.49 0.99,8.16 4.81,8.44 25.66,0.78 51.49,-1.21 77.01,1.43 2.11,-0.38 3.59,-2.07 4.61,-3.85 4.32,-7.13 7.7,-15.23 7.35,-23.73 -0.15,-4.82 -7.12,-9.17 -10.72,-4.96 -4.17,5.19 -6.06,12.83 -13.02,15.25 -8.28,2.84 -17.85,2.97 -26.22,0.65 -3.89,-6.35 -2.52,-14.78 -2.58,-22 0.13,-5.3 7.01,-5.63 10.49,-3.37 4.38,2.46 2.99,8.3 5.44,12 2.87,1.77 6.98,0.41 8.45,-2.57 4.6,-10.61 4.51,-22.78 1.44,-33.81 -1.03,-3.63 -5.76,-6.91 -9.22,-4.17 -4.99,3.15 -0.9,11.69 -6.9,13.84 -3.58,0.06 -8.86,1.57 -10.74,-2.55 -0.32,-6.32 -0.45,-12.7 0.27,-19 0.64,-3.7 4.81,-4.58 7.97,-4.52 6.6,0.03 13.51,-0.48 19.73,2.17 4.73,2.18 6.33,7.78 10.58,10.58 3.33,1.04 7.22,-0.81 8.55,-4.02 2.13,-6.53 0.39,-13.68 -2.72,-19.58 -1.73,-3.09 -5.18,-6.03 -8.94,-4.86zm41.76 4l0 0c-7.84,1.72 -16.7,2.93 -22.72,8.72 -3.29,3.6 -1.26,8.87 2.84,10.77 6.53,3.31 5.85,11.22 6.44,17.37 0.09,12.18 0.45,24.43 -0.94,36.57 -0.36,2.53 -0.39,5.69 -2.94,7.15 -2.25,1.72 -6.58,3.05 -4.98,6.74 2.24,5.99 9.71,6.53 15.15,7.05 8.72,0.08 17.74,1.14 26.2,-1.47 3.17,-0.79 5.57,-3.73 5.74,-6.99 -0.36,-4.53 -7.13,-3.85 -7.8,-8.26 -1.07,-22.58 -0.6,-45.22 0.89,-67.78 0.54,-3.78 1.31,-9.27 -2.96,-11.2 -4.98,-1 -9.98,0.76 -14.92,1.33zm28.23 26.55l0 0c-3.04,0.85 -7.04,3.21 -6.28,6.93 1.31,5.36 8.73,4.24 11.02,8.92 8.41,14.52 15.33,29.87 23.96,44.27 2.5,3.62 5.08,8.89 10.27,8.51 4.79,-0.59 7.49,-5.11 9.84,-8.81 8.55,-15.36 15.77,-31.44 24.45,-46.72 2.49,-3.74 7.84,-3.47 10.76,-6.66 1.7,-2.42 0.07,-6.16 -2.67,-6.92 -6.54,-2.31 -13.67,-1.55 -20.44,-1.02 -3.72,0.44 -8.64,1.21 -9.59,5.56 0.52,3.71 4.79,5.59 4.98,9.37 -0.88,3.84 -2.92,7.33 -5.03,10.62 -0.98,2.19 -3.45,4.33 -5.87,2.62 -3.6,-3.59 -6.55,-8.41 -7.04,-13.54 1.51,-3.15 5.95,-5.11 5.16,-9.11 -1.26,-3.97 -6.12,-4.54 -9.62,-5.26 -11.25,-1.12 -22.83,-1.37 -33.9,1.24zm88.64 7.78l0 0c-3.18,2.69 -6.07,6.95 -4.62,11.27 1.82,5.08 8.77,6.12 12.91,3.33 5.18,-2.7 7.34,-8.57 11.71,-12.18 2.96,-2.23 7.74,-0.41 8.51,3.2 1.06,4.24 2.49,9.51 0.25,13.48 -5.15,1.74 -10.74,0.46 -16.01,1.74 -8.6,1.69 -17.68,6.5 -20.99,15.09 -3.09,8.24 1.26,18.34 9.11,22.15 5.94,3.12 12.98,3.12 19.4,1.81 4.6,-1.05 8.13,-4.43 12.43,-6.18 0.59,0.43 1.76,1.25 2.35,1.66 9.79,11.46 31.62,2.88 32.41,-11.67 -1.29,-2.31 -4.51,-1.74 -6.07,-3.65 -5.27,-12.16 1.41,-26.28 -4.5,-38.28 -5.67,-9.16 -17.32,-12.19 -27.46,-12.07 -10.44,0.79 -21.29,3.37 -29.43,10.3zm98.24 -9.13l0 0c-8.75,2.36 -17.61,4.77 -25.73,8.85 -2.64,1.09 -4.35,4.28 -3.09,7.02 2.13,3.18 7.01,4.16 7.54,8.43 0.28,9.5 -0.1,19.05 -1.19,28.5 -0.54,3.53 -5.14,4.41 -6.08,7.8 -0.53,4.27 3.69,6.99 7.39,7.64 7.66,1.6 15.63,1.44 23.39,0.57 4.5,-0.79 10.48,-1.43 12.13,-6.55 -0.16,-4.59 -5,-7.82 -4.79,-12.56 0.5,-8.8 -1.16,-17.86 1.33,-26.46 2.42,-5.61 12.02,-4.88 13.73,0.94 2.88,9.55 1.99,19.68 0.57,29.41 -0.75,3.73 -5.84,5.9 -4.61,10.2 1.13,3.67 5.3,4.46 8.56,5.13 8.94,0.77 18.06,0.85 26.91,-0.85 3.14,-0.54 6.65,-2.44 7.22,-5.89 0.63,-5.05 -6.09,-6.95 -6.03,-11.82 -1.01,-12.02 -0.43,-24.19 -2.45,-36.13 -4.1,-15.86 -28.68,-20.51 -38.3,-7.34 -1.66,1.45 -3.64,5.3 -6.22,3.14 -2.03,-2.65 0.19,-6.53 -2.12,-9.01 -2.07,-2.3 -5.51,-1.76 -8.16,-1.02z"/>
    </g>
    <path class="fil1" d="M298.16 114.88c2.71,-1.59 7.12,0.12 6.35,3.76 0.47,4.3 0.25,11.54 -5.56,11.73 -7.69,-0.95 -7.27,-12.98 -0.79,-15.49z"/>
   </g>
  </g>
 </g>
</svg>
