<?xml version="1.0" encoding="UTF-8"?>
<!DOCTYPE svg PUBLIC "-//W3C//DTD SVG 1.1//EN" "http://www.w3.org/Graphics/SVG/1.1/DTD/svg11.dtd">
<!-- Creator: CorelDRAW 2019 (64-Bit) -->
<svg xmlns="http://www.w3.org/2000/svg" xml:space="preserve" width="220px" height="79px" version="1.1" style="shape-rendering:geometricPrecision; text-rendering:geometricPrecision; image-rendering:optimizeQuality; fill-rule:evenodd; clip-rule:evenodd"
viewBox="0 0 26.16 9.42"
 xmlns:xlink="http://www.w3.org/1999/xlink"
 xmlns:xodm="http://www.corel.com/coreldraw/odm/2003">
 <defs>
  <style type="text/css">
   <![CDATA[
    .fil0 {fill:#FAA731}
    .fil1 {fill:#74C15C}
    .fil3 {fill:#606062;fill-rule:nonzero}
    .fil2 {fill:#FAA731;fill-rule:nonzero}
   ]]>
  </style>
 </defs>
 <g id="Layer_x0020_1">
  <metadata id="CorelCorpID_0Corel-Layer"/>
  <g id="_2701032112080">
   <g>
    <circle class="fil0" cx="3.11" cy="2.46" r="1.14"/>
    <path class="fil1" d="M4.75 1.21c-0.76,1.08 -2.74,2.43 -3.94,3.87 -1.37,1.65 -0.78,2.91 0.15,3.88 0.21,0.23 0.51,0.1 0.41,-0.31 -0.65,-2.07 0.58,-3.42 2.45,-4.87 -1.87,1.82 -2.96,3.48 -1.65,5.64 0.77,-0.04 1.53,-0.37 2.06,-1.26 -0.16,-0.16 -0.33,-0.31 -0.5,-0.47 0.29,0.04 0.57,0.07 0.86,0.11 0.25,-0.51 0.51,-0.96 0.76,-1.46 -0.3,-0.01 -0.62,-0.07 -0.92,-0.07 0.34,-0.2 0.67,-0.39 1.01,-0.59 0,-0.53 0,-1.06 0,-1.58 -0.28,0.09 -0.57,0.19 -0.85,0.28 0.28,-0.25 0.56,-0.51 0.83,-0.76 -0.03,-1.18 -0.4,-2 -0.67,-2.41z"/>
    <g>
     <path class="fil2" d="M2.04 0.13c-0.02,-0.05 0,-0.1 0.05,-0.12 0.05,-0.02 0.1,0 0.12,0.05l-0.17 0.07zm0.47 1.16l-0.47 -1.16 0.17 -0.07 0.47 1.16 -0.17 0.07zm0.17 -0.07c0.01,0.04 -0.01,0.1 -0.05,0.12 -0.05,0.01 -0.1,-0.01 -0.12,-0.05l0.17 -0.07z"/>
    </g>
    <g>
     <path class="fil2" d="M0.93 3.38c-0.05,0.02 -0.1,0 -0.12,-0.05 -0.01,-0.05 0.01,-0.1 0.06,-0.12l0.06 0.17zm0.91 -0.32l-0.91 0.32 -0.06 -0.17 0.91 -0.32 0.06 0.17zm-0.06 -0.17c0.05,-0.02 0.1,0 0.12,0.05 0.01,0.05 -0.01,0.1 -0.06,0.12l-0.06 -0.17z"/>
    </g>
    <g>
     <path class="fil2" d="M0.61 1.67c-0.05,-0.02 -0.07,-0.07 -0.05,-0.12 0.02,-0.05 0.07,-0.07 0.12,-0.05l-0.07 0.17zm1.15 0.49l-1.15 -0.49 0.07 -0.17 1.15 0.49 -0.07 0.17zm0.07 -0.17c0.04,0.02 0.07,0.08 0.05,0.12 -0.02,0.05 -0.08,0.07 -0.12,0.05l0.07 -0.17z"/>
    </g>
    <g>
     <path class="fil2" d="M1.51 1.13c-0.04,-0.03 -0.05,-0.09 -0.01,-0.12 0.03,-0.04 0.09,-0.05 0.12,-0.02l-0.11 0.14zm0.51 0.43l-0.51 -0.43 0.11 -0.14 0.52 0.43 -0.12 0.14zm0.12 -0.14c0.03,0.03 0.04,0.09 0.01,0.13 -0.03,0.04 -0.09,0.04 -0.13,0.01l0.12 -0.14z"/>
    </g>
    <g>
     <path class="fil2" d="M0.83 2.63c-0.05,0 -0.09,-0.04 -0.09,-0.09 0,-0.05 0.04,-0.1 0.08,-0.1l0.01 0.19zm0.79 0l-0.79 0 -0.01 -0.19 0.8 0.01 0 0.18zm0 -0.18c0.04,0 0.08,0.04 0.09,0.09 0,0.05 -0.04,0.09 -0.09,0.09l0 -0.18z"/>
    </g>
    <g>
     <path class="fil2" d="M1.57 3.97c-0.03,0.03 -0.09,0.03 -0.12,-0.01 -0.04,-0.04 -0.04,-0.09 0,-0.13l0.12 0.14zm0.48 -0.42l-0.48 0.42 -0.12 -0.14 0.47 -0.41 0.13 0.13zm-0.13 -0.13c0.04,-0.03 0.1,-0.03 0.13,0.01 0.03,0.03 0.03,0.09 0,0.12l-0.13 -0.13z"/>
    </g>
    <g>
     <path class="fil2" d="M3.09 0.43c0,-0.05 0.04,-0.09 0.09,-0.09 0.05,0 0.1,0.04 0.1,0.09l-0.19 0zm0 0.66l0 -0.66 0.19 0 -0.01 0.66 -0.18 0zm0.18 0c0,0.05 -0.04,0.09 -0.09,0.09 -0.05,0 -0.09,-0.04 -0.09,-0.09l0.18 0z"/>
    </g>
    <g>
     <path class="fil2" d="M4.19 0.34l-0.16 -0.08c0.02,-0.05 0.08,-0.07 0.12,-0.04 0.05,0.02 0.06,0.07 0.04,0.12zm-0.48 0.96l-0.17 -0.08 0.49 -0.96 0.16 0.08 -0.48 0.96zm-0.17 -0.08l0.17 0.08c-0.03,0.05 -0.08,0.06 -0.13,0.04 -0.04,-0.02 -0.06,-0.08 -0.04,-0.12z"/>
    </g>
    <g>
     <path class="fil2" d="M4.33 1.18c0.04,-0.04 0.09,-0.04 0.13,0 0.04,0.03 0.04,0.09 0.01,0.12l-0.14 -0.12zm-0.29 0.29l0.29 -0.29 0.14 0.12 -0.29 0.3 -0.14 -0.13zm0.14 0.13c-0.04,0.03 -0.09,0.03 -0.13,0 -0.04,-0.04 -0.04,-0.09 -0.01,-0.13l0.14 0.13z"/>
    </g>
   </g>
   <path class="fil3" d="M6.9 4.94c0,0.38 0,0.71 -0.03,0.88 -0.01,0.12 -0.03,0.21 -0.12,0.23 -0.03,0.01 -0.08,0.02 -0.14,0.02 -0.05,0 -0.07,0.01 -0.07,0.03 0,0.03 0.03,0.04 0.08,0.04 0.09,0 0.19,-0.01 0.29,-0.01 0.1,0 0.19,0 0.23,0 0.13,0 0.26,0 0.43,0.01 0.18,0 0.41,0.01 0.72,0.01 0.16,0 0.19,0 0.22,-0.11 0.02,-0.08 0.06,-0.36 0.06,-0.45 0,-0.05 0,-0.08 -0.04,-0.08 -0.03,0 -0.03,0.02 -0.04,0.06 -0.03,0.17 -0.08,0.26 -0.19,0.31 -0.11,0.05 -0.28,0.05 -0.39,0.05 -0.42,0 -0.49,-0.06 -0.49,-0.35 -0.01,-0.12 0,-0.5 0,-0.64l0 -0.33c0,-0.02 0,-0.04 0.02,-0.04 0.1,0 0.51,0.01 0.59,0.02 0.15,0.01 0.21,0.07 0.23,0.16 0.01,0.05 0.01,0.1 0.02,0.15 0,0.02 0,0.03 0.03,0.03 0.04,0 0.04,-0.04 0.04,-0.08 0,-0.03 0.01,-0.19 0.02,-0.27 0.01,-0.21 0.03,-0.28 0.03,-0.3 0,-0.03 -0.01,-0.04 -0.03,-0.04 -0.02,0 -0.04,0.02 -0.06,0.06 -0.04,0.04 -0.1,0.05 -0.2,0.06 -0.1,0.01 -0.57,0.01 -0.66,0.01 -0.03,0 -0.03,-0.02 -0.03,-0.05l0 -1.05c0,-0.02 0,-0.04 0.03,-0.04 0.08,0 0.51,0.01 0.58,0.02 0.21,0.02 0.25,0.07 0.28,0.15 0.02,0.05 0.02,0.12 0.02,0.15 0,0.03 0.01,0.06 0.04,0.06 0.03,0 0.04,-0.03 0.04,-0.05 0.01,-0.05 0.02,-0.23 0.02,-0.27 0.02,-0.19 0.04,-0.24 0.04,-0.27 0,-0.02 -0.01,-0.04 -0.03,-0.04 -0.02,0 -0.04,0.01 -0.06,0.02 -0.04,0.01 -0.1,0.01 -0.18,0.02 -0.08,0.01 -0.9,0.01 -1.04,0.01 -0.05,0 -0.15,-0.01 -0.26,-0.01 -0.1,0 -0.22,-0.01 -0.33,-0.01 -0.06,0 -0.09,0.01 -0.09,0.04 0,0.03 0.02,0.04 0.07,0.04 0.06,0 0.13,0 0.16,0.01 0.14,0.03 0.17,0.1 0.18,0.24 0.01,0.13 0.01,0.24 0.01,0.87l0 0.73z"/>
   <path id="1" class="fil3" d="M9.2 5.79c-0.01,0.11 -0.05,0.25 -0.15,0.27 -0.05,0.01 -0.08,0.01 -0.11,0.01 -0.04,0 -0.06,0.01 -0.06,0.03 0,0.03 0.03,0.04 0.07,0.04 0.12,0 0.29,-0.01 0.36,-0.01 0.07,0 0.23,0.01 0.38,0.01 0.06,0 0.09,-0.01 0.09,-0.04 0,-0.02 -0.02,-0.03 -0.06,-0.03 -0.03,0 -0.06,-0.01 -0.12,-0.02 -0.07,-0.01 -0.12,-0.04 -0.12,-0.1 0,-0.06 0.01,-0.11 0.02,-0.17l0.17 -1.37 0.01 0c0.12,0.24 0.34,0.68 0.37,0.75 0.04,0.1 0.33,0.64 0.41,0.8 0.06,0.11 0.1,0.18 0.15,0.18 0.04,0 0.06,-0.04 0.14,-0.2l0.78 -1.57 0.02 0 0.2 1.52c0.01,0.1 0,0.14 -0.02,0.15 -0.02,0 -0.04,0.02 -0.04,0.03 0,0.02 0.02,0.04 0.11,0.04 0.14,0.01 0.66,0.03 0.75,0.03 0.05,0 0.1,-0.01 0.1,-0.04 0,-0.02 -0.03,-0.03 -0.06,-0.03 -0.05,0 -0.11,-0.01 -0.21,-0.04 -0.11,-0.03 -0.14,-0.13 -0.18,-0.35l-0.33 -2.17c-0.01,-0.07 -0.05,-0.11 -0.08,-0.11 -0.03,0 -0.07,0.03 -0.09,0.09l-0.98 1.98 -0.98 -1.96c-0.05,-0.09 -0.07,-0.11 -0.11,-0.11 -0.03,0 -0.06,0.04 -0.07,0.09l-0.36 2.3z"/>
   <path id="2" class="fil3" d="M13.24 5.12c0,0.34 0,0.62 -0.01,0.76 -0.02,0.11 -0.04,0.16 -0.11,0.17 -0.04,0.01 -0.08,0.02 -0.13,0.02 -0.05,0 -0.06,0.02 -0.06,0.03 0,0.03 0.03,0.04 0.07,0.04 0.15,0 0.39,-0.01 0.48,-0.01 0.1,0 0.34,0.01 0.58,0.01 0.05,0 0.07,-0.01 0.07,-0.04 0,-0.01 -0.01,-0.03 -0.05,-0.03 -0.06,0 -0.14,-0.01 -0.19,-0.02 -0.11,-0.01 -0.13,-0.07 -0.14,-0.16 -0.02,-0.15 -0.02,-0.43 -0.02,-0.77l0 -0.62c0,-0.53 0,-0.63 0.01,-0.75 0.01,-0.12 0.03,-0.17 0.13,-0.19 0.05,0 0.07,-0.01 0.11,-0.01 0.04,0 0.06,-0.01 0.06,-0.04 0,-0.02 -0.03,-0.03 -0.07,-0.03 -0.15,0 -0.38,0.01 -0.47,0.01 -0.11,0 -0.35,-0.01 -0.49,-0.01 -0.06,0 -0.09,0.01 -0.09,0.03 0,0.03 0.02,0.04 0.06,0.04 0.05,0 0.09,0.01 0.13,0.02 0.08,0.02 0.12,0.06 0.13,0.18 0,0.12 0,0.22 0,0.75l0 0.62z"/>
   <path id="3" class="fil3" d="M15.11 4.23l0.01 0c0.07,0.06 0.46,0.48 0.85,0.86 0.38,0.37 0.84,0.81 1.07,1.02 0.03,0.03 0.08,0.07 0.15,0.07 0.02,0 0.05,-0.03 0.05,-0.11l0.04 -2.22c0.01,-0.2 0.04,-0.26 0.14,-0.29 0.04,-0.01 0.07,-0.01 0.11,-0.01 0.04,0 0.06,-0.01 0.06,-0.04 0,-0.02 -0.03,-0.03 -0.08,-0.03 -0.18,0 -0.32,0.01 -0.36,0.01 -0.08,0 -0.27,-0.01 -0.46,-0.01 -0.06,0 -0.09,0.01 -0.09,0.03 0,0.03 0.01,0.04 0.06,0.04 0.04,0 0.13,0 0.19,0.02 0.08,0.04 0.12,0.1 0.12,0.31l0.04 1.57 -0.02 0c-0.05,-0.05 -0.54,-0.55 -0.78,-0.79 -0.53,-0.52 -1.08,-1.08 -1.12,-1.12 -0.07,-0.07 -0.12,-0.12 -0.16,-0.12 -0.04,0 -0.06,0.05 -0.06,0.12l-0.04 2.08c0,0.31 -0.01,0.4 -0.11,0.43 -0.05,0.01 -0.11,0.02 -0.16,0.02 -0.04,0 -0.06,0.01 -0.06,0.03 0,0.04 0.03,0.04 0.08,0.04 0.19,0 0.36,-0.01 0.39,-0.01 0.07,0 0.24,0.01 0.47,0.01 0.05,0 0.09,-0.01 0.09,-0.04 0,-0.02 -0.02,-0.03 -0.06,-0.03 -0.06,0 -0.13,-0.01 -0.2,-0.03 -0.06,-0.02 -0.11,-0.11 -0.12,-0.38l-0.04 -1.43z"/>
   <path id="4" class="fil3" d="M18.4 5.12c0,0.32 0,0.6 -0.02,0.75 -0.01,0.1 -0.03,0.17 -0.1,0.18 -0.04,0.01 -0.08,0.02 -0.13,0.02 -0.05,0 -0.06,0.02 -0.06,0.03 0,0.03 0.03,0.04 0.07,0.04 0.08,0 0.17,0 0.25,-0.01 0.09,0 0.17,0 0.21,0 0.11,0 0.24,0 0.42,0.01 0.18,0 0.4,0.01 0.67,0.01 0.14,0 0.17,0 0.2,-0.09 0.02,-0.07 0.05,-0.31 0.05,-0.39 0,-0.04 -0.01,-0.08 -0.04,-0.08 -0.02,0 -0.03,0.01 -0.04,0.05 -0.02,0.14 -0.06,0.22 -0.16,0.26 -0.09,0.04 -0.24,0.05 -0.34,0.05 -0.37,0 -0.48,-0.06 -0.49,-0.3 -0.01,-0.1 0,-0.4 0,-0.52l0 -0.28c0,-0.02 0,-0.04 0.02,-0.04 0.09,0 0.5,0.01 0.57,0.02 0.14,0.01 0.18,0.07 0.2,0.14 0.01,0.04 0.01,0.09 0.02,0.12 0,0.02 0,0.03 0.03,0.03 0.03,0 0.04,-0.05 0.04,-0.08 0,-0.02 0,-0.16 0.01,-0.23 0.02,-0.18 0.03,-0.24 0.03,-0.26 0,-0.02 -0.01,-0.04 -0.03,-0.04 -0.01,0 -0.03,0.03 -0.06,0.05 -0.03,0.04 -0.08,0.05 -0.17,0.05 -0.08,0.01 -0.55,0.01 -0.64,0.01 -0.02,0 -0.02,-0.01 -0.02,-0.03l0 -0.87c0,-0.02 0.01,-0.04 0.02,-0.04 0.08,0 0.51,0.01 0.57,0.02 0.19,0.02 0.22,0.07 0.24,0.13 0.02,0.04 0.03,0.1 0.03,0.13 0,0.03 0,0.04 0.03,0.04 0.03,0 0.04,-0.04 0.04,-0.06 0.01,-0.04 0.02,-0.19 0.02,-0.23 0.01,-0.16 0.03,-0.2 0.03,-0.22 0,-0.02 -0.01,-0.04 -0.03,-0.04 -0.01,0 -0.03,0.01 -0.05,0.02 -0.03,0 -0.09,0.02 -0.16,0.02 -0.07,0 -0.87,0 -0.99,0 -0.1,0 -0.33,-0.01 -0.52,-0.01 -0.06,0 -0.09,0.01 -0.09,0.03 0,0.03 0.03,0.04 0.07,0.04 0.05,0 0.11,0.01 0.14,0.01 0.12,0.04 0.15,0.07 0.16,0.19 0,0.12 0,0.22 0,0.75l0 0.62z"/>
   <path id="5" class="fil3" d="M20.89 4.23l0.01 0c0.07,0.06 0.45,0.48 0.85,0.86 0.38,0.37 0.83,0.81 1.06,1.02 0.04,0.03 0.09,0.07 0.15,0.07 0.03,0 0.06,-0.03 0.06,-0.11l0.04 -2.22c0,-0.2 0.03,-0.26 0.13,-0.29 0.05,-0.01 0.08,-0.01 0.11,-0.01 0.05,0 0.07,-0.01 0.07,-0.04 0,-0.02 -0.04,-0.03 -0.09,-0.03 -0.17,0 -0.31,0.01 -0.35,0.01 -0.08,0 -0.28,-0.01 -0.47,-0.01 -0.05,0 -0.09,0.01 -0.09,0.03 0,0.03 0.02,0.04 0.06,0.04 0.05,0 0.14,0 0.19,0.02 0.09,0.04 0.12,0.1 0.13,0.31l0.03 1.57 -0.01 0c-0.06,-0.05 -0.54,-0.55 -0.79,-0.79 -0.53,-0.52 -1.07,-1.08 -1.12,-1.12 -0.06,-0.07 -0.11,-0.12 -0.16,-0.12 -0.03,0 -0.06,0.05 -0.06,0.12l-0.03 2.08c-0.01,0.31 -0.02,0.4 -0.11,0.43 -0.05,0.01 -0.12,0.02 -0.17,0.02 -0.03,0 -0.06,0.01 -0.06,0.03 0,0.04 0.04,0.04 0.09,0.04 0.18,0 0.36,-0.01 0.39,-0.01 0.07,0 0.24,0.01 0.47,0.01 0.05,0 0.08,-0.01 0.08,-0.04 0,-0.02 -0.02,-0.03 -0.06,-0.03 -0.06,0 -0.13,-0.01 -0.19,-0.03 -0.07,-0.02 -0.11,-0.11 -0.12,-0.38l-0.04 -1.43z"/>
   <path id="6" class="fil3" d="M24.66 5.12c0,0.32 0,0.6 -0.02,0.75 -0.01,0.1 -0.03,0.17 -0.1,0.18 -0.03,0.01 -0.08,0.02 -0.13,0.02 -0.05,0 -0.06,0.02 -0.06,0.03 0,0.03 0.03,0.04 0.07,0.04 0.15,0 0.39,-0.01 0.48,-0.01 0.1,0 0.34,0.01 0.58,0.01 0.04,0 0.07,-0.01 0.07,-0.04 0,-0.01 -0.01,-0.03 -0.05,-0.03 -0.06,0 -0.14,-0.01 -0.19,-0.02 -0.11,-0.01 -0.13,-0.08 -0.14,-0.18 -0.02,-0.15 -0.02,-0.43 -0.02,-0.75l0 -1.42 0.46 0.01c0.32,0 0.42,0.11 0.43,0.2l0 0.04c0,0.05 0.01,0.07 0.04,0.07 0.02,0 0.03,-0.02 0.04,-0.06 0,-0.09 0,-0.35 0,-0.43 0,-0.05 0,-0.07 -0.03,-0.07 -0.01,0 -0.04,0 -0.1,0.01 -0.05,0.01 -0.13,0.02 -0.24,0.02l-1.48 0c-0.12,0 -0.25,0 -0.36,-0.02 -0.09,-0.01 -0.13,-0.04 -0.16,-0.04 -0.02,0 -0.03,0.02 -0.04,0.07 -0.01,0.03 -0.08,0.37 -0.08,0.43 0,0.03 0.01,0.05 0.03,0.05 0.03,0 0.04,-0.01 0.05,-0.04 0,-0.03 0.02,-0.07 0.06,-0.12 0.05,-0.08 0.14,-0.11 0.35,-0.11l0.54 -0.01 0 1.42z"/>
   <path class="fil3" d="M6.61 7.95c0,0.15 0,0.27 -0.01,0.34 0,0.04 -0.01,0.07 -0.04,0.08 -0.02,0.01 -0.04,0.01 -0.06,0.01 -0.02,0 -0.03,0.01 -0.03,0.01 0,0.02 0.01,0.02 0.03,0.02 0.04,0 0.08,0 0.12,0 0.04,0 0.07,0 0.09,0 0.05,0 0.11,0 0.19,0 0.08,0 0.18,0 0.3,0 0.06,0 0.08,0 0.09,-0.04 0.01,-0.03 0.02,-0.14 0.02,-0.17 0,-0.02 0,-0.04 -0.02,-0.04 -0.01,0 -0.01,0.01 -0.01,0.03 -0.02,0.06 -0.03,0.09 -0.07,0.11 -0.05,0.02 -0.12,0.02 -0.16,0.02 -0.17,0 -0.22,-0.02 -0.22,-0.13 0,-0.04 0,-0.18 0,-0.23l0 -0.13c0,-0.01 0,-0.02 0.01,-0.02 0.04,0 0.23,0.01 0.26,0.01 0.06,0.01 0.08,0.03 0.09,0.06 0,0.02 0,0.04 0,0.06 0,0.01 0.01,0.01 0.02,0.01 0.01,0 0.01,-0.02 0.01,-0.03 0,-0.01 0.01,-0.08 0.01,-0.11 0.01,-0.08 0.01,-0.1 0.01,-0.11 0,-0.01 0,-0.02 -0.01,-0.02 -0.01,0 -0.01,0.01 -0.02,0.02 -0.02,0.02 -0.04,0.02 -0.08,0.03 -0.04,0 -0.25,0 -0.29,0 -0.01,0 -0.01,-0.01 -0.01,-0.02l0 -0.39c0,-0.01 0,-0.01 0.01,-0.01 0.03,0 0.23,0 0.26,0 0.08,0.01 0.09,0.03 0.11,0.06 0,0.02 0.01,0.05 0.01,0.06 0,0.01 0,0.02 0.01,0.02 0.01,0 0.02,-0.02 0.02,-0.03 0,-0.01 0.01,-0.08 0.01,-0.1 0,-0.07 0.01,-0.09 0.01,-0.1 0,-0.01 0,-0.02 -0.01,-0.02 -0.01,0 -0.02,0.01 -0.03,0.01 -0.01,0 -0.04,0.01 -0.07,0.01 -0.03,0 -0.39,0 -0.44,0 -0.05,0 -0.15,0 -0.24,0 -0.02,0 -0.03,0 -0.03,0.01 0,0.01 0.01,0.02 0.02,0.02 0.03,0 0.06,0 0.07,0 0.05,0.02 0.07,0.04 0.07,0.09 0,0.05 0,0.09 0,0.33l0 0.28z"/>
   <path id="1" class="fil3" d="M7.73 7.55l0 0c0.03,0.03 0.21,0.22 0.39,0.39 0.17,0.17 0.37,0.36 0.47,0.46 0.02,0.01 0.04,0.03 0.07,0.03 0.01,0 0.03,-0.02 0.03,-0.05l0.01 -1c0.01,-0.09 0.02,-0.11 0.06,-0.13 0.02,0 0.04,0 0.05,0 0.02,0 0.03,-0.01 0.03,-0.02 0,-0.01 -0.01,-0.01 -0.04,-0.01 -0.08,0 -0.14,0 -0.15,0 -0.04,0 -0.13,0 -0.21,0 -0.03,0 -0.04,0 -0.04,0.01 0,0.01 0,0.02 0.02,0.02 0.02,0 0.06,0 0.09,0.01 0.04,0.01 0.05,0.04 0.05,0.14l0.02 0.7 -0.01 0c-0.02,-0.02 -0.24,-0.25 -0.35,-0.36 -0.24,-0.23 -0.48,-0.48 -0.5,-0.5 -0.03,-0.03 -0.05,-0.05 -0.07,-0.05 -0.02,0 -0.03,0.02 -0.03,0.05l-0.02 0.94c0,0.14 0,0.18 -0.05,0.19 -0.02,0.01 -0.05,0.01 -0.07,0.01 -0.02,0 -0.03,0 -0.03,0.01 0,0.02 0.02,0.02 0.04,0.02 0.08,0 0.16,0 0.18,0 0.03,0 0.1,0 0.21,0 0.02,0 0.03,0 0.03,-0.02 0,-0.01 0,-0.01 -0.02,-0.01 -0.03,0 -0.06,0 -0.09,-0.01 -0.03,-0.01 -0.05,-0.05 -0.05,-0.17l-0.02 -0.65z"/>
   <path id="2" class="fil3" d="M10.19 8.13c0,-0.08 0,-0.14 0,-0.19 0,-0.05 0.02,-0.08 0.06,-0.08 0.02,-0.01 0.03,-0.01 0.05,-0.01 0.01,0 0.02,-0.01 0.02,-0.02 0,-0.01 -0.02,-0.01 -0.04,-0.01 -0.05,0 -0.14,0 -0.19,0 -0.05,0 -0.16,0 -0.25,0 -0.02,0 -0.04,0 -0.04,0.01 0,0.01 0.02,0.02 0.03,0.02 0.02,0 0.05,0 0.06,0.01 0.06,0.01 0.07,0.03 0.07,0.08 0.01,0.05 0.01,0.11 0.01,0.19l0 0.14c0,0.03 -0.01,0.05 -0.04,0.06 -0.03,0.01 -0.07,0.01 -0.11,0.01 -0.35,0 -0.57,-0.24 -0.57,-0.58 0,-0.2 0.06,-0.31 0.15,-0.39 0.11,-0.09 0.23,-0.09 0.32,-0.09 0.18,0 0.3,0.07 0.35,0.12 0.04,0.04 0.05,0.09 0.06,0.13 0,0.01 0,0.02 0.01,0.02 0.02,0 0.03,-0.01 0.03,-0.03 0,-0.2 0.01,-0.25 0.01,-0.26 0,-0.02 -0.01,-0.02 -0.02,-0.02 -0.04,-0.01 -0.1,-0.01 -0.13,-0.02 -0.04,-0.01 -0.18,-0.03 -0.29,-0.03 -0.14,0 -0.29,0.02 -0.44,0.11 -0.15,0.08 -0.29,0.26 -0.29,0.51 0,0.44 0.35,0.62 0.76,0.62 0.12,0 0.29,-0.02 0.4,-0.07 0.02,-0.01 0.02,-0.01 0.02,-0.05l0 -0.18z"/>
   <path id="3" class="fil3" d="M10.64 7.95c0,0.15 0,0.28 0,0.35 -0.01,0.04 -0.02,0.06 -0.05,0.07 -0.02,0.01 -0.04,0.01 -0.06,0.01 -0.02,0 -0.03,0.01 -0.03,0.01 0,0.02 0.01,0.02 0.03,0.02 0.07,0 0.18,0 0.22,0 0.04,0 0.15,0 0.26,0 0.02,0 0.03,0 0.03,-0.02 0,0 0,-0.01 -0.02,-0.01 -0.03,0 -0.06,0 -0.09,-0.01 -0.04,-0.01 -0.06,-0.03 -0.06,-0.07 -0.01,-0.07 -0.01,-0.2 -0.01,-0.35l0 -0.28c0,-0.24 0,-0.28 0.01,-0.33 0,-0.06 0.01,-0.08 0.06,-0.09 0.02,0 0.03,0 0.05,0 0.01,0 0.02,-0.01 0.02,-0.02 0,-0.01 -0.01,-0.01 -0.03,-0.01 -0.07,0 -0.17,0 -0.21,0 -0.05,0 -0.16,0 -0.22,0 -0.03,0 -0.04,0 -0.04,0.01 0,0.01 0.01,0.02 0.03,0.02 0.02,0 0.04,0 0.05,0.01 0.04,0.01 0.06,0.03 0.06,0.08 0,0.05 0,0.09 0,0.33l0 0.28z"/>
   <path id="4" class="fil3" d="M11.48 7.55l0.01 0c0.03,0.03 0.2,0.22 0.38,0.39 0.17,0.17 0.38,0.36 0.48,0.46 0.01,0.01 0.04,0.03 0.06,0.03 0.02,0 0.03,-0.02 0.03,-0.05l0.02 -1c0,-0.09 0.01,-0.11 0.06,-0.13 0.02,0 0.03,0 0.05,0 0.02,0 0.03,-0.01 0.03,-0.02 0,-0.01 -0.02,-0.01 -0.04,-0.01 -0.08,0 -0.14,0 -0.16,0 -0.04,0 -0.12,0 -0.21,0 -0.02,0 -0.04,0 -0.04,0.01 0,0.01 0.01,0.02 0.03,0.02 0.02,0 0.06,0 0.08,0.01 0.04,0.01 0.06,0.04 0.06,0.14l0.01 0.7 0 0c-0.03,-0.02 -0.24,-0.25 -0.36,-0.36 -0.23,-0.23 -0.48,-0.48 -0.5,-0.5 -0.03,-0.03 -0.05,-0.05 -0.07,-0.05 -0.02,0 -0.03,0.02 -0.03,0.05l-0.01 0.94c0,0.14 -0.01,0.18 -0.05,0.19 -0.02,0.01 -0.05,0.01 -0.08,0.01 -0.01,0 -0.02,0 -0.02,0.01 0,0.02 0.01,0.02 0.03,0.02 0.09,0 0.17,0 0.18,0 0.03,0 0.11,0 0.21,0 0.02,0 0.04,0 0.04,-0.02 0,-0.01 -0.01,-0.01 -0.03,-0.01 -0.02,0 -0.06,0 -0.08,-0.01 -0.03,-0.01 -0.06,-0.05 -0.06,-0.17l-0.02 -0.65z"/>
   <path id="5" class="fil3" d="M12.96 7.95c0,0.15 0,0.27 -0.01,0.34 0,0.04 -0.01,0.07 -0.04,0.08 -0.02,0.01 -0.04,0.01 -0.06,0.01 -0.02,0 -0.03,0.01 -0.03,0.01 0,0.02 0.01,0.02 0.03,0.02 0.04,0 0.08,0 0.12,0 0.04,0 0.07,0 0.09,0 0.05,0 0.11,0 0.19,0 0.08,0 0.18,0 0.3,0 0.06,0 0.08,0 0.09,-0.04 0.01,-0.03 0.02,-0.14 0.02,-0.17 0,-0.02 0,-0.04 -0.02,-0.04 -0.01,0 -0.01,0.01 -0.01,0.03 -0.01,0.06 -0.03,0.09 -0.07,0.11 -0.05,0.02 -0.12,0.02 -0.16,0.02 -0.17,0 -0.22,-0.02 -0.22,-0.13 0,-0.04 0,-0.18 0,-0.23l0 -0.13c0,-0.01 0,-0.02 0.01,-0.02 0.04,0 0.23,0.01 0.26,0.01 0.06,0.01 0.08,0.03 0.09,0.06 0,0.02 0,0.04 0,0.06 0,0.01 0.01,0.01 0.02,0.01 0.01,0 0.01,-0.02 0.01,-0.03 0,-0.01 0.01,-0.08 0.01,-0.11 0.01,-0.08 0.01,-0.1 0.01,-0.11 0,-0.01 0,-0.02 -0.01,-0.02 -0.01,0 -0.01,0.01 -0.02,0.02 -0.02,0.02 -0.04,0.02 -0.08,0.03 -0.04,0 -0.25,0 -0.29,0 -0.01,0 -0.01,-0.01 -0.01,-0.02l0 -0.39c0,-0.01 0,-0.01 0.01,-0.01 0.04,0 0.23,0 0.26,0 0.08,0.01 0.09,0.03 0.11,0.06 0.01,0.02 0.01,0.05 0.01,0.06 0,0.01 0,0.02 0.01,0.02 0.01,0 0.02,-0.02 0.02,-0.03 0,-0.01 0.01,-0.08 0.01,-0.1 0,-0.07 0.01,-0.09 0.01,-0.1 0,-0.01 0,-0.02 -0.01,-0.02 -0.01,0 -0.02,0.01 -0.03,0.01 -0.01,0 -0.04,0.01 -0.07,0.01 -0.03,0 -0.39,0 -0.44,0 -0.05,0 -0.15,0 -0.24,0 -0.02,0 -0.03,0 -0.03,0.01 0,0.01 0.01,0.02 0.02,0.02 0.03,0 0.06,0 0.07,0 0.05,0.02 0.07,0.04 0.07,0.09 0,0.05 0,0.09 0,0.33l0 0.28z"/>
   <path id="6" class="fil3" d="M13.99 7.95c0,0.15 0,0.27 0,0.34 -0.01,0.04 -0.02,0.07 -0.05,0.08 -0.02,0.01 -0.03,0.01 -0.06,0.01 -0.02,0 -0.03,0.01 -0.03,0.01 0,0.02 0.02,0.02 0.04,0.02 0.03,0 0.07,0 0.11,0 0.04,0 0.07,0 0.09,0 0.05,0 0.11,0 0.19,0 0.08,0 0.18,0 0.3,0 0.06,0 0.08,0 0.09,-0.04 0.01,-0.03 0.02,-0.14 0.02,-0.17 0,-0.02 0,-0.04 -0.01,-0.04 -0.01,0 -0.02,0.01 -0.02,0.03 -0.01,0.06 -0.03,0.09 -0.07,0.11 -0.04,0.02 -0.11,0.02 -0.16,0.02 -0.16,0 -0.21,-0.02 -0.22,-0.13 0,-0.04 0,-0.18 0,-0.23l0 -0.13c0,-0.01 0.01,-0.02 0.01,-0.02 0.04,0 0.23,0.01 0.26,0.01 0.06,0.01 0.08,0.03 0.09,0.06 0,0.02 0,0.04 0.01,0.06 0,0.01 0,0.01 0.01,0.01 0.02,0 0.02,-0.02 0.02,-0.03 0,-0.01 0,-0.08 0,-0.11 0.01,-0.08 0.02,-0.1 0.02,-0.11 0,-0.01 -0.01,-0.02 -0.02,-0.02 0,0 -0.01,0.01 -0.02,0.02 -0.02,0.02 -0.04,0.02 -0.08,0.03 -0.04,0 -0.25,0 -0.29,0 0,0 -0.01,-0.01 -0.01,-0.02l0 -0.39c0,-0.01 0.01,-0.01 0.01,-0.01 0.04,0 0.23,0 0.26,0 0.08,0.01 0.1,0.03 0.11,0.06 0.01,0.02 0.01,0.05 0.01,0.06 0,0.01 0,0.02 0.01,0.02 0.02,0 0.02,-0.02 0.02,-0.03 0.01,-0.01 0.01,-0.08 0.01,-0.1 0,-0.07 0.01,-0.09 0.01,-0.1 0,-0.01 0,-0.02 -0.01,-0.02 0,0 -0.01,0.01 -0.02,0.01 -0.02,0 -0.04,0.01 -0.07,0.01 -0.03,0 -0.4,0 -0.45,0 -0.04,0 -0.15,0 -0.23,0 -0.03,0 -0.04,0 -0.04,0.01 0,0.01 0.01,0.02 0.03,0.02 0.02,0 0.05,0 0.06,0 0.05,0.02 0.07,0.04 0.07,0.09 0,0.05 0,0.09 0,0.33l0 0.28z"/>
   <path id="7" class="fil3" d="M15.03 7.95c0,0.15 0,0.27 -0.01,0.34 -0.01,0.04 -0.02,0.07 -0.05,0.08 -0.01,0.01 -0.03,0.01 -0.06,0.01 -0.02,0 -0.02,0.01 -0.02,0.01 0,0.02 0.01,0.02 0.03,0.02 0.06,0 0.17,0 0.2,0 0.02,0 0.16,0 0.25,0 0.03,0 0.04,0 0.04,-0.02 0,0 -0.01,-0.01 -0.02,-0.01 -0.02,0 -0.06,0 -0.08,-0.01 -0.05,-0.01 -0.06,-0.04 -0.07,-0.08 0,-0.07 0,-0.19 0,-0.34l0 -0.02c0,-0.01 0,-0.01 0.01,-0.01l0.15 0c0.01,0 0.02,0 0.02,0.01 0.03,0.03 0.09,0.13 0.16,0.22 0.09,0.12 0.15,0.19 0.22,0.23 0.04,0.02 0.09,0.03 0.18,0.03l0.16 0c0.02,0 0.03,0 0.03,-0.02 0,0 -0.01,-0.01 -0.02,-0.01 -0.02,0 -0.02,0 -0.04,-0.01 -0.03,0 -0.09,-0.01 -0.18,-0.1 -0.09,-0.1 -0.21,-0.24 -0.35,-0.42 0.16,-0.13 0.22,-0.23 0.22,-0.35 0,-0.11 -0.07,-0.19 -0.11,-0.22 -0.09,-0.05 -0.21,-0.06 -0.31,-0.06 -0.05,0 -0.2,0 -0.26,0 -0.03,0 -0.14,0 -0.22,0 -0.03,0 -0.04,0 -0.04,0.01 0,0.01 0.01,0.02 0.03,0.02 0.02,0 0.05,0 0.06,0 0.06,0.02 0.07,0.04 0.08,0.09 0,0.05 0,0.09 0,0.33l0 0.28zm0.21 -0.62c0,-0.02 0,-0.02 0.01,-0.03 0.02,0 0.06,0 0.1,0 0.09,0 0.25,0.06 0.25,0.28 0,0.13 -0.06,0.2 -0.11,0.23 -0.03,0.02 -0.05,0.03 -0.12,0.03 -0.04,0 -0.08,-0.01 -0.12,-0.02 -0.01,0 -0.01,-0.01 -0.01,-0.02l0 -0.47z"/>
   <path id="8" class="fil3" d="M16.3 7.95c0,0.15 0,0.28 -0.01,0.35 0,0.04 -0.01,0.06 -0.04,0.07 -0.02,0.01 -0.04,0.01 -0.06,0.01 -0.02,0 -0.03,0.01 -0.03,0.01 0,0.02 0.01,0.02 0.03,0.02 0.07,0 0.18,0 0.22,0 0.04,0 0.15,0 0.26,0 0.02,0 0.03,0 0.03,-0.02 0,0 0,-0.01 -0.02,-0.01 -0.03,0 -0.06,0 -0.09,-0.01 -0.04,-0.01 -0.06,-0.03 -0.06,-0.07 -0.01,-0.07 -0.01,-0.2 -0.01,-0.35l0 -0.28c0,-0.24 0,-0.28 0,-0.33 0.01,-0.06 0.02,-0.08 0.07,-0.09 0.01,0 0.03,0 0.04,0 0.02,0 0.03,-0.01 0.03,-0.02 0,-0.01 -0.01,-0.01 -0.03,-0.01 -0.07,0 -0.17,0 -0.21,0 -0.05,0 -0.16,0 -0.22,0 -0.03,0 -0.04,0 -0.04,0.01 0,0.01 0.01,0.02 0.02,0.02 0.02,0 0.05,0 0.06,0.01 0.04,0.01 0.06,0.03 0.06,0.08 0,0.05 0,0.09 0,0.33l0 0.28z"/>
   <path id="9" class="fil3" d="M17.14 7.55l0.01 0c0.03,0.03 0.2,0.22 0.38,0.39 0.17,0.17 0.37,0.36 0.48,0.46 0.01,0.01 0.04,0.03 0.06,0.03 0.02,0 0.03,-0.02 0.03,-0.05l0.02 -1c0,-0.09 0.01,-0.11 0.06,-0.13 0.02,0 0.03,0 0.05,0 0.02,0 0.03,-0.01 0.03,-0.02 0,-0.01 -0.02,-0.01 -0.04,-0.01 -0.08,0 -0.14,0 -0.16,0 -0.04,0 -0.12,0 -0.21,0 -0.02,0 -0.04,0 -0.04,0.01 0,0.01 0.01,0.02 0.03,0.02 0.02,0 0.06,0 0.08,0.01 0.04,0.01 0.06,0.04 0.06,0.14l0.01 0.7 0 0c-0.03,-0.02 -0.25,-0.25 -0.36,-0.36 -0.23,-0.23 -0.48,-0.48 -0.5,-0.5 -0.03,-0.03 -0.05,-0.05 -0.07,-0.05 -0.02,0 -0.03,0.02 -0.03,0.05l-0.01 0.94c0,0.14 -0.01,0.18 -0.05,0.19 -0.03,0.01 -0.06,0.01 -0.08,0.01 -0.01,0 -0.02,0 -0.02,0.01 0,0.02 0.01,0.02 0.03,0.02 0.09,0 0.17,0 0.18,0 0.03,0 0.11,0 0.21,0 0.02,0 0.04,0 0.04,-0.02 0,-0.01 -0.01,-0.01 -0.03,-0.01 -0.03,0 -0.06,0 -0.08,-0.01 -0.04,-0.01 -0.06,-0.05 -0.06,-0.17l-0.02 -0.65z"/>
   <path id="10" class="fil3" d="M19.6 8.13c0,-0.08 0,-0.14 0,-0.19 0,-0.05 0.02,-0.08 0.06,-0.08 0.02,-0.01 0.04,-0.01 0.05,-0.01 0.01,0 0.02,-0.01 0.02,-0.02 0,-0.01 -0.01,-0.01 -0.03,-0.01 -0.06,0 -0.14,0 -0.2,0 -0.04,0 -0.16,0 -0.25,0 -0.02,0 -0.03,0 -0.03,0.01 0,0.01 0.01,0.02 0.02,0.02 0.03,0 0.05,0 0.07,0.01 0.05,0.01 0.07,0.03 0.07,0.08 0,0.05 0,0.11 0,0.19l0 0.14c0,0.03 -0.01,0.05 -0.03,0.06 -0.04,0.01 -0.07,0.01 -0.12,0.01 -0.35,0 -0.57,-0.24 -0.57,-0.58 0,-0.2 0.06,-0.31 0.16,-0.39 0.11,-0.09 0.22,-0.09 0.31,-0.09 0.19,0 0.31,0.07 0.36,0.12 0.04,0.04 0.05,0.09 0.05,0.13 0,0.01 0.01,0.02 0.02,0.02 0.01,0 0.02,-0.01 0.02,-0.03 0,-0.2 0.01,-0.25 0.01,-0.26 0,-0.02 0,-0.02 -0.02,-0.02 -0.04,-0.01 -0.1,-0.01 -0.13,-0.02 -0.03,-0.01 -0.18,-0.03 -0.29,-0.03 -0.14,0 -0.28,0.02 -0.44,0.11 -0.15,0.08 -0.29,0.26 -0.29,0.51 0,0.44 0.36,0.62 0.76,0.62 0.13,0 0.29,-0.02 0.4,-0.07 0.02,-0.01 0.02,-0.01 0.02,-0.05l0 -0.18z"/>
   <path id="11" class="fil3" d="M20.56 8.02c0,0.13 0,0.23 0,0.29 -0.01,0.04 -0.01,0.06 -0.04,0.07 -0.01,0 -0.03,0.01 -0.05,0.01 -0.01,0 -0.02,0 -0.02,0.01 0,0.01 0.01,0.01 0.03,0.01 0.05,0 0.13,0 0.16,0 0.04,0 0.12,0 0.21,0 0.01,0 0.03,0 0.03,-0.01 0,-0.01 -0.01,-0.01 -0.03,-0.01 -0.02,0 -0.05,-0.01 -0.06,-0.01 -0.04,-0.01 -0.05,-0.03 -0.06,-0.07 0,-0.06 0,-0.16 0,-0.29l0 -0.53c0,-0.01 0,-0.02 0.01,-0.02 0.01,-0.01 0.03,-0.01 0.05,-0.01 0.03,0 0.09,0.01 0.13,0.05 0.08,0.07 0.08,0.16 0.08,0.2 0,0.14 -0.1,0.22 -0.18,0.22 -0.02,0 -0.03,0.01 -0.03,0.02 0,0.01 0.01,0.01 0.01,0.01 0.01,0 0.02,0 0.03,0 0.19,0 0.33,-0.13 0.33,-0.32 0,-0.07 -0.04,-0.13 -0.07,-0.16 -0.02,-0.02 -0.08,-0.08 -0.25,-0.08 -0.06,0 -0.13,0.01 -0.19,0.01 -0.04,0 -0.12,-0.01 -0.19,-0.01 -0.02,0 -0.03,0.01 -0.03,0.02 0,0.01 0.01,0.01 0.02,0.01 0.02,0 0.04,0 0.05,0 0.05,0.01 0.06,0.03 0.06,0.08 0,0.04 0,0.08 0,0.28l0 0.23z"/>
   <path id="12" class="fil3" d="M21.59 8.36c0.03,0.05 0.03,0.06 0.05,0.06 0.02,0 0.03,-0.01 0.06,-0.08 0.02,-0.06 0.08,-0.18 0.15,-0.34 0.07,-0.14 0.1,-0.2 0.14,-0.31 0.03,-0.07 0.05,-0.09 0.06,-0.1 0.02,-0.01 0.05,-0.01 0.06,-0.01 0.01,0 0.02,-0.01 0.02,-0.01 0,-0.01 -0.01,-0.02 -0.02,-0.02 -0.04,0 -0.09,0.01 -0.11,0.01 -0.02,0 -0.07,-0.01 -0.13,-0.01 -0.02,0 -0.03,0.01 -0.03,0.02 0,0 0.01,0.01 0.02,0.01 0.01,0 0.03,0 0.04,0 0.01,0.01 0.02,0.01 0.02,0.02 0,0.01 -0.01,0.03 -0.01,0.04 -0.03,0.08 -0.18,0.44 -0.23,0.56l0 0 -0.2 -0.51c-0.02,-0.04 -0.03,-0.07 -0.03,-0.08 0,-0.01 0.01,-0.02 0.02,-0.02 0,-0.01 0.02,-0.01 0.04,-0.01 0.01,0 0.02,-0.01 0.02,-0.01 0,-0.01 -0.01,-0.02 -0.03,-0.02 -0.06,0 -0.12,0.01 -0.15,0.01 -0.04,0 -0.11,-0.01 -0.17,-0.01 -0.02,0 -0.03,0.01 -0.03,0.02 0,0 0.01,0.01 0.02,0.01 0.01,0 0.02,0 0.04,0 0.04,0.01 0.06,0.02 0.09,0.09l0.29 0.69z"/>
   <path id="13" class="fil3" d="M22.41 8.08c0,0.1 0,0.19 -0.01,0.24 0,0.03 -0.01,0.06 -0.03,0.06 -0.01,0 -0.02,0.01 -0.04,0.01 -0.02,0 -0.02,0 -0.02,0.01 0,0.01 0.01,0.01 0.02,0.01 0.05,0 0.13,0 0.16,0 0.03,0 0.11,0 0.18,0 0.02,0 0.03,0 0.03,-0.01 0,-0.01 -0.01,-0.01 -0.02,-0.01 -0.02,0 -0.05,-0.01 -0.06,-0.01 -0.04,0 -0.04,-0.03 -0.05,-0.06 0,-0.05 0,-0.14 0,-0.24l0 -0.46 0.14 0.01c0.11,0 0.14,0.03 0.14,0.06l0 0.01c0,0.02 0.01,0.03 0.02,0.03 0,0 0.01,-0.01 0.01,-0.02 0,-0.03 0,-0.12 0,-0.14 0,-0.02 0,-0.02 -0.01,-0.02 0,0 -0.01,0 -0.03,0 -0.02,0.01 -0.04,0.01 -0.08,0.01l-0.47 0c-0.04,0 -0.09,0 -0.12,-0.01 -0.03,0 -0.04,-0.01 -0.05,-0.01 -0.01,0 -0.01,0.01 -0.02,0.02 0,0.01 -0.02,0.12 -0.02,0.14 0,0.01 0,0.02 0.01,0.02 0.01,0 0.01,-0.01 0.01,-0.02 0.01,-0.01 0.01,-0.02 0.02,-0.04 0.02,-0.02 0.05,-0.03 0.12,-0.03l0.17 -0.01 0 0.46z"/>
   <path id="14" class="fil3" d="M22.97 8.41c0.05,0 0.08,-0.04 0.08,-0.09 0,-0.05 -0.03,-0.08 -0.08,-0.08 -0.06,0 -0.08,0.05 -0.08,0.08 0,0.04 0.02,0.09 0.08,0.09z"/>
   <path id="15" class="fil3" d="M23.92 7.79c0,-0.2 0,-0.24 0,-0.28 0,-0.05 0.02,-0.07 0.05,-0.08 0.02,0 0.04,0 0.05,0 0.02,0 0.03,0 0.03,-0.01 0,-0.01 -0.01,-0.02 -0.03,-0.02 -0.05,0 -0.15,0.01 -0.18,0.01 -0.04,0 -0.12,-0.01 -0.18,-0.01 -0.02,0 -0.03,0.01 -0.03,0.02 0,0.01 0.01,0.01 0.02,0.01 0.02,0 0.03,0 0.04,0 0.05,0.01 0.06,0.03 0.06,0.08 0,0.04 0,0.08 0,0.28l0 0.23c0,0.13 0,0.23 0,0.29 -0.01,0.04 -0.02,0.06 -0.04,0.07 -0.01,0 -0.03,0.01 -0.05,0.01 -0.02,0 -0.02,0 -0.02,0.01 0,0.01 0.01,0.01 0.03,0.01 0.02,0 0.06,0 0.09,0 0.03,0 0.06,0 0.07,0 0.06,0 0.11,0 0.17,0 0.05,0 0.12,0 0.22,0 0.07,0 0.08,0 0.08,-0.03 0.01,-0.04 0.02,-0.14 0.02,-0.16 0,-0.01 0,-0.02 -0.01,-0.02 -0.01,0 -0.01,0.01 -0.01,0.02 0,0.03 -0.02,0.06 -0.04,0.08 -0.03,0.04 -0.08,0.04 -0.15,0.04 -0.11,0 -0.14,-0.01 -0.16,-0.03 -0.03,-0.02 -0.03,-0.12 -0.03,-0.29l0 -0.23z"/>
   <path id="16" class="fil3" d="M24.62 8.08c0,0.1 0,0.19 0,0.24 -0.01,0.03 -0.01,0.06 -0.04,0.06 -0.01,0 -0.02,0.01 -0.04,0.01 -0.01,0 -0.02,0 -0.02,0.01 0,0.01 0.01,0.01 0.03,0.01 0.04,0 0.12,0 0.15,0 0.03,0 0.11,0 0.19,0 0.01,0 0.02,0 0.02,-0.01 0,-0.01 -0.01,-0.01 -0.02,-0.01 -0.02,0 -0.04,-0.01 -0.06,-0.01 -0.03,0 -0.04,-0.03 -0.04,-0.06 -0.01,-0.05 -0.01,-0.14 -0.01,-0.24l0 -0.46 0.15 0.01c0.1,0 0.13,0.03 0.13,0.06l0.01 0.01c0,0.02 0,0.03 0.01,0.03 0.01,0 0.01,-0.01 0.01,-0.02 0,-0.03 0,-0.12 0,-0.14 0,-0.02 0,-0.02 -0.01,-0.02 0,0 -0.01,0 -0.03,0 -0.02,0.01 -0.04,0.01 -0.08,0.01l-0.47 0c-0.04,0 -0.08,0 -0.12,-0.01 -0.03,0 -0.04,-0.01 -0.05,-0.01 -0.01,0 -0.01,0.01 -0.01,0.02 -0.01,0.01 -0.03,0.12 -0.03,0.14 0,0.01 0,0.02 0.01,0.02 0.01,0 0.01,-0.01 0.02,-0.02 0,-0.01 0,-0.02 0.02,-0.04 0.01,-0.02 0.04,-0.03 0.11,-0.03l0.17 -0.01 0 0.46z"/>
   <path id="17" class="fil3" d="M25.31 8.08c0,0.1 0,0.19 -0.01,0.24 0,0.03 -0.01,0.06 -0.03,0.06 -0.01,0 -0.03,0.01 -0.04,0.01 -0.02,0 -0.02,0 -0.02,0.01 0,0.01 0.01,0.01 0.02,0.01 0.02,0 0.05,0 0.08,0 0.03,0 0.06,0 0.07,0 0.03,0 0.07,0 0.12,0 0.04,0 0.09,0.01 0.14,0.01 0.21,0 0.34,-0.08 0.39,-0.13 0.06,-0.07 0.13,-0.18 0.13,-0.32 0,-0.13 -0.06,-0.23 -0.11,-0.29 -0.13,-0.13 -0.33,-0.13 -0.47,-0.13 -0.08,0 -0.16,0.01 -0.19,0.01 -0.04,0 -0.11,-0.01 -0.17,-0.01 -0.02,0 -0.03,0.01 -0.03,0.02 0,0 0.01,0.01 0.02,0.01 0.02,0 0.04,0 0.05,0 0.03,0.01 0.04,0.02 0.05,0.06 0,0.04 0,0.07 0,0.24l0 0.2zm0.15 -0.22c0,-0.08 0,-0.18 0.01,-0.22 0,-0.01 0,-0.01 0.01,-0.02 0.01,0 0.05,-0.01 0.07,-0.01 0.09,0 0.22,0.02 0.33,0.11 0.05,0.05 0.11,0.14 0.11,0.28 0,0.12 -0.03,0.22 -0.1,0.28 -0.07,0.06 -0.15,0.08 -0.26,0.08 -0.09,0 -0.13,-0.02 -0.15,-0.04 -0.01,-0.02 -0.01,-0.06 -0.01,-0.08 0,-0.03 -0.01,-0.11 -0.01,-0.23l0 -0.15z"/>
  </g>
 </g>
</svg>
