<?xml version="1.0" encoding="UTF-8"?>
<!DOCTYPE svg PUBLIC "-//W3C//DTD SVG 1.1//EN" "http://www.w3.org/Graphics/SVG/1.1/DTD/svg11.dtd">
<!-- Creator: CorelDRAW 2019 (64-Bit) -->
<svg xmlns="http://www.w3.org/2000/svg" xml:space="preserve" width="220px" height="121px" version="1.1" style="shape-rendering:geometricPrecision; text-rendering:geometricPrecision; image-rendering:optimizeQuality; fill-rule:evenodd; clip-rule:evenodd"
viewBox="0 0 34.73 19.05"
 xmlns:xlink="http://www.w3.org/1999/xlink"
 xmlns:xodm="http://www.corel.com/coreldraw/odm/2003">
 <defs>
  <style type="text/css">
   <![CDATA[
    .fil10 {fill:#FEFEFE;fill-rule:nonzero}
    .fil9 {fill:#727376;fill-rule:nonzero}
    .fil8 {fill:black;fill-rule:nonzero}
    .fil6 {fill:#D2E28B;fill-rule:nonzero}
    .fil7 {fill:#A8CF45;fill-rule:nonzero}
    .fil0 {fill:#007744;fill-rule:nonzero}
    .fil1 {fill:#322F6A;fill-rule:nonzero}
    .fil2 {fill:#000097;fill-rule:nonzero}
    .fil4 {fill:#6F6FC7;fill-rule:nonzero}
    .fil3 {fill:#B1B1B1;fill-rule:nonzero}
    .fil5 {fill:#C2C2EA;fill-rule:nonzero}
   ]]>
  </style>
 </defs>
 <g id="Layer_x0020_1">
  <metadata id="CorelCorpID_0Corel-Layer"/>
  <g id="_2700827283344">
   <polygon class="fil0" points="0.13,17.12 1.42,17.12 1.42,17.49 0.66,17.49 0.66,17.78 1.31,17.78 1.31,18.13 0.66,18.13 0.66,18.82 0.13,18.82 "/>
   <path id="1" class="fil0" d="M2.04 17.97c0,-0.27 0.08,-0.49 0.23,-0.64 0.16,-0.16 0.37,-0.23 0.65,-0.23 0.28,0 0.5,0.07 0.65,0.22 0.15,0.15 0.23,0.37 0.23,0.64 0,0.2 -0.04,0.36 -0.1,0.48 -0.07,0.13 -0.17,0.23 -0.29,0.3 -0.13,0.07 -0.28,0.11 -0.47,0.11 -0.19,0 -0.35,-0.03 -0.48,-0.09 -0.12,-0.07 -0.22,-0.16 -0.3,-0.29 -0.08,-0.14 -0.12,-0.3 -0.12,-0.5zm0.52 0c0,0.17 0.04,0.3 0.1,0.37 0.06,0.08 0.15,0.11 0.26,0.11 0.11,0 0.2,-0.03 0.26,-0.11 0.06,-0.07 0.09,-0.2 0.09,-0.39 0,-0.16 -0.03,-0.28 -0.09,-0.35 -0.07,-0.07 -0.15,-0.11 -0.26,-0.11 -0.11,0 -0.2,0.04 -0.26,0.11 -0.06,0.08 -0.1,0.2 -0.1,0.37z"/>
   <path id="2" class="fil0" d="M4.41 17.97c0,-0.27 0.08,-0.49 0.24,-0.64 0.15,-0.16 0.36,-0.23 0.64,-0.23 0.28,0 0.5,0.07 0.65,0.22 0.15,0.15 0.23,0.37 0.23,0.64 0,0.2 -0.03,0.36 -0.1,0.48 -0.07,0.13 -0.16,0.23 -0.29,0.3 -0.13,0.07 -0.28,0.11 -0.47,0.11 -0.19,0 -0.35,-0.03 -0.47,-0.09 -0.13,-0.07 -0.23,-0.16 -0.31,-0.29 -0.08,-0.14 -0.12,-0.3 -0.12,-0.5zm0.53 0c0,0.17 0.03,0.3 0.09,0.37 0.07,0.08 0.15,0.11 0.26,0.11 0.12,0 0.2,-0.03 0.26,-0.11 0.07,-0.07 0.1,-0.2 0.1,-0.39 0,-0.16 -0.04,-0.28 -0.1,-0.35 -0.06,-0.07 -0.15,-0.11 -0.26,-0.11 -0.11,0 -0.19,0.04 -0.26,0.11 -0.06,0.08 -0.09,0.2 -0.09,0.37z"/>
   <path id="3" class="fil0" d="M6.86 17.12l0.78 0c0.15,0 0.28,0.02 0.37,0.07 0.09,0.04 0.17,0.1 0.23,0.18 0.07,0.07 0.11,0.16 0.14,0.27 0.03,0.1 0.04,0.21 0.04,0.33 0,0.18 -0.02,0.32 -0.06,0.42 -0.04,0.1 -0.1,0.18 -0.17,0.25 -0.08,0.06 -0.16,0.11 -0.24,0.13 -0.11,0.03 -0.22,0.05 -0.31,0.05l-0.78 0 0 -1.7zm0.52 0.39l0 0.92 0.13 0c0.11,0 0.19,-0.01 0.24,-0.03 0.04,-0.03 0.08,-0.07 0.1,-0.13 0.03,-0.06 0.04,-0.16 0.04,-0.3 0,-0.17 -0.03,-0.3 -0.08,-0.36 -0.06,-0.07 -0.16,-0.1 -0.3,-0.1l-0.13 0z"/>
   <polygon id="4" class="fil0" points="9.72,17.12 10.27,17.12 10.65,18.34 11.02,17.12 11.55,17.12 10.93,18.82 10.36,18.82 "/>
   <polygon id="5" class="fil0" points="12.15,17.12 12.67,17.12 12.67,18.82 12.15,18.82 "/>
   <path id="6" class="fil0" d="M13.36 18.26l0.5 -0.03c0.01,0.08 0.03,0.14 0.06,0.18 0.06,0.07 0.13,0.1 0.23,0.1 0.08,0 0.13,-0.01 0.17,-0.05 0.05,-0.03 0.07,-0.08 0.07,-0.12 0,-0.05 -0.02,-0.08 -0.06,-0.12 -0.04,-0.03 -0.13,-0.07 -0.27,-0.1 -0.23,-0.05 -0.39,-0.12 -0.49,-0.2 -0.1,-0.09 -0.15,-0.2 -0.15,-0.33 0,-0.09 0.03,-0.17 0.08,-0.25 0.05,-0.07 0.12,-0.13 0.23,-0.18 0.1,-0.04 0.24,-0.06 0.41,-0.06 0.22,0 0.38,0.04 0.5,0.12 0.11,0.08 0.18,0.21 0.2,0.38l-0.49 0.03c-0.02,-0.08 -0.04,-0.13 -0.08,-0.17 -0.05,-0.03 -0.1,-0.05 -0.18,-0.05 -0.06,0 -0.11,0.01 -0.14,0.04 -0.03,0.02 -0.04,0.06 -0.04,0.09 0,0.03 0.01,0.05 0.04,0.08 0.02,0.02 0.08,0.04 0.17,0.06 0.23,0.05 0.39,0.1 0.49,0.15 0.1,0.05 0.17,0.11 0.22,0.19 0.04,0.07 0.06,0.15 0.06,0.25 0,0.1 -0.03,0.2 -0.09,0.3 -0.06,0.09 -0.14,0.16 -0.25,0.21 -0.11,0.04 -0.24,0.07 -0.4,0.07 -0.29,0 -0.49,-0.06 -0.6,-0.17 -0.11,-0.11 -0.18,-0.25 -0.19,-0.42z"/>
   <polygon id="7" class="fil0" points="15.58,17.12 16.11,17.12 16.11,18.82 15.58,18.82 "/>
   <path id="8" class="fil0" d="M16.82 17.97c0,-0.27 0.07,-0.49 0.23,-0.64 0.15,-0.16 0.37,-0.23 0.64,-0.23 0.28,0 0.5,0.07 0.65,0.22 0.15,0.15 0.23,0.37 0.23,0.64 0,0.2 -0.03,0.36 -0.1,0.48 -0.07,0.13 -0.16,0.23 -0.29,0.3 -0.12,0.07 -0.28,0.11 -0.47,0.11 -0.19,0 -0.35,-0.03 -0.47,-0.09 -0.13,-0.07 -0.23,-0.16 -0.31,-0.29 -0.08,-0.14 -0.11,-0.3 -0.11,-0.5zm0.52 0c0,0.17 0.03,0.3 0.09,0.37 0.07,0.08 0.15,0.11 0.26,0.11 0.12,0 0.2,-0.03 0.27,-0.11 0.06,-0.07 0.09,-0.2 0.09,-0.39 0,-0.16 -0.03,-0.28 -0.1,-0.35 -0.06,-0.07 -0.15,-0.11 -0.26,-0.11 -0.11,0 -0.19,0.04 -0.26,0.11 -0.06,0.08 -0.09,0.2 -0.09,0.37z"/>
   <polygon id="9" class="fil0" points="19.26,17.12 19.75,17.12 20.38,18.06 20.38,17.12 20.88,17.12 20.88,18.82 20.38,18.82 19.75,17.89 19.75,18.82 19.26,18.82 "/>
   <path class="fil1" d="M0.01 0.93c1.34,0.01 2.69,0 4.04,0.01 3.64,-0.01 7.28,0.01 10.93,-0.01l0.02 0c0.25,0.86 0.53,1.71 0.8,2.56 0.37,1.21 0.75,2.42 1.13,3.63 0.33,1.05 0.65,2.1 0.99,3.14 -0.01,0.01 -0.02,0.03 -0.03,0.04 -0.03,-0.01 -0.05,-0.01 -0.06,0.01 -0.11,0.05 -0.23,0.05 -0.34,0.05 -0.02,0 -0.04,0 -0.06,0.02 -0.08,0.04 -0.17,0.05 -0.25,0.07 -0.29,0.07 -0.57,0.18 -0.82,0.33 -0.05,0.04 -0.1,0.09 -0.14,0.15 -0.07,0.12 -0.08,0.26 -0.06,0.4 0.01,0.11 0.04,0.22 0.07,0.32 0.01,0.03 0.03,0.04 0.06,0.04 0.05,0.04 0.09,0.09 0.13,0.14 0.01,0.03 0.02,0.05 0.06,0.05l0.01 0c0.01,0.03 0.02,0.05 0.05,0.05 0.18,0.08 0.34,0.18 0.52,0.24 0.31,0.11 0.63,0.18 0.95,0.22 0.01,0.03 0.03,0.04 0.06,0.03 0.04,0 0.09,-0.01 0.13,-0.02 0.01,0.03 0.03,0.04 0.06,0.03 0.02,0 0.05,0 0.07,0 0.04,0.01 0.08,0.02 0.13,0.03 0.03,0.01 0.05,0 0.08,-0.02 0.03,0.04 0.09,0.03 0.14,0.01 0.04,0.01 0.09,0.01 0.14,0.01 0.11,0 0.23,0 0.35,0 0.05,0 0.09,0 0.14,0 0.04,0 0.08,0.01 0.12,-0.01 0.03,0.01 0.07,0.02 0.11,0 0.03,0 0.07,-0.01 0.11,-0.02 0.02,0 0.06,0 0.07,0 0.03,0.01 0.05,0.01 0.08,-0.01 0.36,-0.03 0.72,-0.11 1.06,-0.22 0.21,-0.07 0.39,-0.18 0.59,-0.26 0.03,-0.01 0.04,-0.03 0.05,-0.06l0.01 0c0.04,0 0.05,-0.02 0.05,-0.06 0.04,-0.04 0.09,-0.09 0.14,-0.13 0.03,0 0.05,-0.01 0.06,-0.04 0.03,-0.11 0.06,-0.21 0.07,-0.32 0.02,-0.14 0.01,-0.28 -0.06,-0.4 -0.04,-0.06 -0.09,-0.11 -0.14,-0.15 -0.35,-0.22 -0.75,-0.33 -1.15,-0.4 -0.13,-0.03 -0.26,-0.04 -0.39,-0.08 -0.02,-0.01 -0.04,-0.01 -0.06,-0.01 -0.02,0 -0.04,0 -0.06,-0.01 -0.02,0 -0.05,-0.01 -0.08,-0.01 -0.01,0 -0.04,0 -0.05,0 -0.05,0.01 -0.1,0 -0.15,-0.01 -0.03,-0.01 -0.06,-0.01 -0.08,-0.01 -0.03,0 -0.05,0 -0.07,0 -0.05,0 -0.09,0 -0.13,-0.01 -0.03,-0.01 -0.06,-0.02 -0.08,-0.01 -0.03,-0.01 -0.05,-0.01 -0.07,-0.01 -0.01,-0.01 -0.02,-0.03 -0.03,-0.04 0.12,-0.45 0.25,-0.89 0.45,-1.31 0.01,0 0.03,0.01 0.04,0.01 0.03,0.01 0.05,0.01 0.07,-0.02 0.68,-0.09 1.35,-0.31 1.93,-0.67 0.03,0 0.05,-0.02 0.06,-0.05l0.01 0c0.03,0 0.05,-0.02 0.06,-0.05 0.02,-0.02 0.04,-0.03 0.06,-0.04 0.03,-0.01 0.05,-0.03 0.04,-0.06 0.01,0 0.04,-0.01 0.05,-0.01 0.03,0 0.05,-0.02 0.06,-0.05 0.03,-0.03 0.06,-0.06 0.09,-0.09 0.02,-0.03 0.05,-0.07 0.08,-0.1 0.04,-0.04 0.08,-0.08 0.11,-0.11 0.04,-0.01 0.09,-0.03 0.09,-0.07 0,-0.01 0.01,-0.04 0.01,-0.05 0.03,0 0.05,-0.01 0.06,-0.04 0.02,-0.04 0.03,-0.08 0.05,-0.12 0.03,0 0.05,-0.01 0.07,-0.04 0.02,-0.05 0.05,-0.1 0.07,-0.15 0.33,-0.57 0.51,-1.21 0.62,-1.85 0.02,-0.02 0.03,-0.05 0.02,-0.08 0.05,-0.25 0.09,-0.49 0.11,-0.74 0.03,-0.02 0.04,-0.04 0.03,-0.07 0,-0.02 -0.01,-0.05 -0.01,-0.07 0.03,-0.01 0.04,-0.03 0.03,-0.07 0.01,-0.07 0.01,-0.15 0.02,-0.23 0.03,-0.02 0.03,-0.04 0.02,-0.08 0.17,-1.03 0.38,-2.08 0.84,-3.03 0.88,-0.01 1.76,0.01 2.64,-0.01 -0.4,1.08 -0.8,2.15 -1.2,3.23 -0.23,0.63 -0.47,1.25 -0.7,1.88 -0.88,2.38 -1.77,4.75 -2.65,7.13 -0.43,1.18 -0.88,2.35 -1.3,3.53 -1.77,0.01 -3.54,0.01 -5.3,0.01 -1.05,-2.77 -2.09,-5.54 -3.14,-8.3 -0.33,-0.89 -0.68,-1.76 -1,-2.65 -0.18,-0.47 -0.37,-0.94 -0.52,-1.41 -0.01,-0.01 -0.01,-0.03 -0.02,-0.04 -2.1,-0.01 -4.19,0 -6.29,0l0 0.02c-0.01,0.91 -0.01,1.82 0,2.74l0 0.02c2.03,0.01 4.07,0 6.11,0 -0.01,1.06 -0.01,2.12 0,3.17 -0.36,-0.01 -0.72,-0.01 -1.08,-0.01 -1.68,0 -3.35,0 -5.03,0l0 0.02c0,2.15 -0.02,4.29 0,6.43 -1.63,0.01 -3.26,0.01 -4.89,0 0.02,-5.25 0,-10.51 0.01,-15.77z"/>
   <polygon class="fil2" points="22.02,0.96 24.66,0.93 23.73,0.99 21.49,2.77 "/>
   <path class="fil3" d="M5.67 10.95c1.54,0 3.07,0 4.6,0 0,1.69 0,3.38 0,5.07 -1.53,-0.01 -3.06,-0.01 -4.6,-0.01 0,-1.68 0,-3.37 0,-5.06z"/>
   <g>
    <path class="fil4" d="M4.89 4.31c2.1,0 4.19,-0.01 6.29,0 0.01,0.01 0.01,0.03 0.02,0.04 -0.2,-0.02 -0.4,-0.02 -0.6,-0.02 -1.9,0 -3.8,0 -5.69,0l-0.02 0 0 -0.02z"/>
   </g>
   <g>
    <path class="fil5" d="M4.89 4.33l0.02 0c0,0.91 0,1.82 0,2.74l-0.02 0c-0.01,-0.92 -0.01,-1.83 0,-2.74z"/>
    <path class="fil5" d="M4.89 10.27l0.02 0c0,2.02 0,4.05 0,6.07 0,0.12 -0.01,0.25 -0.02,0.38l0 -0.02c-0.02,-2.14 0,-4.28 0,-6.43z"/>
   </g>
   <g>
    <path class="fil6" d="M15.99 0.83c0.04,-0.04 0.08,-0.09 0.13,-0.13 0.45,0.47 0.87,0.97 1.26,1.49 0.01,-0.07 0.07,-0.47 0.05,-0.5 0.02,-0.01 0.11,-0.06 0.14,-0.07 0.05,0.09 0.19,0.16 0.11,0.09 0,0.13 -0.17,0.64 -0.16,0.67 0.15,0.23 0.3,0.46 0.44,0.69 0.06,0.09 0.13,-0.58 0.13,-0.59 0.04,-0.02 0.14,-0.04 0.19,-0.06 0.04,0.2 -0.14,0.89 -0.14,0.9 0.09,0.22 0.15,0.35 0.28,0.54 0.01,0 0.02,0.04 0.03,0.04 0.04,-0.1 0.09,-0.35 0.12,-0.47 0.05,0.01 0.12,0.01 0.17,0.02 0.03,0.16 -0.13,0.68 -0.12,0.72 0.09,0.32 0.22,0.57 0.37,0.85 -0.05,0.02 -0.09,0.04 -0.13,0.06 -0.01,0.01 -0.03,0.02 -0.05,0.03 -0.09,-0.27 -0.22,-0.51 -0.36,-0.75 -0.07,-0.15 -0.13,-0.3 -0.2,-0.44 -0.06,0.02 -0.13,0.04 -0.2,0.02 -0.26,-0.08 -0.51,-0.17 -0.77,-0.25 0.02,-0.06 0.04,-0.11 0.05,-0.17 0.28,0.09 0.56,0.18 0.84,0.26 -0.17,-0.26 -0.28,-0.54 -0.47,-0.72 0,0 -0.77,-0.07 -0.84,-0.07 -0.34,-0.25 0.09,0.17 -0.14,-0.16 0.04,-0.02 0.18,-0.07 0.23,-0.08 0,0.02 0.61,0.12 0.62,0.11 0.01,0 0.03,0 0.04,-0.01 -0.15,-0.24 -0.31,-0.48 -0.49,-0.7 -0.06,-0.08 -0.14,-0.12 -0.22,-0.15 -0.21,-0.07 -0.41,-0.13 -0.61,-0.19 0.01,-0.06 0.03,-0.11 0.04,-0.17 0.17,0.05 0.35,0.1 0.52,0.16 -0.27,-0.34 -0.56,-0.67 -0.86,-0.97z"/>
    <path class="fil6" d="M22.43 2.85c0.36,-0.49 0.73,-0.97 1.13,-1.44 0.07,0.07 0.14,0.13 0.22,0.19 -0.44,0.52 -0.87,1.04 -1.24,1.61 -0.07,0.01 -0.04,0.09 0.01,0.04 0.25,-0.11 0.5,-0.21 0.76,-0.3 0.03,0.08 0.06,0.17 0.09,0.26 -0.35,0.14 -0.71,0.28 -1.07,0.42 -0.16,0.06 -0.24,0.24 -0.33,0.37 -0.2,0.35 -0.4,0.66 -0.58,1.01 -0.08,0.09 1.11,-0.18 1.14,-0.23 0.04,0.02 0.11,0.07 0.16,0.1 -0.03,0.02 -0.03,0.05 -0.01,0.07 0.01,0.01 0.02,0.04 0.03,0.05 -0.05,0.05 0.05,0.09 0,0.1 -0.04,-0.02 -1.39,0.29 -1.39,0.29 -0.09,-0.02 -0.15,-0.03 -0.19,0.07 -0.21,0.37 -0.37,0.76 -0.56,1.15 0.45,-0.17 0.88,-0.36 1.33,-0.52 0.03,0.08 0.07,0.16 0.08,0.25 -0.08,0.06 -0.17,0.09 -0.26,0.13 -0.39,0.14 -0.76,0.31 -1.15,0.44 -0.02,-0.05 -0.05,-0.1 -0.07,-0.14 -0.09,0.26 -0.3,0.5 -0.24,0.79 -0.07,0.04 -0.13,0.09 -0.16,0.16 -0.17,0.35 -0.27,0.73 -0.44,1.08 -0.08,-0.03 -0.16,-0.07 -0.24,-0.1 0.13,-0.37 0.27,-0.75 0.42,-1.12 0.04,-0.09 0.1,-0.2 0.07,-0.31 -0.09,-0.37 -0.2,-0.74 -0.29,-1.11 0.1,-0.02 0.19,-0.05 0.28,-0.07 0.07,0.26 0.14,0.51 0.19,0.78 -0.01,0.04 0.05,0.07 0.05,0.01 0.12,-0.34 0.33,-0.65 0.44,-1 -0.07,-0.47 -0.23,-0.91 -0.33,-1.38 0.06,-0.02 0.16,-0.05 0.21,-0.07 0.02,0 0.05,0.01 0.07,0.02 0.08,0.34 0.17,0.68 0.27,1.02 0.21,-0.38 0.42,-0.77 0.64,-1.14 0.04,-0.01 0.04,-0.06 0,-0.07 -0.09,-0.37 -0.18,-0.73 -0.28,-1.09 0.1,-0.03 0.19,-0.05 0.28,-0.08 0.08,0.29 0.15,0.57 0.22,0.85 0.25,-0.36 0.48,-0.73 0.74,-1.09z"/>
    <path class="fil7" d="M16.18 11.25c0,0.01 0.01,0.04 0.01,0.05 0,0.02 0.02,0.04 0.04,0.05 1.26,0.98 4.45,1 5.6,-0.09 0,0.02 0,0.05 0,0.07 -0.01,0.11 -0.04,0.21 -0.07,0.32 -0.03,0 -0.05,0.01 -0.06,0.04 -0.97,0.97 -4.51,1.05 -5.41,0 -0.01,-0.04 -0.03,-0.05 -0.06,-0.04 -0.03,-0.1 -0.06,-0.21 -0.07,-0.32 0,-0.02 0.02,-0.06 0.02,-0.08zm3.23 -2.46c0.01,-0.03 0.03,-0.06 0.04,-0.09 0.08,0.03 0.16,0.07 0.24,0.1 0.01,0.01 0.02,0.02 0.02,0.03 -0.01,0.01 -0.02,0.03 -0.03,0.04 -0.16,0.33 -0.6,1.67 -0.59,2.16 0,0.02 -0.01,0.06 -0.01,0.09 -0.02,-0.01 -0.05,-0.01 -0.07,-0.01 -0.01,0 -0.04,0 -0.06,-0.01 -0.01,0 -0.05,-0.01 -0.06,-0.01 -0.03,-0.01 -0.05,-0.01 -0.07,0.01 0.04,-0.75 0.28,-1.66 0.59,-2.31zm-4.07 -8.75c0,-0.01 0.01,-0.03 0.01,-0.04 0.07,0.05 0.15,0.09 0.21,0.16 0.01,0.02 0.03,0.03 0.05,0.03 0.12,0.06 0.22,0.15 0.33,0.21 1.2,0.84 3.02,1.61 3.16,3.3 -0.01,0.03 0,0.05 0.01,0.07 0.01,0.03 0.02,0.06 0.02,0.09 0,0.14 0,0.27 -0.01,0.41 0,0.03 0,0.05 0,0.07 -0.03,0.24 -0.07,0.49 -0.12,0.72 0,-0.01 -0.01,-0.03 -0.01,-0.04 -0.15,-0.28 -0.3,-0.57 -0.39,-0.88 0.03,-0.01 0.04,-0.03 0.04,-0.06 -0.02,-0.15 0.11,-0.4 0.07,-0.62 -0.05,-0.01 -0.09,-0.02 -0.14,-0.03 -0.05,0.2 -0.06,0.2 -0.07,0.42 -0.03,0.01 -0.04,0.02 -0.04,0.06 0,-0.01 -0.01,-0.01 -0.01,-0.01 -0.14,-0.19 -0.24,-0.41 -0.33,-0.62 0.03,-0.01 0.04,-0.03 0.03,-0.06 -0.01,-0.05 0.1,-0.58 0.13,-0.71 0.01,-0.03 -0.01,-0.09 -0.06,-0.07 -0.05,0.01 -0.09,0.02 -0.13,0.04 -0.02,0.01 -0.08,0.47 -0.08,0.53 -0.02,0.02 -0.04,0.04 -0.05,0.06 -0.14,-0.23 -0.29,-0.46 -0.44,-0.69 0.03,-0.02 0.03,-0.04 0.02,-0.07 0.02,-0.13 0.11,-0.46 0.09,-0.56 0.04,-0.01 0.04,-0.06 0,-0.07 0,0 -0.01,0 -0.02,-0.01 -0.02,-0.02 -0.04,-0.03 -0.07,-0.01 -0.02,0.01 -0.05,0.02 -0.07,0.04 -0.03,0.02 -0.04,0.04 -0.02,0.07 -0.02,0.13 -0.05,0.29 -0.07,0.42 -0.39,-0.52 -0.81,-1.02 -1.26,-1.49 -0.05,0.04 -0.09,0.09 -0.13,0.13 0.3,0.3 0.59,0.63 0.86,0.97 -0.17,-0.06 -0.35,-0.11 -0.52,-0.16 -0.01,0.06 -0.03,0.11 -0.04,0.17 0.2,0.06 0.4,0.12 0.61,0.19 0.08,0.03 0.16,0.07 0.22,0.15 0.18,0.22 0.34,0.46 0.49,0.7 -0.01,0.01 -0.03,0.01 -0.04,0.01 -0.01,-0.01 -0.63,-0.09 -0.63,-0.09 -0.05,0.01 -0.1,0.03 -0.15,0.05 -0.03,0.01 -0.03,0.06 -0.01,0.08 0.01,0.01 0.03,0.03 0.04,0.04 0.02,0.04 0.06,0.02 0.09,0.01 0.03,0.01 0.06,0.01 0.09,0.01 0.03,0.03 0.47,0.07 0.54,0.08 0.03,0.01 0.08,0.02 0.1,-0.01 0.27,0.16 0.36,0.49 0.53,0.75 -0.28,-0.08 -0.56,-0.17 -0.84,-0.26 -0.01,0.06 -0.03,0.11 -0.05,0.17 0.26,0.08 0.51,0.17 0.77,0.25 0.07,0.02 0.14,0 0.2,-0.02 0.07,0.14 0.13,0.29 0.2,0.44 0.14,0.24 0.27,0.48 0.36,0.75 0.01,0.01 0.01,0.03 0.02,0.04 -0.04,-0.01 -0.07,-0.02 -0.11,-0.02 -0.02,-0.02 -0.04,-0.02 -0.07,-0.02 -0.01,0.01 -0.04,0.01 -0.05,0.01 -0.29,-0.02 -0.56,-0.1 -0.83,-0.21 -0.17,-0.07 -0.35,-0.15 -0.48,-0.29 -0.01,-0.03 -0.04,-0.05 -0.06,-0.06 -0.08,-0.06 -0.15,-0.11 -0.2,-0.19 -0.02,-0.02 -0.04,-0.05 -0.06,-0.07 0,-0.01 0,-0.01 0,-0.02 -0.01,-0.02 -0.02,-0.04 -0.04,-0.05 -0.18,-0.22 -0.29,-0.48 -0.38,-0.75 -0.17,-0.55 -0.27,-1.1 -0.43,-1.66 -0.15,-0.61 -0.4,-1.2 -0.74,-1.73 -0.01,-0.02 -0.02,-0.03 -0.05,-0.03 0,0 0.01,-0.01 0.01,-0.02zm9.36 0.15c0.05,-0.04 0.1,-0.09 0.16,-0.14 -0.81,1.37 -1.05,2.25 -1.33,3.92 -0.02,0.03 -0.03,0.05 -0.02,0.08 -0.15,1.31 -0.55,3.33 -1.66,4.04 -0.03,0 -0.05,0.02 -0.06,0.05 0,0 -0.01,0 -0.01,0 -0.04,0 -0.06,0.02 -0.06,0.05 -0.58,0.36 -1.25,0.58 -1.93,0.67 -0.01,0 -0.05,0.01 -0.06,0.01 -0.01,-0.01 -0.02,-0.03 -0.02,-0.04 0,-0.01 -0.01,-0.02 -0.02,-0.03 0.17,-0.35 0.27,-0.73 0.44,-1.08 0.03,-0.07 0.09,-0.12 0.16,-0.16 -0.06,-0.29 0.15,-0.53 0.24,-0.79 0.02,0.04 0.05,0.09 0.07,0.14 0.39,-0.13 0.76,-0.3 1.15,-0.44 0.09,-0.04 0.18,-0.07 0.26,-0.13 -0.01,-0.09 -0.05,-0.17 -0.08,-0.25 -0.45,0.16 -0.88,0.35 -1.33,0.52 0.19,-0.39 0.35,-0.78 0.56,-1.15 0.03,-0.07 0.1,-0.09 0.17,-0.1 0.03,0.02 0.05,0.01 0.07,-0.02 0.01,0 0.04,0.01 0.05,0.01 0.03,0.01 0.05,0 0.06,-0.03 0.08,0.02 0.74,-0.14 0.84,-0.16 0.04,0.01 0.06,0 0.07,-0.03 0.01,0.01 0.04,0.01 0.05,0.01 0.03,0.01 0.05,0 0.06,-0.03 0.01,0.01 0.04,0.01 0.05,0.02 0.03,0 0.06,-0.01 0.07,-0.03 0.01,-0.01 0.04,-0.01 0.05,-0.01 0.05,0 0.07,-0.06 0.04,-0.09 -0.01,-0.01 -0.02,-0.04 -0.03,-0.05 0.03,-0.02 0.03,-0.05 0.01,-0.07 -0.05,-0.03 -0.09,-0.05 -0.14,-0.07 -0.03,-0.02 -0.05,-0.01 -0.06,0.02 -0.08,0.02 -1.02,0.19 -1.02,0.22 -0.02,0 -0.05,-0.01 -0.07,-0.01 0,0 -0.02,0 -0.03,0 0.18,-0.36 0.4,-0.69 0.6,-1.04 0.09,-0.13 0.17,-0.31 0.33,-0.37 0.36,-0.14 0.72,-0.28 1.07,-0.42 -0.03,-0.09 -0.06,-0.18 -0.09,-0.26 -0.26,0.09 -0.51,0.19 -0.76,0.3 0,-0.01 -0.01,-0.03 -0.01,-0.04 0.37,-0.57 0.8,-1.09 1.24,-1.61 -0.08,-0.06 -0.15,-0.12 -0.22,-0.19 -0.4,0.47 -0.77,0.95 -1.13,1.44 -0.26,0.36 -0.49,0.73 -0.74,1.09 -0.07,-0.28 -0.14,-0.56 -0.22,-0.85 -0.09,0.03 -0.18,0.05 -0.28,0.08 0.1,0.36 0.19,0.72 0.28,1.09 0,0.01 0,0.05 0,0.07 -0.22,0.37 -0.43,0.76 -0.64,1.14 -0.1,-0.34 -0.19,-0.68 -0.27,-1.02 0,-0.04 -0.05,-0.05 -0.07,-0.02 -0.05,0.02 -0.15,0.05 -0.21,0.07 0.1,0.47 0.26,0.91 0.33,1.38 -0.11,0.35 -0.32,0.66 -0.44,1 -0.01,0 -0.04,-0.01 -0.05,-0.01 -0.05,-0.27 -0.12,-0.52 -0.19,-0.78 -0.09,0.02 -0.18,0.05 -0.28,0.07 0.09,0.37 0.2,0.74 0.29,1.11 0.03,0.11 -0.03,0.22 -0.07,0.31 -0.15,0.37 -0.29,0.75 -0.42,1.12 -0.01,0.03 -0.03,0.06 -0.04,0.09 -0.06,-0.29 -0.19,-0.57 -0.22,-0.87 0.01,-0.02 0,-0.04 -0.01,-0.06 -0.05,-0.11 -0.05,-0.24 -0.06,-0.36 0,-0.03 0,-0.07 -0.01,-0.1 0,-0.02 -0.01,-0.07 -0.01,-0.1 0,-0.01 0,-0.04 0,-0.05 0,-0.03 0,-0.05 0,-0.08 0,-0.02 0,-0.04 -0.01,-0.06 -0.03,-0.18 -0.02,-0.37 0,-0.54 0.01,-0.04 0.01,-0.07 0.01,-0.1 0,-0.02 0,-0.04 0,-0.06 0,-0.02 0.01,-0.06 0.01,-0.09 0.01,-0.02 0.02,-0.04 0.01,-0.06 0,-0.08 0.01,-0.16 0.04,-0.24 0.01,-0.02 0.01,-0.04 0.01,-0.06 0,-0.01 0,-0.03 0,-0.04 0.02,-0.1 0.05,-0.19 0.07,-0.29 0.38,-1.22 0.83,-1.53 1.63,-2.46 0.06,-0.06 0.11,-0.11 0.18,-0.17 0.04,-0.03 0.08,-0.07 0.12,-0.11 0.03,-0.02 0.05,-0.04 0.07,-0.05 0.76,-0.52 3.14,-2.36 3.18,-2.4 0.03,-0.03 0.06,-0.06 0.1,-0.09 0.03,-0.02 0.06,-0.05 0.08,-0.07 0.03,-0.03 0.06,-0.06 0.1,-0.09z"/>
   </g>
   <g>
    <path class="fil3" d="M25.6 7.44c0.67,0 1.34,-0.01 2.01,0 -0.02,0.02 -0.02,0.04 -0.01,0.07 0.02,0.04 0.02,0.08 0.02,0.13 0,0.03 0,0.06 0.01,0.09 0.01,0.05 0.01,0.09 0.02,0.14 0,0.03 0,0.08 0,0.11 0.02,0.16 0.04,0.31 0.04,0.47 0,0.03 0.01,0.08 0.01,0.11 0,0.05 0.01,0.15 0.01,0.2 0,0.04 0.01,0.08 0.01,0.13 0.01,0.06 0.02,0.11 0.02,0.17 0,0.04 0,0.09 0.01,0.13 0,0.05 0.01,0.15 0.01,0.19 0,0.05 0,0.09 0.01,0.14 0.02,0.16 0.03,0.32 0.04,0.48 -0.74,-0.01 -1.47,-0.01 -2.21,0 0,-0.85 0,-1.71 0,-2.56zm4.49 0c0.47,0 0.94,0 1.41,0 0.23,0.59 0.45,1.19 0.51,1.82 0,0.03 0,0.05 0.01,0.08 0.05,0.21 0.05,0.44 0.06,0.65 -0.51,0.01 -1.01,-0.01 -1.52,0.01 -0.01,-0.13 -0.02,-0.26 -0.02,-0.39 -0.01,-0.07 0,-0.14 -0.01,-0.2 0,-0.27 -0.07,-0.53 -0.09,-0.79 0,-0.02 0,-0.05 -0.02,-0.06 -0.1,-0.38 -0.18,-0.76 -0.33,-1.12zm1.74 0c0.27,0 0.53,0 0.8,0 0.16,0.4 0.33,0.79 0.43,1.21 0.02,0.09 0.05,0.18 0.04,0.28 0,0.02 0,0.05 0.01,0.07 0.05,0.17 0.05,0.35 0.06,0.52 0,0.05 0,0.09 0.01,0.13 0.01,0.12 0.02,0.23 0.03,0.34 -0.27,0 -0.53,0 -0.8,0 -0.01,-0.06 -0.01,-0.12 -0.02,-0.19 0,-0.08 0,-0.16 -0.01,-0.24 0,-0.04 0,-0.09 0,-0.13 -0.07,-0.69 -0.25,-1.37 -0.55,-1.99zm-6.23 6.15c0.63,0.02 1.27,-0.03 1.9,0.03 -0.12,0.57 -0.27,1.12 -0.38,1.69 -0.51,0.01 -1.01,0 -1.52,0.01 0,-0.58 0,-1.15 0,-1.73zm-3.3 2.05c0.34,0 0.68,0 1.02,0 0.28,0.69 0.6,1.37 1.01,2 -0.06,-0.01 -0.12,-0.03 -0.17,-0.04 -0.03,-0.01 -0.06,-0.01 -0.08,-0.01 -0.02,0 -0.06,-0.01 -0.08,-0.01 -0.02,-0.01 -0.04,-0.02 -0.06,-0.02 -0.07,-0.02 -0.12,-0.07 -0.17,-0.11 -0.38,-0.34 -0.73,-0.72 -1.02,-1.14 -0.01,-0.02 -0.02,-0.04 -0.04,-0.05 -0.16,-0.19 -0.28,-0.41 -0.41,-0.62zm11.65 -5.32l0.01 0c0.01,0.03 0.01,0.07 0,0.1 -0.04,0 -0.04,-0.08 -0.01,-0.1zm-12.15 6.52c0.24,0.17 0.48,0.35 0.72,0.53 -0.27,-0.08 -0.53,-0.2 -0.78,-0.32 0.02,-0.07 0.04,-0.14 0.06,-0.21zm2.17 1.91c0.01,0.03 0.03,0.06 0.04,0.09 -0.05,0.03 -0.09,-0.06 -0.04,-0.09zm-1.14 -4.64c0.01,0 0.02,-0.01 0.03,-0.02 0.09,0.42 0.21,0.83 0.33,1.23 -0.27,-0.01 -0.55,-0.01 -0.82,0 0.12,-0.31 0.23,-0.63 0.35,-0.94 0.03,-0.09 0.05,-0.18 0.11,-0.27zm0.34 -0.49c0.63,-0.06 1.27,-0.01 1.9,-0.02 -0.01,0.57 -0.01,1.14 0.01,1.71 -0.51,0.01 -1.02,0 -1.53,0 -0.1,-0.57 -0.26,-1.12 -0.38,-1.69zm7.4 -8.34c0.23,0 0.46,-0.01 0.69,-0.01 0.15,0.15 0.3,0.31 0.4,0.5 0.01,0.02 0.02,0.04 0.04,0.05 0.27,0.37 0.48,0.77 0.68,1.18 -0.25,0 -0.51,-0.01 -0.77,-0.01 -0.13,-0.43 -0.38,-0.8 -0.62,-1.18 0,-0.02 -0.02,-0.04 -0.04,-0.05 -0.04,-0.04 -0.07,-0.09 -0.1,-0.14 -0.02,-0.03 -0.05,-0.06 -0.08,-0.09 -0.02,-0.02 -0.04,-0.04 -0.06,-0.06 -0.04,-0.07 -0.09,-0.13 -0.14,-0.19zm-4.98 5.3c0.74,-0.01 1.48,0 2.22,0 0,0.16 0,0.32 -0.01,0.48 0,0.06 0,0.13 0,0.19 -0.01,0.12 -0.02,0.23 -0.03,0.34 -0.01,0.04 -0.01,0.09 -0.01,0.13 0,0.06 -0.01,0.12 -0.01,0.17 0,0.03 -0.01,0.09 -0.01,0.11 0,0.06 -0.01,0.11 -0.02,0.16 0,0.04 -0.01,0.07 -0.01,0.1 0,0.04 0,0.08 -0.01,0.11 -0.01,0.03 -0.01,0.07 -0.01,0.1 0,0.04 0,0.07 -0.01,0.11 -0.01,0.02 -0.01,0.05 -0.01,0.08 -0.01,0.09 -0.01,0.19 -0.04,0.29 -0.01,0.02 -0.02,0.04 -0.01,0.06 0,0.04 0.01,0.11 0.02,0.14 -0.68,0 -1.36,0.01 -2.04,0 0,-0.86 0.01,-1.71 -0.01,-2.57zm1.61 -7.45c0.01,-0.02 0.03,-0.03 0.05,-0.05 0.02,0.01 0.05,0.02 0.07,0.03 0.02,0.01 0.04,0.02 0.07,0.01 0.02,0 0.05,0.01 0.07,0.01 0.02,0.01 0.04,0.02 0.07,0.01 0.14,0 0.25,0.11 0.37,0.17 0.69,0.46 1.35,0.99 1.89,1.63 -0.33,-0.01 -0.65,-0.01 -0.98,0 -0.08,-0.07 -0.13,-0.16 -0.19,-0.24 -0.02,-0.03 -0.04,-0.05 -0.06,-0.07 -0.19,-0.23 -0.37,-0.47 -0.57,-0.69 -0.03,-0.05 -0.07,-0.09 -0.11,-0.13 -0.22,-0.24 -0.43,-0.48 -0.68,-0.68zm-3.48 12.51c0.45,0 0.89,0.01 1.34,-0.01 0.01,0.68 0.01,1.36 0,2.05 -0.04,-0.01 -0.13,-0.01 -0.17,-0.02 -0.12,-0.02 -0.22,-0.07 -0.31,-0.14 -0.36,-0.59 -0.61,-1.24 -0.86,-1.88zm2.83 -11.55c0.01,-0.01 0.02,-0.03 0.02,-0.05 0.12,0.29 0.26,0.59 0.37,0.89 -0.24,0 -0.48,0 -0.72,0.01 0.11,-0.28 0.19,-0.57 0.33,-0.85zm3.67 11.61c0.05,-0.04 0.09,-0.08 0.17,-0.06 0.17,-0.01 0.34,0 0.51,0 -0.2,0.19 -0.4,0.38 -0.63,0.53 -0.02,0.01 -0.04,0.02 -0.05,0.04 -0.12,0.11 -0.25,0.21 -0.39,0.29 -0.02,0 -0.04,0.01 -0.05,0.03 -0.05,0.05 -0.1,0.08 -0.16,0.11 -0.02,0 -0.04,0.01 -0.05,0.03 -0.42,0.28 -0.88,0.49 -1.34,0.67 0,-0.01 0.02,-0.03 0.02,-0.04 0.01,-0.01 0.03,-0.03 0.04,-0.04 0.67,-0.49 1.31,-1.01 1.93,-1.56zm1.4 -2.1c0.25,0 0.5,0 0.76,0 -0.25,0.53 -0.56,1.04 -0.92,1.51 -0.06,0.07 -0.12,0.16 -0.2,0.21 -0.24,0 -0.47,0 -0.71,-0.01 0.01,-0.02 0.03,-0.04 0.05,-0.06 0.43,-0.49 0.78,-1.04 1.02,-1.65zm-3.69 -0.01c0.53,0.01 1.06,0.01 1.58,0 -0.16,0.61 -0.47,1.17 -0.79,1.71 -0.41,0.02 -0.82,0.03 -1.23,-0.02 0.19,-0.55 0.31,-1.12 0.44,-1.69zm-2.87 -5.51c0.02,0.64 0,1.28 0.01,1.91 -0.24,0 -0.49,0 -0.73,0.01 0.24,-0.64 0.47,-1.28 0.72,-1.92zm4.87 5.51c0.44,0.01 0.89,0.01 1.33,0.01 -0.25,0.63 -0.68,1.18 -1.09,1.72 -0.36,-0.01 -0.72,-0.01 -1.08,-0.01 0.32,-0.55 0.64,-1.11 0.84,-1.72zm-0.83 -8.31c0.35,0 0.7,0 1.05,-0.01 0.15,0.15 0.29,0.32 0.4,0.5 0,0.02 0.02,0.04 0.04,0.05 0.27,0.36 0.51,0.76 0.68,1.19 -0.45,-0.02 -0.89,-0.02 -1.34,0 -0.18,-0.62 -0.5,-1.18 -0.83,-1.73zm-3.51 10.37c0.45,-0.02 0.91,-0.01 1.36,-0.01 -0.18,0.48 -0.38,0.95 -0.59,1.41 -0.09,0.19 -0.19,0.39 -0.35,0.54 -0.07,0.03 -0.15,0.05 -0.23,0.06 -0.06,0.01 -0.12,0.01 -0.19,0.01 0.02,-0.67 0.02,-1.34 0,-2.01zm2.45 -8.18c0.53,-0.01 1.07,0 1.6,-0.02 0.24,0.62 0.42,1.27 0.47,1.93 -0.01,0.03 0,0.06 0.01,0.09 0.01,0.07 0.01,0.13 0.02,0.2 -0.01,0.1 -0.01,0.21 -0.01,0.32 -0.59,0.01 -1.17,0.01 -1.76,0 -0.01,-0.05 -0.01,-0.11 -0.02,-0.17 -0.01,-0.15 -0.03,-0.31 -0.03,-0.46 0,-0.04 0,-0.07 -0.01,-0.1 -0.02,-0.11 -0.04,-0.23 -0.04,-0.34 0.01,-0.03 0,-0.06 -0.01,-0.08 -0.01,-0.04 -0.01,-0.09 -0.01,-0.13 0,-0.03 0,-0.06 -0.01,-0.08 0,-0.02 -0.01,-0.06 -0.01,-0.08 0,-0.03 0,-0.06 -0.01,-0.08 -0.02,-0.07 -0.04,-0.15 -0.04,-0.22 0.01,-0.02 0,-0.05 -0.01,-0.07 -0.03,-0.08 -0.04,-0.17 -0.03,-0.26 0,-0.02 0,-0.04 -0.02,-0.06 -0.02,-0.07 -0.04,-0.14 -0.03,-0.22 0,-0.02 0,-0.04 -0.01,-0.06 -0.01,-0.04 -0.03,-0.07 -0.04,-0.11zm-3.91 3.11c0.31,-0.01 0.63,-0.01 0.95,0 -0.02,0.86 -0.01,1.72 -0.01,2.57 -0.63,-0.01 -1.27,0.03 -1.9,-0.02 0.33,-0.85 0.64,-1.7 0.96,-2.55zm3.35 -5.31c0.41,0.01 0.83,0.01 1.24,0.02 0.17,0.35 0.39,0.68 0.54,1.04 0.09,0.21 0.18,0.43 0.26,0.64 -0.53,0.06 -1.06,0.01 -1.59,0.04 -0.13,-0.59 -0.28,-1.16 -0.45,-1.74zm1.31 10.37c0.34,0 0.68,0 1.02,0 -0.21,0.24 -0.41,0.49 -0.66,0.7 -0.03,0.01 -0.05,0.03 -0.07,0.06 -0.18,0.17 -0.38,0.32 -0.57,0.47 -0.1,0.07 -0.19,0.16 -0.31,0.21 -0.02,0 -0.04,0.02 -0.05,0.04 -0.23,0.17 -0.48,0.37 -0.79,0.35 -0.02,0 -0.04,0 -0.06,0.01 -0.06,0.02 -0.11,0.03 -0.17,0.04 0.47,-0.37 0.87,-0.81 1.23,-1.29 0.05,-0.06 0.09,-0.13 0.15,-0.19 0.02,-0.01 0.04,-0.03 0.04,-0.05 0.01,-0.01 0.02,-0.03 0.03,-0.05 0.02,-0.01 0.04,-0.02 0.04,-0.04 0.05,-0.09 0.11,-0.17 0.17,-0.26zm1.76 -5.06c0.51,-0.01 1.02,-0.01 1.54,0 -0.01,0.1 -0.01,0.21 -0.02,0.31 -0.01,0.05 -0.01,0.09 -0.01,0.14 0,0.04 -0.01,0.09 -0.02,0.13 0,0.03 -0.01,0.05 -0.01,0.08 -0.06,0.66 -0.29,1.3 -0.53,1.91 -0.47,0 -0.94,0 -1.41,0 0.18,-0.54 0.29,-1.11 0.4,-1.67 0.02,-0.02 0.02,-0.04 0.02,-0.06 -0.01,-0.04 0,-0.08 0.01,-0.11 0,-0.03 0.01,-0.06 0.01,-0.1 0,-0.04 0,-0.09 0.01,-0.14 0,-0.04 0.01,-0.09 0.01,-0.13 0,-0.12 0,-0.24 0,-0.36zm-2.21 0c0.6,0 1.2,-0.01 1.8,0 0,0.12 0,0.23 -0.01,0.35 0,0.06 -0.01,0.13 -0.01,0.2 0,0.02 -0.01,0.08 -0.01,0.11 0,0.04 -0.01,0.09 -0.02,0.13 -0.01,0.03 -0.01,0.05 -0.01,0.08 0,0.02 -0.01,0.06 -0.01,0.08 -0.01,0.03 -0.01,0.06 -0.01,0.08 -0.06,0.53 -0.22,1.05 -0.42,1.54 -0.54,0.01 -1.07,0 -1.6,0 0.01,-0.05 0.02,-0.11 0.04,-0.16 0.01,-0.02 0.01,-0.04 0.01,-0.07 0,-0.17 0.03,-0.35 0.08,-0.51 0.01,-0.03 0.02,-0.06 0.01,-0.08 0.02,-0.38 0.1,-0.75 0.13,-1.12 0,-0.03 0.01,-0.08 0.01,-0.11 0.01,-0.05 0.01,-0.14 0.02,-0.19 0,-0.03 0,-0.08 0,-0.11 0,-0.08 0,-0.15 0,-0.22zm-1.45 -7.44c0.57,0.53 1.06,1.13 1.46,1.8 -0.33,-0.01 -0.67,-0.01 -1,0 -0.15,-0.42 -0.34,-0.82 -0.55,-1.21 -0.12,-0.2 0.03,-0.4 0.09,-0.59zm0.43 12.52c0.35,-0.03 0.7,-0.02 1.05,-0.03 -0.09,0.15 -0.17,0.31 -0.29,0.44 -0.03,0.01 -0.04,0.03 -0.04,0.05 -0.04,0.1 -0.11,0.17 -0.17,0.26 -0.31,0.39 -0.63,0.77 -1.01,1.1 -0.04,0.03 -0.08,0.07 -0.13,0.08 -0.02,0 -0.04,0 -0.06,0.02 -0.08,0.02 -0.16,0.03 -0.24,0.04 -0.01,-0.01 -0.03,-0.03 -0.05,-0.05 0.28,-0.4 0.48,-0.84 0.69,-1.28 0.09,-0.2 0.19,-0.41 0.25,-0.63zm-1.22 -10.38c0.33,0 0.67,0 1,-0.01 0.16,0.57 0.27,1.16 0.4,1.74 -0.63,-0.02 -1.27,-0.01 -1.9,-0.01 0,-0.12 -0.01,-0.25 0,-0.37 0.01,-0.04 0.02,-0.09 0.04,-0.13 0.16,-0.4 0.3,-0.82 0.46,-1.22zm6.3 5.3c0.27,-0.01 0.54,-0.01 0.81,0 -0.01,0.11 0,0.22 -0.01,0.33 0,0.04 -0.01,0.13 -0.02,0.17 0,0.03 0,0.08 -0.01,0.11 0,0.05 0,0.09 -0.01,0.13 -0.01,0.03 -0.01,0.06 -0.01,0.09 0,0.01 -0.01,0.05 -0.01,0.07 -0.01,0.02 -0.02,0.04 -0.01,0.07 -0.06,0.56 -0.29,1.08 -0.5,1.6 -0.27,0 -0.53,0.01 -0.8,0 0.15,-0.36 0.31,-0.72 0.39,-1.11 0.02,-0.08 0.03,-0.16 0.06,-0.24 0.01,-0.02 0.02,-0.04 0.01,-0.06 0.01,-0.01 0.01,-0.04 0.01,-0.05 0.02,-0.02 0.02,-0.04 0.02,-0.06 -0.01,-0.17 0.03,-0.33 0.05,-0.49 0.01,-0.04 0.01,-0.09 0.02,-0.13 0,-0.04 0,-0.13 0,-0.17 0,-0.09 0.01,-0.17 0.01,-0.26zm-10.52 6.1c0.06,-0.24 0.15,-0.46 0.25,-0.68 0.4,0.56 0.85,1.08 1.39,1.52 -0.11,-0.02 -0.23,-0.03 -0.33,-0.06 -0.03,-0.01 -0.05,-0.01 -0.07,-0.01 -0.14,0 -0.25,-0.11 -0.37,-0.17 -0.19,-0.13 -0.4,-0.24 -0.58,-0.4 -0.01,-0.02 -0.03,-0.03 -0.05,-0.04 -0.08,-0.05 -0.16,-0.11 -0.24,-0.16zm6.29 -13.44c0.58,0.18 1.11,0.47 1.61,0.82 0.01,0.02 0.03,0.03 0.05,0.03 0.04,0.02 0.08,0.05 0.11,0.08 0.01,0.02 0.03,0.04 0.05,0.04 0.31,0.2 0.57,0.46 0.87,0.67 0,0.01 0,0.04 0.01,0.05 -0.21,0 -0.42,0 -0.63,-0.01 -0.2,-0.23 -0.44,-0.44 -0.66,-0.65 -0.02,-0.02 -0.05,-0.04 -0.07,-0.06 -0.11,-0.08 -0.23,-0.16 -0.33,-0.26 -0.01,-0.02 -0.02,-0.04 -0.05,-0.04 -0.32,-0.23 -0.64,-0.45 -0.96,-0.67z"/>
    <polygon class="fil8" points="32.98,2.05 32.98,1.2 32.68,1.2 32.68,1.03 33.49,1.03 33.49,1.2 33.19,1.2 33.19,2.05 "/>
    <polygon id="1" class="fil8" points="33.62,2.05 33.62,1.03 33.93,1.03 34.11,1.73 34.29,1.03 34.6,1.03 34.6,2.05 34.41,2.05 34.41,1.25 34.21,2.05 34.01,2.05 33.81,1.25 33.81,2.05 "/>
    <polygon class="fil9" points="27.51,2.51 27.72,1.81 27.47,1.74 27.51,1.6 28.18,1.8 28.13,1.94 27.89,1.87 27.68,2.56 "/>
    <polygon id="1" class="fil9" points="28.01,2.66 28.23,2.06 28.35,2.1 28.26,2.34 28.5,2.42 28.59,2.18 28.71,2.23 28.5,2.83 28.38,2.79 28.47,2.52 28.23,2.44 28.14,2.7 "/>
    <polygon id="2" class="fil9" points="28.62,2.88 28.89,2.3 29.32,2.5 29.27,2.6 28.96,2.45 28.9,2.58 29.19,2.72 29.15,2.81 28.86,2.68 28.78,2.84 29.11,2.99 29.06,3.09 "/>
    <path id="3" class="fil9" d="M29.85 2.49l0.15 0.09 -0.24 0.41c-0.03,0.07 -0.06,0.11 -0.06,0.13 -0.01,0.04 -0.01,0.07 0,0.1 0.01,0.03 0.04,0.06 0.08,0.09 0.05,0.02 0.09,0.03 0.12,0.03 0.03,-0.01 0.06,-0.02 0.08,-0.04 0.01,-0.03 0.04,-0.07 0.08,-0.13l0.24 -0.42 0.15 0.09 -0.23 0.4c-0.05,0.09 -0.09,0.15 -0.12,0.18 -0.03,0.04 -0.07,0.06 -0.1,0.07 -0.04,0.01 -0.08,0.02 -0.13,0.01 -0.04,0 -0.1,-0.02 -0.16,-0.06 -0.07,-0.04 -0.12,-0.08 -0.15,-0.12 -0.02,-0.04 -0.04,-0.08 -0.05,-0.11 0,-0.04 0,-0.08 0.01,-0.11 0.01,-0.05 0.05,-0.12 0.09,-0.2l0.24 -0.41z"/>
    <polygon id="4" class="fil9" points="30.15,3.68 30.52,3.16 30.62,3.24 30.31,3.67 30.57,3.85 30.51,3.94 "/>
    <polygon id="5" class="fil9" points="30.65,4.05 30.98,3.63 30.83,3.51 30.9,3.43 31.3,3.74 31.23,3.83 31.08,3.71 30.75,4.13 "/>
    <polygon id="6" class="fil9" points="30.96,4.29 31.38,3.8 31.48,3.88 31.06,4.37 "/>
    <polygon id="7" class="fil9" points="31.16,4.45 31.6,3.98 31.74,4.12 31.52,4.51 31.91,4.27 32.05,4.41 31.61,4.87 31.52,4.79 31.87,4.42 31.43,4.7 31.34,4.62 31.59,4.17 31.25,4.53 "/>
    <path id="8" class="fil9" d="M32.08 5.4l-0.09 -0.11 0.07 -0.13 -0.17 -0.2 -0.14 0.06 -0.09 -0.1 0.65 -0.24 0.08 0.11 -0.31 0.61zm0.04 -0.35l0.12 -0.22 -0.24 0.09 0.12 0.13z"/>
    <polygon id="9" class="fil9" points="32.17,5.51 32.59,5.18 32.47,5.03 32.55,4.96 32.87,5.36 32.79,5.43 32.67,5.28 32.25,5.61 "/>
    <polygon id="10" class="fil9" points="32.41,5.83 32.93,5.46 33.21,5.85 33.12,5.91 32.92,5.63 32.8,5.71 32.99,5.97 32.9,6.03 32.72,5.77 32.57,5.87 32.78,6.16 32.69,6.22 "/>
    <polygon id="11" class="fil9" points="32.93,6.64 33.71,6.25 33.97,6.79 33.84,6.85 33.66,6.48 33.47,6.57 33.63,6.89 33.5,6.96 33.34,6.63 33.01,6.79 "/>
    <path id="12" class="fil9" d="M33.54 7.15c0.06,-0.03 0.11,-0.04 0.16,-0.03 0.04,0 0.07,0.01 0.11,0.02 0.03,0.02 0.06,0.04 0.08,0.06 0.03,0.03 0.05,0.07 0.07,0.12 0.03,0.09 0.03,0.17 0,0.24 -0.04,0.07 -0.1,0.13 -0.2,0.17 -0.1,0.03 -0.18,0.03 -0.26,0 -0.07,-0.03 -0.13,-0.09 -0.16,-0.18 -0.03,-0.09 -0.03,-0.17 0,-0.24 0.04,-0.07 0.1,-0.13 0.2,-0.16zm0.05 0.12c-0.07,0.02 -0.11,0.06 -0.14,0.1 -0.02,0.05 -0.02,0.09 0,0.14 0.01,0.05 0.05,0.08 0.09,0.1 0.05,0.02 0.11,0.02 0.18,-0.01 0.06,-0.03 0.11,-0.06 0.13,-0.1 0.02,-0.05 0.03,-0.09 0.01,-0.14 -0.02,-0.05 -0.05,-0.08 -0.1,-0.1 -0.04,-0.02 -0.1,-0.02 -0.17,0.01z"/>
    <path id="13" class="fil9" d="M33.78 7.82c0.06,-0.02 0.12,-0.03 0.17,-0.02 0.03,0 0.07,0.01 0.1,0.03 0.03,0.01 0.06,0.03 0.08,0.06 0.03,0.03 0.05,0.07 0.06,0.12 0.03,0.09 0.03,0.17 -0.01,0.24 -0.04,0.08 -0.11,0.13 -0.21,0.16 -0.1,0.03 -0.19,0.03 -0.26,-0.01 -0.07,-0.04 -0.12,-0.1 -0.15,-0.19 -0.03,-0.09 -0.02,-0.17 0.02,-0.24 0.04,-0.07 0.11,-0.12 0.2,-0.15zm0.05 0.12c-0.07,0.02 -0.12,0.06 -0.15,0.1 -0.02,0.04 -0.03,0.09 -0.01,0.14 0.01,0.05 0.04,0.08 0.09,0.1 0.04,0.02 0.1,0.02 0.17,0 0.07,-0.02 0.12,-0.05 0.14,-0.1 0.03,-0.04 0.03,-0.08 0.02,-0.13 -0.02,-0.05 -0.05,-0.09 -0.09,-0.11 -0.05,-0.02 -0.1,-0.02 -0.17,0z"/>
    <path id="14" class="fil9" d="M34.31 8.47l0.05 0.23c0.01,0.06 0.01,0.1 0.01,0.13 0,0.03 -0.02,0.07 -0.04,0.1 -0.02,0.03 -0.05,0.06 -0.09,0.08 -0.04,0.02 -0.08,0.04 -0.14,0.05 -0.05,0.01 -0.1,0.01 -0.14,0.01 -0.05,-0.01 -0.09,-0.02 -0.12,-0.05 -0.03,-0.01 -0.05,-0.04 -0.07,-0.08 -0.02,-0.02 -0.03,-0.06 -0.04,-0.11l-0.04 -0.23 0.62 -0.13zm-0.08 0.15l-0.41 0.08 0.01 0.1c0.01,0.03 0.02,0.06 0.03,0.07 0.01,0.02 0.02,0.04 0.03,0.05 0.02,0.01 0.04,0.02 0.07,0.02 0.03,0 0.07,0 0.12,-0.01 0.04,-0.01 0.08,-0.02 0.11,-0.04 0.02,-0.01 0.04,-0.03 0.05,-0.04 0.01,-0.02 0.02,-0.04 0.02,-0.07 0,-0.02 -0.01,-0.05 -0.02,-0.1l-0.01 -0.06z"/>
    <path id="15" class="fil9" d="M34.7 9.44l0.02 0.35c0.01,0.06 0.01,0.12 0.01,0.15 0,0.03 -0.01,0.07 -0.03,0.09 -0.02,0.03 -0.04,0.06 -0.07,0.08 -0.03,0.02 -0.06,0.03 -0.1,0.03 -0.04,0 -0.08,0 -0.11,-0.02 -0.04,-0.02 -0.07,-0.05 -0.09,-0.09 -0.01,0.06 -0.03,0.1 -0.06,0.13 -0.04,0.03 -0.08,0.05 -0.13,0.05 -0.04,0.01 -0.08,0 -0.12,-0.01 -0.04,-0.02 -0.07,-0.04 -0.09,-0.07 -0.03,-0.03 -0.05,-0.07 -0.06,-0.12 0,-0.03 -0.01,-0.1 -0.02,-0.21l-0.02 -0.29 0.87 -0.07zm-0.13 0.19l-0.2 0.01 0.01 0.12c0,0.06 0,0.11 0.01,0.12 0,0.03 0.02,0.06 0.03,0.07 0.02,0.02 0.05,0.02 0.07,0.02 0.03,0 0.05,-0.01 0.07,-0.03 0.01,-0.01 0.02,-0.03 0.02,-0.06 0,-0.02 0,-0.07 0,-0.15l-0.01 -0.1zm-0.35 0.02l-0.23 0.02 0.01 0.16c0.01,0.07 0.01,0.11 0.02,0.12 0,0.03 0.02,0.05 0.04,0.06 0.02,0.02 0.04,0.02 0.07,0.02 0.03,0 0.05,-0.01 0.07,-0.02 0.01,-0.02 0.03,-0.04 0.03,-0.06 0.01,-0.02 0.01,-0.08 0,-0.16l-0.01 -0.14z"/>
    <path id="16" class="fil9" d="M34.52 10.37l0 0.13 -0.35 -0.01c-0.06,0 -0.09,0 -0.11,0.01 -0.02,0 -0.04,0.01 -0.06,0.03 -0.02,0.02 -0.03,0.05 -0.03,0.09 0,0.03 0.01,0.06 0.02,0.08 0.02,0.02 0.04,0.03 0.06,0.04 0.02,0 0.05,0 0.11,0.01l0.35 0.01 0 0.12 -0.34 0c-0.08,-0.01 -0.13,-0.01 -0.16,-0.02 -0.03,-0.01 -0.06,-0.02 -0.08,-0.04 -0.02,-0.02 -0.04,-0.05 -0.05,-0.08 -0.01,-0.03 -0.02,-0.07 -0.02,-0.12 0,-0.06 0.01,-0.11 0.03,-0.14 0.01,-0.03 0.03,-0.05 0.05,-0.07 0.03,-0.02 0.05,-0.03 0.08,-0.04 0.03,0 0.09,-0.01 0.16,0l0.34 0z"/>
    <path id="17" class="fil9" d="M34.06 11l-0.01 0.13c-0.04,0 -0.07,0.01 -0.1,0.03 -0.02,0.02 -0.04,0.05 -0.04,0.09 -0.01,0.04 0,0.07 0.01,0.09 0.01,0.03 0.03,0.04 0.06,0.04 0.01,0 0.03,0 0.04,0 0.01,-0.01 0.02,-0.03 0.03,-0.05 0.01,-0.01 0.02,-0.04 0.04,-0.09 0.03,-0.07 0.06,-0.11 0.09,-0.14 0.04,-0.03 0.09,-0.05 0.14,-0.04 0.03,0.01 0.06,0.02 0.08,0.04 0.03,0.03 0.04,0.06 0.05,0.09 0.01,0.04 0.01,0.08 0.01,0.13 -0.02,0.08 -0.04,0.14 -0.08,0.17 -0.04,0.04 -0.09,0.05 -0.15,0.04l0.01 -0.13c0.03,0 0.06,0 0.08,-0.02 0.01,-0.02 0.03,-0.04 0.03,-0.08 0.01,-0.03 0,-0.06 -0.01,-0.09 -0.01,-0.01 -0.02,-0.02 -0.03,-0.02 -0.02,-0.01 -0.03,0 -0.05,0.01 -0.01,0.01 -0.03,0.05 -0.06,0.11 -0.02,0.06 -0.04,0.1 -0.06,0.13 -0.02,0.03 -0.05,0.05 -0.08,0.06 -0.03,0.01 -0.06,0.02 -0.1,0.01 -0.04,-0.01 -0.07,-0.02 -0.1,-0.05 -0.03,-0.02 -0.05,-0.05 -0.06,-0.09 -0.01,-0.04 -0.01,-0.09 0,-0.14 0.01,-0.08 0.04,-0.14 0.08,-0.18 0.05,-0.04 0.11,-0.05 0.18,-0.05z"/>
    <polygon id="18" class="fil9" points="33.76,11.59 34.39,11.71 34.36,11.84 33.74,11.71 "/>
    <polygon id="19" class="fil9" points="33.72,11.84 34.34,12 34.31,12.12 33.83,12.27 34.24,12.37 34.21,12.49 33.59,12.33 33.63,12.21 34.09,12.06 33.69,11.96 "/>
    <polygon id="20" class="fil9" points="33.55,12.46 34.16,12.66 34.01,13.11 33.91,13.08 34.01,12.75 33.88,12.71 33.78,13.01 33.68,12.98 33.78,12.67 33.61,12.62 33.5,12.96 33.4,12.93 "/>
    <path id="21" class="fil9" d="M33.56 13.08l-0.03 0.12c-0.05,-0.01 -0.08,-0.01 -0.11,0 -0.03,0.01 -0.05,0.04 -0.06,0.08 -0.02,0.03 -0.02,0.07 -0.02,0.09 0.01,0.03 0.03,0.05 0.05,0.06 0.01,0 0.02,0 0.04,0 0.01,0 0.03,-0.02 0.04,-0.03 0.01,-0.01 0.04,-0.04 0.07,-0.09 0.04,-0.05 0.08,-0.09 0.12,-0.1 0.04,-0.02 0.09,-0.03 0.14,-0.01 0.03,0.02 0.05,0.04 0.07,0.07 0.02,0.03 0.03,0.06 0.03,0.1 0,0.03 -0.01,0.07 -0.03,0.12 -0.04,0.07 -0.08,0.12 -0.13,0.14 -0.04,0.03 -0.1,0.03 -0.15,0.01l0.05 -0.12c0.03,0 0.06,0 0.08,-0.01 0.02,-0.01 0.03,-0.03 0.05,-0.06 0.01,-0.04 0.02,-0.07 0.01,-0.09 0,-0.02 -0.01,-0.03 -0.02,-0.04 -0.02,-0.01 -0.03,0 -0.05,0 -0.02,0.01 -0.05,0.04 -0.08,0.09 -0.04,0.06 -0.08,0.09 -0.1,0.11 -0.03,0.02 -0.06,0.04 -0.09,0.04 -0.03,0.01 -0.07,0 -0.1,-0.02 -0.04,-0.01 -0.07,-0.03 -0.09,-0.07 -0.02,-0.03 -0.03,-0.06 -0.03,-0.1 0,-0.04 0.02,-0.09 0.04,-0.14 0.03,-0.07 0.07,-0.12 0.12,-0.15 0.06,-0.02 0.12,-0.02 0.18,0z"/>
    <path id="22" class="fil9" d="M33.32 13.63l-0.05 0.12c-0.04,-0.01 -0.07,-0.01 -0.1,0 -0.03,0.01 -0.05,0.03 -0.07,0.07 -0.02,0.04 -0.02,0.07 -0.02,0.09 0.01,0.03 0.02,0.05 0.04,0.06 0.02,0.01 0.03,0.01 0.04,0.01 0.02,-0.01 0.03,-0.02 0.05,-0.03 0.01,-0.02 0.03,-0.04 0.07,-0.08 0.05,-0.06 0.09,-0.09 0.12,-0.11 0.05,-0.02 0.1,-0.02 0.14,0.01 0.03,0.01 0.06,0.03 0.07,0.06 0.02,0.03 0.03,0.06 0.03,0.1 -0.01,0.04 -0.02,0.08 -0.04,0.12 -0.04,0.08 -0.08,0.12 -0.13,0.14 -0.05,0.02 -0.1,0.02 -0.15,0l0.05 -0.12c0.03,0.01 0.06,0.01 0.08,0 0.02,-0.01 0.04,-0.03 0.05,-0.06 0.02,-0.04 0.03,-0.07 0.02,-0.09 0,-0.02 -0.01,-0.03 -0.02,-0.04 -0.02,-0.01 -0.03,-0.01 -0.05,0 -0.02,0.01 -0.05,0.04 -0.09,0.09 -0.04,0.05 -0.07,0.08 -0.1,0.1 -0.03,0.02 -0.06,0.04 -0.09,0.04 -0.03,0 -0.07,-0.01 -0.1,-0.02 -0.04,-0.02 -0.06,-0.04 -0.08,-0.08 -0.02,-0.03 -0.03,-0.06 -0.03,-0.11 0.01,-0.04 0.02,-0.08 0.04,-0.13 0.04,-0.07 0.08,-0.12 0.14,-0.14 0.05,-0.03 0.11,-0.02 0.18,0z"/>
    <polygon id="23" class="fil9" points="32.65,14.41 33.36,14.92 32.98,15.44 32.86,15.36 33.13,14.98 32.98,14.86 32.72,15.22 32.6,15.13 32.86,14.78 32.67,14.64 32.38,15.03 32.26,14.95 "/>
    <polygon id="24" class="fil9" points="32.24,15 32.34,15.38 32.71,15.44 32.61,15.55 32.37,15.51 32.44,15.74 32.34,15.85 32.24,15.5 31.85,15.45 31.95,15.33 32.21,15.37 32.14,15.12 "/>
    <path id="25" class="fil9" d="M31.69 15.95l-0.11 0.06c-0.04,-0.06 -0.05,-0.12 -0.05,-0.17 0.01,-0.06 0.03,-0.11 0.08,-0.16 0.06,-0.06 0.13,-0.09 0.21,-0.09 0.08,0 0.16,0.04 0.23,0.1 0.07,0.08 0.12,0.16 0.12,0.24 0,0.08 -0.02,0.15 -0.09,0.21 -0.05,0.06 -0.11,0.09 -0.18,0.09 -0.04,0 -0.08,-0.01 -0.13,-0.03l0.07 -0.11c0.03,0.01 0.06,0.02 0.09,0.02 0.03,-0.01 0.06,-0.02 0.08,-0.05 0.03,-0.03 0.05,-0.07 0.04,-0.12 0,-0.04 -0.03,-0.09 -0.09,-0.14 -0.06,-0.06 -0.11,-0.09 -0.15,-0.09 -0.05,0 -0.08,0.01 -0.12,0.05 -0.02,0.02 -0.03,0.05 -0.03,0.08 -0.01,0.04 0.01,0.07 0.03,0.11z"/>
    <polygon id="26" class="fil9" points="31.35,15.95 31.77,16.44 31.41,16.75 31.34,16.67 31.6,16.44 31.51,16.33 31.26,16.54 31.19,16.46 31.44,16.25 31.32,16.12 31.05,16.35 30.98,16.27 "/>
    <polygon id="27" class="fil9" points="30.89,16.35 31.28,16.85 31.18,16.93 30.86,16.51 30.6,16.71 30.54,16.62 "/>
    <polygon id="28" class="fil9" points="30.46,16.67 30.83,17.19 30.73,17.27 30.42,16.84 30.16,17.02 30.1,16.94 "/>
    <polygon id="29" class="fil9" points="30.01,16.98 30.34,17.53 29.93,17.77 29.87,17.68 30.17,17.5 30.1,17.38 29.82,17.55 29.77,17.45 30.04,17.29 29.95,17.14 29.65,17.32 29.59,17.23 "/>
    <polygon id="30" class="fil9" points="29.49,17.28 29.79,17.85 29.68,17.91 29.25,17.65 29.45,18.03 29.34,18.08 29.05,17.52 29.16,17.46 29.58,17.71 29.39,17.34 "/>
    <path id="31" class="fil9" d="M28.63 17.94l-0.13 0.01c-0.01,-0.07 0,-0.13 0.03,-0.18 0.03,-0.05 0.08,-0.08 0.14,-0.11 0.08,-0.03 0.15,-0.03 0.23,0 0.07,0.04 0.12,0.1 0.16,0.19 0.04,0.1 0.05,0.19 0.02,0.26 -0.03,0.08 -0.09,0.13 -0.17,0.17 -0.07,0.03 -0.14,0.03 -0.2,0 -0.04,-0.01 -0.07,-0.04 -0.11,-0.08l0.11 -0.08c0.02,0.03 0.04,0.05 0.07,0.06 0.03,0.01 0.06,0.01 0.1,-0.01 0.04,-0.02 0.07,-0.05 0.08,-0.09 0.02,-0.04 0.01,-0.1 -0.02,-0.17 -0.03,-0.07 -0.06,-0.12 -0.1,-0.14 -0.04,-0.02 -0.08,-0.02 -0.13,-0.01 -0.03,0.02 -0.05,0.04 -0.07,0.07 -0.01,0.03 -0.02,0.06 -0.01,0.11z"/>
    <polygon id="32" class="fil9" points="28.33,17.81 28.54,18.41 28.1,18.57 28.06,18.47 28.38,18.35 28.34,18.22 28.03,18.33 28,18.23 28.3,18.12 28.24,17.95 27.91,18.08 27.87,17.97 "/>
    <path id="33" class="fil9" d="M27.02 18.51l-0.18 -0.02c0.01,-0.09 0.04,-0.17 0.09,-0.23 0.05,-0.06 0.12,-0.1 0.21,-0.12 0.11,-0.02 0.21,0 0.3,0.06 0.09,0.06 0.15,0.16 0.18,0.3 0.03,0.14 0.02,0.26 -0.04,0.35 -0.06,0.09 -0.14,0.15 -0.26,0.18 -0.11,0.02 -0.2,0.01 -0.28,-0.04 -0.04,-0.03 -0.08,-0.08 -0.12,-0.14l0.16 -0.08c0.02,0.05 0.05,0.08 0.09,0.1 0.04,0.01 0.08,0.02 0.12,0.01 0.07,-0.01 0.11,-0.05 0.14,-0.1 0.03,-0.05 0.04,-0.13 0.02,-0.23 -0.03,-0.11 -0.06,-0.18 -0.11,-0.22 -0.05,-0.04 -0.1,-0.05 -0.17,-0.04 -0.04,0.01 -0.08,0.03 -0.11,0.07 -0.02,0.04 -0.04,0.09 -0.04,0.15z"/>
    <path id="34" class="fil9" d="M26.73 18.57c0.01,0.06 0.01,0.12 0,0.17 -0.01,0.03 -0.02,0.06 -0.05,0.09 -0.02,0.03 -0.04,0.05 -0.07,0.07 -0.03,0.02 -0.08,0.04 -0.13,0.05 -0.09,0.01 -0.17,-0.01 -0.24,-0.06 -0.06,-0.04 -0.1,-0.12 -0.12,-0.22 -0.01,-0.11 0,-0.19 0.05,-0.26 0.05,-0.06 0.12,-0.1 0.21,-0.12 0.09,-0.01 0.17,0.01 0.24,0.06 0.06,0.04 0.1,0.12 0.11,0.22zm-0.13 0.02c-0.01,-0.07 -0.03,-0.12 -0.07,-0.15 -0.04,-0.03 -0.08,-0.04 -0.13,-0.04 -0.06,0.01 -0.09,0.04 -0.12,0.08 -0.03,0.04 -0.04,0.1 -0.03,0.17 0.02,0.07 0.04,0.12 0.08,0.15 0.03,0.03 0.08,0.05 0.13,0.04 0.05,-0.01 0.09,-0.03 0.12,-0.08 0.03,-0.04 0.03,-0.09 0.02,-0.17z"/>
    <polygon id="35" class="fil9" points="25.97,18.36 26.02,19 25.82,19.01 25.68,18.59 25.59,19.03 25.4,19.04 25.36,18.41 25.48,18.4 25.51,18.9 25.6,18.39 25.73,18.38 25.89,18.87 25.85,18.37 "/>
    <path id="36" class="fil9" d="M25.23 18.4l0.01 0.64 -0.2 0.01c-0.08,0 -0.13,0 -0.16,-0.01 -0.03,-0.01 -0.07,-0.03 -0.09,-0.06 -0.03,-0.03 -0.04,-0.07 -0.04,-0.12 0,-0.04 0.01,-0.08 0.02,-0.1 0.01,-0.03 0.03,-0.05 0.05,-0.07 0.02,-0.01 0.05,-0.02 0.07,-0.03 0.03,-0.01 0.07,-0.01 0.13,-0.01l0.09 0 -0.01 -0.24 0.13 -0.01zm-0.12 0.54l0 -0.18 -0.07 0c-0.05,0 -0.09,0 -0.1,0.01 -0.02,0.01 -0.03,0.02 -0.04,0.03 -0.01,0.02 -0.02,0.03 -0.02,0.05 0,0.02 0.01,0.04 0.02,0.06 0.02,0.01 0.04,0.02 0.06,0.03 0.01,0 0.04,0 0.09,0l0.06 0z"/>
    <path id="37" class="fil9" d="M24.12 18.38l0.14 0.01 0.05 0.14 0.25 0.02 0.07 -0.14 0.13 0.01 -0.29 0.62 -0.14 -0.01 -0.21 -0.65zm0.22 0.26l0.07 0.25 0.11 -0.23 -0.18 -0.02z"/>
    <polygon id="38" class="fil9" points="24.06,18.37 23.98,19 23.85,18.99 23.65,18.53 23.59,18.96 23.48,18.94 23.55,18.31 23.68,18.32 23.89,18.77 23.94,18.35 "/>
    <polygon id="39" class="fil9" points="23.42,18.29 23.32,18.92 23.19,18.9 23.29,18.27 "/>
    <path id="40" class="fil9" d="M23.13 18.56c-0.01,0.07 -0.03,0.12 -0.06,0.16 -0.02,0.02 -0.04,0.05 -0.07,0.07 -0.03,0.02 -0.07,0.03 -0.1,0.04 -0.04,0.01 -0.09,0.01 -0.14,-0.01 -0.09,-0.01 -0.16,-0.06 -0.2,-0.13 -0.04,-0.07 -0.05,-0.15 -0.03,-0.25 0.02,-0.1 0.06,-0.18 0.13,-0.22 0.07,-0.05 0.15,-0.06 0.24,-0.04 0.09,0.02 0.16,0.06 0.2,0.13 0.04,0.07 0.06,0.15 0.03,0.25zm-0.13 -0.02c0.02,-0.07 0.01,-0.13 -0.01,-0.17 -0.03,-0.05 -0.06,-0.07 -0.11,-0.08 -0.05,-0.01 -0.1,-0.01 -0.14,0.02 -0.04,0.03 -0.07,0.08 -0.08,0.16 -0.02,0.07 -0.01,0.13 0.01,0.17 0.02,0.04 0.06,0.07 0.11,0.08 0.06,0.01 0.1,0 0.14,-0.03 0.04,-0.03 0.07,-0.08 0.08,-0.15z"/>
    <polygon id="41" class="fil9" points="22.49,18.11 22.3,18.72 22.18,18.68 22.06,18.19 21.93,18.6 21.82,18.57 22.01,17.96 22.13,17.99 22.25,18.47 22.38,18.07 "/>
   </g>
   <path class="fil10" d="M6.12 14.18l0.17 -0.01c0.02,0.05 0.04,0.1 0.07,0.12 0.03,0.03 0.07,0.05 0.13,0.05 0.06,0 0.1,-0.02 0.13,-0.04 0.03,-0.03 0.04,-0.05 0.04,-0.09 0,-0.02 0,-0.04 -0.02,-0.05 -0.01,-0.02 -0.03,-0.03 -0.06,-0.04 -0.02,-0.01 -0.07,-0.02 -0.14,-0.04 -0.1,-0.02 -0.17,-0.05 -0.2,-0.09 -0.06,-0.04 -0.09,-0.1 -0.09,-0.17 0,-0.05 0.02,-0.09 0.04,-0.13 0.03,-0.04 0.06,-0.07 0.11,-0.09 0.05,-0.02 0.11,-0.03 0.18,-0.03 0.11,0 0.19,0.02 0.25,0.07 0.05,0.05 0.08,0.12 0.08,0.2l-0.17 0c-0.01,-0.04 -0.03,-0.07 -0.05,-0.09 -0.03,-0.02 -0.07,-0.03 -0.12,-0.03 -0.05,0 -0.09,0.01 -0.12,0.03 -0.02,0.01 -0.03,0.03 -0.03,0.05 0,0.02 0.01,0.04 0.03,0.06 0.02,0.02 0.08,0.04 0.17,0.06 0.08,0.02 0.15,0.04 0.19,0.06 0.04,0.02 0.07,0.05 0.1,0.09 0.02,0.04 0.03,0.09 0.03,0.14 0,0.05 -0.01,0.1 -0.04,0.14 -0.03,0.05 -0.07,0.08 -0.12,0.1 -0.05,0.03 -0.12,0.04 -0.19,0.04 -0.12,0 -0.2,-0.03 -0.26,-0.08 -0.06,-0.05 -0.1,-0.13 -0.11,-0.23z"/>
   <polygon id="1" class="fil10" points="6.99,14.47 6.99,13.58 7.17,13.58 7.17,14.47 "/>
   <polygon id="2" class="fil10" points="7.34,14.47 7.34,13.58 7.51,13.58 7.88,14.18 7.88,13.58 8.04,13.58 8.04,14.47 7.86,14.47 7.5,13.89 7.5,14.47 "/>
   <path id="3" class="fil10" d="M8.8 14.14l0.17 0.06c-0.03,0.09 -0.07,0.17 -0.13,0.21 -0.06,0.05 -0.14,0.07 -0.24,0.07 -0.12,0 -0.21,-0.04 -0.29,-0.12 -0.07,-0.08 -0.11,-0.19 -0.11,-0.33 0,-0.14 0.04,-0.26 0.11,-0.34 0.08,-0.08 0.18,-0.12 0.3,-0.12 0.11,0 0.2,0.03 0.27,0.09 0.04,0.04 0.07,0.1 0.09,0.17l-0.18 0.04c-0.01,-0.05 -0.03,-0.08 -0.06,-0.11 -0.04,-0.03 -0.08,-0.04 -0.13,-0.04 -0.06,0 -0.11,0.02 -0.16,0.07 -0.04,0.05 -0.06,0.13 -0.06,0.23 0,0.11 0.02,0.19 0.06,0.24 0.04,0.05 0.1,0.07 0.16,0.07 0.05,0 0.09,-0.01 0.12,-0.04 0.04,-0.03 0.06,-0.08 0.08,-0.15z"/>
   <polygon id="4" class="fil10" points="9.12,14.47 9.12,13.58 9.78,13.58 9.78,13.73 9.3,13.73 9.3,13.93 9.75,13.93 9.75,14.08 9.3,14.08 9.3,14.32 9.8,14.32 9.8,14.47 "/>
   <path id="5" class="fil10" d="M6.7 15.7l0 0.15 -0.59 0c0,-0.06 0.02,-0.11 0.06,-0.17 0.03,-0.05 0.09,-0.12 0.19,-0.21 0.07,-0.07 0.12,-0.12 0.14,-0.15 0.02,-0.03 0.03,-0.06 0.03,-0.1 0,-0.04 -0.01,-0.07 -0.03,-0.09 -0.02,-0.02 -0.05,-0.03 -0.08,-0.03 -0.04,0 -0.07,0.01 -0.09,0.03 -0.02,0.03 -0.03,0.06 -0.03,0.11l-0.17 -0.02c0.01,-0.09 0.04,-0.16 0.09,-0.2 0.06,-0.04 0.12,-0.06 0.2,-0.06 0.09,0 0.16,0.03 0.21,0.07 0.05,0.05 0.07,0.11 0.07,0.18 0,0.04 0,0.08 -0.02,0.11 -0.01,0.04 -0.03,0.08 -0.07,0.12 -0.02,0.02 -0.05,0.06 -0.11,0.11 -0.05,0.05 -0.09,0.08 -0.1,0.1 -0.01,0.01 -0.03,0.03 -0.03,0.05l0.33 0z"/>
   <path id="6" class="fil10" d="M7.45 14.96c0.08,0 0.15,0.03 0.2,0.09 0.06,0.08 0.09,0.2 0.09,0.37 0,0.16 -0.03,0.28 -0.09,0.36 -0.05,0.06 -0.12,0.09 -0.2,0.09 -0.09,0 -0.16,-0.03 -0.21,-0.1 -0.05,-0.07 -0.08,-0.19 -0.08,-0.36 0,-0.16 0.03,-0.28 0.09,-0.36 0.05,-0.06 0.11,-0.09 0.2,-0.09zm0 0.14c-0.02,0 -0.04,0.01 -0.06,0.02 -0.01,0.02 -0.02,0.04 -0.03,0.07 -0.01,0.05 -0.02,0.12 -0.02,0.23 0,0.1 0.01,0.17 0.02,0.21 0.01,0.04 0.02,0.07 0.03,0.08 0.02,0.01 0.04,0.02 0.06,0.02 0.02,0 0.04,-0.01 0.05,-0.02 0.02,-0.02 0.03,-0.04 0.04,-0.07 0.01,-0.05 0.02,-0.12 0.02,-0.22 0,-0.11 -0.01,-0.18 -0.02,-0.22 -0.01,-0.04 -0.02,-0.06 -0.04,-0.08 -0.01,-0.01 -0.03,-0.02 -0.05,-0.02z"/>
   <path id="7" class="fil10" d="M8.48 14.96c0.09,0 0.15,0.03 0.2,0.09 0.06,0.08 0.09,0.2 0.09,0.37 0,0.16 -0.03,0.28 -0.09,0.36 -0.05,0.06 -0.11,0.09 -0.2,0.09 -0.09,0 -0.16,-0.03 -0.21,-0.1 -0.05,-0.07 -0.08,-0.19 -0.08,-0.36 0,-0.16 0.03,-0.28 0.09,-0.36 0.05,-0.06 0.11,-0.09 0.2,-0.09zm0 0.14c-0.02,0 -0.04,0.01 -0.05,0.02 -0.02,0.02 -0.03,0.04 -0.04,0.07 -0.01,0.05 -0.02,0.12 -0.02,0.23 0,0.1 0.01,0.17 0.02,0.21 0.01,0.04 0.02,0.07 0.04,0.08 0.01,0.01 0.03,0.02 0.05,0.02 0.02,0 0.04,-0.01 0.05,-0.02 0.02,-0.02 0.03,-0.04 0.04,-0.07 0.01,-0.05 0.02,-0.12 0.02,-0.22 0,-0.11 -0.01,-0.18 -0.02,-0.22 -0.01,-0.04 -0.02,-0.06 -0.04,-0.08 -0.01,-0.01 -0.03,-0.02 -0.05,-0.02z"/>
   <path id="8" class="fil10" d="M9.51 14.96c0.09,0 0.15,0.03 0.2,0.09 0.06,0.08 0.09,0.2 0.09,0.37 0,0.16 -0.03,0.28 -0.09,0.36 -0.05,0.06 -0.11,0.09 -0.2,0.09 -0.09,0 -0.15,-0.03 -0.21,-0.1 -0.05,-0.07 -0.08,-0.19 -0.08,-0.36 0,-0.16 0.03,-0.28 0.09,-0.36 0.05,-0.06 0.12,-0.09 0.2,-0.09zm0 0.14c-0.02,0 -0.04,0.01 -0.05,0.02 -0.02,0.02 -0.03,0.04 -0.04,0.07 -0.01,0.05 -0.02,0.12 -0.02,0.23 0,0.1 0.01,0.17 0.02,0.21 0.01,0.04 0.02,0.07 0.04,0.08 0.01,0.01 0.03,0.02 0.05,0.02 0.02,0 0.04,-0.01 0.06,-0.02 0.01,-0.02 0.02,-0.04 0.03,-0.07 0.01,-0.05 0.02,-0.12 0.02,-0.22 0,-0.11 -0.01,-0.18 -0.02,-0.22 -0.01,-0.04 -0.02,-0.06 -0.04,-0.08 -0.01,-0.01 -0.03,-0.02 -0.05,-0.02z"/>
  </g>
 </g>
</svg>
