<?xml version="1.0" encoding="UTF-8"?>
<!DOCTYPE svg PUBLIC "-//W3C//DTD SVG 1.1//EN" "http://www.w3.org/Graphics/SVG/1.1/DTD/svg11.dtd">
<!-- Creator: CorelDRAW 2019 (64-Bit) -->
<svg xmlns="http://www.w3.org/2000/svg" xml:space="preserve" width="220px" height="220px" version="1.1" style="shape-rendering:geometricPrecision; text-rendering:geometricPrecision; image-rendering:optimizeQuality; fill-rule:evenodd; clip-rule:evenodd"
viewBox="0 0 26.98 26.98"
 xmlns:xlink="http://www.w3.org/1999/xlink"
 xmlns:xodm="http://www.corel.com/coreldraw/odm/2003">
 <defs>
  <style type="text/css">
   <![CDATA[
    .fil0 {fill:#3E4095}
    .fil1 {fill:#3E4095;fill-rule:nonzero}
   ]]>
  </style>
 </defs>
 <g id="Layer_x0020_1">
  <metadata id="CorelCorpID_0Corel-Layer"/>
  <g id="_2701027896800">
   <path class="fil0" d="M13.49 0.76c7.03,0 12.73,5.7 12.73,12.73 0,7.03 -5.7,12.73 -12.73,12.73 -7.03,0 -12.73,-5.7 -12.73,-12.73 0,-7.03 5.7,-12.73 12.73,-12.73zm0 0.37c6.83,0 12.36,5.54 12.36,12.36 0,6.83 -5.53,12.36 -12.36,12.36 -6.82,0 -12.36,-5.53 -12.36,-12.36 0,-6.82 5.54,-12.36 12.36,-12.36z"/>
   <g>
    <path class="fil0" d="M13.49 3.71c5.4,0 9.78,4.38 9.78,9.78 0,5.4 -4.38,9.78 -9.78,9.78 -5.4,0 -9.78,-4.38 -9.78,-9.78 0,-5.4 4.38,-9.78 9.78,-9.78zm1.23 10.31l0.13 -0.01 0.08 0.05c0.06,-0.16 0.09,-0.33 0.09,-0.51 0,-0.03 0,-0.06 0,-0.09l-0.01 -0.01 -0.13 0.07 0.08 0.19 -0.15 0.06 -0.07 0.08 -0.02 0.17zm1.87 3.27c-0.21,0 -0.42,-0.02 -0.63,-0.03 -0.19,-0.02 -0.39,-0.03 -0.57,-0.08l0 -1.44c0.05,0.06 0.13,0.09 0.21,0.09 0.04,0 0.08,-0.01 0.11,-0.02l-0.11 -0.2 -0.01 0c-0.01,-0.01 -0.01,-0.02 -0.02,-0.03 -0.07,-0.06 -0.16,-0.1 -0.27,-0.1 -0.19,0 -0.34,0.12 -0.35,0.27l0 0.02 -0.04 1.76 -0.34 -0.04 0.18 0.14c1.06,0.1 1.44,0.1 2.23,0.12l0.13 -0.18 -0.55 -1.07 -0.07 0.07 0.43 0.83 -0.18 0.14 -0.15 -0.25zm-1.53 -3.16l0.17 0.09c0.06,-0.15 0.1,-0.31 0.12,-0.47l-0.09 0 -0.09 -0.11c-0.01,0.17 -0.05,0.34 -0.11,0.49zm-1.54 -2.24c0.16,0 0.32,0.03 0.47,0.07l0.01 -0.2c-0.16,-0.04 -0.32,-0.06 -0.48,-0.06 -1.02,0 -1.85,0.83 -1.85,1.85 0,0.68 0.38,1.28 0.94,1.6l-0.02 -0.24c-0.44,-0.29 -0.73,-0.8 -0.73,-1.36 0,-0.92 0.74,-1.66 1.66,-1.66zm0.61 0.12c0.06,0.02 0.12,0.05 0.18,0.08l0 -0.14 -0.18 0 0 0.06zm0.33 0.17c0.02,0.02 0.04,0.03 0.06,0.05 -0.01,-0.02 -0.01,-0.04 -0.02,-0.06l-0.04 0.01zm0.67 1c0.03,0.11 0.04,0.22 0.04,0.34 0.05,0.05 0.11,0.08 0.19,0.08 0,0 0,0 0,0 0,-0.02 0,-0.04 0,-0.05 0,-0.18 -0.02,-0.35 -0.07,-0.51 -0.07,0.02 -0.13,0.07 -0.16,0.14zm-0.16 1.16c-0.03,0.06 -0.07,0.11 -0.11,0.17l0.15 0.12c0.04,-0.06 0.08,-0.12 0.11,-0.18l-0.15 -0.11zm-1.48 0.86c-0.05,0 -0.1,-0.01 -0.15,-0.01l0.12 0.06 0.03 -0.05zm-0.46 -0.07c-0.05,-0.02 -0.1,-0.04 -0.15,-0.06l0.01 0.21c0.04,0.01 0.09,0.03 0.13,0.04l0.01 -0.19zm0.49 -3.09c0.16,0 0.32,0.03 0.47,0.08l-0.01 0.4 -0.08 0.09 -0.24 0.22 -0.23 0.35 -0.47 0.37 0.23 0.28 0.53 -0.39 0.1 0 -0.59 0.44c0.05,0.04 0.33,0.23 0.44,0.18l0.44 -0.33 0.14 0.11 -1.67 0.88c-0.34,-0.28 -0.56,-0.7 -0.56,-1.17 0,-0.83 0.67,-1.51 1.5,-1.51zm0.61 0.14c0.06,0.02 0.12,0.05 0.18,0.09l0 0.37 -0.18 0 0 -0.46zm0.32 0.19c0.04,0.03 0.08,0.07 0.12,0.11 0,0 0,0 0,0 0.01,0.08 0.01,0.15 -0.01,0.21 -0.01,0.07 -0.04,0.12 -0.06,0.17l-0.05 0.09 -0.05 0.01 -0.08 -0.27c0.03,-0.01 0.05,-0.02 0.08,-0.06 0.02,-0.02 0.03,-0.04 0.05,-0.08l0 -0.18zm0.39 1.88c-0.03,0.05 -0.06,0.11 -0.09,0.16l-0.09 -0.07 0.02 -0.14 -0.41 0 -0.17 -0.13 0.04 -0.05 0.15 0.12 0.4 0 0.15 0.11zm-1.44 0.79c-0.18,-0.01 -0.36,-0.06 -0.52,-0.14l0 -0.1 0.05 0 0.47 0.24zm2.02 -0.79l0.08 -0.04 0.39 0.12 -0.01 0.39 -0.39 0.23 0.16 0.26c0.24,-0.07 0.29,-0.16 0.45,-0.36 0.13,-0.27 0.2,-0.54 0.19,-0.84 -0.01,-0.12 -0.03,-0.21 -0.11,-0.28 -0.07,-0.07 -0.17,-0.12 -0.4,-0.12 -0.1,0.02 -0.15,0.03 -0.23,0.07 -0.02,0.2 -0.06,0.39 -0.13,0.57zm0.88 4.3l0.01 -0.14 -0.6 -0.03 -0.5 -0.03 0 0 -0.02 0.02 -0.02 0.01 -0.02 0.01 -0.02 0.01 -0.02 0.01 -0.02 0.01 -0.02 0 -0.02 0.01 -0.02 0 -0.03 0 -0.02 0 -0.02 0 -0.03 -0.01 -0.02 0 -0.02 -0.01 -0.04 -0.01 -3.58 -2.64 -0.01 -0.01 0 0.01 0.01 0.01 0.01 0 0 0.01 0.01 0.01 0 0.01 0.01 0.01 0 0 0.01 0.01 0 0.01 0.01 0.01 0 0 0 0.01 0.01 0.01 0 0.01 0.01 0.01 0 0.01 0.01 0 0 0.01 0 0.01 0.01 0.01 0 0.01 0.01 0.01 0 0 0 0.01 0.01 0.01 0 0.01 0.01 0.01 0 0.01 0 0.01 0.01 0.01 0 0.01 0 0.01 0.01 0 0 0.01 0 0.01 0 0 0.01 0.01 0 0.01 0 0 0 0.01 0 0.01 0 0 0.01 0.01 0 0.01 0 0 0 0.01 0 0.01 0 0 0.01 0.01 0 0.01 0 0 0 0.01 0 0.01 0 0 0.01 0.01 0 0.01 0 0.01 0 0.01 0 0 0.01 0.02 0 0.01 0 0.01 0 0.01 0.01 0.01 0 0.01 0 0 0 0.01 0 0 0 0.01 0 0 0 0.01 0 0 0 0.01 0.01 0.01 0 0 0 0.01 0 0 0 0.01 0 0.01 0 0 0 0.01 0 0.01 0.01 0 0 0.01 0 0.01 0 0 0 0.01 0 0.01 0 0 0 0.01 0 0.01 0 0 0 0.01 0 0.01 0 0.01 0 0.12 -0.02 0.17 -0.03 0.18 -0.07 0.2 -0.08 0.19 -0.07 0.13 -0.09 0.13 -0.07 0.09 -0.14 0.15 -0.07 0.06 -0.08 0.06 -0.09 0.05 -0.13 0.07 -0.13 0.06 -0.18 0.04 -0.2 0.02 -0.19 -0.01 -0.21 -0.05 -0.13 -0.06 -0.09 -0.05 -0.04 -0.02 -0.05 -0.04 -0.05 -0.03 -0.04 -0.03 -0.05 -0.05 -0.12 -0.14 -0.04 -0.06 -0.04 -0.04 -0.04 -0.07 -0.03 -0.06 -0.04 -0.08 -0.06 -0.14 -0.02 -0.07 -0.03 -0.09 -0.01 -0.07 -0.01 -0.06 -0.01 -0.07 -0.01 -0.05 -0.01 -0.06 0 -0.09 0.01 -0.2 0.01 -0.1 0.02 -0.1 0.02 -0.11 0.02 -0.06 0.03 -0.1 0.05 -0.13 0.04 -0.09 0.13 -0.24 0.17 -0.25 0.01 -0.01 0 -0.02 0.01 -0.01 0.01 -0.01 0.01 -0.01 0.01 -0.02 0.01 -0.01 0.01 -0.01 0.01 -0.02 0.02 -0.01 0.01 -0.01 0.01 -0.02 0.01 -0.01 0.01 -0.02 0.01 -0.01 0.01 -0.01 0.02 -0.02 0.01 -0.01 0.01 -0.01 0.01 -0.02 0.02 -0.01 0.01 -0.01 0.01 -0.01 0.01 -0.02 0.02 -0.01 0.01 -0.01 0.01 -0.01 0.01 -0.01 0.02 -0.01 0.01 -0.02 0.01 -0.01 0.01 0 0.01 -0.01 0.01 -0.01 0.01 0 0 -0.01 0.01 -0.01 0.01 0 0.01 -0.01 0.01 -0.01 0 0 0.01 -0.01 0.01 0 0.01 -0.01 0.01 0 0 -0.01 0.01 0 0.01 -0.01 0 0 0.01 -0.01 0.01 0 0 0 0.01 -0.01 0 0 0.01 0 0 0 0 0.18 0 0 0 0.01 0 0 0 0.01 0 0.01 0.01 0.01 0 0.01 0 0 -0.01 0.01 0 0 -0.01 0.01 -0.01 0 0 0.01 -0.01 0 -0.01 0.01 -0.01 0.01 -0.01 0.01 -0.01 0.01 -0.01 0.01 -0.01 0.01 -0.01 0.01 -0.02 0.01 -0.01 0.01 -0.01 0.01 -0.01 0.01 -0.01 0.01 -0.01 0.01 -0.01 0.01 -0.01 0.02 -0.01 0.01 -0.02 0.01 -0.01 0.01 -0.01 0.02 -0.01 0.01 -0.01 0.01 -0.01 0.01 -0.01 0.02 -0.01 0.01 -0.01 0.01 -0.01 0.01 -0.01 0.02 -0.01 0.01 -0.01 0.01 -0.01 0.01 0 0.01 -0.01 0.01 -0.01 0.01 -0.16 0.24 -0.12 0.23 -0.04 0.08 -0.04 0.11 -0.03 0.09 -0.02 0.06 -0.02 0.09 -0.01 0.1 -0.01 0.09 -0.01 0.18 0 0.08 0.01 0.05 0 0.05 0.01 0.05 0.01 0.06 0.02 0.07 0.02 0.07 0.02 0.07 0.05 0.12 0.04 0.07 0.02 0.05 0.04 0.06 0.03 0.04 0.03 0.05 0.11 0.11 0.05 0.04 0.03 0.03 0.04 0.03 0.04 0.03 0.03 0.02 0.08 0.04 0.11 0.05 0.17 0.04 0.16 0.01 0.17 -0.02 0.15 -0.04 0.1 -0.04 0.12 -0.06 0.07 -0.05 0.07 -0.05 0.06 -0.05 0.13 -0.13 0.06 -0.08 0.08 -0.11 0.06 -0.12 0.07 -0.17 0.06 -0.18 0.03 -0.16 0.02 -0.15 0 -0.11 0 -0.01 0 0 0 0 0 -0.01 0 0 0 -0.01 0 0 0 -0.01 0 0 0 -0.01 0 0 0 -0.01 0 0 0 -0.01 0 0 -0.01 -0.01 0 0 0 -0.01 0 -0.01 0 0 0 -0.01 0 0 0 -0.01 0 0 -0.01 -0.01 0 -0.01 0 0 0 -0.01 0 0 0 -0.01 0 0 0 -0.01 0 0 -0.01 -0.01 0 -0.01 0 -0.01 0 -0.01 0 -0.01 -0.01 -0.01 0 -0.01 0 0 0 -0.01 0 -0.01 0 -0.01 -0.01 0 0 -0.01 0 0 0 -0.01 0 -0.01 0 0 0 -0.01 -0.01 0 0 -0.01 0 0 0 -0.01 0 0 0 -0.01 0 0 -0.01 -0.01 0 0 0 -0.01 0 -0.01 0 0 -0.01 -0.01 0 0 0 -0.01 0 -0.01 -0.01 -0.01 0 -0.01 0 0 -0.01 -0.01 0 -0.01 0 0 -0.01 -0.01 0 -0.01 0 0 -0.01 -0.01 0 -0.01 0 -0.01 -0.01 0 0 -0.01 0 0 -0.01 -0.01 0 -0.01 0 0 -0.01 -0.01 0 -0.01 0 0 -0.01 -0.01 0 -0.01 -0.01 0 0 -0.01 -0.01 -0.01 0 0 0 -0.01 -0.01 0 -0.05 -0.07 -0.01 -0.02 -0.01 -0.01 -0.01 -0.02 0 -0.01 -0.01 -0.01 0 -0.02 0 -0.01 0 -0.02 0 -0.01 0 -0.02 0 -0.01 0 -0.01 0 -0.01 0.01 -0.02 0 -0.01 0 0 0.01 -0.01 0 -0.01 0 0 0.01 -0.01 0 -0.01 0.01 -0.02 0.01 -0.01 0.02 -0.01 0.02 -0.01 0.02 -0.01 0.02 -0.01 0.02 0 0.02 -0.01 0.02 0.01 0.03 0 0.03 0.01 0.13 0.09 2.57 1.9c0.13,0.03 0.26,0.05 0.38,0.07l-3.06 -2.32 -0.01 -0.01 -0.03 -0.01 -0.02 -0.02 -0.02 -0.01 -0.01 -0.01 -0.02 -0.01 -0.02 -0.01 -0.02 -0.01 -0.01 -0.01 -0.02 -0.01 -0.01 -0.01 -0.02 -0.01 -0.01 -0.01 -0.02 -0.01 -0.02 -0.02 -0.02 0 -0.01 -0.01 -0.01 -0.01 -0.01 -0.01 -0.02 0 -0.01 -0.01 -0.01 -0.01 -0.01 -0.01 -0.02 0 -0.01 -0.01 -0.01 -0.01 -0.01 -0.01 -0.02 0 -0.01 -0.01 -0.02 -0.01 -0.01 -0.01 -0.01 0 0 0 -0.01 -0.01 0 0 -0.01 0 -0.01 -0.01 0 0 -0.01 0 -0.01 -0.01 -0.01 0 0 0 -0.01 -0.01 -0.01 0 -0.01 0 0 -0.01 -0.01 0 -0.01 0 -0.01 -0.01 -0.01 0 0 0 -0.01 -0.01 -0.01 0 -0.01 0 0 -0.01 -0.01 0 -0.01 0 0 0 -0.01 -0.01 -0.01 0 0 -0.01 0 0 0 -0.02 0 -0.01 0.01 -0.03 0 -0.01 0 -0.03 0 -0.02 0 -0.01 0 -0.03 0 -0.01 0 -0.02 0 0 0.01 0 0.01 0 0.02 0.01 0 0 0.01 0 0.01 0 0.01 0.01 0.01 0 0.01 0 0.01 0.01 0.01 0 0.01 0 0 0.01 0.01 0 0.01 0 0.01 0.01 0.01 0 0.01 0.01 0.01 0 0.01 0 0 0.01 0.01 0 0.01 0 0.01 0.01 0.01 0 0.01 0.01 0 0 0.01 0 0.01 0.01 0.01 0 0 0.01 0.01 0 0.01 0 0 0.01 0.02 0 0.02 0.01 0.01 0.01 0.01 0.01 0.02 0.01 0.01 0.01 0.02 0 0.01 0.01 0.01 0.01 0.02 0.01 0.01 0 0.01 0.01 0.01 0.01 0.02 0.01 0.01 0.01 0.01 0 0.02 0.01 0.01 0.01 0.01 0.01 0.02 0.01 0.01 0.01 0.02 0.01 0.01 0.01 0.02 0.01 0.02 0.01 0.01 0.01 0.02 0.01 0.02 0.01 0.02 0.01 0.02 0.02 0.02 0.01 0.03 0.01 2.19 1.68 0.01 -0.09 0.04 -0.57 -0.62 -0.44 0 -0.13c-0.66,-0.17 -1.2,-0.66 -1.42,-1.3l-1.08 0 0 -0.03 0 -0.02 -0.01 -0.03 -0.01 -0.02 -0.01 -0.02 -0.01 -0.02 -0.01 -0.02 -0.02 -0.02 -0.01 -0.01 -0.02 -0.02 -0.02 -0.01 -0.01 -0.02 -0.02 -0.01 -0.02 -0.01 -0.02 -0.01 -0.01 0 -0.02 -0.01 -0.02 -0.01 -0.02 0 -0.02 0 -0.02 -0.01 -0.02 0 -0.01 0 -0.01 0 -0.02 0 -0.02 0.01 -0.01 0 -0.02 0 -0.02 0.01 -0.01 0.01 -0.02 0.01 -0.02 0.01 -0.01 0.01 -0.02 0.01 -0.02 0.01 -0.01 0.01 -0.02 0.02 -0.01 0.01 -0.02 0.02 -0.01 0.02 -0.02 0.02 -0.01 0.02 -0.01 0.02 -0.01 0.02 -0.01 0.03 0 0.03 0 0 -1.21 0 -2.22 4.33 7.04 0 5.97 0 0.03 -0.32 0.01 -0.18 0 -0.28 0.12 0.22 0.07 0.15 0.05 0.13 0.04 0.14 0.23 -0.32c0.02,-0.14 0.04,-0.27 0.06,-0.42l-3.07 -6 -1.55 -3.04c-0.81,-0.29 -1.61,-0.39 -2.36,-0.33l0.4 3.21c0.02,0 0.03,0 0.05,0 0.1,0 0.21,0.01 0.31,0.03l-0.03 -0.07 -0.03 -0.22 0.11 -0.12 0.01 -0.11 -0.1 -0.01 -0.01 -0.17 0.28 0 0.11 -0.31 0.17 -0.05 0.07 -0.3 0.27 -0.06 0.03 -0.11c0.02,-0.06 0.04,-0.11 0.08,-0.18 0.02,-0.03 0.01,-0.05 0.1,-0.06 0.02,0 0.08,0 0.11,0.03l0.1 0.09 0.11 0.11 0.18 0.29 0.13 0.1 0.11 0 0.07 -0.12 -0.12 0 -0.01 -0.08 0.01 -0.02 0.12 -0.02 0.03 -0.01 0 -0.13c-0.02,0.01 -0.05,0.03 -0.09,0.02 -0.01,0 -0.01,-0.01 -0.02,-0.01 -0.09,-0.09 0,-0.18 0.08,-0.21 0.03,0 0.05,0 0.07,0.01l0.07 0.08 0.03 -0.05 0.09 -0.06 0.01 0.14 0.11 0.06 -0.5 0.78 0.08 0.16 0.03 0.16 -0.06 0.14 -0.16 0.12 -0.03 0.27c0,0.04 0.03,0.09 0.07,0.12 0.05,0.03 0.1,0.05 0.17,0.06 0.03,0 0.07,0 0.1,-0.01l0.04 -0.05 -0.04 -0.03 0.07 -0.09 0.43 0.27 -0.09 0.09 -0.05 -0.03 -0.03 0.05 0.57 0.72c0.33,0.58 0.54,1.01 0.55,1.63 0.02,0.53 -0.14,1.05 -0.34,1.58l-0.16 0.42 -0.06 0.14 0.94 1.22 -0.21 0.31 -0.35 0.53 -0.75 0zm-4.79 -4.72c-0.02,-0.09 -0.02,-0.19 -0.02,-0.28 0,-0.3 0.06,-0.59 0.18,-0.85l-1.46 -1.53 -0.26 0.5 -1.1 2.16 2.66 0zm0.39 -1.51c0.29,-0.38 0.7,-0.65 1.18,-0.76l-0.4 -3.21c-0.42,0.06 -0.82,0.18 -1.2,0.34l-1.06 2.07 1.48 1.56zm2.88 -0.36c0.14,0.1 0.26,0.23 0.36,0.37 0.02,-0.04 0.03,-0.08 0.03,-0.13 0,-0.15 -0.11,-0.28 -0.26,-0.28 -0.04,0 -0.09,0.01 -0.13,0.04zm0.72 1.12c0.03,0.14 0.05,0.28 0.05,0.43 0.04,-0.05 0.07,-0.12 0.07,-0.19 0,-0.1 -0.05,-0.19 -0.12,-0.24zm-0.22 1.48c-0.04,0.07 -0.08,0.13 -0.12,0.19l0.03 0.03 -0.12 0.08c-0.35,0.41 -0.85,0.67 -1.41,0.71l0 0.28 2.04 -1.24 0 -0.15 -0.3 -0.15 0.3 0.15 -0.3 0.19 -0.12 -0.09zm-0.61 -2.46c0.13,0.11 0.24,0.23 0.34,0.36 -0.03,0.02 -0.06,0.03 -0.1,0.03 -0.14,0 -0.26,-0.13 -0.26,-0.29 0,-0.03 0.01,-0.06 0.02,-0.1zm-0.33 3.1c-0.13,0.06 -0.26,0.11 -0.4,0.14l0.29 -0.21 0.11 0.07zm0.26 0.62l-0.03 -0.04 -0.94 0.99 0.05 0.04 0.92 -0.99zm0.62 2.17l0.01 0.02 0.02 0.03 0.01 0.02 0.01 0.03 0 0.02 0.01 0.02 0 0.01c0.19,0.02 0.37,0.03 0.54,0.04 0.32,0.01 0.9,0.03 1.2,0.02l0 0 0.31 -0.46 -0.08 0 -0.23 0.32 -0.06 0c-0.61,0 -1.21,-0.03 -1.74,-0.07zm-0.68 -0.07l0.22 0.17c0.1,0.01 0.2,0.02 0.3,0.03l0 0 0 0 -0.21 -0.16c-0.11,-0.02 -0.21,-0.03 -0.31,-0.04zm0.4 -7.95c-0.06,0 -0.12,0.06 -0.12,0.12 0,0.07 0.06,0.13 0.12,0.13 0.06,0 0.11,-0.06 0.11,-0.13 0,-0.06 -0.05,-0.12 -0.11,-0.12zm-0.42 0.5c-0.06,0 -0.12,0.06 -0.12,0.13 0,0.07 0.06,0.12 0.12,0.12 0.06,0 0.11,-0.05 0.11,-0.12 0,-0.07 -0.05,-0.13 -0.11,-0.13zm0.47 0.15c-0.06,0 -0.11,0.05 -0.11,0.12 0,0.07 0.05,0.13 0.11,0.13 0.07,0 0.12,-0.06 0.12,-0.13 0,-0.07 -0.05,-0.12 -0.12,-0.12zm-0.66 3.93l-0.51 0.24 0.06 0.11 0.5 -0.24 -0.05 -0.11zm1.2 0.8l-0.19 -0.2 -0.28 -0.01 0 0.13 0.28 0 0.1 0.12 0.09 0 0 -0.04zm-0.05 -4.48c-0.07,0 -0.12,0.08 -0.12,0.17 0,0.01 0,0.02 0,0.03 0.01,0.07 0.04,-0.06 0.08,-0.05 0,0.01 0.03,0.01 0.04,0.02 0.01,0.06 -0.01,0.18 0,0.18 0.06,0 0.11,-0.08 0.11,-0.18 0,-0.09 -0.05,-0.17 -0.11,-0.17zm-0.13 -0.54l-0.17 0.3 0.04 0.04 0.18 -0.3 -0.05 -0.04zm-0.21 0.69l-0.36 0 0 0.06 0.36 0 0 -0.06zm-0.42 0l-0.36 0 0 0.06 0.36 0 0 -0.06zm-0.28 5.65c-0.01,0.09 -0.06,0.2 -0.1,0.23l-0.13 0.13 0.06 0.05 0.09 -0.07c0.03,-0.02 0.06,-0.06 0.1,-0.14 0.04,-0.07 0.06,-0.11 0.07,-0.21l0.07 -0.84 0 0 -0.09 0.1 -0.07 0.75zm-0.68 -3.58l-0.01 0.04 0 0.02 0.64 0.61 0.03 0 0.03 -0.05 -0.3 -0.28c-0.12,-0.12 -0.24,-0.23 -0.35,-0.35l-0.04 0.01zm-0.01 0.35l0.06 0 -0.06 0zm0.06 0l0.01 0 -0.14 -0.38 -0.08 0.03 0.12 0.35 0 0 0.09 0zm-0.09 0l0.03 0 -0.03 0zm-1 3.8c-0.32,-0.07 -0.62,-0.14 -0.83,-0.17l-0.54 0.29 1.31 0.26c0.26,0.05 0.51,0.1 0.77,0.15l-0.71 -0.53zm0.93 0.71c-0.93,-0.12 -1.86,-0.31 -2.29,-0.43l0.01 0.48 0.71 0 0.07 -0.09c0.24,0.05 0.64,0.14 1.41,0.23l0.46 0.07 -0.37 -0.26zm-7.2 -0.84l-0.01 -0.02 -0.02 -0.03 -0.02 -0.03 -0.01 -0.04 -0.02 -0.03 -0.01 -0.04 -0.02 -0.03 -0.02 -0.03 -0.01 -0.04 -0.02 -0.03 -0.01 -0.04 -0.02 -0.03 -0.01 -0.03 -0.02 -0.04 -0.01 -0.03 -0.02 -0.04 -0.01 -0.03 -0.01 -0.04 -0.02 -0.03 -0.01 -0.04 -0.02 -0.03 -0.01 -0.04 -0.01 -0.03 -0.02 -0.04 -0.01 -0.03 -0.01 -0.04 -0.01 -0.03 -0.02 -0.04 -0.01 -0.04 -0.01 -0.03 -0.75 -0.04 -0.2 -0.82 0.64 -0.41 -0.01 -0.03 -0.01 -0.04 0 -0.04 -0.01 -0.04 0 -0.04 -0.01 -0.04 0 -0.04 -0.01 -0.04 0 -0.04 -0.01 -0.05 0 -0.04 -0.01 -0.04 0 -0.04 0 -0.04 -0.01 -0.04 0 -0.04 0 -0.04 -0.01 -0.04 0 -0.04 0 -0.04 0 -0.05 -0.01 -0.04 0 -0.04 0 -0.04 0 -0.04 0 -0.04 0 -0.04 0 -0.05 0 -0.04 0 -0.04 0 -0.04 0 -0.01 0 0 0 -0.01 0 -0.01 0 0 0 -0.01 0 -0.01 0 0 0 -0.01 0 -0.01 0 0 0 -0.01 0 -0.01 0 0 0 -0.01 0 0 0 -0.01 0 -0.01 0 0 0 -0.01 0 -0.01 0 0 0 -0.01 0 -0.01 0 0 0 -0.01 0 0 -0.7 -0.29 0.09 -0.84 0.74 -0.17 0 -0.02 0.01 -0.05 0.01 -0.05 0.01 -0.05 0.01 -0.04 0.01 -0.05 0.01 -0.05 0.02 -0.05 0.01 -0.04 0.01 -0.05 0.01 -0.05 0.01 -0.04 0.01 -0.05 0.02 -0.05 0.01 -0.04 0.01 -0.05 0.02 -0.05 0.01 -0.04 0.01 -0.05 0.02 -0.04 0.01 -0.05 0.02 -0.05 0.01 -0.04 0.02 -0.05 0.01 -0.04 0.02 -0.05 0.02 -0.04 0.01 -0.05 0.02 -0.04 0.02 -0.05 0 -0.02 -0.55 -0.5 0.37 -0.76 0.76 0.09 0 -0.02 0.03 -0.04 0.02 -0.04 0.03 -0.04 0.02 -0.04 0.03 -0.04 0.02 -0.04 0.03 -0.04 0.03 -0.04 0.02 -0.04 0.03 -0.04 0.03 -0.03 0.02 -0.04 0.03 -0.04 0.03 -0.04 0.02 -0.04 0.03 -0.04 0.03 -0.04 0.03 -0.03 0.03 -0.04 0.03 -0.04 0.03 -0.04 0.03 -0.03 0.02 -0.04 0.03 -0.04 0.03 -0.03 0.03 -0.04 0.03 -0.04 0.04 -0.03 0.03 -0.04 0.03 -0.03 0 -0.01 -0.35 -0.66 0.61 -0.59 0.68 0.34 0.01 -0.01 0.04 -0.03 0.03 -0.03 0.04 -0.03 0.04 -0.03 0.03 -0.02 0.04 -0.03 0.04 -0.03 0.04 -0.03 0.04 -0.03 0.03 -0.03 0.04 -0.02 0.04 -0.03 0.04 -0.03 0.04 -0.03 0.04 -0.02 0.04 -0.03 0.04 -0.02 0.04 -0.03 0.03 -0.03 0.04 -0.02 0.04 -0.03 0.05 -0.02 0.04 -0.03 0.04 -0.02 0.04 -0.03 0.04 -0.02 0.04 -0.03 0.04 -0.02 0.04 -0.02 0.04 -0.03 0 0 -0.1 -0.74 0.77 -0.35 0.53 0.55 0 0 0.05 -0.02 0.04 -0.01 0.05 -0.02 0.04 -0.01 0.05 -0.02 0.04 -0.01 0.05 -0.01 0.04 -0.02 0.05 -0.01 0.04 -0.02 0.05 -0.01 0.05 -0.01 0.04 -0.01 0.05 -0.02 0.05 -0.01 0.04 -0.01 0.05 -0.01 0.04 -0.01 0.05 -0.01 0.05 -0.01 0.05 -0.01 0.04 -0.01 0.05 -0.01 0.05 -0.01 0.04 -0.01 0.05 -0.01 0.05 -0.01 0.05 -0.01 0.04 0 0.05 -0.01 0.16 -0.74 0.47 -0.03 0.46 -0.88c-5.13,0.07 -9.26,4.25 -9.26,9.39 0,1.9 0.57,3.68 1.54,5.16l0.82 -1.54zm0.16 -1.17c0.1,0.29 0.14,0.41 0.19,0.51l0.11 -0.21 -0.03 -0.07 -0.03 -0.08 -0.03 -0.08 -0.03 -0.08 -0.03 -0.09 -0.02 -0.08 -0.03 -0.08 -0.02 -0.09 -0.03 -0.08 -0.02 -0.09 -0.03 -0.08 -0.02 -0.09 -0.02 -0.08 -0.02 -0.09 -0.01 -0.09 -0.02 -0.08 -0.02 -0.09 -0.01 -0.09 -0.02 -0.09 -0.01 -0.08 -0.01 -0.09 -0.01 -0.09 -0.01 -0.09 -0.01 -0.09 -0.01 -0.09 -0.01 -0.09 0 -0.09 0 -0.1 -0.01 -0.09 0 -0.09 0 -0.09 0.01 -0.37 0.03 -0.36 0.04 -0.36 0.07 -0.35 0.07 -0.34 0.1 -0.34 0.11 -0.33 0.13 -0.32 0.14 -0.32 0.16 -0.31 0.17 -0.29 0.19 -0.29 0.2 -0.28 0.21 -0.27 0.22 -0.26 0.24 -0.25 0.24 -0.23 0.26 -0.23 0.27 -0.21 0.28 -0.2 0.29 -0.18 0.3 -0.17 0.31 -0.16 0.31 -0.14 0.33 -0.13 0.33 -0.11 0.33 -0.1 0.35 -0.08 0.35 -0.06 0.36 -0.05 0.36 -0.03 0.36 -0.01 0.05 0.01 0.04 0 0.04 0 0.05 0 0.04 0 0.04 0 0.05 0 0.04 0 0.04 0.01 0.04 0 0.05 0 0.04 0 0.04 0.01 0.04 0 0.05 0 0.04 0.01 0.04 0 0.04 0.01 0.04 0 0.01 0 -0.1 -0.19c-0.2,-0.02 -0.39,-0.04 -0.6,-0.04 -0.16,-0.37 -0.32,-0.74 -0.48,-1.12l-0.58 0.05c-0.09,0.39 -0.17,0.78 -0.26,1.17 -0.41,0.07 -0.79,0.17 -1.17,0.3 -0.28,-0.3 -0.56,-0.59 -0.83,-0.89l-0.53 0.24c0.05,0.4 0.1,0.79 0.14,1.19 -0.41,0.24 -0.61,0.39 -0.84,0.56l0 0 -0.15 0.12c-0.36,-0.18 -0.73,-0.37 -1.09,-0.55l-0.41 0.4c0.19,0.38 0.36,0.71 0.54,1.07 -0.31,0.37 -0.45,0.58 -0.61,0.82l0.01 0 -0.11 0.16c-0.41,-0.05 -0.76,-0.09 -1.2,-0.15l-0.26 0.52c0.36,0.34 0.56,0.53 0.88,0.83 -0.17,0.45 -0.23,0.69 -0.29,0.97l0 0 -0.04 0.19c-0.41,0.09 -0.76,0.17 -1.19,0.27l-0.06 0.57c0.39,0.17 0.73,0.32 1.11,0.48 -0.01,0.48 0.02,0.73 0.05,1.01l0 0 0.03 0.19c-0.35,0.23 -0.65,0.42 -1.02,0.66l0.14 0.56c0.41,0.03 0.79,0.05 1.2,0.07zm-0.37 0.16l0 0.03 0.02 0.03 0.01 0.04 0.01 0.03 0.02 0.04 0.01 0.03 0.01 0.04 0.01 0.03 0.02 0.03 0.01 0.04 0.02 0.03 0.01 0.04 0.01 0.03 0.02 0.03 0.01 0.04 0.02 0.03 0.01 0.03 0.02 0.04 0.01 0.03 0.02 0.03 0.01 0.04 0.02 0.03 0.01 0.03 0.01 0.02 0.11 -0.21c-0.08,-0.16 -0.12,-0.26 -0.22,-0.56l0 -0.01 -0.21 -0.01zm-0.43 -2.63l0 0.01 0 0 0 0.01 0 0.01 0 0 0 0.01 0 0 0 0.01 0 0.01 0 0.01 0 0.01 0 0 0 0.01 0 0.04 0 0.04 0 0.04 0 0.04 0 0.04 0 0.04 0 0.04 0 0.04 0 0.04 0.01 0.04 0 0.04 0 0.04 0 0.04 0.01 0.04 0 0.04 0 0.04 0.01 0.04 0 0.04 0 0.04 0.01 0.04 0 0.04 0.01 0.04 0 0.04 0.01 0.04 0 0.04 0.01 0.04 0 0.04 0.01 0.04 0 0.02 0.18 -0.12c-0.04,-0.31 -0.08,-0.62 -0.07,-1.02l0 -0.01 -0.19 -0.08zm0.48 -2.62l-0.01 0.03 -0.01 0.05 -0.02 0.04 -0.02 0.04 -0.01 0.05 -0.02 0.04 -0.01 0.05 -0.02 0.04 -0.01 0.05 -0.01 0.04 -0.02 0.05 -0.01 0.04 -0.01 0.05 -0.02 0.04 -0.01 0.05 -0.01 0.04 -0.01 0.05 -0.02 0.04 -0.01 0.05 -0.01 0.04 -0.01 0.05 -0.01 0.05 -0.01 0.04 -0.01 0.05 -0.01 0.05 -0.01 0.04 -0.01 0.03 0.22 -0.05c0.07,-0.32 0.13,-0.61 0.28,-0.99l0 0 -0.16 -0.15zm1.36 -2.29l-0.01 0.01 -0.03 0.03 -0.03 0.04 -0.03 0.03 -0.03 0.04 -0.03 0.04 -0.03 0.03 -0.03 0.04 -0.02 0.03 -0.03 0.04 -0.03 0.04 -0.03 0.03 -0.03 0.04 -0.02 0.04 -0.03 0.04 -0.03 0.03 -0.02 0.04 -0.03 0.04 -0.03 0.04 -0.02 0.04 -0.03 0.03 -0.02 0.04 -0.03 0.04 -0.02 0.04 -0.03 0.04 -0.02 0.04 -0.03 0.04 -0.01 0.01 0.22 0.03c0.17,-0.27 0.34,-0.53 0.6,-0.83l0.01 -0.01 -0.1 -0.18zm2.05 -1.7l-0.01 0.01 -0.04 0.02 -0.04 0.02 -0.04 0.03 -0.04 0.02 -0.04 0.02 -0.04 0.03 -0.04 0.02 -0.04 0.03 -0.04 0.02 -0.04 0.03 -0.03 0.02 -0.04 0.03 -0.04 0.02 -0.04 0.03 -0.04 0.03 -0.03 0.02 -0.04 0.03 -0.04 0.03 -0.04 0.02 -0.03 0.03 -0.04 0.03 -0.04 0.03 -0.03 0.02 -0.04 0.03 -0.04 0.03 -0.03 0.03 -0.02 0.01 0.19 0.1c0.26,-0.2 0.5,-0.38 0.86,-0.58l0 0 -0.03 -0.21zm2.51 -0.9l-0.01 0 -0.05 0.01 -0.04 0.01 -0.05 0.01 -0.04 0 -0.05 0.01 -0.05 0.01 -0.04 0.01 -0.05 0.01 -0.04 0.01 -0.05 0.01 -0.04 0.01 -0.05 0.02 -0.05 0.01 -0.04 0.01 -0.05 0.01 -0.04 0.01 -0.05 0.01 -0.04 0.02 -0.04 0.01 -0.05 0.01 -0.04 0.02 -0.05 0.01 -0.04 0.01 -0.05 0.02 -0.04 0.01 -0.04 0.02 -0.01 0 0.14 0.16c0.31,-0.1 0.6,-0.19 1,-0.25l0.01 0 0.04 -0.21zm1.35 -0.31l0.01 0 0.02 0 0.03 0 0.02 0 0.03 0 0.02 0 0.03 0 0.02 0 0.03 0 0.03 0.01 0.02 0 0.03 0 0.02 0 0.03 0 0.01 0 -0.44 -0.86 -0.15 0.28 0.24 0.57zm0.45 0.22l0 0 -0.02 0 -0.03 -0.01 -0.02 0 -0.03 0 -0.02 0 -0.03 0 -0.02 0 -0.03 0 -0.02 0 -0.03 -0.01 -0.02 0 -0.03 0 -0.02 0 -0.03 0 -0.01 0 0.09 0.2c0.13,0 0.26,0.01 0.38,0.02l-0.11 -0.2zm0.44 0.86l-0.03 -0.01 -0.04 0 -0.04 -0.01 -0.04 0 -0.04 -0.01 -0.04 0 -0.04 0 -0.04 -0.01 -0.05 0 -0.04 -0.01 -0.04 0 -0.04 0 -0.04 0 -0.04 -0.01 -0.04 0 -0.04 0 -0.05 0 -0.04 0 -0.04 0 -0.04 0 -0.04 -0.01 -0.04 0 -0.04 0 -0.36 0.01 -0.35 0.03 -0.35 0.04 -0.33 0.06 -0.34 0.08 -0.33 0.09 -0.32 0.11 -0.31 0.13 -0.3 0.13 -0.3 0.16 -0.29 0.16 -0.28 0.18 -0.27 0.19 -0.26 0.21 -0.25 0.22 -0.24 0.22 -0.23 0.24 -0.22 0.25 -0.2 0.26 -0.19 0.27 -0.18 0.28 -0.17 0.29 -0.15 0.3 -0.14 0.31 -0.12 0.31 -0.11 0.32 -0.09 0.33 -0.08 0.33 -0.06 0.34 -0.04 0.34 -0.03 0.35 -0.01 0.36 0 0.09 0 0.09 0 0.09 0.01 0.08 0 0.09 0.01 0.09 0.01 0.09 0.01 0.08 0 0.09 0.02 0.09 0.01 0.08 0.01 0.09 0.01 0.08 0.02 0.09 0.01 0.08 0.02 0.09 0.02 0.08 0.02 0.09 0.02 0.08 0.02 0.08 0.02 0.08 0.02 0.09 0.02 0.08 0.03 0.08 0.03 0.08 0.02 0.08 0.03 0.08 0.03 0.08 0.01 0.04 0.28 -0.53c-1.3,-3.84 1.8,-9.11 7.35,-8.27l-0.23 -0.44zm-4.79 3.23l0.37 0.39 0.66 -1.25c-0.38,0.24 -0.72,0.53 -1.03,0.86zm0.16 0.79l-0.44 -0.46c-0.73,0.93 -1.17,2.13 -1.15,3.46l1.22 -2.31 0.37 -0.69zm3.77 -6.65l3.89 7.34 1.53 2.88 0.12 0.04 0.07 0.04 0.06 0.05 0.05 0.06 0.03 0.06 0.01 -0.09 0.01 -0.17c-0.03,-0.11 -0.06,-0.21 -0.1,-0.33 0.05,0.01 0.08,0.02 0.12,0.09l0.01 -0.24c-0.01,-0.02 -0.02,-0.04 -0.02,-0.07 0,0 0,0 0,0l-0.47 -0.74 0.28 0.13 0.1 0.07 0.05 0.04 -0.05 -0.27 0 0c-0.06,-0.1 -0.11,-0.19 -0.17,-0.31 0.04,0.01 0.07,0.01 0.11,0.05 -0.01,-0.04 -0.01,-0.08 -0.01,-0.1l-0.03 -0.12c-0.04,-0.02 -0.07,-0.05 -0.08,-0.1l-0.19 -0.14 -0.38 -0.28 0.23 0.02 0.1 0.02 0.1 0.04 -0.11 -0.2 -0.04 -0.01 -0.04 -0.01 -0.03 -0.06 -0.02 -0.05 0.03 -0.03 -0.37 -0.62 0.44 0.57 0.02 -0.02 0.02 0.01 0.03 0.03 0.02 0.03 0 0.09 0.15 0.23 0.25 -0.32 -0.02 0.37 0.01 0.23 0.01 0.03c0.01,0.01 0.01,0.03 0.01,0.05 0,0.01 0,0.01 0,0.01l0.04 0.18c0,0.03 0.02,0.09 0.03,0.14 0.03,-0.08 0.07,-0.1 0.12,-0.14 -0.03,0.13 -0.05,0.23 -0.07,0.34l0.07 0.35 0.15 -0.15 0.2 -0.14 -0.28 0.74c0.01,0.01 0.01,0.03 0.01,0.04 0,0.03 -0.01,0.06 -0.03,0.08l-0.02 0.21c0.05,-0.06 0.08,-0.07 0.13,-0.09 -0.06,0.13 -0.1,0.23 -0.15,0.35l0 0 -0.02 0.19c0.1,-0.03 0.17,-0.09 0.3,-0.11 0.18,-0.07 0.25,-0.05 0.38,-0.07 -0.04,0.07 -0.08,0.13 -0.12,0.2 -0.13,0.16 -0.27,0.31 -0.41,0.46l-0.22 0.15 1.08 2.03 -0.02 -0.25c-0.01,-0.31 -0.03,-0.62 -0.04,-0.93l0.04 0.04 0.09 0.11 0.11 0.19 0.08 0.16 0.13 0.26 0.11 -0.17 0.1 -0.19 0.05 -0.13 0 -0.01c0,-0.16 0.01,-0.31 0,-0.5 0.07,0.05 0.11,0.09 0.14,0.17l0.03 -0.09c0.05,-0.11 0.05,-0.23 0.06,-0.41l-0.1 -0.21 -0.38 -0.93 0.31 0.2 0.17 0.16 0.1 0.11 0.09 0.17 0.04 -0.38 -0.01 0c-0.06,-0.16 -0.11,-0.29 -0.19,-0.46 0.1,0.02 0.16,0.03 0.23,0.13 0,-0.15 0.01,-0.43 0.01,-0.46 0,-0.01 0,-0.01 0,-0.02 -0.04,-0.04 -0.07,-0.1 -0.07,-0.17l-0.54 -0.59 -0.38 -0.4c-0.05,-0.05 0.73,0.08 0.94,0.4 -0.01,-0.11 -0.04,-0.38 -0.07,-0.61 -0.1,-0.13 -0.18,-0.25 -0.29,-0.39 0.09,0 0.15,0 0.24,0.06 -0.01,0 -0.01,-0.01 -0.01,-0.01l-0.05 -0.19c-0.04,-0.07 0,-0.17 -0.18,-0.38l-0.19 -0.12 -0.14 -0.1 -0.26 -0.2 -0.37 -0.25 0.24 0 0.21 0.02 0.2 0.05 0.19 0.09 -0.1 -0.19 -0.01 0c-0.14,-0.12 -0.27,-0.22 -0.44,-0.34 0.11,-0.01 0.18,-0.01 0.31,0.05l-0.08 -0.15c-0.01,-0.02 -0.03,-0.04 -0.05,-0.06 -0.12,-0.01 -0.21,-0.12 -0.21,-0.24 0,-0.01 0,-0.02 0,-0.04l-0.23 -0.1 -0.41 -0.2 -0.4 -0.16 0.28 -0.05 0.21 -0.02 0.17 0.01 0.1 0.02 0.1 0.04 -0.32 -0.45c-0.12,-0.05 -0.23,-0.1 -0.37,-0.16 0.08,-0.04 0.12,-0.07 0.22,-0.05l-0.12 -0.17 -1.13 -0.09 0.35 -0.18 0.15 -0.05 0.14 -0.02 0.18 0 -0.36 -0.34 -0.01 0.01c-0.12,-0.03 -0.22,-0.06 -0.36,-0.09 0.06,-0.05 0.09,-0.08 0.19,-0.08l-0.04 -0.03 -0.11 -0.09 -0.89 -0.04c-0.05,0 0.1,-0.04 0.43,-0.19l0.12 -0.06c0,0 -0.05,0.05 -0.08,0.04 -0.28,-0.14 -2,-1 0.09,-0.11 0.02,0.01 0.02,0.04 0.04,0.04 0.04,0.02 -0.05,-0.02 -0.04,-0.04 -0.04,-0.09 0.03,-0.32 0.04,-0.48 0.13,0.23 0.28,0.47 0.44,0.68l0.09 0.09c-0.01,-0.07 0,-0.12 0.02,-0.18 0.06,0.13 0.11,0.24 0.17,0.35l0.29 0.28 -0.01 -0.17 0.02 -0.11 0.11 -0.42 0.27 0.87 0.06 0.26 0.09 0.12c0,-0.07 0.02,-0.12 0.05,-0.19 0.05,0.17 0.09,0.3 0.13,0.44l0 0.01 0.33 0.47 0.02 -0.16 0.07 -0.18 0.11 -0.19 0.16 -0.22 -0.04 1.16c0.08,0.04 0.14,0.12 0.14,0.22 0,0.03 -0.01,0.06 -0.02,0.09 0.01,0.03 0.02,0.05 0.05,0.07l0.08 0.14c0.02,-0.08 0.07,-0.12 0.14,-0.17 0,0.18 0.01,0.32 0.02,0.48l0.09 0.19 0.07 -0.15 0.09 -0.14 0.1 -0.11 0.24 -0.23 -0.11 0.44 -0.04 0.18 -0.04 0.22 -0.05 0.22 -0.04 0.11 0.09 0.38 0.06 0.2 0.01 0.04c0.05,-0.12 0.1,-0.16 0.19,-0.22 -0.05,0.21 -0.08,0.36 -0.12,0.54l-0.01 0.01c0.03,0.15 0.05,0.3 0.06,0.47l0.01 0.09 0.15 -0.2 0.15 -0.13 0.16 -0.12 0.29 -0.17 -0.22 0.45 -0.27 0.61 -0.1 0.2c0,0.02 0,0.04 0,0.06 0,0.08 -0.03,0.15 -0.09,0.19l-0.03 0.44c0.07,-0.09 0.13,-0.11 0.23,-0.14 -0.1,0.18 -0.17,0.32 -0.26,0.48l-0.02 0.35 0.2 -0.12 0.18 -0.07 0.41 -0.09 -0.38 0.39 -0.35 0.37 -0.17 0.15c-0.03,0.05 -0.05,0.09 -0.06,0.13 0,0.02 -0.01,0.04 -0.02,0.05 -0.02,0.06 -0.02,0.1 -0.04,0.17l-0.07 0.19c0.11,-0.06 0.17,-0.05 0.28,-0.05 -0.16,0.13 -0.28,0.23 -0.42,0.34l-0.08 0.17 -0.13 0.3 0.14 -0.04 0.19 -0.03 0.19 0 0.22 0.02 0.29 0.05 -0.55 0.25 -0.6 0.3 -0.26 0.1c0,0.01 0,0.02 0,0.03 0,0.07 -0.02,0.13 -0.07,0.17l0.55 1.04c0.99,-1.49 1.57,-3.28 1.57,-5.2 0,-5.16 -4.16,-9.34 -9.3,-9.39zm7.51 14.91l-1.25 0 -0.11 0.04 -0.16 0.06c-0.13,0.11 -0.17,0.17 -0.27,0.24l-0.22 0.16c0.12,0.01 0.18,0.04 0.26,0.1 -0.2,0.03 -0.35,0.06 -0.52,0.08l-0.27 0.19 -0.4 0.29 -0.18 0.09 0.14 0.05 0.09 0.05 0.07 0.06 0.07 0.08 0.06 0.08 0.04 0.08 0.04 0.09 -0.51 -0.13 -0.45 -0.1 -0.16 -0.05 -0.14 -0.05 -1.98 0.06 -0.42 0.12 -0.52 0.24 -1.29 0.83 -0.15 0.09 0.22 -0.69 2.15 -1.09 0.52 -0.33 0.2 -0.17 0.12 -0.08 0.03 -0.01 0.04 -0.14 0.12 -0.24 -2.8 0 -7.59 0c1.71,2.35 4.48,3.88 7.61,3.88 3.13,0 5.9,-1.53 7.61,-3.88zm-1.84 0l-1.89 0c-0.02,0 -0.03,0.01 -0.05,0.02 0,0 0.02,-0.01 0.04,-0.02l0 0c-0.46,0.29 -0.67,0.41 -0.78,0.49 -0.01,0.01 0.11,-0.06 0.24,0.04 0.03,0.02 0.15,0.12 0.14,0.13 -0.01,0 -0.25,-0.02 -0.43,0 -0.12,0.02 -0.2,-0.02 -0.22,-0.01 -0.07,0.04 -0.15,0.07 -0.18,0.12 -0.1,0.08 -0.17,0.23 -0.03,0.29 0.43,0.05 0.6,0.02 0.73,0.02l0.43 0 0.16 -0.18 0.14 -0.14 0.34 -0.38 0.05 0.19 0 0.1 -0.03 0.1 -0.11 0.21 0.55 -0.34 0.29 -0.21c0.08,-0.12 0.15,-0.24 0.24,-0.39 0.03,0.08 0.05,0.13 0.04,0.2l0.15 -0.1c0.06,-0.05 0.12,-0.1 0.18,-0.14zm-2.46 0l-0.35 0 0 0.03 0 0.06 -0.01 0.06 -0.04 0.08 0.13 -0.06 0.27 -0.17zm3.68 -0.51l-0.15 -0.29c-0.04,0.02 -0.07,0.04 -0.11,0.06l-0.01 0 -0.19 0.27 0.16 -0.03 0.15 -0.01 0.15 0z"/>
   </g>
   <g id="_2701027897216">
    <path class="fil1" d="M10.27 23.88l0.16 -0.46 0.3 0.1 -0.46 1.36 -0.49 -0.16c-0.34,-0.12 -0.46,-0.32 -0.36,-0.61 0.05,-0.14 0.13,-0.23 0.26,-0.28 0.13,-0.06 0.28,-0.05 0.44,0l0.15 0.05zm-0.23 0.66l0.15 -0.42 -0.12 -0.04c-0.17,-0.06 -0.27,-0.02 -0.32,0.13 -0.05,0.14 0.01,0.23 0.17,0.29l0.12 0.04zm-1.58 -1.92l0.33 0.15 -0.04 0.33 0.47 0.21 0.22 -0.25 0.32 0.14 -1.06 1.1 -0.35 -0.15 0.11 -1.53zm0.26 0.74l-0.06 0.5c0,0.04 -0.01,0.08 -0.03,0.13l0.01 0c0.02,-0.03 0.04,-0.07 0.07,-0.1l0.34 -0.38 -0.33 -0.15zm-1.44 -1.53l0.34 0.22 0.02 0.75c0,0.02 -0.01,0.05 -0.02,0.09l0.01 0 0.38 -0.59 0.27 0.18 -0.78 1.21 -0.27 -0.18 0.37 -0.57 0 0c-0.02,0.01 -0.05,0.02 -0.08,0.04l-0.66 0.29 -0.33 -0.21 0.8 -0.31 -0.05 -0.92zm-0.39 -0.33l0.25 0.2 -0.9 1.12 -0.25 -0.2 0.9 -1.12zm-0.27 -0.15l-0.22 0.23c-0.01,-0.08 -0.03,-0.15 -0.06,-0.21 -0.03,-0.07 -0.07,-0.12 -0.12,-0.17 -0.03,-0.03 -0.06,-0.05 -0.09,-0.07 -0.03,-0.02 -0.05,-0.03 -0.07,-0.03 -0.03,-0.01 -0.05,0 -0.07,0 -0.02,0.01 -0.04,0.02 -0.05,0.03 -0.02,0.02 -0.03,0.05 -0.04,0.07 0,0.03 0,0.06 0.01,0.09 0.01,0.04 0.02,0.07 0.03,0.11 0.02,0.04 0.04,0.08 0.05,0.12 0.05,0.12 0.07,0.22 0.07,0.3 -0.01,0.09 -0.05,0.17 -0.11,0.24 -0.06,0.05 -0.11,0.09 -0.17,0.1 -0.06,0.02 -0.12,0.03 -0.18,0.01 -0.06,-0.01 -0.12,-0.03 -0.18,-0.07 -0.07,-0.03 -0.12,-0.08 -0.18,-0.13 -0.05,-0.05 -0.1,-0.1 -0.13,-0.15 -0.04,-0.04 -0.07,-0.09 -0.09,-0.14l0.21 -0.21c0.01,0.02 0.02,0.05 0.03,0.08 0.01,0.03 0.02,0.06 0.04,0.09 0.01,0.02 0.03,0.05 0.05,0.07 0.02,0.03 0.04,0.05 0.06,0.07 0.02,0.02 0.05,0.04 0.08,0.06 0.02,0.01 0.05,0.02 0.07,0.03 0.03,0 0.05,0 0.07,0 0.02,-0.01 0.04,-0.02 0.05,-0.03 0.02,-0.02 0.03,-0.04 0.03,-0.06 0.01,-0.02 0.01,-0.05 0,-0.08 0,-0.03 -0.01,-0.06 -0.03,-0.09 -0.01,-0.04 -0.02,-0.08 -0.04,-0.12 -0.03,-0.06 -0.05,-0.11 -0.06,-0.16 -0.01,-0.05 -0.02,-0.1 -0.02,-0.15 0,-0.05 0.01,-0.09 0.03,-0.14 0.01,-0.04 0.04,-0.08 0.08,-0.12 0.06,-0.06 0.12,-0.1 0.18,-0.12 0.06,-0.02 0.12,-0.02 0.18,-0.01 0.06,0.01 0.12,0.04 0.18,0.08 0.06,0.03 0.12,0.08 0.17,0.13 0.06,0.06 0.11,0.12 0.15,0.17 0.04,0.06 0.07,0.12 0.09,0.18zm-2.4 -0.94l0.26 0.31 0.9 -0.75 0.21 0.25 -0.9 0.75 0.26 0.31 -0.2 0.17 -0.74 -0.87 0.21 -0.17zm0.17 -1.91l0.18 0.3 -0.21 0.25 0.27 0.44 0.32 -0.09 0.19 0.3 -1.5 0.32 -0.2 -0.33 0.95 -1.19zm-0.2 0.75l-0.33 0.39c-0.03,0.02 -0.06,0.05 -0.1,0.08l0 0.01c0.04,-0.02 0.08,-0.03 0.12,-0.04l0.5 -0.13 -0.19 -0.31zm-0.43 -2.13l0.13 0.3 -0.58 0.91c-0.04,0.05 -0.06,0.09 -0.08,0.12l0 0c0.04,-0.03 0.11,-0.06 0.21,-0.1l0.72 -0.32 0.13 0.28 -1.32 0.58 -0.14 -0.32 0.57 -0.88c0.02,-0.04 0.05,-0.07 0.07,-0.11l0 0c-0.03,0.01 -0.09,0.04 -0.17,0.08l-0.73 0.33 -0.13 -0.28 1.32 -0.59zm-0.56 -1.9c0.07,0.09 0.13,0.22 0.16,0.39 0.05,0.21 0.02,0.4 -0.08,0.55 -0.1,0.15 -0.26,0.25 -0.47,0.29 -0.22,0.05 -0.42,0.02 -0.59,-0.09 -0.17,-0.11 -0.28,-0.28 -0.32,-0.5 -0.03,-0.14 -0.04,-0.26 -0.03,-0.36l0.31 -0.06c-0.04,0.1 -0.04,0.22 -0.02,0.34 0.03,0.13 0.1,0.23 0.2,0.29 0.1,0.06 0.22,0.08 0.36,0.05 0.14,-0.03 0.24,-0.09 0.3,-0.18 0.07,-0.1 0.08,-0.21 0.06,-0.34 -0.03,-0.12 -0.08,-0.23 -0.17,-0.32l0.29 -0.06zm-0.01 -0.89c0.02,0.21 -0.04,0.38 -0.16,0.52 -0.13,0.14 -0.3,0.21 -0.51,0.23 -0.23,0.02 -0.42,-0.04 -0.57,-0.16 -0.15,-0.12 -0.23,-0.29 -0.25,-0.51 -0.01,-0.2 0.05,-0.37 0.17,-0.51 0.13,-0.13 0.3,-0.21 0.52,-0.22 0.22,-0.02 0.41,0.03 0.56,0.15 0.15,0.13 0.23,0.29 0.24,0.5zm-1.21 0.07c0.01,0.12 0.06,0.2 0.15,0.26 0.09,0.06 0.2,0.09 0.34,0.08 0.15,-0.01 0.26,-0.05 0.34,-0.12 0.07,-0.08 0.11,-0.17 0.1,-0.27 -0.01,-0.12 -0.05,-0.2 -0.14,-0.26 -0.08,-0.06 -0.2,-0.09 -0.34,-0.08 -0.15,0.01 -0.26,0.05 -0.34,0.12 -0.08,0.07 -0.11,0.16 -0.11,0.27zm0.61 -2.29c0.43,0.04 0.63,0.26 0.59,0.66 -0.03,0.39 -0.26,0.57 -0.68,0.53l-0.83 -0.07 0.03 -0.32 0.83 0.07c0.24,0.02 0.36,-0.06 0.38,-0.24 0.01,-0.18 -0.09,-0.28 -0.32,-0.3l-0.84 -0.07 0.03 -0.33 0.81 0.07zm0.97 -1.55l-0.08 0.32 -1.02 0.36c-0.06,0.02 -0.11,0.03 -0.13,0.04l-0.01 0c0.05,0.01 0.13,0.03 0.23,0.05l0.77 0.19 -0.07 0.3 -1.4 -0.35 0.08 -0.34 0.99 -0.34c0.05,-0.01 0.09,-0.03 0.13,-0.04l0 0c-0.03,-0.01 -0.09,-0.02 -0.19,-0.04l-0.77 -0.2 0.07 -0.29 1.4 0.34zm0.44 -1.33c0.01,0.11 -0.02,0.25 -0.08,0.41 -0.09,0.2 -0.21,0.34 -0.38,0.41 -0.17,0.07 -0.35,0.06 -0.55,-0.02 -0.22,-0.09 -0.36,-0.22 -0.44,-0.41 -0.08,-0.18 -0.08,-0.38 0.01,-0.59 0.05,-0.13 0.11,-0.24 0.18,-0.31l0.29 0.12c-0.09,0.06 -0.16,0.15 -0.21,0.27 -0.05,0.12 -0.05,0.24 0,0.35 0.05,0.11 0.14,0.19 0.27,0.24 0.13,0.06 0.25,0.06 0.36,0.02 0.1,-0.04 0.18,-0.12 0.23,-0.25 0.05,-0.11 0.06,-0.23 0.04,-0.35l0.28 0.11zm0.33 -0.54l-0.15 0.29 -1.27 -0.68 0.15 -0.28 1.27 0.67zm0.63 -1.06l-0.47 0.72 -1.2 -0.79 0.17 -0.27 0.99 0.64 0.29 -0.44 0.22 0.14zm0.9 -1.08c-0.14,0.15 -0.31,0.22 -0.49,0.22 -0.19,0 -0.36,-0.07 -0.52,-0.22 -0.16,-0.16 -0.25,-0.34 -0.26,-0.53 -0.01,-0.19 0.06,-0.36 0.22,-0.52 0.14,-0.15 0.3,-0.22 0.49,-0.22 0.18,0 0.35,0.08 0.51,0.23 0.16,0.16 0.25,0.33 0.26,0.53 0.01,0.19 -0.06,0.36 -0.21,0.51zm-0.86 -0.85c-0.08,0.08 -0.11,0.18 -0.1,0.28 0.02,0.11 0.08,0.21 0.18,0.31 0.1,0.1 0.2,0.15 0.31,0.16 0.11,0.01 0.2,-0.02 0.27,-0.1 0.08,-0.08 0.11,-0.17 0.1,-0.28 -0.01,-0.1 -0.07,-0.2 -0.17,-0.3 -0.11,-0.1 -0.22,-0.16 -0.32,-0.17 -0.1,-0.01 -0.19,0.02 -0.27,0.1zm1.42 -1.3l-0.39 0.32 0.23 0.27 0.36 -0.3 0.17 0.2 -0.36 0.3 0.36 0.43 -0.25 0.21 -0.93 -1.1 0.64 -0.54 0.17 0.21zm1.36 0.37l-0.15 -0.28c0.07,0.02 0.14,0.02 0.22,0 0.07,-0.01 0.13,-0.03 0.19,-0.06 0.04,-0.02 0.07,-0.04 0.09,-0.06 0.02,-0.03 0.04,-0.05 0.05,-0.07 0.02,-0.02 0.02,-0.04 0.02,-0.06 0,-0.02 0,-0.04 -0.01,-0.06 -0.02,-0.02 -0.04,-0.04 -0.06,-0.05 -0.03,-0.01 -0.05,-0.02 -0.09,-0.02 -0.03,-0.01 -0.07,-0.01 -0.11,0 -0.04,0 -0.09,0 -0.13,0.01 -0.13,0.01 -0.23,0 -0.31,-0.03 -0.08,-0.03 -0.14,-0.09 -0.19,-0.17 -0.04,-0.07 -0.05,-0.13 -0.05,-0.19 0,-0.07 0.01,-0.12 0.04,-0.18 0.03,-0.06 0.07,-0.11 0.12,-0.15 0.05,-0.05 0.11,-0.09 0.18,-0.13 0.06,-0.04 0.12,-0.07 0.18,-0.09 0.05,-0.02 0.11,-0.03 0.16,-0.04l0.14 0.27c-0.02,-0.01 -0.05,-0.01 -0.09,-0.01 -0.03,0.01 -0.06,0.01 -0.09,0.02 -0.03,0.01 -0.06,0.02 -0.09,0.03 -0.02,0.01 -0.05,0.02 -0.07,0.03 -0.03,0.02 -0.06,0.04 -0.09,0.06 -0.02,0.02 -0.04,0.04 -0.05,0.06 -0.01,0.02 -0.02,0.05 -0.02,0.07 0,0.02 0.01,0.04 0.02,0.06 0.01,0.02 0.02,0.03 0.04,0.04 0.02,0.02 0.05,0.02 0.08,0.03 0.03,0 0.06,0 0.1,0 0.03,0 0.08,-0.01 0.12,-0.01 0.06,-0.01 0.12,-0.01 0.17,-0.01 0.06,0 0.11,0.01 0.15,0.02 0.05,0.02 0.09,0.04 0.12,0.07 0.04,0.03 0.07,0.07 0.1,0.12 0.04,0.07 0.06,0.14 0.06,0.2 0,0.06 -0.02,0.12 -0.05,0.18 -0.02,0.05 -0.07,0.1 -0.12,0.15 -0.05,0.04 -0.11,0.09 -0.18,0.12 -0.07,0.04 -0.14,0.07 -0.21,0.09 -0.07,0.03 -0.13,0.04 -0.19,0.04zm2.05 -1.01c-0.08,0.09 -0.2,0.17 -0.35,0.24 -0.2,0.09 -0.39,0.1 -0.55,0.03 -0.17,-0.07 -0.3,-0.2 -0.39,-0.4 -0.09,-0.21 -0.1,-0.41 -0.03,-0.6 0.07,-0.18 0.21,-0.32 0.42,-0.42 0.12,-0.05 0.24,-0.09 0.34,-0.09l0.13 0.28c-0.11,-0.01 -0.22,0.01 -0.34,0.06 -0.12,0.05 -0.2,0.14 -0.24,0.25 -0.04,0.11 -0.04,0.23 0.02,0.36 0.06,0.13 0.14,0.22 0.25,0.26 0.1,0.04 0.21,0.04 0.34,-0.02 0.11,-0.05 0.2,-0.12 0.27,-0.22l0.13 0.27zm0.61 -0.15l-0.31 0.1 -0.44 -1.37 0.31 -0.1 0.44 1.37zm1.19 -0.31l-0.84 0.19 -0.32 -1.4 0.8 -0.18 0.06 0.25 -0.49 0.12 0.07 0.31 0.46 -0.11 0.06 0.26 -0.46 0.1 0.08 0.32 0.52 -0.12 0.06 0.26zm1.57 -0.16l-0.33 0.02 -0.65 -0.86c-0.04,-0.05 -0.07,-0.08 -0.08,-0.11l0 0c0,0.05 0.01,0.13 0.02,0.23l0.05 0.79 -0.3 0.02 -0.1 -1.43 0.35 -0.03 0.63 0.84c0.03,0.03 0.05,0.07 0.08,0.11l0 0c-0.01,-0.03 -0.01,-0.1 -0.02,-0.2l-0.05 -0.79 0.3 -0.02 0.1 1.43zm1.41 -1.13l-0.41 -0.01 -0.02 1.17 -0.33 0 0.02 -1.18 -0.41 0 0.01 -0.27 1.14 0.02 0 0.27zm0.51 1.27l-0.32 -0.04 0.18 -1.43 0.32 0.04 -0.18 1.43zm1.43 -0.9l-0.49 -0.1 -0.08 0.34 0.46 0.1 -0.06 0.26 -0.45 -0.1 -0.12 0.55 -0.32 -0.07 0.3 -1.41 0.82 0.18 -0.06 0.25zm0.34 1.34l-0.31 -0.1 0.45 -1.37 0.3 0.1 -0.44 1.37zm1.3 0.5c-0.12,0 -0.25,-0.03 -0.41,-0.1 -0.2,-0.09 -0.33,-0.22 -0.39,-0.39 -0.07,-0.17 -0.05,-0.35 0.04,-0.55 0.09,-0.21 0.23,-0.35 0.42,-0.43 0.19,-0.07 0.38,-0.06 0.59,0.03 0.13,0.06 0.23,0.12 0.3,0.2l-0.12 0.28c-0.07,-0.09 -0.16,-0.16 -0.27,-0.21 -0.12,-0.06 -0.24,-0.06 -0.35,-0.02 -0.11,0.05 -0.19,0.13 -0.25,0.27 -0.06,0.12 -0.07,0.24 -0.03,0.35 0.04,0.11 0.12,0.19 0.24,0.24 0.11,0.05 0.23,0.07 0.35,0.06l-0.12 0.27zm1.82 1.23c-0.03,-0.02 -0.06,-0.04 -0.08,-0.07 -0.02,-0.03 -0.03,-0.05 -0.05,-0.08 -0.01,-0.03 -0.02,-0.06 -0.03,-0.09 -0.01,-0.04 -0.02,-0.07 -0.02,-0.1 -0.03,0 -0.07,0 -0.11,0 -0.04,-0.01 -0.08,-0.01 -0.13,-0.02 -0.05,-0.02 -0.09,-0.03 -0.14,-0.05 -0.05,-0.02 -0.1,-0.05 -0.15,-0.09 -0.07,-0.04 -0.12,-0.09 -0.16,-0.14 -0.05,-0.06 -0.08,-0.11 -0.1,-0.17 -0.01,-0.06 -0.02,-0.12 -0.01,-0.18 0.01,-0.06 0.04,-0.12 0.08,-0.18 0.03,-0.05 0.07,-0.08 0.11,-0.11 0.04,-0.02 0.09,-0.04 0.13,-0.05 0.05,0 0.09,-0.01 0.14,0 0.05,0 0.1,0.01 0.14,0.02 -0.01,-0.02 -0.01,-0.05 -0.02,-0.08 0,-0.03 -0.01,-0.06 -0.01,-0.09 0.01,-0.03 0.01,-0.06 0.02,-0.09 0.01,-0.03 0.02,-0.06 0.04,-0.09 0.03,-0.04 0.06,-0.07 0.11,-0.09 0.04,-0.02 0.08,-0.04 0.13,-0.04 0.05,0 0.1,0.01 0.15,0.03 0.05,0.02 0.1,0.05 0.16,0.08 0.05,0.04 0.09,0.08 0.12,0.12 0.03,0.04 0.06,0.08 0.07,0.13 0.02,0.04 0.02,0.08 0.02,0.13 -0.01,0.04 -0.03,0.08 -0.05,0.12 -0.05,0.06 -0.1,0.1 -0.17,0.12 -0.07,0.02 -0.14,0.02 -0.23,0 0.02,0.03 0.03,0.06 0.05,0.09 0.01,0.04 0.02,0.07 0.03,0.11 0.01,0.03 0.02,0.07 0.02,0.11 0.01,0.04 0.01,0.08 0.01,0.13 0.08,-0.02 0.16,-0.06 0.22,-0.11 0.06,-0.05 0.12,-0.11 0.17,-0.18 0.01,-0.02 0.03,-0.04 0.04,-0.06 0.01,-0.02 0.02,-0.04 0.02,-0.06l0.22 0.15c0,0.02 -0.01,0.04 -0.02,0.06 -0.01,0.02 -0.02,0.04 -0.04,0.06 -0.03,0.06 -0.07,0.1 -0.12,0.15 -0.05,0.04 -0.1,0.08 -0.15,0.11 -0.05,0.03 -0.11,0.06 -0.16,0.08 -0.06,0.02 -0.12,0.03 -0.18,0.05 0.01,0.04 0.02,0.08 0.04,0.12 0.02,0.03 0.04,0.06 0.06,0.08 0.03,0.02 0.06,0.03 0.09,0.04 0.03,0.02 0.06,0.03 0.09,0.03l-0.14 0.2c-0.04,-0.01 -0.07,-0.02 -0.11,-0.04 -0.03,-0.01 -0.07,-0.03 -0.1,-0.06zm-0.56 -0.68c0.03,0.02 0.06,0.04 0.1,0.05 0.03,0.01 0.06,0.02 0.1,0.03 0.03,0.01 0.06,0.01 0.09,0.01 0.03,0.01 0.06,0.01 0.09,0 0,-0.06 0,-0.12 0,-0.17 -0.01,-0.05 -0.02,-0.09 -0.03,-0.13 -0.01,-0.04 -0.03,-0.08 -0.04,-0.11 -0.02,-0.04 -0.04,-0.07 -0.05,-0.1 -0.04,0 -0.07,-0.01 -0.09,-0.01 -0.03,0 -0.06,0.01 -0.09,0.01 -0.03,0.01 -0.06,0.02 -0.08,0.04 -0.03,0.01 -0.05,0.03 -0.07,0.06 -0.02,0.03 -0.03,0.06 -0.04,0.09 0,0.02 0,0.05 0,0.08 0.01,0.03 0.02,0.05 0.04,0.08 0.02,0.02 0.04,0.05 0.07,0.07zm0.67 -0.64c0.02,-0.02 0.02,-0.04 0.03,-0.05 0,-0.02 0,-0.04 -0.01,-0.05 0,-0.02 -0.01,-0.03 -0.02,-0.05 -0.01,-0.01 -0.02,-0.02 -0.04,-0.03 -0.01,-0.02 -0.03,-0.02 -0.05,-0.03 -0.02,0 -0.04,-0.01 -0.06,-0.01 -0.01,0.01 -0.03,0.01 -0.05,0.02 -0.01,0.01 -0.02,0.02 -0.03,0.04 -0.02,0.03 -0.04,0.06 -0.03,0.1 0,0.04 0.01,0.08 0.02,0.11 0.03,0.01 0.05,0.01 0.07,0.02 0.02,0 0.05,0 0.07,-0.01 0.02,0 0.04,-0.01 0.05,-0.02 0.02,-0.01 0.04,-0.02 0.05,-0.04zm0.89 2.24l-0.23 -0.23 1.04 -1 0.22 0.23 -1.03 1zm1.07 1.28l-0.21 -0.26 0.33 -1.03c0.02,-0.06 0.03,-0.1 0.05,-0.13l-0.01 0c-0.03,0.03 -0.09,0.08 -0.17,0.15l-0.62 0.5 -0.19 -0.24 1.12 -0.91 0.22 0.28 -0.32 0.99c-0.02,0.05 -0.03,0.09 -0.05,0.13l0 0c0.03,-0.02 0.08,-0.06 0.15,-0.13l0.62 -0.5 0.19 0.24 -1.11 0.91zm0.19 0.32l1.25 -0.72 0.25 0.44c0.26,0.45 0.18,0.78 -0.22,1.02 -0.2,0.11 -0.39,0.14 -0.57,0.08 -0.19,-0.05 -0.34,-0.18 -0.46,-0.38l-0.25 -0.44zm1.18 -0.31l-0.79 0.46 0.08 0.14c0.07,0.12 0.16,0.19 0.27,0.22 0.12,0.03 0.24,0.01 0.36,-0.07 0.12,-0.06 0.19,-0.15 0.22,-0.26 0.03,-0.11 0.01,-0.23 -0.06,-0.35l-0.08 -0.14zm0.55 2.53c-0.4,0.16 -0.67,0.06 -0.83,-0.32 -0.14,-0.36 -0.02,-0.62 0.37,-0.78l0.77 -0.31 0.12 0.3 -0.77 0.32c-0.22,0.08 -0.29,0.21 -0.22,0.38 0.07,0.17 0.2,0.21 0.41,0.12l0.79 -0.31 0.12 0.3 -0.76 0.3zm-0.48 0.52l0.31 -0.08c-0.03,0.07 -0.05,0.14 -0.06,0.21 0,0.07 0,0.14 0.02,0.21 0.01,0.04 0.02,0.07 0.03,0.1 0.02,0.03 0.04,0.05 0.05,0.07 0.02,0.01 0.04,0.02 0.06,0.03 0.02,0 0.04,0 0.06,0 0.03,-0.01 0.05,-0.02 0.07,-0.04 0.01,-0.02 0.03,-0.05 0.04,-0.08 0.01,-0.03 0.02,-0.07 0.03,-0.11 0.01,-0.04 0.01,-0.08 0.02,-0.13 0.02,-0.12 0.05,-0.22 0.11,-0.29 0.05,-0.07 0.12,-0.11 0.21,-0.14 0.08,-0.02 0.14,-0.02 0.2,0 0.06,0.02 0.11,0.04 0.16,0.09 0.05,0.04 0.09,0.09 0.12,0.15 0.03,0.07 0.06,0.13 0.07,0.21 0.02,0.07 0.03,0.14 0.04,0.19 0,0.06 0,0.12 0,0.17l-0.29 0.07c0.01,-0.03 0.01,-0.05 0.02,-0.08 0.01,-0.04 0.01,-0.07 0.01,-0.1 0,-0.03 0,-0.06 0,-0.09 -0.01,-0.03 -0.01,-0.06 -0.02,-0.08 -0.01,-0.04 -0.02,-0.07 -0.03,-0.1 -0.02,-0.03 -0.03,-0.05 -0.05,-0.06 -0.02,-0.02 -0.04,-0.03 -0.06,-0.04 -0.02,-0.01 -0.04,-0.01 -0.06,0 -0.02,0 -0.04,0.01 -0.06,0.03 -0.01,0.02 -0.03,0.04 -0.04,0.07 -0.01,0.02 -0.02,0.06 -0.02,0.09 -0.01,0.04 -0.02,0.08 -0.03,0.12 -0.01,0.07 -0.02,0.12 -0.03,0.17 -0.02,0.05 -0.04,0.1 -0.06,0.14 -0.03,0.04 -0.06,0.07 -0.1,0.1 -0.04,0.03 -0.08,0.05 -0.14,0.06 -0.08,0.02 -0.15,0.02 -0.21,0.01 -0.06,-0.02 -0.11,-0.05 -0.16,-0.09 -0.04,-0.04 -0.08,-0.1 -0.11,-0.16 -0.03,-0.06 -0.06,-0.13 -0.08,-0.21 -0.01,-0.07 -0.03,-0.15 -0.03,-0.22 -0.01,-0.07 0,-0.14 0.01,-0.19zm1.52 2.09l-0.05 -0.41 -1.17 0.16 -0.04 -0.32 1.16 -0.16 -0.06 -0.41 0.26 -0.03 0.16 1.13 -0.26 0.04zm-1.19 1.6l0.01 -0.37 0.37 -0.22c0.03,-0.01 0.05,-0.03 0.08,-0.05 0.02,-0.01 0.04,-0.03 0.05,-0.04 0.02,-0.02 0.03,-0.03 0.04,-0.05 0.01,-0.02 0.01,-0.04 0.01,-0.06l0.01 -0.08 -0.56 -0.01 0.01 -0.33 1.44 0.03 -0.01 0.51c-0.01,0.35 -0.14,0.52 -0.4,0.52 -0.05,0 -0.1,-0.01 -0.14,-0.03 -0.04,-0.01 -0.08,-0.03 -0.11,-0.06 -0.04,-0.03 -0.06,-0.07 -0.09,-0.11 -0.02,-0.04 -0.04,-0.08 -0.05,-0.13l-0.01 0c-0.01,0.02 -0.02,0.04 -0.03,0.06 -0.02,0.02 -0.04,0.04 -0.06,0.06 -0.02,0.02 -0.04,0.03 -0.06,0.05 -0.03,0.02 -0.05,0.03 -0.07,0.05l-0.43 0.26zm1.21 -0.86l-0.4 -0.01 0 0.14c0,0.07 0.02,0.13 0.06,0.17 0.04,0.04 0.09,0.07 0.15,0.07 0.12,0 0.19,-0.07 0.19,-0.22l0 -0.15zm-1.3 1.37l0.04 -0.32 1.43 0.18 -0.04 0.32 -1.43 -0.18zm-0.3 1.59l0.07 -0.34 0.33 -0.03 0.11 -0.51 -0.29 -0.16 0.07 -0.35 1.3 0.82 -0.08 0.37 -1.51 0.2zm0.66 -0.4l0.51 -0.05c0.04,0 0.08,0 0.13,0.01l0 -0.01c-0.04,-0.01 -0.08,-0.03 -0.12,-0.05l-0.44 -0.26 -0.08 0.36zm-1.04 1.42l0.26 -0.82 1.37 0.45 -0.1 0.3 -1.12 -0.36 -0.16 0.51 -0.25 -0.08zm-0.93 1.79l0.18 -0.33 0.43 -0.02c0.03,0 0.06,0 0.09,0 0.02,0 0.05,-0.01 0.07,-0.01 0.02,-0.01 0.04,-0.02 0.06,-0.03 0.01,-0.01 0.02,-0.02 0.03,-0.04l0.05 -0.08 -0.49 -0.27 0.16 -0.28 1.26 0.7 -0.25 0.45c-0.17,0.3 -0.37,0.39 -0.6,0.27 -0.04,-0.03 -0.08,-0.06 -0.11,-0.09 -0.03,-0.04 -0.05,-0.07 -0.07,-0.11 -0.01,-0.05 -0.02,-0.09 -0.02,-0.14 -0.01,-0.04 0,-0.09 0.01,-0.14l0 0c-0.02,0.01 -0.04,0.03 -0.06,0.04 -0.02,0.01 -0.05,0.01 -0.08,0.02 -0.02,0.01 -0.05,0.01 -0.08,0.02 -0.03,0 -0.05,0 -0.08,0.01l-0.5 0.03zm1.47 -0.2l-0.35 -0.19 -0.07 0.12c-0.03,0.06 -0.04,0.12 -0.03,0.18 0.02,0.06 0.05,0.1 0.1,0.13 0.11,0.06 0.21,0.02 0.28,-0.11l0.07 -0.13zm-2.13 1.02l0.53 -0.68 1.13 0.89 -0.51 0.65 -0.21 -0.16 0.31 -0.4 -0.25 -0.2 -0.29 0.37 -0.2 -0.16 0.29 -0.37 -0.26 -0.2 -0.34 0.42 -0.2 -0.16zm-0.09 0.18l0.23 0.22c-0.07,0.01 -0.14,0.03 -0.21,0.07 -0.06,0.03 -0.12,0.07 -0.16,0.12 -0.03,0.03 -0.05,0.06 -0.07,0.09 -0.01,0.03 -0.02,0.05 -0.03,0.07 0,0.03 0,0.05 0.01,0.07 0,0.02 0.01,0.04 0.03,0.05 0.02,0.02 0.04,0.03 0.07,0.03 0.03,0.01 0.06,0 0.09,0 0.03,-0.01 0.07,-0.02 0.11,-0.04 0.03,-0.01 0.08,-0.03 0.12,-0.05 0.11,-0.05 0.21,-0.07 0.3,-0.07 0.08,0.01 0.16,0.04 0.23,0.11 0.06,0.05 0.09,0.1 0.11,0.16 0.02,0.06 0.02,0.12 0.02,0.18 -0.02,0.06 -0.04,0.13 -0.07,0.19 -0.04,0.06 -0.08,0.12 -0.13,0.17 -0.05,0.06 -0.1,0.1 -0.15,0.14 -0.04,0.04 -0.09,0.06 -0.14,0.09l-0.22 -0.21c0.03,0 0.06,-0.01 0.09,-0.02 0.03,-0.02 0.06,-0.03 0.08,-0.05 0.03,-0.01 0.05,-0.03 0.08,-0.05 0.02,-0.02 0.04,-0.04 0.06,-0.06 0.02,-0.03 0.04,-0.05 0.06,-0.08 0.02,-0.03 0.03,-0.05 0.03,-0.07 0.01,-0.03 0.01,-0.05 0,-0.07 0,-0.02 -0.02,-0.04 -0.03,-0.05 -0.02,-0.02 -0.04,-0.03 -0.06,-0.03 -0.02,-0.01 -0.05,-0.01 -0.08,0 -0.03,0 -0.06,0.01 -0.09,0.03 -0.04,0.01 -0.08,0.03 -0.12,0.04 -0.05,0.03 -0.11,0.05 -0.16,0.07 -0.05,0.01 -0.1,0.02 -0.15,0.02 -0.04,0 -0.09,-0.01 -0.13,-0.03 -0.05,-0.01 -0.09,-0.04 -0.13,-0.08 -0.06,-0.06 -0.1,-0.11 -0.12,-0.17 -0.02,-0.06 -0.02,-0.12 -0.01,-0.18 0.01,-0.06 0.03,-0.13 0.07,-0.19 0.03,-0.06 0.08,-0.12 0.13,-0.17 0.05,-0.06 0.11,-0.11 0.17,-0.15 0.06,-0.05 0.11,-0.08 0.17,-0.1zm-1.59 1.43l0.65 -0.57 0.95 1.09 -0.63 0.55 -0.17 -0.2 0.38 -0.34 -0.21 -0.24 -0.36 0.31 -0.17 -0.2 0.36 -0.31 -0.22 -0.24 -0.41 0.35 -0.17 -0.2zm-1.29 0.87l0.29 -0.2 0.26 0.22 0.43 -0.28 -0.09 -0.33 0.3 -0.19 0.34 1.5 -0.32 0.21 -1.21 -0.93zm0.75 0.19l0.39 0.32c0.03,0.02 0.06,0.05 0.1,0.09l0 0c-0.02,-0.04 -0.03,-0.08 -0.04,-0.12l-0.14 -0.5 -0.31 0.21zm-2.06 0.41l0.33 -0.16 0.36 0.24c0.03,0.02 0.06,0.04 0.08,0.05 0.02,0.01 0.04,0.02 0.07,0.03 0.02,0.01 0.04,0.01 0.06,0.01 0.01,0 0.03,0 0.05,-0.01l0.08 -0.03 -0.23 -0.5 0.29 -0.14 0.61 1.3 -0.47 0.22c-0.31,0.15 -0.53,0.1 -0.64,-0.13 -0.02,-0.05 -0.03,-0.09 -0.03,-0.14 -0.01,-0.04 0,-0.09 0.01,-0.13 0.01,-0.04 0.03,-0.08 0.05,-0.12 0.03,-0.04 0.06,-0.08 0.1,-0.11l0 -0.01c-0.03,0.01 -0.05,0.01 -0.07,0 -0.03,0 -0.05,-0.01 -0.08,-0.02 -0.03,-0.01 -0.05,-0.02 -0.08,-0.04 -0.02,-0.01 -0.04,-0.03 -0.07,-0.04l-0.42 -0.27zm1.3 0.71l-0.17 -0.36 -0.12 0.06c-0.07,0.03 -0.11,0.07 -0.13,0.12 -0.02,0.06 -0.02,0.11 0.01,0.17 0.05,0.11 0.14,0.14 0.28,0.07l0.13 -0.06zm-2.42 -0.28c0.08,-0.08 0.2,-0.15 0.36,-0.2 0.21,-0.08 0.4,-0.07 0.56,0.01 0.16,0.08 0.28,0.23 0.35,0.43 0.07,0.22 0.07,0.42 -0.02,0.6 -0.09,0.18 -0.24,0.31 -0.45,0.38 -0.14,0.05 -0.25,0.07 -0.36,0.07l-0.1 -0.3c0.11,0.03 0.22,0.02 0.34,-0.02 0.13,-0.05 0.22,-0.12 0.27,-0.23 0.05,-0.11 0.05,-0.23 0,-0.37 -0.04,-0.13 -0.12,-0.22 -0.22,-0.27 -0.1,-0.06 -0.21,-0.06 -0.34,-0.02 -0.12,0.04 -0.21,0.11 -0.29,0.2l-0.1 -0.28zm-1.53 0.22l0.31 -0.06 0.12 0.58 0.58 -0.12 -0.11 -0.57 0.32 -0.06 0.27 1.41 -0.32 0.06 -0.1 -0.56 -0.59 0.11 0.11 0.57 -0.32 0.06 -0.27 -1.42z"/>
    <path class="fil0" d="M12.66 24.24l0.21 0.36 0.21 0.36 -0.42 0 -0.42 0 0.21 -0.36 0.21 -0.36zm0.31 0.11l-0.07 0.41 -0.07 0.41 -0.32 -0.26 -0.32 -0.27 0.39 -0.15 0.39 -0.14zm0.17 0.29l-0.32 0.27 -0.32 0.26 -0.07 -0.41 -0.08 -0.41 0.4 0.14 0.39 0.15z"/>
   </g>
   <path class="fil0" d="M13.49 0c7.45,0 13.49,6.04 13.49,13.49 0,7.45 -6.04,13.49 -13.49,13.49 -7.45,0 -13.49,-6.04 -13.49,-13.49 0,-7.45 6.04,-13.49 13.49,-13.49zm0 0.39c7.23,0 13.1,5.87 13.1,13.1 0,7.23 -5.87,13.1 -13.1,13.1 -7.23,0 -13.1,-5.87 -13.1,-13.1 0,-7.23 5.87,-13.1 13.1,-13.1z"/>
  </g>
 </g>
</svg>
