<?xml version="1.0" encoding="UTF-8"?>
<!DOCTYPE svg PUBLIC "-//W3C//DTD SVG 1.1//EN" "http://www.w3.org/Graphics/SVG/1.1/DTD/svg11.dtd">
<!-- Creator: CorelDRAW 2019 (64-Bit) -->
<svg xmlns="http://www.w3.org/2000/svg" xml:space="preserve" width="220px" height="84px" version="1.1" style="shape-rendering:geometricPrecision; text-rendering:geometricPrecision; image-rendering:optimizeQuality; fill-rule:evenodd; clip-rule:evenodd"
viewBox="0 0 572.31 220.12"
 xmlns:xlink="http://www.w3.org/1999/xlink"
 xmlns:xodm="http://www.corel.com/coreldraw/odm/2003">
 <defs>
  <style type="text/css">
   <![CDATA[
    .fil0 {fill:none}
    .fil5 {fill:#F58634}
    .fil1 {fill:#003F49}
    .fil2 {fill:#FEFEFE;fill-rule:nonzero}
    .fil6 {fill:#FEFEFE;fill-rule:nonzero}
    .fil4 {fill:#F58634;fill-rule:nonzero}
    .fil3 {fill:#91D8F7;fill-rule:nonzero}
   ]]>
  </style>
 </defs>
 <g id="Layer_x0020_1">
  <metadata id="CorelCorpID_0Corel-Layer"/>
  <g id="_2699894408336">
   <rect class="fil0" width="572.31" height="220.12"/>
   <g>
    <polygon class="fil1" points="0,22.02 572.31,22.02 572.31,198.1 0,198.1 "/>
    <path class="fil2" d="M264.59 133.23l3.55 0 0 26.26 -3.55 0 0 -26.26zm9.09 -1.06l19.43 19.98 0 -18.92 3.59 0 0 27.48 -19.43 -19.87 0 18.65 -3.59 0 0 -27.32zm26.77 1.06l16.06 0 0 3.58 -6.26 0 0 22.68 -3.55 0 0 -22.68 -6.25 0 0 -3.58zm19.82 0l14.55 0 0 3.58 -11 0 0 6.56 11 0 0 3.55 -11 0 0 9.03 11 0 0 3.54 -14.55 0 0 -26.26zm19.34 0l5.69 0c2.83,0 5.14,0.7 6.92,2.11 1.78,1.41 2.67,3.21 2.67,5.41 0,1.76 -0.58,3.32 -1.73,4.66 -1.15,1.35 -2.96,2.3 -5.41,2.85l7.65 11.23 -4.1 0 -7.3 -10.8 -0.8 0 0 10.8 -3.59 0 0 -26.26zm3.59 3.17l0 9.16c5.28,0.1 7.93,-1.43 7.93,-4.6 0,-1.12 -0.3,-2.02 -0.92,-2.73 -0.62,-0.72 -1.44,-1.2 -2.48,-1.45 -1.02,-0.25 -2.54,-0.38 -4.53,-0.38zm16.76 -4.23l19.42 19.98 0 -18.92 3.59 0 0 27.48 -19.42 -19.87 0 18.65 -3.59 0 0 -27.32zm38.17 0.04l12.41 27.28 -3.75 0 -3.07 -6.72 -11.16 0 -2.99 6.72 -3.73 0 12.29 -27.28zm0 8.23l-4.22 9.34 8.45 0 -4.23 -9.34zm12 -7.21l16.06 0 0 3.58 -6.26 0 0 22.68 -3.55 0 0 -22.68 -6.25 0 0 -3.58zm20.07 0l3.54 0 0 26.26 -3.54 0 0 -26.26zm8.2 12.96c0,-3.79 1.43,-7.04 4.29,-9.75 2.86,-2.7 6.29,-4.06 10.31,-4.06 3.92,0 7.29,1.36 10.12,4.09 2.83,2.73 4.25,5.97 4.25,9.72 0,3.98 -1.4,7.34 -4.2,10.08 -2.79,2.74 -6.23,4.11 -10.3,4.11 -4.01,0 -7.43,-1.38 -10.24,-4.14 -2.82,-2.76 -4.23,-6.11 -4.23,-10.05zm25.16 0.17c0,-2.9 -1.05,-5.34 -3.14,-7.33 -2.09,-1.99 -4.66,-2.98 -7.71,-2.98 -2.9,0 -5.39,1.01 -7.45,3.03 -2.07,2.02 -3.11,4.45 -3.11,7.28 0,2.87 1.06,5.3 3.19,7.29 2.12,1.99 4.73,2.98 7.8,2.98 2.83,0 5.28,-1.01 7.34,-3.04 2.05,-2.03 3.08,-4.44 3.08,-7.23zm8.28 -14.19l19.43 19.98 0 -18.92 3.59 0 0 27.48 -19.43 -19.87 0 18.65 -3.59 0 0 -27.32zm38.17 0.04l12.42 27.28 -3.75 0 -3.08 -6.72 -11.15 0 -2.99 6.72 -3.74 0 12.29 -27.28zm0 8.23l-4.22 9.34 8.45 0 -4.23 -9.34zm16.23 -7.21l3.55 0 0 22.72 8.56 0 0 3.54 -12.11 0 0 -26.26z"/>
    <path class="fil3" d="M100.3 59.06l14.3 0c7.13,0 12.91,1.77 17.39,5.31 4.47,3.54 6.72,8.07 6.72,13.6 0,4.43 -1.45,8.33 -4.35,11.71 -2.9,3.38 -7.43,5.77 -13.59,7.15l19.23 28.25 -10.31 0 -18.35 -27.15 -2.01 0 0 27.15 -9.03 0 0 -66.02zm9.03 7.98l0 23.02c13.28,0.26 19.93,-3.59 19.93,-11.57 0,-2.8 -0.76,-5.08 -2.32,-6.87 -1.55,-1.78 -3.62,-2.99 -6.22,-3.62 -2.58,-0.64 -6.39,-0.96 -11.39,-0.96z"/>
    <path class="fil3" d="M176.59 56.51l31.2 68.57 -9.42 0 -7.74 -16.89 -28.04 0 -7.51 16.89 -9.38 0 30.89 -68.57zm0 20.68l-10.62 23.48 21.25 0 -10.63 -23.48z"/>
    <path class="fil4" d="M276.81 117.25l0 -40.68c0,-2.44 0.78,-4.49 2.32,-6.17 1.55,-1.68 3.53,-2.53 5.98,-2.53 2.37,0 4.33,0.85 5.9,2.55 1.58,1.68 2.36,3.73 2.36,6.15l0 40.68c0,2.39 -0.78,4.4 -2.36,6.05 -1.55,1.62 -3.53,2.44 -5.9,2.44 -2.46,0 -4.46,-0.82 -6,-2.44 -1.54,-1.61 -2.3,-3.65 -2.3,-6.05zm8.3 -54.16c-2.76,0 -5.08,-0.97 -7.01,-2.93 -1.91,-1.97 -2.87,-4.32 -2.87,-7.04 0,-2.73 0.96,-5.06 2.87,-6.99 1.89,-1.93 4.23,-2.88 7.01,-2.88 2.7,0 5.04,0.97 7.02,2.9 1.96,1.93 2.95,4.26 2.95,6.97 0,2.7 -0.99,5.06 -2.95,7.02 -1.98,1.96 -4.32,2.95 -7.02,2.95z"/>
    <polygon class="fil3" points="367.05,56.41 415.88,106.63 415.88,59.06 424.9,59.06 424.9,128.14 376.07,78.19 376.07,125.08 367.05,125.08 "/>
    <path class="fil3" d="M491.75 61.29l0 10.21c-7.11,-3.5 -13.65,-5.24 -19.63,-5.24 -7.68,0 -14.14,2.48 -19.39,7.43 -5.26,4.95 -7.87,11.06 -7.87,18.28 0,7.36 2.69,13.49 8.05,18.41 5.37,4.94 12.11,7.4 20.2,7.4 5.87,0 12.08,-1.86 18.64,-5.56l0 10.32c-5.97,3.18 -12.45,4.77 -19.42,4.77 -10.24,0 -18.98,-3.47 -26.24,-10.38 -7.25,-6.94 -10.87,-15.29 -10.87,-25.07 0,-9.61 3.57,-17.83 10.7,-24.66 7.13,-6.85 15.73,-10.28 25.77,-10.28 6.48,0 13.17,1.45 20.06,4.37z"/>
    <polygon class="fil3" points="501.77,59.06 538.36,59.06 538.36,68.07 510.68,68.07 510.68,84.55 538.36,84.55 538.36,93.47 510.68,93.47 510.68,116.17 538.36,116.17 538.36,125.08 501.77,125.08 "/>
    <path class="fil4" d="M424.9 52.79l-9.02 0c-126.29,-50.19 -142.76,171.88 -315.58,75.76l9.03 0c204.23,85.21 171.51,-140.94 315.57,-75.76z"/>
    <path class="fil3" d="M216.2 59.06l16.01 0c12.68,0 22.11,3.35 28.29,10.05 6.19,6.7 9.28,14.35 9.28,22.96 0,8.67 -3.2,16.35 -9.58,23.02 -6.41,6.67 -15.7,9.99 -27.88,9.99l-16.12 0 0 -66.02zm9 8.81l0 48.3 0.53 0c6.69,0 11.75,-0.3 15.13,-0.9 3.38,-0.61 6.6,-1.93 9.64,-3.97 3.04,-2.05 5.47,-4.74 7.25,-8.12 1.81,-3.36 2.69,-7.07 2.69,-11.11 0,-5.07 -1.43,-9.67 -4.3,-13.8 -2.86,-4.1 -6.29,-6.86 -10.27,-8.28 -4,-1.41 -9.36,-2.12 -16.1,-2.12l-4.57 0z"/>
    <path class="fil3" d="M328.08 56.51l31.21 68.57 -9.44 0 -7.73 -16.89 -28.04 0 -7.52 16.89 -9.37 0 30.89 -68.57zm0 20.68l-10.62 23.48 21.25 0 -10.63 -23.48z"/>
    <polygon class="fil5" points="1.8,59.02 92.88,59.02 92.88,122.94 1.8,122.94 "/>
    <polygon class="fil6" points="264.54,168.41 270.42,168.41 270.42,169.41 265.57,169.41 265.57,172.63 270.38,172.63 270.38,173.63 265.57,173.63 265.57,177.68 270.38,177.68 270.38,178.68 264.54,178.68 "/>
    <path id="1" class="fil6" d="M272.19 178.68l0 -10.27 2.14 0c1.53,0 2.65,0.12 3.34,0.37 1,0.35 1.78,0.95 2.34,1.81 0.56,0.87 0.84,1.89 0.84,3.08 0,1.03 -0.22,1.94 -0.67,2.72 -0.44,0.78 -1.02,1.36 -1.73,1.73 -0.71,0.37 -1.7,0.56 -2.99,0.56l-3.27 0zm0.99 -0.97l1.19 0c1.41,0 2.39,-0.09 2.94,-0.27 0.77,-0.25 1.38,-0.7 1.82,-1.35 0.44,-0.66 0.66,-1.46 0.66,-2.4 0,-0.99 -0.24,-1.84 -0.72,-2.54 -0.47,-0.7 -1.14,-1.19 -1.99,-1.45 -0.64,-0.19 -1.7,-0.29 -3.17,-0.29l-0.73 0 0 8.3z"/>
    <path id="2" class="fil6" d="M282.89 168.41l1.03 0 0 6.2c0,0.74 0.01,1.2 0.04,1.38 0.05,0.4 0.17,0.74 0.35,1.01 0.19,0.28 0.48,0.51 0.86,0.69 0.39,0.18 0.78,0.27 1.17,0.27 0.34,0 0.67,-0.07 0.98,-0.21 0.31,-0.15 0.57,-0.34 0.78,-0.6 0.21,-0.26 0.36,-0.57 0.46,-0.93 0.07,-0.26 0.11,-0.8 0.11,-1.61l0 -6.2 1.02 0 0 6.2c0,0.92 -0.08,1.66 -0.26,2.22 -0.18,0.57 -0.54,1.06 -1.08,1.48 -0.54,0.42 -1.19,0.63 -1.95,0.63 -0.83,0 -1.54,-0.2 -2.14,-0.6 -0.59,-0.39 -0.99,-0.91 -1.19,-1.57 -0.12,-0.4 -0.18,-1.12 -0.18,-2.16l0 -6.2z"/>
    <path id="3" class="fil6" d="M301.78 170.3l-0.81 0.63c-0.45,-0.59 -0.98,-1.03 -1.61,-1.33 -0.62,-0.3 -1.31,-0.45 -2.06,-0.45 -0.82,0 -1.58,0.2 -2.28,0.59 -0.69,0.4 -1.23,0.93 -1.62,1.59 -0.38,0.66 -0.57,1.41 -0.57,2.24 0,1.25 0.43,2.3 1.28,3.14 0.86,0.84 1.94,1.25 3.25,1.25 1.44,0 2.64,-0.56 3.61,-1.68l0.81 0.61c-0.51,0.65 -1.15,1.16 -1.91,1.51 -0.77,0.36 -1.63,0.54 -2.57,0.54 -1.8,0 -3.22,-0.6 -4.25,-1.8 -0.87,-1.01 -1.31,-2.23 -1.31,-3.65 0,-1.51 0.53,-2.77 1.58,-3.8 1.06,-1.03 2.38,-1.54 3.97,-1.54 0.95,0 1.82,0.19 2.59,0.57 0.77,0.38 1.41,0.9 1.9,1.58z"/>
    <path id="4" class="fil6" d="M308.05 168.41l4.79 10.27 -1.1 0 -1.61 -3.38 -4.45 0 -1.59 3.38 -1.15 0 4.85 -10.27 0.26 0zm-0.13 2.15l-1.77 3.74 3.53 0 -1.76 -3.74z"/>
    <polygon id="5" class="fil6" points="313.41,169.41 313.41,168.41 319.03,168.41 319.03,169.41 316.74,169.41 316.74,178.68 315.7,178.68 315.7,169.41 "/>
    <polygon id="6" class="fil6" points="320.37,168.41 321.4,168.41 321.4,178.68 320.37,178.68 "/>
    <path id="7" class="fil6" d="M328.65 168.15c1.55,0 2.86,0.52 3.9,1.56 1.05,1.03 1.57,2.31 1.57,3.83 0,1.51 -0.52,2.78 -1.56,3.83 -1.05,1.04 -2.32,1.57 -3.83,1.57 -1.52,0 -2.8,-0.52 -3.85,-1.57 -1.05,-1.04 -1.57,-2.3 -1.57,-3.78 0,-0.99 0.24,-1.9 0.71,-2.74 0.48,-0.85 1.13,-1.51 1.96,-1.98 0.82,-0.48 1.71,-0.72 2.67,-0.72zm0.04 1c-0.75,0 -1.47,0.2 -2.16,0.6 -0.68,0.39 -1.21,0.92 -1.59,1.59 -0.38,0.68 -0.57,1.42 -0.57,2.25 0,1.22 0.42,2.25 1.26,3.08 0.85,0.85 1.87,1.27 3.06,1.27 0.8,0 1.54,-0.2 2.22,-0.58 0.68,-0.39 1.21,-0.92 1.58,-1.59 0.38,-0.67 0.57,-1.41 0.57,-2.23 0,-0.82 -0.19,-1.55 -0.57,-2.21 -0.37,-0.66 -0.91,-1.19 -1.6,-1.58 -0.69,-0.4 -1.42,-0.6 -2.2,-0.6z"/>
    <polygon id="8" class="fil6" points="336.2,178.68 336.2,168.41 336.42,168.41 343.25,176.27 343.25,168.41 344.28,168.41 344.28,178.68 344.05,178.68 337.26,170.89 337.26,178.68 "/>
    <path id="9" class="fil6" d="M350.97 168.41l4.79 10.27 -1.1 0 -1.6 -3.38 -4.45 0 -1.6 3.38 -1.15 0 4.86 -10.27 0.25 0zm-0.13 2.15l-1.76 3.74 3.52 0 -1.76 -3.74z"/>
    <polygon id="10" class="fil6" points="357.35,168.41 358.38,168.41 358.38,177.68 362.34,177.68 362.34,178.68 357.35,178.68 "/>
    <path id="11" class="fil6" d="M366.86 176.76l0.87 -0.53c0.61,1.14 1.33,1.71 2.13,1.71 0.35,0 0.67,-0.08 0.98,-0.24 0.3,-0.16 0.53,-0.38 0.69,-0.65 0.16,-0.27 0.23,-0.56 0.23,-0.86 0,-0.34 -0.11,-0.68 -0.35,-1.01 -0.32,-0.45 -0.9,-1.01 -1.76,-1.65 -0.86,-0.65 -1.39,-1.11 -1.6,-1.4 -0.37,-0.49 -0.55,-1.01 -0.55,-1.57 0,-0.45 0.11,-0.86 0.32,-1.22 0.22,-0.37 0.52,-0.66 0.91,-0.87 0.39,-0.21 0.82,-0.32 1.27,-0.32 0.49,0 0.94,0.12 1.37,0.36 0.42,0.24 0.87,0.68 1.34,1.32l-0.84 0.64c-0.39,-0.51 -0.72,-0.85 -0.99,-1.02 -0.28,-0.16 -0.58,-0.24 -0.9,-0.24 -0.42,0 -0.76,0.13 -1.02,0.38 -0.27,0.25 -0.4,0.56 -0.4,0.93 0,0.22 0.05,0.43 0.14,0.64 0.09,0.21 0.27,0.44 0.51,0.69 0.14,0.13 0.58,0.47 1.34,1.02 0.89,0.66 1.5,1.25 1.83,1.76 0.33,0.51 0.5,1.03 0.5,1.54 0,0.75 -0.28,1.39 -0.85,1.94 -0.57,0.55 -1.26,0.83 -2.07,0.83 -0.62,0 -1.19,-0.17 -1.7,-0.5 -0.5,-0.34 -0.97,-0.9 -1.4,-1.68z"/>
    <path id="12" class="fil6" d="M375.08 168.41l1.03 0 0 6.2c0,0.74 0.02,1.2 0.05,1.38 0.05,0.4 0.17,0.74 0.35,1.01 0.19,0.28 0.47,0.51 0.86,0.69 0.39,0.18 0.78,0.27 1.17,0.27 0.34,0 0.66,-0.07 0.98,-0.21 0.31,-0.15 0.57,-0.34 0.78,-0.6 0.21,-0.26 0.36,-0.57 0.46,-0.93 0.07,-0.26 0.1,-0.8 0.1,-1.61l0 -6.2 1.03 0 0 6.2c0,0.92 -0.09,1.66 -0.27,2.22 -0.17,0.57 -0.53,1.06 -1.07,1.48 -0.54,0.42 -1.19,0.63 -1.96,0.63 -0.83,0 -1.54,-0.2 -2.13,-0.6 -0.59,-0.39 -0.99,-0.91 -1.19,-1.57 -0.12,-0.4 -0.19,-1.12 -0.19,-2.16l0 -6.2z"/>
    <path id="13" class="fil6" d="M384.41 168.41l2.05 0c1.17,0 1.96,0.05 2.38,0.15 0.58,0.15 1.06,0.44 1.43,0.89 0.38,0.45 0.56,1.02 0.56,1.7 0,0.68 -0.18,1.24 -0.54,1.69 -0.37,0.44 -0.87,0.74 -1.5,0.9 -0.47,0.11 -1.34,0.16 -2.62,0.16l-0.73 0 0 4.78 -1.03 0 0 -10.27zm1.03 1l0 3.49 1.74 0.02c0.7,0 1.22,-0.06 1.55,-0.19 0.32,-0.13 0.58,-0.33 0.77,-0.62 0.18,-0.29 0.27,-0.61 0.27,-0.96 0,-0.34 -0.09,-0.66 -0.27,-0.95 -0.19,-0.28 -0.44,-0.49 -0.74,-0.61 -0.31,-0.12 -0.81,-0.18 -1.5,-0.18l-1.82 0z"/>
    <path id="14" class="fil6" d="M392.88 168.41l2.04 0c1.18,0 1.97,0.05 2.38,0.15 0.59,0.15 1.07,0.44 1.44,0.89 0.38,0.45 0.56,1.02 0.56,1.7 0,0.68 -0.18,1.24 -0.54,1.69 -0.37,0.44 -0.87,0.74 -1.5,0.9 -0.47,0.11 -1.34,0.16 -2.62,0.16l-0.73 0 0 4.78 -1.03 0 0 -10.27zm1.03 1l0 3.49 1.74 0.02c0.7,0 1.22,-0.06 1.54,-0.19 0.33,-0.13 0.59,-0.33 0.77,-0.62 0.19,-0.29 0.28,-0.61 0.28,-0.96 0,-0.34 -0.09,-0.66 -0.28,-0.95 -0.18,-0.28 -0.43,-0.49 -0.74,-0.61 -0.3,-0.12 -0.8,-0.18 -1.5,-0.18l-1.81 0z"/>
    <polygon id="15" class="fil6" points="401.34,168.41 402.37,168.41 402.37,177.68 406.34,177.68 406.34,178.68 401.34,178.68 "/>
    <polygon id="16" class="fil6" points="407.81,168.41 408.84,168.41 408.84,178.68 407.81,178.68 "/>
    <polygon id="17" class="fil6" points="411.2,168.41 417.08,168.41 417.08,169.41 412.23,169.41 412.23,172.63 417.04,172.63 417.04,173.63 412.23,173.63 412.23,177.68 417.04,177.68 417.04,178.68 411.2,178.68 "/>
    <path id="18" class="fil6" d="M417.8 176.76l0.87 -0.53c0.62,1.14 1.33,1.71 2.13,1.71 0.35,0 0.67,-0.08 0.98,-0.24 0.3,-0.16 0.53,-0.38 0.69,-0.65 0.16,-0.27 0.24,-0.56 0.24,-0.86 0,-0.34 -0.12,-0.68 -0.35,-1.01 -0.33,-0.45 -0.91,-1.01 -1.77,-1.65 -0.86,-0.65 -1.39,-1.11 -1.6,-1.4 -0.37,-0.49 -0.55,-1.01 -0.55,-1.57 0,-0.45 0.11,-0.86 0.32,-1.22 0.22,-0.37 0.52,-0.66 0.91,-0.87 0.39,-0.21 0.82,-0.32 1.27,-0.32 0.49,0 0.95,0.12 1.37,0.36 0.42,0.24 0.87,0.68 1.34,1.32l-0.84 0.64c-0.39,-0.51 -0.72,-0.85 -0.99,-1.02 -0.28,-0.16 -0.58,-0.24 -0.9,-0.24 -0.41,0 -0.75,0.13 -1.02,0.38 -0.26,0.25 -0.4,0.56 -0.4,0.93 0,0.22 0.05,0.43 0.14,0.64 0.1,0.21 0.27,0.44 0.51,0.69 0.14,0.13 0.58,0.47 1.34,1.02 0.89,0.66 1.5,1.25 1.83,1.76 0.33,0.51 0.5,1.03 0.5,1.54 0,0.75 -0.28,1.39 -0.85,1.94 -0.56,0.55 -1.25,0.83 -2.06,0.83 -0.63,0 -1.2,-0.17 -1.7,-0.5 -0.51,-0.34 -0.98,-0.9 -1.41,-1.68z"/>
    <path id="19" class="fil6" d="M434.15 168.41l4.79 10.27 -1.1 0 -1.61 -3.38 -4.45 0 -1.59 3.38 -1.15 0 4.85 -10.27 0.26 0zm-0.13 2.15l-1.77 3.74 3.53 0 -1.76 -3.74z"/>
    <polygon id="20" class="fil6" points="440.54,178.68 440.54,168.41 440.76,168.41 447.59,176.27 447.59,168.41 448.62,168.41 448.62,178.68 448.39,178.68 441.6,170.89 441.6,178.68 "/>
    <path id="21" class="fil6" d="M451.11 178.68l0 -10.27 2.13 0c1.53,0 2.65,0.12 3.34,0.37 1,0.35 1.78,0.95 2.34,1.81 0.56,0.87 0.84,1.89 0.84,3.08 0,1.03 -0.22,1.94 -0.67,2.72 -0.44,0.78 -1.02,1.36 -1.73,1.73 -0.71,0.37 -1.7,0.56 -2.98,0.56l-3.27 0zm0.98 -0.97l1.19 0c1.42,0 2.39,-0.09 2.94,-0.27 0.77,-0.25 1.38,-0.7 1.82,-1.35 0.44,-0.66 0.66,-1.46 0.66,-2.4 0,-0.99 -0.24,-1.84 -0.71,-2.54 -0.48,-0.7 -1.15,-1.19 -2,-1.45 -0.64,-0.19 -1.7,-0.29 -3.17,-0.29l-0.73 0 0 8.3z"/>
    <path id="22" class="fil6" d="M464.65 176.76l0.88 -0.53c0.61,1.14 1.32,1.71 2.13,1.71 0.34,0 0.67,-0.08 0.97,-0.24 0.3,-0.16 0.53,-0.38 0.69,-0.65 0.16,-0.27 0.24,-0.56 0.24,-0.86 0,-0.34 -0.12,-0.68 -0.35,-1.01 -0.32,-0.45 -0.91,-1.01 -1.76,-1.65 -0.86,-0.65 -1.4,-1.11 -1.61,-1.4 -0.36,-0.49 -0.54,-1.01 -0.54,-1.57 0,-0.45 0.1,-0.86 0.32,-1.22 0.21,-0.37 0.52,-0.66 0.91,-0.87 0.39,-0.21 0.81,-0.32 1.27,-0.32 0.49,0 0.94,0.12 1.36,0.36 0.42,0.24 0.87,0.68 1.35,1.32l-0.84 0.64c-0.39,-0.51 -0.72,-0.85 -1,-1.02 -0.27,-0.16 -0.57,-0.24 -0.89,-0.24 -0.42,0 -0.76,0.13 -1.02,0.38 -0.27,0.25 -0.4,0.56 -0.4,0.93 0,0.22 0.04,0.43 0.14,0.64 0.09,0.21 0.26,0.44 0.51,0.69 0.13,0.13 0.58,0.47 1.33,1.02 0.89,0.66 1.51,1.25 1.84,1.76 0.33,0.51 0.5,1.03 0.5,1.54 0,0.75 -0.29,1.39 -0.85,1.94 -0.57,0.55 -1.26,0.83 -2.07,0.83 -0.62,0 -1.19,-0.17 -1.7,-0.5 -0.51,-0.34 -0.98,-0.9 -1.41,-1.68z"/>
    <path id="23" class="fil6" d="M477.73 168.15c1.56,0 2.86,0.52 3.91,1.56 1.05,1.03 1.57,2.31 1.57,3.83 0,1.51 -0.52,2.78 -1.57,3.83 -1.04,1.04 -2.32,1.57 -3.82,1.57 -1.52,0 -2.81,-0.52 -3.85,-1.57 -1.05,-1.04 -1.58,-2.3 -1.58,-3.78 0,-0.99 0.24,-1.9 0.72,-2.74 0.48,-0.85 1.13,-1.51 1.95,-1.98 0.82,-0.48 1.72,-0.72 2.67,-0.72zm0.05 1c-0.76,0 -1.48,0.2 -2.16,0.6 -0.68,0.39 -1.21,0.92 -1.6,1.59 -0.38,0.68 -0.57,1.42 -0.57,2.25 0,1.22 0.42,2.25 1.27,3.08 0.85,0.85 1.87,1.27 3.06,1.27 0.8,0 1.54,-0.2 2.21,-0.58 0.68,-0.39 1.21,-0.92 1.59,-1.59 0.38,-0.67 0.57,-1.41 0.57,-2.23 0,-0.82 -0.19,-1.55 -0.57,-2.21 -0.38,-0.66 -0.91,-1.19 -1.6,-1.58 -0.69,-0.4 -1.42,-0.6 -2.2,-0.6z"/>
    <polygon id="24" class="fil6" points="485.27,168.41 486.3,168.41 486.3,177.68 490.26,177.68 490.26,178.68 485.27,178.68 "/>
    <path id="25" class="fil6" d="M491.92 168.41l1.03 0 0 6.2c0,0.74 0.02,1.2 0.04,1.38 0.06,0.4 0.17,0.74 0.36,1.01 0.19,0.28 0.47,0.51 0.86,0.69 0.39,0.18 0.77,0.27 1.17,0.27 0.34,0 0.66,-0.07 0.97,-0.21 0.32,-0.15 0.58,-0.34 0.79,-0.6 0.21,-0.26 0.36,-0.57 0.46,-0.93 0.07,-0.26 0.1,-0.8 0.1,-1.61l0 -6.2 1.03 0 0 6.2c0,0.92 -0.09,1.66 -0.27,2.22 -0.18,0.57 -0.54,1.06 -1.07,1.48 -0.54,0.42 -1.19,0.63 -1.96,0.63 -0.83,0 -1.54,-0.2 -2.13,-0.6 -0.59,-0.39 -0.99,-0.91 -1.19,-1.57 -0.13,-0.4 -0.19,-1.12 -0.19,-2.16l0 -6.2z"/>
    <polygon id="26" class="fil6" points="500.23,169.41 500.23,168.41 505.85,168.41 505.85,169.41 503.57,169.41 503.57,178.68 502.52,178.68 502.52,169.41 "/>
    <polygon id="27" class="fil6" points="507.2,168.41 508.23,168.41 508.23,178.68 507.2,178.68 "/>
    <path id="28" class="fil6" d="M515.47 168.15c1.56,0 2.86,0.52 3.91,1.56 1.04,1.03 1.57,2.31 1.57,3.83 0,1.51 -0.53,2.78 -1.57,3.83 -1.05,1.04 -2.32,1.57 -3.82,1.57 -1.53,0 -2.81,-0.52 -3.86,-1.57 -1.04,-1.04 -1.57,-2.3 -1.57,-3.78 0,-0.99 0.24,-1.9 0.72,-2.74 0.47,-0.85 1.12,-1.51 1.95,-1.98 0.82,-0.48 1.71,-0.72 2.67,-0.72zm0.05 1c-0.76,0 -1.48,0.2 -2.16,0.6 -0.68,0.39 -1.22,0.92 -1.6,1.59 -0.38,0.68 -0.57,1.42 -0.57,2.25 0,1.22 0.42,2.25 1.27,3.08 0.84,0.85 1.86,1.27 3.06,1.27 0.8,0 1.53,-0.2 2.21,-0.58 0.68,-0.39 1.21,-0.92 1.59,-1.59 0.38,-0.67 0.57,-1.41 0.57,-2.23 0,-0.82 -0.19,-1.55 -0.57,-2.21 -0.38,-0.66 -0.92,-1.19 -1.61,-1.58 -0.69,-0.4 -1.42,-0.6 -2.19,-0.6z"/>
    <polygon id="29" class="fil6" points="523.02,178.68 523.02,168.41 523.24,168.41 530.08,176.27 530.08,168.41 531.11,168.41 531.11,178.68 530.87,178.68 524.08,170.89 524.08,178.68 "/>
    <path id="30" class="fil6" d="M532.53 176.76l0.87 -0.53c0.62,1.14 1.33,1.71 2.13,1.71 0.35,0 0.68,-0.08 0.98,-0.24 0.3,-0.16 0.53,-0.38 0.69,-0.65 0.16,-0.27 0.24,-0.56 0.24,-0.86 0,-0.34 -0.12,-0.68 -0.35,-1.01 -0.32,-0.45 -0.91,-1.01 -1.77,-1.65 -0.86,-0.65 -1.39,-1.11 -1.6,-1.4 -0.36,-0.49 -0.55,-1.01 -0.55,-1.57 0,-0.45 0.11,-0.86 0.33,-1.22 0.21,-0.37 0.51,-0.66 0.91,-0.87 0.39,-0.21 0.81,-0.32 1.27,-0.32 0.48,0 0.94,0.12 1.36,0.36 0.42,0.24 0.87,0.68 1.34,1.32l-0.84 0.64c-0.38,-0.51 -0.72,-0.85 -0.99,-1.02 -0.28,-0.16 -0.57,-0.24 -0.89,-0.24 -0.42,0 -0.76,0.13 -1.03,0.38 -0.26,0.25 -0.4,0.56 -0.4,0.93 0,0.22 0.05,0.43 0.14,0.64 0.1,0.21 0.27,0.44 0.52,0.69 0.13,0.13 0.58,0.47 1.33,1.02 0.89,0.66 1.5,1.25 1.84,1.76 0.33,0.51 0.49,1.03 0.49,1.54 0,0.75 -0.28,1.39 -0.85,1.94 -0.56,0.55 -1.25,0.83 -2.06,0.83 -0.63,0 -1.19,-0.17 -1.7,-0.5 -0.51,-0.34 -0.98,-0.9 -1.41,-1.68z"/>
   </g>
  </g>
 </g>
</svg>
