<?xml version="1.0" encoding="UTF-8"?>
<!DOCTYPE svg PUBLIC "-//W3C//DTD SVG 1.1//EN" "http://www.w3.org/Graphics/SVG/1.1/DTD/svg11.dtd">
<!-- Creator: CorelDRAW 2019 (64-Bit) -->
<svg xmlns="http://www.w3.org/2000/svg" xml:space="preserve" width="220px" height="71px" version="1.1" style="shape-rendering:geometricPrecision; text-rendering:geometricPrecision; image-rendering:optimizeQuality; fill-rule:evenodd; clip-rule:evenodd"
viewBox="0 0 35.33 11.35"
 xmlns:xlink="http://www.w3.org/1999/xlink"
 xmlns:xodm="http://www.corel.com/coreldraw/odm/2003">
 <defs>
  <style type="text/css">
   <![CDATA[
    .fil0 {fill:black;fill-rule:nonzero}
    .fil5 {fill:#46AE4D;fill-rule:nonzero}
    .fil16 {fill:#53B351;fill-rule:nonzero}
    .fil8 {fill:#5FB754;fill-rule:nonzero}
    .fil15 {fill:#61B855;fill-rule:nonzero}
    .fil13 {fill:#6DBC5B;fill-rule:nonzero}
    .fil14 {fill:#7AC362;fill-rule:nonzero}
    .fil6 {fill:#7CC363;fill-rule:nonzero}
    .fil10 {fill:#BB1C20;fill-rule:nonzero}
    .fil11 {fill:#CD1D21;fill-rule:nonzero}
    .fil12 {fill:#D51C22;fill-rule:nonzero}
    .fil9 {fill:#DC1C22;fill-rule:nonzero}
    .fil7 {fill:#EC1C23;fill-rule:nonzero}
    .fil4 {fill:#F8C92D;fill-rule:nonzero}
    .fil2 {fill:#F8D03B;fill-rule:nonzero}
    .fil1 {fill:#F8D64F;fill-rule:nonzero}
    .fil3 {fill:#F8DD5D;fill-rule:nonzero}
   ]]>
  </style>
 </defs>
 <g id="Layer_x0020_1">
  <metadata id="CorelCorpID_0Corel-Layer"/>
  <g id="_2700830356992">
   <path class="fil0" d="M14.98 1.56l0.02 1.01 -0.09 0c-0.04,-0.25 -0.15,-0.46 -0.32,-0.61 -0.17,-0.16 -0.35,-0.23 -0.55,-0.23 -0.15,0 -0.27,0.04 -0.36,0.12 -0.09,0.08 -0.13,0.17 -0.13,0.28 0,0.07 0.02,0.12 0.05,0.18 0.04,0.07 0.11,0.14 0.21,0.2 0.07,0.05 0.23,0.14 0.48,0.27 0.36,0.17 0.59,0.33 0.72,0.49 0.12,0.15 0.18,0.33 0.18,0.53 0,0.25 -0.1,0.47 -0.29,0.65 -0.2,0.19 -0.45,0.28 -0.76,0.28 -0.09,0 -0.18,-0.01 -0.27,-0.03 -0.08,-0.02 -0.19,-0.06 -0.32,-0.11 -0.07,-0.03 -0.13,-0.05 -0.17,-0.05 -0.04,0 -0.08,0.02 -0.13,0.05 -0.04,0.03 -0.08,0.07 -0.1,0.14l-0.08 0 0 -1.15 0.08 0c0.06,0.32 0.19,0.57 0.38,0.74 0.18,0.17 0.39,0.25 0.6,0.25 0.17,0 0.3,-0.04 0.4,-0.14 0.1,-0.09 0.15,-0.19 0.15,-0.31 0,-0.07 -0.02,-0.14 -0.06,-0.21 -0.04,-0.07 -0.09,-0.13 -0.17,-0.19 -0.08,-0.06 -0.22,-0.14 -0.41,-0.24 -0.28,-0.13 -0.48,-0.25 -0.6,-0.34 -0.12,-0.1 -0.21,-0.2 -0.27,-0.32 -0.07,-0.12 -0.1,-0.25 -0.1,-0.39 0,-0.24 0.09,-0.45 0.27,-0.62 0.17,-0.17 0.4,-0.25 0.67,-0.25 0.09,0 0.19,0.01 0.28,0.03 0.07,0.02 0.16,0.05 0.26,0.1 0.1,0.05 0.17,0.07 0.21,0.07 0.04,0 0.07,-0.01 0.09,-0.03 0.02,-0.03 0.04,-0.08 0.06,-0.17l0.07 0z"/>
   <path id="1" class="fil0" d="M17.7 3.2l0 0.94c0,0.16 0,0.26 0.02,0.29 0.02,0.04 0.05,0.08 0.1,0.11 0.05,0.03 0.12,0.04 0.2,0.04l0.1 0 0 0.08 -1.58 0 0 -0.08 0.1 0c0.09,0 0.16,-0.02 0.22,-0.05 0.03,-0.02 0.06,-0.05 0.08,-0.11 0.02,-0.03 0.03,-0.13 0.03,-0.28l0 -2c0,-0.15 -0.01,-0.25 -0.03,-0.29 -0.01,-0.04 -0.04,-0.07 -0.09,-0.1 -0.05,-0.03 -0.12,-0.05 -0.21,-0.05l-0.1 0 0 -0.07 1.58 0 0 0.07 -0.1 0c-0.09,0 -0.16,0.02 -0.21,0.05 -0.04,0.02 -0.07,0.06 -0.09,0.11 -0.02,0.04 -0.02,0.13 -0.02,0.28l0 0.86 1.07 0 0 -0.86c0,-0.15 -0.01,-0.25 -0.02,-0.29 -0.02,-0.04 -0.05,-0.07 -0.1,-0.1 -0.05,-0.03 -0.12,-0.05 -0.21,-0.05l-0.09 0 0 -0.07 1.57 0 0 0.07 -0.1 0c-0.08,0 -0.15,0.02 -0.21,0.05 -0.04,0.02 -0.07,0.06 -0.09,0.11 -0.01,0.04 -0.02,0.13 -0.02,0.28l0 2c0,0.16 0.01,0.26 0.02,0.29 0.02,0.04 0.05,0.08 0.1,0.11 0.05,0.03 0.12,0.04 0.2,0.04l0.1 0 0 0.08 -1.57 0 0 -0.08 0.09 0c0.09,0 0.16,-0.02 0.21,-0.05 0.04,-0.02 0.07,-0.05 0.1,-0.11 0.01,-0.03 0.02,-0.13 0.02,-0.28l0 -0.94 -1.07 0z"/>
   <path id="2" class="fil0" d="M22.97 3.79l-1.06 0 -0.13 0.3c-0.04,0.1 -0.06,0.18 -0.06,0.25 0,0.08 0.03,0.15 0.1,0.19 0.04,0.02 0.14,0.04 0.3,0.05l0 0.08 -1.01 0 0 -0.08c0.11,-0.02 0.2,-0.06 0.27,-0.14 0.07,-0.07 0.16,-0.22 0.26,-0.46l1.08 -2.41 0.04 0 1.1 2.48c0.1,0.24 0.19,0.39 0.25,0.45 0.05,0.05 0.13,0.07 0.22,0.08l0 0.08 -1.47 0 0 -0.08 0.06 0c0.12,0 0.2,-0.02 0.25,-0.05 0.03,-0.02 0.05,-0.06 0.05,-0.1 0,-0.03 0,-0.06 -0.01,-0.09 -0.01,-0.01 -0.03,-0.07 -0.07,-0.17l-0.17 -0.38zm-0.07 -0.16l-0.45 -1.03 -0.46 1.03 0.91 0z"/>
   <path id="3" class="fil0" d="M26.67 3.28l0 0.85c0,0.17 0.01,0.27 0.03,0.31 0.02,0.04 0.05,0.08 0.1,0.1 0.06,0.03 0.15,0.04 0.29,0.04l0 0.08 -1.55 0 0 -0.08c0.14,0 0.23,-0.01 0.28,-0.04 0.05,-0.02 0.09,-0.06 0.11,-0.1 0.02,-0.04 0.03,-0.14 0.03,-0.31l0 -1.98c0,-0.16 -0.01,-0.26 -0.03,-0.31 -0.02,-0.04 -0.06,-0.07 -0.11,-0.1 -0.05,-0.02 -0.14,-0.04 -0.28,-0.04l0 -0.07 1.41 0c0.36,0 0.63,0.02 0.8,0.07 0.17,0.05 0.31,0.15 0.42,0.28 0.1,0.14 0.16,0.3 0.16,0.48 0,0.23 -0.08,0.41 -0.24,0.56 -0.11,0.09 -0.25,0.16 -0.44,0.21l0.73 1.02c0.1,0.14 0.16,0.22 0.21,0.25 0.06,0.05 0.13,0.07 0.21,0.08l0 0.08 -0.96 0 -0.97 -1.38 -0.2 0zm0 -1.48l0 1.32 0.12 0c0.21,0 0.37,-0.02 0.47,-0.06 0.1,-0.04 0.18,-0.11 0.24,-0.2 0.06,-0.1 0.09,-0.23 0.09,-0.39 0,-0.23 -0.05,-0.4 -0.16,-0.51 -0.11,-0.11 -0.28,-0.16 -0.52,-0.16l-0.24 0z"/>
   <path id="4" class="fil0" d="M31.49 4.58l0 0.08 -1.57 0 0 -0.08 0.1 0c0.08,0 0.16,-0.02 0.21,-0.05 0.04,-0.02 0.07,-0.05 0.09,-0.11 0.01,-0.03 0.02,-0.13 0.02,-0.28l0 -2c0,-0.15 -0.01,-0.25 -0.02,-0.29 -0.02,-0.04 -0.05,-0.07 -0.1,-0.1 -0.05,-0.03 -0.12,-0.05 -0.2,-0.05l-0.1 0 0 -0.07 1.57 0 0 0.07 -0.09 0c-0.09,0 -0.16,0.02 -0.22,0.05 -0.03,0.02 -0.06,0.06 -0.09,0.11 -0.01,0.04 -0.02,0.13 -0.02,0.28l0 2c0,0.16 0.01,0.26 0.02,0.29 0.02,0.04 0.06,0.08 0.1,0.11 0.05,0.03 0.12,0.04 0.21,0.04l0.09 0z"/>
   <path id="5" class="fil0" d="M33.94 1.8l0 1.25 0.08 0c0.14,0 0.25,-0.02 0.33,-0.06 0.09,-0.04 0.16,-0.11 0.22,-0.2 0.05,-0.1 0.09,-0.23 0.11,-0.39l0.08 0 0 1.52 -0.08 0c-0.03,-0.29 -0.1,-0.48 -0.23,-0.57 -0.13,-0.09 -0.27,-0.14 -0.43,-0.14l-0.08 0 0 0.93c0,0.16 0,0.26 0.02,0.29 0.02,0.04 0.05,0.08 0.1,0.11 0.05,0.03 0.12,0.04 0.2,0.04l0.1 0 0 0.08 -1.58 0 0 -0.08 0.1 0c0.09,0 0.16,-0.02 0.21,-0.05 0.04,-0.02 0.07,-0.05 0.09,-0.11 0.02,-0.03 0.03,-0.13 0.03,-0.28l0 -2c0,-0.15 -0.01,-0.25 -0.03,-0.29 -0.01,-0.04 -0.05,-0.07 -0.1,-0.1 -0.05,-0.03 -0.11,-0.05 -0.2,-0.05l-0.1 0 0 -0.07 2.55 0 0 0.86 -0.09 0c-0.02,-0.2 -0.07,-0.35 -0.16,-0.45 -0.08,-0.1 -0.21,-0.17 -0.37,-0.21 -0.09,-0.02 -0.25,-0.03 -0.5,-0.03l-0.27 0z"/>
   <path id="6" class="fil0" d="M16.91 6.62l0 1.07 -0.08 0c-0.1,-0.29 -0.25,-0.51 -0.45,-0.66 -0.2,-0.15 -0.42,-0.23 -0.66,-0.23 -0.22,0 -0.41,0.06 -0.56,0.19 -0.15,0.13 -0.26,0.31 -0.32,0.53 -0.07,0.23 -0.1,0.46 -0.1,0.7 0,0.29 0.04,0.55 0.11,0.77 0.06,0.22 0.17,0.38 0.33,0.48 0.15,0.1 0.33,0.15 0.54,0.15 0.07,0 0.15,-0.01 0.22,-0.02 0.08,-0.02 0.16,-0.04 0.24,-0.07l0 -0.63c0,-0.12 -0.01,-0.2 -0.02,-0.23 -0.02,-0.04 -0.06,-0.07 -0.11,-0.1 -0.05,-0.03 -0.11,-0.04 -0.18,-0.04l-0.08 0 0 -0.08 1.47 0 0 0.08c-0.11,0.01 -0.19,0.02 -0.23,0.05 -0.04,0.02 -0.08,0.06 -0.1,0.11 -0.02,0.03 -0.02,0.1 -0.02,0.21l0 0.63c-0.2,0.09 -0.4,0.15 -0.61,0.2 -0.21,0.04 -0.42,0.06 -0.65,0.06 -0.28,0 -0.52,-0.04 -0.71,-0.12 -0.19,-0.07 -0.36,-0.18 -0.51,-0.3 -0.14,-0.13 -0.25,-0.27 -0.34,-0.43 -0.1,-0.21 -0.15,-0.44 -0.15,-0.69 0,-0.46 0.16,-0.84 0.48,-1.16 0.32,-0.31 0.72,-0.47 1.21,-0.47 0.15,0 0.28,0.01 0.41,0.04 0.06,0.01 0.17,0.04 0.31,0.1 0.15,0.05 0.24,0.08 0.26,0.08 0.05,0 0.08,-0.01 0.12,-0.04 0.04,-0.03 0.07,-0.09 0.1,-0.18l0.08 0z"/>
   <path id="7" class="fil0" d="M19.6 8.34l0 0.86c0,0.16 0.01,0.26 0.03,0.31 0.02,0.04 0.05,0.07 0.1,0.1 0.05,0.02 0.15,0.03 0.29,0.03l0 0.08 -1.55 0 0 -0.08c0.14,0 0.23,-0.01 0.28,-0.03 0.05,-0.03 0.09,-0.06 0.11,-0.11 0.02,-0.04 0.03,-0.14 0.03,-0.3l0 -1.98c0,-0.17 -0.01,-0.27 -0.03,-0.31 -0.02,-0.04 -0.06,-0.08 -0.11,-0.1 -0.05,-0.03 -0.14,-0.04 -0.28,-0.04l0 -0.08 1.41 0c0.36,0 0.63,0.03 0.8,0.08 0.17,0.05 0.31,0.14 0.42,0.28 0.1,0.13 0.16,0.29 0.16,0.48 0,0.22 -0.08,0.41 -0.24,0.55 -0.11,0.1 -0.25,0.17 -0.44,0.21l0.73 1.03c0.1,0.13 0.16,0.21 0.2,0.24 0.07,0.05 0.14,0.08 0.22,0.08l0 0.08 -0.96 0 -0.97 -1.38 -0.2 0zm0 -1.48l0 1.32 0.12 0c0.21,0 0.37,-0.02 0.47,-0.05 0.1,-0.04 0.18,-0.11 0.24,-0.21 0.06,-0.1 0.09,-0.23 0.09,-0.39 0,-0.23 -0.05,-0.4 -0.16,-0.51 -0.11,-0.11 -0.28,-0.16 -0.52,-0.16l-0.24 0z"/>
   <path id="8" class="fil0" d="M24.52 6.65c0.48,-0.01 0.87,0.13 1.18,0.43 0.3,0.3 0.45,0.67 0.45,1.12 0,0.38 -0.11,0.72 -0.34,1.01 -0.3,0.39 -0.72,0.58 -1.26,0.58 -0.55,0 -0.97,-0.18 -1.27,-0.55 -0.23,-0.29 -0.35,-0.64 -0.35,-1.04 0,-0.45 0.15,-0.82 0.46,-1.12 0.3,-0.3 0.68,-0.44 1.13,-0.43zm0.03 0.15c-0.28,0 -0.49,0.14 -0.64,0.42 -0.12,0.23 -0.18,0.56 -0.18,1 0,0.51 0.09,0.9 0.28,1.14 0.12,0.18 0.3,0.26 0.53,0.26 0.15,0 0.28,-0.04 0.39,-0.11 0.13,-0.09 0.23,-0.25 0.3,-0.46 0.08,-0.2 0.11,-0.48 0.11,-0.81 0,-0.4 -0.03,-0.7 -0.11,-0.9 -0.07,-0.2 -0.17,-0.34 -0.28,-0.42 -0.12,-0.08 -0.25,-0.12 -0.4,-0.12z"/>
   <path id="9" class="fil0" d="M27.49 6.69l1.56 0 0 0.08 -0.08 0c-0.11,0 -0.19,0.01 -0.24,0.04 -0.04,0.02 -0.07,0.05 -0.09,0.1 -0.02,0.04 -0.03,0.15 -0.03,0.32l0 1.49c0,0.27 0.02,0.45 0.06,0.54 0.04,0.08 0.11,0.16 0.2,0.22 0.1,0.05 0.22,0.08 0.36,0.08 0.16,0 0.3,-0.03 0.42,-0.11 0.11,-0.07 0.2,-0.17 0.25,-0.3 0.06,-0.13 0.09,-0.36 0.09,-0.68l0 -1.24c0,-0.13 -0.01,-0.23 -0.04,-0.29 -0.03,-0.06 -0.07,-0.1 -0.11,-0.12 -0.07,-0.03 -0.16,-0.05 -0.28,-0.05l0 -0.08 1.04 0 0 0.08 -0.06 0c-0.08,0 -0.15,0.02 -0.21,0.05 -0.06,0.03 -0.1,0.09 -0.12,0.16 -0.02,0.04 -0.03,0.13 -0.03,0.25l0 1.16c0,0.35 -0.03,0.61 -0.07,0.77 -0.05,0.15 -0.16,0.3 -0.34,0.43 -0.19,0.14 -0.43,0.2 -0.75,0.2 -0.26,0 -0.46,-0.03 -0.6,-0.1 -0.2,-0.1 -0.34,-0.22 -0.42,-0.37 -0.08,-0.15 -0.12,-0.35 -0.12,-0.6l0 -1.49c0,-0.17 -0.01,-0.28 -0.03,-0.32 -0.02,-0.05 -0.05,-0.08 -0.1,-0.11 -0.05,-0.02 -0.13,-0.03 -0.26,-0.03l0 -0.08z"/>
   <path id="10" class="fil0" d="M32.99 8.35l0 0.84c0,0.17 0.01,0.27 0.03,0.31 0.02,0.05 0.06,0.08 0.11,0.11 0.05,0.02 0.15,0.03 0.28,0.03l0 0.08 -1.54 0 0 -0.08c0.14,0 0.24,-0.01 0.29,-0.03 0.05,-0.03 0.08,-0.06 0.1,-0.11 0.02,-0.04 0.03,-0.14 0.03,-0.31l0 -1.97c0,-0.16 -0.01,-0.27 -0.03,-0.31 -0.02,-0.04 -0.05,-0.08 -0.1,-0.1 -0.05,-0.03 -0.15,-0.04 -0.29,-0.04l0 -0.08 1.32 0c0.44,0 0.75,0.08 0.94,0.23 0.19,0.16 0.29,0.35 0.29,0.58 0,0.2 -0.07,0.37 -0.19,0.51 -0.12,0.14 -0.29,0.24 -0.5,0.29 -0.15,0.03 -0.39,0.05 -0.74,0.05zm0 -1.49l0 1.32c0.05,0 0.09,0 0.12,0 0.18,0 0.32,-0.05 0.42,-0.16 0.1,-0.11 0.14,-0.28 0.14,-0.5 0,-0.23 -0.04,-0.39 -0.14,-0.5 -0.1,-0.1 -0.25,-0.16 -0.44,-0.16l-0.1 0z"/>
   <g>
    <path class="fil1" d="M2.1 1.21c0.92,-0.75 2.08,-1.16 3.26,-1.21 0,0.88 0,1.76 0,2.65 -0.2,0.03 -0.41,0.07 -0.61,0.1 -0.26,-0.44 -0.51,-0.89 -0.78,-1.33 0.13,0.49 0.3,0.98 0.45,1.46 -0.21,0.13 -0.42,0.26 -0.62,0.4 -0.57,-0.69 -1.14,-1.37 -1.7,-2.07z"/>
    <path class="fil2" d="M5.67 0c1.24,0 2.48,0.43 3.43,1.23 -0.61,0.67 -1.21,1.33 -1.82,2 -0.2,-0.13 -0.41,-0.25 -0.61,-0.38 0.14,-0.43 0.29,-0.85 0.37,-1.3 -0.21,0.4 -0.4,0.81 -0.62,1.21 -0.25,-0.05 -0.5,-0.09 -0.75,-0.13 0,-0.87 0.01,-1.75 0,-2.63z"/>
    <path class="fil3" d="M0.11 4.3c0.33,-1.04 0.9,-2.01 1.67,-2.79 0.6,0.66 1.2,1.31 1.8,1.96 -0.16,0.19 -0.32,0.38 -0.47,0.57 -0.43,-0.23 -0.86,-0.46 -1.3,-0.66 0.38,0.3 0.78,0.57 1.17,0.86 -0.11,0.21 -0.22,0.42 -0.33,0.63 -0.85,-0.17 -1.69,-0.38 -2.54,-0.57z"/>
    <path class="fil4" d="M7.55 3.45c0.61,-0.65 1.21,-1.32 1.83,-1.97 0.76,0.79 1.35,1.76 1.63,2.82 -0.83,0.19 -1.65,0.42 -2.49,0.56 -0.11,-0.22 -0.23,-0.43 -0.34,-0.65 0.38,-0.31 0.77,-0.62 1.14,-0.96 -0.45,0.22 -0.89,0.47 -1.33,0.7 -0.15,-0.17 -0.29,-0.34 -0.44,-0.5z"/>
    <path class="fil5" d="M0.1 4.6c1.03,0.09 2.03,0.43 2.98,0.86 -0.18,0.75 -0.44,1.49 -0.67,2.23l0 0.03c-0.24,-0.29 -0.48,-0.57 -0.69,-0.87 -0.49,-0.78 -1.09,-1.49 -1.62,-2.25z"/>
    <path class="fil6" d="M2.01 9.99c-1.52,-1.3 -2.3,-3.41 -1.91,-5.39 0.53,0.76 1.13,1.47 1.62,2.25 0.13,0.27 0.26,0.54 0.41,0.8 -0.05,0.78 -0.01,1.57 -0.12,2.34z"/>
    <path class="fil7" d="M9.77 4.95c0.46,-0.13 0.92,-0.24 1.38,-0.34 0.04,0.36 0.07,0.73 0.08,1.09 -0.22,0.07 -0.44,0.15 -0.66,0.22 -0.26,-0.33 -0.53,-0.65 -0.8,-0.97z"/>
    <path class="fil7" d="M8.53 5.36c0.35,-0.12 0.69,-0.24 1.04,-0.36 0.29,0.33 0.56,0.66 0.83,0.99 -0.31,0.15 -0.62,0.3 -0.92,0.46 -0.3,-0.38 -0.61,-0.75 -0.95,-1.09z"/>
    <path class="fil7" d="M7.18 8.45c0.35,-0.34 0.72,-0.65 1.09,-0.96 0.5,0.63 0.93,1.32 1.3,2.04 -0.38,0.39 -0.78,0.75 -1.21,1.07 -0.36,-0.73 -0.76,-1.45 -1.18,-2.15z"/>
    <path class="fil8" d="M3.08 5.46c0.84,0.39 1.64,0.87 2.36,1.47l-0.02 0.02c-0.47,0.75 -0.63,1.64 -0.91,2.46 -0.77,-0.48 -1.49,-1.04 -2.1,-1.72 0.23,-0.74 0.49,-1.48 0.67,-2.23z"/>
    <path class="fil9" d="M7.23 5.94c0.37,-0.18 0.73,-0.35 1.11,-0.51 0.35,0.35 0.68,0.72 0.98,1.12 -0.34,0.22 -0.68,0.45 -1.01,0.69 -0.35,-0.45 -0.71,-0.87 -1.08,-1.3z"/>
    <path class="fil10" d="M10.69 6.08c0.18,-0.06 0.35,-0.12 0.53,-0.18 -0.02,0.26 -0.05,0.52 -0.07,0.77 -0.16,-0.19 -0.31,-0.39 -0.46,-0.59z"/>
    <path class="fil10" d="M9.58 6.6c0.31,-0.16 0.62,-0.31 0.93,-0.46 0.2,0.27 0.39,0.54 0.58,0.81 -0.11,0.45 -0.28,0.88 -0.51,1.28 -0.31,-0.55 -0.63,-1.1 -1,-1.63z"/>
    <path class="fil11" d="M5.91 6.86c0.36,-0.3 0.74,-0.58 1.14,-0.82 0.39,0.42 0.76,0.86 1.12,1.3 -0.37,0.3 -0.73,0.62 -1.08,0.95 -0.34,-0.52 -0.68,-1.05 -1.18,-1.43z"/>
    <path class="fil12" d="M8.42 7.39c0.32,-0.25 0.66,-0.48 1.01,-0.69 0.38,0.54 0.71,1.11 1.03,1.7 -0.23,0.34 -0.48,0.67 -0.76,0.98 -0.37,-0.7 -0.79,-1.37 -1.28,-1.99z"/>
    <path class="fil13" d="M4.51 9.41c0.28,-0.82 0.44,-1.71 0.91,-2.46 0.4,0.36 0.76,0.75 1.08,1.17 -0.34,0.62 -0.53,1.29 -0.75,1.95 -0.42,-0.2 -0.83,-0.42 -1.24,-0.66z"/>
    <path class="fil13" d="M2.13 7.65c0.4,0.54 0.88,1.03 1.41,1.45 0.02,0.62 -0.01,1.23 -0.1,1.84 -0.52,-0.22 -0.99,-0.55 -1.44,-0.9l0.01 -0.05c0.11,-0.77 0.07,-1.56 0.12,-2.34z"/>
    <path class="fil14" d="M5.75 10.07c0.22,-0.66 0.41,-1.33 0.75,-1.95 0.6,0.83 1.17,1.72 1.51,2.7 -0.78,-0.19 -1.53,-0.44 -2.26,-0.75z"/>
    <path class="fil15" d="M3.54 9.1c0.51,0.39 1.05,0.73 1.61,1.04 -0.04,0.4 -0.09,0.8 -0.14,1.2 -0.54,-0.07 -1.06,-0.19 -1.57,-0.37l0 -0.03c0.09,-0.61 0.12,-1.22 0.1,-1.84z"/>
    <path class="fil16" d="M5.15 10.14c0.65,0.35 1.33,0.65 2.02,0.92 -0.69,0.25 -1.43,0.31 -2.16,0.28 0.05,-0.4 0.1,-0.8 0.14,-1.2z"/>
    <path class="fil0" d="M5.14 3.71l0.01 0.52 -0.05 0c-0.02,-0.13 -0.07,-0.23 -0.16,-0.31 -0.09,-0.08 -0.18,-0.12 -0.28,-0.12 -0.08,0 -0.15,0.02 -0.19,0.06 -0.05,0.04 -0.07,0.09 -0.07,0.15 0,0.03 0.01,0.06 0.02,0.09 0.03,0.04 0.06,0.07 0.11,0.11 0.04,0.02 0.12,0.07 0.25,0.13 0.19,0.09 0.31,0.18 0.37,0.26 0.07,0.08 0.1,0.17 0.1,0.27 0,0.13 -0.05,0.24 -0.16,0.34 -0.1,0.09 -0.23,0.14 -0.38,0.14 -0.05,0 -0.1,-0.01 -0.14,-0.02 -0.05,-0.01 -0.1,-0.03 -0.17,-0.05 -0.04,-0.02 -0.07,-0.03 -0.09,-0.03 -0.02,0 -0.04,0.01 -0.06,0.03 -0.03,0.01 -0.04,0.04 -0.06,0.07l-0.04 0 0 -0.59 0.04 0c0.04,0.16 0.1,0.29 0.2,0.38 0.09,0.08 0.2,0.13 0.31,0.13 0.09,0 0.16,-0.03 0.21,-0.07 0.05,-0.05 0.07,-0.1 0.07,-0.17 0,-0.03 -0.01,-0.07 -0.03,-0.1 -0.02,-0.04 -0.05,-0.07 -0.09,-0.1 -0.04,-0.03 -0.11,-0.07 -0.21,-0.12 -0.14,-0.07 -0.24,-0.13 -0.31,-0.18 -0.06,-0.05 -0.1,-0.11 -0.14,-0.17 -0.03,-0.06 -0.05,-0.12 -0.05,-0.2 0,-0.12 0.05,-0.23 0.14,-0.32 0.09,-0.08 0.21,-0.13 0.35,-0.13 0.05,0 0.1,0.01 0.14,0.02 0.04,0.01 0.08,0.03 0.14,0.05 0.05,0.03 0.08,0.04 0.1,0.04 0.02,0 0.04,-0.01 0.05,-0.02 0.01,-0.01 0.02,-0.04 0.03,-0.09l0.04 0z"/>
    <path id="1" class="fil0" d="M6.9 3.71l0 0.55 -0.04 0c-0.05,-0.15 -0.13,-0.26 -0.24,-0.34 -0.1,-0.08 -0.21,-0.12 -0.33,-0.12 -0.12,0 -0.22,0.04 -0.3,0.1 -0.07,0.07 -0.13,0.16 -0.16,0.28 -0.03,0.12 -0.05,0.24 -0.05,0.36 0,0.15 0.02,0.28 0.05,0.39 0.04,0.12 0.1,0.2 0.17,0.25 0.08,0.05 0.18,0.08 0.28,0.08 0.04,0 0.08,0 0.12,-0.01 0.04,-0.01 0.08,-0.02 0.12,-0.04l0 -0.32c0,-0.06 0,-0.1 -0.01,-0.12 -0.01,-0.02 -0.03,-0.04 -0.05,-0.05 -0.03,-0.02 -0.06,-0.02 -0.1,-0.02l-0.04 0 0 -0.04 0.76 0 0 0.04c-0.06,0 -0.1,0.01 -0.12,0.02 -0.02,0.01 -0.04,0.03 -0.05,0.06 -0.01,0.02 -0.01,0.05 -0.01,0.11l0 0.32c-0.1,0.05 -0.21,0.08 -0.31,0.1 -0.11,0.03 -0.22,0.04 -0.34,0.04 -0.15,0 -0.27,-0.02 -0.37,-0.06 -0.1,-0.04 -0.18,-0.1 -0.26,-0.16 -0.07,-0.07 -0.13,-0.14 -0.17,-0.22 -0.06,-0.11 -0.09,-0.23 -0.09,-0.36 0,-0.23 0.09,-0.43 0.25,-0.59 0.17,-0.17 0.38,-0.25 0.63,-0.25 0.08,0 0.14,0.01 0.21,0.02 0.03,0.01 0.09,0.02 0.16,0.05 0.08,0.03 0.12,0.05 0.14,0.05 0.02,0 0.04,-0.01 0.06,-0.03 0.01,-0.01 0.03,-0.04 0.05,-0.09l0.04 0z"/>
   </g>
  </g>
 </g>
</svg>
