<?xml version="1.0" encoding="UTF-8"?>
<!DOCTYPE svg PUBLIC "-//W3C//DTD SVG 1.1//EN" "http://www.w3.org/Graphics/SVG/1.1/DTD/svg11.dtd">
<!-- Creator: CorelDRAW 2019 (64-Bit) -->
<svg xmlns="http://www.w3.org/2000/svg" xml:space="preserve" width="220px" height="234px" version="1.1" style="shape-rendering:geometricPrecision; text-rendering:geometricPrecision; image-rendering:optimizeQuality; fill-rule:evenodd; clip-rule:evenodd"
viewBox="0 0 30.88 32.83"
 xmlns:xlink="http://www.w3.org/1999/xlink"
 xmlns:xodm="http://www.corel.com/coreldraw/odm/2003">
 <defs>
  <style type="text/css">
   <![CDATA[
    .fil2 {fill:#D5509C}
    .fil0 {fill:#703F95}
    .fil1 {fill:#3F5797}
    .fil4 {fill:#D5509C;fill-rule:nonzero}
    .fil3 {fill:#404042;fill-rule:nonzero}
   ]]>
  </style>
 </defs>
 <g id="Layer_x0020_1">
  <metadata id="CorelCorpID_0Corel-Layer"/>
  <g id="_2700964621824">
   <g>
    <path class="fil0" d="M15.22 0c0.16,0 0.31,0 0.46,0.01 -4.72,0.23 -8.48,4.14 -8.48,8.92 0,4.94 4,8.94 8.93,8.94 4.79,0 8.69,-3.76 8.92,-8.49 0.01,0.16 0.02,0.31 0.02,0.47 0,5.43 -4.41,9.84 -9.85,9.84 -5.44,0 -9.85,-4.41 -9.85,-9.84 0,-5.44 4.41,-9.85 9.85,-9.85z"/>
    <path class="fil1" d="M23.26 1.82c3.21,2.29 5.31,6.04 5.31,10.29 0,6.96 -5.65,12.61 -12.62,12.61 -6.97,0 -12.62,-5.65 -12.62,-12.61 0,-1.7 0.34,-3.32 0.94,-4.79 -0.28,1 -0.43,2.05 -0.43,3.15 0,6.42 5.21,11.63 11.63,11.63 6.43,0 11.64,-5.21 11.64,-11.63 0,-3.44 -1.49,-6.52 -3.85,-8.65z"/>
    <path class="fil2" d="M17.41 0.29c4.15,0 7.51,3.36 7.51,7.51 0,4.15 -3.36,7.52 -7.51,7.52 -3.18,0 -5.89,-1.97 -6.99,-4.75 1.15,2.13 3.41,3.58 6,3.58 3.77,0 6.82,-3.05 6.82,-6.82 0,-3.77 -3.05,-6.82 -6.82,-6.82 -0.41,0 -0.81,0.04 -1.21,0.11 0.7,-0.21 1.43,-0.33 2.2,-0.33z"/>
   </g>
   <g>
    <g>
     <polygon class="fil3" points="1.65,29.32 1.65,25.81 1.26,25.81 1.26,29.32 "/>
     <path id="1" class="fil3" d="M2.81 27.58c0,-0.19 0.02,-0.34 0.17,-0.47 0.1,-0.1 0.23,-0.15 0.36,-0.15 0.3,0 0.39,0.18 0.39,0.46l0 1.9 0.37 0 0 -2.01c0,-0.45 -0.25,-0.66 -0.64,-0.66 -0.28,0 -0.47,0.13 -0.64,0.35l-0.01 0 0 -1.19 -0.37 0 0 3.51 0.37 0 0 -1.74z"/>
     <path id="2" class="fil3" d="M5.02 27.75c0.01,-0.31 0.02,-0.79 0.45,-0.79 0.43,0 0.41,0.48 0.43,0.79l-0.88 0zm0.9 0.7c0.02,0.3 -0.08,0.63 -0.43,0.63 -0.52,0 -0.46,-0.68 -0.47,-1.03l1.26 0c-0.02,-0.61 0.03,-1.4 -0.81,-1.4 -0.69,0 -0.83,0.82 -0.83,1.36 0,1.05 0.35,1.38 0.84,1.38 0.54,0 0.81,-0.43 0.78,-0.94l-0.34 0z"/>
     <polygon id="3" class="fil3" points="8.52,29.32 8.52,25.81 8.14,25.81 8.14,29.32 "/>
     <path id="4" class="fil3" d="M9.71 26.72l-0.35 0 0 2.6 0.37 0 0 -1.58c0,-0.47 0.28,-0.77 0.75,-0.68l0 -0.37c-0.39,-0.03 -0.6,0.11 -0.76,0.45l-0.01 0 0 -0.42z"/>
     <path id="5" class="fil3" d="M11.88 28.55c0,0.42 -0.31,0.53 -0.45,0.53 -0.3,0 -0.37,-0.17 -0.37,-0.43 0,-0.18 0.06,-0.37 0.23,-0.45 0.2,-0.1 0.4,-0.18 0.59,-0.28l0 0.63zm0.6 0.5c-0.05,0 -0.1,0 -0.16,-0.01 -0.07,-0.04 -0.06,-0.13 -0.06,-0.2l0 -1.49c0,-0.06 0.06,-0.7 -0.71,-0.7 -0.52,0 -0.79,0.23 -0.77,0.77l0.33 0c0,-0.3 0.05,-0.46 0.38,-0.46 0.3,0 0.41,0.11 0.41,0.41 0,0.13 0.01,0.24 -0.07,0.3 -0.04,0.04 -0.57,0.23 -0.78,0.33 -0.36,0.15 -0.37,0.53 -0.37,0.63 0,0.47 0.15,0.76 0.67,0.76 0.25,0 0.48,-0.19 0.57,-0.42l0.01 0c0.04,0.35 0.16,0.38 0.47,0.37 0.03,-0.01 0.05,-0.02 0.08,-0.02l0 -0.27z"/>
     <path id="6" class="fil3" d="M14.22 28.3c0,0.29 -0.11,0.78 -0.49,0.78 -0.5,0 -0.52,-0.51 -0.52,-1.08 0,-0.79 0.2,-1.04 0.51,-1.04 0.49,0 0.5,0.66 0.5,1.02l0 0.32zm0 -1.31l-0.01 0c-0.17,-0.23 -0.33,-0.34 -0.6,-0.34 -0.55,0 -0.8,0.6 -0.78,1.36 0.01,0.23 -0.05,1.38 0.77,1.38 0.31,0 0.47,-0.1 0.63,-0.41l0.01 0 0 0.34 0.35 0 0 -3.51 -0.37 0 0 1.18z"/>
     <path id="7" class="fil3" d="M15.65 29.32l0 -2.6 -0.37 0 0 2.6 0.37 0zm0 -3.04l0 -0.47 -0.37 0 0 0.47 0.37 0z"/>
     <path id="8" class="fil3" d="M16.68 26.72l-0.36 0 0 2.6 0.37 0 0 -1.74c0,-0.19 0.02,-0.34 0.17,-0.47 0.1,-0.1 0.23,-0.15 0.37,-0.15 0.3,0 0.38,0.18 0.38,0.46l0 1.9 0.37 0 0 -2.01c0,-0.45 -0.25,-0.66 -0.64,-0.66 -0.28,0 -0.47,0.13 -0.65,0.35l-0.01 0 0 -0.28z"/>
     <path id="9" class="fil3" d="M19.42 26.96c0.41,0 0.52,0.49 0.52,1 0,0.42 0.01,1.12 -0.55,1.12 -0.37,0 -0.48,-0.43 -0.48,-1.06 0,-0.35 0.02,-1.06 0.51,-1.06zm0.52 0.05l-0.01 0c-0.12,-0.24 -0.34,-0.36 -0.58,-0.36 -0.68,0 -0.82,0.8 -0.82,1.35 0,1.05 0.34,1.39 0.83,1.39 0.24,0 0.41,-0.11 0.56,-0.38l0.01 0c0,0.29 0.06,0.88 -0.54,0.88 -0.22,0 -0.37,-0.09 -0.41,-0.32l-0.36 0c0.05,0.44 0.36,0.63 0.78,0.63 0.28,0 0.55,-0.1 0.71,-0.36 0.18,-0.27 0.2,-0.52 0.2,-0.84l0 -2.28 -0.37 0 0 0.29z"/>
     <polygon id="10" class="fil3" points="22.67,29.32 22.67,25.81 22.28,25.81 22.28,29.32 "/>
     <path id="11" class="fil3" d="M23.86 26.72l-0.36 0 0 2.6 0.37 0 0 -1.58c0,-0.47 0.28,-0.77 0.76,-0.68l0 -0.37c-0.39,-0.03 -0.61,0.11 -0.76,0.45l-0.01 0 0 -0.42z"/>
     <path id="12" class="fil3" d="M26.02 28.55c0,0.42 -0.31,0.53 -0.45,0.53 -0.3,0 -0.36,-0.17 -0.36,-0.43 0,-0.18 0.05,-0.37 0.23,-0.45 0.19,-0.1 0.4,-0.18 0.58,-0.28l0 0.63zm0.61 0.5c-0.05,0 -0.11,0 -0.16,-0.01 -0.07,-0.04 -0.07,-0.13 -0.07,-0.2l0 -1.49c0,-0.06 0.07,-0.7 -0.7,-0.7 -0.52,0 -0.79,0.23 -0.77,0.77l0.33 0c-0.01,-0.3 0.04,-0.46 0.38,-0.46 0.3,0 0.41,0.11 0.41,0.41 0,0.13 0.01,0.24 -0.07,0.3 -0.05,0.04 -0.57,0.23 -0.78,0.33 -0.36,0.15 -0.38,0.53 -0.38,0.63 0,0.47 0.15,0.76 0.67,0.76 0.25,0 0.49,-0.19 0.58,-0.42l0.01 0c0.03,0.35 0.15,0.38 0.46,0.37 0.03,-0.01 0.06,-0.02 0.09,-0.02l0 -0.27z"/>
     <path id="13" class="fil3" d="M27.85 26.96c0.35,0 0.43,0.29 0.43,0.58l0.35 0c0,-0.48 -0.25,-0.89 -0.77,-0.89 -0.8,0 -0.9,0.77 -0.9,1.4 0,0.67 0.11,1.34 0.91,1.34 0.58,0 0.76,-0.48 0.78,-0.98l-0.35 0c-0.02,0.32 -0.06,0.67 -0.46,0.67 -0.47,0 -0.5,-0.61 -0.5,-0.95 0,-0.37 -0.02,-1.17 0.51,-1.17z"/>
     <polygon id="14" class="fil3" points="29.52,29.32 29.52,28.39 29.8,28.02 30.45,29.32 30.88,29.32 30.05,27.73 30.86,26.72 30.42,26.72 29.53,27.93 29.52,27.93 29.52,25.81 29.15,25.81 29.15,29.32 "/>
     <polygon class="fil1" points="2.54,24.7 2.61,24.73 2.69,24.77 2.76,24.81 2.83,24.85 2.9,24.89 2.97,24.94 3.03,24.99 3.09,25.04 3.15,25.1 3.2,25.15 3.25,25.21 3.29,25.26 3.33,25.32 3.37,25.38 3.4,25.44 3.43,25.5 3.45,25.56 3.47,25.62 3.49,25.69 3.5,25.75 3.51,25.81 3.51,25.88 3.51,25.94 3.51,26 3.5,26.06 3.49,26.13 3.47,26.19 3.45,26.25 3.44,26.28 3.44,26.26 3.44,26.2 3.44,26.15 3.44,26.09 3.43,26.03 3.42,25.98 3.41,25.92 3.4,25.86 3.37,25.81 3.35,25.75 3.32,25.69 3.29,25.64 3.26,25.59 3.22,25.53 3.18,25.48 3.14,25.43 3.09,25.38 3.04,25.33 2.99,25.29 2.93,25.24 2.86,25.2 2.8,25.16 2.73,25.12 2.66,25.08 2.59,25.05 2.52,25.01 2.44,24.99 2.37,24.96 2.29,24.94 2.21,24.92 2.13,24.9 2.05,24.89 1.97,24.88 1.89,24.87 1.81,24.86 1.73,24.86 1.65,24.86 1.57,24.86 1.49,24.87 1.41,24.88 1.33,24.89 1.25,24.9 1.18,24.92 1.1,24.94 1.02,24.96 0.95,24.99 0.88,25.02 0.81,25.05 0.74,25.09 0.67,25.12 0.61,25.16 0.55,25.21 0.49,25.25 0.44,25.3 0.39,25.34 0.35,25.39 0.31,25.44 0.27,25.49 0.23,25.54 0.2,25.6 0.18,25.65 0.15,25.7 0.13,25.76 0.11,25.81 0.1,25.87 0.09,25.93 0.09,25.98 0.08,26.04 0.08,26.1 0.09,26.16 0.09,26.21 0.1,26.21 0.08,26.19 0.06,26.13 0.04,26.06 0.02,26 0.01,25.94 0,25.88 0,25.81 0,25.75 0,25.69 0.01,25.63 0.02,25.56 0.04,25.5 0.06,25.44 0.09,25.38 0.11,25.32 0.15,25.27 0.18,25.21 0.22,25.15 0.27,25.1 0.32,25.05 0.37,25 0.42,24.95 0.48,24.9 0.55,24.85 0.62,24.81 0.68,24.77 0.75,24.74 0.83,24.7 0.9,24.67 0.98,24.65 1.06,24.62 1.13,24.6 1.21,24.58 1.3,24.57 1.38,24.56 1.46,24.55 1.55,24.54 1.63,24.54 1.71,24.54 1.8,24.54 1.88,24.55 1.97,24.56 2.05,24.57 2.13,24.58 2.22,24.6 2.3,24.62 2.38,24.64 2.46,24.67 "/>
     <polygon class="fil0" points="9.23,24.7 9.3,24.73 9.38,24.77 9.45,24.81 9.52,24.85 9.59,24.89 9.66,24.94 9.72,24.99 9.78,25.04 9.84,25.1 9.89,25.15 9.94,25.21 9.98,25.26 10.02,25.32 10.06,25.38 10.09,25.44 10.12,25.5 10.14,25.56 10.16,25.62 10.18,25.69 10.19,25.75 10.2,25.81 10.2,25.88 10.2,25.94 10.2,26 10.19,26.06 10.18,26.13 10.16,26.19 10.14,26.25 10.13,26.28 10.13,26.26 10.13,26.2 10.13,26.15 10.13,26.09 10.13,26.03 10.12,25.98 10.1,25.92 10.09,25.86 10.07,25.81 10.04,25.75 10.02,25.69 9.99,25.64 9.95,25.59 9.91,25.53 9.87,25.48 9.83,25.43 9.78,25.38 9.73,25.33 9.68,25.29 9.62,25.24 9.56,25.2 9.49,25.16 9.42,25.12 9.35,25.08 9.28,25.05 9.21,25.01 9.13,24.99 9.06,24.96 8.98,24.94 8.9,24.92 8.82,24.9 8.74,24.89 8.66,24.88 8.58,24.87 8.5,24.86 8.42,24.86 8.34,24.86 8.26,24.86 8.18,24.87 8.1,24.88 8.02,24.89 7.94,24.9 7.87,24.92 7.79,24.94 7.72,24.96 7.64,24.99 7.57,25.02 7.5,25.05 7.43,25.09 7.37,25.12 7.3,25.16 7.24,25.21 7.19,25.25 7.13,25.3 7.08,25.34 7.04,25.39 7,25.44 6.96,25.49 6.93,25.54 6.89,25.6 6.87,25.65 6.84,25.7 6.82,25.76 6.81,25.81 6.79,25.87 6.78,25.93 6.78,25.98 6.77,26.04 6.77,26.1 6.78,26.16 6.79,26.21 6.79,26.21 6.77,26.19 6.75,26.13 6.73,26.06 6.71,26 6.7,25.94 6.7,25.88 6.69,25.81 6.69,25.75 6.7,25.69 6.7,25.63 6.72,25.56 6.73,25.5 6.75,25.44 6.78,25.38 6.81,25.32 6.84,25.27 6.87,25.21 6.91,25.15 6.96,25.1 7.01,25.05 7.06,25 7.12,24.95 7.18,24.9 7.24,24.85 7.31,24.81 7.37,24.77 7.45,24.74 7.52,24.7 7.59,24.67 7.67,24.65 7.75,24.62 7.83,24.6 7.91,24.58 7.99,24.57 8.07,24.56 8.15,24.55 8.24,24.54 8.32,24.54 8.4,24.54 8.49,24.54 8.57,24.55 8.66,24.56 8.74,24.57 8.82,24.58 8.91,24.6 8.99,24.62 9.07,24.64 9.15,24.67 "/>
     <polygon class="fil2" points="23.21,24.7 23.28,24.73 23.36,24.77 23.43,24.81 23.5,24.85 23.57,24.89 23.64,24.94 23.7,24.99 23.76,25.04 23.82,25.1 23.87,25.15 23.92,25.21 23.96,25.26 24,25.32 24.04,25.38 24.07,25.44 24.1,25.5 24.12,25.56 24.14,25.62 24.16,25.69 24.17,25.75 24.18,25.81 24.18,25.88 24.18,25.94 24.18,26 24.17,26.06 24.16,26.13 24.14,26.19 24.12,26.25 24.11,26.28 24.11,26.26 24.11,26.2 24.11,26.15 24.11,26.09 24.11,26.03 24.1,25.98 24.08,25.92 24.07,25.86 24.05,25.81 24.02,25.75 24,25.69 23.97,25.64 23.93,25.59 23.89,25.53 23.85,25.48 23.81,25.43 23.76,25.38 23.71,25.33 23.66,25.29 23.6,25.24 23.54,25.2 23.47,25.16 23.4,25.12 23.33,25.08 23.26,25.05 23.19,25.01 23.11,24.99 23.04,24.96 22.96,24.94 22.88,24.92 22.8,24.9 22.72,24.89 22.64,24.88 22.56,24.87 22.48,24.86 22.4,24.86 22.32,24.86 22.24,24.86 22.16,24.87 22.08,24.88 22,24.89 21.92,24.9 21.85,24.92 21.77,24.94 21.7,24.96 21.62,24.99 21.55,25.02 21.48,25.05 21.41,25.09 21.35,25.12 21.28,25.16 21.22,25.21 21.17,25.25 21.11,25.3 21.06,25.34 21.02,25.39 20.98,25.44 20.94,25.49 20.91,25.54 20.87,25.6 20.85,25.65 20.82,25.7 20.8,25.76 20.79,25.81 20.77,25.87 20.76,25.93 20.76,25.98 20.75,26.04 20.75,26.1 20.76,26.16 20.77,26.21 20.77,26.21 20.75,26.19 20.73,26.13 20.71,26.06 20.7,26 20.68,25.94 20.68,25.88 20.67,25.81 20.67,25.75 20.68,25.69 20.68,25.63 20.7,25.56 20.71,25.5 20.73,25.44 20.76,25.38 20.79,25.32 20.82,25.27 20.85,25.21 20.89,25.15 20.94,25.1 20.99,25.05 21.04,25 21.1,24.95 21.16,24.9 21.22,24.85 21.29,24.81 21.36,24.77 21.43,24.74 21.5,24.7 21.57,24.67 21.65,24.65 21.73,24.62 21.81,24.6 21.89,24.58 21.97,24.57 22.05,24.56 22.13,24.55 22.22,24.54 22.3,24.54 22.38,24.54 22.47,24.54 22.55,24.55 22.64,24.56 22.72,24.57 22.81,24.58 22.89,24.6 22.97,24.62 23.05,24.64 23.13,24.67 "/>
    </g>
    <path class="fil4" d="M0.63 32.5c-0.04,0.1 -0.05,0.21 -0.19,0.21 -0.03,0 -0.07,-0.01 -0.11,-0.03l0 0.13c0.04,0.02 0.07,0.02 0.11,0.02 0.11,0 0.18,-0.04 0.24,-0.14 0.03,-0.05 0.08,-0.2 0.09,-0.26l0.31 -1 -0.15 0 -0.24 0.91 -0.01 0 -0.23 -0.91 -0.15 0 0.33 1.07z"/>
    <path id="1" class="fil4" d="M2.15 31.92c0,-0.32 -0.12,-0.52 -0.38,-0.52 -0.25,0 -0.37,0.2 -0.37,0.52 0,0.45 0.15,0.58 0.37,0.58 0.23,0 0.38,-0.13 0.38,-0.58zm-0.16 0.04c0,0.25 -0.04,0.42 -0.22,0.42 -0.17,0 -0.22,-0.17 -0.22,-0.42 0,-0.31 0.07,-0.43 0.22,-0.43 0.16,0 0.22,0.12 0.22,0.43z"/>
    <path id="2" class="fil4" d="M3.07 32.47l0.15 0 0 -1.04 -0.15 0 0 0.67c0,0.06 0,0.13 -0.04,0.19 -0.04,0.06 -0.11,0.09 -0.18,0.09 -0.1,0 -0.13,-0.05 -0.13,-0.14l0 -0.81 -0.15 0 0 0.81c0,0.18 0.1,0.26 0.25,0.26 0.1,0 0.2,-0.06 0.25,-0.16l0 0 0 0.13z"/>
    <path id="3" class="fil4" d="M3.84 31.43l-0.14 0 0 1.04 0.15 0 0 -0.63c0,-0.19 0.11,-0.31 0.3,-0.27l0 -0.15c-0.15,-0.01 -0.24,0.04 -0.3,0.18l-0.01 0 0 -0.17z"/>
    <path id="4" class="fil4" d="M5.54 31.71c0,-0.21 -0.12,-0.31 -0.32,-0.31 -0.18,0 -0.31,0.12 -0.31,0.3 0,0.18 0.1,0.23 0.26,0.29 0.1,0.05 0.25,0.06 0.25,0.21 0,0.13 -0.07,0.18 -0.19,0.18 -0.14,0 -0.19,-0.08 -0.18,-0.21l-0.14 0c0,0.07 -0.01,0.14 0.06,0.22 0.05,0.08 0.16,0.11 0.26,0.11 0.21,0 0.35,-0.12 0.35,-0.32 0,-0.19 -0.15,-0.23 -0.3,-0.3 -0.1,-0.04 -0.21,-0.06 -0.21,-0.19 0,-0.11 0.06,-0.16 0.16,-0.16 0.13,0 0.17,0.06 0.17,0.18l0.14 0z"/>
    <path id="5" class="fil4" d="M6.38 32.17c0,0.16 -0.12,0.21 -0.18,0.21 -0.12,0 -0.14,-0.07 -0.14,-0.18 0,-0.07 0.02,-0.14 0.09,-0.18 0.08,-0.03 0.16,-0.07 0.23,-0.11l0 0.26zm0.25 0.2c-0.02,0 -0.05,0 -0.07,-0.01 -0.03,-0.01 -0.02,-0.05 -0.02,-0.08l0 -0.59c0,-0.03 0.02,-0.29 -0.29,-0.29 -0.21,0 -0.31,0.1 -0.31,0.31l0.14 0c0,-0.12 0.01,-0.18 0.15,-0.18 0.12,0 0.17,0.04 0.17,0.16 0,0.06 0,0.1 -0.03,0.12 -0.02,0.02 -0.23,0.1 -0.32,0.13 -0.14,0.07 -0.15,0.22 -0.15,0.26 0,0.19 0.06,0.3 0.27,0.3 0.1,0 0.2,-0.07 0.23,-0.17l0.01 0c0.01,0.15 0.06,0.16 0.18,0.15 0.02,0 0.03,0 0.04,-0.01l0 -0.1z"/>
    <path id="6" class="fil4" d="M7.17 31.15l-0.15 0 0 0.28 -0.14 0 0 0.13 0.14 0 0 0.74c0,0.16 0.07,0.18 0.16,0.17l0.16 0 0 -0.12 -0.1 0c-0.08,0 -0.07,-0.05 -0.07,-0.08l0 -0.71 0.18 0 0 -0.13 -0.18 0 0 -0.28z"/>
    <path id="7" class="fil4" d="M7.85 32.47l0 -1.04 -0.15 0 0 1.04 0.15 0zm0 -1.22l0 -0.18 -0.15 0 0 0.18 0.15 0z"/>
    <path id="8" class="fil4" d="M8.88 31.71c0.01,-0.21 -0.11,-0.31 -0.32,-0.31 -0.18,0 -0.31,0.12 -0.31,0.3 0,0.18 0.1,0.23 0.26,0.29 0.11,0.05 0.26,0.06 0.26,0.21 0,0.13 -0.08,0.18 -0.2,0.18 -0.14,0 -0.19,-0.08 -0.18,-0.21l-0.14 0c0,0.07 0,0.14 0.06,0.22 0.05,0.08 0.16,0.11 0.26,0.11 0.21,0 0.35,-0.12 0.35,-0.32 0,-0.19 -0.15,-0.23 -0.3,-0.3 -0.1,-0.04 -0.21,-0.06 -0.21,-0.19 0,-0.11 0.06,-0.16 0.16,-0.16 0.13,0 0.17,0.06 0.17,0.18l0.14 0z"/>
    <path id="9" class="fil4" d="M9.36 32.47l0.15 0 0 -0.91 0.16 0 0 -0.13 -0.16 0 0 -0.11c0,-0.13 0.04,-0.14 0.16,-0.13l0 -0.12c-0.14,-0.02 -0.22,0 -0.27,0.07 -0.04,0.05 -0.04,0.14 -0.04,0.2l0 0.09 -0.15 0 0 0.13 0.15 0 0 0.91z"/>
    <path id="10" class="fil4" d="M10.43 32.17c0,0.16 -0.12,0.21 -0.18,0.21 -0.12,0 -0.15,-0.07 -0.15,-0.18 0,-0.07 0.03,-0.14 0.1,-0.18 0.08,-0.03 0.16,-0.07 0.23,-0.11l0 0.26zm0.25 0.2c-0.03,0 -0.05,0 -0.07,-0.01 -0.03,-0.01 -0.03,-0.05 -0.03,-0.08l0 -0.59c0,-0.03 0.03,-0.29 -0.28,-0.29 -0.21,0 -0.32,0.1 -0.31,0.31l0.13 0c0,-0.12 0.02,-0.18 0.16,-0.18 0.12,0 0.16,0.04 0.16,0.16 0,0.06 0.01,0.1 -0.03,0.12 -0.01,0.02 -0.22,0.1 -0.31,0.13 -0.14,0.07 -0.15,0.22 -0.15,0.26 0,0.19 0.06,0.3 0.27,0.3 0.1,0 0.19,-0.07 0.23,-0.17l0 0c0.02,0.15 0.07,0.16 0.19,0.15 0.01,0 0.02,0 0.04,-0.01l0 -0.1z"/>
    <path id="11" class="fil4" d="M11.35 31.53c0.14,0 0.17,0.12 0.17,0.23l0.14 0c0,-0.19 -0.1,-0.36 -0.31,-0.36 -0.32,0 -0.36,0.31 -0.36,0.57 0,0.27 0.05,0.53 0.37,0.53 0.23,0 0.3,-0.19 0.31,-0.39l-0.14 0c-0.01,0.13 -0.02,0.27 -0.18,0.27 -0.19,0 -0.2,-0.25 -0.2,-0.38 0,-0.15 -0.02,-0.47 0.2,-0.47z"/>
    <path id="12" class="fil4" d="M12.23 31.15l-0.14 0 0 0.28 -0.15 0 0 0.13 0.15 0 0 0.74c0,0.16 0.06,0.18 0.15,0.17l0.17 0 0 -0.12 -0.1 0c-0.09,0 -0.07,-0.05 -0.07,-0.08l0 -0.71 0.17 0 0 -0.13 -0.18 0 0 -0.28z"/>
    <path id="13" class="fil4" d="M12.92 32.47l0 -1.04 -0.15 0 0 1.04 0.15 0zm0 -1.22l0 -0.18 -0.15 0 0 0.18 0.15 0z"/>
    <path id="14" class="fil4" d="M14.08 31.92c0,-0.32 -0.12,-0.52 -0.38,-0.52 -0.25,0 -0.37,0.2 -0.37,0.52 0,0.45 0.15,0.58 0.37,0.58 0.23,0 0.38,-0.13 0.38,-0.58zm-0.16 0.04c0,0.25 -0.04,0.42 -0.22,0.42 -0.17,0 -0.22,-0.17 -0.22,-0.42 0,-0.31 0.07,-0.43 0.22,-0.43 0.16,0 0.22,0.12 0.22,0.43z"/>
    <path id="15" class="fil4" d="M14.64 31.43l-0.15 0 0 1.04 0.15 0 0 -0.69c0,-0.08 0.01,-0.14 0.07,-0.19 0.04,-0.04 0.09,-0.06 0.15,-0.06 0.12,0 0.15,0.07 0.15,0.18l0 0.76 0.15 0 0 -0.8c0,-0.18 -0.1,-0.27 -0.26,-0.27 -0.11,0 -0.19,0.06 -0.26,0.15l0 0 0 -0.12z"/>
    <polygon id="16" class="fil4" points="16.49,31.96 16.49,31.8 16.03,31.8 16.03,31.96 "/>
    <path id="17" class="fil4" d="M18.07 31.92c0,-0.32 -0.12,-0.52 -0.37,-0.52 -0.26,0 -0.38,0.2 -0.38,0.52 0,0.45 0.15,0.58 0.38,0.58 0.22,0 0.37,-0.13 0.37,-0.58zm-0.15 0.04c0,0.25 -0.05,0.42 -0.22,0.42 -0.18,0 -0.22,-0.17 -0.22,-0.42 0,-0.31 0.06,-0.43 0.22,-0.43 0.15,0 0.22,0.12 0.22,0.43z"/>
    <path id="18" class="fil4" d="M19 32.47l0.15 0 0 -1.04 -0.15 0 0 0.67c0,0.06 -0.01,0.13 -0.05,0.19 -0.04,0.06 -0.1,0.09 -0.17,0.09 -0.11,0 -0.14,-0.05 -0.14,-0.14l0 -0.81 -0.15 0 0 0.81c0,0.18 0.1,0.26 0.26,0.26 0.1,0 0.19,-0.06 0.24,-0.16l0.01 0 0 0.13z"/>
    <path id="19" class="fil4" d="M19.77 31.43l-0.15 0 0 1.04 0.15 0 0 -0.63c0,-0.19 0.11,-0.31 0.31,-0.27l0 -0.15c-0.16,-0.01 -0.25,0.04 -0.31,0.18l0 0 0 -0.17z"/>
    <path id="20" class="fil4" d="M21.4 32.07c0,0.11 -0.05,0.31 -0.2,0.31 -0.2,0 -0.21,-0.21 -0.21,-0.43 0,-0.32 0.08,-0.42 0.21,-0.42 0.19,0 0.2,0.26 0.2,0.41l0 0.13zm0 -0.53l-0.01 0c-0.07,-0.09 -0.13,-0.14 -0.24,-0.14 -0.22,0 -0.32,0.25 -0.31,0.55 0,0.09 -0.02,0.55 0.31,0.55 0.12,0 0.19,-0.04 0.25,-0.16l0 0 0 0.13 0.15 0 0 -1.4 -0.15 0 0 0.47z"/>
    <path id="21" class="fil4" d="M22.11 31.84c0,-0.12 0.01,-0.31 0.18,-0.31 0.17,0 0.16,0.19 0.17,0.31l-0.35 0zm0.36 0.29c0.01,0.12 -0.03,0.25 -0.17,0.25 -0.21,0 -0.19,-0.27 -0.19,-0.41l0.5 0c0,-0.25 0.02,-0.57 -0.32,-0.57 -0.28,0 -0.34,0.33 -0.34,0.55 0,0.42 0.14,0.55 0.34,0.55 0.22,0 0.33,-0.17 0.32,-0.37l-0.14 0z"/>
    <path id="22" class="fil4" d="M23.6 31.71c0.01,-0.21 -0.11,-0.31 -0.32,-0.31 -0.18,0 -0.31,0.12 -0.31,0.3 0,0.18 0.1,0.23 0.26,0.29 0.11,0.05 0.26,0.06 0.26,0.21 0,0.13 -0.08,0.18 -0.2,0.18 -0.14,0 -0.18,-0.08 -0.18,-0.21l-0.14 0c0,0.07 0,0.14 0.06,0.22 0.05,0.08 0.17,0.11 0.26,0.11 0.21,0 0.35,-0.12 0.35,-0.32 0,-0.19 -0.15,-0.23 -0.3,-0.3 -0.1,-0.04 -0.21,-0.06 -0.21,-0.19 0,-0.11 0.06,-0.16 0.16,-0.16 0.13,0 0.17,0.06 0.17,0.18l0.14 0z"/>
    <path id="23" class="fil4" d="M24.22 31.15l-0.15 0 0 0.28 -0.15 0 0 0.13 0.15 0 0 0.74c0,0.16 0.06,0.18 0.15,0.17l0.17 0 0 -0.12 -0.1 0c-0.09,0 -0.07,-0.05 -0.07,-0.08l0 -0.71 0.17 0 0 -0.13 -0.17 0 0 -0.28z"/>
    <path id="24" class="fil4" d="M24.9 32.47l0 -1.04 -0.15 0 0 1.04 0.15 0zm0 -1.22l0 -0.18 -0.15 0 0 0.18 0.15 0z"/>
    <path id="25" class="fil4" d="M25.5 31.43l-0.15 0 0 1.04 0.15 0 0 -0.69c0,-0.08 0.01,-0.14 0.07,-0.19 0.04,-0.04 0.09,-0.06 0.14,-0.06 0.12,0 0.16,0.07 0.16,0.18l0 0.76 0.15 0 0 -0.8c0,-0.18 -0.1,-0.27 -0.26,-0.27 -0.11,0 -0.19,0.06 -0.26,0.15l0 0 0 -0.12z"/>
    <path id="26" class="fil4" d="M26.88 32.17c0,0.16 -0.13,0.21 -0.18,0.21 -0.12,0 -0.15,-0.07 -0.15,-0.18 0,-0.07 0.02,-0.14 0.09,-0.18 0.08,-0.03 0.16,-0.07 0.24,-0.11l0 0.26zm0.24 0.2c-0.02,0 -0.04,0 -0.06,-0.01 -0.03,-0.01 -0.03,-0.05 -0.03,-0.08l0 -0.59c0,-0.03 0.03,-0.29 -0.28,-0.29 -0.21,0 -0.32,0.1 -0.31,0.31l0.13 0c0,-0.12 0.02,-0.18 0.15,-0.18 0.12,0 0.17,0.04 0.17,0.16 0,0.06 0,0.1 -0.03,0.12 -0.02,0.02 -0.23,0.1 -0.32,0.13 -0.14,0.07 -0.15,0.22 -0.15,0.26 0,0.19 0.06,0.3 0.27,0.3 0.1,0 0.2,-0.07 0.23,-0.17l0.01 0c0.01,0.15 0.06,0.16 0.19,0.15 0.01,0 0.02,0 0.03,-0.01l0 -0.1z"/>
    <path id="27" class="fil4" d="M27.66 31.15l-0.14 0 0 0.28 -0.15 0 0 0.13 0.15 0 0 0.74c0,0.16 0.06,0.18 0.15,0.17l0.16 0 0 -0.12 -0.1 0c-0.08,0 -0.07,-0.05 -0.07,-0.08l0 -0.71 0.18 0 0 -0.13 -0.18 0 0 -0.28z"/>
    <path id="28" class="fil4" d="M28.34 32.47l0 -1.04 -0.15 0 0 1.04 0.15 0zm0 -1.22l0 -0.18 -0.15 0 0 0.18 0.15 0z"/>
    <path id="29" class="fil4" d="M29.5 31.92c0,-0.32 -0.11,-0.52 -0.37,-0.52 -0.26,0 -0.37,0.2 -0.37,0.52 0,0.45 0.14,0.58 0.37,0.58 0.23,0 0.37,-0.13 0.37,-0.58zm-0.15 0.04c0,0.25 -0.04,0.42 -0.22,0.42 -0.17,0 -0.22,-0.17 -0.22,-0.42 0,-0.31 0.07,-0.43 0.22,-0.43 0.16,0 0.22,0.12 0.22,0.43z"/>
    <path id="30" class="fil4" d="M30.06 31.43l-0.14 0 0 1.04 0.15 0 0 -0.69c0,-0.08 0.01,-0.14 0.07,-0.19 0.04,-0.04 0.09,-0.06 0.14,-0.06 0.12,0 0.16,0.07 0.16,0.18l0 0.76 0.15 0 0 -0.8c0,-0.18 -0.1,-0.27 -0.26,-0.27 -0.11,0 -0.19,0.06 -0.26,0.15l-0.01 0 0 -0.12z"/>
   </g>
  </g>
 </g>
</svg>
