<?xml version="1.0" encoding="UTF-8"?>
<!DOCTYPE svg PUBLIC "-//W3C//DTD SVG 1.1//EN" "http://www.w3.org/Graphics/SVG/1.1/DTD/svg11.dtd">
<!-- Creator: CorelDRAW 2019 (64-Bit) -->
<svg xmlns="http://www.w3.org/2000/svg" xml:space="preserve" width="220px" height="148px" version="1.1" style="shape-rendering:geometricPrecision; text-rendering:geometricPrecision; image-rendering:optimizeQuality; fill-rule:evenodd; clip-rule:evenodd"
viewBox="0 0 33.82 22.83"
 xmlns:xlink="http://www.w3.org/1999/xlink"
 xmlns:xodm="http://www.corel.com/coreldraw/odm/2003">
 <defs>
  <style type="text/css">
   <![CDATA[
    .str0 {stroke:#FEFEFE;stroke-width:0.31;stroke-miterlimit:2.61313}
    .str1 {stroke:#FEFEFE;stroke-width:0.25;stroke-miterlimit:2.61313}
    .fil20 {fill:none;fill-rule:nonzero}
    .fil19 {fill:#848688;fill-rule:nonzero}
    .fil21 {fill:#F58634;fill-rule:nonzero}
    .fil13 {fill:#008ACE;fill-rule:nonzero}
    .fil8 {fill:#1FA083;fill-rule:nonzero}
    .fil16 {fill:#336699;fill-rule:nonzero}
    .fil10 {fill:#55B947;fill-rule:nonzero}
    .fil17 {fill:#663300;fill-rule:nonzero}
    .fil15 {fill:#669933;fill-rule:nonzero}
    .fil6 {fill:#84BAE3;fill-rule:nonzero}
    .fil5 {fill:#8AC43E;fill-rule:nonzero}
    .fil14 {fill:#CC6633;fill-rule:nonzero}
    .fil18 {fill:#D9A439;fill-rule:nonzero}
    .fil12 {fill:#EB1450;fill-rule:nonzero}
    .fil1 {fill:#F05827;fill-rule:nonzero}
    .fil2 {fill:#F05828;fill-rule:nonzero}
    .fil3 {fill:#F15827;fill-rule:nonzero}
    .fil0 {fill:#F15828;fill-rule:nonzero}
    .fil4 {fill:#F15A28;fill-rule:nonzero}
    .fil11 {fill:#F7961C;fill-rule:nonzero}
    .fil7 {fill:#FCBE1E;fill-rule:nonzero}
    .fil9 {fill:white;fill-rule:nonzero}
   ]]>
  </style>
 </defs>
 <g id="Layer_x0020_1">
  <metadata id="CorelCorpID_0Corel-Layer"/>
  <g id="_2700827620352">
   <g>
    <path class="fil0" d="M25.01 0l0 0c0.07,0.21 0.09,0.44 0.06,0.66 -0.01,0.08 -0.02,0.17 -0.06,0.24 -0.07,-0.17 -0.08,-0.34 -0.08,-0.52 0.01,-0.13 0.02,-0.26 0.08,-0.38z"/>
    <path class="fil0" d="M22.76 1c0.17,0.02 0.33,0.08 0.49,0.15 0.16,0.08 0.33,0.17 0.46,0.3 -0.11,0 -0.22,-0.04 -0.32,-0.07 -0.23,-0.09 -0.45,-0.21 -0.63,-0.38z"/>
    <path class="fil1" d="M24.36 0.08c0.01,0 0.02,0.01 0.03,0.01 0.16,0.25 0.26,0.54 0.25,0.84 -0.04,-0.03 -0.07,-0.09 -0.1,-0.14 -0.11,-0.22 -0.18,-0.46 -0.18,-0.71z"/>
    <path class="fil1" d="M23.68 0.27c0.2,0.14 0.36,0.34 0.48,0.56 0.03,0.07 0.07,0.14 0.08,0.21 -0.19,-0.13 -0.34,-0.32 -0.46,-0.52 -0.04,-0.08 -0.08,-0.16 -0.1,-0.25z"/>
    <path class="fil1" d="M26.57 0.74c0.09,-0.06 0.18,-0.11 0.28,-0.15 -0.05,0.11 -0.14,0.19 -0.22,0.28 -0.17,0.15 -0.35,0.28 -0.56,0.36 0.12,-0.2 0.3,-0.36 0.5,-0.49z"/>
    <path class="fil2" d="M25.58 0.17c0.02,-0.03 0.04,-0.07 0.08,-0.1 0.01,0.25 -0.07,0.5 -0.18,0.72 -0.03,0.05 -0.06,0.1 -0.1,0.15 -0.01,-0.1 0.01,-0.2 0.03,-0.3 0.03,-0.16 0.09,-0.32 0.17,-0.47z"/>
    <path class="fil2" d="M19.35 1.26c0,0.1 -0.02,0.19 -0.03,0.28 -0.99,6.34 -0.34,2.06 -0.96,6.14 0.52,0.07 1.03,0.18 1.54,0.32 0.65,0.17 1.3,0.39 1.91,0.68 0.56,0.26 1.1,0.57 1.58,0.95 0.45,0.36 0.86,0.79 1.15,1.29 -0.17,-0.12 -0.34,-0.24 -0.52,-0.35 -1.89,-1.17 -2.63,-1.33 -3.88,-1.61 -1.12,-0.29 -2.27,-0.45 -3.42,-0.49l2.63 -7.21z"/>
    <path class="fil3" d="M26 0.61c0.1,-0.13 0.21,-0.25 0.35,-0.34 -0.03,0.11 -0.09,0.21 -0.14,0.3 -0.11,0.18 -0.25,0.35 -0.43,0.47 0.04,-0.16 0.13,-0.3 0.22,-0.43z"/>
    <path class="fil4" d="M23.16 0.6c0.07,0.01 0.12,0.04 0.17,0.07 0.21,0.12 0.39,0.27 0.55,0.45 0.02,0.04 0.05,0.07 0.06,0.11 -0.22,-0.09 -0.42,-0.23 -0.59,-0.4 -0.07,-0.07 -0.13,-0.15 -0.19,-0.23z"/>
    <path class="fil4" d="M26.88 1.11c0.13,-0.05 0.25,-0.1 0.39,-0.11 -0.19,0.18 -0.42,0.29 -0.65,0.38 -0.1,0.03 -0.2,0.08 -0.31,0.07 0.17,-0.15 0.37,-0.26 0.57,-0.34z"/>
    <path class="fil5" d="M20.16 0.94c0.59,-0.04 1.18,-0.04 1.76,0.04 0.28,0.02 0.6,0.09 0.94,0.21 0.28,0.1 0.55,0.21 0.8,0.36 0.46,0.27 0.87,0.64 1.13,1.11 0.04,0.09 0.1,0.17 0.1,0.27l-0.2 6.01 -0.04 1.33c-1.5,-1.73 -3.32,-2.7 -5.65,-2.88 0.27,-2.13 0.54,-4.28 0.82,-6.41 0.12,-0.01 0.23,-0.03 0.34,-0.04z"/>
    <path class="fil6" d="M25.13 2.9l0 0c0,-0.01 0,-0.02 0,-0.03 0.23,-0.47 0.66,-0.85 1.09,-1.14 0.33,-0.21 0.84,-0.43 1.22,-0.54 0.04,0.45 0.11,0.77 0.18,1.22 0.04,0.28 0.1,0.59 -0.02,0.86 -0.21,0.5 -0.63,0.87 -0.95,1.29 -0.05,0.08 -0.11,0.18 -0.05,0.27 0.15,0.19 0.42,0.21 0.6,0.37 0.05,0.05 0,0.11 -0.03,0.15 -0.12,0.17 -0.26,0.34 -0.25,0.55 0.01,0.18 0.16,0.31 0.25,0.45 -0.05,0.08 -0.16,0.15 -0.11,0.25 0.08,0.16 0.26,0.28 0.27,0.47 0.02,0.4 -0.83,1.06 0.12,1.43 -0.46,0.26 -1.62,1.24 -2.06,1.76l-0.26 -7.36z"/>
    <path class="fil7" d="M24.33 1.18c0.28,-0.12 0.59,-0.16 0.89,-0.12 0.38,0.04 0.73,0.22 1,0.48 -0.2,0.13 -0.4,0.26 -0.58,0.42 -0.25,0.22 -0.49,0.49 -0.63,0.81 -0.05,-0.16 -0.12,-0.32 -0.22,-0.47 -0.24,-0.34 -0.58,-0.6 -0.95,-0.8 0.14,-0.14 0.31,-0.24 0.49,-0.32z"/>
    <path class="fil8" d="M18.17 2.58c-0.52,1.97 -1.45,4.23 -2.11,6.23 0.37,0 0.74,0.04 1.11,0.08 0.67,0.07 1.34,0.2 1.99,0.37 0.62,0.16 1.24,0.36 1.83,0.61 -0.99,-0.19 -0.68,-0.16 -1.51,-0.28 -0.83,-0.14 -1.66,-0.25 -2.46,-0.26 -0.76,-0.03 -1.53,-0.02 -2.28,0.1l0 -0.01c0.02,-0.03 0.04,-0.07 0.06,-0.11 1.14,-2.23 2.25,-4.49 3.37,-6.73z"/>
    <g>
     <path class="fil9" d="M30.34 1.09c0.03,0.18 0.02,0.36 0.06,0.54 -0.06,0.01 -0.11,0.02 -0.16,0.02 0.03,-0.01 0.08,-0.03 0.11,-0.04 -0.02,-0.17 -0.04,-0.35 -0.01,-0.52z"/>
     <path class="fil10" d="M30.62 2.58c0.11,0.05 0.21,0.12 0.31,0.19 -0.02,0.07 -0.03,0.13 -0.04,0.2 0.02,-0.06 0.04,-0.13 0.05,-0.19 0.12,-0.01 0.25,-0.01 0.37,0.02 -0.14,0.15 -0.25,0.31 -0.36,0.47 -0.07,0.01 -0.14,0.01 -0.2,0 -0.03,-0.04 -0.06,-0.08 -0.09,-0.11 -0.01,-0.2 -0.03,-0.39 -0.04,-0.58z"/>
     <path class="fil10" d="M30.36 3.29c0.05,-0.22 0.09,-0.45 0.07,-0.67 0.09,0.03 0.08,0.14 0.09,0.22 0.01,0.13 -0.03,0.26 -0.07,0.39 0.04,0.01 0.11,0.03 0.15,0.04 -0.08,0.01 -0.16,0.01 -0.24,0.02z"/>
     <path class="fil10" d="M30.54 2.58c0.1,0.18 0.06,0.39 0.08,0.58l0.04 0.06c-0.06,0.04 -0.11,0.01 -0.17,-0.02 0.08,-0.2 0.07,-0.41 0.05,-0.62z"/>
     <path class="fil10" d="M31.02 3.27c0.08,-0.17 0.17,-0.37 0.37,-0.42 -0.14,0.15 -0.27,0.32 -0.32,0.53 -0.07,-0.02 -0.15,-0.03 -0.23,-0.05 0.06,-0.02 0.12,-0.04 0.18,-0.06z"/>
     <path class="fil10" d="M31.32 2.98c0.03,-0.04 0.08,-0.04 0.12,-0.05 -0.12,0.19 -0.23,0.39 -0.31,0.6 -0.03,-0.03 -0.09,-0.08 -0.12,-0.11 0.02,0 0.07,-0.01 0.09,-0.01 0.05,-0.16 0.11,-0.31 0.22,-0.43z"/>
     <path class="fil10" d="M28.14 4.96c0.22,0.07 0.46,0.14 0.63,0.3 0.23,-0.08 0.48,-0.09 0.72,-0.08 -0.21,0.29 -0.45,0.58 -0.52,0.95 -0.15,0.04 -0.3,0.07 -0.45,0.1 -0.23,0.05 -0.47,0.02 -0.68,0.11 0.03,-0.41 0.07,-0.83 -0.04,-1.23 0.04,0 0.1,0 0.13,0 0.11,0.35 0.14,0.74 0.04,1.1 0.16,0.01 0.31,0.03 0.46,0.01 -0.11,-0.04 -0.23,-0.07 -0.35,-0.08 0.07,-0.38 0.02,-0.77 -0.11,-1.13 0.04,0.03 0.11,0.03 0.13,0.09 0.12,0.3 0.19,0.63 0.13,0.95 0.1,0.06 0.2,0.11 0.32,0.14 -0.07,-0.06 -0.15,-0.12 -0.22,-0.17 0.05,-0.36 -0.08,-0.72 -0.19,-1.06z"/>
     <path class="fil10" d="M29.5 5.3c0.05,-0.01 0.09,-0.01 0.14,-0.02 -0.24,0.3 -0.44,0.65 -0.46,1.03 -0.17,-0.05 -0.36,0.02 -0.52,-0.07 0.13,-0.02 0.25,-0.03 0.38,-0.04 0.06,-0.34 0.24,-0.64 0.46,-0.9z"/>
     <path class="fil10" d="M29.25 6.42c0.03,-0.38 0.17,-0.74 0.39,-1.04 0.03,0.03 0.14,0.03 0.09,0.09 -0.21,0.34 -0.3,0.73 -0.39,1.11 -0.14,-0.11 -0.32,-0.17 -0.48,-0.23 0.13,0.01 0.26,0.03 0.39,0.07z"/>
     <path class="fil11" d="M29.96 1.13c0.11,-0.04 0.21,-0.1 0.32,-0.15 -0.04,0.19 -0.07,0.39 -0.07,0.58 -0.04,0.02 -0.08,0.04 -0.12,0.06 0.05,-0.01 0.1,-0.02 0.14,-0.02 0.03,-0.2 -0.01,-0.44 0.13,-0.6 0.01,0.02 0.01,0.06 0.02,0.08 0.02,-0.01 0.06,-0.03 0.08,-0.04 -0.03,0.22 0,0.44 0.02,0.65 -0.14,-0.03 -0.28,0 -0.41,-0.03 -0.06,0.02 -0.13,0.05 -0.19,0.08 -0.06,0.04 -0.12,0.08 -0.18,0.11 -0.05,-0.2 -0.14,-0.39 -0.22,-0.57 0.01,-0.02 0.05,-0.04 0.07,-0.05 0.08,-0.15 0.27,-0.07 0.41,-0.1zm0.38 -0.04l0 0c-0.03,0.17 -0.01,0.35 0.01,0.52 -0.03,0.01 -0.08,0.03 -0.11,0.04 0.05,0 0.1,-0.01 0.16,-0.02 -0.04,-0.18 -0.03,-0.36 -0.06,-0.54z"/>
     <path class="fil11" d="M28.76 4.18l0.02 -0.02 0.03 0.01 0 0.04 -0.03 0.02c0,-0.02 -0.01,-0.04 -0.02,-0.05z"/>
     <path class="fil11" d="M28.95 7.61c0.28,0.07 0.56,0.17 0.8,0.34 0.07,0.04 0.04,0.14 0.04,0.21 -0.03,0.37 -0.13,0.75 -0.15,1.13 -0.03,0 -0.09,-0.01 -0.12,-0.01 -0.1,-0.07 -0.2,-0.13 -0.3,-0.2 -0.02,-0.13 0.01,-0.26 0,-0.39 -0.03,-0.37 -0.16,-0.73 -0.27,-1.08z"/>
     <path class="fil11" d="M28.73 7.66c0.05,0.04 0.1,0.07 0.16,0.11 0.09,0.29 0.18,0.58 0.22,0.89 0,0.15 -0.02,0.3 -0.04,0.46 0.14,0.07 0.28,0.11 0.4,0.22 -0.22,-0.01 -0.41,-0.11 -0.62,-0.12 0.09,-0.31 0.09,-0.64 0.03,-0.96 -0.04,-0.2 -0.12,-0.39 -0.15,-0.6z"/>
     <path class="fil11" d="M28.48 7.82c0.06,-0.01 0.12,-0.01 0.19,-0.01 0.05,0.24 0.12,0.48 0.13,0.72 0.01,0.27 -0.02,0.53 -0.07,0.8 0.17,0 0.33,0.04 0.49,0.06l0.01 0.03c-0.24,-0.02 -0.49,-0.02 -0.7,0.1 0.04,-0.57 0.12,-1.15 -0.05,-1.7z"/>
     <path class="fil11" d="M29.83 8.05c0.29,-0.18 0.66,-0.14 0.99,-0.14 -0.25,0.32 -0.51,0.65 -0.65,1.04 -0.03,0.09 -0.04,0.19 -0.09,0.27 -0.14,0.05 -0.29,0.06 -0.44,0.08 0.03,-0.42 0.16,-0.83 0.19,-1.25z"/>
     <path class="fil11" d="M30.84 8.06c0.06,0 0.12,-0.01 0.17,-0.01 -0.19,0.26 -0.39,0.53 -0.5,0.84 -0.07,0.19 -0.12,0.39 -0.13,0.6 -0.2,-0.1 -0.44,0 -0.62,-0.13 0.15,-0.03 0.3,-0.04 0.45,-0.06 0.06,-0.47 0.33,-0.88 0.63,-1.24z"/>
     <path class="fil11" d="M30.48 9.61c0.04,-0.52 0.24,-1.01 0.54,-1.42 0.05,0.02 0.1,0.04 0.14,0.06 0,0.03 -0.02,0.06 -0.03,0.09 -0.29,0.46 -0.4,1 -0.53,1.51 -0.16,-0.17 -0.4,-0.23 -0.61,-0.3 0.17,-0.03 0.33,0.02 0.49,0.06z"/>
     <path class="fil12" d="M31.83 0.9c0.02,0 0.06,0.01 0.08,0.01 0,0.25 -0.1,0.47 -0.19,0.69 0.04,0.02 0.09,0.05 0.14,0.08 -0.1,-0.01 -0.19,-0.03 -0.28,-0.04 0.12,-0.23 0.21,-0.48 0.25,-0.74z"/>
     <path class="fil12" d="M31.96 0.86c0.11,0.22 0.02,0.48 -0.07,0.69 0.05,0.06 0.09,0.12 0.12,0.19 -0.08,-0.06 -0.16,-0.12 -0.24,-0.17 0.14,-0.21 0.17,-0.46 0.19,-0.71z"/>
     <path class="fil12" d="M32.06 0.87c0.13,0.09 0.25,0.2 0.33,0.33 0.16,-0.01 0.3,0.04 0.44,0.1 -0.19,0.13 -0.38,0.27 -0.52,0.46 -0.02,0.01 -0.06,0.02 -0.08,0.03 0.03,0.01 0.09,0.02 0.11,0.03 0.12,-0.21 0.32,-0.39 0.55,-0.46 -0.03,0.06 -0.07,0.09 -0.12,0.13 -0.01,0.01 -0.01,0.05 -0.01,0.07 0.04,-0.07 0.11,-0.1 0.19,-0.08 -0.2,0.18 -0.37,0.4 -0.51,0.63 -0.05,-0.06 -0.1,-0.11 -0.15,-0.17l0.02 0c0.04,0.01 0.08,0.02 0.12,0.04 0.08,-0.15 0.16,-0.32 0.32,-0.41 -0.02,-0.01 -0.04,-0.03 -0.06,-0.04 -0.11,0.11 -0.22,0.23 -0.28,0.37 -0.05,0 -0.11,-0.05 -0.15,0 -0.03,-0.01 -0.05,-0.03 -0.06,-0.06 -0.05,-0.07 -0.1,-0.13 -0.19,-0.15 -0.02,-0.07 -0.07,-0.13 -0.03,-0.2 0.07,-0.2 0.08,-0.41 0.08,-0.62z"/>
     <path class="fil12" d="M28.85 3.32c0.14,-0.12 0.32,-0.19 0.49,-0.25 -0.08,0.27 -0.15,0.56 -0.1,0.85 -0.11,0.07 -0.22,0.15 -0.34,0.2 -0.1,0.03 -0.21,0.03 -0.31,0.05 -0.04,-0.3 -0.23,-0.55 -0.41,-0.79 0.04,0.02 0.1,0.02 0.13,0.05 0.18,0.18 0.31,0.41 0.38,0.65 0.09,0 0.18,0 0.27,-0.01 -0.08,-0.02 -0.15,-0.03 -0.22,-0.04 -0.07,-0.29 -0.27,-0.51 -0.45,-0.73 0.18,-0.01 0.36,-0.02 0.53,0.02 0.05,0.16 0.08,0.32 0.12,0.47 -0.01,-0.16 -0.05,-0.31 -0.09,-0.47z"/>
     <path class="fil12" d="M29.38 3.14c0.03,-0.01 0.07,-0.04 0.09,-0.05 -0.07,0.29 -0.14,0.61 -0.02,0.9 -0.07,0.01 -0.14,0.02 -0.2,0.03 0.02,0.02 0.05,0.04 0.08,0.05 0.06,-0.01 0.13,-0.03 0.19,-0.05 -0.09,-0.27 -0.1,-0.57 -0.01,-0.84 0.02,-0.01 0.06,-0.02 0.09,-0.03 -0.06,0.33 -0.02,0.66 0.04,0.98 -0.13,-0.04 -0.27,-0.04 -0.41,-0.01 0.01,-0.02 0.02,-0.06 0.02,-0.08 -0.04,0.01 -0.12,0.02 -0.16,0.03 0.07,-0.05 0.14,-0.1 0.22,-0.14 -0.06,-0.27 -0.01,-0.54 0.07,-0.79z"/>
     <path class="fil12" d="M28.09 3.51c0.04,-0.01 0.07,-0.03 0.1,-0.04 0.18,0.23 0.31,0.5 0.35,0.79 0.03,-0.02 0.1,-0.04 0.13,-0.06 0.03,0.02 0.05,0.03 0.08,0.05 -0.1,0.02 -0.19,0.07 -0.27,0.13 -0.1,-0.3 -0.19,-0.61 -0.39,-0.87z"/>
     <path class="fil13" d="M30.5 4.69c0.19,0.03 0.37,0.07 0.54,0.15 0.02,0.05 0.04,0.09 0.06,0.14 0,-0.05 -0.01,-0.11 -0.01,-0.16 0.16,-0.06 0.33,-0.09 0.5,-0.12 -0.13,0.25 -0.27,0.51 -0.3,0.8 -0.05,0.02 -0.11,0.05 -0.16,0.07 0.07,-0.01 0.15,-0.02 0.23,-0.02 0.01,-0.25 0.09,-0.49 0.22,-0.7 0.02,-0.05 0.08,-0.07 0.13,-0.1 -0.12,0.27 -0.26,0.56 -0.23,0.86 -0.09,0.01 -0.18,0.01 -0.26,0.02 0.09,0.07 0.22,0.04 0.33,0.05 -0.03,-0.28 0.04,-0.56 0.16,-0.82 0.03,0 0.08,0 0.11,-0.01 -0.12,0.31 -0.16,0.63 -0.18,0.95 -0.19,-0.09 -0.4,-0.09 -0.58,-0.2 -0.09,0 -0.17,0.06 -0.26,0.08 -0.12,0.03 -0.24,0.06 -0.35,0.11 -0.03,-0.32 -0.05,-0.65 -0.17,-0.95 0.03,0 0.08,0.01 0.11,0.01 0.12,0.26 0.17,0.54 0.15,0.83 0.07,0 0.13,-0.01 0.18,-0.04 -0.02,-0.01 -0.08,-0.02 -0.11,-0.03 0.03,-0.31 -0.1,-0.6 -0.22,-0.88 0.05,0.03 0.11,0.06 0.13,0.11 0.13,0.22 0.2,0.46 0.2,0.7 0.04,0.01 0.1,0.01 0.14,0.01 -0.02,0.03 -0.05,0.07 -0.07,0.09 0.05,-0.03 0.11,-0.06 0.17,-0.08 -0.06,-0.02 -0.12,-0.04 -0.17,-0.06 -0.02,-0.29 -0.14,-0.56 -0.29,-0.81z"/>
    </g>
   </g>
   <g>
    <polygon class="fil14" points="33.68,18.79 7.8,18.79 7.8,18.73 33.68,18.73 "/>
   </g>
   <g>
    <polygon class="fil15" points="33.68,18.88 6.94,18.88 6.94,18.82 33.68,18.82 "/>
   </g>
   <g>
    <polygon class="fil16" points="33.68,18.96 5.86,18.96 5.86,18.9 33.68,18.9 "/>
   </g>
   <g>
    <path class="fil17" d="M5.07 3.89l0.12 0c1.83,0.04 3.65,0.07 5.47,0.1 1.49,1.36 2.99,2.71 4.48,4.07l0 0c-0.81,-0.34 -1.63,-0.67 -2.44,-1.01 -0.15,0.35 -0.29,0.7 -0.43,1.05 -0.4,-0.51 -0.87,-0.97 -1.4,-1.34 -1.05,-0.75 -2.34,-1.17 -3.64,-1.18 0.09,-0.23 0.19,-0.45 0.28,-0.68 -0.81,-0.33 -1.63,-0.67 -2.44,-1.01z"/>
   </g>
   <g>
    <path class="fil18" d="M5.07 6.54c1.15,-0.37 2.39,-0.41 3.56,-0.12 1.16,0.29 2.23,0.91 3.06,1.77 0.8,0.82 1.37,1.86 1.63,2.98 0.3,1.25 0.22,2.58 -0.24,3.78 -0.47,1.26 -1.36,2.37 -2.48,3.1 0.77,-0.55 1.41,-1.29 1.84,-2.14 0.56,-1.12 0.74,-2.41 0.51,-3.64 -0.19,-1.09 -0.71,-2.11 -1.47,-2.91 -0.82,-0.88 -1.92,-1.49 -3.09,-1.72 -0.92,-0.19 -1.89,-0.14 -2.79,0.13 0.04,-0.47 -0.16,-0.94 -0.53,-1.23z"/>
   </g>
   <g>
    <path class="fil16" d="M4.08 6.59c0.24,-0.04 0.5,0 0.71,0.12 0.23,0.12 0.41,0.32 0.51,0.56 0.1,0.22 0.12,0.47 0.07,0.7 -0.06,0.26 -0.2,0.49 -0.41,0.65 -0.17,0.14 -0.38,0.23 -0.61,0.25 -0.26,0.02 -0.54,-0.05 -0.76,-0.2 -0.22,-0.15 -0.38,-0.37 -0.45,-0.63 -0.09,-0.3 -0.05,-0.63 0.11,-0.9 0.17,-0.29 0.49,-0.51 0.83,-0.55z"/>
    <path class="fil16" d="M0.65 9.97c0.49,-0.98 1.24,-1.83 2.16,-2.43 -0.05,0.41 0.08,0.84 0.36,1.15 0.23,0.26 0.55,0.42 0.89,0.47 -1.04,0.7 -1.81,1.77 -2.15,2.97 -0.24,0.82 -0.27,1.7 -0.11,2.54 0.12,0.59 0.33,1.15 0.64,1.67 0.5,0.87 1.26,1.59 2.15,2.05 0.55,0.29 1.15,0.48 1.76,0.57l-0.34 0c-0.63,-0.02 -1.25,-0.13 -1.84,-0.34 -1.06,-0.37 -2.02,-1.04 -2.74,-1.9 -0.7,-0.85 -1.18,-1.89 -1.35,-2.97 -0.04,-0.26 -0.07,-0.53 -0.08,-0.79l0 -0.37c0.02,-0.91 0.24,-1.81 0.65,-2.62z"/>
   </g>
   <g>
    <path class="fil15" d="M5.55 9.31c0.21,-0.04 0.43,0 0.62,0.11 0.19,0.12 0.33,0.31 0.39,0.53 0.07,0.24 0.02,0.51 -0.12,0.72 -0.13,0.21 -0.36,0.35 -0.6,0.39 -0.21,0.04 -0.43,-0.01 -0.61,-0.12 -0.22,-0.14 -0.38,-0.37 -0.41,-0.63 -0.03,-0.21 0.02,-0.44 0.14,-0.62 0.13,-0.2 0.35,-0.34 0.59,-0.38z"/>
    <path class="fil15" d="M4.59 10.04c-0.04,0.28 0.03,0.57 0.2,0.79 0.18,0.25 0.46,0.42 0.76,0.46 -0.68,0.47 -1.22,1.14 -1.53,1.91 -0.29,0.73 -0.36,1.54 -0.22,2.3 0.11,0.6 0.35,1.16 0.69,1.65 0.33,0.47 0.76,0.86 1.24,1.16 0.49,0.3 1.04,0.49 1.6,0.57l-0.24 0c-0.72,-0.02 -1.44,-0.2 -2.08,-0.54 -0.92,-0.47 -1.68,-1.26 -2.12,-2.19 -0.3,-0.62 -0.46,-1.31 -0.48,-1.99 -0.01,-0.69 0.13,-1.39 0.4,-2.02 0.38,-0.85 1,-1.59 1.78,-2.1z"/>
   </g>
   <g>
    <path class="fil14" d="M6.88 12.46c0.27,-0.06 0.57,0.09 0.67,0.35 0.11,0.25 0.01,0.57 -0.22,0.72 -0.15,0.1 -0.34,0.12 -0.5,0.07 -0.16,-0.05 -0.29,-0.17 -0.36,-0.32 -0.08,-0.17 -0.07,-0.37 0.03,-0.53 0.08,-0.15 0.22,-0.25 0.38,-0.29z"/>
    <path class="fil14" d="M5.21 14.1c0.25,-0.47 0.62,-0.87 1.06,-1.16 -0.02,0.18 0.03,0.37 0.13,0.51 0.11,0.18 0.31,0.29 0.51,0.32 -0.39,0.27 -0.72,0.65 -0.93,1.08 -0.26,0.54 -0.34,1.17 -0.22,1.75 0.12,0.58 0.43,1.11 0.87,1.5 0.4,0.37 0.92,0.61 1.46,0.68l-0.22 0c-0.28,-0.02 -0.57,-0.06 -0.84,-0.15 -0.59,-0.19 -1.12,-0.57 -1.51,-1.06 -0.35,-0.44 -0.58,-0.98 -0.65,-1.55 -0.09,-0.65 0.03,-1.34 0.34,-1.92z"/>
   </g>
   <path class="fil19" d="M4.97 20.66l2.21 0 0 -0.55 -2.21 0 0 0.55zm0.54 0.27l0 1.35 0.55 0 0 -1.35 -0.55 0z"/>
   <path id="1" class="fil19" d="M8.24 22.28l0 -1.35 -0.54 0 0 1.35 0.54 0zm0.16 -1.35l0 0.54 0.59 1.36 0.61 0 -0.65 -1.48c0.24,-0.11 0.36,-0.29 0.37,-0.55 0,-0.1 -0.01,-0.19 -0.05,-0.27 -0.03,-0.09 -0.08,-0.16 -0.14,-0.22 -0.06,-0.06 -0.12,-0.11 -0.2,-0.14 -0.08,-0.04 -0.17,-0.05 -0.26,-0.05l-1.24 0 0 0.54 1.24 0c0.04,0 0.06,0.01 0.08,0.04 0.02,0.03 0.03,0.06 0.03,0.1 0,0.03 -0.01,0.06 -0.03,0.09 -0.02,0.03 -0.04,0.04 -0.08,0.04l-0.27 0z"/>
   <polygon id="2" class="fil19" points="9.61,22.28 11.78,22.28 10.75,19.58 10.2,19.58 11.04,21.74 10.36,21.74 10.7,20.93 10.13,20.93 "/>
   <path id="3" class="fil19" d="M12 22.28l0.55 0 0 -1.89 -0.55 0 0 1.89zm0 -2.16l0.55 0 0 -0.54 -0.55 0 0 0.54z"/>
   <path id="4" class="fil19" d="M12.79 22.83l0.54 0 0 -1.9c0,-0.04 0.01,-0.07 0.03,-0.1 0.01,-0.04 0.03,-0.07 0.06,-0.09 0.02,-0.03 0.05,-0.05 0.08,-0.06 0.03,-0.01 0.07,-0.02 0.11,-0.02 0.07,0 0.13,0.03 0.19,0.08 0.05,0.05 0.08,0.12 0.08,0.19l0 1.22 0.54 0 0 -1.22c0,-0.11 -0.02,-0.22 -0.06,-0.31 -0.05,-0.1 -0.1,-0.19 -0.18,-0.26 -0.07,-0.08 -0.16,-0.14 -0.26,-0.18 -0.1,-0.04 -0.2,-0.06 -0.31,-0.06 -0.11,0 -0.22,0.02 -0.32,0.06 -0.1,0.04 -0.18,0.1 -0.26,0.18 -0.07,0.07 -0.13,0.16 -0.17,0.26 -0.05,0.09 -0.07,0.2 -0.07,0.31l0 1.9z"/>
   <path id="5" class="fil19" d="M14.67 22.28l0.54 0 0 -1.89 -0.54 0 0 1.89zm0 -2.16l0.55 0 0 -0.54 -0.55 0 0 0.54z"/>
   <path id="6" class="fil19" d="M15.46 22.83l0.54 0 0 -1.9c0,-0.04 0.01,-0.07 0.02,-0.1 0.02,-0.04 0.04,-0.07 0.06,-0.09 0.03,-0.03 0.06,-0.05 0.09,-0.06 0.03,-0.01 0.06,-0.02 0.1,-0.02 0.08,0 0.14,0.03 0.19,0.08 0.05,0.05 0.08,0.12 0.08,0.19l0 1.22 0.54 0 0 -1.22c0,-0.11 -0.02,-0.22 -0.06,-0.31 -0.04,-0.1 -0.1,-0.19 -0.17,-0.26 -0.08,-0.08 -0.16,-0.14 -0.26,-0.18 -0.1,-0.04 -0.21,-0.06 -0.32,-0.06 -0.11,0 -0.21,0.02 -0.31,0.06 -0.1,0.04 -0.19,0.1 -0.26,0.18 -0.07,0.07 -0.13,0.16 -0.18,0.26 -0.04,0.09 -0.06,0.2 -0.06,0.31l0 1.9z"/>
   <path id="7" class="fil19" d="M18.41 22.28c0.08,0 0.16,0 0.22,-0.02 0.06,-0.01 0.13,-0.03 0.21,-0.07l0 -0.68c-0.1,0.15 -0.25,0.23 -0.43,0.23 -0.08,0 -0.15,-0.01 -0.21,-0.04 -0.07,-0.03 -0.12,-0.07 -0.17,-0.12 -0.05,-0.05 -0.09,-0.1 -0.12,-0.17 -0.03,-0.06 -0.04,-0.13 -0.04,-0.21 0,-0.07 0.01,-0.14 0.04,-0.21 0.03,-0.06 0.07,-0.12 0.12,-0.17 0.05,-0.05 0.1,-0.09 0.17,-0.12 0.06,-0.03 0.13,-0.04 0.21,-0.04l0.96 0 0 -0.55 -0.96 0c-0.15,0 -0.29,0.03 -0.42,0.09 -0.13,0.06 -0.24,0.14 -0.34,0.24 -0.1,0.09 -0.18,0.21 -0.24,0.34 -0.06,0.13 -0.09,0.27 -0.09,0.42 0,0.15 0.03,0.29 0.09,0.42 0.06,0.13 0.14,0.25 0.24,0.34 0.09,0.1 0.21,0.18 0.34,0.24 0.13,0.06 0.27,0.08 0.42,0.08zm-0.27 -0.81l0.7 0 0 -0.55 -0.7 0 0 0.55z"/>
   <polygon id="8" class="fil19" points="20.5,19.62 19.77,19.2 19.64,19.44 20.37,19.86 "/>
   <path id="9" class="fil19" d="M21.85 22.28c0.08,0 0.16,0 0.22,-0.02 0.06,-0.01 0.13,-0.03 0.21,-0.07l0 -0.68c-0.1,0.15 -0.24,0.23 -0.43,0.23 -0.07,0 -0.14,-0.01 -0.21,-0.04 -0.07,-0.03 -0.12,-0.07 -0.17,-0.12 -0.05,-0.05 -0.09,-0.1 -0.12,-0.17 -0.03,-0.06 -0.04,-0.13 -0.04,-0.21 0,-0.07 0.01,-0.14 0.04,-0.21 0.03,-0.06 0.07,-0.12 0.12,-0.17 0.05,-0.05 0.1,-0.09 0.17,-0.12 0.07,-0.03 0.14,-0.04 0.21,-0.04l0.95 0 0 -0.54 -0.95 0c-0.15,0 -0.29,0.03 -0.42,0.08 -0.13,0.06 -0.24,0.14 -0.34,0.24 -0.1,0.1 -0.18,0.21 -0.24,0.34 -0.05,0.13 -0.08,0.27 -0.08,0.42 0,0.15 0.03,0.29 0.08,0.42 0.06,0.13 0.14,0.25 0.24,0.34 0.1,0.1 0.21,0.18 0.34,0.24 0.13,0.06 0.27,0.08 0.42,0.08z"/>
   <path id="10" class="fil19" d="M23.05 22.28l1.46 0 0 -0.54 -0.92 0 0 -0.27 0.92 0 0 -0.54 -1.46 0 0 1.35zm0 -1.62l1.9 0 0 -0.54 -1.9 0 0 0.54z"/>
   <path id="11" class="fil19" d="M25.18 22.83l0.54 0 0 -1.9c0,-0.04 0.01,-0.07 0.02,-0.1 0.02,-0.04 0.04,-0.07 0.06,-0.09 0.03,-0.03 0.06,-0.05 0.09,-0.06 0.03,-0.01 0.07,-0.02 0.1,-0.02 0.08,0 0.14,0.03 0.19,0.08 0.06,0.05 0.08,0.12 0.08,0.19l0 1.22 0.54 0 0 -1.22c0,-0.11 -0.02,-0.22 -0.06,-0.31 -0.04,-0.1 -0.1,-0.19 -0.17,-0.26 -0.08,-0.08 -0.16,-0.14 -0.26,-0.18 -0.1,-0.04 -0.21,-0.06 -0.32,-0.06 -0.11,0 -0.21,0.02 -0.31,0.06 -0.1,0.04 -0.19,0.1 -0.26,0.18 -0.07,0.07 -0.13,0.16 -0.18,0.26 -0.04,0.09 -0.06,0.2 -0.06,0.31l0 1.9z"/>
   <path id="12" class="fil19" d="M27.07 20.66l2.21 0 0 -0.55 -2.21 0 0 0.55zm0.54 0.27l0 1.35 0.54 0 0 -1.35 -0.54 0z"/>
   <path id="13" class="fil19" d="M29.49 22.28l1.46 0 0 -0.54 -0.92 0 0 -0.27 0.92 0 0 -0.54 -1.46 0 0 1.35zm0 -1.62l1.9 0 0 -0.54 -1.9 0 0 0.54z"/>
   <path id="14" class="fil19" d="M32.46 22.28l0 -1.35 -0.54 0 0 1.35 0.54 0zm0.16 -1.35l0 0.54 0.59 1.36 0.61 0 -0.65 -1.48c0.24,-0.11 0.36,-0.29 0.37,-0.55 0,-0.1 -0.01,-0.19 -0.05,-0.27 -0.03,-0.09 -0.08,-0.16 -0.14,-0.22 -0.06,-0.06 -0.13,-0.11 -0.2,-0.14 -0.08,-0.04 -0.17,-0.05 -0.26,-0.05l-1.24 0 0 0.54 1.24 0c0.04,0 0.06,0.01 0.08,0.04 0.02,0.03 0.03,0.06 0.03,0.1 0,0.03 -0.01,0.06 -0.03,0.09 -0.02,0.03 -0.04,0.04 -0.08,0.04l-0.27 0z"/>
   <g>
    <g>
     <path class="fil20 str0" d="M10.9 14.1c0.11,0 0.21,-0.01 0.29,-0.03 0.09,-0.02 0.18,-0.05 0.29,-0.1l0 -0.9c-0.14,0.2 -0.33,0.31 -0.58,0.31 -0.1,0 -0.19,-0.02 -0.28,-0.06 -0.09,-0.04 -0.16,-0.09 -0.23,-0.16 -0.06,-0.06 -0.12,-0.14 -0.15,-0.23 -0.04,-0.08 -0.06,-0.17 -0.06,-0.27 0,-0.1 0.02,-0.19 0.06,-0.28 0.03,-0.09 0.09,-0.16 0.15,-0.23 0.07,-0.07 0.14,-0.12 0.23,-0.16 0.09,-0.04 0.18,-0.06 0.28,-0.06l1.26 0 0 -0.72 -1.26 0c-0.2,0 -0.38,0.04 -0.56,0.12 -0.17,0.07 -0.32,0.18 -0.46,0.31 -0.13,0.13 -0.23,0.28 -0.31,0.46 -0.07,0.17 -0.11,0.36 -0.11,0.56 0,0.19 0.04,0.38 0.11,0.55 0.08,0.18 0.18,0.33 0.31,0.46 0.14,0.13 0.29,0.24 0.46,0.31 0.18,0.08 0.36,0.12 0.56,0.12z"/>
    </g>
    <g>
     <path id="1" class="fil20 str0" d="M13.62 14.1l0 -1.81 -0.72 0 0 1.81 0.72 0zm0.22 -1.81l0 0.73 0.78 1.8 0.81 0 -0.87 -1.97c0.32,-0.14 0.49,-0.38 0.51,-0.73 0,-0.13 -0.03,-0.25 -0.07,-0.36 -0.05,-0.11 -0.11,-0.21 -0.19,-0.29 -0.08,-0.08 -0.17,-0.14 -0.27,-0.19 -0.11,-0.05 -0.22,-0.07 -0.34,-0.07l-1.66 0 0 0.72 1.66 0c0.04,0 0.08,0.02 0.11,0.06 0.02,0.04 0.04,0.08 0.04,0.13 0,0.04 -0.02,0.08 -0.04,0.12 -0.03,0.04 -0.07,0.05 -0.11,0.05l-0.36 0z"/>
    </g>
    <g>
     <path id="2" class="fil20 str0" d="M15.45 14.1l1.95 0 0 -0.72 -1.22 0 0 -0.36 1.22 0 0 -0.73 -1.95 0 0 1.81zm0 -2.17l2.53 0 0 -0.72 -2.53 0 0 0.72z"/>
    </g>
    <g>
     <polygon id="3" class="fil20 str0" points="18.28,14.1 21.17,14.1 19.8,10.49 19.06,10.49 20.18,13.38 19.27,13.38 19.72,12.29 18.97,12.29 "/>
    </g>
    <g>
     <path id="4" class="fil20 str0" d="M21.48 11.93l2.95 0 0 -0.72 -2.95 0 0 0.72zm0.72 0.36l0 1.81 0.73 0 0 -1.81 -0.73 0z"/>
    </g>
    <g>
     <path id="5" class="fil20 str0" d="M24.73 14.1l0.72 0 0 -2.53 -0.72 0 0 2.53zm0 -2.89l0.73 0 0 -0.72 -0.73 0 0 0.72z"/>
    </g>
    <g>
     <path id="6" class="fil20 str0" d="M27.58 14.1l1.48 -3.61 -0.72 0 -1.1 2.56 -0.29 -0.76 -0.77 0 0.68 1.81 0.72 0zm-1.56 -2.16l0.79 -0.01 -0.27 -0.72 -0.78 0 0.26 0.73z"/>
    </g>
    <g>
     <path id="7" class="fil20 str0" d="M29.31 14.1l1.95 0 0 -0.72 -1.23 0 0 -0.36 1.23 0 0 -0.73 -1.95 0 0 1.81zm0 -2.17l2.53 0 0 -0.72 -2.53 0 0 0.72z"/>
    </g>
    <path id="8" class="fil21" d="M10.9 14.1c0.11,0 0.21,-0.01 0.29,-0.03 0.09,-0.02 0.18,-0.05 0.29,-0.1l0 -0.9c-0.14,0.2 -0.33,0.31 -0.58,0.31 -0.1,0 -0.19,-0.02 -0.28,-0.06 -0.09,-0.04 -0.16,-0.09 -0.23,-0.16 -0.06,-0.06 -0.12,-0.14 -0.15,-0.23 -0.04,-0.08 -0.06,-0.17 -0.06,-0.27 0,-0.1 0.02,-0.19 0.06,-0.28 0.03,-0.09 0.09,-0.16 0.15,-0.23 0.07,-0.07 0.14,-0.12 0.23,-0.16 0.09,-0.04 0.18,-0.06 0.28,-0.06l1.26 0 0 -0.72 -1.26 0c-0.2,0 -0.38,0.04 -0.56,0.12 -0.17,0.07 -0.32,0.18 -0.46,0.31 -0.13,0.13 -0.23,0.28 -0.31,0.46 -0.07,0.17 -0.11,0.36 -0.11,0.56 0,0.19 0.04,0.38 0.11,0.55 0.08,0.18 0.18,0.33 0.31,0.46 0.14,0.13 0.29,0.24 0.46,0.31 0.18,0.08 0.36,0.12 0.56,0.12z"/>
    <path id="9" class="fil21" d="M13.62 14.1l0 -1.81 -0.72 0 0 1.81 0.72 0zm0.22 -1.81l0 0.73 0.78 1.8 0.81 0 -0.87 -1.97c0.32,-0.14 0.49,-0.38 0.51,-0.73 0,-0.13 -0.03,-0.25 -0.07,-0.36 -0.05,-0.11 -0.11,-0.21 -0.19,-0.29 -0.08,-0.08 -0.17,-0.14 -0.27,-0.19 -0.11,-0.05 -0.22,-0.07 -0.34,-0.07l-1.66 0 0 0.72 1.66 0c0.04,0 0.08,0.02 0.11,0.06 0.02,0.04 0.04,0.08 0.04,0.13 0,0.04 -0.02,0.08 -0.04,0.12 -0.03,0.04 -0.07,0.05 -0.11,0.05l-0.36 0z"/>
    <path id="10" class="fil21" d="M15.45 14.1l1.95 0 0 -0.72 -1.22 0 0 -0.36 1.22 0 0 -0.73 -1.95 0 0 1.81zm0 -2.17l2.53 0 0 -0.72 -2.53 0 0 0.72z"/>
    <polygon id="11" class="fil21" points="18.28,14.1 21.17,14.1 19.8,10.49 19.06,10.49 20.18,13.38 19.27,13.38 19.72,12.29 18.97,12.29 "/>
    <path id="12" class="fil21" d="M21.48 11.93l2.95 0 0 -0.72 -2.95 0 0 0.72zm0.72 0.36l0 1.81 0.73 0 0 -1.81 -0.73 0z"/>
    <path id="13" class="fil21" d="M24.73 14.1l0.72 0 0 -2.53 -0.72 0 0 2.53zm0 -2.89l0.73 0 0 -0.72 -0.73 0 0 0.72z"/>
    <path id="14" class="fil21" d="M27.58 14.1l1.48 -3.61 -0.72 0 -1.1 2.56 -0.29 -0.76 -0.77 0 0.68 1.81 0.72 0zm-1.56 -2.16l0.79 -0.01 -0.27 -0.72 -0.78 0 0.26 0.73z"/>
    <path id="15" class="fil21" d="M29.31 14.1l1.95 0 0 -0.72 -1.23 0 0 -0.36 1.23 0 0 -0.73 -1.95 0 0 1.81zm0 -2.17l2.53 0 0 -0.72 -2.53 0 0 0.72z"/>
    <g>
     <path class="fil20 str1" d="M9.01 17.5c0.09,0 0.17,-0.01 0.24,-0.03 0.06,-0.01 0.14,-0.04 0.22,-0.08l0 -0.72c-0.11,0.16 -0.26,0.24 -0.46,0.24 -0.08,0 -0.16,-0.01 -0.23,-0.04 -0.07,-0.04 -0.13,-0.08 -0.18,-0.13 -0.05,-0.05 -0.1,-0.11 -0.13,-0.18 -0.03,-0.07 -0.04,-0.15 -0.04,-0.23 0,-0.08 0.01,-0.15 0.04,-0.22 0.03,-0.07 0.08,-0.13 0.13,-0.19 0.05,-0.05 0.11,-0.09 0.18,-0.12 0.07,-0.03 0.15,-0.05 0.23,-0.05l1.02 0 0 -0.58 -1.02 0c-0.16,0 -0.31,0.03 -0.45,0.09 -0.14,0.06 -0.26,0.15 -0.37,0.25 -0.11,0.11 -0.19,0.23 -0.25,0.37 -0.06,0.14 -0.09,0.29 -0.09,0.45 0,0.16 0.03,0.31 0.09,0.45 0.06,0.14 0.14,0.27 0.25,0.37 0.11,0.11 0.23,0.19 0.37,0.25 0.14,0.07 0.29,0.1 0.45,0.1z"/>
    </g>
    <g>
     <path id="1" class="fil20 str1" d="M11.45 17.5c0.16,0 0.31,-0.03 0.45,-0.1 0.14,-0.06 0.27,-0.14 0.37,-0.25 0.11,-0.1 0.19,-0.23 0.25,-0.37 0.06,-0.14 0.1,-0.29 0.1,-0.45 0,-0.16 -0.04,-0.31 -0.1,-0.45 -0.06,-0.14 -0.14,-0.26 -0.25,-0.37 -0.1,-0.1 -0.23,-0.19 -0.37,-0.25 -0.14,-0.06 -0.29,-0.09 -0.45,-0.09 -0.16,0 -0.3,0.03 -0.45,0.09 -0.14,0.06 -0.26,0.15 -0.37,0.25 -0.1,0.11 -0.19,0.23 -0.25,0.37 -0.06,0.14 -0.09,0.3 -0.09,0.45 0,0.16 0.03,0.31 0.09,0.45 0.06,0.14 0.15,0.26 0.25,0.37 0.11,0.11 0.23,0.19 0.37,0.25 0.15,0.07 0.29,0.1 0.45,0.1zm0 -0.59c-0.08,0 -0.15,-0.01 -0.22,-0.04 -0.07,-0.04 -0.13,-0.08 -0.19,-0.13 -0.05,-0.05 -0.09,-0.11 -0.12,-0.18 -0.03,-0.07 -0.05,-0.15 -0.05,-0.23 0,-0.08 0.02,-0.15 0.05,-0.22 0.03,-0.07 0.07,-0.13 0.12,-0.19 0.06,-0.05 0.12,-0.09 0.19,-0.12 0.07,-0.03 0.14,-0.05 0.22,-0.05 0.08,0 0.16,0.02 0.23,0.05 0.07,0.03 0.13,0.07 0.18,0.12 0.06,0.06 0.1,0.12 0.13,0.19 0.03,0.07 0.05,0.14 0.05,0.22 0,0.08 -0.02,0.16 -0.05,0.23 -0.03,0.07 -0.07,0.13 -0.13,0.18 -0.05,0.05 -0.11,0.09 -0.18,0.13 -0.07,0.03 -0.15,0.04 -0.23,0.04z"/>
    </g>
    <g>
     <path id="2" class="fil20 str1" d="M12.85 18.08l0.58 0 0 -2.04c0,-0.04 0.01,-0.08 0.03,-0.11 0.01,-0.04 0.03,-0.07 0.06,-0.09 0.03,-0.03 0.06,-0.05 0.09,-0.07 0.04,-0.01 0.08,-0.02 0.12,-0.02 0.08,0 0.14,0.03 0.2,0.09 0.06,0.05 0.09,0.12 0.09,0.2l0 1.32 0.58 0 0 -1.32c0,-0.12 -0.02,-0.23 -0.07,-0.34 -0.04,-0.1 -0.11,-0.2 -0.19,-0.27 -0.08,-0.08 -0.17,-0.15 -0.27,-0.19 -0.11,-0.05 -0.22,-0.07 -0.34,-0.07 -0.12,0 -0.24,0.02 -0.34,0.07 -0.11,0.04 -0.2,0.11 -0.28,0.19 -0.08,0.07 -0.14,0.17 -0.19,0.27 -0.04,0.11 -0.07,0.22 -0.07,0.34l0 2.04z"/>
    </g>
    <g>
     <path id="3" class="fil20 str1" d="M16.06 17.5c0.09,0 0.17,-0.02 0.24,-0.07 0.07,-0.04 0.13,-0.09 0.18,-0.16 0.05,-0.07 0.09,-0.15 0.12,-0.23 0.03,-0.09 0.04,-0.18 0.04,-0.27 0,-0.09 -0.01,-0.18 -0.05,-0.27 -0.03,-0.09 -0.08,-0.17 -0.14,-0.24 -0.05,-0.07 -0.13,-0.13 -0.21,-0.18 -0.08,-0.04 -0.17,-0.06 -0.27,-0.06l-0.18 0c-0.11,0 -0.2,-0.01 -0.24,-0.02 -0.05,-0.02 -0.07,-0.05 -0.07,-0.11 0,-0.1 0.06,-0.15 0.19,-0.15 0.02,0 0.03,0 0.04,0 0.01,0 0.02,0 0.03,0l1.48 0 0 -0.57 -1.74 0c-0.09,0 -0.17,0.02 -0.24,0.06 -0.07,0.04 -0.13,0.1 -0.18,0.16 -0.05,0.07 -0.09,0.15 -0.12,0.24 -0.03,0.08 -0.04,0.17 -0.04,0.27 -0.01,0.09 0.01,0.17 0.04,0.26 0.04,0.09 0.09,0.17 0.14,0.24 0.06,0.07 0.13,0.12 0.21,0.16 0.08,0.05 0.16,0.07 0.24,0.06l0.28 0c0.06,0 0.12,0.02 0.17,0.04 0.05,0.02 0.08,0.06 0.08,0.11 0,0.06 -0.03,0.1 -0.08,0.12 -0.04,0.01 -0.11,0.02 -0.2,0.02l-0.88 0 0 0.59 1.16 0z"/>
    </g>
    <g>
     <path id="4" class="fil20 str1" d="M18.08 14.59l-0.58 0 0 2.03c0,0.12 0.02,0.23 0.07,0.34 0.05,0.1 0.11,0.2 0.19,0.28 0.08,0.08 0.17,0.14 0.28,0.19 0.1,0.04 0.21,0.07 0.33,0.07 0.12,0 0.23,-0.03 0.34,-0.07 0.11,-0.05 0.2,-0.11 0.28,-0.19 0.08,-0.08 0.14,-0.17 0.19,-0.28 0.04,-0.11 0.07,-0.22 0.07,-0.34l0 -1.46 -0.59 0 0 1.46c0,0.08 -0.03,0.15 -0.08,0.21 -0.06,0.05 -0.13,0.08 -0.21,0.08 -0.04,0 -0.07,-0.01 -0.11,-0.02 -0.03,-0.02 -0.06,-0.04 -0.09,-0.06 -0.03,-0.03 -0.05,-0.06 -0.06,-0.1 -0.02,-0.03 -0.03,-0.07 -0.03,-0.11l0 -2.03z"/>
    </g>
    <g>
     <polygon id="5" class="fil20 str1" points="19.53,17.5 21.06,17.5 21.06,16.91 20.11,16.91 20.11,14.59 19.53,14.59 "/>
    </g>
    <g>
     <path id="6" class="fil20 str1" d="M21.34 15.75l2.38 0 0 -0.59 -2.38 0 0 0.59zm0.58 0.29l0 1.46 0.59 0 0 -1.46 -0.59 0z"/>
    </g>
    <g>
     <polygon id="7" class="fil20 str1" points="23.94,17.5 26.27,17.5 25.17,14.59 24.57,14.59 25.47,16.91 24.74,16.91 25.1,16.04 24.5,16.04 "/>
    </g>
    <g>
     <path id="8" class="fil20 str1" d="M26.5 18.08l0.58 0 0 -2.04c0,-0.04 0.01,-0.08 0.03,-0.11 0.01,-0.04 0.03,-0.07 0.06,-0.09 0.03,-0.03 0.06,-0.05 0.09,-0.07 0.04,-0.01 0.07,-0.02 0.11,-0.02 0.08,0 0.15,0.03 0.21,0.09 0.06,0.05 0.08,0.12 0.08,0.2l0 1.32 0.59 0 0 -1.32c0,-0.12 -0.03,-0.23 -0.07,-0.34 -0.05,-0.1 -0.11,-0.2 -0.19,-0.27 -0.08,-0.08 -0.17,-0.15 -0.28,-0.19 -0.1,-0.05 -0.21,-0.07 -0.34,-0.07 -0.11,0 -0.23,0.02 -0.33,0.07 -0.11,0.04 -0.2,0.11 -0.28,0.19 -0.08,0.07 -0.14,0.17 -0.19,0.27 -0.05,0.11 -0.07,0.22 -0.07,0.34l0 2.04z"/>
    </g>
    <g>
     <path id="9" class="fil20 str1" d="M28.53 15.75l2.37 0 0 -0.59 -2.37 0 0 0.59zm0.58 0.29l0 1.46 0.59 0 0 -1.46 -0.59 0z"/>
    </g>
    <g>
     <path id="10" class="fil20 str1" d="M32.34 17.5c0.09,0 0.17,-0.02 0.24,-0.07 0.07,-0.04 0.13,-0.09 0.18,-0.16 0.05,-0.07 0.09,-0.15 0.12,-0.23 0.03,-0.09 0.04,-0.18 0.04,-0.27 0,-0.09 -0.01,-0.18 -0.05,-0.27 -0.03,-0.09 -0.08,-0.17 -0.13,-0.24 -0.06,-0.07 -0.13,-0.13 -0.22,-0.18 -0.08,-0.04 -0.17,-0.06 -0.26,-0.06l-0.19 0c-0.11,0 -0.19,-0.01 -0.24,-0.02 -0.05,-0.02 -0.07,-0.05 -0.07,-0.11 0,-0.1 0.06,-0.15 0.19,-0.15 0.02,0 0.03,0 0.04,0 0.01,0 0.02,0 0.04,0l1.47 0 0 -0.57 -1.74 0c-0.09,0 -0.17,0.02 -0.24,0.06 -0.07,0.04 -0.13,0.1 -0.18,0.16 -0.05,0.07 -0.09,0.15 -0.12,0.24 -0.03,0.08 -0.04,0.17 -0.04,0.27 -0.01,0.09 0.01,0.17 0.05,0.26 0.03,0.09 0.08,0.17 0.14,0.24 0.05,0.07 0.12,0.12 0.2,0.16 0.08,0.05 0.16,0.07 0.24,0.06l0.28 0c0.06,0 0.12,0.02 0.17,0.04 0.05,0.02 0.08,0.06 0.08,0.11 0,0.06 -0.03,0.1 -0.07,0.12 -0.05,0.01 -0.12,0.02 -0.21,0.02l-0.88 0 0 0.59 1.16 0z"/>
    </g>
    <path id="11" class="fil21" d="M9.01 17.5c0.09,0 0.17,-0.01 0.24,-0.03 0.06,-0.01 0.14,-0.04 0.22,-0.08l0 -0.72c-0.11,0.16 -0.26,0.24 -0.46,0.24 -0.08,0 -0.16,-0.01 -0.23,-0.04 -0.07,-0.04 -0.13,-0.08 -0.18,-0.13 -0.05,-0.05 -0.1,-0.11 -0.13,-0.18 -0.03,-0.07 -0.04,-0.15 -0.04,-0.23 0,-0.08 0.01,-0.15 0.04,-0.22 0.03,-0.07 0.08,-0.13 0.13,-0.19 0.05,-0.05 0.11,-0.09 0.18,-0.12 0.07,-0.03 0.15,-0.05 0.23,-0.05l1.02 0 0 -0.58 -1.02 0c-0.16,0 -0.31,0.03 -0.45,0.09 -0.14,0.06 -0.26,0.15 -0.37,0.25 -0.11,0.11 -0.19,0.23 -0.25,0.37 -0.06,0.14 -0.09,0.29 -0.09,0.45 0,0.16 0.03,0.31 0.09,0.45 0.06,0.14 0.14,0.27 0.25,0.37 0.11,0.11 0.23,0.19 0.37,0.25 0.14,0.07 0.29,0.1 0.45,0.1z"/>
    <path id="12" class="fil21" d="M11.45 17.5c0.16,0 0.31,-0.03 0.45,-0.1 0.14,-0.06 0.27,-0.14 0.37,-0.25 0.11,-0.1 0.19,-0.23 0.25,-0.37 0.06,-0.14 0.1,-0.29 0.1,-0.45 0,-0.16 -0.04,-0.31 -0.1,-0.45 -0.06,-0.14 -0.14,-0.26 -0.25,-0.37 -0.1,-0.1 -0.23,-0.19 -0.37,-0.25 -0.14,-0.06 -0.29,-0.09 -0.45,-0.09 -0.16,0 -0.3,0.03 -0.45,0.09 -0.14,0.06 -0.26,0.15 -0.37,0.25 -0.1,0.11 -0.19,0.23 -0.25,0.37 -0.06,0.14 -0.09,0.3 -0.09,0.45 0,0.16 0.03,0.31 0.09,0.45 0.06,0.14 0.15,0.26 0.25,0.37 0.11,0.11 0.23,0.19 0.37,0.25 0.15,0.07 0.29,0.1 0.45,0.1zm0 -0.59c-0.08,0 -0.15,-0.01 -0.22,-0.04 -0.07,-0.04 -0.13,-0.08 -0.19,-0.13 -0.05,-0.05 -0.09,-0.11 -0.12,-0.18 -0.03,-0.07 -0.05,-0.15 -0.05,-0.23 0,-0.08 0.02,-0.15 0.05,-0.22 0.03,-0.07 0.07,-0.13 0.12,-0.19 0.06,-0.05 0.12,-0.09 0.19,-0.12 0.07,-0.03 0.14,-0.05 0.22,-0.05 0.08,0 0.16,0.02 0.23,0.05 0.07,0.03 0.13,0.07 0.18,0.12 0.06,0.06 0.1,0.12 0.13,0.19 0.03,0.07 0.05,0.14 0.05,0.22 0,0.08 -0.02,0.16 -0.05,0.23 -0.03,0.07 -0.07,0.13 -0.13,0.18 -0.05,0.05 -0.11,0.09 -0.18,0.13 -0.07,0.03 -0.15,0.04 -0.23,0.04z"/>
    <path id="13" class="fil21" d="M12.85 18.08l0.58 0 0 -2.04c0,-0.04 0.01,-0.08 0.03,-0.11 0.01,-0.04 0.03,-0.07 0.06,-0.09 0.03,-0.03 0.06,-0.05 0.09,-0.07 0.04,-0.01 0.08,-0.02 0.12,-0.02 0.08,0 0.14,0.03 0.2,0.09 0.06,0.05 0.09,0.12 0.09,0.2l0 1.32 0.58 0 0 -1.32c0,-0.12 -0.02,-0.23 -0.07,-0.34 -0.04,-0.1 -0.11,-0.2 -0.19,-0.27 -0.08,-0.08 -0.17,-0.15 -0.27,-0.19 -0.11,-0.05 -0.22,-0.07 -0.34,-0.07 -0.12,0 -0.24,0.02 -0.34,0.07 -0.11,0.04 -0.2,0.11 -0.28,0.19 -0.08,0.07 -0.14,0.17 -0.19,0.27 -0.04,0.11 -0.07,0.22 -0.07,0.34l0 2.04z"/>
    <path id="14" class="fil21" d="M16.06 17.5c0.09,0 0.17,-0.02 0.24,-0.07 0.07,-0.04 0.13,-0.09 0.18,-0.16 0.05,-0.07 0.09,-0.15 0.12,-0.23 0.03,-0.09 0.04,-0.18 0.04,-0.27 0,-0.09 -0.01,-0.18 -0.05,-0.27 -0.03,-0.09 -0.08,-0.17 -0.14,-0.24 -0.05,-0.07 -0.13,-0.13 -0.21,-0.18 -0.08,-0.04 -0.17,-0.06 -0.27,-0.06l-0.18 0c-0.11,0 -0.2,-0.01 -0.24,-0.02 -0.05,-0.02 -0.07,-0.05 -0.07,-0.11 0,-0.1 0.06,-0.15 0.19,-0.15 0.02,0 0.03,0 0.04,0 0.01,0 0.02,0 0.03,0l1.48 0 0 -0.57 -1.74 0c-0.09,0 -0.17,0.02 -0.24,0.06 -0.07,0.04 -0.13,0.1 -0.18,0.16 -0.05,0.07 -0.09,0.15 -0.12,0.24 -0.03,0.08 -0.04,0.17 -0.04,0.27 -0.01,0.09 0.01,0.17 0.04,0.26 0.04,0.09 0.09,0.17 0.14,0.24 0.06,0.07 0.13,0.12 0.21,0.16 0.08,0.05 0.16,0.07 0.24,0.06l0.28 0c0.06,0 0.12,0.02 0.17,0.04 0.05,0.02 0.08,0.06 0.08,0.11 0,0.06 -0.03,0.1 -0.08,0.12 -0.04,0.01 -0.11,0.02 -0.2,0.02l-0.88 0 0 0.59 1.16 0z"/>
    <path id="15" class="fil21" d="M18.08 14.59l-0.58 0 0 2.03c0,0.12 0.02,0.23 0.07,0.34 0.05,0.1 0.11,0.2 0.19,0.28 0.08,0.08 0.17,0.14 0.28,0.19 0.1,0.04 0.21,0.07 0.33,0.07 0.12,0 0.23,-0.03 0.34,-0.07 0.11,-0.05 0.2,-0.11 0.28,-0.19 0.08,-0.08 0.14,-0.17 0.19,-0.28 0.04,-0.11 0.07,-0.22 0.07,-0.34l0 -1.46 -0.59 0 0 1.46c0,0.08 -0.03,0.15 -0.08,0.21 -0.06,0.05 -0.13,0.08 -0.21,0.08 -0.04,0 -0.07,-0.01 -0.11,-0.02 -0.03,-0.02 -0.06,-0.04 -0.09,-0.06 -0.03,-0.03 -0.05,-0.06 -0.06,-0.1 -0.02,-0.03 -0.03,-0.07 -0.03,-0.11l0 -2.03z"/>
    <polygon id="16" class="fil21" points="19.53,17.5 21.06,17.5 21.06,16.91 20.11,16.91 20.11,14.59 19.53,14.59 "/>
    <path id="17" class="fil21" d="M21.34 15.75l2.38 0 0 -0.59 -2.38 0 0 0.59zm0.58 0.29l0 1.46 0.59 0 0 -1.46 -0.59 0z"/>
    <polygon id="18" class="fil21" points="23.94,17.5 26.27,17.5 25.17,14.59 24.57,14.59 25.47,16.91 24.74,16.91 25.1,16.04 24.5,16.04 "/>
    <path id="19" class="fil21" d="M26.5 18.08l0.58 0 0 -2.04c0,-0.04 0.01,-0.08 0.03,-0.11 0.01,-0.04 0.03,-0.07 0.06,-0.09 0.03,-0.03 0.06,-0.05 0.09,-0.07 0.04,-0.01 0.07,-0.02 0.11,-0.02 0.08,0 0.15,0.03 0.21,0.09 0.06,0.05 0.08,0.12 0.08,0.2l0 1.32 0.59 0 0 -1.32c0,-0.12 -0.03,-0.23 -0.07,-0.34 -0.05,-0.1 -0.11,-0.2 -0.19,-0.27 -0.08,-0.08 -0.17,-0.15 -0.28,-0.19 -0.1,-0.05 -0.21,-0.07 -0.34,-0.07 -0.11,0 -0.23,0.02 -0.33,0.07 -0.11,0.04 -0.2,0.11 -0.28,0.19 -0.08,0.07 -0.14,0.17 -0.19,0.27 -0.05,0.11 -0.07,0.22 -0.07,0.34l0 2.04z"/>
    <path id="20" class="fil21" d="M28.53 15.75l2.37 0 0 -0.59 -2.37 0 0 0.59zm0.58 0.29l0 1.46 0.59 0 0 -1.46 -0.59 0z"/>
    <path id="21" class="fil21" d="M32.34 17.5c0.09,0 0.17,-0.02 0.24,-0.07 0.07,-0.04 0.13,-0.09 0.18,-0.16 0.05,-0.07 0.09,-0.15 0.12,-0.23 0.03,-0.09 0.04,-0.18 0.04,-0.27 0,-0.09 -0.01,-0.18 -0.05,-0.27 -0.03,-0.09 -0.08,-0.17 -0.13,-0.24 -0.06,-0.07 -0.13,-0.13 -0.22,-0.18 -0.08,-0.04 -0.17,-0.06 -0.26,-0.06l-0.19 0c-0.11,0 -0.19,-0.01 -0.24,-0.02 -0.05,-0.02 -0.07,-0.05 -0.07,-0.11 0,-0.1 0.06,-0.15 0.19,-0.15 0.02,0 0.03,0 0.04,0 0.01,0 0.02,0 0.04,0l1.47 0 0 -0.57 -1.74 0c-0.09,0 -0.17,0.02 -0.24,0.06 -0.07,0.04 -0.13,0.1 -0.18,0.16 -0.05,0.07 -0.09,0.15 -0.12,0.24 -0.03,0.08 -0.04,0.17 -0.04,0.27 -0.01,0.09 0.01,0.17 0.05,0.26 0.03,0.09 0.08,0.17 0.14,0.24 0.05,0.07 0.12,0.12 0.2,0.16 0.08,0.05 0.16,0.07 0.24,0.06l0.28 0c0.06,0 0.12,0.02 0.17,0.04 0.05,0.02 0.08,0.06 0.08,0.11 0,0.06 -0.03,0.1 -0.07,0.12 -0.05,0.01 -0.12,0.02 -0.21,0.02l-0.88 0 0 0.59 1.16 0z"/>
   </g>
  </g>
 </g>
</svg>
