<?xml version="1.0" encoding="UTF-8"?>
<!DOCTYPE svg PUBLIC "-//W3C//DTD SVG 1.1//EN" "http://www.w3.org/Graphics/SVG/1.1/DTD/svg11.dtd">
<!-- Creator: CorelDRAW 2019 (64-Bit) -->
<svg xmlns="http://www.w3.org/2000/svg" xml:space="preserve" width="221px" height="119px" version="1.1" style="shape-rendering:geometricPrecision; text-rendering:geometricPrecision; image-rendering:optimizeQuality; fill-rule:evenodd; clip-rule:evenodd"
viewBox="0 0 26.29 14.16"
 xmlns:xlink="http://www.w3.org/1999/xlink"
 xmlns:xodm="http://www.corel.com/coreldraw/odm/2003">
 <defs>
  <style type="text/css">
   <![CDATA[
    .fil4 {fill:none}
    .fil3 {fill:#FEFEFE}
    .fil0 {fill:#DCDDDF;fill-rule:nonzero}
    .fil2 {fill:black;fill-rule:nonzero}
    .fil1 {fill:#ED3237;fill-rule:nonzero}
    .fil5 {fill:#00AFEF;fill-rule:nonzero}
    .fil6 {fill:url(#id1);fill-rule:nonzero}
   ]]>
  </style>
     <clipPath id="id0">
      <path d="M13.12 8.67c4.33,0 7.84,-1.94 7.84,-4.34 0,-2.39 -3.51,-4.33 -7.84,-4.33 -2.41,0 -4.37,1.94 -4.37,4.33 0,2.4 1.96,4.34 4.37,4.34zm0 -8.67c-4.33,0 -7.84,1.94 -7.84,4.33 0,2.4 3.51,4.34 7.84,4.34 2.41,0 4.37,-1.94 4.37,-4.34 0,-2.39 -1.96,-4.33 -4.37,-4.33z"/>
     </clipPath>
  <linearGradient id="id1" gradientUnits="objectBoundingBox" x1="34.688%" y1="83.8222%" x2="34.688%" y2="0.847603%">
   <stop offset="0" style="stop-opacity:1; stop-color:#3E4095"/>
   <stop offset="1" style="stop-opacity:1; stop-color:#0098DA"/>
  </linearGradient>
 </defs>
 <g id="Layer_x0020_1">
  <metadata id="CorelCorpID_0Corel-Layer"/>
  <g id="_2701027098496">
   <g>
    <path class="fil0" d="M1.42 10.67l0 -0.55 0.22 0 0 0.55 -0.19 0.08 -0.03 -0.08zm-0.15 -0.07l0.1 -0.19 0 0 0.01 0 0.01 0.01 0.01 0 0 0.01 0.01 0 0.01 0.01 0.01 0 0 0.01 0.01 0 0.01 0.01 0.01 0 0 0.01 0.01 0 0.01 0.01 0.01 0 0 0.01 0.01 0.01 0.01 0 0.01 0.01 0 0.01 0.01 0 0.01 0.01 0.01 0.01 0 0 0.01 0.01 0.01 0.01 0 0 0.01 0.01 0.01 0.01 0.01 0.01 0 0 0.01 0.01 -0.16 0.15 -0.01 -0.01 0 -0.01 -0.01 0 0 -0.01 -0.01 -0.01 0 0 -0.01 -0.01 -0.01 0 0 -0.01 -0.01 0 0 -0.01 -0.01 0 0 -0.01 -0.01 0 -0.01 -0.01 0 0 -0.01 -0.01 0 0 -0.01 -0.01 0 0 -0.01 0 0 -0.01 -0.01 0 0 -0.01 -0.01 0 -0.01 0 0 -0.01 -0.01 0 0 0 -0.01 -0.01 0 0 -0.01 0 0 0zm-0.17 -0.04l0 -0.22 0 0 0.01 0 0.01 0 0.01 0 0.01 0 0.01 0.01 0 0 0.01 0 0.01 0 0.01 0 0.01 0 0.01 0 0.01 0 0.01 0 0 0.01 0.01 0 0.01 0 0.01 0 0.01 0 0.01 0.01 0 0 0.01 0 0.01 0.01 0.01 0 0.01 0 0.01 0 0 0.01 0.01 0 0.01 0 0.01 0.01 0.01 0 0 0.01 0.01 0 -0.1 0.19 0 0 -0.01 -0.01 0 0 -0.01 0 0 0 -0.01 -0.01 0 0 -0.01 0 0 0 -0.01 0 0 0 -0.01 -0.01 0 0 -0.01 0 0 0 -0.01 0 0 0 -0.01 0 -0.01 -0.01 0 0 -0.01 0 0 0 -0.01 0 0 0 -0.01 0 0 0 -0.01 0 -0.01 0 0 0 -0.01 0 0 0 -0.01 0 0 0zm-0.27 0.11l-0.16 -0.14 0 0 0.01 -0.01 0.01 -0.01 0.01 -0.01 0.01 -0.02 0.01 0 0.02 -0.01 0.01 -0.01 0.01 -0.01 0.01 -0.01 0.01 -0.01 0.02 -0.01 0.01 0 0.01 -0.01 0.02 -0.01 0.01 0 0.01 -0.01 0.02 -0.01 0.01 0 0.01 -0.01 0.02 0 0.01 0 0.02 -0.01 0.01 0 0.02 -0.01 0.01 0 0.02 0 0.01 0 0.02 0 0.01 0 0.02 -0.01 0.02 0 0.01 0 0 0.22 -0.01 0 -0.01 0 -0.01 0 -0.01 0 -0.01 0 -0.01 0 -0.01 0 -0.01 0 -0.01 0.01 -0.01 0 -0.01 0 -0.01 0 -0.01 0.01 -0.01 0 -0.01 0 0 0.01 -0.01 0 -0.01 0 -0.01 0.01 -0.01 0 0 0.01 -0.01 0 -0.01 0.01 -0.01 0 0 0.01 -0.01 0 -0.01 0.01 -0.01 0 0 0.01 -0.01 0.01 -0.01 0 0 0.01 0 0zm-0.11 0.32l-0.21 0 0 0 0 -0.02 0 -0.02 0 -0.01 0 -0.02 0 -0.01 0 -0.02 0 -0.02 0.01 -0.01 0 -0.02 0 -0.01 0.01 -0.02 0 -0.01 0 -0.02 0.01 -0.01 0 -0.02 0.01 -0.01 0 -0.02 0.01 -0.01 0 -0.02 0.01 -0.01 0.01 -0.01 0 -0.02 0.01 -0.01 0.01 -0.01 0.01 -0.02 0 -0.01 0.01 -0.01 0.01 -0.02 0.01 -0.01 0.01 -0.01 0.01 -0.01 0.01 -0.01 0.16 0.14 -0.01 0.01 -0.01 0.01 0 0 -0.01 0.01 0 0.01 -0.01 0.01 0 0.01 -0.01 0 0 0.01 -0.01 0.01 0 0.01 -0.01 0.01 0 0.01 0 0.01 -0.01 0.01 0 0.01 -0.01 0.01 0 0.01 0 0.01 0 0.01 -0.01 0.01 0 0.01 0 0.01 0 0.01 0 0.01 -0.01 0.01 0 0.01 0 0.02 0 0.01 0 0.01 0 0.01 0 0.02 0 0zm0.11 0.3l-0.16 0.14 0 0 -0.01 -0.01 -0.01 -0.01 -0.01 -0.01 -0.01 -0.01 0 -0.02 -0.01 -0.01 -0.01 -0.01 -0.01 -0.01 -0.01 -0.02 0 -0.01 -0.01 -0.01 -0.01 -0.02 0 -0.01 -0.01 -0.01 -0.01 -0.02 0 -0.01 -0.01 -0.02 0 -0.01 -0.01 -0.01 0 -0.02 0 -0.01 -0.01 -0.02 0 -0.01 0 -0.02 -0.01 -0.01 0 -0.02 0 -0.01 0 -0.02 0 -0.01 0 -0.02 0 -0.02 0 -0.01 0.21 0 0 0.01 0 0.01 0 0.01 0 0.01 0 0.01 0 0.02 0.01 0.01 0 0.01 0 0.01 0 0.01 0 0.01 0.01 0.01 0 0.01 0 0.01 0 0.01 0.01 0 0 0.01 0.01 0.01 0 0.01 0 0.01 0.01 0.01 0 0.01 0.01 0.01 0 0 0.01 0.01 0 0.01 0.01 0.01 0 0 0.01 0.01 0.01 0.01 0 0.01 0.01 0 0 0.01zm0.27 0.11l0 0.21 0 0 -0.01 0 -0.02 0 -0.01 0 -0.02 0 -0.02 0 -0.01 0 -0.02 -0.01 -0.01 0 -0.01 0 -0.02 -0.01 -0.01 0 -0.02 0 -0.01 -0.01 -0.02 0 -0.01 -0.01 -0.01 0 -0.02 -0.01 -0.01 -0.01 -0.01 0 -0.02 -0.01 -0.01 -0.01 -0.01 0 -0.01 -0.01 -0.02 -0.01 -0.01 -0.01 -0.01 -0.01 -0.01 -0.01 -0.01 -0.01 -0.01 -0.01 -0.02 -0.01 -0.01 -0.01 -0.01 -0.01 0.16 -0.14 0.01 0 0 0.01 0.01 0.01 0.01 0 0 0.01 0.01 0 0.01 0.01 0.01 0.01 0 0 0.01 0.01 0.01 0 0.01 0 0 0.01 0.01 0 0.01 0.01 0.01 0 0.01 0 0.01 0.01 0 0 0.01 0 0.01 0 0.01 0.01 0.01 0 0.01 0 0.01 0 0.01 0 0.01 0.01 0.01 0 0.01 0 0.01 0 0.01 0 0.01 0 0 0zm0.17 -0.04l0.1 0.19 0 0 -0.01 0 0 0 -0.01 0.01 -0.01 0 -0.01 0.01 -0.01 0 0 0 -0.01 0 -0.01 0.01 -0.01 0 -0.01 0 -0.01 0.01 0 0 -0.01 0 -0.01 0 -0.01 0.01 -0.01 0 -0.01 0 0 0 -0.01 0 -0.01 0 -0.01 0.01 -0.01 0 -0.01 0 -0.01 0 -0.01 0 0 0 -0.01 0 -0.01 0 -0.01 0 -0.01 0 -0.01 0 0 -0.21 0.01 0 0 0 0.01 0 0 0 0.01 0 0.01 0 0 0 0.01 0 0 0 0.01 -0.01 0 0 0.01 0 0 0 0.01 0 0.01 0 0 0 0.01 0 0 0 0.01 -0.01 0 0 0.01 0 0 0 0.01 0 0 -0.01 0.01 0 0 0 0.01 0 0 0 0.01 -0.01 0 0 0.01 0 0 0 0 0zm0.37 -0.08l-0.22 0 0.19 0.07 -0.01 0.01 0 0.01 -0.01 0.01 -0.01 0 -0.01 0.01 0 0.01 -0.01 0.01 -0.01 0 0 0.01 -0.01 0.01 -0.01 0 -0.01 0.01 0 0.01 -0.01 0 -0.01 0.01 -0.01 0 0 0.01 -0.01 0.01 -0.01 0 -0.01 0.01 0 0 -0.01 0.01 -0.01 0 -0.01 0.01 0 0 -0.01 0.01 -0.01 0 -0.01 0.01 0 0 -0.01 0.01 -0.01 0 -0.01 0.01 -0.1 -0.19 0.01 -0.01 0 0 0.01 0 0 0 0.01 -0.01 0 0 0.01 0 0.01 -0.01 0 0 0.01 -0.01 0 0 0.01 0 0 -0.01 0.01 0 0 -0.01 0.01 0 0 0 0.01 -0.01 0.01 0 0 -0.01 0.01 0 0 -0.01 0.01 -0.01 0 0 0.01 -0.01 0.01 0 0 -0.01 0.01 0 0 -0.01 0.01 -0.01 0 0 0.01 -0.01 0.19 0.07zm-0.22 0.55l0 -0.55 0.22 0 0 0.55 -0.06 0.1 -0.16 -0.1zm0.22 0l0 0.07 -0.06 0.03 0.06 -0.1zm-0.32 0.2l-0.05 -0.21 0 0 0 0 0.01 0 0.01 -0.01 0 0 0.01 0 0.01 0 0 0 0.01 -0.01 0.01 0 0 0 0.01 0 0.01 0 0 -0.01 0.01 0 0.01 0 0 0 0.01 -0.01 0.01 0 0 0 0.01 0 0.01 -0.01 0 0 0.01 0 0.01 -0.01 0 0 0.01 0 0.01 0 0.01 -0.01 0 0 0.01 0 0.01 -0.01 0 0 0.1 0.19 -0.01 0 -0.01 0.01 -0.01 0 -0.01 0.01 0 0 -0.01 0 -0.01 0.01 -0.01 0 -0.01 0 0 0.01 -0.01 0 -0.01 0 -0.01 0.01 -0.01 0 0 0 -0.01 0.01 -0.01 0 -0.01 0 -0.01 0.01 -0.01 0 0 0 -0.01 0 -0.01 0.01 -0.01 0 -0.01 0 0 0 -0.01 0.01 -0.01 0 -0.01 0 -0.01 0 -0.01 0 0 0.01 0 0zm-0.27 0.03l0 -0.21 0 0 0.01 0 0 0 0.01 -0.01 0.01 0 0 0 0.01 0 0.01 0 0 0 0.01 0 0.01 0 0 0 0.01 0 0.01 0 0 0 0.01 0 0.01 0 0 0 0.01 0 0.01 0 0 0 0.01 -0.01 0.01 0 0.01 0 0 0 0.01 0 0.01 0 0 0 0.01 0 0.01 -0.01 0 0 0.01 0 0.01 0 0.05 0.21 -0.01 0 -0.01 0 -0.01 0 -0.01 0 0 0.01 -0.01 0 -0.01 0 -0.01 0 -0.01 0 -0.01 0 0 0 -0.01 0.01 -0.01 0 -0.01 0 -0.01 0 -0.01 0 -0.01 0 0 0 -0.01 0 -0.01 0 -0.01 0 -0.01 0.01 0 0 -0.01 0 -0.01 0 -0.01 0 -0.01 0 -0.01 0 -0.01 0 0 0 -0.01 0 -0.01 0 0 0zm-0.31 -0.04l0.06 -0.21 0 0 0 0.01 0.01 0 0.01 0 0.01 0 0 0 0.01 0 0.01 0.01 0.01 0 0 0 0.01 0 0.01 0 0.01 0 0 0 0.01 0 0.01 0.01 0.01 0 0.01 0 0 0 0.01 0 0.01 0 0.01 0 0.01 0 0 0 0.01 0 0.01 0 0.01 0 0.01 0 0.01 0 0 0 0.01 0.01 0.01 0 0.01 0 0 0.21 -0.01 0 -0.01 0 -0.01 0 -0.01 0 -0.01 0 -0.01 0 -0.01 0 -0.01 0 -0.01 0 -0.01 -0.01 -0.01 0 -0.01 0 -0.01 0 -0.01 0 -0.01 0 -0.01 0 -0.01 0 -0.01 0 -0.01 -0.01 -0.01 0 -0.01 0 -0.01 0 -0.01 0 -0.01 0 -0.01 -0.01 0 0 -0.01 0 -0.01 0 -0.01 0 -0.01 -0.01 -0.01 0 -0.01 0 0 0zm-0.27 -0.13l0.12 -0.17 0 0 0.01 0 0 0.01 0.01 0 0.01 0 0 0.01 0.01 0 0 0 0.01 0.01 0.01 0 0 0 0.01 0.01 0.01 0 0 0 0.01 0.01 0 0 0.01 0 0.01 0.01 0 0 0.01 0 0.01 0 0 0.01 0.01 0 0.01 0 0 0.01 0.01 0 0.01 0 0 0 0.01 0 0.01 0.01 0 0 0.01 0 0.01 0 -0.06 0.21 -0.01 0 -0.01 -0.01 -0.01 0 -0.01 0 0 -0.01 -0.01 0 -0.01 0 -0.01 0 -0.01 -0.01 -0.01 0 -0.01 0 -0.01 -0.01 0 0 -0.01 -0.01 -0.01 0 -0.01 0 -0.01 -0.01 -0.01 0 0 -0.01 -0.01 0 -0.01 0 -0.01 -0.01 -0.01 0 0 -0.01 -0.01 0 -0.01 -0.01 -0.01 0 -0.01 -0.01 0 0 -0.01 -0.01 -0.01 0 -0.01 -0.01 0 0zm-0.35 -0.39l0.19 -0.09 0 0 0.01 0.01 0 0.01 0.01 0.01 0.01 0.01 0 0.01 0.01 0.01 0.01 0.01 0 0.02 0.01 0.01 0.01 0.01 0.01 0.01 0.01 0.01 0 0.01 0.01 0.01 0.01 0.01 0.01 0.01 0.01 0.01 0.01 0.01 0.01 0.01 0.01 0 0.01 0.01 0 0.01 0.01 0.01 0.01 0.01 0.02 0.01 0.01 0.01 0.01 0.01 0.01 0.01 0.01 0 0.01 0.01 0.01 0.01 0.01 0.01 -0.12 0.17 -0.01 -0.01 -0.01 0 -0.02 -0.01 -0.01 -0.02 -0.02 -0.01 -0.01 -0.01 -0.01 -0.01 -0.01 -0.01 -0.02 -0.01 -0.01 -0.01 -0.01 -0.01 -0.01 -0.01 -0.02 -0.01 -0.01 -0.02 -0.01 -0.01 -0.01 -0.01 -0.01 -0.01 -0.01 -0.01 -0.01 -0.02 -0.01 -0.01 -0.01 -0.01 -0.01 -0.02 -0.01 -0.01 -0.01 -0.01 -0.01 -0.02 -0.01 -0.01 -0.01 -0.01 -0.01 -0.02 -0.01 -0.01 0 -0.02 -0.01 -0.01 -0.01 -0.02 0 0zm-0.12 -0.52l0.21 0 0 0 0 0.01 0 0.02 0 0.01 0.01 0.02 0 0.01 0 0.02 0 0.01 0 0.02 0 0.01 0 0.01 0.01 0.02 0 0.01 0 0.02 0 0.01 0.01 0.01 0 0.02 0 0.01 0 0.01 0.01 0.02 0 0.01 0.01 0.01 0 0.01 0 0.02 0.01 0.01 0 0.01 0.01 0.01 0 0.02 0.01 0.01 0 0.01 0.01 0.01 0 0.01 0.01 0.02 -0.19 0.09 -0.01 -0.01 0 -0.02 -0.01 -0.01 -0.01 -0.02 0 -0.01 -0.01 -0.02 -0.01 -0.01 0 -0.02 -0.01 -0.01 0 -0.02 -0.01 -0.02 0 -0.01 -0.01 -0.02 0 -0.01 -0.01 -0.02 0 -0.02 0 -0.01 -0.01 -0.02 0 -0.02 0 -0.01 -0.01 -0.02 0 -0.02 0 -0.01 0 -0.02 0 -0.02 -0.01 -0.02 0 -0.01 0 -0.02 0 -0.02 0 -0.02 0 -0.01 0 -0.02 0 0zm0.08 -0.43l0.2 0.08 0 0 -0.01 0.01 0 0.01 -0.01 0.01 0 0.01 0 0.01 -0.01 0.01 0 0.01 0 0.01 0 0.01 -0.01 0.01 0 0.01 0 0.01 0 0.01 -0.01 0.01 0 0.01 0 0.01 0 0.01 0 0.02 -0.01 0.01 0 0.01 0 0.01 0 0.01 0 0.01 0 0.01 0 0.01 0 0.02 0 0.01 -0.01 0.01 0 0.01 0 0.01 0 0.02 0 0.01 -0.21 0 0 -0.02 0 -0.01 0 -0.02 0 -0.01 0 -0.01 0 -0.02 0 -0.01 0 -0.02 0.01 -0.01 0 -0.01 0 -0.02 0 -0.01 0 -0.01 0 -0.02 0.01 -0.01 0 -0.01 0 -0.02 0 -0.01 0.01 -0.01 0 -0.02 0 -0.01 0.01 -0.01 0 -0.02 0 -0.01 0.01 -0.01 0 -0.01 0 -0.02 0.01 -0.01 0 -0.01 0.01 -0.01 0 -0.02 0.01 -0.01 0 0zm0.23 -0.35l0.15 0.15 0 0 -0.01 0.01 0 0 -0.01 0.01 -0.01 0.01 -0.01 0.01 0 0.01 -0.01 0.01 -0.01 0 0 0.01 -0.01 0.01 -0.01 0.01 0 0.01 -0.01 0.01 -0.01 0.01 0 0 -0.01 0.01 0 0.01 -0.01 0.01 0 0.01 -0.01 0.01 -0.01 0.01 0 0.01 -0.01 0.01 0 0 -0.01 0.01 0 0.01 0 0.01 -0.01 0.01 0 0.01 -0.01 0.01 0 0.01 0 0.01 -0.2 -0.08 0 -0.01 0.01 -0.01 0 -0.01 0.01 -0.02 0 -0.01 0.01 -0.01 0 -0.01 0.01 -0.01 0.01 -0.02 0 -0.01 0.01 -0.01 0.01 -0.01 0 -0.01 0.01 -0.01 0.01 -0.01 0 -0.01 0.01 -0.02 0.01 -0.01 0.01 -0.01 0 -0.01 0.01 -0.01 0.01 -0.01 0.01 -0.01 0.01 -0.01 0 -0.01 0.01 -0.01 0.01 -0.01 0.01 -0.01 0.01 -0.01 0.01 -0.01 0.01 -0.01 0.01 -0.01 0 0zm0.33 -0.23l0.08 0.2 0 0 -0.01 0 -0.01 0.01 -0.01 0 0 0.01 -0.01 0 -0.01 0 -0.01 0.01 -0.01 0 -0.01 0.01 -0.01 0 0 0.01 -0.01 0 -0.01 0.01 -0.01 0 -0.01 0.01 -0.01 0 0 0.01 -0.01 0 -0.01 0.01 -0.01 0.01 -0.01 0 0 0.01 -0.01 0.01 -0.01 0 -0.01 0.01 0 0.01 -0.01 0 -0.01 0.01 -0.01 0.01 0 0 -0.01 0.01 -0.01 0.01 -0.15 -0.15 0.01 -0.01 0.01 -0.01 0.01 -0.01 0 -0.01 0.01 -0.01 0.01 0 0.01 -0.01 0.01 -0.01 0.01 -0.01 0.01 -0.01 0.01 -0.01 0.01 0 0.01 -0.01 0.01 -0.01 0.01 -0.01 0.01 0 0.02 -0.01 0.01 -0.01 0.01 0 0.01 -0.01 0.01 -0.01 0.01 0 0.01 -0.01 0.01 -0.01 0.01 0 0.01 -0.01 0.01 0 0.02 -0.01 0.01 0 0.01 -0.01 0.01 0 0.01 -0.01 0 0zm0.41 -0.07l0 0.21 0 0 -0.01 0 -0.01 0 -0.01 0 -0.02 0 -0.01 0 -0.01 0 -0.01 0 -0.01 0 -0.01 0.01 -0.01 0 -0.01 0 -0.01 0 -0.01 0 -0.01 0 -0.01 0 -0.01 0.01 -0.01 0 -0.01 0 -0.01 0 -0.01 0 -0.01 0.01 -0.01 0 -0.01 0 -0.01 0 -0.01 0.01 -0.01 0 -0.01 0 -0.01 0.01 -0.01 0 -0.01 0 -0.01 0.01 -0.01 0 -0.08 -0.2 0.01 0 0.02 -0.01 0.01 0 0.01 -0.01 0.01 0 0.01 0 0.02 -0.01 0.01 0 0.01 0 0.01 -0.01 0.01 0 0.02 0 0.01 -0.01 0.01 0 0.01 0 0.02 0 0.01 -0.01 0.01 0 0.02 0 0.01 0 0.01 0 0.02 -0.01 0.01 0 0.01 0 0.01 0 0.02 0 0.01 0 0.02 0 0.01 0 0.01 0 0.02 0 0.01 0 0 0zm0.27 0.03l-0.05 0.21 0 0 -0.01 -0.01 -0.01 0 0 0 -0.01 0 -0.01 0 0 0 -0.01 0 -0.01 0 0 -0.01 -0.01 0 -0.01 0 -0.01 0 0 0 -0.01 0 0 0 -0.01 0 -0.01 0 -0.01 0 0 -0.01 -0.01 0 -0.01 0 0 0 -0.01 0 -0.01 0 0 0 -0.01 0 -0.01 0 0 0 -0.01 0 -0.01 0 0 0 -0.01 0 0 -0.21 0.01 0 0.01 0 0 0 0.01 0 0.01 0 0.01 0 0.01 0 0.01 0 0.01 0 0 0 0.01 0 0.01 0 0.01 0 0.01 0 0.01 0 0 0.01 0.01 0 0.01 0 0.01 0 0.01 0 0.01 0 0 0 0.01 0 0.01 0.01 0.01 0 0.01 0 0.01 0 0 0 0.01 0 0.01 0.01 0.01 0 0.01 0 0 0zm0.32 0.19l-0.22 0 0.06 0.1 0 -0.01 -0.01 0 -0.01 0 0 -0.01 -0.01 0 -0.01 0 -0.01 -0.01 0 0 -0.01 0 -0.01 0 0 -0.01 -0.01 0 -0.01 0 0 -0.01 -0.01 0 -0.01 0 0 0 -0.01 -0.01 -0.01 0 0 0 -0.01 0 -0.01 0 0 -0.01 -0.01 0 -0.01 0 0 0 -0.01 0 -0.01 -0.01 0 0 -0.01 0 -0.01 0 0 0 0.05 -0.21 0 0 0.01 0 0.01 0.01 0.01 0 0.01 0 0.01 0 0 0 0.01 0.01 0.01 0 0.01 0 0.01 0 0 0.01 0.01 0 0.01 0 0.01 0.01 0.01 0 0.01 0 0 0.01 0.01 0 0.01 0 0.01 0 0.01 0.01 0 0 0.01 0.01 0.01 0 0.01 0 0.01 0.01 0 0 0.01 0 0.01 0.01 0.01 0 0.01 0 0.06 0.1zm-0.06 -0.1l0.06 0.03 0 0.07 -0.06 -0.1z"/>
   </g>
   <g>
    <path id="1" class="fil0" d="M1.92 10.05l0 1.86 -0.21 0 0 -1.86 0.11 -0.11 0.1 0.11zm-0.21 0l0 -0.11 0.11 0 -0.11 0.11zm0.61 0.1l-0.5 0 0 -0.21 0.5 0 0.11 0.11 -0.11 0.1zm0 -0.21l0.11 0 0 0.11 -0.11 -0.11zm-0.1 0.83l0 -0.72 0.21 0 0 0.72 -0.11 0.11 -0.1 -0.11zm0.1 0.11l-0.1 0 0 -0.11 0.1 0.11zm0.68 0l-0.68 0 0 -0.22 0.68 0 0.1 0.11 -0.1 0.11zm0.1 -0.11l0 0.11 -0.1 0 0.1 -0.11zm0 -0.72l0 0.72 -0.21 0 0 -0.72 0.11 -0.11 0.1 0.11zm-0.21 0l0 -0.11 0.11 0 -0.11 0.11zm0.61 0.1l-0.5 0 0 -0.21 0.5 0 0.11 0.11 -0.11 0.1zm0 -0.21l0.11 0 0 0.11 -0.11 -0.11zm-0.1 1.97l0 -1.86 0.21 0 0 1.86 -0.11 0.1 -0.1 -0.1zm0.21 0l0 0.1 -0.11 0 0.11 -0.1zm-0.61 -0.11l0.5 0 0 0.21 -0.5 0 -0.11 -0.1 0.11 -0.11zm0 0.21l-0.11 0 0 -0.1 0.11 0.1zm0.1 -0.86l0 0.76 -0.21 0 0 -0.76 0.11 -0.11 0.1 0.11zm-0.1 -0.11l0.1 0 0 0.11 -0.1 -0.11zm-0.68 0l0.68 0 0 0.22 -0.68 0 -0.1 -0.11 0.1 -0.11zm-0.1 0.11l0 -0.11 0.1 0 -0.1 0.11zm0 0.76l0 -0.76 0.21 0 0 0.76 -0.11 0.1 -0.1 -0.1zm0.21 0l0 0.1 -0.11 0 0.11 -0.1zm-0.61 -0.11l0.5 0 0 0.21 -0.5 0 -0.11 -0.1 0.11 -0.11zm0 0.21l-0.11 0 0 -0.1 0.11 0.1z"/>
   </g>
   <g>
    <path id="2" class="fil0" d="M4.01 10.05l0 1.86 -0.22 0 0 -1.86 0.11 -0.11 0.11 0.11zm-0.22 0l0 -0.11 0.11 0 -0.11 0.11zm1.25 0.1l-1.14 0 0 -0.21 1.14 0 0.1 0.11 -0.1 0.1zm0 -0.21l0.1 0 0 0.11 -0.1 -0.11zm-0.11 0.52l0 -0.41 0.21 0 0 0.41 -0.1 0.1 -0.11 -0.1zm0.21 0l0 0.1 -0.1 0 0.1 -0.1zm-0.75 -0.11l0.65 0 0 0.21 -0.65 0 -0.1 -0.1 0.1 -0.11zm-0.1 0.11l0 -0.11 0.1 0 -0.1 0.11zm0 0.32l0 -0.32 0.21 0 0 0.32 -0.11 0.1 -0.1 -0.1zm0.1 0.1l-0.1 0 0 -0.1 0.1 0.1zm0.61 0l-0.61 0 0 -0.21 0.61 0 0.11 0.11 -0.11 0.1zm0 -0.21l0.11 0 0 0.11 -0.11 -0.11zm-0.11 0.51l0 -0.4 0.22 0 0 0.4 -0.11 0.1 -0.11 -0.1zm0.22 0l0 0.1 -0.11 0 0.11 -0.1zm-0.72 -0.11l0.61 0 0 0.21 -0.61 0 -0.1 -0.1 0.1 -0.11zm-0.1 0.11l0 -0.11 0.1 0 -0.1 0.11zm0 0.31l0 -0.31 0.21 0 0 0.31 -0.11 0.11 -0.1 -0.11zm0.1 0.11l-0.1 0 0 -0.11 0.1 0.11zm0.65 0l-0.65 0 0 -0.22 0.65 0 0.1 0.11 -0.1 0.11zm0 -0.22l0.1 0 0 0.11 -0.1 -0.11zm-0.11 0.53l0 -0.42 0.21 0 0 0.42 -0.1 0.1 -0.11 -0.1zm0.21 0l0 0.1 -0.1 0 0.1 -0.1zm-1.24 -0.11l1.14 0 0 0.21 -1.14 0 -0.11 -0.1 0.11 -0.11zm0 0.21l-0.11 0 0 -0.1 0.11 0.1z"/>
   </g>
   <g>
    <path id="3" class="fil0" d="M7.03 11.8l0.47 0 0 0.21 -0.47 0 -0.11 -0.09 0.11 -0.12zm0 0.21l-0.1 0 -0.01 -0.09 0.11 0.09zm-0.01 -0.92l0.11 0.8 -0.21 0.03 -0.11 -0.8 0.21 -0.03 0 0zm-0.23 -0.17l0.21 -0.02 0 0 0 0.01 0.01 0.01 0 0 0 0.01 0 0 0 0.01 0 0.01 0 0 0 0.01 0 0 0 0.01 0 0.01 0 0 0 0.01 0 0 0 0.01 0 0.01 0.01 0 0 0.01 0 0 0 0.01 0 0 0 0.01 0 0 0 0.01 0 0.01 0 0 0 0.01 0 0 0 0.01 0 0 0 0.01 -0.21 0.03 0 -0.01 0 0 0 -0.01 0 -0.01 0 0 0 -0.01 0 0 0 -0.01 0 0 0 -0.01 0 -0.01 -0.01 0 0 -0.01 0 0 0 -0.01 0 -0.01 0 0 0 -0.01 0 0 0 -0.01 0 -0.01 0 0 0 -0.01 0 -0.01 0 0 0 -0.01 -0.01 0 0 -0.01 0 -0.01 0 0 0 -0.01 0 -0.01 0 0zm0.2 -0.22l-0.21 -0.03 0.21 0.01 0 0.01 0 0 0 0.01 0 0.01 0 0.01 0 0 0 0.01 0 0.01 0 0.01 0 0 0 0.01 0 0.01 0 0 0 0.01 0 0.01 0.01 0.01 0 0 0 0.01 0 0.01 0 0 0 0.01 0 0.01 0 0 0 0.01 0 0.01 0 0 0 0.01 0 0.01 0 0 0 0.01 0 0.01 0 0 -0.21 0.02 0 0 0 -0.01 0 -0.01 0 0 0 -0.01 0 -0.01 0 -0.01 0 0 0 -0.01 0 -0.01 0 0 -0.01 -0.01 0 -0.01 0 0 0 -0.01 0 -0.01 0 -0.01 0 0 0 -0.01 0 -0.01 0 0 0 -0.01 0 -0.01 0 -0.01 0 0 0 -0.01 0 -0.01 0 -0.01 0 0 0 -0.01 -0.01 -0.01 0 -0.01 0.22 0.01zm-0.08 0.31l-0.2 -0.06 0 0 0 -0.01 0 -0.01 0.01 -0.01 0 -0.01 0 -0.01 0.01 -0.01 0 -0.01 0 -0.01 0 -0.01 0.01 -0.01 0 -0.01 0 -0.01 0 -0.01 0.01 -0.01 0 -0.01 0 -0.01 0 0 0 -0.01 0.01 -0.01 0 -0.01 0 -0.01 0 -0.01 0 0 0.01 -0.01 0 -0.01 0 -0.01 0 0 0 -0.01 0 -0.01 0 -0.01 0 0 0.01 -0.01 0.21 0.03 0 0.01 -0.01 0.01 0 0.01 0 0.01 0 0 0 0.01 0 0.01 -0.01 0.01 0 0.01 0 0.01 0 0.01 0 0.01 -0.01 0.01 0 0 0 0.01 0 0.01 0 0.01 -0.01 0.01 0 0.01 0 0.01 0 0.01 -0.01 0.01 0 0.01 0 0.01 0 0.01 -0.01 0.01 0 0.02 0 0.01 -0.01 0.01 0 0.01 0 0.01 -0.01 0.01 0 0zm-0.01 0.05l-0.21 -0.05 0 0 0 0 0 -0.01 0 0 0 0 0 0 0 0 0.01 -0.01 0 0 -0.01 0 0.01 0 0 0 0 0 0 0 0 -0.01 0 0 0 0 0 0 0 0 0 -0.01 0 0 0 0 0 0 0 0 0 0 0 -0.01 0.01 0 0 0 0 0 0 0 0 -0.01 0 0 0 0 0.2 0.06 0 0.01 0 0 0 0 0 0 0 0.01 0 0 0 0 0 0 0 0 0 0 0 0.01 0 0 -0.01 0 0 0 0 0 0 0 0 0 0 0.01 0 0 0 0 0 0 0 0 0 0 0 0.01 0 0 0 0 0 0 0 0 0 0 0 0 0 0 0 0 0 0zm-0.46 0.82l0.25 -0.87 0.21 0.05 -0.26 0.87 -0.1 0.08 -0.1 -0.13zm0.2 0.05l-0.02 0.08 -0.08 0 0.1 -0.08zm-0.44 -0.13l0.34 0 0 0.21 -0.34 0 -0.1 -0.08 0.1 -0.13zm0 0.21l-0.08 0 -0.02 -0.08 0.1 0.08zm-0.14 -1l0.25 0.87 -0.21 0.05 -0.25 -0.87 0.21 -0.05 0 0zm-0.23 0l0.21 -0.06 0 0 0 0 0 0.01 0 0 0 0 0 0 0 0 0 0.01 0 0 0.01 0 0 0 0 0 0 0.01 0 0 0 0 0 0 0 0 0 0 0 0 0 0.01 0 0 0 0 0 0 0 0 0 0.01 0 0 0 0 0 0 0 0 0 0 0 0 0.01 0.01 0 0 -0.21 0.05 0 0 0 0 0 0 0 0 0 0 0 0 0 0 0 -0.01 0 0 0 0 0 0 -0.01 0 0.01 0 0 0 -0.01 -0.01 0 0 0 0 0 0 0 0 0 -0.01 0 0 0 0 0 0 0 0 0 -0.01 0 0 0 0 0 0 0 0 0 -0.01 0 0 -0.01 0 0 0zm0.14 -0.32l-0.21 -0.01 0.21 -0.01 0 0.01 0.01 0.01 0 0 0 0.01 0 0.01 0 0 0 0.01 0 0.01 0 0.01 0.01 0 0 0.01 0 0.01 0 0.01 0 0.01 0.01 0.01 0 0 0 0.01 0 0.01 0 0.01 0.01 0.01 0 0.01 0 0.01 0 0.01 0.01 0.01 0 0.01 0 0.01 0 0.01 0.01 0.01 0 0.01 0 0.01 0.01 0.01 0 0.01 -0.21 0.06 0 -0.01 0 -0.01 0 -0.01 -0.01 -0.01 0 -0.01 0 -0.02 -0.01 -0.01 0 -0.01 0 -0.01 -0.01 -0.01 0 -0.01 0 -0.01 0 -0.01 -0.01 -0.01 0 -0.01 0 -0.01 0 -0.01 -0.01 -0.01 0 0 0 -0.01 0 -0.01 0 -0.01 0 -0.01 -0.01 -0.01 0 -0.01 0 -0.01 0 -0.01 0 0 0 -0.01 -0.01 -0.01 0 -0.01 0 -0.01 0.21 -0.01zm-0.01 0.22l-0.22 -0.02 0 0 0 -0.01 0 -0.01 0.01 0 0 -0.01 0 -0.01 0 0 0 -0.01 0 -0.01 0 0 0 -0.01 0 -0.01 0 0 0 -0.01 0 0 0 -0.01 0 -0.01 0 0 0 -0.01 0 -0.01 0.01 0 0 -0.01 0 0 0 -0.01 0 -0.01 0 0 0 -0.01 0 -0.01 0 0 0 -0.01 0 -0.01 0 0 0 -0.01 0.21 0.01 0 0.01 0 0.01 0 0 0 0.01 0 0.01 0 0 0 0.01 0 0.01 0 0 0 0.01 0 0.01 0 0 0 0.01 0 0.01 0 0 0 0.01 0 0.01 -0.01 0 0 0.01 0 0.01 0 0 0 0.01 0 0.01 0 0 0 0.01 0 0.01 0 0 0 0.01 0 0.01 0 0 0 0.01 0 0.01 0 0zm-0.03 0.21l-0.21 -0.03 0 0 0 -0.01 0 0 0 -0.01 0 -0.01 0 0 0 -0.01 0.01 -0.01 0 0 0 -0.01 0 0 0 -0.01 0 -0.01 0 0 0 -0.01 0 -0.01 0 0 0 -0.01 0 -0.01 0 0 0.01 -0.01 0 0 0 -0.01 0 -0.01 0 0 0 -0.01 0 -0.01 0 0 0 -0.01 0 -0.01 0 0 0 -0.01 0 0 0.22 0.02 0 0 -0.01 0.01 0 0.01 0 0 0 0.01 0 0.01 0 0 0 0.01 0 0.01 0 0 0 0.01 0 0.01 0 0 0 0.01 0 0 -0.01 0.01 0 0.01 0 0 0 0.01 0 0.01 0 0 0 0.01 0 0.01 0 0 0 0.01 0 0.01 0 0 0 0.01 -0.01 0.01 0 0 0 0.01 0 0.01 0 0zm-0.32 0.77l0.11 -0.8 0.21 0.03 -0.11 0.8 -0.1 0.09 -0.11 -0.12zm0.21 0.03l-0.01 0.09 -0.09 0 0.1 -0.09zm-0.57 -0.12l0.47 0 0 0.21 -0.47 0 -0.11 -0.12 0.11 -0.09zm0 0.21l-0.13 0 0.02 -0.12 0.11 0.12zm0.39 -1.95l-0.29 1.86 -0.21 -0.03 0.29 -1.86 0.1 -0.09 0.11 0.12zm-0.21 -0.03l0.01 -0.09 0.09 0 -0.1 0.09zm0.6 0.12l-0.5 0 0 -0.21 0.5 0 0.11 0.08 -0.11 0.13zm0 -0.21l0.08 0 0.03 0.08 -0.11 -0.08zm0.18 1.1l-0.28 -0.96 0.21 -0.06 0.28 0.96 0 0 -0.21 0.06zm0.22 -0.03l-0.21 0.06 0 0 0 0 0 0 0 0 0 0 0 0 0 0 0 -0.01 0 0 0 0 0 0 0 0 0 0 0 0 0 0 0 -0.01 0 0 -0.01 0 0 0 0.01 0 -0.01 0 0 -0.01 0 0.01 0 0 0 -0.01 0 0 0 0 0 0 0 0 0 0 0 0 0 -0.01 0 0 0.21 -0.05 0 0 0 0 0 0 0 0 0 0 0 0 0 0 0 0 0 0 0 0 0 0.01 0 -0.01 0 0 0 0.01 0 0 0 0 0 0 0 0 0 0 0 0 0 0 0 0 0 0 0 0.01 0 0 0 0 0 0 0 0 0 0 0 0 0 0 0.01 0.01 0 0zm-0.16 0.24l0.21 0.02 -0.21 0 0 0 0 -0.01 0 0 -0.01 -0.01 0 0 0 -0.01 0 -0.01 0 0 0 -0.01 0 0 0 -0.01 0 0 0 -0.01 -0.01 -0.01 0 0 0 -0.01 0 -0.01 0 0 0 -0.01 0 0 -0.01 -0.01 0 -0.01 0 -0.01 0 0 0 -0.01 0 -0.01 -0.01 0 0 -0.01 0 -0.01 0 -0.01 -0.01 0 0 -0.01 0.21 -0.06 0 0.01 0 0 0 0.01 0.01 0.01 0 0.01 0 0.01 0 0 0.01 0.01 0 0.01 0 0.01 0 0.01 0 0 0 0.01 0.01 0.01 0 0.01 0 0 0 0.01 0 0.01 0 0.01 0.01 0 0 0.01 0 0.01 0 0.01 0 0 0 0.01 0 0.01 0.01 0 0 0.01 0 0.01 0 0 0 0.01 0 0.01 -0.21 0zm0.02 -0.13l0.21 0.05 0 0 0 0.01 -0.01 0 0 0 0 0.01 0 0 0 0 0 0.01 0 0 0 0 0 0.01 0 0 0 0 0 0.01 0 0 0 0 0 0 0 0.01 -0.01 0 0 0 0 0 0 0.01 0 0 0 0.01 0 0 0 0 0 0 0 0.01 0 0 0 0 0 0 0 0.01 0 0 -0.21 -0.02 0 -0.01 0 0 0 0 0 -0.01 0 0 0 -0.01 0 0 0 0 0 -0.01 0 0 0 0 0 -0.01 0 0 0 0 0 -0.01 0.01 0 0 -0.01 0 0 0 0 0 -0.01 0 0 0 -0.01 0 0 0 0 0 -0.01 0 0 0 -0.01 0 0 0.01 0 0 -0.01 0 0 0 -0.01 0 0zm0.04 -0.15l0.2 0.06 0 0 0 0.01 0 0 0 0.01 0 0 0 0.01 -0.01 0 0 0.01 0 0 0 0.01 0 0 0 0.01 0 0 0 0.01 -0.01 0 0 0 0 0.01 0 0 0 0.01 0 0 0 0.01 0 0 0 0.01 -0.01 0 0 0 0 0.01 0 0 0 0 0 0.01 0 0 0 0.01 0 0 0 0 -0.21 -0.05 0 0 0 0 0 -0.01 0 0 0 -0.01 0 0 0.01 0 0 -0.01 0 0 0 -0.01 0 0 0 -0.01 0 0 0 -0.01 0 0 0.01 -0.01 0 0 0 0 0 -0.01 0 0 0 -0.01 0 -0.01 0.01 0 0 0 0 -0.01 0 0 0 -0.01 0 0 0 -0.01 0 -0.01 0.01 0 0 -0.01 0 0zm0.49 -0.89l-0.29 0.95 -0.2 -0.06 0.28 -0.95 0.1 -0.08 0.11 0.14zm-0.21 -0.06l0.02 -0.08 0.08 0 -0.1 0.08zm0.61 0.13l-0.51 0 0 -0.21 0.51 0 0.1 0.09 -0.1 0.12zm0 -0.21l0.09 0 0.01 0.09 -0.1 -0.09zm0.18 1.98l-0.29 -1.86 0.21 -0.03 0.29 1.86 -0.11 0.12 -0.1 -0.09zm0.21 -0.03l0.02 0.12 -0.13 0 0.11 -0.12z"/>
   </g>
   <g>
    <path id="4" class="fil0" d="M7.89 10.05l0 1.86 -0.21 0 0 -1.86 0.11 -0.11 0.1 0.11zm-0.21 0l0 -0.11 0.11 0 -0.11 0.11zm0.62 0.1l-0.51 0 0 -0.21 0.51 0 0.1 0.11 -0.1 0.1zm0 -0.21l0.1 0 0 0.11 -0.1 -0.11zm-0.11 1.97l0 -1.86 0.21 0 0 1.86 -0.1 0.1 -0.11 -0.1zm0.21 0l0 0.1 -0.1 0 0.1 -0.1zm-0.61 -0.11l0.51 0 0 0.21 -0.51 0 -0.11 -0.1 0.11 -0.11zm0 0.21l-0.11 0 0 -0.1 0.11 0.1z"/>
   </g>
   <g>
    <path id="5" class="fil0" d="M9.94 10.67l0 -0.55 0.22 0 0 0.55 -0.19 0.08 -0.03 -0.08zm-0.15 -0.07l0.1 -0.19 0 0 0.01 0 0.01 0.01 0.01 0 0 0.01 0.01 0 0.01 0.01 0.01 0 0 0.01 0.01 0 0.01 0.01 0.01 0 0 0.01 0.01 0 0.01 0.01 0.01 0 0 0.01 0.01 0.01 0.01 0 0.01 0.01 0 0.01 0.01 0 0.01 0.01 0.01 0.01 0 0 0.01 0.01 0.01 0.01 0 0 0.01 0.01 0.01 0.01 0.01 0.01 0 0 0.01 0.01 -0.16 0.15 0 -0.01 -0.01 -0.01 -0.01 0 0 -0.01 -0.01 -0.01 0 0 -0.01 -0.01 -0.01 0 0 -0.01 -0.01 0 0 -0.01 -0.01 0 0 -0.01 -0.01 0 -0.01 -0.01 0 0 -0.01 -0.01 0 0 -0.01 -0.01 0 0 -0.01 0 0 -0.01 -0.01 0 0 -0.01 -0.01 0 0 0 -0.01 -0.01 -0.01 0 0 0 -0.01 -0.01 0 0 -0.01 0 0 0zm-0.17 -0.04l0 -0.22 0 0 0.01 0 0.01 0 0.01 0 0.01 0 0.01 0.01 0.01 0 0 0 0.01 0 0.01 0 0.01 0 0.01 0 0.01 0 0.01 0 0 0.01 0.01 0 0.01 0 0.01 0 0.01 0 0.01 0.01 0.01 0 0 0 0.01 0.01 0.01 0 0.01 0 0.01 0 0.01 0.01 0 0 0.01 0 0.01 0.01 0.01 0 0 0.01 0.01 0 -0.1 0.19 0 0 -0.01 -0.01 0 0 -0.01 0 0 0 -0.01 -0.01 0 0 -0.01 0 0 0 -0.01 0 0 0 -0.01 -0.01 0 0 -0.01 0 0 0 -0.01 0 0 0 -0.01 0 -0.01 -0.01 0 0 -0.01 0 0 0 -0.01 0 0 0 -0.01 0 0 0 -0.01 0 0 0 -0.01 0 -0.01 0 0 0 -0.01 0 0 0zm-0.27 0.11l-0.16 -0.14 0 0 0.01 -0.01 0.01 -0.01 0.01 -0.01 0.01 -0.02 0.01 0 0.02 -0.01 0.01 -0.01 0.01 -0.01 0.01 -0.01 0.01 -0.01 0.02 -0.01 0.01 0 0.01 -0.01 0.02 -0.01 0.01 0 0.01 -0.01 0.02 -0.01 0.01 0 0.02 -0.01 0.01 0 0.01 0 0.02 -0.01 0.01 0 0.02 -0.01 0.01 0 0.02 0 0.01 0 0.02 0 0.01 0 0.02 -0.01 0.02 0 0.01 0 0 0.22 -0.01 0 -0.01 0 -0.01 0 -0.01 0 -0.01 0 -0.01 0 -0.01 0 -0.01 0 -0.01 0.01 -0.01 0 -0.01 0 -0.01 0 -0.01 0.01 -0.01 0 -0.01 0 0 0.01 -0.01 0 -0.01 0 -0.01 0.01 -0.01 0 0 0.01 -0.01 0 -0.01 0.01 -0.01 0 0 0.01 -0.01 0 -0.01 0.01 0 0 -0.01 0.01 -0.01 0.01 -0.01 0 0 0.01 0 0zm-0.11 0.32l-0.21 0 0 0 0 -0.02 0 -0.02 0 -0.01 0 -0.02 0 -0.01 0 -0.02 0 -0.02 0.01 -0.01 0 -0.02 0 -0.01 0.01 -0.02 0 -0.01 0 -0.02 0.01 -0.01 0 -0.02 0.01 -0.01 0 -0.02 0.01 -0.01 0 -0.02 0.01 -0.01 0.01 -0.01 0 -0.02 0.01 -0.01 0.01 -0.01 0.01 -0.02 0 -0.01 0.01 -0.01 0.01 -0.02 0.01 -0.01 0.01 -0.01 0.01 -0.01 0.01 -0.01 0.16 0.14 -0.01 0.01 -0.01 0.01 0 0 -0.01 0.01 0 0.01 -0.01 0.01 0 0.01 -0.01 0 0 0.01 -0.01 0.01 0 0.01 -0.01 0.01 0 0.01 0 0.01 -0.01 0.01 0 0.01 -0.01 0.01 0 0.01 0 0.01 0 0.01 -0.01 0.01 0 0.01 0 0.01 0 0.01 0 0.01 -0.01 0.01 0 0.01 0 0.02 0 0.01 0 0.01 0 0.01 0 0.02 0 0zm0.11 0.3l-0.16 0.14 0 0 -0.01 -0.01 -0.01 -0.01 -0.01 -0.01 -0.01 -0.01 0 -0.02 -0.01 -0.01 -0.01 -0.01 -0.01 -0.01 -0.01 -0.02 0 -0.01 -0.01 -0.01 -0.01 -0.02 0 -0.01 -0.01 -0.01 -0.01 -0.02 0 -0.01 -0.01 -0.02 0 -0.01 -0.01 -0.01 0 -0.02 0 -0.01 -0.01 -0.02 0 -0.01 0 -0.02 -0.01 -0.01 0 -0.02 0 -0.01 0 -0.02 0 -0.01 0 -0.02 0 -0.02 0 -0.01 0.21 0 0 0.01 0 0.01 0 0.01 0 0.01 0 0.01 0 0.02 0.01 0.01 0 0.01 0 0.01 0 0.01 0 0.01 0.01 0.01 0 0.01 0 0.01 0 0.01 0.01 0 0 0.01 0.01 0.01 0 0.01 0 0.01 0.01 0.01 0 0.01 0.01 0.01 0 0 0.01 0.01 0 0.01 0.01 0.01 0 0 0.01 0.01 0.01 0.01 0 0.01 0.01 0 0 0.01zm0.27 0.11l0 0.21 0 0 -0.01 0 -0.02 0 -0.01 0 -0.02 0 -0.01 0 -0.02 0 -0.01 -0.01 -0.02 0 -0.01 0 -0.02 -0.01 -0.01 0 -0.02 0 -0.01 -0.01 -0.02 0 -0.01 -0.01 -0.01 0 -0.02 -0.01 -0.01 -0.01 -0.01 0 -0.02 -0.01 -0.01 -0.01 -0.01 0 -0.01 -0.01 -0.02 -0.01 -0.01 -0.01 -0.01 -0.01 -0.01 -0.01 -0.01 -0.01 -0.01 -0.01 -0.02 -0.01 -0.01 -0.01 -0.01 -0.01 0.16 -0.14 0.01 0 0 0.01 0.01 0.01 0.01 0 0 0.01 0.01 0 0.01 0.01 0.01 0.01 0 0 0.01 0.01 0.01 0 0.01 0 0 0.01 0.01 0 0.01 0.01 0.01 0 0.01 0 0.01 0.01 0 0 0.01 0 0.01 0 0.01 0.01 0.01 0 0.01 0 0.01 0 0.01 0 0.01 0.01 0.01 0 0.01 0 0.01 0 0.01 0 0.01 0 0 0zm0.17 -0.04l0.1 0.19 0 0 -0.01 0 0 0 -0.01 0.01 -0.01 0 -0.01 0.01 -0.01 0 0 0 -0.01 0 -0.01 0.01 -0.01 0 -0.01 0 0 0.01 -0.01 0 -0.01 0 -0.01 0 -0.01 0.01 -0.01 0 -0.01 0 0 0 -0.01 0 -0.01 0 -0.01 0.01 -0.01 0 -0.01 0 -0.01 0 -0.01 0 0 0 -0.01 0 -0.01 0 -0.01 0 -0.01 0 -0.01 0 0 -0.21 0.01 0 0 0 0.01 0 0.01 0 0 0 0.01 0 0 0 0.01 0 0 0 0.01 -0.01 0 0 0.01 0 0.01 0 0 0 0.01 0 0 0 0.01 0 0 0 0.01 -0.01 0 0 0.01 0 0 0 0.01 0 0 -0.01 0.01 0 0 0 0.01 0 0 0 0.01 -0.01 0 0 0.01 0 0 0 0 0zm0.37 -0.08l-0.22 0 0.19 0.07 -0.01 0.01 0 0.01 -0.01 0.01 -0.01 0 -0.01 0.01 0 0.01 -0.01 0.01 -0.01 0 0 0.01 -0.01 0.01 -0.01 0 -0.01 0.01 0 0.01 -0.01 0 -0.01 0.01 -0.01 0 0 0.01 -0.01 0.01 -0.01 0 -0.01 0.01 0 0 -0.01 0.01 -0.01 0 -0.01 0.01 0 0 -0.01 0.01 -0.01 0 -0.01 0.01 0 0 -0.01 0.01 -0.01 0 -0.01 0.01 -0.1 -0.19 0.01 -0.01 0 0 0.01 0 0 0 0.01 -0.01 0.01 0 0 0 0.01 -0.01 0 0 0.01 -0.01 0 0 0.01 0 0 -0.01 0.01 0 0 -0.01 0.01 0 0 0 0.01 -0.01 0.01 0 0 -0.01 0.01 0 0 -0.01 0.01 -0.01 0 0 0.01 -0.01 0.01 0 0 -0.01 0.01 0 0 -0.01 0.01 -0.01 0.01 0 0 -0.01 0.19 0.07zm-0.22 0.55l0 -0.55 0.22 0 0 0.55 -0.06 0.1 -0.16 -0.1zm0.22 0l0 0.07 -0.06 0.03 0.06 -0.1zm-0.32 0.2l-0.05 -0.21 0 0 0 0 0.01 0 0.01 -0.01 0 0 0.01 0 0.01 0 0 0 0.01 -0.01 0.01 0 0 0 0.01 0 0.01 0 0 -0.01 0.01 0 0.01 0 0 0 0.01 -0.01 0.01 0 0 0 0.01 0 0.01 -0.01 0 0 0.01 0 0.01 -0.01 0.01 0 0 0 0.01 0 0.01 -0.01 0 0 0.01 0 0.01 -0.01 0 0 0.1 0.19 -0.01 0 -0.01 0.01 -0.01 0 -0.01 0.01 0 0 -0.01 0 -0.01 0.01 -0.01 0 -0.01 0 0 0.01 -0.01 0 -0.01 0 -0.01 0.01 -0.01 0 0 0 -0.01 0.01 -0.01 0 -0.01 0 -0.01 0.01 -0.01 0 0 0 -0.01 0 -0.01 0.01 -0.01 0 -0.01 0 0 0 -0.01 0.01 -0.01 0 -0.01 0 -0.01 0 -0.01 0 0 0.01 0 0zm-0.27 0.03l0 -0.21 0 0 0.01 0 0 0 0.01 -0.01 0.01 0 0 0 0.01 0 0.01 0 0 0 0.01 0 0.01 0 0 0 0.01 0 0.01 0 0 0 0.01 0 0.01 0 0.01 0 0 0 0.01 0 0.01 0 0 -0.01 0.01 0 0.01 0 0 0 0.01 0 0.01 0 0 0 0.01 0 0.01 -0.01 0 0 0.01 0 0.01 0 0.05 0.21 -0.01 0 -0.01 0 -0.01 0 -0.01 0 0 0.01 -0.01 0 -0.01 0 -0.01 0 -0.01 0 -0.01 0 0 0 -0.01 0.01 -0.01 0 -0.01 0 -0.01 0 -0.01 0 0 0 -0.01 0 -0.01 0 -0.01 0 -0.01 0 -0.01 0.01 0 0 -0.01 0 -0.01 0 -0.01 0 -0.01 0 -0.01 0 0 0 -0.01 0 -0.01 0 -0.01 0 0 0zm-0.31 -0.04l0.06 -0.21 0 0 0.01 0.01 0 0 0.01 0 0.01 0 0 0 0.01 0 0.01 0.01 0.01 0 0 0 0.01 0 0.01 0 0.01 0 0 0 0.01 0 0.01 0.01 0.01 0 0.01 0 0 0 0.01 0 0.01 0 0.01 0 0.01 0 0 0 0.01 0 0.01 0 0.01 0 0.01 0 0.01 0 0 0 0.01 0.01 0.01 0 0.01 0 0 0.21 -0.01 0 -0.01 0 -0.01 0 -0.01 0 -0.01 0 -0.01 0 -0.01 0 -0.01 0 -0.01 0 -0.01 -0.01 -0.01 0 -0.01 0 -0.01 0 -0.01 0 -0.01 0 -0.01 0 -0.01 0 -0.01 0 -0.01 -0.01 -0.01 0 -0.01 0 -0.01 0 -0.01 0 -0.01 0 -0.01 -0.01 0 0 -0.01 0 -0.01 0 -0.01 0 -0.01 -0.01 -0.01 0 -0.01 0 0 0zm-0.27 -0.13l0.12 -0.17 0 0 0.01 0 0.01 0.01 0 0 0.01 0 0 0.01 0.01 0 0.01 0 0 0.01 0.01 0 0 0 0.01 0.01 0.01 0 0 0 0.01 0.01 0 0 0.01 0 0.01 0.01 0 0 0.01 0 0.01 0 0 0.01 0.01 0 0.01 0 0 0.01 0.01 0 0.01 0 0 0 0.01 0 0.01 0.01 0 0 0.01 0 0.01 0 -0.06 0.21 -0.01 0 -0.01 -0.01 -0.01 0 0 0 -0.01 -0.01 -0.01 0 -0.01 0 -0.01 0 -0.01 -0.01 -0.01 0 -0.01 0 0 -0.01 -0.01 0 -0.01 -0.01 -0.01 0 -0.01 0 -0.01 -0.01 -0.01 0 0 -0.01 -0.01 0 -0.01 0 -0.01 -0.01 -0.01 0 0 -0.01 -0.01 0 -0.01 -0.01 -0.01 0 -0.01 -0.01 0 0 -0.01 -0.01 -0.01 0 -0.01 -0.01 0 0zm-0.35 -0.39l0.19 -0.09 0 0 0.01 0.01 0 0.01 0.01 0.01 0.01 0.01 0 0.01 0.01 0.01 0.01 0.01 0 0.02 0.01 0.01 0.01 0.01 0.01 0.01 0.01 0.01 0 0.01 0.01 0.01 0.01 0.01 0.01 0.01 0.01 0.01 0.01 0.01 0.01 0.01 0.01 0 0.01 0.01 0.01 0.01 0 0.01 0.02 0.01 0.01 0.01 0.01 0.01 0.01 0.01 0.01 0.01 0.01 0 0.01 0.01 0.01 0.01 0.01 0.01 -0.12 0.17 -0.01 -0.01 -0.01 0 -0.02 -0.01 -0.01 -0.02 -0.02 -0.01 -0.01 -0.01 -0.01 -0.01 -0.01 -0.01 -0.02 -0.01 -0.01 -0.01 -0.01 -0.01 -0.01 -0.01 -0.01 -0.01 -0.02 -0.02 -0.01 -0.01 -0.01 -0.01 -0.01 -0.01 -0.01 -0.01 -0.01 -0.02 -0.01 -0.01 -0.01 -0.01 -0.01 -0.02 -0.01 -0.01 -0.01 -0.01 -0.01 -0.02 -0.01 -0.01 -0.01 -0.01 -0.01 -0.02 0 -0.01 -0.01 -0.02 -0.01 -0.01 -0.01 -0.02 0 0zm-0.12 -0.52l0.21 0 0 0 0 0.01 0 0.02 0 0.01 0.01 0.02 0 0.01 0 0.02 0 0.01 0 0.02 0 0.01 0 0.01 0.01 0.02 0 0.01 0 0.02 0 0.01 0.01 0.01 0 0.02 0 0.01 0.01 0.01 0 0.02 0 0.01 0.01 0.01 0 0.01 0 0.02 0.01 0.01 0 0.01 0.01 0.01 0 0.02 0.01 0.01 0 0.01 0.01 0.01 0.01 0.01 0 0.02 -0.19 0.09 -0.01 -0.01 0 -0.02 -0.01 -0.01 -0.01 -0.02 0 -0.01 -0.01 -0.02 -0.01 -0.01 0 -0.02 -0.01 -0.01 0 -0.02 -0.01 -0.02 0 -0.01 -0.01 -0.02 0 -0.01 -0.01 -0.02 0 -0.02 0 -0.01 -0.01 -0.02 0 -0.02 0 -0.01 -0.01 -0.02 0 -0.02 0 -0.01 0 -0.02 0 -0.02 -0.01 -0.02 0 -0.01 0 -0.02 0 -0.02 0 -0.02 0 -0.01 0 -0.02 0 0zm0.08 -0.43l0.2 0.08 0 0 -0.01 0.01 0 0.01 -0.01 0.01 0 0.01 0 0.01 -0.01 0.01 0 0.01 0 0.01 0 0.01 -0.01 0.01 0 0.01 0 0.01 0 0.01 -0.01 0.01 0 0.01 0 0.01 0 0.01 0 0.02 -0.01 0.01 0 0.01 0 0.01 0 0.01 0 0.01 0 0.01 0 0.01 0 0.02 0 0.01 -0.01 0.01 0 0.01 0 0.01 0 0.02 0 0.01 -0.21 0 0 -0.02 0 -0.01 0 -0.02 0 -0.01 0 -0.01 0 -0.02 0 -0.01 0.01 -0.02 0 -0.01 0 -0.01 0 -0.02 0 -0.01 0 -0.01 0 -0.02 0.01 -0.01 0 -0.01 0 -0.02 0 -0.01 0.01 -0.01 0 -0.02 0 -0.01 0.01 -0.01 0 -0.02 0 -0.01 0.01 -0.01 0 -0.01 0 -0.02 0.01 -0.01 0 -0.01 0.01 -0.01 0 -0.02 0.01 -0.01 0 0zm0.23 -0.35l0.15 0.15 0 0 -0.01 0.01 0 0 -0.01 0.01 -0.01 0.01 -0.01 0.01 0 0.01 -0.01 0.01 -0.01 0 0 0.01 -0.01 0.01 -0.01 0.01 0 0.01 -0.01 0.01 -0.01 0.01 0 0 -0.01 0.01 0 0.01 -0.01 0.01 0 0.01 -0.01 0.01 -0.01 0.01 0 0.01 -0.01 0.01 0 0 0 0.01 -0.01 0.01 0 0.01 -0.01 0.01 0 0.01 -0.01 0.01 0 0.01 0 0.01 -0.2 -0.08 0 -0.01 0.01 -0.01 0 -0.01 0.01 -0.02 0 -0.01 0.01 -0.01 0 -0.01 0.01 -0.01 0.01 -0.02 0 -0.01 0.01 -0.01 0.01 -0.01 0 -0.01 0.01 -0.01 0.01 -0.01 0 -0.01 0.01 -0.02 0.01 -0.01 0.01 -0.01 0 -0.01 0.01 -0.01 0.01 -0.01 0.01 -0.01 0.01 -0.01 0.01 -0.01 0 -0.01 0.01 -0.01 0.01 -0.01 0.01 -0.01 0.01 -0.01 0.01 -0.01 0.01 -0.01 0 0zm0.33 -0.23l0.08 0.2 0 0 -0.01 0 -0.01 0.01 0 0 -0.01 0.01 -0.01 0 -0.01 0 -0.01 0.01 -0.01 0 -0.01 0.01 0 0 -0.01 0.01 -0.01 0 -0.01 0.01 -0.01 0 -0.01 0.01 -0.01 0 0 0.01 -0.01 0 -0.01 0.01 -0.01 0.01 -0.01 0 0 0.01 -0.01 0.01 -0.01 0 -0.01 0.01 0 0.01 -0.01 0 -0.01 0.01 -0.01 0.01 0 0 -0.01 0.01 -0.01 0.01 -0.15 -0.15 0.01 -0.01 0.01 -0.01 0.01 -0.01 0.01 -0.01 0 -0.01 0.01 0 0.01 -0.01 0.01 -0.01 0.01 -0.01 0.01 -0.01 0.01 -0.01 0.01 0 0.01 -0.01 0.01 -0.01 0.01 -0.01 0.01 0 0.02 -0.01 0.01 -0.01 0.01 0 0.01 -0.01 0.01 -0.01 0.01 0 0.01 -0.01 0.01 -0.01 0.01 0 0.01 -0.01 0.01 0 0.02 -0.01 0.01 0 0.01 -0.01 0.01 0 0.01 -0.01 0 0zm0.41 -0.07l0 0.21 0 0 -0.01 0 -0.01 0 -0.01 0 -0.02 0 -0.01 0 -0.01 0 -0.01 0 -0.01 0 -0.01 0.01 -0.01 0 -0.01 0 -0.01 0 -0.01 0 -0.01 0 -0.01 0 -0.01 0.01 -0.01 0 -0.01 0 -0.01 0 -0.01 0 -0.01 0.01 -0.01 0 -0.01 0 -0.01 0 -0.01 0.01 -0.01 0 -0.01 0 -0.01 0.01 -0.01 0 -0.01 0 -0.01 0.01 -0.01 0 -0.08 -0.2 0.01 0 0.02 -0.01 0.01 0 0.01 -0.01 0.01 0 0.01 0 0.02 -0.01 0.01 0 0.01 0 0.01 -0.01 0.01 0 0.02 0 0.01 -0.01 0.01 0 0.02 0 0.01 0 0.01 -0.01 0.01 0 0.02 0 0.01 0 0.01 0 0.02 -0.01 0.01 0 0.01 0 0.02 0 0.01 0 0.01 0 0.02 0 0.01 0 0.01 0 0.02 0 0.01 0 0 0zm0.27 0.03l-0.05 0.21 0 0 -0.01 -0.01 -0.01 0 0 0 -0.01 0 -0.01 0 0 0 -0.01 0 -0.01 0 0 -0.01 -0.01 0 -0.01 0 0 0 -0.01 0 -0.01 0 0 0 -0.01 0 -0.01 0 0 0 -0.01 -0.01 -0.01 0 -0.01 0 0 0 -0.01 0 -0.01 0 0 0 -0.01 0 -0.01 0 0 0 -0.01 0 -0.01 0 0 0 -0.01 0 0 -0.21 0.01 0 0.01 0 0.01 0 0 0 0.01 0 0.01 0 0.01 0 0.01 0 0.01 0 0 0 0.01 0 0.01 0 0.01 0 0.01 0 0.01 0 0 0.01 0.01 0 0.01 0 0.01 0 0.01 0 0.01 0 0 0 0.01 0 0.01 0.01 0.01 0 0.01 0 0.01 0 0 0 0.01 0 0.01 0.01 0.01 0 0.01 0 0 0zm0.32 0.19l-0.22 0 0.06 0.1 0 -0.01 -0.01 0 -0.01 0 0 -0.01 -0.01 0 -0.01 0 0 -0.01 -0.01 0 -0.01 0 -0.01 0 0 -0.01 -0.01 0 -0.01 0 0 -0.01 -0.01 0 -0.01 0 0 0 -0.01 -0.01 -0.01 0 0 0 -0.01 0 -0.01 0 0 -0.01 -0.01 0 -0.01 0 0 0 -0.01 0 -0.01 -0.01 0 0 -0.01 0 -0.01 0 0 0 0.05 -0.21 0 0 0.01 0 0.01 0.01 0.01 0 0.01 0 0.01 0 0 0 0.01 0.01 0.01 0 0.01 0 0.01 0 0 0.01 0.01 0 0.01 0 0.01 0.01 0.01 0 0.01 0 0 0.01 0.01 0 0.01 0 0.01 0 0.01 0.01 0 0 0.01 0.01 0.01 0 0.01 0 0.01 0.01 0 0 0.01 0 0.01 0.01 0.01 0 0.01 0 0.06 0.1zm-0.06 -0.1l0.06 0.03 0 0.07 -0.06 -0.1z"/>
   </g>
   <g>
    <path id="6" class="fil0" d="M11.33 11.32l-0.5 0 0 -0.22 0.5 0 0.1 0.08 -0.1 0.14zm0.1 -0.14l0.05 0.14 -0.15 0 0.1 -0.14zm-0.19 -0.61l0.19 0.61 -0.2 0.06 -0.19 -0.61 0 0 0.2 -0.06zm-0.23 -0.04l0.21 -0.05 0 0 0 0.01 0 0 0 0 0.01 0.01 0 0 0 0.01 0 0 0 0 0 0 0 0.01 0 0 0 0 0 0.01 0 0 0 0 0.01 0.01 0 0 0 0 0 0 0 0.01 0 0 0 0 0 0 0 0 0 0 0 0.01 0 0 0 0 0 0 0 0.01 0 0 0 0 -0.2 0.06 0 0 0 -0.01 0 0 0 0 0 0 0 0 0 0 -0.01 -0.01 0 0 0 0 0 -0.01 0 0 0 0 0 0 0 -0.01 0 0 0 0 0 -0.01 0 0 0 0 -0.01 -0.01 0 0 0 0 0 -0.01 0 0 0 0 0 -0.01 0 0 0 0 0 -0.01 0 0 -0.01 -0.01 0 0zm0.17 -0.16l-0.21 -0.05 0.21 0 0 0.01 0.01 0.01 0 0 0 0.01 0 0 0 0.01 0 0 0 0.01 0.01 0.01 0 0 0 0.01 0 0 0 0.01 0 0 0 0.01 0 0 0.01 0.01 0 0 0 0.01 0 0 0 0.01 0 0 0 0 0 0.01 0 0 0.01 0.01 0 0 0 0.01 0 0 0 0 0 0.01 0 0 -0.21 0.05 0 0 0 0 0 -0.01 0 0 0 -0.01 0 0 0 -0.01 0 0 0 0 -0.01 -0.01 0 0 0 -0.01 0 0 0 -0.01 0 0 0 -0.01 0 0 -0.01 -0.01 0 0 0 -0.01 0 0 0 -0.01 0 0 0 -0.01 0 0 -0.01 -0.01 0 -0.01 0 0 0 -0.01 0 0 0 -0.01 0 -0.01 0.2 0zm-0.03 0.14l-0.21 -0.06 0 0 0 0 0.01 -0.01 0 0 0 0 0 -0.01 0 0 0 0 0 -0.01 0 0 0 -0.01 0 0 0 0 0.01 -0.01 0 0 0 -0.01 0 0 0 0 0 -0.01 0 0 0 -0.01 0 0 0 0 0.01 -0.01 0 0 0 -0.01 0 0 0 -0.01 0 0 0 0 0 -0.01 0 0 0 -0.01 0.21 0.05 0 0.01 0 0 0 0.01 0 0 0 0.01 0 0 0 0 -0.01 0.01 0 0 0 0.01 0 0 0 0 0 0.01 0 0 0 0.01 0 0 0 0.01 -0.01 0 0 0 0 0.01 0 0 0 0.01 0 0 0 0 0 0.01 0 0 -0.01 0.01 0 0 0 0 0 0.01 0 0 0 0.01 0 0zm-0.03 0.12l-0.21 -0.06 0 0 0 0 0 -0.01 0 0 0.01 0 0 -0.01 0 0 0 -0.01 0 0 0 0 0 -0.01 0 0 0 0 0 -0.01 0.01 0 0 0 0 -0.01 0 0 0 -0.01 0 0 0 0 0 -0.01 0 0 0 0 0.01 -0.01 0 0 0 0 0 -0.01 0 0 0 -0.01 0 0 0 0 0 -0.01 0.21 0.06 0 0 0 0 0 0.01 0 0 -0.01 0.01 0 0 0 0 0 0.01 0 0 0 0.01 0 0 0 0 0 0.01 0 0 -0.01 0 0 0.01 0 0 0 0.01 0 0 0 0 0 0.01 0 0 0 0 0 0.01 -0.01 0 0 0.01 0 0 0 0 0 0.01 0 0 0 0 0 0.01 0 0zm-0.39 0.55l0.18 -0.61 0.21 0.06 -0.19 0.61 -0.1 0.08 -0.1 -0.14zm0.1 0.14l-0.15 0 0.05 -0.14 0.1 0.14zm0.03 -1.24l-0.64 1.86 -0.2 -0.07 0.64 -1.86 0.1 -0.07 0.1 0.14zm-0.2 -0.07l0.02 -0.07 0.08 0 -0.1 0.07zm0.73 0.14l-0.63 0 0 -0.21 0.63 0 0.1 0.07 -0.1 0.14zm0 -0.21l0.08 0 0.02 0.07 -0.1 -0.07zm0.54 2l-0.64 -1.86 0.2 -0.07 0.65 1.86 -0.1 0.14 -0.11 -0.07zm0.21 -0.07l0.04 0.14 -0.14 0 0.1 -0.14zm-0.61 -0.07l0.51 0 0 0.21 -0.51 0 -0.1 -0.08 0.1 -0.13zm0 0.21l-0.08 0 -0.02 -0.08 0.1 0.08zm0.01 -0.47l0.09 0.34 -0.2 0.05 -0.1 -0.33 0.11 -0.13 0.1 0.07zm-0.1 -0.07l0.08 0 0.02 0.07 -0.1 -0.07zm-0.72 0l0.72 0 0 0.21 -0.72 0 -0.1 -0.14 0.1 -0.07zm-0.1 0.07l0.02 -0.07 0.08 0 -0.1 0.07zm-0.1 0.34l0.1 -0.34 0.2 0.06 -0.1 0.33 -0.1 0.08 -0.1 -0.13zm0.2 0.05l-0.02 0.08 -0.08 0 0.1 -0.08zm-0.6 -0.13l0.5 0 0 0.21 -0.5 0 -0.1 -0.14 0.1 -0.07zm0 0.21l-0.15 0 0.05 -0.14 0.1 0.14z"/>
   </g>
   <g>
    <path id="7" class="fil0" d="M12.32 10.05l0 1.86 -0.21 0 0 -1.86 0.1 -0.11 0.11 0.11zm-0.21 0l0 -0.11 0.1 0 -0.1 0.11zm0.61 0.1l-0.51 0 0 -0.21 0.51 0 0.11 0.11 -0.11 0.1zm0 -0.21l0.11 0 0 0.11 -0.11 -0.11zm-0.11 1.53l0 -1.42 0.22 0 0 1.42 -0.11 0.11 -0.11 -0.11zm0.11 0.11l-0.11 0 0 -0.11 0.11 0.11zm0.63 0l-0.63 0 0 -0.22 0.63 0 0.1 0.11 -0.1 0.11zm0 -0.22l0.1 0 0 0.11 -0.1 -0.11zm-0.11 0.55l0 -0.44 0.21 0 0 0.44 -0.1 0.1 -0.11 -0.1zm0.21 0l0 0.1 -0.1 0 0.1 -0.1zm-1.24 -0.11l1.14 0 0 0.21 -1.14 0 -0.1 -0.1 0.1 -0.11zm0 0.21l-0.1 0 0 -0.1 0.1 0.1z"/>
   </g>
   <g>
    <path id="8" class="fil0" d="M14.51 10.05l0 1.86 -0.21 0 0 -1.86 0.11 -0.11 0.1 0.11zm-0.21 0l0 -0.11 0.11 0 -0.11 0.11zm0.61 0.1l-0.5 0 0 -0.21 0.5 0 0.11 0.11 -0.11 0.1zm0 -0.21l0.11 0 0 0.11 -0.11 -0.11zm-0.11 0.95l0 -0.84 0.22 0 0 0.84 -0.02 0.06 -0.2 -0.06zm0.78 -0.78l-0.58 0.84 -0.18 -0.12 0.59 -0.84 0.09 -0.05 0.08 0.17zm-0.17 -0.12l0.03 -0.05 0.06 0 -0.09 0.05zm0.68 0.16l-0.59 0 0 -0.21 0.59 0 0.08 0.17 -0.08 0.04zm0 -0.21l0.21 0 -0.13 0.17 -0.08 -0.17zm-0.78 0.95l0.69 -0.91 0.17 0.13 -0.69 0.91 -0.16 0 -0.01 -0.13zm0.01 0.13l-0.06 -0.07 0.05 -0.06 0.01 0.13zm0.74 0.95l-0.74 -0.95 0.16 -0.13 0.75 0.95 -0.08 0.17 -0.09 -0.04zm0.17 -0.13l0.13 0.17 -0.21 0 0.08 -0.17zm-0.72 -0.04l0.64 0 0 0.21 -0.64 0 -0.08 -0.04 0.08 -0.17zm0 0.21l-0.05 0 -0.03 -0.04 0.08 0.04zm-0.51 -1l0.6 0.83 -0.17 0.13 -0.61 -0.84 -0.02 -0.06 0.2 -0.06zm-0.2 0.9l0 -0.84 0.22 0 0 0.84 -0.11 0.1 -0.11 -0.1zm0.22 0l0 0.1 -0.11 0 0.11 -0.1zm-0.61 -0.11l0.5 0 0 0.21 -0.5 0 -0.11 -0.1 0.11 -0.11zm0 0.21l-0.11 0 0 -0.1 0.11 0.1z"/>
   </g>
   <g>
    <path id="9" class="fil0" d="M16.41 10.05l0 1.86 -0.21 0 0 -1.86 0.1 -0.11 0.11 0.11zm-0.21 0l0 -0.11 0.1 0 -0.1 0.11zm0.62 0.1l-0.52 0 0 -0.21 0.52 0 0.1 0.11 -0.1 0.1zm0 -0.21l0.1 0 0 0.11 -0.1 -0.11zm-0.11 1.97l0 -1.86 0.21 0 0 1.86 -0.1 0.1 -0.11 -0.1zm0.21 0l0 0.1 -0.1 0 0.1 -0.1zm-0.62 -0.11l0.52 0 0 0.21 -0.52 0 -0.1 -0.1 0.1 -0.11zm0 0.21l-0.1 0 0 -0.1 0.1 0.1z"/>
   </g>
   <g>
    <path id="10" class="fil0" d="M17.33 10.05l0 1.86 -0.21 0 0 -1.86 0.1 -0.11 0.11 0.11zm-0.21 0l0 -0.11 0.1 0 -0.1 0.11zm0.59 0.1l-0.49 0 0 -0.21 0.49 0 0.09 0.04 -0.09 0.17zm0 -0.21l0.06 0 0.03 0.04 -0.09 -0.04zm0.62 1.13l-0.7 -0.96 0.17 -0.13 0.7 0.96 0 0 -0.17 0.13zm0.24 0l-0.18 0.1 0 0 -0.01 -0.01 0 0 0 -0.01 -0.01 0 0 -0.01 0 0 0 0 -0.01 -0.01 0 0 0 -0.01 0 0 0 -0.01 -0.01 0 0 0 0 -0.01 0 0 -0.01 0 0 -0.01 0 0 0 0 0 -0.01 0 0 -0.01 0 0 0 0 -0.01 0 0 0 0 0 0 0 0 0 0 0 -0.01 0 0 0.17 -0.12 0 0 0.01 0.01 0 0 0 0 0 0.01 0 0 0 0 0.01 0.01 0 0 0 0 0 0.01 0 0 0.01 0 0 0.01 0 0 0 0 0.01 0.01 0 0 0 0.01 0 0 0 0.01 0.01 0 0 0.01 0 0 0 0 0.01 0.01 0 0 0 0.01 0.01 0 0 0.01 0 0.01 0 0 0 0zm-0.09 0.27l0.21 -0.02 -0.21 0.06 0 -0.01 0 -0.01 -0.01 -0.01 0 0 0 -0.01 -0.01 -0.01 0 -0.01 0 0 -0.01 -0.01 0 -0.01 0 0 0 -0.01 -0.01 -0.01 0 0 0 -0.01 -0.01 -0.01 0 0 0 -0.01 -0.01 -0.01 0 0 0 -0.01 -0.01 0 0 -0.01 0 0 0 -0.01 -0.01 -0.01 0 0 0 -0.01 -0.01 0 0 -0.01 0 0 0 -0.01 0.18 -0.1 0.01 0.01 0 0 0 0.01 0.01 0 0 0.01 0 0.01 0.01 0 0 0.01 0 0 0.01 0.01 0 0.01 0 0 0 0.01 0.01 0.01 0 0 0 0.01 0.01 0.01 0 0 0 0.01 0.01 0.01 0 0.01 0 0 0.01 0.01 0 0.01 0 0 0.01 0.01 0 0.01 0 0.01 0.01 0 0 0.01 0.01 0.01 0 0.01 -0.2 0.05zm-0.03 -0.21l0.22 -0.01 0 0 0 0 0 0.01 0 0 0 0.01 0 0 0 0.01 0 0.01 0 0 0 0.01 0 0 0 0.01 0 0.01 0 0 0 0.01 0 0 0.01 0.01 0 0.01 0 0 0 0.01 0 0.01 0 0 0 0.01 0 0.01 0 0 0 0.01 0 0.01 0 0 0 0.01 0.01 0.01 0 0 0 0.01 0 0.01 -0.21 0.02 0 0 -0.01 -0.01 0 -0.01 0 0 0 -0.01 0 -0.01 0 -0.01 0 0 0 -0.01 0 -0.01 0 0 0 -0.01 -0.01 -0.01 0 0 0 -0.01 0 -0.01 0 0 0 -0.01 0 -0.01 0 0 0 -0.01 0 -0.01 0 0 0 -0.01 0 0 0 -0.01 0 -0.01 0 0 -0.01 -0.01 0 -0.01 0 0 0 -0.01 0 0zm0 -0.16l0.21 0 0 0 0 0 0 0 0 0.01 0 0 0 0.01 0 0 0 0 0 0.01 0 0 0 0.01 0 0 0 0.01 0 0 0 0.01 0 0 0 0.01 0 0 0 0 0 0.01 0 0 0 0.01 0 0 0 0.01 0 0 0 0.01 0 0 0 0.01 0 0 0.01 0.01 0 0.01 0 0 0 0.01 -0.22 0.01 0 0 0 -0.01 0 0 0 -0.01 0 -0.01 0 0 0 -0.01 0 0 0 -0.01 0 0 0 -0.01 0 0 0 -0.01 0 0 0 -0.01 0 -0.01 0 0 0 -0.01 0 0 0 -0.01 0 0 0 -0.01 0 0 0 -0.01 0 0 0 -0.01 0 0 0 -0.01 0 0 0 -0.01 0 0 0 0 0 0zm0.21 -0.92l0 0.92 -0.21 0 0 -0.92 0.1 -0.11 0.11 0.11zm-0.21 0l0 -0.11 0.1 0 -0.1 0.11zm0.59 0.1l-0.49 0 0 -0.21 0.49 0 0.11 0.11 -0.11 0.1zm0 -0.21l0.11 0 0 0.11 -0.11 -0.11zm-0.11 1.97l0 -1.86 0.22 0 0 1.86 -0.11 0.1 -0.11 -0.1zm0.22 0l0 0.1 -0.11 0 0.11 -0.1zm-0.6 -0.11l0.49 0 0 0.21 -0.49 0 -0.08 -0.04 0.08 -0.17zm0 0.21l-0.05 0 -0.03 -0.04 0.08 0.04zm-0.61 -1.13l0.7 0.96 -0.17 0.13 -0.71 -0.96 0.18 -0.13 0 0zm-0.25 0l0.19 -0.1 0 0 0 0 0 0.01 0.01 0 0 0.01 0 0 0 0.01 0.01 0 0 0.01 0 0 0 0.01 0.01 0 0 0 0 0.01 0 0 0 0.01 0.01 0 0 0 0 0 0 0.01 0 0 0 0 0.01 0.01 0 0 0 0 0 0 0 0 0 0.01 0 0 0 0 0.01 0 0 0 0 0 -0.17 0.13 -0.01 0 0 -0.01 0 0 0 0 -0.01 -0.01 0 0 0 0 0 0 0 -0.01 -0.01 0 0 -0.01 0 0 0 0 0 -0.01 -0.01 0 0 0 0 -0.01 0 0 -0.01 -0.01 0 0 0 -0.01 0 0 -0.01 0 0 -0.01 0 0 0 -0.01 -0.01 0 0 -0.01 0 -0.01 -0.01 0 0 -0.01 0 0 0 0zm0.1 -0.27l-0.21 0.02 0.2 -0.05 0 0 0.01 0.01 0 0.01 0 0.01 0.01 0 0 0.01 0 0.01 0.01 0 0 0.01 0 0.01 0.01 0 0 0.01 0 0.01 0 0 0.01 0.01 0 0.01 0 0 0.01 0.01 0 0 0 0.01 0.01 0.01 0 0 0 0.01 0 0 0.01 0.01 0 0.01 0 0 0.01 0.01 0 0 0 0.01 0 0 0.01 0.01 -0.19 0.1 0 -0.01 -0.01 0 0 -0.01 0 0 -0.01 -0.01 0 -0.01 0 0 -0.01 -0.01 0 -0.01 0 0 -0.01 -0.01 0 0 0 -0.01 0 -0.01 -0.01 0 0 -0.01 0 -0.01 -0.01 0 0 -0.01 0 -0.01 -0.01 0 0 -0.01 0 -0.01 -0.01 -0.01 0 0 0 -0.01 -0.01 -0.01 0 0 0 -0.01 -0.01 -0.01 0 -0.01 0 0 0.2 -0.06zm0.02 0.21l-0.21 0.02 0 0 0 -0.01 0 0 0 -0.01 0 -0.01 0 0 0 -0.01 -0.01 0 0 -0.01 0 0 0 -0.01 0 -0.01 0 0 0 -0.01 0 0 0 -0.01 0 -0.01 0 0 0 -0.01 0 -0.01 0 0 0 -0.01 -0.01 -0.01 0 0 0 -0.01 0 -0.01 0 0 0 -0.01 0 -0.01 0 0 0 -0.01 0 -0.01 0 -0.01 0.21 -0.02 0 0 0 0.01 0 0.01 0 0.01 0 0 0 0.01 0 0.01 0.01 0.01 0 0 0 0.01 0 0.01 0 0 0 0.01 0 0.01 0 0 0 0.01 0 0.01 0 0 0 0.01 0 0.01 0 0 0.01 0.01 0 0.01 0 0 0 0.01 0 0 0 0.01 0 0.01 0 0 0 0.01 0 0 0 0.01 0 0zm0.01 0.17l-0.22 0 0 0 0 -0.01 0 0 0 0 0 -0.01 0 0 0 -0.01 0 0 0 -0.01 0 0 0 0 0 -0.01 0 0 0 -0.01 0 0 0 -0.01 0 0 0 -0.01 0 0 0 -0.01 0 0 0 -0.01 0 0 0 -0.01 0 0 0 -0.01 0 0 0 -0.01 0 0 0 -0.01 0 0 0 -0.01 0 0 0.21 -0.02 0 0.01 0 0 0 0.01 0 0 0 0.01 0 0 0 0.01 0 0.01 0 0 0 0.01 0.01 0 0 0.01 0 0 0 0.01 0 0 0 0.01 0 0 0 0.01 0 0 0 0.01 0 0 0 0.01 0 0 0 0.01 0 0 0 0.01 0 0 0 0.01 0 0 0 0.01 0 0 0 0.01 0 0zm-0.22 0.92l0 -0.92 0.22 0 0 0.92 -0.11 0.1 -0.11 -0.1zm0.22 0l0 0.1 -0.11 0 0.11 -0.1zm-0.6 -0.11l0.49 0 0 0.21 -0.49 0 -0.1 -0.1 0.1 -0.11zm0 0.21l-0.1 0 0 -0.1 0.1 0.1z"/>
   </g>
   <g>
    <path id="11" class="fil0" d="M19.54 10.05l0 1.86 -0.21 0 0 -1.86 0.11 -0.11 0.1 0.11zm-0.21 0l0 -0.11 0.11 0 -0.11 0.11zm1.24 0.1l-1.13 0 0 -0.21 1.13 0 0.11 0.11 -0.11 0.1zm0 -0.21l0.11 0 0 0.11 -0.11 -0.11zm-0.1 0.52l0 -0.41 0.21 0 0 0.41 -0.11 0.1 -0.1 -0.1zm0.21 0l0 0.1 -0.11 0 0.11 -0.1zm-0.75 -0.11l0.64 0 0 0.21 -0.64 0 -0.11 -0.1 0.11 -0.11zm-0.11 0.11l0 -0.11 0.11 0 -0.11 0.11zm0 0.32l0 -0.32 0.22 0 0 0.32 -0.11 0.1 -0.11 -0.1zm0.11 0.1l-0.11 0 0 -0.1 0.11 0.1zm0.61 0l-0.61 0 0 -0.21 0.61 0 0.1 0.11 -0.1 0.1zm0 -0.21l0.1 0 0 0.11 -0.1 -0.11zm-0.11 0.51l0 -0.4 0.21 0 0 0.4 -0.1 0.1 -0.11 -0.1zm0.21 0l0 0.1 -0.1 0 0.1 -0.1zm-0.71 -0.11l0.61 0 0 0.21 -0.61 0 -0.11 -0.1 0.11 -0.11zm-0.11 0.11l0 -0.11 0.11 0 -0.11 0.11zm0 0.31l0 -0.31 0.22 0 0 0.31 -0.11 0.11 -0.11 -0.11zm0.11 0.11l-0.11 0 0 -0.11 0.11 0.11zm0.64 0l-0.64 0 0 -0.22 0.64 0 0.11 0.11 -0.11 0.11zm0 -0.22l0.11 0 0 0.11 -0.11 -0.11zm-0.1 0.53l0 -0.42 0.21 0 0 0.42 -0.11 0.1 -0.1 -0.1zm0.21 0l0 0.1 -0.11 0 0.11 -0.1zm-1.24 -0.11l1.13 0 0 0.21 -1.13 0 -0.11 -0.1 0.11 -0.11zm0 0.21l-0.11 0 0 -0.1 0.11 0.1z"/>
   </g>
   <g>
    <path id="12" class="fil0" d="M21.28 10.49l0 1.42 -0.21 0 0 -1.42 0.11 -0.11 0.1 0.11zm-0.1 -0.11l0.1 0 0 0.11 -0.1 -0.11zm-0.42 0l0.42 0 0 0.21 -0.42 0 -0.11 -0.1 0.11 -0.11zm0 0.21l-0.11 0 0 -0.1 0.11 0.1zm0.11 -0.54l0 0.44 -0.22 0 0 -0.44 0.11 -0.11 0.11 0.11zm-0.22 0l0 -0.11 0.11 0 -0.11 0.11zm1.45 0.1l-1.34 0 0 -0.21 1.34 0 0.1 0.11 -0.1 0.1zm0 -0.21l0.1 0 0 0.11 -0.1 -0.11zm-0.11 0.55l0 -0.44 0.21 0 0 0.44 -0.1 0.1 -0.11 -0.1zm0.21 0l0 0.1 -0.1 0 0.1 -0.1zm-0.52 -0.11l0.42 0 0 0.21 -0.42 0 -0.1 -0.1 0.1 -0.11zm-0.1 0.11l0 -0.11 0.1 0 -0.1 0.11zm0 1.42l0 -1.42 0.21 0 0 1.42 -0.11 0.1 -0.1 -0.1zm0.21 0l0 0.1 -0.11 0 0.11 -0.1zm-0.61 -0.11l0.5 0 0 0.21 -0.5 0 -0.11 -0.1 0.11 -0.11zm0 0.21l-0.11 0 0 -0.1 0.11 0.1z"/>
   </g>
   <g>
    <path id="13" class="fil0" d="M22.46 10.05l0 1.86 -0.21 0 0 -1.86 0.11 -0.11 0.1 0.11zm-0.21 0l0 -0.11 0.11 0 -0.11 0.11zm0.62 0.1l-0.51 0 0 -0.21 0.51 0 0.11 0.11 -0.11 0.1zm0 -0.21l0.11 0 0 0.11 -0.11 -0.11zm-0.11 1.97l0 -1.86 0.22 0 0 1.86 -0.11 0.1 -0.11 -0.1zm0.22 0l0 0.1 -0.11 0 0.11 -0.1zm-0.62 -0.11l0.51 0 0 0.21 -0.51 0 -0.11 -0.1 0.11 -0.11zm0 0.21l-0.11 0 0 -0.1 0.11 0.1z"/>
   </g>
   <g>
    <path id="14" class="fil0" d="M24.52 10.67l0 -0.55 0.21 0 0 0.55 -0.19 0.08 -0.02 -0.08zm-0.15 -0.07l0.09 -0.19 0 0 0.01 0 0.01 0.01 0.01 0 0.01 0.01 0 0 0.01 0.01 0.01 0 0.01 0.01 0 0 0.01 0.01 0.01 0 0.01 0.01 0 0 0.01 0.01 0.01 0 0.01 0.01 0 0.01 0.01 0 0.01 0.01 0.01 0.01 0 0 0.01 0.01 0.01 0.01 0 0 0.01 0.01 0.01 0.01 0.01 0 0 0.01 0.01 0.01 0.01 0.01 0 0 0.01 0.01 -0.16 0.15 0 -0.01 -0.01 -0.01 0 0 -0.01 -0.01 -0.01 -0.01 0 0 -0.01 -0.01 0 0 -0.01 -0.01 0 0 -0.01 -0.01 -0.01 0 0 -0.01 -0.01 0 0 -0.01 -0.01 0 0 -0.01 -0.01 0 -0.01 -0.01 0 0 -0.01 0 0 -0.01 -0.01 0 0 -0.01 -0.01 0 0 0 -0.01 -0.01 0 0 -0.01 0 0 -0.01 -0.01 0 0 0 0 0zm-0.18 -0.04l0 -0.22 0 0 0.01 0 0.01 0 0.01 0 0.01 0 0.01 0.01 0.01 0 0.01 0 0 0 0.01 0 0.01 0 0.01 0 0.01 0 0.01 0 0.01 0.01 0 0 0.01 0 0.01 0 0.01 0 0.01 0.01 0.01 0 0.01 0 0 0.01 0.01 0 0.01 0 0.01 0 0.01 0.01 0 0 0.01 0 0.01 0.01 0.01 0 0.01 0.01 0 0 -0.09 0.19 -0.01 0 0 -0.01 -0.01 0 0 0 -0.01 0 -0.01 -0.01 0 0 -0.01 0 0 0 -0.01 0 0 0 -0.01 -0.01 0 0 -0.01 0 0 0 -0.01 0 0 0 -0.01 0 0 -0.01 -0.01 0 0 0 -0.01 0 0 0 -0.01 0 -0.01 0 0 0 -0.01 0 0 0 -0.01 0 0 0 -0.01 0 -0.01 0 0 0zm-0.27 0.11l-0.16 -0.14 0 0 0.01 -0.01 0.01 -0.01 0.01 -0.01 0.01 -0.02 0.02 0 0.01 -0.01 0.01 -0.01 0.01 -0.01 0.01 -0.01 0.02 -0.01 0.01 -0.01 0.01 0 0.01 -0.01 0.02 -0.01 0.01 0 0.01 -0.01 0.02 -0.01 0.01 0 0.02 -0.01 0.01 0 0.02 0 0.01 -0.01 0.02 0 0.01 -0.01 0.02 0 0.01 0 0.02 0 0.01 0 0.02 0 0.01 -0.01 0.02 0 0.01 0 0 0.22 -0.01 0 -0.01 0 -0.01 0 -0.01 0 -0.01 0 -0.01 0 -0.01 0 -0.01 0 -0.01 0.01 -0.01 0 -0.01 0 -0.01 0 -0.01 0.01 -0.01 0 0 0 -0.01 0.01 -0.01 0 -0.01 0 -0.01 0.01 0 0 -0.01 0.01 -0.01 0 -0.01 0.01 0 0 -0.01 0.01 -0.01 0 -0.01 0.01 0 0 -0.01 0.01 -0.01 0.01 0 0 -0.01 0.01 0 0zm-0.11 0.32l-0.21 0 0 0 0 -0.02 0 -0.02 0 -0.01 0 -0.02 0 -0.01 0 -0.02 0.01 -0.02 0 -0.01 0 -0.02 0 -0.01 0.01 -0.02 0 -0.01 0 -0.02 0.01 -0.01 0 -0.02 0.01 -0.01 0 -0.02 0.01 -0.01 0.01 -0.02 0 -0.01 0.01 -0.01 0 -0.02 0.01 -0.01 0.01 -0.01 0.01 -0.02 0.01 -0.01 0 -0.01 0.01 -0.02 0.01 -0.01 0.01 -0.01 0.01 -0.01 0.01 -0.01 0.16 0.14 -0.01 0.01 0 0.01 -0.01 0 -0.01 0.01 0 0.01 -0.01 0.01 0 0.01 -0.01 0 0 0.01 -0.01 0.01 0 0.01 0 0.01 -0.01 0.01 0 0.01 -0.01 0.01 0 0.01 0 0.01 -0.01 0.01 0 0.01 0 0.01 0 0.01 -0.01 0.01 0 0.01 0 0.01 0 0.01 0 0.01 0 0.01 -0.01 0.02 0 0.01 0 0.01 0 0.01 0 0.02 0 0zm0.11 0.3l-0.15 0.14 0 0 -0.01 -0.01 -0.01 -0.01 -0.01 -0.01 -0.01 -0.01 -0.01 -0.02 -0.01 -0.01 -0.01 -0.01 -0.01 -0.01 -0.01 -0.02 0 -0.01 -0.01 -0.01 -0.01 -0.02 0 -0.01 -0.01 -0.01 0 -0.02 -0.01 -0.01 -0.01 -0.02 0 -0.01 0 -0.01 -0.01 -0.02 0 -0.01 -0.01 -0.02 0 -0.01 0 -0.02 0 -0.01 -0.01 -0.02 0 -0.01 0 -0.02 0 -0.01 0 -0.02 0 -0.02 0 -0.01 0.21 0 0 0.01 0 0.01 0 0.01 0 0.01 0.01 0.01 0 0.02 0 0.01 0 0.01 0 0.01 0 0.01 0.01 0.01 0 0.01 0 0.01 0 0.01 0.01 0.01 0 0 0 0.01 0.01 0.01 0 0.01 0.01 0.01 0 0.01 0 0.01 0.01 0.01 0 0 0.01 0.01 0 0.01 0.01 0.01 0.01 0 0 0.01 0.01 0.01 0 0.01 0.01 0 0 0.01zm0.27 0.11l0 0.21 0 0 -0.01 0 -0.02 0 -0.01 0 -0.02 0 -0.01 0 -0.02 0 -0.01 -0.01 -0.02 0 -0.01 0 -0.02 -0.01 -0.01 0 -0.02 0 -0.01 -0.01 -0.01 0 -0.02 -0.01 -0.01 0 -0.02 -0.01 -0.01 -0.01 -0.01 0 -0.01 -0.01 -0.02 -0.01 -0.01 0 -0.01 -0.01 -0.01 -0.01 -0.02 -0.01 -0.01 -0.01 -0.01 -0.01 -0.01 -0.01 -0.01 -0.01 -0.01 -0.01 -0.01 -0.01 -0.01 -0.01 0.15 -0.14 0.01 0 0.01 0.01 0 0.01 0.01 0 0.01 0.01 0 0 0.01 0.01 0.01 0.01 0.01 0 0 0.01 0.01 0 0.01 0 0.01 0.01 0 0 0.01 0.01 0.01 0 0.01 0 0.01 0.01 0.01 0 0.01 0 0 0 0.01 0.01 0.01 0 0.01 0 0.01 0 0.01 0 0.01 0.01 0.01 0 0.01 0 0.01 0 0.01 0 0.01 0 0 0zm0.18 -0.04l0.09 0.19 0 0 0 0 -0.01 0 -0.01 0.01 -0.01 0 -0.01 0.01 0 0 -0.01 0 -0.01 0 -0.01 0.01 -0.01 0 0 0 -0.01 0.01 -0.01 0 -0.01 0 -0.01 0 -0.01 0.01 0 0 -0.01 0 -0.01 0 -0.01 0 -0.01 0 -0.01 0.01 -0.01 0 -0.01 0 0 0 -0.01 0 -0.01 0 -0.01 0 -0.01 0 -0.01 0 -0.01 0 -0.01 0 0 -0.21 0.01 0 0.01 0 0 0 0.01 0 0 0 0.01 0 0 0 0.01 0 0.01 0 0 -0.01 0.01 0 0 0 0.01 0 0 0 0.01 0 0 0 0.01 0 0 0 0.01 -0.01 0 0 0.01 0 0 0 0.01 0 0.01 -0.01 0 0 0.01 0 0 0 0.01 0 0 -0.01 0.01 0 0 0 0.01 0 0 0zm0.36 -0.08l-0.21 0 0.18 0.07 0 0.01 -0.01 0.01 -0.01 0.01 -0.01 0 0 0.01 -0.01 0.01 -0.01 0.01 -0.01 0 0 0.01 -0.01 0.01 -0.01 0 0 0.01 -0.01 0.01 -0.01 0 -0.01 0.01 0 0 -0.01 0.01 -0.01 0.01 -0.01 0 0 0.01 -0.01 0 -0.01 0.01 -0.01 0 0 0.01 -0.01 0 -0.01 0.01 -0.01 0 0 0.01 -0.01 0 -0.01 0.01 -0.01 0 -0.01 0.01 -0.09 -0.19 0 -0.01 0.01 0 0 0 0.01 0 0 -0.01 0.01 0 0 0 0.01 -0.01 0 0 0.01 -0.01 0 0 0.01 0 0 -0.01 0.01 0 0.01 -0.01 0 0 0.01 0 0 -0.01 0.01 0 0 -0.01 0.01 0 0 -0.01 0.01 -0.01 0.01 0 0 -0.01 0.01 0 0 -0.01 0.01 0 0.01 -0.01 0 -0.01 0.01 0 0 -0.01 0.19 0.07zm-0.21 0.55l0 -0.55 0.21 0 0 0.55 -0.06 0.1 -0.15 -0.1zm0.21 0l0 0.07 -0.06 0.03 0.06 -0.1zm-0.32 0.2l-0.05 -0.21 0 0 0 0 0.01 0 0.01 -0.01 0 0 0.01 0 0.01 0 0.01 0 0 -0.01 0.01 0 0 0 0.01 0 0.01 0 0.01 -0.01 0 0 0.01 0 0.01 0 0 -0.01 0.01 0 0.01 0 0 0 0.01 -0.01 0.01 0 0 0 0.01 -0.01 0.01 0 0 0 0.01 0 0.01 -0.01 0.01 0 0 0 0.01 -0.01 0.01 0 0.09 0.19 -0.01 0 -0.01 0.01 -0.01 0 0 0.01 -0.01 0 -0.01 0 -0.01 0.01 -0.01 0 0 0 -0.01 0.01 -0.01 0 -0.01 0 -0.01 0.01 0 0 -0.01 0 -0.01 0.01 -0.01 0 -0.01 0 -0.01 0.01 0 0 -0.01 0 -0.01 0 -0.01 0.01 -0.01 0 0 0 -0.01 0 -0.01 0.01 -0.01 0 -0.01 0 -0.01 0 0 0 -0.01 0.01 0 0zm-0.27 0.03l0 -0.21 0 0 0.01 0 0.01 0 0 -0.01 0.01 0 0.01 0 0 0 0.01 0 0.01 0 0 0 0.01 0 0.01 0 0 0 0.01 0 0.01 0 0 0 0.01 0 0.01 0 0 0 0.01 0 0.01 0 0 -0.01 0.01 0 0.01 0 0 0 0.01 0 0.01 0 0 0 0.01 0 0.01 -0.01 0 0 0.01 0 0.01 0 0.05 0.21 -0.01 0 -0.01 0 -0.01 0 0 0 -0.01 0.01 -0.01 0 -0.01 0 -0.01 0 -0.01 0 0 0 -0.01 0 -0.01 0.01 -0.01 0 -0.01 0 -0.01 0 0 0 -0.01 0 -0.01 0 -0.01 0 -0.01 0 -0.01 0 0 0.01 -0.01 0 -0.01 0 -0.01 0 -0.01 0 -0.01 0 0 0 -0.01 0 -0.01 0 -0.01 0 -0.01 0 0 0zm-0.31 -0.04l0.06 -0.21 0 0 0.01 0.01 0 0 0.01 0 0.01 0 0.01 0 0 0 0.01 0.01 0.01 0 0.01 0 0 0 0.01 0 0.01 0 0.01 0 0 0 0.01 0.01 0.01 0 0.01 0 0.01 0 0 0 0.01 0 0.01 0 0.01 0 0.01 0 0 0 0.01 0 0.01 0 0.01 0 0.01 0 0.01 0 0 0.01 0.01 0 0.01 0 0 0.21 -0.01 0 -0.01 0 -0.01 0 -0.01 0 -0.01 0 -0.01 0 -0.01 0 -0.01 0 -0.01 0 -0.01 -0.01 -0.01 0 -0.01 0 -0.01 0 -0.01 0 -0.01 0 -0.01 0 -0.01 0 -0.01 0 -0.01 -0.01 -0.01 0 -0.01 0 0 0 -0.01 0 -0.01 0 -0.01 -0.01 -0.01 0 -0.01 0 -0.01 0 -0.01 0 -0.01 -0.01 -0.01 0 -0.01 0 0 0zm-0.26 -0.13l0.11 -0.17 0.01 0 0 0 0.01 0.01 0 0 0.01 0 0 0.01 0.01 0 0.01 0 0 0.01 0.01 0 0.01 0 0 0.01 0.01 0 0 0 0.01 0.01 0.01 0 0 0 0.01 0.01 0.01 0 0 0 0.01 0 0.01 0.01 0 0 0.01 0 0.01 0.01 0 0 0.01 0 0.01 0 0 0 0.01 0.01 0.01 0 0 0 0.01 0 -0.06 0.21 -0.01 0 -0.01 -0.01 -0.01 0 0 0 -0.01 -0.01 -0.01 0 -0.01 0 -0.01 0 -0.01 -0.01 -0.01 0 0 0 -0.01 -0.01 -0.01 0 -0.01 -0.01 -0.01 0 -0.01 0 -0.01 -0.01 0 0 -0.01 -0.01 -0.01 0 -0.01 0 -0.01 -0.01 0 0 -0.01 -0.01 -0.01 0 -0.01 -0.01 -0.01 0 0 -0.01 -0.01 0 -0.01 -0.01 -0.01 0 0 -0.01 0 0zm-0.36 -0.39l0.19 -0.09 0 0 0.01 0.01 0.01 0.01 0 0.01 0.01 0.01 0.01 0.01 0 0.01 0.01 0.01 0.01 0.02 0 0.01 0.01 0.01 0.01 0.01 0.01 0.01 0.01 0.01 0 0.01 0.01 0.01 0.01 0.01 0.01 0.01 0.01 0.01 0.01 0.01 0.01 0 0.01 0.01 0.01 0.01 0.01 0.01 0.01 0.01 0.01 0.01 0.01 0.01 0.01 0.01 0.01 0.01 0.01 0 0.01 0.01 0.01 0.01 0.01 0.01 -0.11 0.17 -0.02 -0.01 -0.01 0 -0.02 -0.01 -0.01 -0.02 -0.01 -0.01 -0.02 -0.01 -0.01 -0.01 -0.01 -0.01 -0.01 -0.01 -0.02 -0.01 -0.01 -0.01 -0.01 -0.01 -0.01 -0.01 -0.01 -0.02 -0.02 -0.01 -0.01 -0.01 -0.01 -0.01 -0.01 -0.01 -0.01 -0.02 -0.01 -0.01 -0.01 -0.01 -0.01 -0.02 -0.01 -0.01 -0.01 -0.01 -0.01 -0.02 -0.01 -0.01 -0.01 -0.01 0 -0.02 -0.01 -0.01 -0.01 -0.02 -0.01 -0.01 -0.01 -0.02 0 0zm-0.12 -0.52l0.22 0 0 0 0 0.01 0 0.02 0 0.01 0 0.02 0 0.01 0 0.02 0 0.01 0 0.02 0 0.01 0.01 0.01 0 0.02 0 0.01 0 0.02 0 0.01 0.01 0.01 0 0.02 0 0.01 0.01 0.01 0 0.02 0 0.01 0.01 0.01 0 0.01 0.01 0.02 0 0.01 0.01 0.01 0 0.01 0.01 0.02 0 0.01 0.01 0.01 0 0.01 0.01 0.01 0 0.02 -0.19 0.09 0 -0.01 -0.01 -0.02 -0.01 -0.01 -0.01 -0.02 0 -0.01 -0.01 -0.02 0 -0.01 -0.01 -0.02 -0.01 -0.01 0 -0.02 -0.01 -0.02 0 -0.01 -0.01 -0.02 0 -0.01 0 -0.02 -0.01 -0.02 0 -0.01 0 -0.02 -0.01 -0.02 0 -0.01 0 -0.02 -0.01 -0.02 0 -0.01 0 -0.02 0 -0.02 0 -0.02 0 -0.01 -0.01 -0.02 0 -0.02 0 -0.02 0 -0.01 0 -0.02 0 0zm0.08 -0.43l0.2 0.08 0 0 -0.01 0.01 0 0.01 0 0.01 -0.01 0.01 0 0.01 0 0.01 -0.01 0.01 0 0.01 0 0.01 0 0.01 -0.01 0.01 0 0.01 0 0.01 0 0.01 -0.01 0.01 0 0.01 0 0.01 0 0.02 0 0.01 -0.01 0.01 0 0.01 0 0.01 0 0.01 0 0.01 0 0.01 0 0.02 0 0.01 0 0.01 0 0.01 0 0.01 0 0.02 0 0.01 -0.22 0 0 -0.02 0 -0.01 0 -0.02 0 -0.01 0 -0.01 0.01 -0.02 0 -0.01 0 -0.02 0 -0.01 0 -0.01 0 -0.02 0 -0.01 0 -0.01 0.01 -0.02 0 -0.01 0 -0.01 0 -0.02 0.01 -0.01 0 -0.01 0 -0.02 0.01 -0.01 0 -0.01 0 -0.02 0.01 -0.01 0 -0.01 0 -0.01 0.01 -0.02 0 -0.01 0.01 -0.01 0 -0.01 0 -0.02 0.01 -0.01 0 0zm0.23 -0.35l0.15 0.15 0 0 0 0.01 -0.01 0 -0.01 0.01 -0.01 0.01 0 0.01 -0.01 0.01 -0.01 0.01 -0.01 0 0 0.01 -0.01 0.01 -0.01 0.01 0 0.01 -0.01 0.01 0 0.01 -0.01 0 -0.01 0.01 0 0.01 -0.01 0.01 0 0.01 -0.01 0.01 0 0.01 -0.01 0.01 0 0.01 -0.01 0 0 0.01 -0.01 0.01 0 0.01 -0.01 0.01 0 0.01 0 0.01 -0.01 0.01 0 0.01 -0.2 -0.08 0 -0.01 0.01 -0.01 0 -0.01 0.01 -0.02 0.01 -0.01 0 -0.01 0.01 -0.01 0 -0.01 0.01 -0.02 0.01 -0.01 0 -0.01 0.01 -0.01 0 -0.01 0.01 -0.01 0.01 -0.01 0.01 -0.01 0 -0.02 0.01 -0.01 0.01 -0.01 0.01 -0.01 0 -0.01 0.01 -0.01 0.01 -0.01 0.01 -0.01 0.01 -0.01 0.01 -0.01 0 -0.01 0.01 -0.01 0.01 -0.01 0.01 -0.01 0.01 -0.01 0.01 -0.01 0 0zm0.33 -0.23l0.08 0.2 0 0 0 0 -0.01 0.01 -0.01 0 -0.01 0.01 -0.01 0 -0.01 0 -0.01 0.01 -0.01 0 0 0.01 -0.01 0 -0.01 0.01 -0.01 0 -0.01 0.01 -0.01 0 0 0.01 -0.01 0 -0.01 0.01 -0.01 0 -0.01 0.01 0 0.01 -0.01 0 -0.01 0.01 -0.01 0.01 -0.01 0 0 0.01 -0.01 0.01 -0.01 0 -0.01 0.01 0 0.01 -0.01 0 -0.01 0.01 -0.01 0.01 -0.15 -0.15 0.01 -0.01 0.01 -0.01 0.01 -0.01 0.01 -0.01 0.01 -0.01 0.01 0 0.01 -0.01 0.01 -0.01 0.01 -0.01 0.01 -0.01 0.01 -0.01 0.01 0 0.01 -0.01 0.01 -0.01 0.01 -0.01 0.01 0 0.01 -0.01 0.01 -0.01 0.01 0 0.01 -0.01 0.01 -0.01 0.01 0 0.01 -0.01 0.01 -0.01 0.01 0 0.01 -0.01 0.02 0 0.01 -0.01 0.01 0 0.01 -0.01 0.01 0 0.01 -0.01 0 0zm0.41 -0.07l0 0.21 0 0 -0.01 0 -0.01 0 -0.01 0 -0.01 0 -0.01 0 -0.02 0 -0.01 0 -0.01 0 -0.01 0.01 -0.01 0 -0.01 0 -0.01 0 -0.01 0 -0.01 0 -0.01 0 -0.01 0.01 -0.01 0 -0.01 0 -0.01 0 -0.01 0 -0.01 0.01 -0.01 0 -0.01 0 -0.01 0 -0.01 0.01 -0.01 0 -0.01 0 -0.01 0.01 -0.01 0 -0.01 0 -0.01 0.01 -0.01 0 -0.08 -0.2 0.02 0 0.01 -0.01 0.01 0 0.01 -0.01 0.01 0 0.02 0 0.01 -0.01 0.01 0 0.01 0 0.01 -0.01 0.02 0 0.01 0 0.01 -0.01 0.01 0 0.02 0 0.01 0 0.01 -0.01 0.02 0 0.01 0 0.01 0 0.01 0 0.02 -0.01 0.01 0 0.01 0 0.02 0 0.01 0 0.01 0 0.02 0 0.01 0 0.01 0 0.02 0 0.01 0 0 0zm0.27 0.03l-0.05 0.21 0 0 -0.01 -0.01 -0.01 0 0 0 -0.01 0 -0.01 0 0 0 -0.01 0 -0.01 0 0 -0.01 -0.01 0 -0.01 0 0 0 -0.01 0 -0.01 0 0 0 -0.01 0 -0.01 0 0 0 -0.01 -0.01 -0.01 0 0 0 -0.01 0 -0.01 0 0 0 -0.01 0 -0.01 0 0 0 -0.01 0 -0.01 0 0 0 -0.01 0 -0.01 0 0 -0.21 0.01 0 0.01 0 0.01 0 0.01 0 0 0 0.01 0 0.01 0 0.01 0 0.01 0 0.01 0 0 0 0.01 0 0.01 0 0.01 0 0.01 0 0.01 0.01 0 0 0.01 0 0.01 0 0.01 0 0.01 0 0.01 0 0 0 0.01 0.01 0.01 0 0.01 0 0.01 0 0.01 0 0 0 0.01 0.01 0.01 0 0.01 0 0 0zm0.32 0.19l-0.21 0 0.06 0.1 -0.01 -0.01 -0.01 0 0 0 -0.01 -0.01 -0.01 0 -0.01 0 0 -0.01 -0.01 0 -0.01 0 0 0 -0.01 -0.01 -0.01 0 0 0 -0.01 -0.01 -0.01 0 0 0 -0.01 0 -0.01 -0.01 0 0 -0.01 0 -0.01 0 -0.01 0 0 -0.01 -0.01 0 0 0 -0.01 0 -0.01 0 -0.01 -0.01 0 0 -0.01 0 -0.01 0 0 0 0.05 -0.21 0.01 0 0 0 0.01 0.01 0.01 0 0.01 0 0.01 0 0.01 0 0 0.01 0.01 0 0.01 0 0.01 0 0.01 0.01 0 0 0.01 0 0.01 0.01 0.01 0 0.01 0 0.01 0.01 0 0 0.01 0 0.01 0 0.01 0.01 0.01 0 0 0.01 0.01 0 0.01 0 0.01 0.01 0.01 0 0 0 0.01 0.01 0.01 0 0.01 0 0.06 0.1zm-0.06 -0.1l0.06 0.03 0 0.07 -0.06 -0.1z"/>
   </g>
   <g>
    <path id="15" class="fil0" d="M25.27 11.4l-0.11 0.19 0 0 -0.01 -0.01 -0.01 0 0 -0.01 -0.01 0 -0.01 -0.01 -0.01 0 -0.01 -0.01 0 0 -0.01 -0.01 -0.01 0 -0.01 -0.01 -0.01 -0.01 0 0 -0.01 -0.01 -0.01 -0.01 -0.01 0 0 -0.01 -0.01 -0.01 -0.01 0 -0.01 -0.01 -0.01 -0.01 0 0 -0.01 -0.01 -0.01 -0.01 -0.01 -0.01 0 -0.01 -0.01 0 -0.01 -0.01 -0.01 -0.01 0 -0.01 -0.01 -0.01 -0.01 0 0.16 -0.15 0.01 0.01 0 0.01 0.01 0.01 0.01 0 0 0.01 0.01 0.01 0.01 0 0 0.01 0.01 0.01 0.01 0 0 0.01 0.01 0 0 0.01 0.01 0.01 0.01 0 0 0.01 0.01 0 0.01 0.01 0 0 0.01 0.01 0 0 0.01 0.01 0.01 0 0 0 0.01 0.01 0 0 0.01 0.01 0 0 0.01 0 0.01 0.01 0 0 0.01 0 0 0zm0.16 0.05l0 0.22 0 0 -0.01 0 -0.01 0 0 0 -0.01 0 -0.01 -0.01 -0.01 0 -0.01 0 -0.01 0 -0.01 0 0 0 -0.01 0 -0.01 0 -0.01 -0.01 -0.01 0 -0.01 0 -0.01 0 -0.01 -0.01 0 0 -0.01 0 -0.01 0 -0.01 -0.01 -0.01 0 -0.01 0 0 -0.01 -0.01 0 -0.01 -0.01 -0.01 0 -0.01 0 -0.01 -0.01 0 0 -0.01 -0.01 -0.01 0 0.11 -0.19 0 0.01 0.01 0 0 0 0.01 0.01 0 0 0.01 0 0.01 0 0 0.01 0.01 0 0 0 0.01 0 0 0 0.01 0.01 0 0 0.01 0 0 0 0.01 0 0 0 0.01 0.01 0 0 0.01 0 0 0 0.01 0 0 0 0.01 0 0 0 0.01 0 0 0 0.01 0 0 0 0.01 0 0 0 0 0zm0.1 -0.03l0.14 0.17 0 0 -0.01 0 -0.01 0.01 0 0 -0.01 0.01 0 0 -0.01 0 -0.01 0.01 0 0 -0.01 0.01 -0.01 0 -0.01 0 0 0.01 -0.01 0 -0.01 0 -0.01 0 0 0.01 -0.01 0 -0.01 0 -0.01 0 0 0.01 -0.01 0 -0.01 0 -0.01 0 0 0 -0.01 0 -0.01 0 -0.01 0 -0.01 0.01 0 0 -0.01 0 -0.01 0 -0.01 0 0 -0.22 0.01 0 0 0 0.01 0 0 0 0 0 0.01 0 0 0 0 0 0.01 0 0 0 0.01 0 0 0 0 0 0.01 0 0 0 0 -0.01 0 0 0.01 0 0 0 0 0 0 0 0.01 0 0 0 0 0 0 -0.01 0.01 0 0 0 0 0 0 0 0.01 0 0 0 0 -0.01 0 0zm0.03 -0.05l0.21 0 0 0 0 0 0 0.01 0 0.01 0 0.01 0 0.01 0 0 0 0.01 -0.01 0.01 0 0.01 0 0 0 0.01 0 0.01 -0.01 0.01 0 0 0 0.01 -0.01 0.01 0 0.01 0 0 -0.01 0.01 0 0.01 -0.01 0 0 0.01 0 0.01 -0.01 0 0 0.01 -0.01 0 0 0.01 -0.01 0.01 -0.01 0 0 0.01 -0.01 0 0 0.01 -0.14 -0.17 0 0 0.01 0 0 0 0 0 0 -0.01 0 0 0 0 0 0 0.01 0 0 0 0 -0.01 0 0 0 0 0 0 0 0 0 0 0 0 0 0 0 -0.01 0 0 0 0 0 0 0.01 0 0 -0.01 0 0 0 0 0 0 0 0 0 -0.01 0 0 0 0 0 0 0 0zm-0.02 -0.07l0.14 -0.16 0 0 0 0.01 0.01 0.01 0.01 0 0 0.01 0.01 0 0 0.01 0.01 0.01 0 0 0 0.01 0.01 0 0 0.01 0.01 0.01 0 0 0 0.01 0.01 0.01 0 0.01 0 0 0 0.01 0.01 0.01 0 0.01 0 0 0 0.01 0 0.01 0.01 0.01 0 0 0 0.01 0 0.01 0 0.01 0 0 0 0.01 0 0.01 0 0.01 -0.21 0 0 -0.01 0 0 0 0 0 -0.01 0 0 0 0 0 -0.01 0 0 -0.01 0 0 0 0 -0.01 0 0 0 0 0 0 0 0 0 -0.01 0 0 0 0 0 0 0 0 0 0 0 0 0 -0.01 0 0 -0.01 0 0 0 0 0 0 0 0 0 0 0 0 0 0 -0.01 0 0zm-0.21 -0.08l0.05 -0.2 0 0 0.01 0 0.02 0 0.01 0.01 0.01 0 0.01 0.01 0.01 0 0.02 0 0.01 0.01 0.01 0 0.01 0 0.01 0.01 0.01 0 0.01 0 0.01 0.01 0.01 0 0.01 0 0 0.01 0.01 0 0.01 0.01 0.01 0 0.01 0 0.01 0.01 0 0 0.01 0.01 0.01 0 0.01 0 0 0.01 0.01 0 0.01 0.01 0.01 0 0 0.01 0.01 0 -0.14 0.16 0 0 0 0 -0.01 0 0 0 0 0 0 0 -0.01 -0.01 0 0 -0.01 0 0 0 0 0 -0.01 -0.01 -0.01 0 0 0 -0.01 0 0 -0.01 -0.01 0 -0.01 0 -0.01 -0.01 0 0 -0.01 0 -0.01 0 -0.01 -0.01 -0.01 0 -0.01 0 -0.01 -0.01 -0.01 0 -0.01 0 -0.01 -0.01 -0.01 0 -0.01 0 -0.01 -0.01 0 0zm-0.44 -0.22l0.15 -0.14 0 0 0.01 0 0 0.01 0.01 0 0.01 0.01 0 0 0.01 0.01 0.01 0 0 0.01 0.01 0 0.01 0.01 0.01 0 0.01 0.01 0.01 0 0.01 0.01 0.01 0.01 0.01 0 0.01 0.01 0.01 0 0.01 0.01 0.01 0 0.01 0.01 0.02 0 0.01 0.01 0.01 0 0.02 0.01 0.01 0 0.01 0.01 0.02 0 0.01 0 0.02 0.01 0.01 0 0.02 0.01 -0.05 0.2 -0.02 0 -0.02 -0.01 -0.02 0 -0.01 -0.01 -0.02 0 -0.02 -0.01 -0.01 0 -0.02 -0.01 -0.02 0 -0.01 -0.01 -0.02 -0.01 -0.01 0 -0.02 -0.01 -0.01 0 -0.01 -0.01 -0.02 -0.01 -0.01 0 -0.01 -0.01 -0.02 -0.01 -0.01 -0.01 -0.01 0 -0.01 -0.01 -0.02 -0.01 -0.01 -0.01 -0.01 0 -0.01 -0.01 -0.01 -0.01 -0.01 -0.01 -0.01 -0.01 -0.01 -0.01 -0.01 -0.01 -0.01 -0.01 0 0zm-0.14 -0.39l0.21 0 0 0 0 0.01 0 0.01 0 0.01 0 0.01 0 0.01 0 0.01 0.01 0.01 0 0.01 0 0.01 0 0.01 0 0 0 0.01 0.01 0.01 0 0.01 0 0.01 0 0 0.01 0.01 0 0.01 0 0.01 0 0 0.01 0.01 0 0.01 0 0 0.01 0.01 0 0.01 0.01 0 0 0.01 0 0 0.01 0.01 0 0.01 0.01 0 0 0.01 -0.15 0.14 -0.01 -0.01 -0.01 -0.01 -0.01 -0.01 0 -0.01 -0.01 -0.01 -0.01 -0.01 -0.01 -0.01 0 -0.01 -0.01 -0.01 -0.01 -0.01 0 -0.01 -0.01 -0.02 0 -0.01 -0.01 -0.01 0 -0.01 -0.01 -0.02 0 -0.01 -0.01 -0.01 0 -0.01 0 -0.02 -0.01 -0.01 0 -0.01 0 -0.02 0 -0.01 -0.01 -0.01 0 -0.02 0 -0.01 0 -0.02 0 -0.01 0 -0.01 0 -0.02 0 -0.01 0 0zm0.21 -0.52l0.15 0.16 0 0 -0.01 0.01 -0.01 0.01 -0.01 0.01 -0.01 0.01 -0.01 0 0 0.01 -0.01 0.01 -0.01 0.01 -0.01 0.01 0 0.01 -0.01 0.01 0 0.01 -0.01 0.01 0 0.01 -0.01 0.01 0 0.01 -0.01 0.02 0 0.01 -0.01 0.01 0 0.01 0 0.01 0 0.01 -0.01 0.02 0 0.01 0 0.01 0 0.01 -0.01 0.02 0 0.01 0 0.01 0 0.02 0 0.01 0 0.02 -0.21 0 0 -0.02 0 -0.02 0 -0.02 0 -0.02 0 -0.02 0 -0.01 0.01 -0.02 0 -0.02 0 -0.02 0.01 -0.02 0 -0.01 0.01 -0.02 0 -0.02 0.01 -0.01 0 -0.02 0.01 -0.02 0.01 -0.01 0 -0.02 0.01 -0.01 0.01 -0.02 0.01 -0.01 0.01 -0.02 0.01 -0.01 0.01 -0.02 0.01 -0.01 0.01 -0.02 0.01 -0.01 0.01 -0.01 0.01 -0.02 0.01 -0.01 0.02 -0.01 0.01 -0.02 0 0zm0.53 -0.19l0 0.21 0 0 -0.01 0 -0.02 0 -0.01 0 -0.02 0 -0.01 0 -0.02 0.01 -0.01 0 -0.01 0 -0.02 0 -0.01 0 -0.01 0.01 -0.02 0 -0.01 0 -0.01 0.01 -0.01 0 -0.02 0.01 -0.01 0 -0.01 0.01 -0.01 0 -0.01 0.01 -0.01 0 -0.01 0.01 -0.02 0 -0.01 0.01 -0.01 0.01 -0.01 0 -0.01 0.01 -0.01 0.01 -0.01 0 -0.01 0.01 -0.01 0.01 0 0.01 -0.15 -0.16 0.01 -0.01 0.02 -0.01 0.01 -0.01 0.01 -0.01 0.02 -0.01 0.01 -0.01 0.02 -0.01 0.01 -0.01 0.02 -0.01 0.01 -0.01 0.02 -0.01 0.01 -0.01 0.02 0 0.02 -0.01 0.01 -0.01 0.02 0 0.02 -0.01 0.01 -0.01 0.02 0 0.02 -0.01 0.02 0 0.02 0 0.01 -0.01 0.02 0 0.02 0 0.02 -0.01 0.02 0 0.02 0 0.02 0 0.02 0 0.01 0 0.02 0 0 0zm0.33 0.04l-0.07 0.21 0.01 0 -0.01 -0.01 -0.01 0 -0.01 0 -0.01 0 0 0 -0.01 -0.01 -0.01 0 -0.01 0 0 0 -0.01 0 -0.01 0 -0.01 -0.01 -0.01 0 0 0 -0.01 0 -0.01 0 -0.01 0 -0.01 0 -0.01 0 0 0 -0.01 -0.01 -0.01 0 -0.01 0 -0.01 0 -0.01 0 0 0 -0.01 0 -0.01 0 -0.01 0 -0.01 0 -0.01 0 -0.01 0 0 -0.21 0.01 0 0.02 0 0.01 0 0.01 0 0.01 0 0.01 0 0.01 0 0.01 0 0.01 0 0.01 0 0.01 0 0.01 0 0.01 0 0.01 0.01 0.01 0 0.01 0 0.01 0 0.01 0 0.01 0 0.01 0 0.01 0.01 0.01 0 0.01 0 0.01 0 0.01 0 0.01 0.01 0.01 0 0.01 0 0.01 0 0.01 0.01 0.01 0 0.01 0 0 0zm0.32 0.27l-0.19 -0.08 0.04 0.13 -0.01 -0.01 -0.01 0 0 -0.01 -0.01 0 -0.01 0 0 -0.01 -0.01 0 -0.01 -0.01 -0.01 0 0 0 -0.01 -0.01 -0.01 0 0 -0.01 -0.01 0 -0.01 0 -0.01 -0.01 0 0 -0.01 0 -0.01 -0.01 -0.01 0 0 0 -0.01 -0.01 -0.01 0 0 0 -0.01 -0.01 -0.01 0 -0.01 0 0 0 -0.01 -0.01 -0.01 0 -0.01 0 -0.01 0 0.07 -0.21 0.01 0.01 0.01 0 0 0 0.01 0 0.01 0.01 0.01 0 0.01 0.01 0.01 0 0.01 0 0.01 0.01 0.01 0 0.01 0 0.01 0.01 0.01 0 0.01 0.01 0.01 0 0 0.01 0.01 0 0.01 0 0.01 0.01 0.01 0 0.01 0.01 0.01 0 0.01 0.01 0.01 0 0.01 0.01 0 0 0.01 0.01 0.01 0 0.01 0.01 0.01 0.01 0.01 0 0.03 0.13zm-0.03 -0.13l0.07 0.05 -0.04 0.08 -0.03 -0.13zm-0.32 0.41l0.16 -0.36 0.19 0.08 -0.15 0.37 -0.17 0.03 -0.03 -0.12zm0.2 0.09l-0.06 0.13 -0.11 -0.1 0.17 -0.03zm-0.32 -0.06l0.08 -0.2 0 0 0.01 0.01 0.01 0 0 0 0.01 0.01 0.01 0 0 0 0.01 0.01 0.01 0 0 0 0.01 0.01 0 0 0.01 0 0.01 0.01 0 0 0.01 0 0.01 0.01 0 0 0.01 0.01 0.01 0 0 0.01 0.01 0 0.01 0 0 0.01 0.01 0 0 0.01 0.01 0 0.01 0.01 0 0 0.01 0.01 0 0 0.01 0.01 0.01 0 -0.14 0.16 -0.01 0 0 0 -0.01 -0.01 0 0 0 0 -0.01 -0.01 0 0 -0.01 0 0 -0.01 -0.01 0 0 -0.01 -0.01 0 0 0 -0.01 0 0 -0.01 -0.01 0 0 0 -0.01 -0.01 0 0 0 0 -0.01 0 0 -0.01 -0.01 0 0 0 -0.01 0 0 -0.01 -0.01 0 0 0 -0.01 0 0 0 -0.01 -0.01 0 0 0 0zm-0.14 -0.03l0 -0.21 0 0 0.01 0 0.01 0 0 0 0.01 0 0.01 0 0 0 0.01 0 0.01 0 0 0 0.01 0 0.01 0 0.01 0.01 0 0 0.01 0 0.01 0 0 0 0.01 0 0.01 0 0 0.01 0.01 0 0.01 0 0 0 0.01 0 0.01 0 0 0.01 0.01 0 0.01 0 0 0 0.01 0.01 0.01 0 0 0 0.01 0 -0.08 0.2 0 0 -0.01 0 0 0 -0.01 -0.01 0 0 -0.01 0 0 0 -0.01 0 0 0 0 0 -0.01 -0.01 0 0 -0.01 0 0 0 -0.01 0 0 0 -0.01 0 0 0 0 0 -0.01 0 0 0 -0.01 0 0 -0.01 0 0 -0.01 0 0 0 -0.01 0 0 0 -0.01 0 0 0 0 0 -0.01 0 0 0zm-0.08 0.02l-0.13 -0.17 0 0 0 0 0.01 0 0.01 -0.01 0 0 0.01 -0.01 0 0 0.01 0 0.01 -0.01 0 0 0.01 0 0.01 0 0 -0.01 0.01 0 0.01 0 0 0 0.01 -0.01 0.01 0 0 0 0.01 0 0.01 0 0 0 0.01 -0.01 0.01 0 0 0 0.01 0 0.01 0 0.01 0 0 0 0.01 0 0.01 0 0 0 0.01 0 0 0.21 0 0 -0.01 0 0 0 0 0 -0.01 0 0 0 0 0 -0.01 0 0 0 0 0.01 -0.01 0 0 0 0 0 -0.01 0 0 0 0 0 0 0 -0.01 0 0 0 0 0 0 0 0 0 -0.01 0 0 0.01 0 0 0 0 0 0 0 0 -0.01 0 0 0 0 0 0 0 0 0zm-0.02 0.03l-0.21 0 0 0 0 -0.01 0 0 0 -0.01 0 -0.01 0 0 0 -0.01 0 -0.01 0.01 0 0 -0.01 0 -0.01 0 -0.01 0 0 0.01 -0.01 0 -0.01 0 0 0.01 -0.01 0 -0.01 0 0 0.01 -0.01 0 0 0 -0.01 0.01 -0.01 0 0 0.01 -0.01 0 0 0.01 -0.01 0 0 0.01 -0.01 0 0 0.01 -0.01 0 0 0.01 -0.01 0.13 0.17 0 0.01 0 0 -0.01 0 0 0 0 0 0 0 0 0 0 0 0 0 0 0 0 0 0 0.01 0 0 0 0 0 0 0 0 0 0 0 0 0 0 -0.01 0 0 0 0 0 0 0 0 0 0 0 0 0 0 0.01 0 0 0 0 0 0 0 0 0 0 0 0zm0.01 0.03l-0.13 0.17 0 -0.01 -0.01 0 0 0 -0.01 -0.01 0 0 -0.01 -0.01 0 0 -0.01 -0.01 0 -0.01 0 0 -0.01 -0.01 0 0 -0.01 -0.01 0 0 0 -0.01 -0.01 -0.01 0 0 0 -0.01 0 0 -0.01 -0.01 0 -0.01 0 0 0 -0.01 0 -0.01 -0.01 0 0 -0.01 0 -0.01 0 0 0 -0.01 0 -0.01 0 -0.01 0 0 0 -0.01 0.21 0 0 0 0 0.01 0 0 0 0 0 0 0 0 0 0 0 0 0 0.01 0 0 0.01 0 0 0 0 0 0 0 0 0 0 0 0 0 0 0 0 0 0 0 0 0 0 0 0 0 0 0.01 0 0 0 0 0 0 0 0 0 0 0 0 0 0 0.01 0 -0.01 0zm0.16 0.06l-0.06 0.21 0 0 -0.01 -0.01 -0.01 0 -0.01 0 0 0 -0.01 -0.01 -0.01 0 -0.01 0 -0.01 0 -0.01 -0.01 -0.01 0 0 0 -0.01 -0.01 -0.01 0 -0.01 0 0 0 -0.01 -0.01 -0.01 0 -0.01 0 0 -0.01 -0.01 0 -0.01 0 0 -0.01 -0.01 0 0 0 -0.01 -0.01 -0.01 0 0 0 -0.01 -0.01 -0.01 0 0 -0.01 -0.01 0 0 0 0.13 -0.17 0 0 0.01 0 0 0 0 0 0 0.01 0 0 0.01 0 0 0 0 0 0.01 0 0 0.01 0 0 0.01 0 0 0 0.01 0 0 0.01 0.01 0 0 0 0.01 0 0 0 0.01 0.01 0 0 0.01 0 0.01 0 0 0 0.01 0.01 0.01 0 0 0 0.01 0 0.01 0.01 0.01 0 0.01 0 0 0zm-0.04 0.21l-0.02 0 0.06 -0.21 0.02 0.01 -0.06 0.2 0 0zm0.52 0.01l-0.16 0.15 0 0 0 -0.01 0 0 -0.01 0 0 -0.01 -0.01 0 -0.01 -0.01 0 0 -0.01 -0.01 -0.01 0 -0.01 -0.01 0 0 -0.01 -0.01 -0.01 0 -0.01 -0.01 -0.01 0 -0.01 -0.01 -0.02 0 -0.01 -0.01 -0.01 0 -0.01 -0.01 -0.02 0 -0.01 -0.01 -0.02 0 -0.01 -0.01 -0.02 0 -0.01 -0.01 -0.02 0 -0.01 -0.01 -0.02 0 -0.02 -0.01 -0.02 0 -0.02 -0.01 0.06 -0.2 0.02 0 0.02 0.01 0.02 0 0.02 0.01 0.02 0 0.01 0.01 0.02 0.01 0.02 0 0.02 0.01 0.01 0 0.02 0.01 0.01 0.01 0.02 0 0.01 0.01 0.02 0 0.01 0.01 0.02 0.01 0.01 0 0.01 0.01 0.02 0.01 0.01 0 0.01 0.01 0.01 0.01 0.02 0 0.01 0.01 0.01 0.01 0.01 0.01 0.01 0 0.01 0.01 0.01 0.01 0.01 0.01 0.01 0.01 0 0zm0.12 0.2l-0.2 0.07 0 0 0 0 0 -0.01 -0.01 0 0 0 0 -0.01 0 0 0 -0.01 -0.01 0 0 -0.01 0 0 0 -0.01 0 0 -0.01 0 0 -0.01 0 0 0 -0.01 -0.01 0 0 0 0 -0.01 0 0 -0.01 0 0 -0.01 0 0 0 -0.01 -0.01 0 0 0 0 -0.01 -0.01 0 0 0 0 -0.01 0 0 -0.01 0 0.16 -0.15 0 0 0.01 0.01 0 0 0.01 0.01 0 0.01 0.01 0 0 0.01 0.01 0 0 0.01 0 0.01 0.01 0 0 0.01 0.01 0 0 0.01 0.01 0.01 0 0 0 0.01 0.01 0.01 0 0 0 0.01 0.01 0.01 0 0 0 0.01 0.01 0.01 0 0 0 0.01 0.01 0.01 0 0 0 0.01 0.01 0.01 0 0 0 0.01 0 0zm0.04 0.25l-0.21 0 0 0 0 -0.01 0 0 0 -0.01 0 -0.01 0 0 0 -0.01 0 0 0 -0.01 0 0 -0.01 -0.01 0 -0.01 0 0 0 -0.01 0 0 0 -0.01 0 0 0 -0.01 0 -0.01 0 0 0 -0.01 0 0 -0.01 -0.01 0 0 0 -0.01 0 0 0 -0.01 0 0 0 -0.01 -0.01 0 0 -0.01 0 0 0 -0.01 0.2 -0.07 0 0.01 0.01 0.01 0 0 0 0.01 0 0.01 0 0.01 0.01 0 0 0.01 0 0.01 0 0.01 0 0 0.01 0.01 0 0.01 0 0.01 0 0 0 0.01 0 0.01 0 0.01 0 0 0.01 0.01 0 0.01 0 0.01 0 0.01 0 0 0 0.01 0 0.01 0 0.01 0 0.01 0 0.01 0 0 0 0.01 0 0.01 0 0zm-0.23 0.55l-0.14 -0.15 0 0 0.01 -0.01 0.01 -0.01 0.01 -0.01 0.01 -0.01 0 -0.01 0.01 -0.01 0.01 -0.01 0.01 -0.01 0 -0.01 0.01 -0.01 0.01 -0.02 0 -0.01 0.01 -0.01 0.01 -0.01 0 -0.01 0.01 -0.01 0 -0.02 0.01 -0.01 0 -0.01 0 -0.01 0.01 -0.02 0 -0.01 0 -0.01 0.01 -0.02 0 -0.01 0 -0.02 0 -0.01 0 -0.02 0.01 -0.01 0 -0.02 0 -0.01 0 -0.02 0.21 0 0 0.02 0 0.02 0 0.02 0 0.02 0 0.02 -0.01 0.02 0 0.02 0 0.02 -0.01 0.02 0 0.02 -0.01 0.02 0 0.01 -0.01 0.02 0 0.02 -0.01 0.02 -0.01 0.02 0 0.01 -0.01 0.02 -0.01 0.02 -0.01 0.01 -0.01 0.02 -0.01 0.02 -0.01 0.01 -0.01 0.02 -0.01 0.01 -0.01 0.02 -0.01 0.01 -0.01 0.02 -0.02 0.01 -0.01 0.02 -0.01 0.01 -0.02 0.01 0 0zm-0.59 0.21l0 -0.21 0 0 0.02 0 0.02 0 0.02 0 0.01 0 0.02 -0.01 0.02 0 0.01 0 0.02 0 0.02 0 0.01 -0.01 0.02 0 0.01 0 0.02 -0.01 0.01 0 0.01 -0.01 0.02 0 0.01 -0.01 0.02 0 0.01 -0.01 0.01 0 0.01 -0.01 0.02 0 0.01 -0.01 0.01 -0.01 0.01 -0.01 0.01 0 0.01 -0.01 0.02 -0.01 0.01 -0.01 0.01 -0.01 0.01 0 0.01 -0.01 0.14 0.15 -0.01 0.02 -0.02 0.01 -0.01 0.01 -0.02 0.01 -0.01 0.01 -0.02 0.01 -0.01 0.02 -0.02 0.01 -0.02 0 -0.01 0.01 -0.02 0.01 -0.02 0.01 -0.02 0.01 -0.01 0.01 -0.02 0 -0.02 0.01 -0.02 0.01 -0.02 0 -0.02 0.01 -0.02 0 -0.02 0.01 -0.02 0 -0.02 0.01 -0.02 0 -0.02 0 -0.02 0 -0.02 0.01 -0.02 0 -0.02 0 -0.02 0 -0.03 0 -0.02 0 0 0zm-0.39 -0.07l0.08 -0.2 0 0 0.01 0 0.01 0.01 0.01 0 0 0 0.01 0.01 0.01 0 0.01 0 0.01 0 0.01 0.01 0.01 0 0.01 0 0.01 0 0.01 0.01 0.01 0 0.01 0 0.01 0 0.01 0 0.01 0.01 0.01 0 0.01 0 0.01 0 0.01 0 0.01 0 0.01 0 0.01 0 0.01 0.01 0.01 0 0.01 0 0.01 0 0.01 0 0.01 0 0.01 0 0 0.21 -0.01 0 -0.01 0 -0.02 0 -0.01 0 -0.01 0 -0.02 0 -0.01 0 -0.01 0 -0.01 0 -0.02 -0.01 -0.01 0 -0.01 0 -0.02 0 -0.01 0 -0.01 0 -0.01 -0.01 -0.01 0 -0.02 0 -0.01 0 -0.01 -0.01 -0.01 0 -0.02 0 -0.01 -0.01 -0.01 0 -0.01 0 -0.01 -0.01 -0.01 0 -0.02 -0.01 -0.01 0 -0.01 0 -0.01 -0.01 -0.01 0 0 0zm-0.36 -0.36l0.18 0.11 -0.01 -0.14 0.01 0.01 0 0.01 0.01 0.01 0.01 0.01 0.01 0 0.01 0.01 0.01 0.01 0 0 0.01 0.01 0.01 0.01 0.01 0 0.01 0.01 0.01 0.01 0.01 0 0 0.01 0.01 0.01 0.01 0 0.01 0.01 0.01 0 0.01 0.01 0.01 0 0 0.01 0.01 0 0.01 0.01 0.01 0 0.01 0.01 0.01 0 0.01 0 0 0.01 0.01 0 0.01 0.01 0.01 0 -0.08 0.2 -0.01 -0.01 -0.01 0 -0.02 -0.01 -0.01 0 -0.01 -0.01 -0.01 0 -0.01 -0.01 -0.01 -0.01 -0.01 0 -0.01 -0.01 -0.01 0 -0.01 -0.01 -0.02 -0.01 -0.01 0 -0.01 -0.01 -0.01 -0.01 -0.01 0 -0.01 -0.01 -0.01 -0.01 -0.01 -0.01 -0.01 -0.01 -0.01 0 -0.01 -0.01 -0.01 -0.01 -0.01 -0.01 -0.01 -0.01 -0.01 -0.01 -0.01 0 -0.01 -0.01 -0.01 -0.01 -0.01 -0.01 -0.01 -0.01 -0.02 -0.13zm0.02 0.13l-0.06 -0.06 0.04 -0.07 0.02 0.13zm0.39 -0.4l-0.23 0.38 -0.18 -0.11 0.23 -0.38 0.17 -0.02 0.01 0.13zm-0.18 -0.11l0.07 -0.12 0.1 0.1 -0.17 0.02z"/>
   </g>
   <path id="16" class="fil1" d="M1.53 10.12l0 0.55c-0.07,-0.07 -0.14,-0.13 -0.21,-0.17 -0.07,-0.03 -0.14,-0.05 -0.22,-0.05 -0.14,0 -0.26,0.05 -0.35,0.15 -0.09,0.1 -0.14,0.23 -0.14,0.39 0,0.15 0.05,0.27 0.14,0.37 0.09,0.1 0.21,0.15 0.35,0.15 0.08,0 0.15,-0.02 0.22,-0.06 0.07,-0.03 0.14,-0.09 0.21,-0.17l0 0.55c-0.08,0.04 -0.16,0.07 -0.24,0.09 -0.08,0.02 -0.16,0.03 -0.24,0.03 -0.1,0 -0.2,-0.01 -0.28,-0.03 -0.09,-0.03 -0.17,-0.07 -0.24,-0.11 -0.14,-0.1 -0.24,-0.21 -0.31,-0.36 -0.08,-0.14 -0.11,-0.3 -0.11,-0.47 0,-0.14 0.02,-0.27 0.07,-0.39 0.04,-0.12 0.11,-0.22 0.2,-0.32 0.09,-0.09 0.19,-0.15 0.3,-0.2 0.11,-0.04 0.23,-0.07 0.37,-0.07 0.08,0 0.16,0.01 0.24,0.03 0.08,0.02 0.16,0.05 0.24,0.09z"/>
   <polygon id="17" class="fil1" points="1.82,11.91 1.82,10.05 2.32,10.05 2.32,10.77 3,10.77 3,10.05 3.5,10.05 3.5,11.91 3,11.91 3,11.15 2.32,11.15 2.32,11.91 "/>
   <polygon id="18" class="fil1" points="3.9,11.91 3.9,10.05 5.04,10.05 5.04,10.46 4.39,10.46 4.39,10.78 5,10.78 5,11.18 4.39,11.18 4.39,11.49 5.04,11.49 5.04,11.91 "/>
   <path id="19" class="fil1" d="M7.5 11.91l-0.47 0 -0.11 -0.81c-0.01,-0.05 -0.02,-0.12 -0.02,-0.19 -0.01,-0.07 -0.01,-0.14 -0.02,-0.22 -0.01,0.07 -0.03,0.17 -0.07,0.29 -0.01,0.02 -0.01,0.04 -0.02,0.05l-0.25 0.88 -0.34 0 -0.25 -0.88c0,-0.01 -0.01,-0.03 -0.01,-0.05 -0.04,-0.12 -0.06,-0.21 -0.07,-0.29 -0.01,0.07 -0.01,0.14 -0.02,0.21 -0.01,0.06 -0.02,0.13 -0.02,0.2l-0.11 0.81 -0.47 0 0.28 -1.86 0.5 0 0.28 0.96c0.01,0 0.01,0.01 0.01,0.03 0.03,0.08 0.05,0.16 0.05,0.22 0.01,-0.03 0.01,-0.07 0.02,-0.11 0.01,-0.04 0.02,-0.09 0.04,-0.15l0.28 -0.95 0.51 0 0.28 1.86z"/>
   <polygon id="20" class="fil1" points="7.79,11.91 7.79,10.05 8.3,10.05 8.3,11.91 "/>
   <path id="21" class="fil1" d="M10.05 10.12l0 0.55c-0.07,-0.07 -0.14,-0.13 -0.21,-0.17 -0.07,-0.03 -0.14,-0.05 -0.22,-0.05 -0.14,0 -0.26,0.05 -0.35,0.15 -0.09,0.1 -0.14,0.23 -0.14,0.39 0,0.15 0.05,0.27 0.14,0.37 0.09,0.1 0.21,0.15 0.35,0.15 0.08,0 0.15,-0.02 0.22,-0.06 0.07,-0.03 0.14,-0.09 0.21,-0.17l0 0.55c-0.08,0.04 -0.16,0.07 -0.24,0.09 -0.08,0.02 -0.16,0.03 -0.24,0.03 -0.1,0 -0.19,-0.01 -0.28,-0.03 -0.09,-0.03 -0.16,-0.07 -0.24,-0.11 -0.14,-0.1 -0.24,-0.21 -0.31,-0.36 -0.08,-0.14 -0.11,-0.3 -0.11,-0.47 0,-0.14 0.02,-0.27 0.07,-0.39 0.04,-0.12 0.11,-0.22 0.2,-0.32 0.09,-0.09 0.19,-0.15 0.3,-0.2 0.11,-0.04 0.24,-0.07 0.37,-0.07 0.08,0 0.16,0.01 0.24,0.03 0.08,0.02 0.16,0.05 0.24,0.09z"/>
   <path id="22" class="fil1" d="M10.83 11.21l0.5 0 -0.19 -0.61c0,-0.02 -0.01,-0.05 -0.02,-0.09 -0.01,-0.04 -0.03,-0.1 -0.04,-0.16 -0.01,0.04 -0.02,0.09 -0.03,0.13 -0.01,0.04 -0.02,0.08 -0.04,0.12l-0.18 0.61zm-0.71 0.7l0.64 -1.86 0.63 0 0.65 1.86 -0.51 0 -0.09 -0.34 -0.72 0 -0.1 0.34 -0.5 0z"/>
   <polygon id="23" class="fil1" points="12.21,11.91 12.21,10.05 12.72,10.05 12.72,11.47 13.35,11.47 13.35,11.91 "/>
   <polygon id="24" class="fil1" points="14.41,11.91 14.41,10.05 14.91,10.05 14.91,10.89 15.5,10.05 16.09,10.05 15.4,10.95 16.15,11.91 15.51,11.91 14.91,11.07 14.91,11.91 "/>
   <polygon id="25" class="fil1" points="16.3,11.91 16.3,10.05 16.82,10.05 16.82,11.91 "/>
   <path id="26" class="fil1" d="M17.22 11.91l0 -1.86 0.49 0 0.7 0.95c0.02,0.02 0.04,0.06 0.07,0.12 0.03,0.06 0.06,0.13 0.1,0.21 -0.01,-0.08 -0.02,-0.14 -0.02,-0.2 0,-0.07 -0.01,-0.12 -0.01,-0.16l0 -0.92 0.49 0 0 1.86 -0.49 0 -0.7 -0.96c-0.01,-0.02 -0.04,-0.06 -0.07,-0.12 -0.03,-0.06 -0.06,-0.13 -0.1,-0.21 0.01,0.08 0.02,0.15 0.02,0.21 0.01,0.06 0.01,0.11 0.01,0.16l0 0.92 -0.49 0z"/>
   <polygon id="27" class="fil1" points="19.44,11.91 19.44,10.05 20.57,10.05 20.57,10.46 19.93,10.46 19.93,10.78 20.54,10.78 20.54,11.18 19.93,11.18 19.93,11.49 20.57,11.49 20.57,11.91 "/>
   <polygon id="28" class="fil1" points="21.18,11.91 21.18,10.49 20.76,10.49 20.76,10.05 22.1,10.05 22.1,10.49 21.68,10.49 21.68,11.91 "/>
   <polygon id="29" class="fil1" points="22.36,11.91 22.36,10.05 22.87,10.05 22.87,11.91 "/>
   <path id="30" class="fil1" d="M24.62 10.12l0 0.55c-0.07,-0.07 -0.14,-0.13 -0.2,-0.17 -0.07,-0.03 -0.15,-0.05 -0.23,-0.05 -0.14,0 -0.26,0.05 -0.35,0.15 -0.09,0.1 -0.13,0.23 -0.13,0.39 0,0.15 0.04,0.27 0.13,0.37 0.1,0.1 0.21,0.15 0.35,0.15 0.08,0 0.16,-0.02 0.23,-0.06 0.06,-0.03 0.13,-0.09 0.2,-0.17l0 0.55c-0.08,0.04 -0.16,0.07 -0.24,0.09 -0.08,0.02 -0.16,0.03 -0.24,0.03 -0.1,0 -0.19,-0.01 -0.28,-0.03 -0.08,-0.03 -0.16,-0.07 -0.23,-0.11 -0.14,-0.1 -0.25,-0.21 -0.32,-0.36 -0.07,-0.14 -0.11,-0.3 -0.11,-0.47 0,-0.14 0.02,-0.27 0.07,-0.39 0.04,-0.12 0.11,-0.22 0.21,-0.32 0.08,-0.09 0.18,-0.15 0.29,-0.2 0.11,-0.04 0.24,-0.07 0.37,-0.07 0.08,0 0.16,0.01 0.24,0.03 0.08,0.02 0.16,0.05 0.24,0.09z"/>
   <path id="31" class="fil1" d="M24.99 11.31c0.08,0.08 0.15,0.14 0.22,0.19 0.08,0.04 0.15,0.06 0.22,0.06 0.07,0 0.13,-0.02 0.17,-0.05 0.04,-0.04 0.06,-0.09 0.06,-0.14 0,-0.06 -0.01,-0.11 -0.05,-0.15 -0.04,-0.03 -0.12,-0.06 -0.26,-0.1 -0.18,-0.05 -0.31,-0.11 -0.38,-0.19 -0.08,-0.08 -0.12,-0.19 -0.12,-0.32 0,-0.18 0.06,-0.33 0.18,-0.44 0.12,-0.11 0.28,-0.17 0.46,-0.17 0.11,0 0.2,0.02 0.3,0.04 0.09,0.03 0.17,0.07 0.26,0.13l-0.16 0.36c-0.06,-0.05 -0.12,-0.08 -0.18,-0.11 -0.06,-0.02 -0.12,-0.03 -0.18,-0.03 -0.06,0 -0.11,0.01 -0.15,0.04 -0.03,0.03 -0.05,0.07 -0.05,0.11 0,0.05 0.01,0.09 0.05,0.11 0.03,0.03 0.09,0.06 0.19,0.08l0.02 0.01c0.21,0.06 0.34,0.12 0.41,0.18 0.04,0.05 0.08,0.1 0.1,0.17 0.02,0.06 0.03,0.13 0.03,0.21 0,0.2 -0.06,0.36 -0.19,0.47 -0.13,0.12 -0.3,0.18 -0.52,0.18 -0.13,0 -0.24,-0.02 -0.35,-0.06 -0.11,-0.05 -0.21,-0.11 -0.31,-0.21l0.23 -0.37z"/>
   <g>
    <polygon class="fil2" points="26.09,12.57 0.02,12.57 0.02,12.45 26.09,12.45 "/>
   </g>
   <path class="fil2" d="M0.41 14.14l-0.26 -0.85 0.15 0 0.13 0.49 0.05 0.18c0,-0.01 0.02,-0.06 0.05,-0.17l0.13 -0.5 0.15 0 0.13 0.49 0.04 0.17 0.05 -0.17 0.15 -0.49 0.14 0 -0.27 0.85 -0.15 0 -0.14 -0.51 -0.03 -0.14 -0.17 0.65 -0.15 0z"/>
   <path id="1" class="fil2" d="M1.96 14.14l-0.26 -0.85 0.15 0 0.14 0.49 0.05 0.18c0,-0.01 0.01,-0.06 0.04,-0.17l0.14 -0.5 0.14 0 0.13 0.49 0.04 0.17 0.05 -0.17 0.15 -0.49 0.14 0 -0.27 0.85 -0.15 0 -0.13 -0.51 -0.03 -0.14 -0.18 0.65 -0.15 0z"/>
   <path id="2" class="fil2" d="M3.52 14.14l-0.26 -0.85 0.15 0 0.14 0.49 0.04 0.18c0.01,-0.01 0.02,-0.06 0.05,-0.17l0.13 -0.5 0.15 0 0.13 0.49 0.04 0.17 0.05 -0.17 0.15 -0.49 0.14 0 -0.27 0.85 -0.15 0 -0.14 -0.51 -0.03 -0.14 -0.17 0.65 -0.15 0z"/>
   <polygon id="3" class="fil2" points="4.87,14.14 4.87,13.98 5.03,13.98 5.03,14.14 "/>
   <path id="4" class="fil2" d="M6.21 13.83l0.14 0.02c-0.01,0.1 -0.05,0.17 -0.12,0.23 -0.06,0.05 -0.14,0.08 -0.23,0.08 -0.12,0 -0.21,-0.04 -0.28,-0.12 -0.07,-0.07 -0.11,-0.18 -0.11,-0.32 0,-0.09 0.02,-0.17 0.05,-0.24 0.03,-0.07 0.07,-0.12 0.14,-0.16 0.06,-0.03 0.13,-0.05 0.2,-0.05 0.09,0 0.17,0.03 0.23,0.07 0.05,0.05 0.09,0.11 0.11,0.2l-0.14 0.02c-0.01,-0.06 -0.04,-0.1 -0.07,-0.13 -0.04,-0.03 -0.08,-0.04 -0.13,-0.04 -0.07,0 -0.13,0.03 -0.17,0.08 -0.05,0.05 -0.07,0.13 -0.07,0.24 0,0.12 0.02,0.2 0.07,0.25 0.04,0.05 0.1,0.08 0.17,0.08 0.05,0 0.1,-0.02 0.14,-0.05 0.04,-0.04 0.06,-0.09 0.07,-0.16z"/>
   <path id="5" class="fil2" d="M6.85 14.14l0 -1.17 0.14 0 0 0.42c0.07,-0.08 0.15,-0.12 0.25,-0.12 0.07,0 0.12,0.01 0.17,0.04 0.04,0.02 0.08,0.06 0.1,0.1 0.02,0.05 0.03,0.11 0.03,0.19l0 0.54 -0.15 0 0 -0.54c0,-0.07 -0.01,-0.12 -0.05,-0.15 -0.03,-0.04 -0.07,-0.05 -0.13,-0.05 -0.04,0 -0.08,0.01 -0.12,0.03 -0.03,0.02 -0.06,0.05 -0.08,0.09 -0.01,0.04 -0.02,0.09 -0.02,0.16l0 0.46 -0.14 0z"/>
   <path id="6" class="fil2" d="M8.71 13.87l0.15 0.02c-0.03,0.08 -0.07,0.15 -0.13,0.2 -0.07,0.04 -0.15,0.07 -0.24,0.07 -0.13,0 -0.23,-0.04 -0.3,-0.12 -0.07,-0.07 -0.11,-0.18 -0.11,-0.32 0,-0.14 0.04,-0.25 0.11,-0.33 0.07,-0.08 0.17,-0.12 0.29,-0.12 0.11,0 0.2,0.04 0.28,0.12 0.07,0.08 0.1,0.18 0.1,0.32 0,0.01 0,0.03 0,0.04l-0.63 0c0,0.1 0.03,0.17 0.08,0.22 0.05,0.05 0.1,0.07 0.18,0.07 0.05,0 0.09,-0.01 0.13,-0.04 0.04,-0.03 0.07,-0.07 0.09,-0.13zm-0.47 -0.24l0.47 0c-0.01,-0.07 -0.02,-0.12 -0.05,-0.16 -0.05,-0.05 -0.11,-0.08 -0.18,-0.08 -0.07,0 -0.12,0.02 -0.17,0.07 -0.04,0.04 -0.07,0.1 -0.07,0.17z"/>
   <path id="7" class="fil2" d="M9.41 14.14l0 -0.85 0.13 0 0 0.12c0.03,-0.04 0.06,-0.07 0.11,-0.1 0.04,-0.03 0.09,-0.04 0.15,-0.04 0.06,0 0.11,0.02 0.15,0.04 0.04,0.03 0.07,0.06 0.09,0.11 0.07,-0.1 0.15,-0.15 0.26,-0.15 0.09,0 0.15,0.03 0.2,0.07 0.04,0.05 0.07,0.12 0.07,0.22l0 0.58 -0.15 0 0 -0.53c0,-0.06 0,-0.1 -0.01,-0.13 -0.01,-0.02 -0.03,-0.04 -0.05,-0.06 -0.03,-0.02 -0.06,-0.02 -0.09,-0.02 -0.06,0 -0.11,0.02 -0.15,0.06 -0.04,0.04 -0.06,0.1 -0.06,0.19l0 0.49 -0.14 0 0 -0.55c0,-0.07 -0.02,-0.11 -0.04,-0.15 -0.02,-0.03 -0.06,-0.04 -0.11,-0.04 -0.04,0 -0.08,0.01 -0.12,0.03 -0.03,0.02 -0.06,0.05 -0.07,0.09 -0.02,0.04 -0.02,0.1 -0.02,0.18l0 0.44 -0.15 0z"/>
   <path id="8" class="fil2" d="M11.15 13.13l0 -0.16 0.14 0 0 0.16 -0.14 0zm0 1.01l0 -0.85 0.14 0 0 0.85 -0.14 0z"/>
   <path id="9" class="fil2" d="M12.44 13.83l0.14 0.02c-0.01,0.1 -0.05,0.17 -0.12,0.23 -0.06,0.05 -0.14,0.08 -0.23,0.08 -0.12,0 -0.21,-0.04 -0.28,-0.12 -0.07,-0.07 -0.11,-0.18 -0.11,-0.32 0,-0.09 0.02,-0.17 0.05,-0.24 0.03,-0.07 0.07,-0.12 0.14,-0.16 0.06,-0.03 0.13,-0.05 0.2,-0.05 0.09,0 0.17,0.03 0.23,0.07 0.05,0.05 0.09,0.11 0.11,0.2l-0.14 0.02c-0.01,-0.06 -0.04,-0.1 -0.07,-0.13 -0.04,-0.03 -0.08,-0.04 -0.13,-0.04 -0.07,0 -0.13,0.03 -0.17,0.08 -0.05,0.05 -0.07,0.13 -0.07,0.24 0,0.12 0.02,0.2 0.06,0.25 0.05,0.05 0.11,0.08 0.18,0.08 0.05,0 0.1,-0.02 0.14,-0.05 0.04,-0.04 0.06,-0.09 0.07,-0.16z"/>
   <path id="10" class="fil2" d="M13.63 14.03c-0.05,0.05 -0.1,0.08 -0.15,0.1 -0.05,0.02 -0.11,0.03 -0.16,0.03 -0.1,0 -0.17,-0.02 -0.22,-0.07 -0.05,-0.04 -0.07,-0.1 -0.07,-0.17 0,-0.05 0.01,-0.08 0.02,-0.12 0.02,-0.03 0.05,-0.06 0.08,-0.08 0.03,-0.02 0.06,-0.04 0.1,-0.05 0.03,0 0.07,-0.01 0.13,-0.02 0.12,-0.01 0.2,-0.03 0.26,-0.05 0,-0.02 0,-0.03 0,-0.04 0,-0.05 -0.01,-0.1 -0.04,-0.12 -0.04,-0.03 -0.09,-0.05 -0.17,-0.05 -0.06,0 -0.11,0.01 -0.15,0.04 -0.03,0.02 -0.05,0.06 -0.07,0.12l-0.14 -0.02c0.01,-0.06 0.03,-0.11 0.06,-0.14 0.03,-0.04 0.08,-0.07 0.13,-0.09 0.06,-0.02 0.12,-0.03 0.2,-0.03 0.07,0 0.13,0.01 0.17,0.03 0.05,0.01 0.08,0.04 0.1,0.06 0.02,0.03 0.04,0.06 0.05,0.1 0,0.03 0.01,0.07 0.01,0.13l0 0.19c0,0.14 0,0.22 0,0.26 0.01,0.03 0.02,0.07 0.04,0.1l-0.15 0c-0.02,-0.03 -0.02,-0.07 -0.03,-0.11zm-0.01 -0.32c-0.05,0.03 -0.13,0.04 -0.24,0.06 -0.06,0.01 -0.1,0.02 -0.12,0.03 -0.03,0.01 -0.05,0.02 -0.06,0.04 -0.01,0.02 -0.02,0.05 -0.02,0.07 0,0.04 0.01,0.07 0.04,0.1 0.03,0.02 0.08,0.04 0.13,0.04 0.06,0 0.11,-0.02 0.15,-0.04 0.04,-0.02 0.08,-0.06 0.1,-0.1 0.01,-0.03 0.02,-0.08 0.02,-0.14l0 -0.06z"/>
   <polygon id="11" class="fil2" points="14.36,14.14 14.36,12.97 14.5,12.97 14.5,14.14 "/>
   <polygon id="12" class="fil2" points="15.09,14.14 15.09,12.97 15.24,12.97 15.24,13.64 15.58,13.29 15.77,13.29 15.44,13.61 15.8,14.14 15.62,14.14 15.34,13.71 15.24,13.8 15.24,14.14 "/>
   <path id="13" class="fil2" d="M16.29 13.13l0 -0.16 0.14 0 0 0.16 -0.14 0zm0 1.01l0 -0.85 0.14 0 0 0.85 -0.14 0z"/>
   <path id="14" class="fil2" d="M17.02 14.14l0 -0.85 0.13 0 0 0.12c0.06,-0.09 0.15,-0.14 0.27,-0.14 0.05,0 0.1,0.01 0.14,0.03 0.04,0.02 0.08,0.04 0.1,0.07 0.02,0.03 0.03,0.07 0.04,0.11 0.01,0.02 0.01,0.07 0.01,0.14l0 0.52 -0.14 0 0 -0.52c0,-0.05 -0.01,-0.1 -0.02,-0.13 -0.01,-0.03 -0.03,-0.05 -0.06,-0.07 -0.03,-0.01 -0.06,-0.02 -0.1,-0.02 -0.06,0 -0.11,0.02 -0.16,0.05 -0.04,0.04 -0.07,0.12 -0.07,0.23l0 0.46 -0.14 0z"/>
   <path id="15" class="fil2" d="M18.88 13.87l0.15 0.02c-0.02,0.08 -0.06,0.15 -0.13,0.2 -0.06,0.04 -0.14,0.07 -0.24,0.07 -0.12,0 -0.22,-0.04 -0.29,-0.12 -0.08,-0.07 -0.11,-0.18 -0.11,-0.32 0,-0.14 0.03,-0.25 0.11,-0.33 0.07,-0.08 0.17,-0.12 0.28,-0.12 0.12,0 0.21,0.04 0.28,0.12 0.07,0.08 0.11,0.18 0.11,0.32 0,0.01 0,0.03 0,0.04l-0.64 0c0.01,0.1 0.04,0.17 0.08,0.22 0.05,0.05 0.11,0.07 0.18,0.07 0.05,0 0.1,-0.01 0.14,-0.04 0.03,-0.03 0.06,-0.07 0.08,-0.13zm-0.47 -0.24l0.48 0c-0.01,-0.07 -0.03,-0.12 -0.06,-0.16 -0.04,-0.05 -0.1,-0.08 -0.18,-0.08 -0.06,0 -0.12,0.02 -0.16,0.07 -0.05,0.04 -0.07,0.1 -0.08,0.17z"/>
   <path id="16" class="fil2" d="M19.9 14.01l0.02 0.13c-0.04,0.01 -0.08,0.01 -0.11,0.01 -0.05,0 -0.09,-0.01 -0.12,-0.02 -0.03,-0.02 -0.05,-0.04 -0.06,-0.07 -0.01,-0.02 -0.02,-0.08 -0.02,-0.17l0 -0.49 -0.11 0 0 -0.11 0.11 0 0 -0.21 0.15 -0.09 0 0.3 0.14 0 0 0.11 -0.14 0 0 0.5c0,0.04 0,0.07 0,0.08 0.01,0.01 0.02,0.02 0.03,0.03 0.01,0 0.03,0.01 0.05,0.01 0.01,0 0.03,0 0.06,-0.01z"/>
   <path id="17" class="fil2" d="M20.41 13.13l0 -0.16 0.15 0 0 0.16 -0.15 0zm0 1.01l0 -0.85 0.15 0 0 0.85 -0.15 0z"/>
   <path id="18" class="fil2" d="M21.7 13.83l0.15 0.02c-0.02,0.1 -0.06,0.17 -0.12,0.23 -0.07,0.05 -0.14,0.08 -0.24,0.08 -0.11,0 -0.21,-0.04 -0.28,-0.12 -0.07,-0.07 -0.1,-0.18 -0.1,-0.32 0,-0.09 0.01,-0.17 0.04,-0.24 0.03,-0.07 0.08,-0.12 0.14,-0.16 0.06,-0.03 0.13,-0.05 0.2,-0.05 0.1,0 0.17,0.03 0.23,0.07 0.06,0.05 0.1,0.11 0.11,0.2l-0.14 0.02c-0.01,-0.06 -0.03,-0.1 -0.07,-0.13 -0.03,-0.03 -0.07,-0.04 -0.12,-0.04 -0.07,0 -0.13,0.03 -0.18,0.08 -0.04,0.05 -0.07,0.13 -0.07,0.24 0,0.12 0.03,0.2 0.07,0.25 0.04,0.05 0.1,0.08 0.17,0.08 0.06,0 0.11,-0.02 0.14,-0.05 0.04,-0.04 0.06,-0.09 0.07,-0.16z"/>
   <path id="19" class="fil2" d="M22.28 13.89l0.15 -0.03c0,0.06 0.03,0.1 0.06,0.14 0.04,0.03 0.09,0.04 0.16,0.04 0.06,0 0.11,-0.01 0.14,-0.04 0.04,-0.03 0.05,-0.06 0.05,-0.09 0,-0.04 -0.01,-0.06 -0.04,-0.08 -0.02,-0.01 -0.07,-0.03 -0.15,-0.05 -0.1,-0.03 -0.18,-0.05 -0.22,-0.07 -0.04,-0.02 -0.07,-0.05 -0.09,-0.08 -0.02,-0.03 -0.03,-0.07 -0.03,-0.11 0,-0.04 0.01,-0.08 0.02,-0.11 0.02,-0.03 0.04,-0.06 0.07,-0.08 0.03,-0.02 0.06,-0.03 0.1,-0.04 0.03,-0.01 0.08,-0.02 0.12,-0.02 0.07,0 0.13,0.01 0.18,0.03 0.05,0.02 0.08,0.05 0.11,0.08 0.02,0.03 0.04,0.08 0.05,0.13l-0.14 0.02c-0.01,-0.04 -0.03,-0.08 -0.06,-0.1 -0.03,-0.03 -0.07,-0.04 -0.13,-0.04 -0.07,0 -0.11,0.01 -0.14,0.03 -0.03,0.02 -0.04,0.05 -0.04,0.08 0,0.02 0,0.04 0.01,0.05 0.02,0.02 0.03,0.03 0.06,0.04 0.01,0 0.06,0.02 0.13,0.04 0.1,0.02 0.17,0.04 0.21,0.06 0.04,0.02 0.07,0.04 0.09,0.08 0.03,0.03 0.04,0.07 0.04,0.12 0,0.05 -0.01,0.09 -0.04,0.14 -0.03,0.04 -0.07,0.07 -0.12,0.09 -0.06,0.03 -0.12,0.04 -0.18,0.04 -0.11,0 -0.2,-0.02 -0.26,-0.07 -0.05,-0.05 -0.09,-0.11 -0.11,-0.2z"/>
   <polygon id="20" class="fil2" points="23.57,14.14 23.57,13.98 23.74,13.98 23.74,14.14 "/>
   <path id="21" class="fil2" d="M24.91 13.83l0.14 0.02c-0.01,0.1 -0.05,0.17 -0.11,0.23 -0.07,0.05 -0.15,0.08 -0.24,0.08 -0.11,0 -0.21,-0.04 -0.28,-0.12 -0.07,-0.07 -0.1,-0.18 -0.1,-0.32 0,-0.09 0.01,-0.17 0.04,-0.24 0.03,-0.07 0.08,-0.12 0.14,-0.16 0.06,-0.03 0.13,-0.05 0.2,-0.05 0.09,0 0.17,0.03 0.23,0.07 0.06,0.05 0.1,0.11 0.11,0.2l-0.14 0.02c-0.01,-0.06 -0.03,-0.1 -0.07,-0.13 -0.03,-0.03 -0.07,-0.04 -0.12,-0.04 -0.07,0 -0.13,0.03 -0.18,0.08 -0.04,0.05 -0.07,0.13 -0.07,0.24 0,0.12 0.02,0.2 0.07,0.25 0.04,0.05 0.1,0.08 0.17,0.08 0.06,0 0.1,-0.02 0.14,-0.05 0.04,-0.04 0.06,-0.09 0.07,-0.16z"/>
   <path id="22" class="fil2" d="M25.5 13.72c0,-0.16 0.04,-0.28 0.13,-0.35 0.07,-0.07 0.16,-0.1 0.26,-0.1 0.12,0 0.22,0.04 0.29,0.12 0.07,0.07 0.11,0.18 0.11,0.31 0,0.11 -0.01,0.2 -0.05,0.26 -0.03,0.06 -0.08,0.11 -0.14,0.15 -0.06,0.03 -0.13,0.05 -0.21,0.05 -0.12,0 -0.21,-0.04 -0.28,-0.12 -0.08,-0.07 -0.11,-0.18 -0.11,-0.32zm0.14 0c0,0.1 0.03,0.19 0.07,0.24 0.05,0.05 0.11,0.08 0.18,0.08 0.08,0 0.14,-0.03 0.18,-0.08 0.05,-0.06 0.07,-0.14 0.07,-0.25 0,-0.1 -0.02,-0.18 -0.07,-0.24 -0.05,-0.05 -0.1,-0.08 -0.18,-0.08 -0.07,0 -0.13,0.03 -0.18,0.08 -0.04,0.06 -0.07,0.14 -0.07,0.25z"/>
   <g>
    <path class="fil3" d="M13.12 8.67c4.33,0 7.84,-1.94 7.84,-4.34 0,-2.39 -3.51,-4.33 -7.84,-4.33 -2.41,0 -4.37,1.94 -4.37,4.33 0,2.4 1.96,4.34 4.37,4.34zm0 -8.67c-4.33,0 -7.84,1.94 -7.84,4.33 0,2.4 3.51,4.34 7.84,4.34 2.41,0 4.37,-1.94 4.37,-4.34 0,-2.39 -1.96,-4.33 -4.37,-4.33z"/>
    <g style="clip-path:url(#id0)">
     <g>
      <line id="1" class="fil4" x1="4.28" y1="7.88" x2="21.96" y2= "7.88" />
      <line class="fil4" x1="4.28" y1="7.09" x2="21.96" y2= "7.09" />
      <line class="fil4" x1="4.28" y1="6.3" x2="21.96" y2= "6.3" />
      <line class="fil4" x1="4.28" y1="5.52" x2="21.96" y2= "5.52" />
      <line class="fil4" x1="4.28" y1="4.73" x2="21.96" y2= "4.73" />
      <line class="fil4" x1="4.28" y1="3.94" x2="21.96" y2= "3.94" />
      <line class="fil4" x1="4.28" y1="3.15" x2="21.96" y2= "3.15" />
      <line class="fil4" x1="4.28" y1="2.37" x2="21.96" y2= "2.37" />
      <line class="fil4" x1="4.28" y1="1.58" x2="21.96" y2= "1.58" />
      <line class="fil4" x1="4.28" y1="0.79" x2="21.96" y2= "0.79" />
      <line class="fil4" x1="4.28" y1="0.05" x2="21.96" y2= "0.05" />
      <line class="fil4" x1="4.28" y1="8.65" x2="21.96" y2= "8.65" />
      <path class="fil5" d="M4.28 8.87l17.68 0 0 -0.44 -17.68 0 0 0.44zm0 -8.6l17.68 0 0 -0.44 -17.68 0 0 0.44zm0 0.74l17.68 0 0 -0.44 -17.68 0 0 0.44zm0 0.79l17.68 0 0 -0.44 -17.68 0 0 0.44zm0 0.79l17.68 0 0 -0.44 -17.68 0 0 0.44zm0 0.78l17.68 0 0 -0.44 -17.68 0 0 0.44zm0 0.79l17.68 0 0 -0.44 -17.68 0 0 0.44zm0 0.79l17.68 0 0 -0.44 -17.68 0 0 0.44zm0 0.79l17.68 0 0 -0.44 -17.68 0 0 0.44zm0 0.78l17.68 0 0 -0.44 -17.68 0 0 0.44zm0 0.79l17.68 0 0 -0.44 -17.68 0 0 0.44zm0 0.79l17.68 0 0 -0.44 -17.68 0 0 0.44z"/>
     </g>
    </g>
    <path class="fil4" d="M13.12 8.67c4.33,0 7.84,-1.94 7.84,-4.34 0,-2.39 -3.51,-4.33 -7.84,-4.33 -2.41,0 -4.37,1.94 -4.37,4.33 0,2.4 1.96,4.34 4.37,4.34zm0 -8.67c-4.33,0 -7.84,1.94 -7.84,4.33 0,2.4 3.51,4.34 7.84,4.34 2.41,0 4.37,-1.94 4.37,-4.34 0,-2.39 -1.96,-4.33 -4.37,-4.33z"/>
    <path class="fil3" d="M13.12 8.67c2.39,0 4.34,-1.94 4.34,-4.34 0,-2.39 -1.95,-4.33 -4.34,-4.33 -2.39,0 -4.33,1.94 -4.33,4.33 0,2.4 1.94,4.34 4.33,4.34z"/>
    <path class="fil6" d="M12.49 5.3l0.15 0.16c0,0 0.01,0.01 0.01,0.03 0.01,0.02 0.01,0.03 0.01,0.05 0,0.04 -0.01,0.08 -0.04,0.12 -0.03,0.04 -0.09,0.11 -0.19,0.19 -0.16,0.15 -0.34,0.26 -0.52,0.33 -0.18,0.06 -0.37,0.1 -0.59,0.1 -0.22,0 -0.42,-0.04 -0.61,-0.11 -0.18,-0.08 -0.34,-0.19 -0.48,-0.33 -0.18,-0.19 -0.32,-0.4 -0.41,-0.63 -0.09,-0.24 -0.14,-0.49 -0.14,-0.76 0,-0.25 0.04,-0.5 0.12,-0.73 0.08,-0.23 0.19,-0.44 0.34,-0.63 0.15,-0.19 0.33,-0.33 0.53,-0.43 0.2,-0.11 0.41,-0.16 0.63,-0.16 0.24,0 0.48,0.07 0.73,0.21 0.07,0.03 0.11,0.05 0.13,0.05 0.01,0 0.02,0 0.03,0 0.01,0 0.02,0 0.02,-0.01l0.06 -0.02 0.01 0c0.06,-0.02 0.1,-0.04 0.12,-0.04l0.13 0 0 0.97 -0.15 0c-0.07,0 -0.14,-0.06 -0.19,-0.16 -0.01,-0.02 -0.02,-0.04 -0.03,-0.06 -0.09,-0.17 -0.21,-0.31 -0.33,-0.4 -0.13,-0.09 -0.27,-0.13 -0.42,-0.13 -0.27,0 -0.51,0.14 -0.69,0.42 -0.18,0.27 -0.27,0.64 -0.27,1.08 0,0.43 0.09,0.77 0.28,1.03 0.18,0.26 0.42,0.39 0.73,0.39 0.17,0 0.33,-0.04 0.5,-0.13 0.16,-0.08 0.34,-0.22 0.53,-0.4z"/>
    <path id="1" class="fil6" d="M12.99 6.21l0 -0.17c0,-0.04 0.01,-0.07 0.03,-0.1 0.02,-0.02 0.04,-0.04 0.07,-0.05l0.08 -0.03c0.04,-0.02 0.06,-0.04 0.08,-0.06 0.01,-0.02 0.02,-0.06 0.02,-0.12l0 -2.58c0,-0.06 -0.01,-0.1 -0.02,-0.12 -0.02,-0.03 -0.04,-0.05 -0.08,-0.06l-0.08 -0.03c-0.03,-0.01 -0.06,-0.03 -0.07,-0.06 -0.02,-0.02 -0.03,-0.05 -0.03,-0.09l0 -0.18 1.29 0 0 0.18c0,0.04 -0.01,0.07 -0.03,0.09 -0.02,0.03 -0.04,0.05 -0.08,0.06l-0.07 0.03c-0.04,0.01 -0.07,0.03 -0.08,0.06 -0.02,0.02 -0.03,0.06 -0.03,0.12l0 0.92 1.03 -0.91 0 -0.01c0.06,-0.05 0.08,-0.09 0.08,-0.12 0,-0.02 0,-0.03 -0.01,-0.04 -0.01,-0.02 -0.03,-0.03 -0.05,-0.04l-0.05 -0.02c-0.02,0 -0.04,-0.01 -0.05,-0.03 -0.02,-0.02 -0.02,-0.04 -0.02,-0.06l0 -0.23 1.26 0 0 0.2c0,0.03 -0.01,0.06 -0.03,0.08 -0.01,0.02 -0.03,0.03 -0.06,0.03l-0.09 0.02c-0.03,0.01 -0.08,0.02 -0.13,0.05 -0.05,0.03 -0.1,0.06 -0.14,0.1l-1.22 1.05 1.45 1.49c0.11,0.1 0.22,0.2 0.35,0.28 0.12,0.08 0.19,0.14 0.19,0.19l0 0.16 -1.51 0 0 -0.16c0,-0.03 0.01,-0.05 0.02,-0.08 0.01,-0.02 0.02,-0.03 0.04,-0.04l0.11 -0.06c0.01,-0.01 0.02,-0.02 0.03,-0.03 0,-0.02 0.01,-0.03 0.01,-0.05 0,-0.01 -0.01,-0.03 -0.02,-0.05 -0.01,-0.02 -0.02,-0.03 -0.04,-0.05l-1.15 -1.2 0 1.19c0,0.06 0.01,0.09 0.03,0.12 0.01,0.02 0.04,0.04 0.08,0.06l0.07 0.03c0.04,0.01 0.06,0.03 0.08,0.05 0.02,0.03 0.03,0.06 0.03,0.1l0 0.17 -1.29 0z"/>
   </g>
  </g>
 </g>
</svg>
