<?xml version="1.0" encoding="UTF-8"?>
<!DOCTYPE svg PUBLIC "-//W3C//DTD SVG 1.1//EN" "http://www.w3.org/Graphics/SVG/1.1/DTD/svg11.dtd">
<!-- Creator: CorelDRAW 2019 (64-Bit) -->
<svg xmlns="http://www.w3.org/2000/svg" xml:space="preserve" width="220px" height="62px" version="1.1" style="shape-rendering:geometricPrecision; text-rendering:geometricPrecision; image-rendering:optimizeQuality; fill-rule:evenodd; clip-rule:evenodd"
viewBox="0 0 41.77 11.73"
 xmlns:xlink="http://www.w3.org/1999/xlink"
 xmlns:xodm="http://www.corel.com/coreldraw/odm/2003">
 <defs>
  <style type="text/css">
   <![CDATA[
    .fil1 {fill:#00AFEF}
    .fil2 {fill:black}
    .fil0 {fill:#00AFEF;fill-rule:nonzero}
   ]]>
  </style>
 </defs>
 <g id="Layer_x0020_1">
  <metadata id="CorelCorpID_0Corel-Layer"/>
  <g id="_2701524249360">
   <path class="fil0" d="M26.24 7.81l0 -5.39 3.71 0 0 0.91 -2.62 0 0 1.28 2.26 0 0 0.91 -2.26 0 0 2.29 -1.09 0zm4.85 0l0 -5.39 1.64 0 0.96 3.68 0.96 -3.68 1.64 0 0 5.39 -1.01 0 -0.01 -4.25 -1.06 4.25 -1.05 0 -1.06 -4.25 0 4.25 -1.01 0zm6.55 0l0 -5.39 1.75 0c0.66,0 1.09,0.02 1.29,0.08 0.31,0.08 0.57,0.26 0.78,0.53 0.21,0.27 0.31,0.62 0.31,1.05 0,0.33 -0.06,0.61 -0.18,0.83 -0.12,0.23 -0.27,0.4 -0.46,0.53 -0.18,0.13 -0.37,0.22 -0.56,0.26 -0.26,0.05 -0.63,0.08 -1.13,0.08l-0.7 0 0 2.03 -1.1 0zm1.1 -4.48l0 1.54 0.59 0c0.43,0 0.71,-0.03 0.86,-0.09 0.14,-0.06 0.25,-0.14 0.34,-0.27 0.08,-0.12 0.12,-0.26 0.12,-0.42 0,-0.19 -0.06,-0.36 -0.17,-0.48 -0.12,-0.13 -0.26,-0.21 -0.44,-0.24 -0.13,-0.03 -0.39,-0.04 -0.78,-0.04l-0.52 0z"/>
   <path class="fil0" d="M13.38 11.52l-0.65 -2.15 0.38 0 0.34 1.24 0.12 0.46c0.01,-0.02 0.05,-0.17 0.11,-0.44l0.35 -1.26 0.37 0 0.32 1.25 0.11 0.41 0.12 -0.42 0.38 -1.24 0.35 0 -0.67 2.15 -0.38 0 -0.34 -1.29 -0.09 -0.37 -0.44 1.66 -0.38 0zm4.08 -0.7l0.38 0.05c-0.06,0.22 -0.17,0.39 -0.33,0.52 -0.16,0.12 -0.37,0.18 -0.62,0.18 -0.31,0 -0.56,-0.1 -0.75,-0.29 -0.18,-0.2 -0.27,-0.47 -0.27,-0.82 0,-0.36 0.09,-0.64 0.28,-0.84 0.18,-0.2 0.42,-0.3 0.72,-0.3 0.29,0 0.52,0.1 0.7,0.29 0.19,0.2 0.28,0.48 0.28,0.83 0,0.02 0,0.05 0,0.1l-1.61 0c0.01,0.23 0.08,0.41 0.2,0.54 0.12,0.13 0.27,0.19 0.45,0.19 0.13,0 0.25,-0.04 0.34,-0.11 0.1,-0.07 0.17,-0.18 0.23,-0.34zm-1.2 -0.58l1.2 0c-0.01,-0.18 -0.06,-0.32 -0.14,-0.41 -0.11,-0.14 -0.26,-0.21 -0.45,-0.21 -0.16,0 -0.31,0.06 -0.42,0.17 -0.11,0.11 -0.18,0.26 -0.19,0.45zm3.05 0.64l0.36 -0.06c0.02,0.14 0.07,0.26 0.17,0.33 0.09,0.08 0.22,0.12 0.39,0.12 0.16,0 0.29,-0.04 0.37,-0.1 0.08,-0.07 0.12,-0.15 0.12,-0.24 0,-0.09 -0.03,-0.15 -0.11,-0.2 -0.05,-0.03 -0.17,-0.07 -0.37,-0.12 -0.27,-0.07 -0.45,-0.13 -0.56,-0.18 -0.1,-0.05 -0.18,-0.11 -0.23,-0.2 -0.05,-0.09 -0.08,-0.18 -0.08,-0.29 0,-0.1 0.02,-0.18 0.06,-0.27 0.05,-0.08 0.11,-0.15 0.18,-0.2 0.06,-0.04 0.14,-0.08 0.24,-0.11 0.09,-0.02 0.2,-0.04 0.31,-0.04 0.17,0 0.32,0.02 0.44,0.07 0.13,0.05 0.23,0.12 0.29,0.2 0.06,0.09 0.1,0.2 0.12,0.34l-0.35 0.05c-0.02,-0.12 -0.07,-0.2 -0.14,-0.27 -0.08,-0.06 -0.19,-0.09 -0.33,-0.09 -0.17,0 -0.29,0.03 -0.36,0.08 -0.07,0.06 -0.11,0.12 -0.11,0.2 0,0.04 0.02,0.09 0.05,0.13 0.03,0.03 0.07,0.07 0.14,0.09 0.03,0.02 0.14,0.05 0.32,0.1 0.25,0.06 0.43,0.12 0.54,0.16 0.1,0.05 0.18,0.11 0.24,0.2 0.06,0.08 0.09,0.18 0.09,0.31 0,0.12 -0.04,0.23 -0.11,0.34 -0.07,0.11 -0.17,0.19 -0.31,0.25 -0.13,0.06 -0.28,0.09 -0.45,0.09 -0.28,0 -0.5,-0.06 -0.64,-0.18 -0.15,-0.11 -0.24,-0.28 -0.28,-0.51zm3.69 -0.06l0.38 0.05c-0.06,0.22 -0.17,0.39 -0.33,0.52 -0.16,0.12 -0.37,0.18 -0.62,0.18 -0.31,0 -0.56,-0.1 -0.75,-0.29 -0.18,-0.2 -0.27,-0.47 -0.27,-0.82 0,-0.36 0.09,-0.64 0.28,-0.84 0.18,-0.2 0.42,-0.3 0.72,-0.3 0.29,0 0.52,0.1 0.7,0.29 0.19,0.2 0.28,0.48 0.28,0.83 0,0.02 0,0.05 0,0.1l-1.61 0c0.01,0.23 0.08,0.41 0.2,0.54 0.12,0.13 0.27,0.19 0.45,0.19 0.13,0 0.25,-0.04 0.34,-0.11 0.1,-0.07 0.17,-0.18 0.23,-0.34zm-1.2 -0.58l1.2 0c-0.01,-0.18 -0.06,-0.32 -0.14,-0.41 -0.11,-0.14 -0.26,-0.21 -0.45,-0.21 -0.16,0 -0.31,0.06 -0.42,0.17 -0.11,0.11 -0.18,0.26 -0.19,0.45zm2.03 1.28l0 -2.15 0.33 0 0 0.33c0.08,-0.16 0.16,-0.26 0.23,-0.31 0.08,-0.05 0.15,-0.07 0.24,-0.07 0.12,0 0.25,0.04 0.37,0.12l-0.13 0.33c-0.08,-0.05 -0.17,-0.07 -0.26,-0.07 -0.08,0 -0.15,0.02 -0.22,0.07 -0.06,0.05 -0.1,0.11 -0.13,0.2 -0.04,0.13 -0.06,0.27 -0.06,0.43l0 1.12 -0.37 0zm1.98 0l-0.81 -2.15 0.39 0 0.46 1.29c0.05,0.14 0.09,0.28 0.14,0.43 0.03,-0.11 0.07,-0.25 0.13,-0.41l0.48 -1.31 0.38 0 -0.82 2.15 -0.35 0zm2.96 -0.7l0.37 0.05c-0.05,0.22 -0.16,0.39 -0.32,0.52 -0.17,0.12 -0.37,0.18 -0.62,0.18 -0.31,0 -0.56,-0.1 -0.75,-0.29 -0.18,-0.2 -0.27,-0.47 -0.27,-0.82 0,-0.36 0.09,-0.64 0.28,-0.84 0.18,-0.2 0.42,-0.3 0.72,-0.3 0.29,0 0.52,0.1 0.7,0.29 0.19,0.2 0.28,0.48 0.28,0.83 0,0.02 0,0.05 0,0.1l-1.61 0c0.01,0.23 0.08,0.41 0.2,0.54 0.12,0.13 0.27,0.19 0.45,0.19 0.13,0 0.25,-0.04 0.34,-0.11 0.1,-0.07 0.17,-0.18 0.23,-0.34zm-1.2 -0.58l1.2 0c-0.02,-0.18 -0.06,-0.32 -0.14,-0.41 -0.11,-0.14 -0.26,-0.21 -0.45,-0.21 -0.17,0 -0.31,0.06 -0.42,0.17 -0.11,0.11 -0.18,0.26 -0.19,0.45zm4.6 1.01c-0.14,0.12 -0.27,0.2 -0.39,0.25 -0.13,0.04 -0.26,0.07 -0.41,0.07 -0.23,0 -0.42,-0.06 -0.54,-0.18 -0.13,-0.11 -0.19,-0.26 -0.19,-0.44 0,-0.1 0.02,-0.2 0.07,-0.29 0.05,-0.08 0.11,-0.15 0.19,-0.2 0.07,-0.06 0.16,-0.1 0.26,-0.12 0.07,-0.02 0.18,-0.04 0.32,-0.06 0.3,-0.03 0.52,-0.08 0.66,-0.12 0,-0.05 0,-0.09 0,-0.1 0,-0.15 -0.04,-0.25 -0.11,-0.31 -0.09,-0.09 -0.23,-0.13 -0.41,-0.13 -0.17,0 -0.3,0.03 -0.38,0.09 -0.09,0.06 -0.15,0.17 -0.19,0.32l-0.35 -0.04c0.03,-0.16 0.08,-0.28 0.16,-0.38 0.07,-0.09 0.18,-0.16 0.32,-0.21 0.14,-0.05 0.31,-0.08 0.49,-0.08 0.19,0 0.34,0.02 0.45,0.07 0.12,0.04 0.2,0.09 0.26,0.16 0.05,0.06 0.09,0.15 0.11,0.25 0.01,0.06 0.02,0.17 0.02,0.33l0 0.49c0,0.34 0.01,0.55 0.02,0.64 0.02,0.09 0.05,0.18 0.09,0.26l-0.38 0c-0.04,-0.08 -0.06,-0.17 -0.07,-0.27zm-0.03 -0.81c-0.13,0.06 -0.33,0.1 -0.6,0.14 -0.15,0.02 -0.26,0.04 -0.32,0.07 -0.06,0.03 -0.11,0.07 -0.14,0.12 -0.04,0.05 -0.05,0.11 -0.05,0.17 0,0.1 0.03,0.18 0.11,0.24 0.07,0.07 0.18,0.1 0.32,0.1 0.14,0 0.27,-0.03 0.38,-0.09 0.11,-0.06 0.19,-0.15 0.24,-0.25 0.04,-0.08 0.06,-0.21 0.06,-0.37l0 -0.13zm0.93 1.08l0 -2.97 0.37 0 0 1.07c0.16,-0.2 0.38,-0.3 0.64,-0.3 0.16,0 0.29,0.03 0.41,0.09 0.12,0.07 0.2,0.15 0.25,0.27 0.05,0.11 0.08,0.27 0.08,0.48l0 1.36 -0.37 0 0 -1.36c0,-0.18 -0.04,-0.32 -0.12,-0.4 -0.07,-0.08 -0.18,-0.12 -0.33,-0.12 -0.11,0 -0.21,0.02 -0.3,0.08 -0.1,0.06 -0.16,0.13 -0.2,0.23 -0.04,0.09 -0.06,0.23 -0.06,0.39l0 1.18 -0.37 0zm3.78 -0.7l0.38 0.05c-0.06,0.22 -0.17,0.39 -0.33,0.52 -0.16,0.12 -0.37,0.18 -0.62,0.18 -0.31,0 -0.56,-0.1 -0.74,-0.29 -0.19,-0.2 -0.28,-0.47 -0.28,-0.82 0,-0.36 0.09,-0.64 0.28,-0.84 0.18,-0.2 0.43,-0.3 0.72,-0.3 0.29,0 0.52,0.1 0.71,0.29 0.18,0.2 0.27,0.48 0.27,0.83 0,0.02 0,0.05 0,0.1l-1.61 0c0.02,0.23 0.08,0.41 0.2,0.54 0.12,0.13 0.27,0.19 0.45,0.19 0.14,0 0.25,-0.04 0.34,-0.11 0.1,-0.07 0.17,-0.18 0.23,-0.34zm-1.2 -0.58l1.2 0c-0.01,-0.18 -0.06,-0.32 -0.13,-0.41 -0.12,-0.14 -0.27,-0.21 -0.46,-0.21 -0.16,0 -0.3,0.06 -0.42,0.17 -0.11,0.11 -0.17,0.26 -0.19,0.45zm3.45 1.01c-0.14,0.12 -0.27,0.2 -0.39,0.25 -0.13,0.04 -0.26,0.07 -0.41,0.07 -0.24,0 -0.42,-0.06 -0.54,-0.18 -0.13,-0.11 -0.2,-0.26 -0.2,-0.44 0,-0.1 0.03,-0.2 0.08,-0.29 0.04,-0.08 0.11,-0.15 0.19,-0.2 0.07,-0.06 0.16,-0.1 0.26,-0.12 0.07,-0.02 0.18,-0.04 0.32,-0.06 0.3,-0.03 0.52,-0.08 0.66,-0.12 0,-0.05 0,-0.09 0,-0.1 0,-0.15 -0.04,-0.25 -0.11,-0.31 -0.09,-0.09 -0.23,-0.13 -0.41,-0.13 -0.18,0 -0.3,0.03 -0.38,0.09 -0.09,0.06 -0.15,0.17 -0.19,0.32l-0.35 -0.04c0.03,-0.16 0.08,-0.28 0.16,-0.38 0.07,-0.09 0.18,-0.16 0.32,-0.21 0.14,-0.05 0.31,-0.08 0.49,-0.08 0.19,0 0.34,0.02 0.45,0.07 0.12,0.04 0.2,0.09 0.26,0.16 0.05,0.06 0.09,0.15 0.11,0.25 0.01,0.06 0.02,0.17 0.02,0.33l0 0.49c0,0.34 0,0.55 0.02,0.64 0.01,0.09 0.05,0.18 0.09,0.26l-0.38 0c-0.04,-0.08 -0.06,-0.17 -0.07,-0.27zm-0.03 -0.81c-0.14,0.06 -0.33,0.1 -0.6,0.14 -0.15,0.02 -0.26,0.04 -0.32,0.07 -0.06,0.03 -0.11,0.07 -0.14,0.12 -0.04,0.05 -0.06,0.11 -0.06,0.17 0,0.1 0.04,0.18 0.12,0.24 0.07,0.07 0.18,0.1 0.32,0.1 0.14,0 0.27,-0.03 0.38,-0.09 0.1,-0.06 0.19,-0.15 0.24,-0.25 0.04,-0.08 0.06,-0.21 0.06,-0.37l0 -0.13zm2.32 1.08l0 -0.27c-0.14,0.21 -0.34,0.32 -0.6,0.32 -0.17,0 -0.33,-0.05 -0.48,-0.14 -0.14,-0.1 -0.25,-0.23 -0.33,-0.4 -0.08,-0.17 -0.12,-0.36 -0.12,-0.58 0,-0.22 0.04,-0.41 0.11,-0.59 0.07,-0.17 0.18,-0.31 0.32,-0.4 0.14,-0.09 0.3,-0.14 0.48,-0.14 0.13,0 0.25,0.03 0.35,0.08 0.1,0.06 0.18,0.13 0.24,0.22l0 -1.07 0.37 0 0 2.97 -0.34 0zm-1.15 -1.07c0,0.27 0.05,0.48 0.17,0.61 0.12,0.14 0.25,0.21 0.41,0.21 0.16,0 0.3,-0.07 0.41,-0.2 0.11,-0.13 0.17,-0.33 0.17,-0.59 0,-0.3 -0.06,-0.51 -0.17,-0.65 -0.12,-0.14 -0.26,-0.21 -0.42,-0.21 -0.17,0 -0.3,0.07 -0.41,0.2 -0.11,0.13 -0.16,0.34 -0.16,0.63z"/>
   <g>
    <path class="fil1" d="M4.66 11.73c1.81,-2.62 4.49,-5.81 7.75,-8.2 0.98,-0.32 1.85,-0.49 2.54,-0.49 0.5,0.01 0.86,0.09 1.06,0.26 0.02,0.01 0.03,0.02 0.04,0.04 -1.24,0.47 -2.58,1.14 -3.92,1.99 -2.77,1.76 -5.77,4.43 -7.47,6.4zm15.53 -11.6c0.92,-0.13 1.86,-0.15 2.82,-0.06 4.25,0.4 2.01,5.32 -5.58,8.97 3.97,-3.61 4.57,-5.6 3.4,-6.27 0.09,-0.26 0.15,-0.51 0.17,-0.76 0.06,-0.69 -0.14,-1.28 -0.63,-1.73 -0.05,-0.05 -0.11,-0.1 -0.18,-0.15z"/>
    <path class="fil2" d="M0 11.72c3.53,-5.11 10.39,-12.42 18.34,-11.67 4.25,0.41 2.02,5.33 -5.57,8.98 8.51,-7.76 1.55,-8.05 -5.31,-3.71 -2.76,1.75 -5.76,4.43 -7.46,6.4z"/>
   </g>
  </g>
 </g>
</svg>
