<?xml version="1.0" encoding="UTF-8"?>
<!DOCTYPE svg PUBLIC "-//W3C//DTD SVG 1.1//EN" "http://www.w3.org/Graphics/SVG/1.1/DTD/svg11.dtd">
<!-- Creator: CorelDRAW 2019 (64-Bit) -->
<svg xmlns="http://www.w3.org/2000/svg" xml:space="preserve" width="220px" height="145px" version="1.1" style="shape-rendering:geometricPrecision; text-rendering:geometricPrecision; image-rendering:optimizeQuality; fill-rule:evenodd; clip-rule:evenodd"
viewBox="0 0 310.98 205.39"
 xmlns:xlink="http://www.w3.org/1999/xlink"
 xmlns:xodm="http://www.corel.com/coreldraw/odm/2003">
 <defs>
  <style type="text/css">
   <![CDATA[
    .fil9 {fill:#FEFEFE}
    .fil4 {fill:#00AC4A}
    .fil3 {fill:#151111}
    .fil5 {fill:#42B748}
    .fil1 {fill:#6DC044}
    .fil0 {fill:#98CA3B}
    .fil2 {fill:#FEFEFE}
    .fil11 {fill:#FEFEFE;fill-rule:nonzero}
    .fil10 {fill:black;fill-rule:nonzero;fill-opacity:0.200000}
    .fil8 {fill:url(#id0)}
    .fil7 {fill:url(#id1)}
    .fil6 {fill:url(#id2)}
   ]]>
  </style>
  <linearGradient id="id0" gradientUnits="userSpaceOnUse" x1="0" y1="25.86" x2="310.98" y2="25.86">
   <stop offset="0" style="stop-opacity:1; stop-color:#F6C505"/>
   <stop offset="0.45098" style="stop-opacity:1; stop-color:#F6C408"/>
   <stop offset="0.74902" style="stop-opacity:1; stop-color:#F3A448"/>
   <stop offset="1" style="stop-opacity:1; stop-color:#E26722"/>
  </linearGradient>
  <linearGradient id="id1" gradientUnits="userSpaceOnUse" x1="0" y1="83.98" x2="310.98" y2="83.98">
   <stop offset="0" style="stop-opacity:1; stop-color:#B82035"/>
   <stop offset="0.25098" style="stop-opacity:1; stop-color:#E4203E"/>
   <stop offset="0.501961" style="stop-opacity:1; stop-color:#ED2040"/>
   <stop offset="0.74902" style="stop-opacity:1; stop-color:#E3203E"/>
   <stop offset="1" style="stop-opacity:1; stop-color:#B82035"/>
  </linearGradient>
  <linearGradient id="id2" gradientUnits="userSpaceOnUse" x1="282.65" y1="107.53" x2="29.28" y2="107.53">
   <stop offset="0" style="stop-opacity:1; stop-color:#ABD044"/>
   <stop offset="1" style="stop-opacity:1; stop-color:#4D8548"/>
  </linearGradient>
 </defs>
 <g id="Layer_x0020_1">
  <metadata id="CorelCorpID_0Corel-Layer"/>
  <g id="GRAB.cdr">
   <path class="fil0" d="M7.33 50.22l17.48 0c2.54,-3.43 17.6,-9.31 22.92,-11.4 3.82,-1.51 8.55,-2.84 12.88,-4.01 3.2,-0.86 11.72,-2.05 13.89,-3.41l-9.92 -1.47c-0.76,1.16 -13.26,3.04 -15.51,3.55 -11.02,2.49 -35.12,10.47 -41.74,16.74z"/>
   <path class="fil0" d="M0.1 32.93l0 11.49 13.45 -5.55c15.53,-5.11 31.97,-9.47 48.56,-8.92 -3.7,-1.97 -26.49,-1.26 -32.06,-1 -10.54,0.47 -19.81,2.17 -29.95,3.98z"/>
   <path class="fil1" d="M0.1 44.42l0 6.23 7.23 -0.43c6.62,-6.27 30.72,-14.25 41.74,-16.74 2.25,-0.51 14.75,-2.39 15.51,-3.55l-2.47 0.02c-16.59,-0.55 -33.03,3.81 -48.56,8.92l-13.45 5.55z"/>
   <path class="fil1" d="M24.81 50.22l16.36 0.01c4.1,-3.54 13.84,-7.54 19.32,-9.79 5.82,-2.39 20.91,-6.4 22.23,-7.64l-8.22 -1.4c-2.17,1.36 -10.69,2.55 -13.89,3.41 -4.33,1.17 -9.06,2.5 -12.88,4.01 -5.32,2.09 -20.38,7.97 -22.92,11.4z"/>
   <path class="fil2" d="M41.17 50.23l-16.36 -0.01 -17.48 0 -7.23 0.43 0 3.48 69.5 0 0 -0.56c-2.8,-1.13 -7.37,-2.82 -10.26,-3.67 -3.25,-0.87 -6.26,-1.12 -9.55,-0.54 -4.8,0.85 -3.53,0.82 -8.62,0.87z"/>
   <path class="fil1" d="M59.34 49.9c2.89,0.85 7.46,2.54 10.26,3.67 2.55,-1.3 4.64,-3.04 7.26,-4.58l23.01 -10.79c0.09,-0.06 0.31,-0.09 0.37,-0.29 0.07,-0.21 0.26,-0.19 0.37,-0.31l-8.33 -2.17c-5.13,1.45 -28.88,9.41 -32.94,14.47z"/>
   <path class="fil0" d="M41.17 50.23c5.09,-0.05 3.82,-0.02 8.62,-0.87 3.29,-0.58 6.3,-0.33 9.55,0.54 4.06,-5.06 27.81,-13.02 32.94,-14.47l-9.56 -2.63c-1.32,1.24 -16.41,5.25 -22.23,7.64 -5.48,2.25 -15.22,6.25 -19.32,9.79z"/>
   <path class="fil0" d="M69.6 53.57l0 0.56 4.51 0c2.44,-1.88 11.58,-4.91 15.71,-5.02 5.51,-0.14 4.12,-0.18 8.33,-2.4 2.14,-1.14 4.73,-2.1 6.55,-3.56l-0.03 -4.07 -4.06 -1.48c-0.11,0.12 -0.3,0.1 -0.37,0.31 -0.06,0.2 -0.28,0.23 -0.37,0.29l-23.01 10.79c-2.62,1.54 -4.71,3.28 -7.26,4.58z"/>
   <path class="fil3" d="M114.33 54.13l9.26 0 -0.11 -15.19 -13.79 0.21 0.1 6.16c6.32,1.11 4.54,1.57 4.54,8.82z"/>
   <path class="fil4" d="M129.45 49.37l8.65 -0.2c2.7,-2.51 12.34,-4.53 15.73,-5.79l0.7 -3.13c-1.02,-0.77 -0.14,-0.48 -1.83,-0.63 -2.71,-0.25 -20.39,4.93 -23.4,5.47 -0.27,1.83 -0.61,3 0.15,4.28z"/>
   <path class="fil5" d="M129.45 49.37c-0.76,-1.28 -0.42,-2.45 -0.15,-4.28 3.01,-0.54 20.69,-5.72 23.4,-5.47 1.69,0.15 0.81,-0.14 1.83,0.63l1.7 -3.27c-8.29,0.55 -19.77,1.7 -27.53,3.84l0.02 9.01 0.73 -0.46z"/>
   <path class="fil5" d="M138.1 49.17c5.71,1.72 5.84,1.33 9.24,4.96l3.99 0 0.23 -3.46 3.52 -1.06c-0.92,-1.93 -1.33,-3.76 -1.25,-6.23 -3.39,1.26 -13.03,3.28 -15.73,5.79z"/>
   <path class="fil5" d="M98.96 49.81l5.75 2.12 0.01 -3.91c-2.08,-0.07 -3.83,0.99 -5.76,1.79z"/>
   <path class="fil6" d="M310.98 14.02c0,36.47 0,126.11 0,155.38 -33.42,-26.17 -243.45,62.25 -310.98,27.97 0,-27.9 0,-118.75 0,-155.38 67.53,34.28 277.56,-54.14 310.98,-27.97z"/>
   <path class="fil7" d="M310.98 10.72c0,36.47 0,81.17 0,110.44 -33.42,-26.17 -243.45,62.25 -310.98,27.97 0,-27.9 0,-73.82 0,-110.45 67.53,34.28 277.56,-54.14 310.98,-27.96z"/>
   <path class="fil8" d="M310.98 4.92c0,1.91 0,3.84 0,5.8 -33.42,-26.18 -243.45,62.24 -310.98,27.96 0,-1.95 0,-3.88 0,-5.79 67.53,34.28 277.56,-54.14 310.98,-27.97z"/>
   <path class="fil9" d="M294.88 26c-0.6,0 -1.17,0.11 -1.69,0.33 -0.53,0.21 -1,0.53 -1.42,0.94 -0.44,0.44 -0.78,0.94 -1.01,1.49 -0.22,0.55 -0.34,1.14 -0.34,1.75 0,0.59 0.11,1.16 0.32,1.69 0.22,0.53 0.54,1 0.95,1.43 0.43,0.44 0.91,0.78 1.46,1.02 0.54,0.23 1.12,0.35 1.72,0.35 0.59,0 1.15,-0.11 1.7,-0.34 0.54,-0.22 1.03,-0.54 1.46,-0.96 0.42,-0.41 0.75,-0.89 0.98,-1.44 0.22,-0.55 0.33,-1.13 0.33,-1.75 0,-0.6 -0.11,-1.18 -0.32,-1.72 -0.21,-0.53 -0.53,-1.01 -0.94,-1.43 -0.43,-0.44 -0.92,-0.78 -1.46,-1.01 -0.55,-0.23 -1.12,-0.35 -1.74,-0.35zm-2.43 1.19l2.54 0c0.89,0 1.57,0.16 2.03,0.47 0.47,0.31 0.7,0.77 0.7,1.37 0,0.42 -0.12,0.78 -0.35,1.08 -0.24,0.3 -0.57,0.52 -0.99,0.64l1.4 2.81 -1.91 0 -1.19 -2.54 -0.5 0 0 2.54 -1.73 0 0 -6.37zm1.73 1.1l0 1.7 0.62 0c0.38,0 0.66,-0.07 0.85,-0.21 0.19,-0.13 0.28,-0.34 0.28,-0.61 0,-0.31 -0.09,-0.53 -0.29,-0.67 -0.2,-0.14 -0.51,-0.21 -0.94,-0.21l-0.52 0zm0.7 -3.68c0.81,0 1.57,0.15 2.29,0.45 0.72,0.31 1.36,0.74 1.92,1.32 0.52,0.55 0.92,1.18 1.2,1.88 0.28,0.7 0.42,1.45 0.42,2.24 0,0.82 -0.15,1.58 -0.44,2.3 -0.3,0.71 -0.73,1.34 -1.29,1.88 -0.56,0.55 -1.2,0.98 -1.91,1.27 -0.71,0.29 -1.44,0.44 -2.19,0.44 -0.79,0 -1.54,-0.15 -2.24,-0.46 -0.71,-0.3 -1.34,-0.74 -1.9,-1.33 -0.54,-0.56 -0.96,-1.2 -1.25,-1.9 -0.29,-0.7 -0.44,-1.43 -0.44,-2.2 0,-0.79 0.16,-1.55 0.46,-2.28 0.31,-0.73 0.75,-1.38 1.32,-1.95 0.55,-0.54 1.17,-0.96 1.85,-1.24 0.69,-0.28 1.42,-0.42 2.2,-0.42z"/>
   <path class="fil10" d="M51.3 93.82l30.46 -4.82 7.02 45.26c-5.72,4.08 -13.27,6.86 -22.66,8.34 -8.81,1.39 -16.88,1.02 -24.22,-1.12 -13.71,-4.05 -21.78,-13.87 -24.2,-29.47 -1.72,-11.09 0.29,-20.53 6.02,-28.3 6.2,-8.51 16.04,-13.83 29.52,-15.96 4.41,-0.7 9.76,-0.99 16.06,-0.86l2.48 15.96c-4.82,-0.23 -9.3,-0.02 -13.45,0.64 -7.22,1.14 -12.54,3.73 -15.97,7.78 -3.71,4.35 -5,10.13 -3.88,17.36 0.97,6.25 3.61,11.07 7.93,14.45 4.32,3.38 9.61,4.57 15.87,3.58 1.98,-0.31 3.47,-0.61 4.47,-0.9l-2.88 -18.57 -10.25 1.62 -2.32 -14.99zm65.15 20.81l2.78 17.89 -20.21 3.2 -11.13 -71.77 28.45 -4.49c10.6,-1.68 18.92,-1.41 24.96,0.81 7.97,2.9 12.73,9.31 14.27,19.24 0.98,6.32 0,11.86 -2.92,16.62 -2.93,4.75 -7.4,8.17 -13.43,10.24 8.15,2.75 14.67,3.89 19.58,3.45l2.74 17.7c-12.77,-0.49 -27.8,-4.79 -45.09,-12.89zm-2.59 -16.73c0.19,-0.03 2,0.05 5.43,0.23 2.19,0.18 4.02,0.16 5.49,-0.08 3.77,-0.59 6.56,-2.07 8.39,-4.44 1.82,-2.37 2.44,-5.46 1.85,-9.26 -1.15,-7.42 -6.45,-10.38 -15.9,-8.89l-8.53 1.35 3.27 21.09zm72.66 11.6c-0.33,4.21 -0.5,8.37 -0.52,12.47l-20.21 3.19c0.35,-12.47 1.66,-25.33 3.93,-38.57 2.51,-15.46 5.79,-27.83 9.85,-37.13l19.25 -3.04c14.78,17.21 26.79,39.82 36.04,67.82l-20.21 3.2c-0.87,-2.64 -2.23,-6.55 -4.08,-11.74l-24.05 3.8zm1.7 -15.63l16 -2.53c-2.8,-6.69 -6.55,-13.36 -11.25,-20.02 -2,6.92 -3.59,14.44 -4.75,22.55zm41.26 -52.3l36.6 -5.78c10.72,-1.7 18.33,0.73 22.82,7.29 1.6,2.32 2.62,4.9 3.06,7.74 1.02,6.57 -1.59,11.91 -7.82,16l0.03 0.19c9.24,1.78 14.57,7.28 16,16.5 1.05,6.77 -0.92,12.36 -5.93,16.79 -4.2,3.7 -9.88,6.12 -17.03,7.25l-36.6 5.79 -11.13 -71.77zm26.69 38.59l2.33 14.99 11.11 -1.76c7.03,-1.11 10.16,-4.11 9.4,-9.01 -0.79,-5.1 -4.76,-7.08 -11.92,-5.95l-10.92 1.73zm-2.32 -14.99l11.11 -1.76c6.13,-0.97 8.88,-3.49 8.25,-7.55 -0.38,-2.45 -1.72,-3.92 -4.02,-4.42 -1.42,-0.3 -3.6,-0.22 -6.54,0.25l-10.63 1.68 1.83 11.8z"/>
   <path class="fil11" d="M49.21 90.3l30.46 -4.81 7.02 45.26c-5.71,4.08 -13.26,6.86 -22.65,8.34 -8.82,1.39 -16.89,1.02 -24.22,-1.13 -13.72,-4.04 -21.78,-13.86 -24.2,-29.46 -1.72,-11.09 0.28,-20.53 6.01,-28.3 6.21,-8.51 16.05,-13.84 29.52,-15.96 4.41,-0.7 9.76,-0.99 16.06,-0.86l2.48 15.96c-4.81,-0.23 -9.29,-0.02 -13.45,0.64 -7.21,1.14 -12.54,3.73 -15.97,7.77 -3.71,4.35 -5,10.14 -3.88,17.36 0.97,6.26 3.61,11.07 7.93,14.45 4.32,3.38 9.61,4.58 15.87,3.59 1.98,-0.31 3.47,-0.62 4.47,-0.91l-2.88 -18.56 -10.25 1.62 -2.32 -15z"/>
   <path id="1" class="fil11" d="M114.37 111.12l2.77 17.89 -20.21 3.2 -11.13 -71.77 28.45 -4.5c10.6,-1.67 18.92,-1.4 24.96,0.82 7.97,2.9 12.73,9.31 14.27,19.24 0.98,6.32 0.01,11.86 -2.92,16.61 -2.92,4.76 -7.4,8.18 -13.42,10.25 8.14,2.74 14.67,3.89 19.57,3.45l2.74 17.7c-12.76,-0.49 -27.79,-4.79 -45.08,-12.89zm-2.6 -16.74c0.2,-0.02 2.01,0.05 5.44,0.24 2.18,0.18 4.01,0.16 5.48,-0.08 3.77,-0.59 6.57,-2.08 8.39,-4.45 1.83,-2.36 2.44,-5.45 1.85,-9.26 -1.15,-7.41 -6.45,-10.37 -15.9,-8.88l-8.53 1.35 3.27 21.08z"/>
   <path id="2" class="fil11" d="M184.44 105.99c-0.33,4.21 -0.51,8.37 -0.52,12.47l-20.22 3.19c0.36,-12.47 1.67,-25.33 3.93,-38.57 2.51,-15.46 5.79,-27.84 9.85,-37.13l19.26 -3.04c14.77,17.21 26.78,39.82 36.03,67.82l-20.21 3.2c-0.87,-2.64 -2.23,-6.55 -4.08,-11.74l-24.04 3.8zm1.69 -15.63l16 -2.53c-2.8,-6.69 -6.55,-13.36 -11.25,-20.02 -2,6.92 -3.58,14.44 -4.75,22.55z"/>
   <path id="3" class="fil11" d="M227.39 38.06l36.6 -5.79c10.73,-1.69 18.34,0.74 22.82,7.3 1.6,2.32 2.63,4.9 3.07,7.74 1.02,6.57 -1.59,11.91 -7.83,16l0.03 0.19c9.24,1.78 14.58,7.27 16.01,16.49 1.05,6.78 -0.93,12.37 -5.94,16.8 -4.2,3.7 -9.88,6.12 -17.03,7.25l-36.6 5.78 -11.13 -71.76zm26.7 38.59l2.32 14.99 11.11 -1.76c7.03,-1.11 10.16,-4.12 9.4,-9.02 -0.79,-5.09 -4.76,-7.07 -11.91,-5.94l-10.92 1.73zm-2.33 -15l11.11 -1.75c6.14,-0.97 8.89,-3.49 8.26,-7.55 -0.38,-2.45 -1.72,-3.92 -4.03,-4.42 -1.42,-0.3 -3.6,-0.22 -6.53,0.24l-10.64 1.69 1.83 11.79z"/>
  </g>
 </g>
</svg>
