<?xml version="1.0" encoding="UTF-8"?>
<!DOCTYPE svg PUBLIC "-//W3C//DTD SVG 1.1//EN" "http://www.w3.org/Graphics/SVG/1.1/DTD/svg11.dtd">
<!-- Creator: CorelDRAW 2019 (64-Bit) -->
<svg xmlns="http://www.w3.org/2000/svg" xml:space="preserve" width="220px" height="155px" version="1.1" style="shape-rendering:geometricPrecision; text-rendering:geometricPrecision; image-rendering:optimizeQuality; fill-rule:evenodd; clip-rule:evenodd"
viewBox="0 0 59.85 42.28"
 xmlns:xlink="http://www.w3.org/1999/xlink"
 xmlns:xodm="http://www.corel.com/coreldraw/odm/2003">
 <defs>
  <style type="text/css">
   <![CDATA[
    .fil8 {fill:#D2D3D5}
    .fil3 {fill:black}
    .fil9 {fill:#EAC46D}
    .fil0 {fill:#606062;fill-rule:nonzero}
    .fil2 {fill:black;fill-rule:nonzero}
    .fil1 {fill:#BB2126;fill-rule:nonzero}
    .fil4 {fill:url(#id0)}
    .fil6 {fill:url(#id1)}
    .fil5 {fill:url(#id2)}
    .fil7 {fill:url(#id3)}
   ]]>
  </style>
  <linearGradient id="id0" gradientUnits="userSpaceOnUse" x1="11.93" y1="16.66" x2="47.93" y2="16.66">
   <stop offset="0" style="stop-opacity:1; stop-color:#FDBA2D"/>
   <stop offset="0.490196" style="stop-opacity:1; stop-color:#FFFBD6"/>
   <stop offset="1" style="stop-opacity:1; stop-color:#FDB717"/>
  </linearGradient>
  <linearGradient id="id1" gradientUnits="userSpaceOnUse" x1="42.89" y1="27.39" x2="42.89" y2="13.22">
   <stop offset="0" style="stop-opacity:1; stop-color:#B73538"/>
   <stop offset="0.352941" style="stop-opacity:1; stop-color:#911B1E"/>
   <stop offset="0.709804" style="stop-opacity:1; stop-color:#AB373A"/>
   <stop offset="1" style="stop-opacity:1; stop-color:#6B0004"/>
  </linearGradient>
  <linearGradient id="id2" gradientUnits="userSpaceOnUse" xlink:href="#id1" x1="17.24" y1="27.39" x2="17.24" y2="13.22">
  </linearGradient>
  <linearGradient id="id3" gradientUnits="userSpaceOnUse" x1="30.06" y1="28.5" x2="30.06" y2="13.22">
   <stop offset="0" style="stop-opacity:1; stop-color:#96989A"/>
   <stop offset="0.0941176" style="stop-opacity:1; stop-color:#96989B"/>
   <stop offset="0.278431" style="stop-opacity:1; stop-color:#A3A4A7"/>
   <stop offset="0.501961" style="stop-opacity:1; stop-color:#E6E7E8"/>
   <stop offset="0.760784" style="stop-opacity:1; stop-color:#A5A6A8"/>
   <stop offset="1" style="stop-opacity:1; stop-color:#97999C"/>
  </linearGradient>
 </defs>
 <g id="Layer_x0020_1">
  <metadata id="CorelCorpID_0Corel-Layer"/>
  <g id="_2701032085008">
   <path class="fil0" d="M1.57 30.19l1.34 0 1.07 2.8 1.13 -2.8 1.36 0 0.79 5.25 -1.36 0 -0.39 -3.02 -0.01 0 -1.26 3.02 -0.55 0 -1.2 -3.02 -0.01 0 -0.44 3.02 -1.36 0 0.89 -5.25zm7.63 1.15l0 0.88 1.54 0 0 1.16 -1.54 0 0 0.9 1.63 0 0 1.16 -2.99 0 0 -5.25 2.99 0 0 1.15 -1.63 0zm3.84 0l0 0.88 1.54 0 0 1.16 -1.54 0 0 0.9 1.62 0 0 1.16 -2.99 0 0 -5.25 2.99 0 0 1.15 -1.62 0zm6.59 2.94l0 1.16 -4.5 0 2.49 -4.1 -2.06 0 0 -1.15 4.35 0 -2.48 4.09 2.2 0zm3.09 -2.47l-0.01 0 -0.57 1.67 1.14 0 -0.56 -1.67zm-0.95 2.72l-0.37 0.91 -1.45 0 2.02 -5.25 1.5 0 1.97 5.25 -1.45 0 -0.34 -0.91 -1.88 0zm5.46 -2.28l0.16 0c0.09,0 0.17,-0.01 0.26,-0.02 0.09,-0.01 0.17,-0.03 0.24,-0.07 0.07,-0.03 0.13,-0.08 0.17,-0.15 0.04,-0.07 0.07,-0.16 0.07,-0.27 0,-0.12 -0.03,-0.21 -0.08,-0.28 -0.05,-0.07 -0.11,-0.12 -0.19,-0.15 -0.07,-0.04 -0.16,-0.06 -0.25,-0.07 -0.09,0 -0.19,-0.01 -0.28,-0.01l-0.1 0 0 1.02zm-1.36 3.19l0 -5.25 1.95 0c0.23,0 0.44,0.02 0.64,0.07 0.19,0.05 0.35,0.13 0.49,0.24 0.14,0.1 0.24,0.24 0.32,0.42 0.07,0.17 0.11,0.38 0.11,0.63 0,0.24 -0.04,0.45 -0.13,0.64 -0.09,0.18 -0.24,0.33 -0.45,0.44l0 0.01c0.38,0.05 0.65,0.19 0.82,0.43 0.17,0.24 0.25,0.54 0.25,0.91 0,0.27 -0.05,0.5 -0.16,0.69 -0.11,0.19 -0.25,0.34 -0.43,0.45 -0.17,0.11 -0.38,0.2 -0.6,0.24 -0.23,0.05 -0.47,0.08 -0.71,0.08l-2.1 0zm1.36 -1.05l0.18 0c0.1,0 0.21,0 0.34,0 0.12,-0.01 0.24,-0.03 0.35,-0.06 0.12,-0.03 0.21,-0.09 0.28,-0.16 0.08,-0.08 0.11,-0.19 0.11,-0.33 0,-0.16 -0.03,-0.28 -0.11,-0.36 -0.07,-0.08 -0.17,-0.13 -0.28,-0.17 -0.11,-0.03 -0.23,-0.04 -0.36,-0.04 -0.13,0 -0.26,0 -0.37,0l-0.14 0 0 1.12zm10.98 -1.88c0,0.19 -0.01,0.37 -0.02,0.55 -0.01,0.18 -0.04,0.35 -0.07,0.53 -0.04,0.17 -0.09,0.34 -0.16,0.5 -0.07,0.17 -0.17,0.33 -0.28,0.49 -0.26,0.36 -0.58,0.63 -0.95,0.79 -0.37,0.16 -0.78,0.24 -1.22,0.24 -0.41,0 -0.79,-0.07 -1.14,-0.2 -0.34,-0.13 -0.63,-0.32 -0.88,-0.57 -0.25,-0.24 -0.44,-0.53 -0.57,-0.87 -0.14,-0.34 -0.21,-0.72 -0.21,-1.13 0,-0.43 0.07,-0.81 0.21,-1.16 0.13,-0.35 0.33,-0.65 0.58,-0.89 0.25,-0.25 0.55,-0.44 0.9,-0.57 0.35,-0.14 0.74,-0.21 1.16,-0.21 0.54,0 1.02,0.13 1.42,0.37 0.4,0.24 0.72,0.61 0.95,1.1l-1.3 0.55c-0.09,-0.25 -0.23,-0.46 -0.43,-0.61 -0.19,-0.15 -0.43,-0.23 -0.7,-0.23 -0.23,0 -0.42,0.05 -0.6,0.15 -0.17,0.09 -0.31,0.22 -0.42,0.38 -0.12,0.16 -0.2,0.34 -0.26,0.53 -0.06,0.2 -0.09,0.4 -0.09,0.6 0,0.2 0.03,0.4 0.09,0.6 0.06,0.2 0.15,0.37 0.27,0.53 0.11,0.15 0.26,0.27 0.43,0.37 0.18,0.09 0.37,0.14 0.6,0.14 0.29,0 0.55,-0.07 0.75,-0.23 0.2,-0.15 0.32,-0.37 0.35,-0.68l-1.12 0 0 -1.07 2.71 0zm2 0.03l0.13 0c0.11,0 0.22,-0.01 0.33,-0.02 0.11,-0.01 0.21,-0.04 0.31,-0.09 0.09,-0.05 0.16,-0.11 0.22,-0.2 0.06,-0.08 0.09,-0.2 0.09,-0.34 0,-0.15 -0.03,-0.26 -0.09,-0.35 -0.06,-0.08 -0.13,-0.15 -0.22,-0.2 -0.1,-0.04 -0.2,-0.07 -0.31,-0.09 -0.11,-0.01 -0.22,-0.02 -0.33,-0.02l-0.13 0 0 1.31zm3 2.9l-1.7 0 -1.29 -2.02 -0.01 0 0 2.02 -1.37 0 0 -5.25 2.04 0c0.26,0 0.5,0.03 0.73,0.09 0.22,0.07 0.41,0.16 0.57,0.3 0.17,0.13 0.29,0.3 0.39,0.5 0.09,0.2 0.14,0.45 0.14,0.72 0,0.18 -0.03,0.36 -0.08,0.52 -0.05,0.17 -0.12,0.32 -0.22,0.45 -0.09,0.13 -0.21,0.24 -0.36,0.33 -0.14,0.09 -0.31,0.15 -0.49,0.19l1.65 2.15zm3.01 -4.1c-0.21,0 -0.4,0.04 -0.58,0.11 -0.18,0.08 -0.33,0.18 -0.47,0.31 -0.13,0.13 -0.24,0.27 -0.32,0.44 -0.08,0.17 -0.12,0.34 -0.12,0.52 0,0.23 0.04,0.44 0.12,0.63 0.08,0.19 0.19,0.35 0.32,0.49 0.14,0.14 0.29,0.25 0.47,0.33 0.18,0.08 0.37,0.12 0.58,0.12 0.2,0 0.39,-0.04 0.57,-0.12 0.18,-0.08 0.34,-0.19 0.47,-0.33 0.14,-0.14 0.24,-0.3 0.32,-0.49 0.08,-0.19 0.12,-0.4 0.12,-0.63 0,-0.18 -0.04,-0.35 -0.12,-0.52 -0.08,-0.17 -0.18,-0.31 -0.32,-0.44 -0.13,-0.13 -0.29,-0.23 -0.47,-0.31 -0.18,-0.07 -0.37,-0.11 -0.57,-0.11zm0 -1.33c0.37,0 0.74,0.07 1.09,0.2 0.35,0.14 0.66,0.32 0.93,0.56 0.27,0.24 0.48,0.52 0.64,0.86 0.16,0.33 0.24,0.69 0.24,1.09 0,0.42 -0.07,0.81 -0.21,1.17 -0.15,0.35 -0.35,0.65 -0.61,0.91 -0.25,0.26 -0.56,0.46 -0.92,0.6 -0.35,0.14 -0.74,0.21 -1.16,0.21 -0.43,0 -0.81,-0.07 -1.17,-0.21 -0.35,-0.14 -0.66,-0.34 -0.92,-0.6 -0.26,-0.26 -0.46,-0.56 -0.6,-0.91 -0.15,-0.36 -0.22,-0.75 -0.22,-1.17 0,-0.4 0.08,-0.76 0.24,-1.09 0.16,-0.34 0.38,-0.62 0.65,-0.86 0.27,-0.24 0.58,-0.42 0.93,-0.56 0.35,-0.13 0.71,-0.2 1.09,-0.2zm8.09 0.18l0 2.95c0,0.17 0,0.33 -0.01,0.5 -0.01,0.17 -0.03,0.33 -0.07,0.49 -0.03,0.16 -0.09,0.31 -0.16,0.45 -0.08,0.15 -0.18,0.29 -0.31,0.41 -0.11,0.11 -0.23,0.2 -0.37,0.27 -0.14,0.08 -0.28,0.14 -0.43,0.18 -0.15,0.05 -0.31,0.08 -0.47,0.11 -0.16,0.02 -0.32,0.03 -0.47,0.03 -0.15,0 -0.31,-0.01 -0.47,-0.03 -0.16,-0.03 -0.32,-0.06 -0.47,-0.11 -0.15,-0.04 -0.29,-0.1 -0.43,-0.18 -0.14,-0.07 -0.26,-0.16 -0.37,-0.27 -0.13,-0.12 -0.23,-0.26 -0.31,-0.41 -0.07,-0.14 -0.13,-0.29 -0.16,-0.45 -0.04,-0.16 -0.06,-0.32 -0.07,-0.49 -0.01,-0.17 -0.01,-0.33 -0.01,-0.5l0 -2.95 1.36 0 0 2.76c0,0.17 0.01,0.34 0.02,0.51 0.02,0.17 0.06,0.33 0.12,0.46 0.06,0.14 0.15,0.25 0.27,0.33 0.13,0.09 0.3,0.13 0.52,0.13 0.22,0 0.39,-0.04 0.52,-0.13 0.12,-0.08 0.21,-0.19 0.27,-0.33 0.07,-0.13 0.1,-0.29 0.12,-0.46 0.01,-0.17 0.02,-0.34 0.02,-0.51l0 -2.76 1.36 0zm2.23 2.41l0.23 0c0.13,0 0.25,-0.01 0.36,-0.01 0.12,-0.01 0.22,-0.03 0.32,-0.07 0.09,-0.04 0.16,-0.1 0.22,-0.19 0.06,-0.09 0.08,-0.21 0.08,-0.37 0,-0.17 -0.02,-0.3 -0.08,-0.39 -0.05,-0.09 -0.12,-0.16 -0.21,-0.2 -0.09,-0.04 -0.19,-0.06 -0.31,-0.07 -0.12,-0.01 -0.25,-0.01 -0.38,-0.01l-0.23 0 0 1.31zm-1.36 -2.41l2.09 0c0.28,0 0.54,0.03 0.77,0.1 0.24,0.07 0.44,0.17 0.61,0.31 0.16,0.14 0.29,0.32 0.39,0.54 0.09,0.21 0.13,0.47 0.13,0.78 0,0.62 -0.16,1.07 -0.48,1.35 -0.32,0.29 -0.78,0.43 -1.38,0.43l-0.77 0 0 1.74 -1.36 0 0 -5.25z"/>
   <path class="fil1" d="M1.29 40.51l0 0 -0.27 0.78 0.53 0 -0.26 -0.78zm-0.44 1.27l-0.17 0.42 -0.68 0 0.94 -2.45 0.7 0 0.92 2.45 -0.68 0 -0.16 -0.42 -0.87 0zm2.58 -0.54l0.6 -1.49 0.69 0 -1.05 2.45 -0.49 0 -1.03 -2.45 0.69 0 0.59 1.49zm2.09 0.96l-0.64 0 0 -2.45 0.64 0 0 2.45zm1.49 -1.69l-0.01 0 -0.26 0.78 0.53 0 -0.26 -0.78zm-0.45 1.27l-0.17 0.42 -0.68 0 0.95 -2.45 0.69 0 0.93 2.45 -0.68 0 -0.16 -0.42 -0.88 0zm2.7 0.42l-0.64 0 0 -1.91 -0.53 0 0 -0.54 1.7 0 0 0.54 -0.53 0 0 1.91zm1.39 0l-0.63 0 0 -2.45 0.63 0 0 2.45zm1.65 -1.91c-0.09,0 -0.18,0.02 -0.26,0.05 -0.09,0.04 -0.16,0.08 -0.22,0.14 -0.07,0.06 -0.12,0.13 -0.15,0.21 -0.04,0.08 -0.06,0.16 -0.06,0.24 0,0.11 0.02,0.21 0.06,0.3 0.03,0.09 0.08,0.16 0.15,0.23 0.06,0.06 0.13,0.11 0.22,0.15 0.08,0.04 0.17,0.06 0.26,0.06 0.1,0 0.19,-0.02 0.27,-0.06 0.09,-0.04 0.16,-0.09 0.22,-0.15 0.07,-0.07 0.12,-0.14 0.15,-0.23 0.04,-0.09 0.06,-0.19 0.06,-0.3 0,-0.08 -0.02,-0.16 -0.06,-0.24 -0.03,-0.08 -0.08,-0.15 -0.15,-0.21 -0.06,-0.06 -0.13,-0.1 -0.22,-0.14 -0.08,-0.03 -0.17,-0.05 -0.27,-0.05zm0 -0.62c0.18,0 0.35,0.03 0.51,0.09 0.17,0.06 0.31,0.15 0.44,0.26 0.12,0.11 0.22,0.25 0.3,0.4 0.07,0.16 0.11,0.33 0.11,0.51 0,0.2 -0.03,0.38 -0.1,0.55 -0.07,0.16 -0.16,0.31 -0.28,0.43 -0.12,0.12 -0.26,0.21 -0.43,0.27 -0.17,0.07 -0.35,0.1 -0.55,0.1 -0.19,0 -0.37,-0.03 -0.54,-0.1 -0.17,-0.06 -0.31,-0.15 -0.43,-0.27 -0.12,-0.12 -0.21,-0.27 -0.28,-0.43 -0.07,-0.17 -0.1,-0.35 -0.1,-0.55 0,-0.18 0.03,-0.35 0.11,-0.51 0.07,-0.15 0.18,-0.29 0.3,-0.4 0.13,-0.11 0.27,-0.2 0.44,-0.26 0.16,-0.06 0.33,-0.09 0.5,-0.09zm1.66 0.08l0.64 0 1.16 1.5 0.01 0 0 -1.5 0.64 0 0 2.45 -0.64 0 -1.17 -1.5 0 0 0 1.5 -0.64 0 0 -2.45zm4.88 1.16l0 0.49 -0.93 0 0 -0.49 0.93 0zm3.05 -0.21l0 -0.95 0.64 0 0 2.45 -0.64 0 0 -1 -0.92 0 0 1 -0.64 0 0 -2.45 0.64 0 0 0.95 0.92 0zm2.13 -0.19l-0.01 0 -0.26 0.78 0.53 0 -0.26 -0.78zm-0.45 1.27l-0.17 0.42 -0.68 0 0.95 -2.45 0.7 0 0.92 2.45 -0.68 0 -0.16 -0.42 -0.88 0zm3.11 -2.03l0 1.66c0,0.13 -0.02,0.24 -0.06,0.35 -0.03,0.1 -0.08,0.19 -0.15,0.27 -0.07,0.08 -0.15,0.13 -0.25,0.18 -0.1,0.04 -0.22,0.06 -0.36,0.06 -0.13,0 -0.26,-0.03 -0.36,-0.1 -0.11,-0.06 -0.2,-0.15 -0.27,-0.26l0.37 -0.39c0.04,0.05 0.08,0.1 0.12,0.14 0.05,0.05 0.09,0.07 0.14,0.07 0.04,0 0.08,-0.01 0.1,-0.04 0.03,-0.02 0.05,-0.06 0.06,-0.09 0.01,-0.04 0.02,-0.08 0.02,-0.12 0,-0.04 0,-0.08 0,-0.11l0 -1.62 0.64 0zm1.59 0l0 1.66c0,0.13 -0.02,0.24 -0.05,0.35 -0.04,0.1 -0.09,0.19 -0.16,0.27 -0.07,0.08 -0.15,0.13 -0.25,0.18 -0.1,0.04 -0.22,0.06 -0.36,0.06 -0.13,0 -0.25,-0.03 -0.36,-0.1 -0.1,-0.06 -0.19,-0.15 -0.27,-0.26l0.37 -0.39c0.04,0.05 0.08,0.1 0.12,0.14 0.05,0.05 0.09,0.07 0.14,0.07 0.04,0 0.08,-0.01 0.11,-0.04 0.02,-0.02 0.04,-0.06 0.05,-0.09 0.01,-0.04 0.02,-0.08 0.02,-0.12 0,-0.04 0,-0.08 0,-0.11l0 -1.62 0.64 0zm2.41 1.16l0 0.49 -0.93 0 0 -0.49 0.93 0zm3.63 -1.16l0 1.38c0,0.08 -0.01,0.16 -0.01,0.23 0,0.08 -0.01,0.16 -0.03,0.23 -0.02,0.08 -0.04,0.15 -0.08,0.21 -0.03,0.07 -0.08,0.14 -0.14,0.19 -0.05,0.05 -0.11,0.1 -0.17,0.13 -0.07,0.04 -0.14,0.06 -0.21,0.09 -0.07,0.02 -0.14,0.03 -0.21,0.04 -0.08,0.01 -0.15,0.02 -0.22,0.02 -0.08,0 -0.15,-0.01 -0.22,-0.02 -0.08,-0.01 -0.15,-0.02 -0.22,-0.04 -0.07,-0.03 -0.14,-0.05 -0.2,-0.09 -0.07,-0.03 -0.13,-0.08 -0.18,-0.13 -0.06,-0.05 -0.11,-0.12 -0.14,-0.19 -0.04,-0.06 -0.06,-0.13 -0.08,-0.21 -0.01,-0.07 -0.02,-0.15 -0.03,-0.23 0,-0.07 0,-0.15 0,-0.23l0 -1.38 0.63 0 0 1.29c0,0.08 0.01,0.16 0.01,0.24 0.01,0.08 0.03,0.15 0.06,0.22 0.02,0.06 0.07,0.11 0.13,0.15 0.05,0.04 0.13,0.06 0.24,0.06 0.1,0 0.18,-0.02 0.24,-0.06 0.06,-0.04 0.1,-0.09 0.13,-0.15 0.03,-0.07 0.04,-0.14 0.05,-0.22 0.01,-0.08 0.01,-0.16 0.01,-0.24l0 -1.29 0.64 0zm0.67 0l0.63 0 0.5 1.31 0.52 -1.31 0.64 0 0.37 2.45 -0.64 0 -0.18 -1.41 0 0 -0.59 1.41 -0.26 0 -0.56 -1.41 -0.01 0 -0.2 1.41 -0.64 0 0.42 -2.45zm3.57 1.1l0.06 0c0.05,0 0.1,0 0.15,-0.01 0.06,-0.01 0.1,-0.02 0.15,-0.04 0.04,-0.02 0.07,-0.05 0.1,-0.09 0.03,-0.04 0.04,-0.1 0.04,-0.17 0,-0.06 -0.01,-0.12 -0.04,-0.16 -0.03,-0.04 -0.06,-0.07 -0.1,-0.09 -0.05,-0.02 -0.09,-0.03 -0.15,-0.04 -0.05,-0.01 -0.1,-0.01 -0.15,-0.01l-0.06 0 0 0.61zm1.4 1.35l-0.79 0 -0.61 -0.94 0 0 0 0.94 -0.64 0 0 -2.45 0.95 0c0.12,0 0.24,0.02 0.34,0.04 0.11,0.03 0.2,0.08 0.27,0.14 0.08,0.06 0.14,0.14 0.18,0.24 0.04,0.09 0.07,0.21 0.07,0.34 0,0.08 -0.02,0.16 -0.04,0.24 -0.02,0.07 -0.06,0.14 -0.1,0.21 -0.05,0.06 -0.1,0.11 -0.17,0.15 -0.07,0.04 -0.15,0.07 -0.23,0.09l0.77 1zm1.24 -1.69l0 0 -0.27 0.78 0.53 0 -0.26 -0.78zm-0.44 1.27l-0.17 0.42 -0.68 0 0.94 -2.45 0.7 0 0.93 2.45 -0.69 0 -0.15 -0.42 -0.88 0zm3.47 -1.08l0 -0.95 0.64 0 0 2.45 -0.64 0 0 -1 -0.92 0 0 1 -0.64 0 0 -2.45 0.64 0 0 0.95 0.92 0zm3.07 0.21l0 0.49 -0.93 0 0 -0.49 0.93 0zm2.47 1.29l-0.64 0 0 -1.91 -0.52 0 0 -0.54 1.69 0 0 0.54 -0.53 0 0 1.91zm1.99 -1.91c-0.09,0 -0.18,0.02 -0.27,0.05 -0.08,0.04 -0.15,0.08 -0.22,0.14 -0.06,0.06 -0.11,0.13 -0.14,0.21 -0.04,0.08 -0.06,0.16 -0.06,0.24 0,0.11 0.02,0.21 0.06,0.3 0.03,0.09 0.08,0.16 0.14,0.23 0.07,0.06 0.14,0.11 0.22,0.15 0.09,0.04 0.18,0.06 0.27,0.06 0.1,0 0.19,-0.02 0.27,-0.06 0.08,-0.04 0.16,-0.09 0.22,-0.15 0.06,-0.07 0.11,-0.14 0.15,-0.23 0.04,-0.09 0.06,-0.19 0.06,-0.3 0,-0.08 -0.02,-0.16 -0.06,-0.24 -0.04,-0.08 -0.09,-0.15 -0.15,-0.21 -0.06,-0.06 -0.14,-0.1 -0.22,-0.14 -0.08,-0.03 -0.17,-0.05 -0.27,-0.05zm0 -0.62c0.18,0 0.35,0.03 0.51,0.09 0.17,0.06 0.31,0.15 0.44,0.26 0.12,0.11 0.22,0.25 0.3,0.4 0.07,0.16 0.11,0.33 0.11,0.51 0,0.2 -0.03,0.38 -0.1,0.55 -0.07,0.16 -0.16,0.31 -0.28,0.43 -0.12,0.12 -0.27,0.21 -0.43,0.27 -0.17,0.07 -0.35,0.1 -0.55,0.1 -0.19,0 -0.38,-0.03 -0.54,-0.1 -0.17,-0.06 -0.31,-0.15 -0.43,-0.27 -0.12,-0.12 -0.22,-0.27 -0.28,-0.43 -0.07,-0.17 -0.1,-0.35 -0.1,-0.55 0,-0.18 0.03,-0.35 0.11,-0.51 0.07,-0.15 0.17,-0.29 0.3,-0.4 0.13,-0.11 0.27,-0.2 0.43,-0.26 0.17,-0.06 0.34,-0.09 0.51,-0.09zm3.78 0.08l0 1.38c0,0.08 0,0.16 0,0.23 -0.01,0.08 -0.02,0.16 -0.03,0.23 -0.02,0.08 -0.04,0.15 -0.08,0.21 -0.03,0.07 -0.08,0.14 -0.14,0.19 -0.05,0.05 -0.11,0.1 -0.18,0.13 -0.06,0.04 -0.13,0.06 -0.2,0.09 -0.07,0.02 -0.14,0.03 -0.22,0.04 -0.07,0.01 -0.14,0.02 -0.22,0.02 -0.07,0 -0.14,-0.01 -0.22,-0.02 -0.07,-0.01 -0.14,-0.02 -0.21,-0.04 -0.07,-0.03 -0.14,-0.05 -0.21,-0.09 -0.06,-0.03 -0.12,-0.08 -0.17,-0.13 -0.06,-0.05 -0.11,-0.12 -0.14,-0.19 -0.04,-0.06 -0.06,-0.13 -0.08,-0.21 -0.02,-0.07 -0.03,-0.15 -0.03,-0.23 0,-0.07 -0.01,-0.15 -0.01,-0.23l0 -1.38 0.64 0 0 1.29c0,0.08 0,0.16 0.01,0.24 0.01,0.08 0.02,0.15 0.05,0.22 0.03,0.06 0.07,0.11 0.13,0.15 0.06,0.04 0.14,0.06 0.24,0.06 0.11,0 0.19,-0.02 0.24,-0.06 0.06,-0.04 0.11,-0.09 0.13,-0.15 0.03,-0.07 0.05,-0.14 0.06,-0.22 0,-0.08 0.01,-0.16 0.01,-0.24l0 -1.29 0.63 0zm1.05 1.1l0.06 0c0.05,0 0.1,0 0.15,-0.01 0.06,-0.01 0.1,-0.02 0.15,-0.04 0.04,-0.02 0.07,-0.05 0.1,-0.09 0.03,-0.04 0.04,-0.1 0.04,-0.17 0,-0.06 -0.01,-0.12 -0.04,-0.16 -0.03,-0.04 -0.06,-0.07 -0.1,-0.09 -0.05,-0.02 -0.09,-0.03 -0.15,-0.04 -0.05,-0.01 -0.1,-0.01 -0.15,-0.01l-0.06 0 0 0.61zm1.4 1.35l-0.8 0 -0.6 -0.94 0 0 0 0.94 -0.64 0 0 -2.45 0.95 0c0.12,0 0.24,0.02 0.34,0.04 0.1,0.03 0.19,0.08 0.27,0.14 0.08,0.06 0.14,0.14 0.18,0.24 0.04,0.09 0.06,0.21 0.06,0.34 0,0.08 -0.01,0.16 -0.03,0.24 -0.02,0.07 -0.06,0.14 -0.1,0.21 -0.05,0.06 -0.1,0.11 -0.17,0.15 -0.07,0.04 -0.15,0.07 -0.23,0.09l0.77 1zm1.52 -1.82c-0.06,-0.05 -0.13,-0.09 -0.2,-0.12 -0.07,-0.03 -0.15,-0.04 -0.22,-0.04 -0.04,0 -0.07,0 -0.1,0.01 -0.03,0.01 -0.06,0.02 -0.09,0.04 -0.02,0.02 -0.04,0.04 -0.06,0.06 -0.02,0.03 -0.03,0.06 -0.03,0.09 0,0.04 0.01,0.07 0.03,0.1 0.02,0.02 0.04,0.04 0.07,0.06 0.03,0.02 0.06,0.04 0.09,0.05 0.04,0.01 0.07,0.02 0.09,0.03l0.17 0.05c0.08,0.02 0.16,0.05 0.24,0.09 0.07,0.04 0.13,0.08 0.19,0.13 0.05,0.05 0.09,0.12 0.13,0.19 0.03,0.07 0.04,0.16 0.04,0.26 0,0.12 -0.02,0.24 -0.05,0.36 -0.04,0.11 -0.1,0.21 -0.2,0.3 -0.1,0.08 -0.21,0.14 -0.33,0.17 -0.12,0.04 -0.24,0.06 -0.37,0.06 -0.15,0 -0.3,-0.03 -0.45,-0.08 -0.15,-0.04 -0.28,-0.11 -0.41,-0.2l0.27 -0.52c0.08,0.07 0.17,0.13 0.26,0.18 0.1,0.05 0.2,0.08 0.31,0.08 0.04,0 0.07,-0.01 0.11,-0.02 0.04,-0.01 0.07,-0.02 0.1,-0.04 0.03,-0.02 0.05,-0.05 0.07,-0.08 0.02,-0.03 0.03,-0.07 0.03,-0.11 0,-0.04 -0.01,-0.08 -0.04,-0.11 -0.03,-0.03 -0.06,-0.06 -0.1,-0.08 -0.04,-0.02 -0.08,-0.04 -0.13,-0.05 -0.04,-0.02 -0.08,-0.03 -0.12,-0.04 -0.1,-0.03 -0.19,-0.06 -0.27,-0.09 -0.08,-0.03 -0.15,-0.07 -0.21,-0.12 -0.06,-0.05 -0.1,-0.11 -0.13,-0.19 -0.04,-0.07 -0.05,-0.17 -0.05,-0.29 0,-0.12 0.02,-0.24 0.06,-0.34 0.04,-0.1 0.1,-0.19 0.18,-0.26 0.07,-0.07 0.16,-0.13 0.26,-0.17 0.11,-0.03 0.22,-0.05 0.34,-0.05 0.06,0 0.13,0 0.2,0.01 0.07,0.01 0.13,0.02 0.2,0.04 0.07,0.02 0.13,0.04 0.19,0.06 0.07,0.03 0.13,0.06 0.18,0.09l-0.25 0.49z"/>
   <g>
    <polygon class="fil2" points="59.61,38.56 0.24,38.56 0.24,37.13 59.61,37.13 "/>
   </g>
   <g id="_2701032085136">
    <g>
     <path class="fil3" d="M12.05 14.56l3.24 -4.22 0 6.84 -3.24 3.11 0 -5.73zm11.19 -14.56l5.07 1.63 0 9.39 -5.07 -1.25 0 -0.25 -3.03 2.92 0 -8.49 3.03 -3.95zm-7.3 9.49l3.61 -4.69 0 8.28 -3.61 3.46 0 -7.05zm13.02 -7.64l9.76 3.14 0 8.59 -9.76 -2.4 0 -9.33zm10.42 3.36l5.5 1.77 0 8.11 -5.5 -1.35 0 -8.53zm6.16 1.98l2.39 0.77 0 7.88 -2.39 -0.59 0 -8.06z"/>
     <polygon class="fil4" points="11.93,20.29 23.24,9.65 47.93,15.84 47.93,19.16 23.1,13.1 11.93,23.68 "/>
     <g>
      <g>
       <path class="fil5" d="M15.6 17.43c-0.53,1.1 -1.25,3.59 -1.47,4.75 -0.23,1.19 -1.38,4.96 0.18,5.2 1.06,0.16 1.42,-1.83 1.73,-2.58 0.73,-1.74 1.46,-3.47 2.2,-5.21 0.15,-0.29 0.3,-0.44 0.39,-0.73 0.78,-1.15 1.56,-2.29 2.34,-3.43 -0.04,-0.53 -0.71,-1.54 -1.06,-1.73 -0.07,-0.05 -0.14,-0.1 -0.22,-0.15 -0.5,-0.39 -0.93,-0.48 -1.6,-0.02 -0.33,0.22 -1.05,0.91 -1.17,1.36 -0.16,0.11 -0.33,0.51 -0.44,0.71 -0.36,0.65 -0.58,1.18 -0.88,1.83z"/>
       <path class="fil6" d="M44.53 17.43c0.53,1.1 1.25,3.59 1.47,4.75 0.23,1.19 1.38,4.96 -0.19,5.2 -1.05,0.16 -1.41,-1.83 -1.72,-2.58 -0.73,-1.74 -1.46,-3.47 -2.2,-5.21 -0.15,-0.29 -0.3,-0.44 -0.39,-0.73 -0.78,-1.15 -1.56,-2.29 -2.34,-3.43 0.04,-0.53 0.71,-1.54 1.06,-1.73 0.07,-0.05 0.14,-0.1 0.22,-0.15 0.5,-0.39 0.93,-0.48 1.6,-0.02 0.33,0.22 1.05,0.91 1.17,1.36 0.16,0.11 0.33,0.51 0.44,0.71 0.35,0.65 0.58,1.18 0.88,1.83z"/>
      </g>
      <path class="fil7" d="M18.27 13.22c1.97,0 3.93,0 5.9,0 1.96,0 3.93,2.37 5.89,2.37 1.97,0 3.93,-2.37 5.9,-2.37 1.96,0 3.93,0 5.89,0 -4.41,0.26 -7.34,15.28 -12.16,15.28 -5.08,-0.08 -7.48,-14.5 -11.42,-15.28z"/>
     </g>
    </g>
    <g>
     <polygon class="fil8" points="32.18,4.54 33.04,4.49 35.54,5.7 35.65,6.62 34.23,6.58 34.23,6.94 32.2,6.04 "/>
     <polygon class="fil9" points="35.65,6.62 35.63,8.82 34.95,9.44 34.29,8.58 34.23,6.58 "/>
    </g>
   </g>
  </g>
 </g>
</svg>
