<?xml version="1.0" encoding="UTF-8"?>
<!DOCTYPE svg PUBLIC "-//W3C//DTD SVG 1.1//EN" "http://www.w3.org/Graphics/SVG/1.1/DTD/svg11.dtd">
<!-- Creator: CorelDRAW 2019 (64-Bit) -->
<svg xmlns="http://www.w3.org/2000/svg" xml:space="preserve" width="220px" height="91px" version="1.1" style="shape-rendering:geometricPrecision; text-rendering:geometricPrecision; image-rendering:optimizeQuality; fill-rule:evenodd; clip-rule:evenodd"
viewBox="0 0 59.85 24.56"
 xmlns:xlink="http://www.w3.org/1999/xlink"
 xmlns:xodm="http://www.corel.com/coreldraw/odm/2003">
 <defs>
  <style type="text/css">
   <![CDATA[
    .fil0 {fill:#31AADF}
    .fil1 {fill:#88AB06}
    .fil2 {fill:#31AADF;fill-rule:nonzero}
    .fil3 {fill:#88AB06;fill-rule:nonzero}
   ]]>
  </style>
    <mask id="id0">
  <linearGradient id="id1" gradientUnits="userSpaceOnUse" x1="10.01" y1="20.45" x2="8.91" y2="15.61">
   <stop offset="0" style="stop-opacity:1; stop-color:white"/>
   <stop offset="1" style="stop-opacity:0; stop-color:white"/>
  </linearGradient>
     <rect style="fill:url(#id1)" x="2.86" y="13.16" width="11.66" height="4.56"/>
    </mask>
 </defs>
 <g id="Layer_x0020_1">
  <metadata id="CorelCorpID_0Corel-Layer"/>
  <g id="_2700929642736">
   <g>
    <path class="fil0" d="M3.48 13.14l0 1.52c-0.64,-0.37 -0.71,-0.67 -1.16,-1.03 0.19,0.75 0.63,1.36 1.16,1.8l0 0.04c0,2.75 1.24,4.59 3.73,5.51 0.55,0.17 1.05,0.25 1.48,0.25 0.44,0 0.93,-0.08 1.5,-0.25 2.38,-0.88 3.62,-2.6 3.72,-5.16l-0.01 0 0 -1.22c0.43,0.26 0.78,0.61 1.17,1.03 -0.03,-0.13 -0.07,-0.28 -0.12,-0.39 -0.24,-0.59 -0.61,-1.05 -1.05,-1.39l0 -0.71 3.48 0 0 2.68 -0.01 0c-0.04,1.04 -0.16,1.89 -0.35,2.54 -0.2,0.66 -0.41,1.19 -0.64,1.58 -0.15,0.33 -0.4,0.72 -0.74,1.19 -1.87,2.28 -4.18,3.43 -6.95,3.43 -2.76,0 -5.07,-1.15 -6.93,-3.43 -0.36,-0.46 -0.61,-0.85 -0.76,-1.19 -0.22,-0.39 -0.43,-0.92 -0.63,-1.58 -0.2,-0.65 -0.32,-1.5 -0.35,-2.54l-0.02 0 0 -2.68 3.48 0z"/>
    <path class="fil1" d="M8.58 3.39c-1.56,0 -2.91,0.7 -4.07,2.1 -0.63,0.77 -0.98,1.89 -1.03,3.36l0 2.57 -3.48 0 0 -0.18c0,-0.53 0,-1.01 0.01,-1.44l0 -1.06 0.01 0c0.03,-1.16 0.08,-1.74 0.15,-1.74 0.01,-0.31 0.21,-0.97 0.62,-1.99 0.42,-0.89 0.98,-1.7 1.7,-2.43 0.91,-0.88 1.74,-1.47 2.49,-1.77 1.15,-0.54 2.39,-0.81 3.71,-0.81 1.32,0 2.56,0.27 3.71,0.81 0.75,0.3 1.58,0.89 2.48,1.77 0.72,0.73 1.28,1.54 1.7,2.43 0.41,1.02 0.62,1.68 0.64,1.99 0.07,0 0.12,0.58 0.14,1.74l0.02 0 0 1.06c0,0.43 0,0.91 0,1.44l0 0.18 -3.48 0 0 -2.21c0,-1.64 -0.35,-2.88 -1.03,-3.72 -1.15,-1.4 -2.51,-2.1 -4.08,-2.1l-0.21 0z"/>
   </g>
   <g>
    <path class="fil2" d="M20.91 10.71l0.13 0c0.36,0 0.65,0.28 0.87,0.85 0.01,0 0.58,1.11 1.7,3.32 0,0 0.24,-0.44 0.69,-1.32 -0.62,-1.18 -0.93,-1.81 -0.94,-1.88 -0.01,-0.1 -0.02,-0.15 -0.03,-0.17 0,-0.34 0.19,-0.59 0.57,-0.76 0.08,-0.03 0.15,-0.04 0.2,-0.04l0.14 0c0.36,0 0.66,0.29 0.88,0.88 0.02,0 0.04,0.05 0.08,0.16 0.01,0 0.14,-0.24 0.38,-0.71 0.19,-0.22 0.39,-0.33 0.6,-0.33l0.13 0c0.3,0 0.55,0.17 0.72,0.52 0.04,0.11 0.06,0.21 0.06,0.29 0,0.16 -0.13,0.46 -0.38,0.91 -0.38,0.72 -0.57,1.1 -0.57,1.13 0.44,0.87 0.66,1.31 0.66,1.32 0.02,-0.02 0.68,-1.3 1.98,-3.84 0.18,-0.22 0.38,-0.33 0.6,-0.33l0.14 0c0.28,0 0.51,0.16 0.68,0.47 0.05,0.09 0.08,0.17 0.08,0.25l0 0.16c0,0.14 -0.2,0.56 -0.6,1.27 -1.43,2.83 -2.17,4.27 -2.23,4.33 -0.17,0.18 -0.36,0.27 -0.55,0.27l-0.15 0c-0.36,0 -0.63,-0.23 -0.81,-0.71 -0.47,-0.91 -0.72,-1.38 -0.74,-1.4 -0.58,1.2 -0.92,1.83 -1,1.9 -0.18,0.14 -0.35,0.21 -0.5,0.21l-0.15 0c-0.36,0 -0.64,-0.25 -0.84,-0.76 -1.69,-3.27 -2.53,-4.92 -2.53,-4.98 -0.02,-0.04 -0.03,-0.08 -0.03,-0.15l0 -0.1c0,-0.35 0.22,-0.6 0.65,-0.74 0.03,-0.01 0.07,-0.02 0.11,-0.02z"/>
    <path id="1" class="fil2" d="M34.1 10.71l0.15 0c0.35,0 0.62,0.28 0.84,0.83 1.61,3.18 2.44,4.83 2.49,4.95l0 0.26c0,0.28 -0.19,0.51 -0.57,0.69 -0.08,0.02 -0.15,0.02 -0.2,0.02l-0.12 0c-0.35,0 -0.64,-0.28 -0.85,-0.86 -1.11,-2.19 -1.67,-3.29 -1.69,-3.3 -1.24,2.49 -1.89,3.79 -1.96,3.89 -0.19,0.18 -0.38,0.27 -0.58,0.27l-0.11 0c-0.29,0 -0.53,-0.17 -0.71,-0.51 -0.03,-0.1 -0.04,-0.18 -0.04,-0.24l0 -0.11c0,-0.12 0.16,-0.49 0.48,-1.09l2.27 -4.48c0.18,-0.21 0.38,-0.32 0.6,-0.32z"/>
    <path id="2" class="fil2" d="M38.84 10.71l5.27 0c0.29,0 0.53,0.17 0.72,0.5 0.03,0.11 0.05,0.19 0.05,0.25l0 0.18c0,0.27 -0.17,0.5 -0.51,0.68 -0.11,0.05 -0.22,0.07 -0.31,0.07l-1.75 0 0 4.29c0,0.35 -0.21,0.6 -0.62,0.77l-0.13 0.01 -0.19 0c-0.27,0 -0.5,-0.16 -0.69,-0.5 -0.04,-0.11 -0.07,-0.21 -0.07,-0.31l0 -4.26 -1.7 0c-0.4,0 -0.68,-0.2 -0.83,-0.6 -0.02,-0.08 -0.03,-0.14 -0.03,-0.18l0 -0.11c0,-0.35 0.2,-0.6 0.6,-0.76 0.07,-0.02 0.13,-0.03 0.19,-0.03z"/>
    <path id="3" class="fil2" d="M46.14 10.71l5.27 0c0.29,0 0.53,0.17 0.72,0.5 0.03,0.11 0.05,0.19 0.05,0.25l0 0.18c0,0.27 -0.17,0.5 -0.51,0.68 -0.11,0.05 -0.21,0.07 -0.31,0.07l-4.32 0 0 0.86 3.34 0c0.42,0 0.71,0.17 0.86,0.5 0.04,0.1 0.06,0.19 0.06,0.27l0 0.12c0,0.34 -0.2,0.59 -0.6,0.76 -0.07,0.02 -0.13,0.03 -0.19,0.03l-3.47 0 0 0.86 4.22 0c0.5,0 0.8,0.24 0.92,0.72l0 0.22c0,0.27 -0.16,0.49 -0.49,0.67 -0.09,0.04 -0.17,0.06 -0.25,0.06l-5.34 0c-0.28,0 -0.52,-0.17 -0.7,-0.51 -0.03,-0.09 -0.05,-0.17 -0.05,-0.24l0 -5.21c0,-0.35 0.2,-0.6 0.6,-0.76 0.07,-0.02 0.13,-0.03 0.19,-0.03z"/>
    <path id="4" class="fil2" d="M53.44 10.71l4.02 0c0.58,0 1.11,0.27 1.59,0.81 0.28,0.41 0.43,0.8 0.43,1.16l0 0.28c0,0.55 -0.28,1.06 -0.82,1.54 -0.33,0.22 -0.6,0.34 -0.8,0.37l0 0.01c0.7,0.62 1.16,1.05 1.38,1.29 0.09,0.17 0.14,0.32 0.14,0.47 0,0.36 -0.19,0.62 -0.59,0.8 -0.08,0.02 -0.14,0.02 -0.17,0.02l-0.19 0c-0.22,0 -0.51,-0.19 -0.87,-0.58 -0.13,-0.1 -0.84,-0.75 -2.14,-1.95l-1.08 0 0 1.72c0,0.37 -0.21,0.64 -0.63,0.8 -0.05,0.01 -0.09,0.01 -0.12,0.01l-0.19 0c-0.28,0 -0.52,-0.17 -0.7,-0.51 -0.03,-0.09 -0.05,-0.17 -0.05,-0.24l0 -5.21c0,-0.35 0.2,-0.6 0.6,-0.76 0.07,-0.02 0.13,-0.03 0.19,-0.03zm0.9 1.68l0 0.87 3.44 0 0 -0.87 -3.44 0z"/>
    <path class="fil3" d="M20.39 18.73l2.05 0c0.12,0 0.21,0.06 0.28,0.19 0.02,0.04 0.02,0.07 0.02,0.1l0 0.07c0,0.11 -0.06,0.19 -0.2,0.26 -0.04,0.02 -0.08,0.03 -0.12,0.03l-0.68 0 0 1.67c0,0.14 -0.08,0.24 -0.24,0.3l-0.05 0.01 -0.08 0c-0.1,0 -0.19,-0.07 -0.26,-0.2 -0.02,-0.04 -0.03,-0.08 -0.03,-0.12l0 -1.66 -0.67 0c-0.15,0 -0.26,-0.08 -0.32,-0.23 -0.01,-0.04 -0.01,-0.06 -0.01,-0.07l0 -0.05c0,-0.13 0.08,-0.23 0.23,-0.29 0.03,-0.01 0.06,-0.01 0.08,-0.01z"/>
    <path id="1" class="fil3" d="M23.91 18.73l2.05 0c0.12,0 0.21,0.06 0.28,0.19 0.02,0.04 0.02,0.07 0.02,0.1l0 0.07c0,0.11 -0.06,0.19 -0.19,0.26 -0.05,0.02 -0.09,0.03 -0.13,0.03l-1.68 0 0 0.34 1.3 0c0.17,0 0.28,0.06 0.34,0.19 0.01,0.04 0.02,0.08 0.02,0.11l0 0.04c0,0.14 -0.08,0.24 -0.23,0.3 -0.03,0.01 -0.05,0.01 -0.08,0.01l-1.35 0 0 0.34 1.65 0c0.19,0 0.31,0.09 0.35,0.28l0 0.09c0,0.1 -0.06,0.18 -0.19,0.25 -0.03,0.02 -0.06,0.03 -0.1,0.03l-2.08 0c-0.11,0 -0.2,-0.07 -0.27,-0.2 -0.01,-0.04 -0.02,-0.07 -0.02,-0.1l0 -2.03c0,-0.13 0.08,-0.23 0.23,-0.29 0.03,-0.01 0.06,-0.01 0.08,-0.01z"/>
    <path id="2" class="fil3" d="M28.43 18.73l1.06 0c0.11,0 0.2,0.06 0.27,0.19 0.02,0.04 0.02,0.07 0.02,0.1l0 0.07c0,0.11 -0.06,0.19 -0.19,0.26 -0.05,0.02 -0.09,0.03 -0.13,0.03l-0.88 0c-0.35,0 -0.6,0.15 -0.76,0.44 -0.02,0.08 -0.04,0.16 -0.04,0.23 0,0.24 0.14,0.43 0.41,0.58 0.12,0.05 0.24,0.08 0.35,0.08l0.89 0c0.17,0 0.29,0.08 0.35,0.24l0 0.05 0 0.08c0,0.1 -0.06,0.18 -0.18,0.25 -0.04,0.02 -0.07,0.03 -0.1,0.03l-1.1 0c-0.29,0 -0.57,-0.12 -0.85,-0.35 -0.16,-0.16 -0.25,-0.28 -0.29,-0.38 -0.09,-0.18 -0.14,-0.36 -0.14,-0.54l0 -0.09c0,-0.32 0.13,-0.61 0.39,-0.89 0.29,-0.26 0.59,-0.38 0.92,-0.38z"/>
    <path id="3" class="fil3" d="M30.95 18.73l0.05 0c0.11,0 0.2,0.06 0.27,0.18 0.02,0.04 0.03,0.09 0.03,0.15l0 0.66 1.34 0 0 -0.64c0,-0.18 0.09,-0.29 0.26,-0.35 0.03,0 0.05,0 0.06,0l0.05 0c0.11,0 0.2,0.06 0.28,0.19 0.01,0.04 0.02,0.07 0.02,0.1l0 2.06c0,0.1 -0.07,0.18 -0.19,0.25 -0.04,0.02 -0.07,0.03 -0.1,0.03l-0.08 0c-0.11,0 -0.21,-0.07 -0.27,-0.21 -0.02,-0.05 -0.03,-0.09 -0.03,-0.14l0 -0.64 -1.34 0 0 0.67c0,0.15 -0.08,0.25 -0.24,0.31 -0.02,0.01 -0.04,0.01 -0.05,0.01l-0.07 0c-0.12,0 -0.21,-0.07 -0.28,-0.2 -0.01,-0.04 -0.02,-0.07 -0.02,-0.1l0 -2.03c0,-0.13 0.08,-0.23 0.24,-0.29 0.02,-0.01 0.05,-0.01 0.07,-0.01z"/>
    <path id="4" class="fil3" d="M34.47 18.73l0.05 0c0.09,0 0.19,0.05 0.29,0.16 0.62,0.61 1.07,1.05 1.36,1.33l0 -1.14c0,-0.17 0.07,-0.28 0.22,-0.34 0.03,-0.01 0.06,-0.01 0.09,-0.01l0.05 0c0.11,0 0.2,0.06 0.28,0.19 0.01,0.04 0.02,0.07 0.02,0.1l0 2.06c0,0.1 -0.07,0.18 -0.19,0.25 -0.04,0.02 -0.07,0.03 -0.1,0.03l-0.08 0c-0.09,0 -0.21,-0.08 -0.35,-0.24l-1.29 -1.26 0 1.18c0,0.15 -0.08,0.25 -0.24,0.31 -0.02,0.01 -0.04,0.01 -0.05,0.01l-0.07 0c-0.11,0 -0.21,-0.07 -0.28,-0.2 -0.01,-0.04 -0.02,-0.07 -0.02,-0.1l0 -2.03c0,-0.13 0.08,-0.23 0.24,-0.29 0.03,-0.01 0.05,-0.01 0.07,-0.01z"/>
    <path id="5" class="fil3" d="M38.6 18.73l0.82 0c0.31,0 0.57,0.1 0.79,0.31 0.09,0.12 0.14,0.23 0.14,0.32l0 1.37c0,0.13 -0.09,0.27 -0.26,0.42 -0.21,0.14 -0.44,0.21 -0.68,0.21l-0.77 0c-0.3,0 -0.56,-0.09 -0.77,-0.27 -0.12,-0.13 -0.19,-0.26 -0.19,-0.39l0 -1.32c0,-0.21 0.15,-0.4 0.45,-0.55 0.17,-0.07 0.33,-0.1 0.47,-0.1zm-0.28 0.65l0 1.33 1.39 0 0 -1.33 -1.39 0z"/>
    <path id="6" class="fil3" d="M41.51 18.73l0.05 0c0.11,0 0.2,0.06 0.28,0.18 0.02,0.04 0.03,0.09 0.03,0.15l0 1.65 1.64 0c0.2,0 0.31,0.09 0.36,0.28l0 0.09c0,0.1 -0.06,0.18 -0.19,0.25 -0.04,0.02 -0.07,0.03 -0.1,0.03l-2.08 0c-0.11,0 -0.2,-0.07 -0.27,-0.2 -0.02,-0.04 -0.02,-0.07 -0.02,-0.1l0 -2.03c0,-0.13 0.07,-0.23 0.23,-0.29 0.03,-0.01 0.05,-0.01 0.07,-0.01z"/>
    <path id="7" class="fil3" d="M45.64 18.73l0.82 0c0.31,0 0.57,0.1 0.79,0.31 0.09,0.12 0.14,0.23 0.14,0.32l0 1.37c0,0.13 -0.09,0.27 -0.26,0.42 -0.21,0.14 -0.44,0.21 -0.68,0.21l-0.77 0c-0.3,0 -0.55,-0.09 -0.76,-0.27 -0.13,-0.13 -0.19,-0.26 -0.19,-0.39l0 -1.32c0,-0.21 0.14,-0.4 0.44,-0.55 0.17,-0.07 0.33,-0.1 0.47,-0.1zm-0.27 0.65l0 1.33 1.38 0 0 -1.33 -1.38 0z"/>
    <path id="8" class="fil3" d="M49.56 18.73l1.05 0c0.11,0 0.2,0.06 0.28,0.19 0.01,0.04 0.02,0.08 0.02,0.1l0 0.07c0,0.11 -0.07,0.19 -0.2,0.26 -0.04,0.02 -0.08,0.03 -0.12,0.03l-0.88 0c-0.33,0 -0.58,0.13 -0.74,0.4 -0.04,0.09 -0.06,0.18 -0.06,0.27 0,0.26 0.15,0.46 0.45,0.6 0.11,0.04 0.21,0.06 0.3,0.06l0.59 0 0 -0.33c0,-0.18 0.07,-0.29 0.21,-0.35 0.03,-0.02 0.07,-0.03 0.11,-0.03l0.03 0c0.14,0 0.24,0.08 0.3,0.25 0.01,0.01 0.01,0.03 0.01,0.04l0 0.79c0,0.1 -0.06,0.18 -0.19,0.25 -0.03,0.02 -0.07,0.03 -0.1,0.03l-1.09 0c-0.29,0 -0.57,-0.12 -0.85,-0.35 -0.16,-0.16 -0.26,-0.28 -0.29,-0.38 -0.1,-0.18 -0.14,-0.36 -0.14,-0.54l0 -0.09c0,-0.32 0.13,-0.61 0.39,-0.89 0.28,-0.26 0.59,-0.38 0.92,-0.38z"/>
    <path id="9" class="fil3" d="M52.09 18.73l0.05 0c0.11,0 0.2,0.06 0.28,0.18 0.02,0.04 0.03,0.09 0.03,0.15l0 1.98c0,0.15 -0.09,0.25 -0.26,0.31 -0.02,0.01 -0.03,0.01 -0.04,0.01l-0.08 0c-0.11,0 -0.21,-0.07 -0.28,-0.2 -0.01,-0.04 -0.02,-0.07 -0.02,-0.1l0 -2.03c0,-0.13 0.08,-0.23 0.24,-0.29 0.03,-0.01 0.05,-0.01 0.08,-0.01z"/>
    <path id="10" class="fil3" d="M53.61 18.73l2.06 0c0.11,0 0.21,0.06 0.28,0.19 0.01,0.04 0.02,0.07 0.02,0.1l0 0.07c0,0.11 -0.07,0.19 -0.2,0.26 -0.04,0.02 -0.08,0.03 -0.12,0.03l-1.68 0 0 0.34 1.3 0c0.16,0 0.27,0.06 0.33,0.19 0.02,0.04 0.03,0.08 0.03,0.11l0 0.04c0,0.14 -0.08,0.24 -0.24,0.3 -0.02,0.01 -0.05,0.01 -0.07,0.01l-1.35 0 0 0.34 1.64 0c0.2,0 0.32,0.09 0.36,0.28l0 0.09c0,0.1 -0.06,0.18 -0.19,0.25 -0.04,0.02 -0.07,0.03 -0.1,0.03l-2.08 0c-0.11,0 -0.2,-0.07 -0.27,-0.2 -0.02,-0.04 -0.02,-0.07 -0.02,-0.1l0 -2.03c0,-0.13 0.07,-0.23 0.23,-0.29 0.03,-0.01 0.05,-0.01 0.07,-0.01z"/>
    <path id="11" class="fil3" d="M57.74 18.73l1.45 0c0.13,0 0.23,0.07 0.29,0.21 0.01,0.02 0.01,0.04 0.01,0.05l0 0.1c0,0.1 -0.06,0.19 -0.19,0.26 -0.06,0.02 -0.1,0.03 -0.13,0.03l-1.68 0 0 0.33 1 0c0.41,0 0.71,0.13 0.91,0.38 0.06,0.1 0.09,0.18 0.09,0.25l0 0.39c0,0.15 -0.1,0.31 -0.31,0.45 -0.2,0.12 -0.39,0.18 -0.58,0.18l-1.48 0c-0.11,0 -0.19,-0.06 -0.27,-0.17 -0.01,-0.04 -0.02,-0.07 -0.02,-0.1l0 -0.07c0,-0.14 0.07,-0.23 0.23,-0.3 0.04,-0.01 0.08,-0.01 0.12,-0.01l1.65 0 0 -0.33 -1.06 0c-0.29,0 -0.54,-0.1 -0.75,-0.28 -0.13,-0.13 -0.19,-0.25 -0.19,-0.38l0 -0.34c0,-0.21 0.14,-0.4 0.44,-0.55 0.17,-0.07 0.33,-0.1 0.47,-0.1z"/>
    <path class="fil3" d="M20.51 3.2l0.11 0c0.24,0 0.5,0.18 0.8,0.54 0.01,0 0.52,0.5 1.53,1.52 1.29,-1.31 1.94,-1.96 1.96,-1.96 0.14,-0.07 0.26,-0.1 0.36,-0.1l0.11 0c0.27,0 0.49,0.15 0.66,0.46 0.03,0.09 0.05,0.17 0.05,0.22l0 4.89c0,0.24 -0.15,0.44 -0.45,0.61 -0.08,0.04 -0.16,0.06 -0.23,0.06l-0.18 0c-0.22,0 -0.42,-0.13 -0.59,-0.38 -0.08,-0.11 -0.12,-0.27 -0.12,-0.49l0 -2.68c-0.73,0.73 -1.1,1.1 -1.12,1.1 -0.14,0.1 -0.29,0.15 -0.47,0.15 -0.27,0 -0.56,-0.18 -0.87,-0.55 -0.47,-0.48 -0.71,-0.71 -0.72,-0.71l0 2.79c0,0.38 -0.2,0.63 -0.61,0.76 -0.01,0.01 -0.04,0.01 -0.08,0.01l-0.18 0c-0.24,0 -0.45,-0.14 -0.62,-0.43 -0.05,-0.1 -0.07,-0.2 -0.07,-0.3l0 -4.8c0,-0.3 0.18,-0.53 0.54,-0.69 0.08,-0.02 0.14,-0.02 0.19,-0.02z"/>
    <path id="1" class="fil3" d="M27.26 3.2l4.87 0c0.27,0 0.49,0.15 0.67,0.46 0.03,0.1 0.04,0.17 0.04,0.22l0 0.18c0,0.25 -0.15,0.46 -0.47,0.63 -0.1,0.04 -0.19,0.06 -0.29,0.06l-3.98 0 0 0.79 3.08 0c0.39,0 0.66,0.16 0.79,0.47 0.04,0.09 0.06,0.17 0.06,0.25l0 0.11c0,0.31 -0.18,0.55 -0.55,0.7 -0.07,0.02 -0.12,0.02 -0.18,0.02l-3.2 0 0 0.8 3.9 0c0.46,0 0.74,0.22 0.84,0.67l0 0.21c0,0.24 -0.15,0.44 -0.45,0.61 -0.08,0.04 -0.16,0.06 -0.23,0.06l-4.94 0c-0.26,0 -0.48,-0.16 -0.65,-0.48 -0.03,-0.08 -0.04,-0.16 -0.04,-0.22l0 -4.82c0,-0.31 0.18,-0.55 0.55,-0.7 0.07,-0.02 0.13,-0.02 0.18,-0.02z"/>
    <path id="2" class="fil3" d="M34.01 3.2l4.88 0c0.26,0 0.48,0.15 0.66,0.46 0.03,0.1 0.05,0.17 0.05,0.22l0 0.18c0,0.25 -0.16,0.46 -0.47,0.63 -0.11,0.04 -0.2,0.06 -0.29,0.06l-3.99 0 0 0.79 3.08 0c0.39,0 0.66,0.16 0.79,0.47 0.04,0.09 0.06,0.17 0.06,0.25l0 0.11c0,0.31 -0.18,0.55 -0.55,0.7 -0.06,0.02 -0.12,0.02 -0.18,0.02l-3.2 0 0 0.8 3.9 0c0.46,0 0.74,0.22 0.85,0.67l0 0.21c0,0.24 -0.15,0.44 -0.45,0.61 -0.09,0.04 -0.17,0.06 -0.24,0.06l-4.93 0c-0.27,0 -0.48,-0.16 -0.65,-0.48 -0.03,-0.08 -0.05,-0.16 -0.05,-0.22l0 -4.82c0,-0.31 0.18,-0.55 0.56,-0.7 0.06,-0.02 0.12,-0.02 0.17,-0.02z"/>
    <path id="3" class="fil3" d="M40.76 3.2l4.88 0c0.26,0 0.49,0.15 0.66,0.46 0.03,0.1 0.05,0.17 0.05,0.22l0 0.18c0,0.21 -0.19,0.47 -0.56,0.78 -0.25,0.26 -1.26,1.27 -3.04,3.04l-0.01 0 0 0.01 2.74 0c0.44,0 0.72,0.19 0.84,0.57 0.02,0.03 0.03,0.07 0.03,0.13l0 0.18c0,0.24 -0.15,0.44 -0.45,0.61 -0.09,0.04 -0.16,0.06 -0.24,0.06l-4.93 0c-0.27,0 -0.48,-0.16 -0.65,-0.48 -0.03,-0.08 -0.05,-0.16 -0.05,-0.22l0 -0.14c0,-0.24 0.19,-0.51 0.56,-0.82 0.7,-0.7 1.71,-1.71 3.03,-3.03l-2.79 0c-0.37,0 -0.63,-0.19 -0.77,-0.56 -0.02,-0.07 -0.03,-0.13 -0.03,-0.16l0 -0.11c0,-0.31 0.19,-0.55 0.56,-0.7 0.06,-0.02 0.12,-0.02 0.17,-0.02z"/>
    <path id="4" class="fil3" d="M49.88 3.2l0.14 0c0.32,0 0.58,0.25 0.78,0.77 1.49,2.93 2.26,4.46 2.3,4.57l0 0.24c0,0.26 -0.18,0.48 -0.52,0.64 -0.08,0.01 -0.14,0.02 -0.19,0.02l-0.11 0c-0.32,0 -0.59,-0.26 -0.79,-0.79 -1.02,-2.03 -1.54,-3.05 -1.56,-3.06 -1.14,2.3 -1.75,3.5 -1.81,3.59 -0.18,0.18 -0.35,0.26 -0.54,0.26l-0.1 0c-0.27,0 -0.49,-0.16 -0.66,-0.48 -0.02,-0.09 -0.04,-0.16 -0.04,-0.22l0 -0.09c0,-0.12 0.15,-0.46 0.45,-1.01l2.1 -4.15c0.16,-0.2 0.35,-0.29 0.55,-0.29z"/>
    <path id="5" class="fil3" d="M54.27 3.2l3.72 0c0.53,0 1.02,0.25 1.46,0.75 0.27,0.38 0.4,0.73 0.4,1.07l0 0.25c0,0.34 -0.13,0.69 -0.38,1.05 0.25,0.37 0.38,0.72 0.38,1.03l0 0.3c0,0.39 -0.18,0.8 -0.55,1.21 -0.42,0.39 -0.84,0.58 -1.27,0.58l-3.8 0c-0.26,0 -0.48,-0.16 -0.65,-0.48 -0.03,-0.08 -0.05,-0.16 -0.05,-0.22l0 -4.82c0,-0.31 0.19,-0.55 0.56,-0.7 0.07,-0.02 0.12,-0.02 0.18,-0.02zm0.83 1.55l0 0.79 3.18 0 0 -0.79 -3.18 0zm0 2.34l0 0.8 3.18 0 0 -0.8 -3.18 0z"/>
   </g>
   <path class="fil0" d="M4.59 13.84c0.71,0.37 2.04,-0.04 2.69,-0.28 -0.52,0.6 -1.63,0.79 -2.66,0.75l0.15 0.75c1.5,0.27 2.89,-0.78 3.74,-1.33 1.28,-0.85 2.35,-1.03 4.11,-0.86 -0.39,-1.74 -2.45,-3.43 -3.53,-5.18 -0.18,-0.28 -0.26,-0.62 -0.41,-0.85 -0.23,0.33 -0.24,0.75 -0.99,1.71 -1.17,1.49 -3.13,3.27 -3.1,5.29z"/>
   <path class="fil1" d="M2.86 14.7c0.36,0.64 1.04,1.08 1.76,1.29 0.28,0.09 0.6,0.07 0.78,0.26 0.37,0.38 0.42,0.55 1.1,0.94 1.44,0.83 3.58,0.65 4.79,-0.28 0.49,-0.37 1.56,-1.57 1.44,-2.64 -1.61,-0.23 -2.08,0.16 -3.21,0.35 0.54,-0.17 1.07,-0.71 2.47,-0.78 1.19,-0.05 1.77,0.26 2.53,0.73 -0.04,-0.09 -0.1,-0.19 -0.15,-0.26 -1.19,-1.55 -3.87,-1.4 -5.59,-0.32 -1.23,0.77 -2.64,1.83 -4.52,1.35 -0.82,-0.2 -0.9,-0.42 -1.4,-0.64z"/>
   <path class="fil1" style="mask:url(#id0)" d="M2.86 14.7c0.36,0.64 1.04,1.08 1.76,1.29 0.28,0.09 0.6,0.07 0.78,0.26 0.37,0.38 0.42,0.55 1.1,0.94 1.44,0.83 3.58,0.65 4.79,-0.28 0.49,-0.37 1.56,-1.57 1.44,-2.64 -1.61,-0.23 -2.08,0.16 -3.21,0.35 0.54,-0.17 1.07,-0.71 2.47,-0.78 1.19,-0.05 1.77,0.26 2.53,0.73 -0.04,-0.09 -0.1,-0.19 -0.15,-0.26 -1.19,-1.55 -3.87,-1.4 -5.59,-0.32 -1.23,0.77 -2.64,1.83 -4.52,1.35 -0.82,-0.2 -0.9,-0.42 -1.4,-0.64z"/>
   <polygon class="fil2" points="28.86,24.1 28.56,22.83 28.83,22.83 29.02,23.7 29.25,22.83 29.56,22.83 29.78,23.71 29.97,22.83 30.23,22.83 29.92,24.1 29.65,24.1 29.4,23.15 29.15,24.1 "/>
   <path id="1" class="fil2" d="M30.48 23.46l-0.22 -0.04c0.02,-0.09 0.07,-0.16 0.13,-0.2 0.06,-0.04 0.15,-0.06 0.27,-0.06 0.11,0 0.19,0.01 0.24,0.03 0.05,0.03 0.09,0.06 0.11,0.1 0.02,0.04 0.03,0.11 0.03,0.22l0 0.28c0,0.09 0,0.15 0.01,0.18 0.01,0.04 0.02,0.08 0.05,0.13l-0.25 0c0,-0.02 -0.01,-0.04 -0.02,-0.07 0,-0.02 -0.01,-0.03 -0.01,-0.03 -0.04,0.04 -0.08,0.07 -0.13,0.09 -0.05,0.02 -0.1,0.03 -0.15,0.03 -0.1,0 -0.17,-0.03 -0.23,-0.08 -0.05,-0.05 -0.08,-0.11 -0.08,-0.19 0,-0.05 0.02,-0.1 0.04,-0.14 0.03,-0.04 0.06,-0.07 0.1,-0.09 0.05,-0.03 0.11,-0.05 0.2,-0.06 0.11,-0.02 0.19,-0.04 0.23,-0.06l0 -0.03c0,-0.04 -0.01,-0.08 -0.03,-0.1 -0.02,-0.02 -0.07,-0.03 -0.13,-0.03 -0.04,0 -0.08,0.01 -0.1,0.03 -0.03,0.02 -0.05,0.05 -0.06,0.09zm0.32 0.2c-0.03,0.01 -0.08,0.02 -0.14,0.03 -0.07,0.02 -0.12,0.03 -0.14,0.05 -0.03,0.02 -0.04,0.05 -0.04,0.08 0,0.04 0.01,0.07 0.03,0.09 0.03,0.03 0.06,0.04 0.1,0.04 0.05,0 0.09,-0.02 0.13,-0.05 0.03,-0.02 0.05,-0.04 0.06,-0.08 0,-0.02 0,-0.06 0,-0.11l0 -0.05z"/>
   <path id="2" class="fil2" d="M31.71 23.18l0 0.19 -0.17 0 0 0.37c0,0.08 0,0.12 0,0.13 0.01,0.02 0.01,0.03 0.02,0.04 0.02,0 0.03,0.01 0.05,0.01 0.02,0 0.05,-0.01 0.09,-0.03l0.02 0.19c-0.05,0.03 -0.12,0.04 -0.19,0.04 -0.04,0 -0.08,-0.01 -0.12,-0.02 -0.03,-0.02 -0.06,-0.04 -0.07,-0.06 -0.02,-0.02 -0.03,-0.05 -0.04,-0.09 0,-0.03 0,-0.09 0,-0.18l0 -0.4 -0.12 0 0 -0.19 0.12 0 0 -0.19 0.24 -0.14 0 0.33 0.17 0z"/>
   <path id="3" class="fil2" d="M32.41 23.81l0.24 0.04c-0.03,0.09 -0.08,0.15 -0.15,0.2 -0.06,0.05 -0.15,0.07 -0.25,0.07 -0.16,0 -0.28,-0.05 -0.35,-0.16 -0.06,-0.08 -0.1,-0.19 -0.1,-0.32 0,-0.15 0.04,-0.27 0.12,-0.35 0.08,-0.09 0.18,-0.13 0.31,-0.13 0.13,0 0.24,0.04 0.32,0.13 0.08,0.09 0.12,0.23 0.11,0.42l-0.61 0c0.01,0.07 0.03,0.13 0.06,0.17 0.04,0.04 0.09,0.06 0.14,0.06 0.04,0 0.07,-0.01 0.1,-0.03 0.03,-0.02 0.04,-0.06 0.06,-0.1zm0.01 -0.25c0,-0.07 -0.02,-0.13 -0.05,-0.16 -0.04,-0.04 -0.08,-0.06 -0.13,-0.06 -0.05,0 -0.1,0.02 -0.13,0.06 -0.03,0.04 -0.05,0.09 -0.05,0.16l0.36 0z"/>
   <path id="4" class="fil2" d="M33.1 24.1l-0.25 0 0 -0.92 0.23 0 0 0.13c0.04,-0.07 0.07,-0.11 0.1,-0.13 0.03,-0.01 0.07,-0.02 0.11,-0.02 0.05,0 0.11,0.01 0.16,0.04l-0.08 0.21c-0.04,-0.02 -0.08,-0.04 -0.11,-0.04 -0.04,0 -0.06,0.01 -0.09,0.03 -0.02,0.02 -0.04,0.06 -0.05,0.1 -0.02,0.05 -0.02,0.16 -0.02,0.31l0 0.29z"/>
   <polygon id="5" class="fil2" points="34.05,24.1 34.05,22.83 34.99,22.83 34.99,23.04 34.31,23.04 34.31,23.32 34.94,23.32 34.94,23.54 34.31,23.54 34.31,23.88 35.01,23.88 35.01,24.1 "/>
   <path id="6" class="fil2" d="M36.07 24.1l-0.24 0 0 -0.47c0,-0.1 -0.01,-0.17 -0.02,-0.2 -0.01,-0.02 -0.03,-0.05 -0.05,-0.06 -0.02,-0.02 -0.05,-0.03 -0.09,-0.03 -0.04,0 -0.08,0.01 -0.11,0.04 -0.03,0.02 -0.06,0.05 -0.07,0.09 -0.01,0.04 -0.02,0.11 -0.02,0.21l0 0.42 -0.24 0 0 -0.92 0.22 0 0 0.13c0.08,-0.1 0.19,-0.15 0.31,-0.15 0.05,0 0.1,0.01 0.15,0.03 0.04,0.01 0.08,0.04 0.1,0.07 0.02,0.03 0.04,0.06 0.05,0.1 0.01,0.04 0.01,0.09 0.01,0.17l0 0.57z"/>
   <path id="7" class="fil2" d="M36.29 24.16l0.28 0.03c0.01,0.03 0.02,0.05 0.03,0.07 0.03,0.01 0.06,0.02 0.11,0.02 0.07,0 0.11,-0.01 0.15,-0.03 0.02,-0.01 0.03,-0.03 0.05,-0.06 0,-0.02 0.01,-0.05 0.01,-0.11l0 -0.13c-0.08,0.1 -0.17,0.15 -0.28,0.15 -0.12,0 -0.22,-0.06 -0.29,-0.16 -0.06,-0.08 -0.09,-0.19 -0.09,-0.31 0,-0.15 0.04,-0.27 0.11,-0.35 0.08,-0.08 0.17,-0.12 0.28,-0.12 0.11,0 0.21,0.05 0.28,0.15l0 -0.13 0.23 0 0 0.82c0,0.11 -0.01,0.19 -0.03,0.25 -0.02,0.05 -0.04,0.09 -0.07,0.12 -0.03,0.03 -0.08,0.06 -0.13,0.07 -0.06,0.02 -0.12,0.03 -0.21,0.03 -0.15,0 -0.26,-0.03 -0.33,-0.08 -0.07,-0.05 -0.1,-0.12 -0.1,-0.2 0,-0.01 0,-0.02 0,-0.03zm0.22 -0.54c0,0.1 0.02,0.17 0.06,0.21 0.04,0.05 0.08,0.07 0.14,0.07 0.06,0 0.11,-0.02 0.15,-0.07 0.04,-0.05 0.06,-0.11 0.06,-0.21 0,-0.09 -0.02,-0.16 -0.06,-0.21 -0.04,-0.04 -0.09,-0.07 -0.15,-0.07 -0.06,0 -0.1,0.03 -0.14,0.07 -0.04,0.05 -0.06,0.11 -0.06,0.21z"/>
   <path id="8" class="fil2" d="M37.4 23.05l0 -0.22 0.24 0 0 0.22 -0.24 0zm0 1.05l0 -0.92 0.24 0 0 0.92 -0.24 0z"/>
   <path id="9" class="fil2" d="M38.73 24.1l-0.24 0 0 -0.47c0,-0.1 -0.01,-0.17 -0.02,-0.2 -0.01,-0.02 -0.02,-0.05 -0.05,-0.06 -0.02,-0.02 -0.05,-0.03 -0.08,-0.03 -0.05,0 -0.08,0.01 -0.12,0.04 -0.03,0.02 -0.05,0.05 -0.07,0.09 -0.01,0.04 -0.02,0.11 -0.02,0.21l0 0.42 -0.24 0 0 -0.92 0.23 0 0 0.13c0.08,-0.1 0.18,-0.15 0.3,-0.15 0.05,0 0.1,0.01 0.15,0.03 0.04,0.01 0.08,0.04 0.1,0.07 0.02,0.03 0.04,0.06 0.05,0.1 0.01,0.04 0.01,0.09 0.01,0.17l0 0.57z"/>
   <path id="10" class="fil2" d="M39.51 23.81l0.24 0.04c-0.03,0.09 -0.08,0.15 -0.14,0.2 -0.07,0.05 -0.15,0.07 -0.26,0.07 -0.16,0 -0.27,-0.05 -0.35,-0.16 -0.06,-0.08 -0.09,-0.19 -0.09,-0.32 0,-0.15 0.04,-0.27 0.12,-0.35 0.08,-0.09 0.18,-0.13 0.3,-0.13 0.14,0 0.24,0.04 0.32,0.13 0.08,0.09 0.12,0.23 0.12,0.42l-0.61 0c0,0.07 0.02,0.13 0.06,0.17 0.03,0.04 0.08,0.06 0.14,0.06 0.03,0 0.07,-0.01 0.09,-0.03 0.03,-0.02 0.05,-0.06 0.06,-0.1zm0.02 -0.25c-0.01,-0.07 -0.02,-0.13 -0.06,-0.16 -0.03,-0.04 -0.08,-0.06 -0.13,-0.06 -0.05,0 -0.09,0.02 -0.13,0.06 -0.03,0.04 -0.05,0.09 -0.05,0.16l0.37 0z"/>
   <path id="11" class="fil2" d="M40.5 23.81l0.24 0.04c-0.03,0.09 -0.08,0.15 -0.15,0.2 -0.06,0.05 -0.15,0.07 -0.25,0.07 -0.16,0 -0.28,-0.05 -0.35,-0.16 -0.06,-0.08 -0.1,-0.19 -0.1,-0.32 0,-0.15 0.04,-0.27 0.12,-0.35 0.08,-0.09 0.19,-0.13 0.31,-0.13 0.13,0 0.24,0.04 0.32,0.13 0.08,0.09 0.12,0.23 0.11,0.42l-0.6 0c0,0.07 0.02,0.13 0.05,0.17 0.04,0.04 0.09,0.06 0.14,0.06 0.04,0 0.07,-0.01 0.1,-0.03 0.03,-0.02 0.05,-0.06 0.06,-0.1zm0.01 -0.25c0,-0.07 -0.02,-0.13 -0.05,-0.16 -0.04,-0.04 -0.08,-0.06 -0.13,-0.06 -0.05,0 -0.09,0.02 -0.13,0.06 -0.03,0.04 -0.05,0.09 -0.05,0.16l0.36 0z"/>
   <path id="12" class="fil2" d="M41.19 24.1l-0.25 0 0 -0.92 0.23 0 0 0.13c0.04,-0.07 0.07,-0.11 0.1,-0.13 0.03,-0.01 0.07,-0.02 0.11,-0.02 0.05,0 0.11,0.01 0.16,0.04l-0.08 0.21c-0.04,-0.02 -0.08,-0.04 -0.11,-0.04 -0.03,0 -0.06,0.01 -0.09,0.03 -0.02,0.02 -0.04,0.06 -0.05,0.1 -0.02,0.05 -0.02,0.16 -0.02,0.31l0 0.29z"/>
   <path id="13" class="fil2" d="M41.64 23.05l0 -0.22 0.25 0 0 0.22 -0.25 0zm0 1.05l0 -0.92 0.25 0 0 0.92 -0.25 0z"/>
   <path id="14" class="fil2" d="M42.98 24.1l-0.25 0 0 -0.47c0,-0.1 0,-0.17 -0.01,-0.2 -0.01,-0.02 -0.03,-0.05 -0.05,-0.06 -0.03,-0.02 -0.06,-0.03 -0.09,-0.03 -0.04,0 -0.08,0.01 -0.11,0.04 -0.04,0.02 -0.06,0.05 -0.07,0.09 -0.02,0.04 -0.02,0.11 -0.02,0.21l0 0.42 -0.25 0 0 -0.92 0.23 0 0 0.13c0.08,-0.1 0.18,-0.15 0.3,-0.15 0.06,0 0.11,0.01 0.15,0.03 0.05,0.01 0.08,0.04 0.1,0.07 0.03,0.03 0.04,0.06 0.05,0.1 0.01,0.04 0.02,0.09 0.02,0.17l0 0.57z"/>
   <path id="15" class="fil2" d="M43.2 24.16l0.28 0.03c0,0.03 0.01,0.05 0.03,0.07 0.02,0.01 0.06,0.02 0.11,0.02 0.06,0 0.11,-0.01 0.14,-0.03 0.02,-0.01 0.04,-0.03 0.05,-0.06 0.01,-0.02 0.01,-0.05 0.01,-0.11l0 -0.13c-0.07,0.1 -0.16,0.15 -0.27,0.15 -0.13,0 -0.23,-0.06 -0.3,-0.16 -0.05,-0.08 -0.08,-0.19 -0.08,-0.31 0,-0.15 0.03,-0.27 0.11,-0.35 0.07,-0.08 0.17,-0.12 0.28,-0.12 0.11,0 0.2,0.05 0.28,0.15l0 -0.13 0.23 0 0 0.82c0,0.11 -0.01,0.19 -0.03,0.25 -0.02,0.05 -0.04,0.09 -0.08,0.12 -0.03,0.03 -0.07,0.06 -0.13,0.07 -0.05,0.02 -0.12,0.03 -0.2,0.03 -0.16,0 -0.27,-0.03 -0.33,-0.08 -0.07,-0.05 -0.1,-0.12 -0.1,-0.2 0,-0.01 0,-0.02 0,-0.03zm0.22 -0.54c0,0.1 0.02,0.17 0.05,0.21 0.04,0.05 0.09,0.07 0.14,0.07 0.06,0 0.11,-0.02 0.15,-0.07 0.05,-0.05 0.07,-0.11 0.07,-0.21 0,-0.09 -0.02,-0.16 -0.06,-0.21 -0.04,-0.04 -0.09,-0.07 -0.15,-0.07 -0.06,0 -0.11,0.03 -0.15,0.07 -0.03,0.05 -0.05,0.11 -0.05,0.21z"/>
   <path id="16" class="fil2" d="M44.73 23.69l0.25 -0.03c0.02,0.08 0.05,0.15 0.1,0.18 0.04,0.04 0.1,0.06 0.18,0.06 0.08,0 0.15,-0.01 0.19,-0.05 0.04,-0.03 0.06,-0.07 0.06,-0.12 0,-0.03 -0.01,-0.06 -0.03,-0.08 -0.01,-0.02 -0.04,-0.04 -0.09,-0.05 -0.03,-0.01 -0.1,-0.03 -0.2,-0.06 -0.14,-0.03 -0.24,-0.07 -0.29,-0.12 -0.08,-0.07 -0.12,-0.16 -0.12,-0.26 0,-0.07 0.02,-0.13 0.06,-0.18 0.03,-0.06 0.09,-0.1 0.16,-0.13 0.06,-0.03 0.15,-0.05 0.24,-0.05 0.16,0 0.28,0.04 0.36,0.11 0.08,0.07 0.13,0.16 0.13,0.28l-0.26 0.01c-0.01,-0.07 -0.03,-0.11 -0.07,-0.14 -0.03,-0.03 -0.09,-0.04 -0.16,-0.04 -0.07,0 -0.13,0.01 -0.17,0.04 -0.03,0.02 -0.04,0.05 -0.04,0.08 0,0.03 0.01,0.06 0.04,0.08 0.03,0.03 0.11,0.05 0.23,0.08 0.13,0.03 0.22,0.06 0.28,0.1 0.06,0.03 0.1,0.07 0.14,0.12 0.03,0.06 0.05,0.13 0.05,0.21 0,0.07 -0.02,0.14 -0.06,0.2 -0.04,0.07 -0.1,0.11 -0.17,0.14 -0.08,0.03 -0.17,0.05 -0.28,0.05 -0.16,0 -0.29,-0.04 -0.37,-0.11 -0.09,-0.07 -0.14,-0.18 -0.16,-0.32z"/>
   <path id="17" class="fil2" d="M46.52 23.81l0.24 0.04c-0.03,0.09 -0.08,0.15 -0.15,0.2 -0.06,0.05 -0.15,0.07 -0.25,0.07 -0.16,0 -0.28,-0.05 -0.36,-0.16 -0.06,-0.08 -0.09,-0.19 -0.09,-0.32 0,-0.15 0.04,-0.27 0.12,-0.35 0.08,-0.09 0.18,-0.13 0.31,-0.13 0.13,0 0.24,0.04 0.32,0.13 0.08,0.09 0.12,0.23 0.11,0.42l-0.61 0c0.01,0.07 0.03,0.13 0.06,0.17 0.04,0.04 0.09,0.06 0.14,0.06 0.04,0 0.07,-0.01 0.1,-0.03 0.02,-0.02 0.04,-0.06 0.06,-0.1zm0.01 -0.25c0,-0.07 -0.02,-0.13 -0.05,-0.16 -0.04,-0.04 -0.08,-0.06 -0.13,-0.06 -0.05,0 -0.1,0.02 -0.13,0.06 -0.04,0.04 -0.05,0.09 -0.05,0.16l0.36 0z"/>
   <path id="18" class="fil2" d="M47.2 24.1l-0.24 0 0 -0.92 0.23 0 0 0.13c0.04,-0.07 0.07,-0.11 0.1,-0.13 0.03,-0.01 0.07,-0.02 0.11,-0.02 0.05,0 0.11,0.01 0.16,0.04l-0.08 0.21c-0.04,-0.02 -0.08,-0.04 -0.11,-0.04 -0.04,0 -0.07,0.01 -0.09,0.03 -0.02,0.02 -0.04,0.06 -0.05,0.1 -0.02,0.05 -0.03,0.16 -0.03,0.31l0 0.29z"/>
   <path id="19" class="fil2" d="M47.92 24.1l-0.38 -0.92 0.26 0 0.17 0.47 0.05 0.15c0.02,-0.04 0.03,-0.06 0.03,-0.08 0.01,-0.02 0.02,-0.05 0.03,-0.07l0.17 -0.47 0.25 0 -0.36 0.92 -0.22 0z"/>
   <path id="20" class="fil2" d="M48.65 23.05l0 -0.22 0.24 0 0 0.22 -0.24 0zm0 1.05l0 -0.92 0.24 0 0 0.92 -0.24 0z"/>
   <path id="21" class="fil2" d="M49.95 23.45l-0.24 0.04c-0.01,-0.05 -0.03,-0.08 -0.06,-0.11 -0.03,-0.02 -0.06,-0.03 -0.11,-0.03 -0.06,0 -0.11,0.02 -0.14,0.06 -0.04,0.04 -0.06,0.11 -0.06,0.21 0,0.11 0.02,0.19 0.06,0.23 0.03,0.05 0.08,0.07 0.14,0.07 0.05,0 0.09,-0.01 0.12,-0.04 0.03,-0.02 0.05,-0.07 0.06,-0.13l0.24 0.04c-0.03,0.11 -0.07,0.19 -0.14,0.25 -0.07,0.05 -0.17,0.08 -0.29,0.08 -0.13,0 -0.24,-0.04 -0.32,-0.13 -0.08,-0.08 -0.12,-0.2 -0.12,-0.35 0,-0.15 0.04,-0.27 0.12,-0.36 0.08,-0.08 0.19,-0.12 0.33,-0.12 0.11,0 0.2,0.02 0.26,0.07 0.07,0.05 0.12,0.12 0.15,0.22z"/>
   <path id="22" class="fil2" d="M50.66 23.81l0.25 0.04c-0.03,0.09 -0.08,0.15 -0.15,0.2 -0.07,0.05 -0.15,0.07 -0.25,0.07 -0.16,0 -0.28,-0.05 -0.36,-0.16 -0.06,-0.08 -0.09,-0.19 -0.09,-0.32 0,-0.15 0.04,-0.27 0.12,-0.35 0.08,-0.09 0.18,-0.13 0.3,-0.13 0.14,0 0.25,0.04 0.33,0.13 0.08,0.09 0.11,0.23 0.11,0.42l-0.61 0c0,0.07 0.02,0.13 0.06,0.17 0.04,0.04 0.08,0.06 0.14,0.06 0.04,0 0.07,-0.01 0.1,-0.03 0.02,-0.02 0.04,-0.06 0.05,-0.1zm0.02 -0.25c0,-0.07 -0.02,-0.13 -0.06,-0.16 -0.03,-0.04 -0.07,-0.06 -0.12,-0.06 -0.06,0 -0.1,0.02 -0.13,0.06 -0.04,0.04 -0.06,0.09 -0.05,0.16l0.36 0z"/>
   <path id="23" class="fil2" d="M51.03 23.84l0.25 -0.04c0.01,0.05 0.03,0.08 0.06,0.11 0.03,0.02 0.08,0.03 0.13,0.03 0.07,0 0.11,-0.01 0.15,-0.03 0.02,-0.02 0.03,-0.04 0.03,-0.07 0,-0.01 -0.01,-0.03 -0.02,-0.04 -0.01,-0.01 -0.04,-0.02 -0.08,-0.03 -0.2,-0.05 -0.32,-0.09 -0.38,-0.12 -0.07,-0.05 -0.1,-0.12 -0.1,-0.21 0,-0.08 0.03,-0.15 0.09,-0.2 0.06,-0.06 0.16,-0.08 0.29,-0.08 0.13,0 0.22,0.02 0.28,0.06 0.07,0.04 0.11,0.1 0.13,0.18l-0.23 0.04c-0.01,-0.03 -0.03,-0.06 -0.05,-0.08 -0.03,-0.02 -0.07,-0.03 -0.12,-0.03 -0.07,0 -0.11,0.01 -0.14,0.03 -0.02,0.01 -0.03,0.03 -0.03,0.05 0,0.02 0.01,0.03 0.03,0.04 0.02,0.02 0.09,0.04 0.22,0.07 0.13,0.03 0.22,0.07 0.28,0.11 0.05,0.04 0.07,0.1 0.07,0.18 0,0.09 -0.03,0.16 -0.1,0.22 -0.07,0.06 -0.18,0.09 -0.32,0.09 -0.12,0 -0.22,-0.03 -0.29,-0.08 -0.08,-0.05 -0.13,-0.12 -0.15,-0.2z"/>
   <g>
    <path class="fil1" d="M20.38 23.86l0 0.1c0.13,-0.03 0.21,-0.2 0.45,-0.13 0.15,0.05 0.23,0.18 0.41,0.21 0.4,0.06 0.5,-0.43 0.92,-0.13 0.46,0.33 0.62,-0.06 0.87,-0.09 0.32,-0.04 0.48,0.43 0.92,0.12 0.49,-0.33 0.48,0.09 0.88,0.1 0.39,0.01 0.4,-0.44 0.89,-0.1 0.46,0.31 0.59,-0.16 0.92,-0.12 0.15,0.01 0.26,0.15 0.42,0.2 0.2,0.07 0.34,-0.03 0.47,-0.11l0 -0.11c-0.13,0.05 -0.24,0.21 -0.46,0.13 -0.15,-0.06 -0.23,-0.18 -0.42,-0.21 -0.39,-0.05 -0.47,0.44 -0.91,0.12 -0.46,-0.33 -0.59,0.1 -0.9,0.11 -0.29,0 -0.42,-0.43 -0.89,-0.12 -0.51,0.32 -0.49,-0.14 -0.9,-0.11 -0.2,0.01 -0.28,0.14 -0.43,0.2 -0.2,0.08 -0.31,-0.03 -0.44,-0.11 -0.47,-0.29 -0.59,0.19 -0.93,0.13 -0.15,-0.02 -0.24,-0.16 -0.41,-0.21 -0.2,-0.05 -0.33,0.05 -0.46,0.13z"/>
    <path class="fil1" d="M20.38 23.11l0 0.1c0.13,-0.04 0.22,-0.2 0.45,-0.13 0.16,0.05 0.22,0.17 0.41,0.21 0.41,0.06 0.47,-0.43 0.92,-0.12 0.47,0.32 0.6,-0.07 0.87,-0.1 0.34,-0.04 0.46,0.43 0.92,0.12 0.5,-0.33 0.49,0.09 0.88,0.1 0.2,0.01 0.29,-0.11 0.43,-0.18 0.2,-0.11 0.33,0 0.46,0.08 0.45,0.3 0.6,-0.16 0.92,-0.12 0.16,0.01 0.25,0.15 0.42,0.2 0.21,0.07 0.33,-0.03 0.47,-0.11l0 -0.11c-0.13,0.04 -0.22,0.2 -0.45,0.13 -0.15,-0.05 -0.23,-0.18 -0.41,-0.2 -0.41,-0.07 -0.46,0.42 -0.92,0.12 -0.49,-0.33 -0.59,0.06 -0.88,0.09 -0.31,0.04 -0.47,-0.43 -0.91,-0.12 -0.48,0.34 -0.5,-0.1 -0.88,-0.1 -0.41,0 -0.38,0.44 -0.89,0.1 -0.46,-0.31 -0.59,0.16 -0.92,0.12 -0.16,-0.02 -0.25,-0.15 -0.41,-0.2 -0.24,-0.07 -0.33,0.05 -0.48,0.12z"/>
    <path class="fil1" d="M20.38 23.48l0 0.11c0.13,-0.05 0.22,-0.2 0.44,-0.14 0.17,0.05 0.22,0.17 0.42,0.21 0.38,0.07 0.5,-0.4 0.9,-0.14 0.52,0.36 0.57,-0.03 0.88,-0.08 0.33,-0.05 0.46,0.42 0.92,0.14 0.13,-0.09 0.23,-0.19 0.44,-0.11 0.15,0.05 0.23,0.18 0.43,0.2 0.41,0.02 0.4,-0.44 0.9,-0.11 0.14,0.09 0.28,0.15 0.48,0.07 0.14,-0.06 0.25,-0.2 0.43,-0.19 0.17,0.01 0.28,0.15 0.42,0.2 0.23,0.08 0.35,-0.03 0.49,-0.11l0 -0.11c-0.13,0.06 -0.24,0.21 -0.45,0.13 -0.17,-0.05 -0.23,-0.18 -0.43,-0.2 -0.38,-0.05 -0.48,0.43 -0.9,0.12 -0.46,-0.33 -0.62,0.09 -0.89,0.1 -0.31,0.02 -0.47,-0.43 -0.91,-0.12 -0.48,0.34 -0.5,-0.13 -0.9,-0.11 -0.2,0.02 -0.29,0.15 -0.43,0.21 -0.21,0.08 -0.32,-0.04 -0.44,-0.12 -0.47,-0.28 -0.59,0.19 -0.92,0.14 -0.17,-0.03 -0.24,-0.16 -0.42,-0.21 -0.23,-0.06 -0.33,0.05 -0.46,0.12z"/>
   </g>
   <g>
    <path class="fil1" d="M59.85 23.86l0 0.1c-0.13,-0.03 -0.21,-0.2 -0.45,-0.13 -0.15,0.05 -0.23,0.18 -0.41,0.21 -0.4,0.06 -0.5,-0.43 -0.92,-0.13 -0.45,0.33 -0.62,-0.06 -0.87,-0.09 -0.32,-0.04 -0.48,0.43 -0.92,0.12 -0.49,-0.33 -0.48,0.09 -0.88,0.1 -0.39,0.01 -0.39,-0.44 -0.89,-0.1 -0.46,0.31 -0.59,-0.16 -0.92,-0.12 -0.15,0.01 -0.26,0.15 -0.42,0.2 -0.2,0.07 -0.34,-0.03 -0.47,-0.11l0 -0.11c0.13,0.05 0.24,0.21 0.46,0.13 0.15,-0.06 0.23,-0.18 0.42,-0.21 0.39,-0.05 0.47,0.44 0.91,0.12 0.46,-0.33 0.59,0.1 0.9,0.11 0.29,0 0.42,-0.43 0.89,-0.12 0.51,0.32 0.49,-0.14 0.9,-0.11 0.2,0.01 0.28,0.14 0.43,0.2 0.2,0.08 0.31,-0.03 0.44,-0.11 0.47,-0.29 0.59,0.19 0.93,0.13 0.15,-0.02 0.24,-0.16 0.41,-0.21 0.2,-0.05 0.33,0.05 0.46,0.13z"/>
    <path class="fil1" d="M59.85 23.11l0 0.1c-0.13,-0.04 -0.22,-0.2 -0.45,-0.13 -0.16,0.05 -0.22,0.17 -0.41,0.21 -0.4,0.06 -0.47,-0.43 -0.92,-0.12 -0.47,0.32 -0.6,-0.07 -0.87,-0.1 -0.34,-0.04 -0.46,0.43 -0.92,0.12 -0.5,-0.33 -0.49,0.09 -0.88,0.1 -0.2,0.01 -0.29,-0.11 -0.43,-0.18 -0.2,-0.11 -0.33,0 -0.46,0.08 -0.45,0.3 -0.6,-0.16 -0.92,-0.12 -0.16,0.01 -0.25,0.15 -0.42,0.2 -0.21,0.07 -0.33,-0.03 -0.47,-0.11l0 -0.11c0.13,0.04 0.22,0.2 0.45,0.13 0.15,-0.05 0.23,-0.18 0.41,-0.2 0.41,-0.07 0.46,0.42 0.92,0.12 0.49,-0.33 0.59,0.06 0.88,0.09 0.31,0.04 0.47,-0.43 0.91,-0.12 0.48,0.34 0.5,-0.1 0.88,-0.1 0.41,0 0.38,0.44 0.89,0.1 0.46,-0.31 0.59,0.16 0.92,0.12 0.16,-0.02 0.25,-0.15 0.42,-0.2 0.23,-0.07 0.32,0.05 0.47,0.12z"/>
    <path class="fil1" d="M59.85 23.48l0 0.11c-0.13,-0.05 -0.22,-0.2 -0.44,-0.14 -0.17,0.05 -0.22,0.17 -0.41,0.21 -0.39,0.07 -0.51,-0.4 -0.9,-0.14 -0.53,0.36 -0.58,-0.03 -0.89,-0.08 -0.33,-0.05 -0.46,0.42 -0.92,0.14 -0.13,-0.09 -0.23,-0.19 -0.44,-0.11 -0.15,0.05 -0.23,0.18 -0.43,0.2 -0.41,0.02 -0.4,-0.44 -0.9,-0.11 -0.14,0.09 -0.28,0.15 -0.48,0.07 -0.14,-0.06 -0.25,-0.2 -0.43,-0.19 -0.17,0.01 -0.28,0.15 -0.42,0.2 -0.23,0.08 -0.35,-0.03 -0.49,-0.11l0 -0.11c0.13,0.06 0.24,0.21 0.45,0.13 0.17,-0.05 0.23,-0.18 0.43,-0.2 0.38,-0.05 0.48,0.43 0.9,0.12 0.46,-0.33 0.62,0.09 0.89,0.1 0.31,0.02 0.47,-0.43 0.91,-0.12 0.48,0.34 0.5,-0.13 0.9,-0.11 0.2,0.02 0.29,0.15 0.43,0.21 0.21,0.08 0.32,-0.04 0.45,-0.12 0.46,-0.28 0.58,0.19 0.91,0.14 0.17,-0.03 0.24,-0.16 0.43,-0.21 0.22,-0.06 0.32,0.05 0.45,0.12z"/>
   </g>
  </g>
 </g>
</svg>
