<?xml version="1.0" encoding="UTF-8"?>
<!DOCTYPE svg PUBLIC "-//W3C//DTD SVG 1.1//EN" "http://www.w3.org/Graphics/SVG/1.1/DTD/svg11.dtd">
<!-- Creator: CorelDRAW 2019 (64-Bit) -->
<svg xmlns="http://www.w3.org/2000/svg" xml:space="preserve" width="220px" height="240px" version="1.1" style="shape-rendering:geometricPrecision; text-rendering:geometricPrecision; image-rendering:optimizeQuality; fill-rule:evenodd; clip-rule:evenodd"
viewBox="0 0 22.72 24.75"
 xmlns:xlink="http://www.w3.org/1999/xlink"
 xmlns:xodm="http://www.corel.com/coreldraw/odm/2003">
 <defs>
  <style type="text/css">
   <![CDATA[
    .fil1 {fill:#FEFEFE}
    .fil0 {fill:#3C63AC}
    .fil2 {fill:#F58634;fill-rule:nonzero}
   ]]>
  </style>
 </defs>
 <g id="Layer_x0020_1">
  <metadata id="CorelCorpID_0Corel-Layer"/>
  <g id="_2700928584720">
   <g>
    <path class="fil0" d="M6.56 7.83c0.96,1.31 2.72,1.59 2.62,1.91 -0.13,0.4 -1.44,-0.15 -2.42,-1.1 -0.82,-0.8 -1.4,-1.83 -1.57,-1.66 -0.42,0.39 0.26,1.52 1.25,2.4 0.61,0.67 1.82,1.07 1.79,1.27 -0.03,0.2 -2.26,-0.76 -2.99,-1.92l-0.34 -0.55c-0.26,-0.45 -0.52,0.29 0.1,1.26 1.24,1.62 3.24,1.97 3.12,2.23 -0.06,0.12 -1.07,-0.35 -1.74,-0.58 -1.26,-0.43 1.16,1.9 4.57,1.86 1.74,-0.03 5.29,-0.68 6.86,-5.19 -2.12,1.31 -5.71,0.05 -7.3,-0.79 -0.45,-0.2 -1.96,-1 -2.24,-0.55 -0.43,0.69 1.58,1.57 2.1,1.75 0.45,0.16 1.19,0.3 0.9,0.61 -0.29,0.32 -2.85,-0.05 -4.24,-1.82 -0.29,-0.32 -0.79,-1.07 -1.09,-0.82 -0.3,0.26 0.21,1.15 0.62,1.69z"/>
    <path class="fil0" d="M16.16 5.12c-0.96,-1.31 -2.72,-1.59 -2.62,-1.91 0.13,-0.4 1.44,0.15 2.42,1.1 0.82,0.8 1.4,1.82 1.57,1.66 0.42,-0.39 -0.26,-1.52 -1.25,-2.4 -0.61,-0.67 -1.82,-1.07 -1.79,-1.27 0.03,-0.2 2.26,0.76 3,1.92l0.33 0.55c0.27,0.45 0.52,-0.29 -0.1,-1.26 -0.75,-1.24 -3.24,-1.97 -3.12,-2.23 0.06,-0.12 1.07,0.35 1.74,0.58 1.26,0.43 -1.16,-1.91 -4.57,-1.86 -1.74,0.02 -5.29,0.68 -6.86,5.18 2.12,-1.3 5.71,-0.04 7.3,0.8 0.45,0.19 1.96,1 2.24,0.55 0.43,-0.7 -1.58,-1.57 -2.1,-1.75 -0.45,-0.16 -1.19,-0.3 -0.9,-0.61 0.29,-0.32 2.86,0.04 4.24,1.82 0.3,0.31 0.79,1.06 1.09,0.81 0.31,-0.25 -0.2,-1.15 -0.62,-1.68z"/>
    <path class="fil1" d="M12 0.95c-0.58,0.52 -0.28,0.45 -0.15,1.05 0.12,0.59 -0.13,0.86 -0.64,0.9l0.12 -1.91 -0.59 -0.01c-0.09,0.34 -0.11,0.78 -0.18,1.11 -0.09,0.54 -0.2,0.67 -0.54,0.7 -0.34,0.03 0.07,-1.19 0.03,-1.78 -0.01,-0.15 -0.3,-0.11 -0.66,-0.08 -0.09,0.45 -0.36,1.66 -0.2,2.11 0.26,0.75 1.04,0.51 1.53,0.31 1.61,1.11 2.62,-1.72 1.28,-2.4z"/>
    <path class="fil1" d="M13.12 11.31c-0.88,0.12 -1.36,0.12 -1.36,-0.13 0,-0.26 0.44,-0.02 0.53,-0.35 0.16,-0.35 -0.2,-0.35 -0.1,-0.69 0.09,-0.34 1.29,0.18 1.41,-0.11 0.18,-0.39 -0.89,-0.59 -1.19,-0.6 -1.13,-0.01 -0.96,0.61 -1.09,1.13 -1.46,1.76 1.99,1.88 1.8,0.75z"/>
   </g>
   <path class="fil2" d="M4.08 16.3l-0.13 -0.31c-0.07,-0.18 -0.17,-0.29 -0.29,-0.35 -0.21,-0.12 -0.32,-0.26 -0.32,-0.43 0,-0.37 0.57,-0.56 1.69,-0.56 0.56,0 0.99,0.05 1.28,0.14 0.1,0.03 0.18,0.08 0.24,0.15 0.06,0.07 0.09,0.15 0.09,0.24 0,0.07 -0.01,0.12 -0.04,0.16 -0.03,0.04 -0.1,0.12 -0.23,0.23 -0.07,0.06 -0.11,0.12 -0.11,0.19 0,0.1 0.06,0.27 0.17,0.51l0.25 0.54c0.11,0.24 0.19,0.39 0.24,0.46 0.05,0.06 0.11,0.1 0.17,0.1 0.06,0 0.12,-0.04 0.17,-0.12 0.05,-0.07 0.11,-0.22 0.19,-0.44l0.21 -0.62c0.06,-0.18 0.09,-0.31 0.09,-0.4 0,-0.11 -0.07,-0.19 -0.19,-0.23 -0.24,-0.08 -0.37,-0.22 -0.37,-0.42 0,-0.18 0.1,-0.3 0.29,-0.38 0.19,-0.07 0.5,-0.11 0.94,-0.11 0.28,0 0.5,0.03 0.66,0.09 0.22,0.09 0.33,0.23 0.33,0.43 0,0.08 -0.02,0.15 -0.06,0.22 -0.04,0.06 -0.12,0.14 -0.24,0.24 -0.08,0.07 -0.14,0.14 -0.18,0.22 -0.04,0.07 -0.11,0.23 -0.2,0.47l-0.76 2.04c-0.39,0.95 -0.62,1.52 -0.7,1.7 -0.08,0.18 -0.16,0.34 -0.24,0.49 -0.07,0.1 -0.14,0.18 -0.22,0.22 -0.08,0.04 -0.18,0.06 -0.32,0.06 -0.17,0 -0.31,-0.03 -0.42,-0.11 -0.11,-0.08 -0.2,-0.2 -0.27,-0.38l-0.87 -2.06c-0.05,-0.12 -0.08,-0.19 -0.11,-0.22 -0.02,-0.03 -0.05,-0.04 -0.09,-0.04 -0.06,0 -0.12,0.03 -0.16,0.11 -0.04,0.07 -0.13,0.26 -0.25,0.56l-0.6 1.49c-0.11,0.27 -0.22,0.45 -0.32,0.53 -0.1,0.09 -0.25,0.13 -0.46,0.13 -0.18,0 -0.33,-0.04 -0.43,-0.13 -0.11,-0.09 -0.21,-0.24 -0.3,-0.46l-1.61 -4.14c-0.07,-0.17 -0.12,-0.27 -0.14,-0.3 -0.03,-0.03 -0.1,-0.08 -0.24,-0.15 -0.15,-0.08 -0.22,-0.21 -0.22,-0.39 0,-0.41 0.51,-0.62 1.54,-0.62 0.52,0 0.9,0.04 1.14,0.11 0.22,0.07 0.33,0.22 0.33,0.44 0,0.07 0,0.11 -0.01,0.14 -0.02,0.03 -0.06,0.1 -0.13,0.21 -0.04,0.05 -0.05,0.12 -0.05,0.21 0,0.14 0.09,0.45 0.29,0.91l0.18 0.42c0.08,0.18 0.13,0.28 0.15,0.32 0.03,0.04 0.06,0.05 0.11,0.05 0.11,0 0.23,-0.16 0.35,-0.48l0.18 -0.5c0.02,-0.04 0.02,-0.07 0.02,-0.09 0,-0.02 0,-0.05 -0.02,-0.09z"/>
   <path id="1" class="fil2" d="M11.57 16.36c0.51,0 0.94,0.13 1.3,0.38 0.18,0.14 0.32,0.3 0.39,0.48 0.07,0.17 0.11,0.42 0.11,0.73l-0.01 0.65c0,0.46 0.04,0.75 0.1,0.88 0.03,0.07 0.06,0.11 0.09,0.13 0.03,0.02 0.09,0.03 0.19,0.05 0.09,0.01 0.14,0.07 0.14,0.18 0,0.14 -0.06,0.29 -0.17,0.44 -0.11,0.15 -0.26,0.28 -0.44,0.38 -0.22,0.13 -0.45,0.2 -0.69,0.2 -0.31,0 -0.55,-0.11 -0.73,-0.32 -0.06,-0.08 -0.12,-0.11 -0.17,-0.11 -0.06,0 -0.13,0.03 -0.23,0.1 -0.29,0.22 -0.63,0.33 -1,0.33 -0.38,0 -0.69,-0.09 -0.93,-0.25 -0.15,-0.11 -0.28,-0.25 -0.37,-0.42 -0.09,-0.18 -0.14,-0.36 -0.14,-0.55 0,-0.31 0.13,-0.57 0.37,-0.81 0.39,-0.37 0.96,-0.56 1.73,-0.56 0.17,0 0.27,-0.01 0.32,-0.05 0.04,-0.03 0.06,-0.11 0.06,-0.23 0,-0.31 -0.03,-0.54 -0.09,-0.68 -0.07,-0.14 -0.17,-0.21 -0.32,-0.21 -0.09,0 -0.17,0.03 -0.24,0.08 -0.07,0.06 -0.15,0.15 -0.25,0.29 -0.26,0.37 -0.54,0.56 -0.82,0.56 -0.14,0 -0.26,-0.04 -0.35,-0.13 -0.09,-0.08 -0.14,-0.19 -0.14,-0.33 0,-0.14 0.06,-0.28 0.17,-0.42 0.11,-0.14 0.27,-0.27 0.46,-0.37 0.53,-0.28 1.08,-0.42 1.66,-0.42zm-0.29 2.54c-0.13,0 -0.24,0.05 -0.34,0.16 -0.09,0.1 -0.14,0.23 -0.14,0.38 0,0.14 0.03,0.25 0.1,0.34 0.07,0.08 0.16,0.13 0.27,0.13 0.23,0 0.35,-0.2 0.35,-0.6 0,-0.16 -0.02,-0.27 -0.05,-0.32 -0.04,-0.06 -0.1,-0.09 -0.19,-0.09z"/>
   <path id="2" class="fil2" d="M16.75 17.18l0.55 0c0.09,0 0.15,0.01 0.19,0.04 0.04,0.03 0.06,0.07 0.05,0.14l-0.03 0.52c-0.01,0.11 -0.03,0.17 -0.05,0.2 -0.03,0.03 -0.09,0.04 -0.18,0.04 -0.02,0 -0.07,0 -0.14,-0.01 -0.05,0 -0.1,0 -0.13,0 -0.13,0 -0.21,0.04 -0.25,0.12 -0.05,0.08 -0.07,0.23 -0.07,0.46 0,0.31 0.03,0.57 0.1,0.78 0.03,0.09 0.06,0.15 0.11,0.2 0.05,0.04 0.14,0.08 0.25,0.11 0.26,0.08 0.39,0.22 0.39,0.43 0,0.22 -0.15,0.37 -0.45,0.47 -0.3,0.1 -0.8,0.15 -1.48,0.15 -1.02,0 -1.53,-0.21 -1.53,-0.61 0,-0.1 0.03,-0.17 0.07,-0.22 0.04,-0.05 0.13,-0.1 0.28,-0.16 0.15,-0.07 0.25,-0.2 0.28,-0.39 0.05,-0.29 0.07,-0.6 0.07,-0.93 0,-0.14 -0.02,-0.25 -0.07,-0.3 -0.06,-0.06 -0.15,-0.09 -0.28,-0.08 -0.16,0 -0.26,-0.01 -0.31,-0.03 -0.04,-0.01 -0.06,-0.05 -0.06,-0.11l0.04 -0.56c0,-0.09 0.02,-0.14 0.04,-0.17 0.03,-0.02 0.1,-0.03 0.21,-0.04 0.11,0 0.16,-0.06 0.16,-0.16 0,-0.04 -0.04,-0.13 -0.11,-0.28 -0.14,-0.24 -0.21,-0.48 -0.21,-0.73 0,-0.36 0.13,-0.65 0.37,-0.87 0.36,-0.33 0.88,-0.5 1.55,-0.5 0.56,0 1,0.13 1.33,0.39 0.26,0.2 0.38,0.44 0.38,0.7 0,0.19 -0.06,0.35 -0.19,0.48 -0.12,0.13 -0.28,0.2 -0.47,0.2 -0.21,0 -0.41,-0.07 -0.6,-0.22 -0.05,-0.04 -0.16,-0.16 -0.34,-0.35 -0.12,-0.13 -0.25,-0.2 -0.37,-0.2 -0.09,0 -0.16,0.03 -0.21,0.09 -0.06,0.05 -0.09,0.13 -0.09,0.21 0,0.23 0.22,0.48 0.66,0.74 0.13,0.09 0.22,0.15 0.27,0.2 0.05,0.04 0.09,0.11 0.13,0.2 0.02,0.03 0.07,0.05 0.14,0.05z"/>
   <path id="3" class="fil2" d="M20.41 16.36c0.51,0 0.95,0.13 1.3,0.38 0.19,0.14 0.32,0.3 0.39,0.48 0.08,0.17 0.12,0.42 0.12,0.73l-0.01 0.65c0,0.46 0.03,0.75 0.09,0.88 0.04,0.07 0.07,0.11 0.1,0.13 0.03,0.02 0.09,0.03 0.18,0.05 0.09,0.01 0.14,0.07 0.14,0.18 0,0.14 -0.05,0.29 -0.17,0.44 -0.11,0.15 -0.26,0.28 -0.43,0.38 -0.23,0.13 -0.45,0.2 -0.69,0.2 -0.31,0 -0.56,-0.11 -0.73,-0.32 -0.06,-0.08 -0.12,-0.11 -0.18,-0.11 -0.05,0 -0.13,0.03 -0.23,0.1 -0.29,0.22 -0.62,0.33 -1,0.33 -0.38,0 -0.69,-0.09 -0.93,-0.25 -0.15,-0.11 -0.28,-0.25 -0.37,-0.42 -0.09,-0.18 -0.13,-0.36 -0.13,-0.55 0,-0.31 0.12,-0.57 0.37,-0.81 0.38,-0.37 0.95,-0.56 1.72,-0.56 0.17,0 0.28,-0.01 0.32,-0.05 0.04,-0.03 0.07,-0.11 0.07,-0.23 0,-0.31 -0.04,-0.54 -0.1,-0.68 -0.07,-0.14 -0.17,-0.21 -0.32,-0.21 -0.09,0 -0.16,0.03 -0.23,0.08 -0.07,0.06 -0.16,0.15 -0.26,0.29 -0.26,0.37 -0.53,0.56 -0.82,0.56 -0.14,0 -0.26,-0.04 -0.35,-0.13 -0.09,-0.08 -0.13,-0.19 -0.13,-0.33 0,-0.14 0.05,-0.28 0.17,-0.42 0.11,-0.14 0.26,-0.27 0.45,-0.37 0.53,-0.28 1.09,-0.42 1.66,-0.42zm-0.29 2.54c-0.13,0 -0.24,0.05 -0.34,0.16 -0.09,0.1 -0.14,0.23 -0.14,0.38 0,0.14 0.04,0.25 0.1,0.34 0.07,0.08 0.16,0.13 0.27,0.13 0.24,0 0.35,-0.2 0.35,-0.6 0,-0.16 -0.01,-0.27 -0.05,-0.32 -0.03,-0.06 -0.1,-0.09 -0.19,-0.09z"/>
   <path class="fil2" d="M0.63 21.57l0.95 0c0.19,0 0.33,0 0.42,-0.01 0.09,-0.01 0.17,-0.03 0.26,-0.05 0.02,-0.01 0.04,-0.01 0.06,-0.01 0.06,0 0.12,0.03 0.17,0.1 0.08,0.11 0.12,0.25 0.12,0.41 0,0.08 -0.02,0.14 -0.05,0.18 -0.04,0.05 -0.08,0.07 -0.14,0.07 -0.04,0 -0.07,0 -0.1,-0.02 -0.02,-0.02 -0.05,-0.06 -0.09,-0.11 -0.05,-0.08 -0.12,-0.14 -0.2,-0.17 -0.09,-0.03 -0.22,-0.04 -0.41,-0.04 -0.14,0 -0.23,0.03 -0.26,0.08 -0.02,0.02 -0.03,0.06 -0.03,0.11 0,0.04 0,0.16 0,0.34 0,0.08 0.01,0.12 0.03,0.14 0.03,0.02 0.09,0.03 0.2,0.03 0.05,0 0.09,-0.01 0.11,-0.03 0.02,-0.03 0.04,-0.06 0.04,-0.12 0.01,-0.07 0.02,-0.12 0.03,-0.15 0.01,-0.02 0.03,-0.05 0.05,-0.07 0.03,-0.02 0.06,-0.03 0.09,-0.03 0.05,0 0.09,0.03 0.13,0.07 0.03,0.04 0.05,0.1 0.07,0.19 0.01,0.09 0.02,0.19 0.02,0.28 0,0.2 -0.03,0.36 -0.09,0.48 -0.03,0.07 -0.08,0.1 -0.15,0.1 -0.04,0 -0.07,-0.01 -0.09,-0.03 -0.01,-0.02 -0.02,-0.06 -0.03,-0.13 -0.02,-0.14 -0.1,-0.21 -0.25,-0.21 -0.05,0 -0.09,0.02 -0.11,0.05 -0.02,0.04 -0.03,0.1 -0.03,0.2 0,0.05 0,0.13 0.01,0.22 0.01,0.09 0.02,0.15 0.03,0.18 0.01,0.04 0.04,0.06 0.09,0.08 0.05,0.01 0.13,0.02 0.25,0.02 0.19,0 0.33,-0.02 0.42,-0.07 0.09,-0.05 0.17,-0.13 0.23,-0.26 0.03,-0.07 0.06,-0.12 0.09,-0.14 0.03,-0.03 0.07,-0.04 0.11,-0.04 0.05,0 0.09,0.02 0.13,0.07 0.03,0.04 0.05,0.1 0.05,0.17 0,0.07 -0.02,0.16 -0.06,0.27 -0.04,0.11 -0.08,0.21 -0.14,0.3 -0.03,0.04 -0.05,0.07 -0.07,0.08 -0.02,0.02 -0.04,0.02 -0.07,0.02 -0.02,0 -0.06,0 -0.1,-0.01 -0.08,-0.01 -0.18,-0.02 -0.32,-0.03l-1.56 0c-0.06,0 -0.11,-0.01 -0.14,-0.04 -0.04,-0.02 -0.06,-0.06 -0.06,-0.11 0,-0.04 0.01,-0.07 0.03,-0.08 0.01,-0.02 0.05,-0.04 0.1,-0.06 0.03,-0.02 0.06,-0.04 0.08,-0.06 0.02,-0.02 0.03,-0.06 0.04,-0.1 0.04,-0.19 0.06,-0.44 0.06,-0.75 0,-0.48 -0.03,-0.78 -0.09,-0.9 -0.01,-0.03 -0.02,-0.04 -0.04,-0.05 -0.01,-0.01 -0.04,-0.03 -0.09,-0.04 -0.07,-0.02 -0.1,-0.07 -0.1,-0.14 0,-0.04 0.01,-0.07 0.03,-0.1 0.02,-0.03 0.06,-0.05 0.09,-0.06 0.05,-0.02 0.14,-0.02 0.28,-0.02z"/>
   <path id="1" class="fil2" d="M5.09 22.93l0.03 0.65c0,0.05 0.01,0.08 0.02,0.11 0.01,0.02 0.05,0.06 0.11,0.13 0.02,0.02 0.03,0.05 0.03,0.08 0,0.08 -0.05,0.14 -0.15,0.17 -0.09,0.04 -0.27,0.05 -0.52,0.05 -0.16,0 -0.29,-0.01 -0.35,-0.04 -0.08,-0.03 -0.11,-0.08 -0.11,-0.15 0,-0.03 0,-0.05 0.01,-0.06 0,-0.01 0.03,-0.04 0.07,-0.08 0.05,-0.05 0.07,-0.23 0.07,-0.52 0,-0.17 -0.01,-0.29 -0.05,-0.37 -0.04,-0.07 -0.09,-0.1 -0.18,-0.1 -0.08,0 -0.14,0.02 -0.17,0.08 -0.03,0.05 -0.05,0.15 -0.05,0.28l0 0.37c0,0.07 0.01,0.12 0.02,0.15 0.01,0.03 0.04,0.08 0.09,0.16 0.01,0.02 0.02,0.04 0.02,0.07 0,0.07 -0.05,0.13 -0.15,0.16 -0.1,0.04 -0.26,0.05 -0.47,0.05 -0.35,0 -0.52,-0.07 -0.52,-0.21 0,-0.03 0.01,-0.05 0.02,-0.07 0.01,-0.01 0.03,-0.03 0.07,-0.06 0.04,-0.02 0.06,-0.05 0.06,-0.08 0.01,-0.03 0.02,-0.11 0.03,-0.22 0.01,-0.14 0.01,-0.29 0.01,-0.44 0,-0.09 -0.01,-0.14 -0.02,-0.17 -0.01,-0.03 -0.05,-0.06 -0.11,-0.1 -0.05,-0.03 -0.08,-0.07 -0.08,-0.12 0,-0.05 0.02,-0.09 0.07,-0.12 0.04,-0.03 0.13,-0.07 0.26,-0.12 0.12,-0.04 0.23,-0.08 0.34,-0.11 0.11,-0.02 0.19,-0.04 0.23,-0.04 0.03,0 0.06,0.02 0.09,0.04 0.02,0.03 0.04,0.06 0.04,0.1 0,0 0,0.02 0,0.04 -0.01,0.01 -0.01,0.02 -0.01,0.03 0,0.06 0.03,0.09 0.08,0.09 0.03,0 0.06,-0.02 0.09,-0.07 0.11,-0.15 0.26,-0.23 0.46,-0.23 0.16,0 0.29,0.04 0.4,0.12 0.08,0.06 0.13,0.13 0.16,0.21 0.03,0.07 0.05,0.19 0.06,0.34z"/>
   <path id="2" class="fil2" d="M6.48 22.73l0 0.62c0,0.08 0.02,0.14 0.06,0.19 0.03,0.04 0.08,0.07 0.13,0.07 0.05,0 0.12,-0.03 0.19,-0.07 0.02,-0.01 0.04,-0.02 0.06,-0.02 0.03,0 0.06,0.02 0.08,0.06 0.03,0.03 0.04,0.07 0.04,0.11 0,0.08 -0.04,0.15 -0.13,0.22 -0.17,0.15 -0.38,0.22 -0.63,0.22 -0.2,0 -0.36,-0.05 -0.48,-0.16 -0.11,-0.11 -0.17,-0.26 -0.17,-0.44l0 -0.85c0,-0.03 -0.01,-0.05 -0.01,-0.06 -0.01,0 -0.03,-0.01 -0.06,-0.01l-0.19 0c-0.03,0 -0.06,0 -0.07,-0.01 0,-0.02 -0.01,-0.04 -0.01,-0.09l0 -0.08c0,-0.03 0.02,-0.06 0.04,-0.08l0.85 -0.53c0.02,-0.01 0.04,-0.02 0.07,-0.02l0.15 0c0.03,0 0.05,0.01 0.07,0.03 0.01,0.01 0.01,0.04 0.01,0.08l0 0.25c0,0.04 0.01,0.06 0.02,0.07 0.01,0.01 0.04,0.02 0.07,0.02l0.34 0c0.05,0 0.08,0.01 0.09,0.02 0.02,0.02 0.02,0.05 0.02,0.11l0 0.11c0,0.06 -0.01,0.1 -0.02,0.12 -0.02,0.02 -0.05,0.03 -0.1,0.03l-0.33 0c-0.03,0 -0.06,0.01 -0.07,0.02 -0.01,0.01 -0.02,0.04 -0.02,0.07z"/>
   <path id="3" class="fil2" d="M8.81 23.26l-0.86 0c-0.04,0 -0.06,0.02 -0.06,0.05 0,0.08 0.04,0.15 0.13,0.22 0.09,0.08 0.18,0.11 0.28,0.11 0.06,0 0.12,-0.01 0.19,-0.03 0.08,-0.03 0.14,-0.05 0.18,-0.09 0.04,-0.03 0.08,-0.04 0.1,-0.04 0.03,0 0.06,0.02 0.09,0.06 0.04,0.04 0.05,0.08 0.05,0.12 0,0.09 -0.05,0.17 -0.16,0.25 -0.2,0.15 -0.43,0.22 -0.68,0.22 -0.26,0 -0.48,-0.07 -0.65,-0.22 -0.08,-0.07 -0.15,-0.16 -0.21,-0.27 -0.07,-0.14 -0.11,-0.28 -0.11,-0.44 0,-0.2 0.06,-0.39 0.19,-0.55 0.11,-0.15 0.25,-0.25 0.41,-0.32 0.13,-0.05 0.26,-0.08 0.41,-0.08 0.23,0 0.43,0.06 0.59,0.2 0.09,0.06 0.15,0.14 0.2,0.23 0.06,0.11 0.09,0.21 0.09,0.31 0,0.08 -0.02,0.14 -0.05,0.19 -0.03,0.05 -0.08,0.08 -0.13,0.08zm-0.82 -0.35l0.19 0c0.08,0 0.12,-0.03 0.12,-0.1 0,-0.07 -0.02,-0.13 -0.06,-0.17 -0.04,-0.04 -0.09,-0.06 -0.15,-0.06 -0.07,0 -0.12,0.03 -0.16,0.08 -0.04,0.05 -0.06,0.1 -0.06,0.15 0,0.04 0.01,0.07 0.03,0.08 0.02,0.02 0.05,0.02 0.09,0.02z"/>
   <path id="4" class="fil2" d="M9.97 22.26c0.07,0 0.11,0.01 0.12,0.03 0.01,0.02 0.03,0.08 0.04,0.17 0,0.06 0.02,0.09 0.05,0.09 0.03,0 0.05,-0.02 0.07,-0.06 0.1,-0.15 0.23,-0.23 0.39,-0.23 0.11,0 0.2,0.04 0.27,0.11 0.04,0.04 0.07,0.08 0.09,0.14 0.02,0.05 0.03,0.11 0.03,0.16 0,0.06 -0.01,0.12 -0.04,0.18 -0.02,0.06 -0.06,0.11 -0.1,0.15 -0.08,0.07 -0.18,0.11 -0.29,0.11 -0.07,0 -0.12,-0.01 -0.16,-0.03 -0.04,-0.03 -0.1,-0.07 -0.17,-0.14 -0.02,-0.02 -0.05,-0.04 -0.07,-0.04 -0.03,0 -0.06,0.02 -0.07,0.06 -0.01,0.04 -0.01,0.12 -0.01,0.25 0,0.18 0.01,0.31 0.02,0.37 0.01,0.04 0.02,0.07 0.03,0.08 0.02,0.02 0.05,0.03 0.1,0.04 0.11,0.04 0.17,0.1 0.17,0.18 0,0.05 -0.02,0.09 -0.05,0.13 -0.04,0.04 -0.09,0.06 -0.15,0.07 -0.11,0.03 -0.29,0.04 -0.52,0.04 -0.21,0 -0.38,-0.02 -0.49,-0.06 -0.1,-0.03 -0.15,-0.09 -0.15,-0.17 0,-0.07 0.03,-0.13 0.11,-0.18 0.03,-0.02 0.06,-0.04 0.07,-0.06 0.01,-0.02 0.02,-0.04 0.03,-0.08 0.02,-0.11 0.03,-0.32 0.03,-0.62 0,-0.05 -0.01,-0.09 -0.02,-0.12 -0.01,-0.02 -0.04,-0.04 -0.07,-0.06 -0.09,-0.03 -0.13,-0.08 -0.13,-0.14 0,-0.06 0.03,-0.12 0.09,-0.16 0.06,-0.04 0.16,-0.08 0.3,-0.12 0.19,-0.06 0.35,-0.09 0.48,-0.09z"/>
   <path id="5" class="fil2" d="M12.06 22.26c0.07,0 0.12,0 0.14,0.02 0.02,0.01 0.03,0.04 0.03,0.09 0,0.05 0.01,0.07 0.04,0.07 0.01,0 0.05,-0.02 0.12,-0.07 0.06,-0.03 0.12,-0.06 0.2,-0.09 0.09,-0.02 0.16,-0.03 0.23,-0.03 0.15,0 0.29,0.05 0.41,0.16 0.1,0.08 0.17,0.19 0.22,0.31 0.06,0.13 0.08,0.27 0.08,0.42 0,0.3 -0.1,0.56 -0.31,0.76 -0.16,0.16 -0.34,0.23 -0.55,0.23 -0.1,0 -0.21,-0.02 -0.32,-0.07 -0.02,-0.01 -0.04,-0.01 -0.06,-0.01 -0.03,0 -0.05,0.03 -0.05,0.11 0,0.09 0.03,0.16 0.1,0.21 0.06,0.04 0.09,0.06 0.11,0.08 0.01,0.01 0.01,0.04 0.01,0.07 0,0.07 -0.04,0.13 -0.12,0.17 -0.08,0.04 -0.2,0.06 -0.35,0.06 -0.27,0 -0.5,-0.05 -0.7,-0.16 -0.1,-0.05 -0.15,-0.12 -0.15,-0.2 0,-0.04 0.01,-0.07 0.02,-0.09 0.02,-0.01 0.05,-0.03 0.09,-0.06 0.06,-0.02 0.1,-0.08 0.12,-0.16 0.01,-0.07 0.02,-0.3 0.03,-0.66 -0.01,-0.3 -0.02,-0.47 -0.03,-0.51 -0.01,-0.01 -0.02,-0.02 -0.02,-0.03 -0.01,0 -0.04,-0.01 -0.1,-0.02 -0.04,0 -0.07,-0.02 -0.09,-0.05 -0.03,-0.03 -0.04,-0.06 -0.04,-0.1 0,-0.05 0.02,-0.1 0.05,-0.13 0.04,-0.04 0.09,-0.08 0.17,-0.11 0.3,-0.14 0.54,-0.21 0.72,-0.21zm0.18 0.69l-0.03 0.51c0,0.02 0,0.04 0,0.06 0,0.04 0.02,0.07 0.05,0.09 0.03,0.03 0.08,0.04 0.13,0.04 0.17,0 0.26,-0.14 0.26,-0.42 0,-0.18 -0.04,-0.31 -0.11,-0.38 -0.04,-0.05 -0.1,-0.07 -0.16,-0.07 -0.09,0 -0.13,0.06 -0.14,0.17z"/>
   <path id="6" class="fil2" d="M14.53 22.26c0.06,0 0.1,0.01 0.11,0.03 0.02,0.02 0.03,0.08 0.04,0.17 0.01,0.06 0.03,0.09 0.06,0.09 0.02,0 0.05,-0.02 0.07,-0.06 0.1,-0.15 0.23,-0.23 0.39,-0.23 0.11,0 0.2,0.04 0.27,0.11 0.03,0.04 0.06,0.08 0.08,0.14 0.03,0.05 0.04,0.11 0.04,0.16 0,0.06 -0.02,0.12 -0.04,0.18 -0.03,0.06 -0.06,0.11 -0.11,0.15 -0.08,0.07 -0.17,0.11 -0.29,0.11 -0.06,0 -0.11,-0.01 -0.15,-0.03 -0.05,-0.03 -0.1,-0.07 -0.17,-0.14 -0.03,-0.02 -0.05,-0.04 -0.07,-0.04 -0.04,0 -0.06,0.02 -0.07,0.06 -0.01,0.04 -0.02,0.12 -0.02,0.25 0,0.18 0.01,0.31 0.02,0.37 0.01,0.04 0.02,0.07 0.04,0.08 0.02,0.02 0.05,0.03 0.1,0.04 0.11,0.04 0.16,0.1 0.16,0.18 0,0.05 -0.01,0.09 -0.05,0.13 -0.03,0.04 -0.08,0.06 -0.14,0.07 -0.12,0.03 -0.29,0.04 -0.52,0.04 -0.22,0 -0.38,-0.02 -0.5,-0.06 -0.1,-0.03 -0.15,-0.09 -0.15,-0.17 0,-0.07 0.04,-0.13 0.11,-0.18 0.04,-0.02 0.06,-0.04 0.08,-0.06 0.01,-0.02 0.02,-0.04 0.02,-0.08 0.02,-0.11 0.03,-0.32 0.03,-0.62 0,-0.05 0,-0.09 -0.01,-0.12 -0.02,-0.02 -0.04,-0.04 -0.08,-0.06 -0.09,-0.03 -0.13,-0.08 -0.13,-0.14 0,-0.06 0.03,-0.12 0.09,-0.16 0.06,-0.04 0.16,-0.08 0.3,-0.12 0.19,-0.06 0.35,-0.09 0.49,-0.09z"/>
   <path id="7" class="fil2" d="M16.73 22.38l0 1.07c0,0.08 0.01,0.14 0.03,0.18 0.01,0.04 0.04,0.08 0.09,0.11 0.04,0.03 0.06,0.05 0.08,0.07 0.01,0.02 0.02,0.04 0.02,0.07 0,0.16 -0.2,0.24 -0.61,0.24 -0.21,0 -0.38,-0.02 -0.51,-0.05 -0.04,-0.01 -0.08,-0.03 -0.11,-0.06 -0.02,-0.04 -0.03,-0.07 -0.03,-0.11 0,-0.03 0,-0.06 0.02,-0.08 0.01,-0.02 0.04,-0.05 0.1,-0.09 0.04,-0.02 0.06,-0.07 0.08,-0.13 0.02,-0.07 0.02,-0.16 0.02,-0.29 0,-0.04 0,-0.12 0,-0.23 -0.01,-0.11 -0.01,-0.17 -0.02,-0.19 0,-0.05 -0.04,-0.09 -0.1,-0.12 -0.08,-0.03 -0.11,-0.08 -0.11,-0.14 0,-0.08 0.05,-0.14 0.15,-0.18 0.13,-0.05 0.28,-0.1 0.44,-0.13 0.15,-0.04 0.28,-0.06 0.36,-0.06 0.07,0 0.1,0.04 0.1,0.12zm-0.36 -0.81c0.11,0 0.19,0.02 0.25,0.06 0.07,0.04 0.1,0.09 0.1,0.16 0,0.09 -0.05,0.17 -0.14,0.22 -0.15,0.09 -0.34,0.14 -0.55,0.14 -0.09,0 -0.16,-0.02 -0.21,-0.06 -0.07,-0.04 -0.11,-0.1 -0.11,-0.18 0,-0.11 0.08,-0.19 0.23,-0.25 0.15,-0.06 0.29,-0.09 0.43,-0.09z"/>
   <path id="8" class="fil2" d="M17.79 22.25c0.06,0 0.16,0.01 0.3,0.04 0.03,0 0.05,0.01 0.07,0.01 0.02,0 0.06,-0.01 0.12,-0.04 0.03,-0.01 0.06,-0.01 0.08,-0.01 0.05,0 0.11,0.03 0.17,0.11 0.04,0.05 0.08,0.12 0.11,0.19 0.03,0.06 0.05,0.12 0.05,0.17 0,0.05 -0.02,0.09 -0.06,0.13 -0.03,0.03 -0.07,0.05 -0.13,0.05 -0.04,0 -0.08,-0.01 -0.11,-0.04 -0.03,-0.02 -0.09,-0.06 -0.16,-0.13 -0.08,-0.08 -0.15,-0.12 -0.2,-0.12 -0.03,0 -0.06,0.01 -0.09,0.04 -0.02,0.02 -0.04,0.05 -0.04,0.09 0,0.06 0.06,0.12 0.18,0.17 0.2,0.09 0.36,0.19 0.47,0.3 0.1,0.1 0.14,0.21 0.14,0.35 0,0.17 -0.07,0.31 -0.22,0.42 -0.13,0.1 -0.29,0.15 -0.47,0.15 -0.05,0 -0.14,0 -0.27,-0.02 -0.11,-0.01 -0.18,-0.02 -0.2,-0.02 -0.01,0 -0.03,0 -0.05,0.01 -0.04,0 -0.06,0 -0.08,0 -0.06,0 -0.1,-0.01 -0.14,-0.04 -0.05,-0.05 -0.09,-0.12 -0.14,-0.22 -0.04,-0.09 -0.06,-0.18 -0.06,-0.25 0,-0.11 0.04,-0.17 0.13,-0.17 0.04,0 0.07,0.01 0.1,0.04 0.03,0.02 0.09,0.08 0.18,0.18 0.05,0.05 0.09,0.09 0.12,0.11 0.04,0.02 0.07,0.03 0.11,0.03 0.04,0 0.07,-0.01 0.1,-0.03 0.02,-0.02 0.04,-0.05 0.04,-0.09 0,-0.05 -0.05,-0.1 -0.15,-0.15 -0.19,-0.1 -0.34,-0.2 -0.42,-0.3 -0.09,-0.1 -0.14,-0.22 -0.14,-0.36 0,-0.14 0.05,-0.27 0.14,-0.37 0.13,-0.16 0.3,-0.23 0.52,-0.23z"/>
   <path id="9" class="fil2" d="M20.56 23.26l-0.87 0c-0.04,0 -0.06,0.02 -0.06,0.05 0,0.08 0.05,0.15 0.13,0.22 0.09,0.08 0.18,0.11 0.28,0.11 0.06,0 0.13,-0.01 0.2,-0.03 0.07,-0.03 0.13,-0.05 0.18,-0.09 0.04,-0.03 0.07,-0.04 0.1,-0.04 0.03,0 0.06,0.02 0.09,0.06 0.03,0.04 0.05,0.08 0.05,0.12 0,0.09 -0.06,0.17 -0.17,0.25 -0.2,0.15 -0.42,0.22 -0.68,0.22 -0.25,0 -0.47,-0.07 -0.65,-0.22 -0.08,-0.07 -0.15,-0.16 -0.21,-0.27 -0.07,-0.14 -0.1,-0.28 -0.1,-0.44 0,-0.2 0.06,-0.39 0.18,-0.55 0.11,-0.15 0.25,-0.25 0.42,-0.32 0.12,-0.05 0.26,-0.08 0.4,-0.08 0.24,0 0.44,0.06 0.6,0.2 0.08,0.06 0.15,0.14 0.2,0.23 0.06,0.11 0.08,0.21 0.08,0.31 0,0.08 -0.01,0.14 -0.05,0.19 -0.03,0.05 -0.07,0.08 -0.12,0.08zm-0.82 -0.35l0.18 0c0.08,0 0.12,-0.03 0.12,-0.1 0,-0.07 -0.02,-0.13 -0.06,-0.17 -0.03,-0.04 -0.08,-0.06 -0.14,-0.06 -0.07,0 -0.13,0.03 -0.17,0.08 -0.03,0.05 -0.05,0.1 -0.05,0.15 0,0.04 0.01,0.07 0.02,0.08 0.02,0.02 0.05,0.02 0.1,0.02z"/>
   <path id="10" class="fil2" d="M21.59 22.25c0.06,0 0.16,0.01 0.3,0.04 0.03,0 0.05,0.01 0.07,0.01 0.02,0 0.06,-0.01 0.12,-0.04 0.03,-0.01 0.06,-0.01 0.08,-0.01 0.05,0 0.11,0.03 0.17,0.11 0.04,0.05 0.08,0.12 0.11,0.19 0.03,0.06 0.05,0.12 0.05,0.17 0,0.05 -0.02,0.09 -0.06,0.13 -0.03,0.03 -0.07,0.05 -0.13,0.05 -0.04,0 -0.08,-0.01 -0.11,-0.04 -0.03,-0.02 -0.09,-0.06 -0.16,-0.13 -0.08,-0.08 -0.15,-0.12 -0.2,-0.12 -0.03,0 -0.06,0.01 -0.09,0.04 -0.02,0.02 -0.04,0.05 -0.04,0.09 0,0.06 0.06,0.12 0.18,0.17 0.2,0.09 0.36,0.19 0.47,0.3 0.1,0.1 0.14,0.21 0.14,0.35 0,0.17 -0.07,0.31 -0.22,0.42 -0.13,0.1 -0.29,0.15 -0.47,0.15 -0.05,0 -0.14,0 -0.27,-0.02 -0.11,-0.01 -0.18,-0.02 -0.2,-0.02 -0.01,0 -0.03,0 -0.05,0.01 -0.04,0 -0.06,0 -0.08,0 -0.06,0 -0.1,-0.01 -0.14,-0.04 -0.05,-0.05 -0.09,-0.12 -0.14,-0.22 -0.04,-0.09 -0.06,-0.18 -0.06,-0.25 0,-0.11 0.04,-0.17 0.13,-0.17 0.04,0 0.07,0.01 0.1,0.04 0.03,0.02 0.09,0.08 0.18,0.18 0.05,0.05 0.09,0.09 0.12,0.11 0.04,0.02 0.07,0.03 0.11,0.03 0.04,0 0.07,-0.01 0.1,-0.03 0.02,-0.02 0.04,-0.05 0.04,-0.09 0,-0.05 -0.05,-0.1 -0.15,-0.15 -0.19,-0.1 -0.34,-0.2 -0.42,-0.3 -0.09,-0.1 -0.14,-0.22 -0.14,-0.36 0,-0.14 0.05,-0.27 0.14,-0.37 0.13,-0.16 0.3,-0.23 0.52,-0.23z"/>
  </g>
 </g>
</svg>
